<svg width="336" height="270" viewBox="0 0 336 270" fill="none" xmlns="http://www.w3.org/2000/svg">
<path d="M-15.5 270V-7.5H359.5V270H-15.5Z" fill="#DF3A1F"/>
<circle cx="168" cy="137" r="103.971" fill="#FF8874"/>
<path fill-rule="evenodd" clip-rule="evenodd" d="M91.8657 112.929C91.495 111.539 91.2406 110.145 91.0964 108.758C90.6913 104.861 95.2419 103.42 98.0063 106.192L107.594 115.805C109.546 117.762 112.716 117.76 114.67 115.801L122.33 108.121C124.279 106.167 124.281 103.006 122.334 101.054L108.749 87.4325C106.44 85.1181 106.966 81.2245 110.1 80.2885C110.336 80.2179 110.575 80.1502 110.815 80.0856C125.093 76.242 139.758 84.7145 143.571 99.0095C144.862 103.851 144.743 108.738 143.466 113.236C142.899 115.233 143.3 117.437 144.791 118.878L206.039 178.095C208.046 180.035 208.073 183.246 206.1 185.225L196.464 194.886C194.485 196.87 191.265 196.843 189.325 194.825L130.041 133.182C128.658 131.744 126.549 131.334 124.622 131.852C110.344 135.696 95.6783 127.224 91.8657 112.929Z" fill="#A5A5A5"/>
<path d="M93.5501 112.475L96.4477 111.698L93.5501 112.475ZM111.264 81.7723L112.04 84.6702L111.264 81.7723ZM141.886 99.4632L144.784 98.6863L141.886 99.4632ZM196.464 194.886L198.585 197.005L196.464 194.886ZM189.325 194.825L187.162 196.908L189.325 194.825ZM206.039 178.095L208.124 175.935L206.039 178.095ZM206.1 185.225L203.978 183.106L206.1 185.225ZM109.63 88.9383L107.506 91.0594L109.63 88.9383ZM141.993 111.993L139.084 111.268L141.993 111.993ZM143.374 117.508L145.459 115.349L143.374 117.508ZM115.1 114.93L112.978 112.811L115.1 114.93ZM89.9232 109.54C90.081 110.777 90.323 112.017 90.6524 113.252L96.4477 111.698C96.1874 110.722 95.997 109.746 95.8729 108.773L89.9232 109.54ZM110.148 112.813L101.827 104.47L97.5793 108.712L105.9 117.055L110.148 112.813ZM119.679 106.092L112.978 112.811L117.221 117.048L123.922 110.33L119.679 106.092ZM107.506 91.0594L119.68 103.266L123.928 99.0234L111.754 86.8172L107.506 91.0594ZM110.488 78.8744C110.39 78.9009 110.292 78.9279 110.194 78.9554L111.808 84.7342C111.885 84.7125 111.963 84.6912 112.04 84.6702L110.488 78.8744ZM144.784 98.6863C140.793 83.7222 125.439 74.8498 110.488 78.8744L112.04 84.6702C123.785 81.5085 135.851 88.477 138.988 100.24L144.784 98.6863ZM144.903 112.718C146.02 108.248 146.052 103.441 144.784 98.6863L138.988 100.24C139.988 103.987 139.961 107.76 139.084 111.268L144.903 112.718ZM141.288 119.668L203.954 180.254L208.124 175.935L145.459 115.349L141.288 119.668ZM203.978 183.106L194.342 192.767L198.585 197.005L208.221 187.343L203.978 183.106ZM191.487 192.743L130.256 129.075L125.932 133.239L187.162 196.908L191.487 192.743ZM90.6524 113.252C94.6435 128.216 109.997 137.089 124.948 133.064L123.396 127.268C111.651 130.43 99.5851 123.461 96.4477 111.698L90.6524 113.252ZM130.256 129.075C128.39 127.135 125.693 126.65 123.396 127.268L124.948 133.064C125.446 132.93 125.791 133.093 125.932 133.239L130.256 129.075ZM194.342 192.767C193.551 193.561 192.263 193.55 191.487 192.743L187.162 196.908C190.267 200.136 195.419 200.18 198.585 197.005L194.342 192.767ZM203.954 180.254C204.757 181.03 204.767 182.314 203.978 183.106L208.221 187.343C211.379 184.177 211.335 179.04 208.124 175.935L203.954 180.254ZM111.754 86.8172C111.275 86.3364 111.156 85.7596 111.224 85.3636C111.257 85.1742 111.327 85.0476 111.396 84.9675C111.458 84.8971 111.57 84.801 111.808 84.7342L110.194 78.9554C107.42 79.7342 105.733 81.9217 105.314 84.3466C104.907 86.6978 105.678 89.2258 107.506 91.0594L111.754 86.8172ZM123.922 110.33C127.039 107.204 127.042 102.146 123.928 99.0234L119.68 103.266C120.459 104.046 120.458 105.311 119.679 106.092L123.922 110.33ZM139.084 111.268C138.388 114.052 138.91 117.368 141.288 119.668L145.459 115.349C144.925 114.833 144.615 113.869 144.903 112.718L139.084 111.268ZM105.9 117.055C109.023 120.186 114.095 120.183 117.221 117.048L112.978 112.811C112.197 113.595 110.929 113.595 110.148 112.813L105.9 117.055ZM95.8729 108.773C95.849 108.586 95.8621 108.469 95.8743 108.408C95.8863 108.349 95.9015 108.322 95.907 108.314C95.9128 108.304 95.9465 108.252 96.0759 108.206C96.3501 108.109 96.9732 108.104 97.5793 108.712L101.827 104.47C99.6688 102.306 96.6414 101.641 94.0802 102.548C91.3595 103.512 89.4925 106.164 89.9232 109.54L95.8729 108.773Z" fill="black"/>
<path d="M217.241 123.095L203.054 108.771L129.49 180.398L146.302 197.374L217.241 123.095Z" fill="#0094FF"/>
<path fill-rule="evenodd" clip-rule="evenodd" d="M244.989 120.748C246.255 119.47 248.308 119.47 249.574 120.748L251.383 122.575C253.649 124.863 253.649 128.571 251.383 130.858L237.835 144.538C235.57 146.826 231.897 146.826 229.631 144.538L227.822 142.712C226.556 141.433 226.556 139.36 227.822 138.082L228.21 137.691C229.262 136.628 229.262 134.906 228.21 133.844C227.158 132.781 225.452 132.781 224.4 133.844L223.881 134.367C222.562 135.7 220.429 135.721 219.083 134.416L196.686 112.69C196.656 112.66 196.607 112.661 196.577 112.691C196.547 112.722 196.498 112.722 196.467 112.691L188.904 105.055C186.573 102.7 182.792 102.7 180.46 105.055L178.425 107.109C176.488 109.066 173.346 109.066 171.409 107.109C169.471 105.153 169.471 101.981 171.409 100.025L177.632 93.7408C177.651 93.7221 177.651 93.6917 177.632 93.6729C177.614 93.6542 177.614 93.6238 177.632 93.605C180.561 90.6555 183.946 88.2258 187.596 86.4538C191.259 84.6749 195.118 83.5935 198.952 83.2714C202.785 82.9493 206.518 83.3927 209.938 84.5764C212.658 85.518 215.138 86.9133 217.289 88.7077C217.309 88.7247 217.339 88.7233 217.358 88.7044C217.378 88.6842 217.41 88.6842 217.43 88.7044L241.077 112.581C242.287 113.802 242.287 115.783 241.077 117.004L240.792 117.292C239.74 118.355 239.74 120.077 240.792 121.139C241.844 122.202 243.55 122.202 244.602 121.139L244.989 120.748Z" fill="#A5A5A5"/>
<path d="M244.99 120.748L242.858 118.637V118.637L244.99 120.748ZM249.574 120.748L251.706 118.637V118.637L249.574 120.748ZM244.602 121.139L242.471 119.028L242.471 119.028L244.602 121.139ZM240.792 121.139L238.661 123.25L238.661 123.25L240.792 121.139ZM240.792 117.292L242.924 119.403L242.924 119.403L240.792 117.292ZM241.078 117.004L238.946 114.893L238.946 114.893L241.078 117.004ZM241.078 112.581L238.946 114.692V114.692L241.078 112.581ZM217.431 88.7042L219.562 86.5932L219.562 86.5931L217.431 88.7042ZM217.358 88.7042L215.227 86.5931L215.227 86.5933L217.358 88.7042ZM217.289 88.7075L215.368 91.0113L215.368 91.0114L217.289 88.7075ZM209.938 84.5762L208.957 87.4112V87.4112L209.938 84.5762ZM198.952 83.2712L199.203 86.2607L198.952 83.2712ZM187.596 86.4536L188.906 89.1523V89.1523L187.596 86.4536ZM177.632 93.6048L179.761 95.7186L179.761 95.7186L177.632 93.6048ZM177.632 93.7406L175.501 91.6296L175.501 91.6296L177.632 93.7406ZM171.409 100.025L169.277 97.9135L169.277 97.9135L171.409 100.025ZM171.409 107.109L169.277 109.22L169.277 109.22L171.409 107.109ZM178.425 107.109L180.557 109.22L178.425 107.109ZM180.46 105.054L182.592 107.165L180.46 105.054ZM188.905 105.054L186.773 107.165H186.773L188.905 105.054ZM196.468 112.691L198.599 110.58L198.599 110.58L196.468 112.691ZM196.578 112.691L194.446 110.58L194.446 110.58L196.578 112.691ZM196.687 112.69L194.598 114.843L194.598 114.843L196.687 112.69ZM197.86 113.828L199.953 115.978C200.534 115.412 200.861 114.636 200.86 113.825C200.86 113.015 200.531 112.239 199.949 111.675L197.86 113.828ZM129.49 180.398L127.398 178.248C126.824 178.807 126.498 179.571 126.49 180.371C126.483 181.171 126.796 181.94 127.359 182.509L129.49 180.398ZM146.303 197.373L144.171 199.484C144.741 200.06 145.52 200.381 146.33 200.373C147.14 200.366 147.913 200.031 148.472 199.445L146.303 197.373ZM212.515 128.044L214.604 125.89C214.03 125.333 213.257 125.029 212.457 125.044C211.658 125.059 210.898 125.393 210.345 125.972L212.515 128.044ZM219.083 134.415L221.172 132.262L221.172 132.262L219.083 134.415ZM223.882 134.367L226.013 136.478L226.013 136.478L223.882 134.367ZM224.4 133.843L222.269 131.732L222.269 131.732L224.4 133.843ZM228.21 133.843L226.079 135.954V135.954L228.21 133.843ZM228.21 137.69L226.079 135.579L226.079 135.579L228.21 137.69ZM227.823 138.082L229.954 140.193L229.954 140.193L227.823 138.082ZM227.823 142.712L229.954 140.6L229.954 140.6L227.823 142.712ZM229.632 144.538L227.5 146.649L227.5 146.649L229.632 144.538ZM237.835 144.538L235.704 142.427L237.835 144.538ZM251.384 130.858L253.515 132.969L251.384 130.858ZM251.384 122.575L249.252 124.686L249.252 124.686L251.384 122.575ZM247.121 122.859C247.213 122.766 247.351 122.766 247.443 122.859L251.706 118.637C249.266 116.173 245.298 116.173 242.858 118.637L247.121 122.859ZM246.734 123.25L247.121 122.859L242.858 118.637L242.471 119.028L246.734 123.25ZM238.661 123.25C240.887 125.498 244.508 125.498 246.734 123.25L242.471 119.028C242.592 118.905 242.802 118.905 242.924 119.028L238.661 123.25ZM238.661 115.181C236.451 117.413 236.451 121.019 238.661 123.25L242.924 119.028C242.979 119.084 243.003 119.158 243.003 119.216C243.003 119.274 242.979 119.347 242.924 119.403L238.661 115.181ZM238.946 114.893L238.661 115.181L242.924 119.403L243.209 119.115L238.946 114.893ZM238.946 114.692C238.969 114.715 238.985 114.746 238.985 114.792C238.985 114.839 238.969 114.869 238.946 114.893L243.209 119.115C245.577 116.724 245.577 112.86 243.209 110.47L238.946 114.692ZM215.299 90.8153L238.946 114.692L243.209 110.47L219.562 86.5932L215.299 90.8153ZM219.49 90.8153C218.336 91.9802 216.453 91.9805 215.299 90.8153L219.562 86.5931C218.368 85.3876 216.421 85.3879 215.227 86.5931L219.49 90.8153ZM215.368 91.0114C216.583 92.0248 218.374 91.9422 219.49 90.8152L215.227 86.5933C216.305 85.504 218.036 85.4242 219.211 86.4035L215.368 91.0114ZM208.957 87.4112C211.342 88.2368 213.502 89.4547 215.368 91.0113L219.211 86.4037C216.775 84.3715 213.975 82.7988 210.92 81.7412L208.957 87.4112ZM199.203 86.2607C202.646 85.9713 205.958 86.3729 208.957 87.4112L210.92 81.7412C207.08 80.4121 202.925 79.9268 198.701 80.2817L199.203 86.2607ZM188.906 89.1523C192.258 87.5251 195.759 86.5501 199.203 86.2607L198.701 80.2817C194.478 80.6366 190.262 81.8243 186.286 83.7548L188.906 89.1523ZM179.761 95.7186C182.458 93.0028 185.568 90.7732 188.906 89.1523L186.286 83.7548C182.324 85.6781 178.664 88.3079 175.504 91.4911L179.761 95.7186ZM179.764 91.5616C180.903 92.7121 180.904 94.5676 179.761 95.7186L175.504 91.491C174.324 92.6795 174.324 94.5958 175.501 95.7838L179.764 91.5616ZM179.764 95.8517C180.94 94.6638 180.941 92.7496 179.764 91.5616L175.501 95.7838C174.361 94.6333 174.362 92.78 175.501 91.6296L179.764 95.8517ZM173.54 102.136L179.764 95.8517L175.501 91.6296L169.277 97.9135L173.54 102.136ZM173.54 104.998C172.761 104.211 172.761 102.923 173.54 102.136L169.277 97.9135C166.182 101.039 166.182 106.095 169.277 109.22L173.54 104.998ZM176.294 104.998C175.53 105.769 174.304 105.769 173.54 104.998L169.277 109.22C172.389 112.362 177.446 112.362 180.557 109.22L176.294 104.998ZM178.329 102.943L176.294 104.998L180.557 109.22L182.592 107.165L178.329 102.943ZM191.036 102.943C187.531 99.4037 181.835 99.4037 178.329 102.943L182.592 107.165C183.75 105.996 185.615 105.996 186.773 107.165L191.036 102.943ZM198.599 110.58L191.036 102.943L186.773 107.165L194.336 114.802L198.599 110.58ZM194.446 110.58C195.59 109.425 197.456 109.425 198.599 110.58L194.336 114.802C195.54 116.018 197.505 116.018 198.709 114.802L194.446 110.58ZM198.776 110.536C197.564 109.361 195.633 109.381 194.446 110.58L198.709 114.802C197.582 115.94 195.748 115.959 194.598 114.843L198.776 110.536ZM199.949 111.675L198.776 110.536L194.598 114.843L195.772 115.982L199.949 111.675ZM195.768 111.679L127.398 178.248L131.583 182.547L199.953 115.978L195.768 111.679ZM127.359 182.509L144.171 199.484L148.434 195.262L131.622 178.287L127.359 182.509ZM148.472 199.445L214.684 130.116L210.345 125.972L144.133 195.301L148.472 199.445ZM221.172 132.262L214.604 125.89L210.426 130.197L216.995 136.569L221.172 132.262ZM221.75 132.256C221.587 132.42 221.337 132.422 221.172 132.262L216.995 136.569C219.521 139.02 223.537 138.979 226.013 136.478L221.75 132.256ZM222.269 131.732L221.75 132.256L226.013 136.478L226.532 135.954L222.269 131.732ZM230.342 131.732C228.116 129.485 224.495 129.485 222.269 131.732L226.532 135.954C226.41 136.077 226.2 136.077 226.079 135.954L230.342 131.732ZM230.342 139.801C232.552 137.57 232.552 133.964 230.342 131.732L226.079 135.954C226.023 135.898 225.999 135.825 225.999 135.767C225.999 135.709 226.023 135.635 226.079 135.579L230.342 139.801ZM229.954 140.193L230.342 139.801L226.079 135.579L225.691 135.971L229.954 140.193ZM229.954 140.6C229.903 140.548 229.873 140.48 229.873 140.397C229.873 140.313 229.903 140.245 229.954 140.193L225.691 135.971C223.267 138.418 223.267 142.375 225.691 144.823L229.954 140.6ZM231.763 142.427L229.954 140.6L225.691 144.823L227.5 146.649L231.763 142.427ZM235.704 142.427C234.612 143.529 232.855 143.529 231.763 142.427L227.5 146.649C230.939 150.122 236.528 150.122 239.967 146.649L235.704 142.427ZM249.252 128.747L235.704 142.427L239.967 146.649L253.515 132.969L249.252 128.747ZM249.252 124.686C250.359 125.804 250.359 127.629 249.252 128.747L253.515 132.969C256.938 129.513 256.938 123.92 253.515 120.464L249.252 124.686ZM247.443 122.859L249.252 124.686L253.515 120.464L251.706 118.637L247.443 122.859Z" fill="black"/>
</svg>
