<svg width="327" height="289" viewBox="0 0 327 289" fill="none" xmlns="http://www.w3.org/2000/svg">
<path d="M74.8103 107.442L32.6382 200.046L129.942 244.357L74.8103 107.442Z" fill="#D3D3D3" stroke="black" stroke-width="10"/>
<path d="M72.4865 173.283C88.5623 233.279 150.452 268.861 210.753 252.704C271.054 236.546 306.861 174.786 290.786 114.79C274.71 54.7948 212.82 19.2127 152.519 35.3703C92.2179 51.5279 56.4107 113.288 72.4865 173.283Z" fill="white" stroke="black" stroke-width="10"/>
<path d="M72.4865 173.283C88.5623 233.279 150.452 268.861 210.753 252.704C271.054 236.546 306.861 174.786 290.786 114.79C274.71 54.7948 212.82 19.2127 152.519 35.3703C92.2179 51.5279 56.4107 113.288 72.4865 173.283Z" stroke="black" stroke-width="10"/>
<path fill-rule="evenodd" clip-rule="evenodd" d="M109.155 135.536C109.106 136.17 109.109 136.808 109.161 137.442C109.13 137.819 109.117 138.197 109.121 138.575C109.124 138.856 109.138 139.137 109.161 139.418C109.106 140.077 109.106 140.74 109.161 141.399C109.106 142.058 109.106 142.72 109.161 143.378C109.106 144.037 109.106 144.699 109.16 145.357C109.106 146.016 109.106 146.679 109.16 147.337C109.106 147.995 109.106 148.657 109.16 149.315C109.106 149.974 109.106 150.637 109.16 151.296C109.106 151.954 109.106 152.616 109.16 153.274C109.106 153.933 109.106 154.597 109.16 155.256C108.808 159.533 110.747 163.973 114.978 166.463L175.917 202.343C179.668 204.551 184.331 204.551 188.081 202.343L249.02 166.463C253.251 163.973 255.19 159.533 254.838 155.256C254.892 154.597 254.892 153.933 254.838 153.274C254.892 152.616 254.892 151.954 254.838 151.296C254.892 150.637 254.892 149.974 254.838 149.315C254.892 148.657 254.892 147.995 254.838 147.337C254.892 146.679 254.892 146.016 254.838 145.357C254.892 144.699 254.892 144.037 254.837 143.378C254.892 142.72 254.892 142.058 254.837 141.399C254.892 140.74 254.892 140.077 254.837 139.418C254.892 138.76 254.891 138.099 254.837 137.442C254.889 136.808 254.891 136.17 254.843 135.536L184.494 177.135C182.955 178.045 181.043 178.045 179.504 177.135L109.155 135.536Z" fill="#A5A5A5"/>
<path d="M179.505 85.4755C181.044 84.5654 182.956 84.5654 184.495 85.4755L254.863 127.085C258.073 128.983 258.073 133.627 254.863 135.525L184.495 177.135C182.956 178.045 181.044 178.045 179.505 177.135L109.137 135.525C105.927 133.627 105.927 128.983 109.137 127.085L179.505 85.4755Z" fill="#6B6E70"/>
<path d="M106.147 130.468C105.71 132.099 105.546 133.788 105.653 135.461C105.61 136.121 105.61 136.783 105.653 137.443C105.628 137.834 105.618 138.226 105.622 138.616L105.622 138.62C105.625 138.886 105.635 139.152 105.653 139.42C105.61 140.079 105.61 140.741 105.653 141.4C105.61 142.059 105.61 142.72 105.653 143.379C105.61 144.037 105.61 144.698 105.652 145.358C105.61 146.017 105.61 146.679 105.652 147.338C105.61 147.997 105.61 148.658 105.652 149.317C105.61 149.976 105.61 150.638 105.652 151.297C105.61 151.957 105.61 152.617 105.652 153.274C105.61 153.935 105.61 154.597 105.652 155.258C105.307 160.685 107.826 166.315 113.203 169.48C113.203 169.48 113.203 169.48 113.203 169.48L174.142 205.36L175.917 202.344L174.142 205.36C178.989 208.214 185.011 208.214 189.858 205.36C189.858 205.36 189.858 205.36 189.858 205.36L250.797 169.48C256.174 166.315 258.693 160.685 258.348 155.257C258.39 154.597 258.39 153.935 258.348 153.274C258.389 152.617 258.39 151.957 258.348 151.297C258.39 150.638 258.39 149.976 258.348 149.317C258.39 148.658 258.39 147.997 258.348 147.338C258.39 146.679 258.39 146.017 258.348 145.358C258.39 144.698 258.389 144.037 258.347 143.379C258.389 142.72 258.389 142.059 258.347 141.4C258.389 140.74 258.389 140.079 258.347 139.419C258.389 138.76 258.389 138.1 258.347 137.443C258.389 136.783 258.389 136.121 258.347 135.461C258.454 133.788 258.29 132.099 257.853 130.468C257.598 126.952 255.738 123.537 252.273 121.488L187.849 83.3931C184.243 81.2609 179.756 81.2609 176.151 83.3931L111.727 121.488C108.262 123.537 106.401 126.952 106.147 130.468Z" stroke="black" stroke-width="7"/>
<path d="M174.438 186.725C174.438 189.896 171.456 191.674 168.269 190.486C165.081 189.299 162.896 185.937 162.896 182.767C162.896 179.597 165.479 177.819 168.667 179.006C171.854 180.194 174.438 183.555 174.438 186.725Z" fill="#00E0FF"/>
<path fill-rule="evenodd" clip-rule="evenodd" d="M121.308 151.31V163.095L125.288 165.439V153.653L121.308 151.31ZM131.258 157.169V168.954L135.238 171.298V159.513L131.258 157.169ZM141.209 163.028V174.814L145.189 177.158V165.372L141.209 163.028Z" fill="#6B6E70"/>
<path fill-rule="evenodd" clip-rule="evenodd" d="M245.544 148.858V160.644L241.564 162.988V151.202L245.544 148.858ZM235.594 154.718V166.503L231.614 168.847V157.062L235.594 154.718ZM225.643 160.577V172.363L221.663 174.706V162.921L225.643 160.577Z" fill="#6B6E70"/>
<path fill-rule="evenodd" clip-rule="evenodd" d="M215.964 165.573V177.359L211.984 179.702V167.917L215.964 165.573ZM206.014 171.433V183.218L202.034 185.562V173.776L206.014 171.433ZM196.064 177.292V189.077L192.084 191.421V179.636L196.064 177.292Z" fill="#6B6E70"/>
<path d="M115.445 159.556C115.445 168.248 129.563 188.307 158.47 182.289" stroke="#EB03FF" stroke-width="2.89828" stroke-linecap="round"/>
<path d="M115.073 149.102C108.723 156.547 118.435 177.519 158.771 176.181" stroke="#7F00FF" stroke-width="2.89828" stroke-linecap="round"/>
</svg>
