<svg width="50" height="60" viewBox="0 0 50 60" fill="none" xmlns="http://www.w3.org/2000/svg">
<mask id="path-1-outside-1" maskUnits="userSpaceOnUse" x="0" y="-0.373535" width="50" height="61" fill="black">
<rect fill="white" y="-0.373535" width="50" height="61"/>
<path fill-rule="evenodd" clip-rule="evenodd" d="M39.951 7.6488C39.9483 7.65149 39.9448 7.65325 39.941 7.65381L35.6957 8.2817C31.0754 8.96506 27.2639 12.0488 25.5586 16.2356L22.9259 9.97435C22.3959 8.71373 20.9443 8.1215 19.6836 8.65157C18.423 9.18163 17.8308 10.6333 18.3609 11.8939L21.4813 19.315C21.1571 19.2861 20.8297 19.2715 20.4996 19.2715C13.044 19.2715 7 26.7545 7 35.9852C7 45.216 13.044 52.699 20.4996 52.699C22.0775 52.699 23.5922 52.3638 24.9998 51.7478C26.4072 52.3637 27.9217 52.6988 29.4995 52.6988C36.9551 52.6988 42.999 45.2158 42.999 35.985C42.999 28.8728 39.411 22.7982 34.3539 20.3844C36.9952 18.3766 38.8397 15.3808 39.3493 11.9353L39.9772 7.69002C39.9778 7.68625 39.9795 7.68276 39.9822 7.68006L40.002 7.66024C40.0078 7.65446 40.0029 7.64465 39.9948 7.64585C39.9892 7.64668 39.9843 7.64185 39.9852 7.63622C39.9864 7.62813 39.9766 7.6232 39.9708 7.62898L39.951 7.6488Z"/>
</mask>
<path d="M39.941 7.65381L40.9652 14.5785L40.9654 14.5784L39.941 7.65381ZM39.951 7.6488L35.0016 2.69869L34.9999 2.70035L39.951 7.6488ZM35.6957 8.2817L34.6715 1.35703L35.6957 8.2817ZM25.5586 16.2356L19.1059 18.9488L25.6616 34.5399L32.0415 18.876L25.5586 16.2356ZM22.9259 9.97435L29.3787 7.26109V7.26109L22.9259 9.97435ZM19.6836 8.65157L22.3969 15.1043L22.3969 15.1043L19.6836 8.65157ZM18.3609 11.8939L11.9081 14.6071L11.9081 14.6071L18.3609 11.8939ZM21.4813 19.315L20.8609 26.2874L32.4399 27.3177L27.934 16.6017L21.4813 19.315ZM24.9998 51.7478L27.806 45.3349L24.9996 44.1069L22.1933 45.335L24.9998 51.7478ZM34.3539 20.3844L30.1177 14.8117L20.9802 21.7577L31.3386 26.7017L34.3539 20.3844ZM39.3493 11.9353L46.274 12.9595V12.9595L39.3493 11.9353ZM39.9772 7.69002L46.9019 8.7142L46.902 8.71312L39.9772 7.69002ZM39.9822 7.68006L44.9297 12.6321L44.9321 12.6297L39.9822 7.68006ZM40.002 7.66024L35.0522 2.7106L35.0522 2.71062L40.002 7.66024ZM39.9948 7.64585L41.0187 14.5706L41.0187 14.5706L39.9948 7.64585ZM39.9852 7.63622L46.91 8.65927L46.9101 8.65882L39.9852 7.63622ZM39.9708 7.62898L44.9202 12.5791L44.9207 12.5786L39.9708 7.62898ZM40.9654 14.5784C42.4553 14.358 43.8359 13.6639 44.902 12.5973L34.9999 2.70035C36.0606 1.63908 37.4342 0.948467 38.9166 0.729169L40.9654 14.5784ZM36.7199 15.2064L40.9652 14.5785L38.9168 0.729138L34.6715 1.35703L36.7199 15.2064ZM32.0415 18.876C32.8291 16.9423 34.591 15.5212 36.7199 15.2064L34.6715 1.35703C27.5597 2.40889 21.6987 7.15524 19.0758 13.5951L32.0415 18.876ZM16.4732 12.6876L19.1059 18.9488L32.0114 13.5223L29.3787 7.26109L16.4732 12.6876ZM22.3969 15.1043C20.0937 16.0728 17.4416 14.9908 16.4732 12.6876L29.3787 7.26109C27.3502 2.43671 21.7948 0.170245 16.9704 2.19879L22.3969 15.1043ZM24.8136 9.18062C25.7821 11.4838 24.7 14.1359 22.3969 15.1043L16.9704 2.19879C12.146 4.22734 9.87954 9.78274 11.9081 14.6071L24.8136 9.18062ZM27.934 16.6017L24.8136 9.18061L11.9081 14.6071L15.0285 22.0282L27.934 16.6017ZM22.1017 12.3425C21.5717 12.2954 21.0373 12.2715 20.4996 12.2715V26.2715C20.6221 26.2715 20.7425 26.2769 20.8609 26.2874L22.1017 12.3425ZM20.4996 12.2715C7.85573 12.2715 0 24.3588 0 35.9852H14C14 29.1501 18.2322 26.2715 20.4996 26.2715V12.2715ZM0 35.9852C0 47.6116 7.85574 59.699 20.4996 59.699V45.699C18.2322 45.699 14 42.8204 14 35.9852H0ZM20.4996 59.699C23.0853 59.699 25.5529 59.1468 27.8063 58.1606L22.1933 45.335C21.6316 45.5809 21.0698 45.699 20.4996 45.699V59.699ZM22.1936 58.1607C24.4468 59.1467 26.9141 59.6988 29.4995 59.6988V45.6988C28.9293 45.6988 28.3676 45.5806 27.806 45.3349L22.1936 58.1607ZM29.4995 59.6988C42.1433 59.6988 49.999 47.6114 49.999 35.985H35.999C35.999 42.8201 31.7668 45.6988 29.4995 45.6988V59.6988ZM49.999 35.985C49.999 26.7356 45.3289 17.8663 37.3691 14.0671L31.3386 26.7017C33.4932 27.7301 35.999 31.01 35.999 35.985H49.999ZM32.4247 10.9111C32.1897 12.4994 31.3423 13.8808 30.1177 14.8117L38.59 25.9571C42.6481 22.8723 45.4897 18.2623 46.274 12.9595L32.4247 10.9111ZM33.0525 6.66584L32.4247 10.9111L46.274 12.9595L46.9019 8.7142L33.0525 6.66584ZM35.0347 2.72807C33.9668 3.79506 33.2726 5.17667 33.0524 6.66691L46.902 8.71312C46.683 10.1958 45.9923 11.5705 44.9297 12.6321L35.0347 2.72807ZM35.0522 2.71062L35.0323 2.73044L44.9321 12.6297L44.9519 12.6099L35.0522 2.71062ZM41.0187 14.5706C34.3548 15.5559 30.2891 7.47387 35.0522 2.7106L44.9519 12.6099C49.7265 7.83506 45.6509 -0.266627 38.9709 0.721146L41.0187 14.5706ZM33.0603 6.61317C32.3738 11.2604 36.3657 15.2586 41.0187 14.5706L38.9709 0.721136C43.6126 0.0348148 47.5949 4.02332 46.91 8.65927L33.0603 6.61317ZM44.9207 12.5786C40.1538 17.3457 32.0771 13.2713 33.0603 6.61362L46.9101 8.65882C47.8956 1.98497 39.7993 -2.09935 35.0209 2.67937L44.9207 12.5786ZM44.9003 12.5989L44.9202 12.5791L35.0214 2.67887L35.0016 2.69869L44.9003 12.5989Z" fill="black" mask="url(#path-1-outside-1)"/>
<path fill-rule="evenodd" clip-rule="evenodd" d="M39.9512 7.64821C39.9485 7.6509 39.945 7.65266 39.9412 7.65321L35.696 8.2811C30.0279 9.11943 25.5771 13.5702 24.7388 19.2382L24.1109 23.4835C24.1104 23.4873 24.1086 23.4908 24.1059 23.4935L24.0861 23.5133C24.0803 23.5191 24.0853 23.5289 24.0933 23.5277C24.099 23.5268 24.1038 23.5317 24.103 23.5373C24.1018 23.5454 24.1116 23.5503 24.1174 23.5445L24.1372 23.5247C24.1399 23.522 24.1434 23.5203 24.1471 23.5197L28.3924 22.8918C34.0605 22.0535 38.5112 17.6028 39.3495 11.9347L39.9774 7.68942C39.978 7.68565 39.9797 7.68216 39.9824 7.67947L40.0023 7.65965C40.008 7.65387 40.0031 7.64406 39.995 7.64526C39.9894 7.64609 39.9846 7.64125 39.9854 7.63562C39.9866 7.62754 39.9768 7.62261 39.971 7.62839L39.9512 7.64821Z" fill="#1CC64B"/>
<path fill-rule="evenodd" clip-rule="evenodd" d="M29.4995 52.6985C36.9551 52.6985 42.999 45.2155 42.999 35.9848C42.999 26.754 36.9551 19.271 29.4995 19.271C27.9214 19.271 26.4066 19.6062 24.999 20.2223C23.5917 19.6065 22.0772 19.2715 20.4996 19.2715C13.044 19.2715 7 26.7545 7 35.9852C7 45.216 13.044 52.699 20.4996 52.699C22.0776 52.699 23.5924 52.3638 25 51.7477C26.4074 52.3635 27.9218 52.6985 29.4995 52.6985Z" fill="#FF0000"/>
<rect x="17" y="8.99951" width="5" height="15" rx="2.5" transform="rotate(-22.8057 17 8.99951)" fill="#984900"/>
</svg>