<svg width="130" height="239" viewBox="0 0 130 239" fill="none" xmlns="http://www.w3.org/2000/svg">
<rect x="24" y="9.65674" width="47" height="109" rx="17.5253" fill="black"/>
<path d="M21.0489 120.897C20.8294 116.033 24.6159 111.923 29.4809 111.745L44.7035 111.185C49.9239 110.993 54.1515 115.383 53.7638 120.592L47.6055 203.346C47.2748 207.79 43.6617 211.278 39.209 211.452L33.8652 211.66C29.0501 211.849 24.9868 208.113 24.7694 203.3L21.0489 120.897Z" fill="#3A71B3"/>
<path d="M42.6795 118.492C41.3047 113.3 44.8798 107.879 50.1989 107.09L63.4523 105.124C68.0023 104.449 72.129 107.462 72.8885 112.013L87.1106 197.244C87.9071 202.018 84.7188 206.719 79.9893 207.745L74.8591 208.858C70.4385 209.817 66.1777 207.222 65.0249 202.869L42.6795 118.492Z" fill="#3A71B3"/>
<rect width="29.4622" height="32.0019" rx="8.76265" transform="matrix(0.982336 -0.187128 0.186679 0.982421 31.541 124.995)" fill="#3A71B3"/>
<rect width="13.1429" height="21.8812" rx="6.57144" transform="matrix(-0.258819 0.965926 -0.966087 -0.258218 116.541 118.307)" fill="#F4C498"/>
<path fill-rule="evenodd" clip-rule="evenodd" d="M63.6107 71.7066C64.0531 69.7873 65.5937 68.3488 67.4952 67.8393C72.6462 66.4591 77.7324 72.9052 77.1847 78.2119C76.7984 81.9546 77.0746 85.8385 78.1046 89.7017C79.8788 96.3565 83.6224 101.946 88.5183 105.986C92.1971 109.021 93.4451 114.895 90.0677 118.27C88.2029 120.134 85.3757 120.755 83.0911 119.445C74.4531 114.494 67.281 105.194 64.1476 93.4414C62.1354 85.8943 62.07 78.3908 63.6107 71.7066Z" fill="#F4C498"/>
<path fill-rule="evenodd" clip-rule="evenodd" d="M64.5367 70.5145C65.0907 68.7113 66.6557 67.4371 68.5058 67.0745C73.662 66.0639 78.3032 73.1253 77.4088 78.3051C76.8386 81.6073 76.8471 85.0497 77.5208 88.5097C77.7141 89.5027 77.3002 90.5308 76.4317 91.0505L69.8904 94.9642C67.3756 96.469 64.1106 95.2385 63.5507 92.363C62.0483 84.6465 62.5105 77.1084 64.5367 70.5145Z" fill="#DF3A1F"/>
<path d="M24.1982 75.3884C24.1982 67.8494 30.5262 61.8554 38.054 62.2637L62.3917 63.5837C69.2728 63.9569 74.6975 69.5813 74.8217 76.4715L75.3681 106.787C75.497 113.938 69.8842 119.879 62.7373 120.157L37.8533 121.126C30.3992 121.416 24.1982 115.451 24.1982 107.992V75.3884Z" fill="#DF3A1F"/>
<rect width="15" height="23" rx="7.5" transform="matrix(-0.610433 0.792068 -0.791333 -0.611386 54.7397 137.203)" fill="#F4C498"/>
<path fill-rule="evenodd" clip-rule="evenodd" d="M27.3687 65.8903C28.8273 64.6998 30.8326 64.5104 32.5703 65.2368C37.4166 67.2626 37.3625 75.722 33.7491 79.5323C31.4417 81.9654 29.5389 84.8384 28.1811 88.097C24.4376 97.081 25.6879 106.953 30.6681 114.82C32.7337 118.083 33.1022 122.371 30.7388 125.422C28.5369 128.264 24.5643 129.285 21.7811 127.006C10.8926 118.09 7.47626 100.231 14.4321 83.538C17.4593 76.2731 22.0246 70.252 27.3687 65.8903Z" fill="#F4C498"/>
<path fill-rule="evenodd" clip-rule="evenodd" d="M27.3687 65.8903C28.8273 64.6998 30.8326 64.5104 32.5703 65.2368C37.4167 67.2626 37.3625 75.722 33.7491 79.5323C31.4417 81.9654 29.5389 84.8384 28.181 88.0971C27.7839 89.0502 26.8517 89.6893 25.8207 89.6377L18.2875 89.2604C15.3453 89.113 13.2987 86.2581 14.4321 83.5381C17.4593 76.2731 22.0246 70.252 27.3687 65.8903Z" fill="#DF3A1F"/>
<rect x="27.1963" y="19.4514" width="44.1963" height="39.4319" rx="17.5253" fill="black"/>
<rect x="49.5127" y="18.137" width="21.8794" height="31.9837" rx="10.9397" fill="black"/>
<path d="M70.6081 33.9202C70.6081 51.1567 66.9691 57.6565 55.9435 57.6565C44.9179 57.6565 27.6616 49.8655 27.6616 37.6125C27.6616 25.3596 41.7755 9.65649 52.801 9.65649C63.8266 9.65649 70.6081 18.1567 70.6081 33.9202Z" fill="#F4C498"/>
<path d="M39.6387 51.4348C39.6387 46.5953 43.5618 42.6721 48.4013 42.6721H49.2547C54.0942 42.6721 58.0173 46.5953 58.0173 51.4348V58.883C58.0173 63.7225 54.0942 67.6457 49.2547 67.6457H48.4013C43.5618 67.6457 39.6387 63.7225 39.6387 58.883V51.4348Z" fill="#F4C498"/>
<path fill-rule="evenodd" clip-rule="evenodd" d="M28.4421 37.668C26.306 26.8677 32.6074 16.4062 42.7106 14.1499C46.2257 13.365 49.7451 13.675 52.9517 14.8632C55.0877 25.6635 48.7864 36.125 38.6831 38.3813C35.168 39.1662 31.6486 38.8562 28.4421 37.668Z" fill="black"/>
<path fill-rule="evenodd" clip-rule="evenodd" d="M64.3916 13.9484C58.6836 8.75164 50.825 6.44792 43.1686 8.50326C32.8721 11.2674 26.1933 21.0422 26.3087 31.8731C31.6387 35.5283 39.0689 36.8426 46.5263 34.8407C57.2987 31.9489 64.5683 23.0927 64.3916 13.9484Z" fill="black"/>
<path fill-rule="evenodd" clip-rule="evenodd" d="M39.6923 55.979C34.5394 46.5783 36.7986 34.1238 45.7155 26.2837C52.8665 19.9962 62.4033 18.3435 70.3587 21.2009C69.6096 19.8343 68.7038 18.5322 67.6392 17.3182C59.2505 7.75355 44.1708 7.27944 33.9577 16.2593C23.7445 25.2391 22.2654 40.2725 30.6541 49.8372C33.1692 52.7049 36.2858 54.7554 39.6923 55.979Z" fill="black"/>
<path fill-rule="evenodd" clip-rule="evenodd" d="M44.7185 43.6391C44.0371 46.1869 40.7838 46.9362 38.8972 45.0924C36.9137 43.1539 35.9916 40.3417 36.7229 37.6072C37.4043 35.0595 40.6576 34.3101 42.5443 36.1539C44.5278 38.0924 45.4499 40.9047 44.7185 43.6391Z" fill="#F4C498"/>
<path d="M73.6027 41.8729L69.0235 33.4367C68.034 31.6138 65.2658 32.3166 65.2658 34.3908V44.5669C65.2658 45.967 66.6673 46.9338 67.9761 46.4365L72.5554 44.6966C73.6873 44.2665 74.1804 42.9371 73.6027 41.8729Z" fill="#F4C498"/>
<rect width="5" height="7.5" rx="2.5" transform="matrix(-1 0 0 1 60.6943 31.657)" fill="black"/>
<rect width="3.26823" height="8.64696" rx="1.63411" transform="matrix(-4.37114e-08 -1 -0.999907 0.0136318 64.5532 27.5542)" fill="black"/>
<path d="M59.1943 48.6568C60.9363 51.2823 64.1944 52.1567 66.4732 52.2823L66.9736 51.7822C63.1943 52.6567 59.1943 48.6568 59.1943 48.6568Z" stroke="black" stroke-width="3.3" stroke-linecap="round" stroke-linejoin="round"/>
<path d="M56.918 218.075C60.3047 218.474 62.8569 221.345 62.8569 224.755C62.8569 228.469 59.8457 231.481 56.1311 231.481L33.7041 231.481C29.2626 231.481 25.662 227.88 25.662 223.439C25.662 218.624 29.8636 214.888 34.6449 215.452L56.918 218.075Z" fill="#FFBA09"/>
<path d="M96.9288 212.489C100.329 212.237 103.379 214.57 104.026 217.919C104.73 221.565 102.345 225.094 98.6986 225.8L76.6783 230.064C72.3179 230.909 68.1003 228.058 67.258 223.697C66.345 218.97 69.7613 214.504 74.5621 214.148L96.9288 212.489Z" fill="#FFBA09"/>
<mask id="path-26-outside-1" maskUnits="userSpaceOnUse" x="3.81592" y="-0.243896" width="119" height="239" fill="black">
<rect fill="white" x="3.81592" y="-0.243896" width="119" height="239"/>
<path fill-rule="evenodd" clip-rule="evenodd" d="M39.7144 9.74919C30.8863 10.6555 24.0001 18.1146 24.0001 27.182V68.9673C20.1114 72.9298 16.8008 77.8531 14.4319 83.5381C14.4242 83.5568 14.4165 83.5754 14.409 83.5941C7.58582 100.027 10.8067 117.576 21.3069 126.608L24.7695 203.3C24.9868 208.113 29.0502 211.849 33.8652 211.66L39.2091 211.452C43.6618 211.278 47.2749 207.79 47.6056 203.346L51.2919 153.81L51.9972 153.676L65.0249 202.869C66.1777 207.222 70.4386 209.817 74.8592 208.858L79.9894 207.745C84.7189 206.719 87.9072 202.018 87.1106 197.244L73.2506 114.183C73.6393 113.586 73.9806 112.955 74.2694 112.296C76.9252 115.206 79.9087 117.621 83.0911 119.445C85.3758 120.755 88.203 120.134 90.0678 118.27C93.4452 114.895 92.1972 109.021 88.5184 105.986C83.6225 101.946 79.8789 96.3564 78.1046 89.7017C77.4122 87.1044 77.0604 84.4978 77.0217 81.9311C77.0726 80.708 77.203 79.4974 77.4089 78.3051C78.1553 73.9823 75.0463 68.349 71.0001 67.1907V45.2876L72.5554 44.6966C73.6874 44.2665 74.1805 42.9371 73.6028 41.8729L71.3929 37.8016V36.9767C71.3929 36.9265 71.3927 36.8763 71.3922 36.8261V29.0766C71.3922 28.02 71.2424 26.9984 70.9629 26.0319C70.8498 24.2857 70.4809 22.6092 69.8934 21.0395C70.0491 21.0916 70.2042 21.1454 70.3587 21.2009C69.9479 20.4515 69.49 19.7215 68.9846 19.0148C67.2134 15.6582 64.3845 12.9461 60.9414 11.3223C55.7209 8.03679 49.3783 6.83643 43.1688 8.50339C41.9663 8.8262 40.8131 9.24462 39.7144 9.74919ZM114.84 124.655C115.78 121.149 113.699 117.547 110.193 116.61L101.751 114.354C98.2443 113.417 94.6405 115.499 93.7011 119.005C92.7618 122.51 94.8427 126.112 98.3489 127.049L106.791 129.305C110.297 130.242 113.901 128.16 114.84 124.655ZM56.9181 218.075C60.3049 218.474 62.8571 221.345 62.8571 224.755C62.8571 228.469 59.8459 231.481 56.1313 231.481H33.7043C29.2628 231.481 25.6622 227.88 25.6622 223.439C25.6622 218.624 29.8637 214.888 34.6451 215.452L56.9181 218.075ZM104.026 217.919C103.379 214.57 100.329 212.237 96.9288 212.489L74.5621 214.148C69.7613 214.504 66.3451 218.97 67.2581 223.697C68.1004 228.058 72.3179 230.909 76.6783 230.064L98.6986 225.8C102.345 225.094 104.73 221.565 104.026 217.919Z"/>
</mask>
<path d="M39.7144 9.74919L40.4292 16.7126C41.1927 16.6342 41.9381 16.4308 42.6356 16.1105L39.7144 9.74919ZM24.0001 68.9673L28.9962 73.8703C30.2805 72.5615 31.0001 70.801 31.0001 68.9673H24.0001ZM14.4319 83.5381L7.97045 80.8457L7.97044 80.8457L14.4319 83.5381ZM14.409 83.5941L20.8739 86.2785C20.8852 86.2513 20.8963 86.2239 20.9073 86.1965L14.409 83.5941ZM21.3069 126.608L28.2997 126.292C28.2127 124.364 27.3341 122.559 25.8714 121.3L21.3069 126.608ZM24.7695 203.3L31.7624 202.984L24.7695 203.3ZM33.8652 211.66L33.592 204.666H33.592L33.8652 211.66ZM39.2091 211.452L39.4823 218.446H39.4823L39.2091 211.452ZM47.6056 203.346L40.6249 202.827L47.6056 203.346ZM51.2919 153.81L49.982 146.934C46.8716 147.526 44.5462 150.133 44.3112 153.29L51.2919 153.81ZM51.9972 153.676L58.7639 151.884C57.8233 148.332 54.2967 146.112 50.6873 146.799L51.9972 153.676ZM65.0249 202.869L71.7917 201.077L65.0249 202.869ZM74.8592 208.858L73.3753 202.017H73.3752L74.8592 208.858ZM79.9894 207.745L81.4733 214.586H81.4734L79.9894 207.745ZM87.1106 197.244L94.0152 196.092L87.1106 197.244ZM73.2506 114.183L67.3831 110.366C66.4277 111.834 66.0577 113.607 66.346 115.335L73.2506 114.183ZM74.2694 112.296L79.4397 107.578C77.8427 105.828 75.4692 105.005 73.1318 105.39C70.7944 105.774 68.8103 107.316 67.8588 109.485L74.2694 112.296ZM83.0911 119.445L79.61 125.518L79.61 125.518L83.0911 119.445ZM90.0678 118.27L95.016 123.221L90.0678 118.27ZM88.5184 105.986L84.0631 111.385H84.0632L88.5184 105.986ZM78.1046 89.7017L71.3409 91.505L78.1046 89.7017ZM77.0217 81.9311L70.0277 81.6399C70.0222 81.7721 70.0205 81.9045 70.0225 82.0368L77.0217 81.9311ZM77.4089 78.3051L70.5109 77.1141L77.4089 78.3051ZM71.0001 67.1907H64.0001C64.0001 70.3147 66.0702 73.0606 69.0736 73.9204L71.0001 67.1907ZM71.0001 45.2876L68.5138 38.744C65.7966 39.7764 64.0001 42.3808 64.0001 45.2876H71.0001ZM72.5554 44.6966L70.0692 38.153L70.0692 38.153L72.5554 44.6966ZM73.6028 41.8729L79.7549 38.5335V38.5335L73.6028 41.8729ZM71.3929 37.8016H64.3929C64.3929 38.968 64.6843 40.1159 65.2408 41.141L71.3929 37.8016ZM71.3922 36.8261H64.3922C64.3922 36.8458 64.3923 36.8656 64.3925 36.8853L71.3922 36.8261ZM70.9629 26.0319L63.9776 26.4844C64.0103 26.9897 64.0978 27.49 64.2385 27.9764L70.9629 26.0319ZM69.8934 21.0395L72.1147 14.4013C69.5554 13.5449 66.7317 14.236 64.8573 16.1777C62.9828 18.1194 62.3915 20.9657 63.3376 23.4933L69.8934 21.0395ZM70.3587 21.2009L67.9925 27.7888C70.7302 28.7721 73.7907 27.9598 75.6804 25.7483C77.5701 23.5368 77.8952 20.387 76.497 17.8362L70.3587 21.2009ZM68.9846 19.0148L62.7937 22.2816C62.941 22.5608 63.1071 22.8298 63.2907 23.0866L68.9846 19.0148ZM60.9414 11.3223L57.2129 17.2467C57.452 17.3972 57.7 17.533 57.9555 17.6536L60.9414 11.3223ZM43.1688 8.50339L44.9836 15.264L43.1688 8.50339ZM110.193 116.61L112 109.848H112L110.193 116.61ZM114.84 124.655L121.602 126.466L121.602 126.466L114.84 124.655ZM101.751 114.354L103.558 107.591L103.558 107.591L101.751 114.354ZM93.7011 119.005L100.463 120.816V120.816L93.7011 119.005ZM98.3489 127.049L100.156 120.286L100.156 120.286L98.3489 127.049ZM106.791 129.305L104.983 136.068H104.983L106.791 129.305ZM56.9181 218.075L57.737 211.123H57.737L56.9181 218.075ZM25.6622 223.439H18.6622H25.6622ZM34.6451 215.452L33.8262 222.404H33.8262L34.6451 215.452ZM96.9288 212.489L97.4465 219.47H97.4465L96.9288 212.489ZM104.026 217.919L110.899 216.591L104.026 217.919ZM74.5621 214.148L75.0797 221.129H75.0798L74.5621 214.148ZM67.2581 223.697L74.131 222.37V222.37L67.2581 223.697ZM76.6783 230.064L78.009 236.937H78.009L76.6783 230.064ZM98.6986 225.8L100.029 232.673L98.6986 225.8ZM31.0001 27.182C31.0001 21.7407 35.1348 17.2561 40.4292 16.7126L38.9995 2.78578C26.6378 4.05484 17.0001 14.4885 17.0001 27.182H31.0001ZM31.0001 68.9673V27.182H17.0001V68.9673H31.0001ZM20.8934 86.2305C22.9249 81.3552 25.7428 77.1854 28.9962 73.8703L19.004 64.0643C14.48 68.6742 10.6766 74.3511 7.97045 80.8457L20.8934 86.2305ZM20.9073 86.1965C20.9029 86.2075 20.8983 86.2188 20.8935 86.2304L7.97044 80.8457C7.94999 80.8948 7.93012 80.9434 7.91077 80.9917L20.9073 86.1965ZM25.8714 121.3C18.2305 114.729 14.8971 100.672 20.8739 86.2785L7.94421 80.9098C0.27457 99.3806 3.38301 120.424 16.7423 131.915L25.8714 121.3ZM31.7624 202.984L28.2997 126.292L14.314 126.923L17.7766 203.615L31.7624 202.984ZM33.592 204.666C32.6235 204.704 31.8061 203.952 31.7624 202.984L17.7766 203.615C18.1676 212.275 25.477 218.993 34.1385 218.655L33.592 204.666ZM38.9359 204.457L33.592 204.666L34.1384 218.655L39.4823 218.446L38.9359 204.457ZM40.6249 202.827C40.5583 203.72 39.8316 204.422 38.9359 204.457L39.4823 218.446C47.492 218.134 53.9914 211.859 54.5863 203.866L40.6249 202.827ZM44.3112 153.29L40.6249 202.827L54.5863 203.866L58.2726 154.329L44.3112 153.29ZM50.6873 146.799L49.982 146.934L52.6018 160.686L53.3071 160.552L50.6873 146.799ZM71.7917 201.077L58.7639 151.884L45.2305 155.468L58.2582 204.661L71.7917 201.077ZM73.3752 202.017C72.9352 202.113 72.5979 202.023 72.3575 201.877C72.1182 201.731 71.8993 201.484 71.7917 201.077L58.2582 204.661C60.3763 212.659 68.2919 217.445 76.3431 215.699L73.3752 202.017ZM78.5055 200.904L73.3753 202.017L76.3431 215.699L81.4733 214.586L78.5055 200.904ZM80.2061 198.397C80.3879 199.486 79.5851 200.67 78.5054 200.904L81.4734 214.586C89.8526 212.768 95.4264 204.55 94.0152 196.092L80.2061 198.397ZM66.346 115.335L80.2061 198.397L94.0152 196.092L80.1551 113.031L66.346 115.335ZM67.8588 109.485C67.7245 109.791 67.5653 110.086 67.3831 110.366L79.118 118.001C79.7132 117.086 80.2366 116.119 80.6799 115.108L67.8588 109.485ZM86.5723 113.372C84.0608 111.932 81.6391 109.987 79.4397 107.578L69.099 117.015C72.2113 120.425 75.7566 123.309 79.61 125.518L86.5723 113.372ZM85.1196 113.319C85.1479 113.29 85.2449 113.204 85.4753 113.162C85.7415 113.113 86.1641 113.138 86.5723 113.372L79.61 125.518C85.1181 128.675 91.3359 126.899 95.016 123.221L85.1196 113.319ZM84.0632 111.385C84.2843 111.567 84.5085 111.828 84.6916 112.152C84.8757 112.478 84.98 112.801 85.0208 113.066C85.0615 113.331 85.0288 113.46 85.0273 113.465C85.0271 113.466 85.0287 113.46 85.0335 113.449C85.0384 113.437 85.0456 113.422 85.0557 113.404C85.078 113.366 85.1028 113.335 85.1196 113.319L95.016 123.221C98.5897 119.65 99.475 114.942 98.8575 110.935C98.2508 106.997 96.1608 103.217 92.9736 100.587L84.0632 111.385ZM71.3409 91.505C73.5004 99.6046 78.0699 106.44 84.0631 111.385L92.9736 100.587C89.175 97.4521 86.2574 93.1083 84.8684 87.8983L71.3409 91.505ZM70.0225 82.0368C70.0698 85.1728 70.4996 88.3496 71.3409 91.505L84.8684 87.8983C84.3247 85.8592 84.051 83.8229 84.0209 81.8253L70.0225 82.0368ZM70.5109 77.1141C70.2542 78.6009 70.0913 80.1121 70.0277 81.6399L84.0156 82.2223C84.0538 81.304 84.1518 80.3939 84.3068 79.4962L70.5109 77.1141ZM69.0736 73.9204C68.8778 73.8643 68.923 73.8256 69.1489 74.0275C69.3698 74.2249 69.6529 74.5572 69.9158 75.0198C70.1769 75.4792 70.3572 75.9607 70.4497 76.3881C70.5442 76.8245 70.5189 77.0682 70.5109 77.1141L84.3068 79.4962C85.0197 75.3671 83.8703 71.2395 82.0876 68.1026C80.33 65.0099 77.273 61.7052 72.9266 60.461L69.0736 73.9204ZM64.0001 45.2876V67.1907H78.0001V45.2876H64.0001ZM70.0692 38.153L68.5138 38.744L73.4863 51.8312L75.0417 51.2402L70.0692 38.153ZM67.4507 45.2123C66.0065 42.5518 67.2393 39.2283 70.0692 38.153L75.0417 51.2402C80.1355 49.3048 82.3544 43.3225 79.7549 38.5335L67.4507 45.2123ZM65.2408 41.141L67.4507 45.2123L79.7549 38.5335L77.545 34.4622L65.2408 41.141ZM64.3929 36.9767V37.8016H78.3929V36.9767H64.3929ZM64.3925 36.8853C64.3927 36.9155 64.3929 36.946 64.3929 36.9767H78.3929C78.3929 36.907 78.3926 36.8371 78.392 36.767L64.3925 36.8853ZM64.3922 29.0766V36.8261H78.3922V29.0766H64.3922ZM64.2385 27.9764C64.3371 28.3174 64.3922 28.6846 64.3922 29.0766H78.3922C78.3922 27.3554 78.1478 25.6794 77.6874 24.0873L64.2385 27.9764ZM63.3376 23.4933C63.688 24.4295 63.9094 25.4323 63.9776 26.4844L77.9483 25.5793C77.7902 23.1391 77.2739 20.7889 76.4493 18.5857L63.3376 23.4933ZM72.7249 14.6129C72.5221 14.5401 72.3187 14.4696 72.1147 14.4013L67.6721 27.6777C67.7795 27.7136 67.8863 27.7507 67.9925 27.7888L72.7249 14.6129ZM63.2907 23.0866C63.6329 23.5651 63.9426 24.0588 64.2204 24.5656L76.497 17.8362C75.9532 16.8441 75.3471 15.8779 74.6786 14.943L63.2907 23.0866ZM57.9555 17.6536C60.0224 18.6283 61.7284 20.2629 62.7937 22.2816L75.1756 15.748C72.6984 11.0535 68.7466 7.26396 63.9273 4.99111L57.9555 17.6536ZM44.9836 15.264C49.1606 14.1427 53.5077 14.9148 57.2129 17.2467L64.6699 5.39798C57.9341 1.15874 49.5961 -0.469864 41.3539 1.74276L44.9836 15.264ZM42.6356 16.1105C43.3794 15.7689 44.1626 15.4844 44.9836 15.264L41.3539 1.74276C39.7699 2.16796 38.2468 2.72032 36.7931 3.38786L42.6356 16.1105ZM108.385 123.373C108.155 123.311 108.017 123.073 108.079 122.843L121.602 126.466C123.542 119.225 119.243 111.784 112 109.848L108.385 123.373ZM99.943 121.116L108.385 123.373L112 109.848L103.558 107.591L99.943 121.116ZM100.463 120.816C100.402 121.043 100.17 121.177 99.943 121.116L103.558 107.591C96.3186 105.656 88.8791 109.955 86.9397 117.193L100.463 120.816ZM100.156 120.286C100.387 120.348 100.524 120.586 100.463 120.816L86.9397 117.193C84.9993 124.434 89.2986 131.876 96.5414 133.812L100.156 120.286ZM108.598 122.543L100.156 120.286L96.5414 133.812L104.983 136.068L108.598 122.543ZM108.079 122.843C108.14 122.616 108.371 122.482 108.598 122.543L104.983 136.068C112.223 138.003 119.662 133.705 121.602 126.466L108.079 122.843ZM69.8571 224.755C69.8571 217.795 64.6487 211.937 57.737 211.123L56.0993 225.027C55.9612 225.011 55.8571 224.894 55.8571 224.755H69.8571ZM56.1313 238.481C63.7119 238.481 69.8571 232.335 69.8571 224.755H55.8571C55.8571 224.603 55.9799 224.481 56.1313 224.481V238.481ZM33.7043 238.481H56.1313V224.481H33.7043V238.481ZM18.6622 223.439C18.6622 231.746 25.3968 238.481 33.7043 238.481V224.481C33.1288 224.481 32.6622 224.014 32.6622 223.439H18.6622ZM35.464 208.5C26.5209 207.446 18.6622 214.434 18.6622 223.439H32.6622C32.6622 222.815 33.2066 222.331 33.8262 222.404L35.464 208.5ZM57.737 211.123L35.464 208.5L33.8262 222.404L56.0993 225.027L57.737 211.123ZM97.4465 219.47C97.306 219.481 97.1796 219.384 97.153 219.246L110.899 216.591C109.579 209.757 103.353 204.994 96.4112 205.509L97.4465 219.47ZM75.0798 221.129L97.4465 219.47L96.4112 205.509L74.0444 207.167L75.0798 221.129ZM74.131 222.37C74.0124 221.756 74.4572 221.175 75.0797 221.129L74.0445 207.167C65.0655 207.833 58.6777 216.185 60.3851 225.025L74.131 222.37ZM75.3476 223.192C74.784 223.301 74.2399 222.933 74.131 222.37L60.3851 225.025C61.9608 233.183 69.8519 238.516 78.009 236.937L75.3476 223.192ZM97.3679 218.928L75.3476 223.192L78.009 236.937L100.029 232.673L97.3679 218.928ZM97.153 219.246C97.1245 219.098 97.2203 218.957 97.3679 218.928L100.029 232.673C107.47 231.232 112.336 224.033 110.899 216.591L97.153 219.246Z" fill="black" mask="url(#path-26-outside-1)"/>
</svg>