<svg width="625" height="347" viewBox="0 0 625 347" fill="none" xmlns="http://www.w3.org/2000/svg">
<rect x="304.5" y="161.5" width="116" height="77" rx="23.5" fill="#304967" stroke="black" stroke-width="7"/>
<ellipse cx="385.189" cy="200.235" rx="22.4549" ry="22.5503" fill="#D3D3D3"/>
<ellipse cx="329.519" cy="190.369" rx="7.01717" ry="7.04698" fill="#FF0000"/>
<ellipse cx="329.519" cy="210.57" rx="7.01717" ry="7.04698" fill="#1CC64B"/>
<mask id="mask0" mask-type="alpha" maskUnits="userSpaceOnUse" x="362" y="177" width="46" height="46">
<ellipse cx="385.189" cy="200.235" rx="22.4549" ry="22.5503" fill="#9F9F9F" fill-opacity="0.9"/>
</mask>
<g mask="url(#mask0)">
<line x1="374.135" y1="179.715" x2="374.135" y2="220.285" stroke="black" stroke-width="5" stroke-linecap="round"/>
<line x1="385.921" y1="179.715" x2="385.921" y2="220.285" stroke="black" stroke-width="5" stroke-linecap="round"/>
<line x1="397.708" y1="179.715" x2="397.708" y2="220.285" stroke="black" stroke-width="5" stroke-linecap="round"/>
<line x1="365" y1="217.158" x2="405.378" y2="217.158" stroke="black" stroke-width="5" stroke-linecap="round"/>
<line x1="365" y1="188.97" x2="405.378" y2="188.97" stroke="black" stroke-width="5" stroke-linecap="round"/>
<line x1="365" y1="203.064" x2="405.378" y2="203.064" stroke="black" stroke-width="5" stroke-linecap="round"/>
<line x1="365" y1="210.111" x2="405.378" y2="210.111" stroke="black" stroke-width="5" stroke-linecap="round"/>
<line x1="365" y1="181.923" x2="405.378" y2="181.923" stroke="black" stroke-width="5" stroke-linecap="round"/>
<line x1="365" y1="196.018" x2="405.378" y2="196.018" stroke="black" stroke-width="5" stroke-linecap="round"/>
</g>
<mask id="path-15-outside-1" maskUnits="userSpaceOnUse" x="80" y="0" width="216" height="126" fill="black">
<rect fill="white" x="80" width="216" height="126"/>
<path fill-rule="evenodd" clip-rule="evenodd" d="M289 12C289 9.23858 286.761 7 284 7H92C89.2386 7 87 9.23858 87 12V92C87 94.7614 89.2386 97 92 97H138.694C141.456 97 143.694 99.2386 143.694 102V113.346C143.694 117.581 148.631 119.898 151.889 117.192L174.805 98.154C175.703 97.4083 176.833 97 178 97H284C286.761 97 289 94.7614 289 92V12Z"/>
</mask>
<path fill-rule="evenodd" clip-rule="evenodd" d="M289 12C289 9.23858 286.761 7 284 7H92C89.2386 7 87 9.23858 87 12V92C87 94.7614 89.2386 97 92 97H138.694C141.456 97 143.694 99.2386 143.694 102V113.346C143.694 117.581 148.631 119.898 151.889 117.192L174.805 98.154C175.703 97.4083 176.833 97 178 97H284C286.761 97 289 94.7614 289 92V12Z" fill="white"/>
<path d="M174.805 98.154L179.278 103.538L174.805 98.154ZM92 14H284V0H92V14ZM94 92V12H80V92H94ZM138.694 90H92V104H138.694V90ZM150.694 113.346V102H136.694V113.346H150.694ZM170.332 92.7697L147.416 111.807L156.363 122.576L179.278 103.538L170.332 92.7697ZM284 90H178V104H284V90ZM282 12V92H296V12H282ZM284 104C290.627 104 296 98.6274 296 92H282C282 90.8954 282.895 90 284 90V104ZM179.278 103.538C178.919 103.837 178.467 104 178 104V90C175.199 90 172.487 90.9798 170.332 92.7697L179.278 103.538ZM136.694 113.346C136.694 123.511 148.543 129.072 156.363 122.576L147.416 111.807C148.72 110.725 150.694 111.652 150.694 113.346H136.694ZM138.694 104C137.59 104 136.694 103.105 136.694 102H150.694C150.694 95.3726 145.322 90 138.694 90V104ZM80 92C80 98.6274 85.3726 104 92 104V90C93.1046 90 94 90.8954 94 92H80ZM284 14C282.895 14 282 13.1046 282 12H296C296 5.37257 290.627 0 284 0V14ZM92 0C85.3726 0 80 5.37259 80 12H94C94 13.1046 93.1046 14 92 14V0Z" fill="black" mask="url(#path-15-outside-1)"/>
<path d="M130.24 61.152C130.336 61.36 130.384 61.568 130.384 61.776C130.384 62.144 130.232 62.456 129.928 62.712C129.64 62.968 129.304 63.096 128.92 63.096C128.664 63.096 128.424 63.032 128.2 62.904C127.976 62.76 127.8 62.544 127.672 62.256L126.232 59.04H117.784L116.344 62.256C116.216 62.544 116.04 62.76 115.816 62.904C115.592 63.032 115.344 63.096 115.072 63.096C114.704 63.096 114.368 62.968 114.064 62.712C113.76 62.456 113.608 62.144 113.608 61.776C113.608 61.568 113.656 61.36 113.752 61.152L120.376 46.92C120.52 46.6 120.736 46.36 121.024 46.2C121.328 46.024 121.648 45.936 121.984 45.936C122.32 45.936 122.632 46.024 122.92 46.2C123.224 46.36 123.448 46.6 123.592 46.92L130.24 61.152ZM118.84 56.64H125.176L122.008 49.512L118.84 56.64ZM151.955 46.896C152.067 46.576 152.243 46.336 152.483 46.176C152.739 46.016 153.019 45.936 153.323 45.936C153.707 45.936 154.035 46.056 154.307 46.296C154.595 46.536 154.739 46.856 154.739 47.256C154.739 47.4 154.699 47.608 154.619 47.88L149.459 62.16C149.331 62.48 149.115 62.728 148.811 62.904C148.523 63.08 148.203 63.168 147.851 63.168C147.499 63.168 147.171 63.08 146.867 62.904C146.563 62.728 146.355 62.48 146.243 62.16L142.259 50.856L138.203 62.16C138.075 62.48 137.859 62.728 137.555 62.904C137.267 63.08 136.947 63.168 136.595 63.168C136.243 63.168 135.915 63.08 135.611 62.904C135.323 62.728 135.123 62.48 135.011 62.16L129.851 47.88C129.771 47.64 129.731 47.432 129.731 47.256C129.731 46.856 129.875 46.536 130.163 46.296C130.467 46.056 130.819 45.936 131.219 45.936C131.539 45.936 131.827 46.016 132.083 46.176C132.339 46.336 132.523 46.576 132.635 46.896L136.715 58.632L140.915 46.968C141.027 46.648 141.211 46.4 141.467 46.224C141.723 46.032 142.003 45.936 142.307 45.936C142.611 45.936 142.891 46.032 143.147 46.224C143.419 46.4 143.611 46.656 143.723 46.992L147.803 58.776L151.955 46.896ZM167.443 54.264C168.419 54.536 169.171 55.032 169.699 55.752C170.243 56.472 170.515 57.352 170.515 58.392C170.515 59.832 169.995 60.96 168.955 61.776C167.931 62.592 166.515 63 164.707 63H158.515C158.051 63 157.683 62.872 157.411 62.616C157.155 62.36 157.027 62 157.027 61.536V47.544C157.027 47.08 157.155 46.72 157.411 46.464C157.683 46.208 158.051 46.08 158.515 46.08H164.467C166.227 46.08 167.603 46.472 168.595 47.256C169.603 48.024 170.107 49.104 170.107 50.496C170.107 51.392 169.867 52.168 169.387 52.824C168.923 53.48 168.275 53.96 167.443 54.264ZM160.051 53.208H163.963C166.091 53.208 167.155 52.416 167.155 50.832C167.155 50.032 166.891 49.44 166.363 49.056C165.835 48.672 165.035 48.48 163.963 48.48H160.051V53.208ZM164.371 60.6C165.491 60.6 166.307 60.4 166.819 60C167.331 59.6 167.587 58.976 167.587 58.128C167.587 57.28 167.323 56.648 166.795 56.232C166.283 55.816 165.475 55.608 164.371 55.608H160.051V60.6H164.371ZM192.094 53.856C192.462 53.856 192.758 53.968 192.982 54.192C193.206 54.4 193.318 54.68 193.318 55.032V60.192C193.318 60.928 193.222 61.448 193.03 61.752C192.838 62.056 192.446 62.304 191.854 62.496C191.214 62.72 190.47 62.896 189.622 63.024C188.774 63.152 187.958 63.216 187.174 63.216C185.43 63.216 183.918 62.872 182.638 62.184C181.358 61.496 180.374 60.504 179.686 59.208C179.014 57.896 178.678 56.336 178.678 54.528C178.678 52.752 179.014 51.216 179.686 49.92C180.374 48.608 181.342 47.608 182.59 46.92C183.838 46.216 185.31 45.864 187.006 45.864C189.262 45.864 191.11 46.472 192.55 47.688C192.742 47.864 192.878 48.04 192.958 48.216C193.054 48.392 193.102 48.6 193.102 48.84C193.102 49.192 193.006 49.488 192.814 49.728C192.622 49.968 192.39 50.088 192.118 50.088C191.942 50.088 191.782 50.064 191.638 50.016C191.494 49.952 191.326 49.856 191.134 49.728C190.43 49.232 189.774 48.888 189.166 48.696C188.558 48.488 187.87 48.384 187.102 48.384C185.358 48.384 184.038 48.904 183.142 49.944C182.262 50.968 181.822 52.496 181.822 54.528C181.822 58.688 183.646 60.768 187.294 60.768C188.382 60.768 189.47 60.616 190.558 60.312V56.064H187.846C187.462 56.064 187.158 55.968 186.934 55.776C186.726 55.584 186.622 55.312 186.622 54.96C186.622 54.608 186.726 54.336 186.934 54.144C187.158 53.952 187.462 53.856 187.846 53.856H192.094ZM197.911 63C197.447 63 197.087 62.872 196.831 62.616C196.575 62.36 196.447 62.008 196.447 61.56V47.496C196.447 47.032 196.583 46.664 196.855 46.392C197.143 46.104 197.519 45.96 197.983 45.96C198.463 45.96 198.839 46.104 199.111 46.392C199.399 46.664 199.543 47.032 199.543 47.496V60.456H206.287C207.247 60.456 207.727 60.88 207.727 61.728C207.727 62.576 207.247 63 206.287 63H197.911ZM224.595 61.152C224.691 61.36 224.739 61.568 224.739 61.776C224.739 62.144 224.587 62.456 224.283 62.712C223.995 62.968 223.659 63.096 223.275 63.096C223.019 63.096 222.779 63.032 222.555 62.904C222.331 62.76 222.155 62.544 222.027 62.256L220.587 59.04H212.139L210.699 62.256C210.571 62.544 210.395 62.76 210.171 62.904C209.947 63.032 209.699 63.096 209.427 63.096C209.059 63.096 208.723 62.968 208.419 62.712C208.115 62.456 207.963 62.144 207.963 61.776C207.963 61.568 208.011 61.36 208.107 61.152L214.731 46.92C214.875 46.6 215.091 46.36 215.379 46.2C215.683 46.024 216.003 45.936 216.339 45.936C216.675 45.936 216.987 46.024 217.275 46.2C217.579 46.36 217.803 46.6 217.947 46.92L224.595 61.152ZM213.195 56.64H219.531L216.363 49.512L213.195 56.64ZM228.2 63C227.736 63 227.368 62.872 227.096 62.616C226.84 62.36 226.712 62 226.712 61.536V47.544C226.712 47.08 226.84 46.72 227.096 46.464C227.368 46.208 227.736 46.08 228.2 46.08H236.864C237.328 46.08 237.688 46.184 237.944 46.392C238.2 46.6 238.328 46.896 238.328 47.28C238.328 47.68 238.2 47.992 237.944 48.216C237.688 48.424 237.328 48.528 236.864 48.528H229.736V53.184H236.384C236.848 53.184 237.208 53.288 237.464 53.496C237.72 53.704 237.848 54.008 237.848 54.408C237.848 54.792 237.72 55.088 237.464 55.296C237.208 55.504 236.848 55.608 236.384 55.608H229.736V60.552H236.864C237.328 60.552 237.688 60.664 237.944 60.888C238.2 61.096 238.328 61.4 238.328 61.8C238.328 62.184 238.2 62.48 237.944 62.688C237.688 62.896 237.328 63 236.864 63H228.2ZM261.701 46.896C261.813 46.576 261.989 46.336 262.229 46.176C262.485 46.016 262.765 45.936 263.069 45.936C263.453 45.936 263.781 46.056 264.053 46.296C264.341 46.536 264.485 46.856 264.485 47.256C264.485 47.4 264.445 47.608 264.365 47.88L259.205 62.16C259.077 62.48 258.861 62.728 258.557 62.904C258.269 63.08 257.949 63.168 257.597 63.168C257.245 63.168 256.917 63.08 256.613 62.904C256.309 62.728 256.101 62.48 255.989 62.16L252.005 50.856L247.949 62.16C247.821 62.48 247.605 62.728 247.301 62.904C247.013 63.08 246.693 63.168 246.341 63.168C245.989 63.168 245.661 63.08 245.357 62.904C245.069 62.728 244.869 62.48 244.757 62.16L239.597 47.88C239.517 47.64 239.477 47.432 239.477 47.256C239.477 46.856 239.621 46.536 239.909 46.296C240.213 46.056 240.565 45.936 240.965 45.936C241.285 45.936 241.573 46.016 241.829 46.176C242.085 46.336 242.269 46.576 242.381 46.896L246.461 58.632L250.661 46.968C250.773 46.648 250.957 46.4 251.213 46.224C251.469 46.032 251.749 45.936 252.053 45.936C252.357 45.936 252.637 46.032 252.893 46.224C253.165 46.4 253.357 46.656 253.469 46.992L257.549 58.776L261.701 46.896Z" fill="black"/>
<mask id="path-18-outside-2" maskUnits="userSpaceOnUse" x="409" y="0" width="216" height="126" fill="black">
<rect fill="white" x="409" width="216" height="126"/>
<path fill-rule="evenodd" clip-rule="evenodd" d="M618 12C618 9.23858 615.761 7 613 7H421C418.239 7 416 9.23858 416 12V92C416 94.7614 418.239 97 421 97H467.694C470.456 97 472.694 99.2386 472.694 102V113.346C472.694 117.581 477.631 119.898 480.889 117.192L503.805 98.154C504.703 97.4083 505.833 97 507 97H613C615.761 97 618 94.7614 618 92V12Z"/>
</mask>
<path fill-rule="evenodd" clip-rule="evenodd" d="M618 12C618 9.23858 615.761 7 613 7H421C418.239 7 416 9.23858 416 12V92C416 94.7614 418.239 97 421 97H467.694C470.456 97 472.694 99.2386 472.694 102V113.346C472.694 117.581 477.631 119.898 480.889 117.192L503.805 98.154C504.703 97.4083 505.833 97 507 97H613C615.761 97 618 94.7614 618 92V12Z" fill="white"/>
<path d="M503.805 98.154L508.278 103.538L503.805 98.154ZM421 14H613V0H421V14ZM423 92V12H409V92H423ZM467.694 90H421V104H467.694V90ZM479.694 113.346V102H465.694V113.346H479.694ZM499.332 92.7697L476.416 111.807L485.363 122.576L508.278 103.538L499.332 92.7697ZM613 90H507V104H613V90ZM611 12V92H625V12H611ZM613 104C619.627 104 625 98.6274 625 92H611C611 90.8954 611.895 90 613 90V104ZM508.278 103.538C507.919 103.837 507.467 104 507 104V90C504.199 90 501.487 90.9798 499.332 92.7697L508.278 103.538ZM465.694 113.346C465.694 123.511 477.543 129.072 485.363 122.576L476.416 111.807C477.72 110.725 479.694 111.652 479.694 113.346H465.694ZM467.694 104C466.59 104 465.694 103.105 465.694 102H479.694C479.694 95.3726 474.322 90 467.694 90V104ZM409 92C409 98.6274 414.373 104 421 104V90C422.105 90 423 90.8954 423 92H409ZM613 14C611.895 14 611 13.1046 611 12H625C625 5.37257 619.627 0 613 0V14ZM421 0C414.373 0 409 5.37259 409 12H423C423 13.1046 422.105 14 421 14V0Z" fill="black" mask="url(#path-18-outside-2)"/>
<path d="M435.093 63.144C434.629 63.144 434.253 63.008 433.965 62.736C433.693 62.448 433.557 62.064 433.557 61.584V47.544C433.557 47.08 433.685 46.72 433.941 46.464C434.213 46.208 434.581 46.08 435.045 46.08H440.949C442.757 46.08 444.165 46.536 445.173 47.448C446.181 48.344 446.685 49.608 446.685 51.24C446.685 52.872 446.181 54.144 445.173 55.056C444.165 55.968 442.757 56.424 440.949 56.424H436.653V61.584C436.653 62.064 436.509 62.448 436.221 62.736C435.949 63.008 435.573 63.144 435.093 63.144ZM440.565 54.048C442.693 54.048 443.757 53.12 443.757 51.264C443.757 49.408 442.693 48.48 440.565 48.48H436.653V54.048H440.565ZM456.025 63.216C453.705 63.216 451.945 62.616 450.745 61.416C449.545 60.216 448.945 58.464 448.945 56.16V47.496C448.945 47.032 449.081 46.664 449.353 46.392C449.625 46.104 449.993 45.96 450.457 45.96C450.921 45.96 451.289 46.104 451.561 46.392C451.833 46.664 451.969 47.032 451.969 47.496V56.328C451.969 57.784 452.313 58.888 453.001 59.64C453.689 60.376 454.697 60.744 456.025 60.744C457.337 60.744 458.337 60.368 459.025 59.616C459.713 58.864 460.057 57.768 460.057 56.328V47.496C460.057 47.032 460.193 46.664 460.465 46.392C460.737 46.104 461.105 45.96 461.569 45.96C462.033 45.96 462.401 46.104 462.673 46.392C462.945 46.664 463.081 47.032 463.081 47.496V56.16C463.081 58.448 462.481 60.2 461.281 61.416C460.081 62.616 458.329 63.216 456.025 63.216ZM479.818 61.056C480.01 61.344 480.106 61.624 480.106 61.896C480.106 62.264 479.954 62.568 479.65 62.808C479.362 63.048 479.018 63.168 478.618 63.168C478.362 63.168 478.114 63.112 477.874 63C477.65 62.872 477.458 62.688 477.298 62.448L474.106 57.6C473.786 57.088 473.442 56.728 473.074 56.52C472.722 56.312 472.258 56.208 471.682 56.208H469.33V61.584C469.33 62.064 469.194 62.448 468.922 62.736C468.65 63.008 468.282 63.144 467.818 63.144C467.354 63.144 466.978 63.008 466.69 62.736C466.418 62.448 466.282 62.064 466.282 61.584V47.544C466.282 47.08 466.41 46.72 466.666 46.464C466.938 46.208 467.306 46.08 467.77 46.08H473.77C475.69 46.08 477.146 46.512 478.138 47.376C479.146 48.224 479.65 49.456 479.65 51.072C479.65 52.384 479.274 53.464 478.522 54.312C477.786 55.144 476.738 55.68 475.378 55.92C475.842 56.032 476.25 56.232 476.602 56.52C476.954 56.808 477.298 57.208 477.634 57.72L479.818 61.056ZM473.338 53.832C474.506 53.832 475.362 53.616 475.906 53.184C476.45 52.736 476.722 52.056 476.722 51.144C476.722 50.216 476.45 49.544 475.906 49.128C475.362 48.696 474.506 48.48 473.338 48.48H469.306V53.832H473.338ZM484.146 63.144C483.682 63.144 483.306 63.008 483.018 62.736C482.746 62.448 482.61 62.064 482.61 61.584V47.544C482.61 47.08 482.738 46.72 482.994 46.464C483.266 46.208 483.634 46.08 484.098 46.08H490.002C491.81 46.08 493.218 46.536 494.226 47.448C495.234 48.344 495.738 49.608 495.738 51.24C495.738 52.872 495.234 54.144 494.226 55.056C493.218 55.968 491.81 56.424 490.002 56.424H485.706V61.584C485.706 62.064 485.562 62.448 485.274 62.736C485.002 63.008 484.626 63.144 484.146 63.144ZM489.618 54.048C491.746 54.048 492.81 53.12 492.81 51.264C492.81 49.408 491.746 48.48 489.618 48.48H485.706V54.048H489.618ZM499.557 63C499.093 63 498.733 62.872 498.477 62.616C498.221 62.36 498.093 62.008 498.093 61.56V47.496C498.093 47.032 498.229 46.664 498.501 46.392C498.789 46.104 499.165 45.96 499.629 45.96C500.109 45.96 500.485 46.104 500.757 46.392C501.045 46.664 501.189 47.032 501.189 47.496V60.456H507.933C508.893 60.456 509.373 60.88 509.373 61.728C509.373 62.576 508.893 63 507.933 63H499.557ZM512.534 63C512.07 63 511.702 62.872 511.43 62.616C511.174 62.36 511.046 62 511.046 61.536V47.544C511.046 47.08 511.174 46.72 511.43 46.464C511.702 46.208 512.07 46.08 512.534 46.08H521.198C521.662 46.08 522.022 46.184 522.278 46.392C522.534 46.6 522.662 46.896 522.662 47.28C522.662 47.68 522.534 47.992 522.278 48.216C522.022 48.424 521.662 48.528 521.198 48.528H514.07V53.184H520.718C521.182 53.184 521.542 53.288 521.798 53.496C522.054 53.704 522.182 54.008 522.182 54.408C522.182 54.792 522.054 55.088 521.798 55.296C521.542 55.504 521.182 55.608 520.718 55.608H514.07V60.552H521.198C521.662 60.552 522.022 60.664 522.278 60.888C522.534 61.096 522.662 61.4 522.662 61.8C522.662 62.184 522.534 62.48 522.278 62.688C522.022 62.896 521.662 63 521.198 63H512.534ZM546.31 61.152C546.406 61.36 546.454 61.568 546.454 61.776C546.454 62.144 546.302 62.456 545.998 62.712C545.71 62.968 545.374 63.096 544.99 63.096C544.734 63.096 544.494 63.032 544.27 62.904C544.046 62.76 543.87 62.544 543.742 62.256L542.302 59.04H533.854L532.414 62.256C532.286 62.544 532.11 62.76 531.886 62.904C531.662 63.032 531.414 63.096 531.142 63.096C530.774 63.096 530.438 62.968 530.134 62.712C529.83 62.456 529.678 62.144 529.678 61.776C529.678 61.568 529.726 61.36 529.822 61.152L536.446 46.92C536.59 46.6 536.806 46.36 537.094 46.2C537.398 46.024 537.718 45.936 538.054 45.936C538.39 45.936 538.702 46.024 538.99 46.2C539.294 46.36 539.518 46.6 539.662 46.92L546.31 61.152ZM534.91 56.64H541.246L538.078 49.512L534.91 56.64ZM549.963 63.144C549.499 63.144 549.123 63.008 548.835 62.736C548.563 62.448 548.427 62.064 548.427 61.584V47.544C548.427 47.08 548.555 46.72 548.811 46.464C549.083 46.208 549.451 46.08 549.915 46.08H555.819C557.627 46.08 559.035 46.536 560.043 47.448C561.051 48.344 561.555 49.608 561.555 51.24C561.555 52.872 561.051 54.144 560.043 55.056C559.035 55.968 557.627 56.424 555.819 56.424H551.523V61.584C551.523 62.064 551.379 62.448 551.091 62.736C550.819 63.008 550.443 63.144 549.963 63.144ZM555.435 54.048C557.563 54.048 558.627 53.12 558.627 51.264C558.627 49.408 557.563 48.48 555.435 48.48H551.523V54.048H555.435ZM565.447 63.144C564.983 63.144 564.607 63.008 564.319 62.736C564.047 62.448 563.911 62.064 563.911 61.584V47.544C563.911 47.08 564.039 46.72 564.295 46.464C564.567 46.208 564.935 46.08 565.399 46.08H571.303C573.111 46.08 574.519 46.536 575.527 47.448C576.535 48.344 577.039 49.608 577.039 51.24C577.039 52.872 576.535 54.144 575.527 55.056C574.519 55.968 573.111 56.424 571.303 56.424H567.007V61.584C567.007 62.064 566.863 62.448 566.575 62.736C566.303 63.008 565.927 63.144 565.447 63.144ZM570.919 54.048C573.047 54.048 574.111 53.12 574.111 51.264C574.111 49.408 573.047 48.48 570.919 48.48H567.007V54.048H570.919ZM580.858 63C580.394 63 580.034 62.872 579.778 62.616C579.522 62.36 579.394 62.008 579.394 61.56V47.496C579.394 47.032 579.53 46.664 579.802 46.392C580.09 46.104 580.466 45.96 580.93 45.96C581.41 45.96 581.786 46.104 582.058 46.392C582.346 46.664 582.49 47.032 582.49 47.496V60.456H589.234C590.194 60.456 590.674 60.88 590.674 61.728C590.674 62.576 590.194 63 589.234 63H580.858ZM593.835 63C593.371 63 593.003 62.872 592.731 62.616C592.475 62.36 592.347 62 592.347 61.536V47.544C592.347 47.08 592.475 46.72 592.731 46.464C593.003 46.208 593.371 46.08 593.835 46.08H602.499C602.963 46.08 603.323 46.184 603.579 46.392C603.835 46.6 603.963 46.896 603.963 47.28C603.963 47.68 603.835 47.992 603.579 48.216C603.323 48.424 602.963 48.528 602.499 48.528H595.371V53.184H602.019C602.483 53.184 602.843 53.288 603.099 53.496C603.355 53.704 603.483 54.008 603.483 54.408C603.483 54.792 603.355 55.088 603.099 55.296C602.843 55.504 602.483 55.608 602.019 55.608H595.371V60.552H602.499C602.963 60.552 603.323 60.664 603.579 60.888C603.835 61.096 603.963 61.4 603.963 61.8C603.963 62.184 603.835 62.48 603.579 62.688C603.323 62.896 602.963 63 602.499 63H593.835Z" fill="black"/>
<circle cx="128.5" cy="211.642" r="62.5" fill="#A1D900"/>
<path fill-rule="evenodd" clip-rule="evenodd" d="M112.632 250.318C113.488 248.129 112.526 245.688 110.491 244.514L93.7021 234.826C90.8273 233.167 87.1611 234.725 85.9846 237.828C84.8933 240.707 83.5563 243.536 81.9663 246.288C70.2825 266.514 48.187 276.985 26.3577 274.839C22.0981 274.421 19.0541 279.745 22.7608 281.884C52.7763 299.204 91.1603 288.92 108.494 258.913C110.112 256.113 111.489 253.24 112.632 250.318Z" fill="#A1D900"/>
<path fill-rule="evenodd" clip-rule="evenodd" d="M134.017 273.086C134.873 270.898 133.911 268.457 131.876 267.282L115.087 257.595C112.213 255.936 108.546 257.494 107.37 260.597C106.279 263.476 104.942 266.305 103.352 269.057C91.6678 289.282 69.5722 299.753 47.7429 297.608C43.4833 297.189 40.4394 302.514 44.146 304.653C74.1615 321.973 112.546 311.688 129.879 281.682C131.497 278.882 132.874 276.008 134.017 273.086Z" fill="#A1D900"/>
<path fill-rule="evenodd" clip-rule="evenodd" d="M144.368 250.318C143.512 248.129 144.474 245.688 146.509 244.514L163.298 234.826C166.173 233.167 169.839 234.725 171.015 237.828C172.107 240.707 173.444 243.536 175.034 246.288C186.717 266.514 208.813 276.985 230.642 274.839C234.902 274.421 237.946 279.745 234.239 281.884C204.224 299.204 165.84 288.92 148.506 258.913C146.888 256.113 145.511 253.24 144.368 250.318Z" fill="#A1D900"/>
<path fill-rule="evenodd" clip-rule="evenodd" d="M122.983 273.086C122.127 270.898 123.089 268.457 125.124 267.282L141.913 257.595C144.787 255.936 148.454 257.494 149.63 260.597C150.721 263.476 152.058 266.305 153.648 269.057C165.332 289.282 187.428 299.753 209.257 297.608C213.517 297.189 216.561 302.514 212.854 304.653C182.838 321.973 144.454 311.688 127.121 281.682C125.503 278.882 124.126 276.008 122.983 273.086Z" fill="#A1D900"/>
<rect width="8.29787" height="12.4468" rx="4.14894" transform="matrix(-1 0 0 1 116.297 207.694)" fill="black"/>
<rect width="8.29787" height="12.4468" rx="4.14894" transform="matrix(-1 0 0 1 167.744 207.694)" fill="black"/>
<rect width="8.29787" height="12.4468" rx="4.14894" transform="matrix(-1 0 0 1 141.191 191.142)" fill="black"/>
<path d="M126.565 231.757C125.065 240.257 128.5 248.142 136 251.142L142.565 237.257C136 235.142 126.565 231.757 126.565 231.757Z" stroke="black" stroke-width="7" stroke-linecap="round" stroke-linejoin="round"/>
<mask id="path-30-outside-3" maskUnits="userSpaceOnUse" x="13.0942" y="142.142" width="230" height="178" fill="black">
<rect fill="white" x="13.0942" y="142.142" width="230" height="178"/>
<path fill-rule="evenodd" clip-rule="evenodd" d="M153.565 268.912C154.07 268.691 154.572 268.463 155.07 268.229C174.32 290.875 207.58 297.267 234.239 281.884C237.946 279.745 234.902 274.42 230.642 274.839C210.316 276.837 189.759 267.896 177.592 250.327C185.989 239.686 191 226.249 191 211.642C191 177.124 163.018 149.142 128.5 149.142C93.982 149.142 65.9998 177.124 65.9998 211.642C65.9998 226.249 71.0109 239.686 79.4078 250.327C67.2406 267.896 46.6836 276.837 26.3575 274.839C22.0978 274.42 19.0539 279.745 22.7605 281.884C49.4194 297.267 82.6799 290.875 101.93 268.229C102.428 268.463 102.929 268.691 103.434 268.912L103.351 269.057C91.6676 289.282 69.572 299.753 47.7427 297.608C43.4831 297.189 40.4391 302.514 44.1458 304.653C73.389 321.527 110.576 312.199 128.5 283.959C146.424 312.199 183.611 321.527 212.854 304.653C216.56 302.514 213.517 297.189 209.257 297.608C187.428 299.753 165.332 289.282 153.648 269.057L153.565 268.912Z"/>
</mask>
<path d="M155.07 268.229L160.403 263.695C158.356 261.288 154.95 260.55 152.09 261.895L155.07 268.229ZM153.565 268.912L150.755 262.501C148.933 263.3 147.537 264.836 146.915 266.726C146.294 268.616 146.506 270.681 147.499 272.405L153.565 268.912ZM234.239 281.884L230.741 275.821L230.741 275.821L234.239 281.884ZM230.642 274.839L229.958 267.873H229.957L230.642 274.839ZM177.592 250.327L172.097 245.991C170.191 248.406 170.085 251.783 171.837 254.312L177.592 250.327ZM79.4078 250.327L85.1625 254.312C86.9143 251.783 86.8089 248.406 84.903 245.991L79.4078 250.327ZM26.3575 274.839L27.0421 267.873H27.0421L26.3575 274.839ZM22.7605 281.884L26.2591 275.821L26.2591 275.821L22.7605 281.884ZM101.93 268.229L104.909 261.895C102.05 260.55 98.6434 261.288 96.5966 263.695L101.93 268.229ZM103.434 268.912L109.501 272.405C110.493 270.681 110.706 268.616 110.084 266.726C109.463 264.836 108.067 263.3 106.244 262.501L103.434 268.912ZM103.351 269.057L109.413 272.558L109.418 272.55L103.351 269.057ZM47.7427 297.608L48.4274 290.641L48.4274 290.641L47.7427 297.608ZM44.1458 304.653L40.6472 310.716L40.6472 310.716L44.1458 304.653ZM128.5 283.959L134.41 280.208C133.126 278.184 130.896 276.959 128.5 276.959C126.104 276.959 123.874 278.184 122.59 280.208L128.5 283.959ZM212.854 304.653L216.352 310.716L212.854 304.653ZM209.257 297.608L209.942 304.574H209.942L209.257 297.608ZM153.648 269.057L147.582 272.55L147.587 272.558L153.648 269.057ZM152.09 261.895C151.648 262.103 151.203 262.305 150.755 262.501L156.375 275.324C156.937 275.077 157.495 274.824 158.049 274.563L152.09 261.895ZM230.741 275.821C207.061 289.485 177.504 283.812 160.403 263.695L149.736 272.763C171.136 297.937 208.099 305.049 237.738 287.947L230.741 275.821ZM231.327 281.806C230.312 281.905 229.602 281.35 229.261 280.714C229.057 280.334 228.751 279.5 228.994 278.361C229.273 277.053 230.1 276.191 230.741 275.821L237.738 287.947C240.231 286.508 242.068 284.178 242.686 281.283C243.267 278.557 242.629 276.017 241.595 274.091C239.594 270.363 235.232 267.354 229.958 267.873L231.327 281.806ZM171.837 254.312C185.494 274.032 208.548 284.044 231.327 281.806L229.957 267.873C212.084 269.629 194.024 261.76 183.347 246.342L171.837 254.312ZM184 211.642C184 224.62 179.554 236.54 172.097 245.991L183.087 254.663C192.424 242.831 198 227.878 198 211.642H184ZM128.5 156.142C159.152 156.142 184 180.99 184 211.642H198C198 173.258 166.884 142.142 128.5 142.142V156.142ZM72.9998 211.642C72.9998 180.99 97.848 156.142 128.5 156.142V142.142C90.116 142.142 58.9998 173.258 58.9998 211.642H72.9998ZM84.903 245.991C77.4459 236.54 72.9998 224.62 72.9998 211.642H58.9998C58.9998 227.878 64.5759 242.831 73.9126 254.663L84.903 245.991ZM25.6728 281.806C48.4515 284.044 71.506 274.032 85.1625 254.312L73.6531 246.342C62.9752 261.76 44.9157 269.629 27.0421 267.873L25.6728 281.806ZM26.2591 275.821C26.8996 276.191 27.7264 277.053 28.0057 278.361C28.2487 279.5 27.9428 280.334 27.739 280.714C27.3975 281.35 26.6873 281.905 25.6728 281.806L27.0421 267.873C21.7679 267.354 17.406 270.363 15.4043 274.091C14.3703 276.017 13.7323 278.557 14.314 281.283C14.9318 284.178 16.7681 286.508 19.262 287.947L26.2591 275.821ZM96.5966 263.695C79.4958 283.812 49.9383 289.485 26.2591 275.821L19.262 287.947C48.9005 305.049 85.8639 297.937 107.263 272.763L96.5966 263.695ZM106.244 262.501C105.796 262.305 105.351 262.103 104.909 261.895L98.9506 274.563C99.5046 274.824 100.063 275.077 100.625 275.324L106.244 262.501ZM109.418 272.55L109.501 272.405L97.3683 265.419L97.2851 265.564L109.418 272.55ZM47.058 304.574C71.5197 306.978 96.3046 295.249 109.413 272.558L97.29 265.555C87.0305 283.315 67.6242 292.528 48.4274 290.641L47.058 304.574ZM47.6443 298.59C48.2849 298.959 49.1117 299.821 49.3909 301.13C49.6339 302.268 49.3281 303.102 49.1243 303.482C48.7828 304.118 48.0726 304.674 47.0581 304.574L48.4274 290.641C43.1532 290.123 38.7913 293.131 36.7895 296.86C35.7556 298.786 35.1175 301.326 35.6992 304.051C36.3171 306.947 38.1533 309.277 40.6472 310.716L47.6443 298.59ZM122.59 280.208C106.667 305.294 73.6249 313.581 47.6443 298.59L40.6472 310.716C73.1531 329.472 114.484 319.104 134.41 287.71L122.59 280.208ZM209.355 298.59C183.375 313.581 150.332 305.294 134.41 280.208L122.59 287.71C142.516 319.104 183.846 329.472 216.352 310.716L209.355 298.59ZM209.942 304.574C208.927 304.674 208.217 304.118 207.875 303.482C207.672 303.102 207.366 302.268 207.609 301.13C207.888 299.821 208.715 298.959 209.355 298.59L216.352 310.716C218.846 309.277 220.683 306.947 221.3 304.051C221.882 301.326 221.244 298.786 220.21 296.86C218.208 293.131 213.846 290.123 208.572 290.641L209.942 304.574ZM147.587 272.558C160.695 295.249 185.48 306.978 209.942 304.574L208.572 290.641C189.375 292.528 169.969 283.315 159.71 265.555L147.587 272.558ZM147.499 272.405L147.582 272.55L159.715 265.564L159.632 265.42L147.499 272.405Z" fill="black" mask="url(#path-30-outside-3)"/>
</svg>
