<svg width="53" height="68" viewBox="0 0 53 68" fill="none" xmlns="http://www.w3.org/2000/svg">
<mask id="path-1-outside-1" maskUnits="userSpaceOnUse" x="0.694336" y="-0.374267" width="52" height="69" fill="black">
<rect fill="white" x="0.694336" y="-0.374267" width="52" height="69"/>
<path fill-rule="evenodd" clip-rule="evenodd" d="M42.6348 7.65308C42.6386 7.65252 42.6421 7.65076 42.6448 7.64807L42.6646 7.62825C42.6704 7.62247 42.6802 7.6274 42.679 7.63549C42.6782 7.64111 42.683 7.64595 42.6886 7.64512C42.6967 7.64392 42.7016 7.65373 42.6959 7.65951L42.676 7.67933C42.6733 7.68202 42.6716 7.68551 42.671 7.68928L42.0431 11.9346C41.2048 17.6026 36.7541 22.0534 31.086 22.8917L28.9934 23.2012L35.9833 26.5226C48.4585 32.4504 48.4585 50.2045 35.9833 56.1323L26.6537 60.5654C26.6373 60.5732 26.6268 60.5898 26.6268 60.608C26.6268 60.6426 26.5907 60.6654 26.5595 60.6505L26.5424 60.6424C26.5263 60.6348 26.5077 60.6348 26.4917 60.6424L26.4746 60.6505C26.4433 60.6654 26.4073 60.6426 26.4073 60.608C26.4073 60.5898 26.3968 60.5732 26.3804 60.5654L17.0508 56.1323C4.57551 50.2045 4.57551 32.4504 17.0508 26.5225L26.3804 22.0895C26.3968 22.0816 26.4073 22.0651 26.4073 22.0469C26.4073 22.0123 26.4433 21.9895 26.4746 22.0044L26.4917 22.0125C26.5077 22.0201 26.5263 22.0201 26.5424 22.0125L26.5595 22.0044C26.5907 21.9895 26.6268 22.0123 26.6268 22.0469C26.6268 22.0651 26.6373 22.0817 26.6537 22.0895L26.9873 22.248L27.4324 19.2381C28.2707 13.57 32.7215 9.11929 38.3896 8.28096L42.6348 7.65308Z"/>
</mask>
<path d="M42.6448 7.64807L37.6954 2.69797L37.6938 2.69957L42.6448 7.64807ZM42.6348 7.65308L43.659 14.5777L43.6592 14.5777L42.6348 7.65308ZM42.6646 7.62825L47.614 12.5783L47.6145 12.5779L42.6646 7.62825ZM42.679 7.63549L49.6038 8.65853L49.6039 8.6581L42.679 7.63549ZM42.6886 7.64512L43.7124 14.5698L43.7125 14.5698L42.6886 7.64512ZM42.6959 7.65951L47.6457 12.6091L47.6457 12.6091L42.6959 7.65951ZM42.676 7.67933L47.6236 12.6313L47.6259 12.629L42.676 7.67933ZM42.671 7.68928L49.5957 8.71346L49.5959 8.71238L42.671 7.68928ZM42.0431 11.9346L48.9678 12.9587V12.9587L42.0431 11.9346ZM31.086 22.8917L32.1102 29.8164L31.086 22.8917ZM28.9934 23.2012L27.9692 16.2765C24.9208 16.7274 22.5258 19.1187 22.0703 22.1664C21.6147 25.2141 23.2058 28.2012 25.9891 29.5237L28.9934 23.2012ZM35.9833 26.5226L32.979 32.8451H32.979L35.9833 26.5226ZM35.9833 56.1323L32.979 49.8098H32.979L35.9833 56.1323ZM26.6537 60.5654L23.6494 54.2429L23.6492 54.243L26.6537 60.5654ZM26.5595 60.6505L29.564 54.3281L29.5634 54.3278L26.5595 60.6505ZM26.5424 60.6424L23.5382 66.965L23.5384 66.9651L26.5424 60.6424ZM26.4917 60.6424L23.4872 54.32L23.4871 54.32L26.4917 60.6424ZM26.4746 60.6505L29.4784 66.9733L29.4791 66.9729L26.4746 60.6505ZM26.3804 60.5654L23.3761 66.8879L23.3762 66.888L26.3804 60.5654ZM17.0508 56.1323L20.0551 49.8098H20.0551L17.0508 56.1323ZM17.0508 26.5225L14.0465 20.2H14.0465L17.0508 26.5225ZM26.3804 22.0895L29.3846 28.412L29.3848 28.4119L26.3804 22.0895ZM26.4746 22.0044L29.4791 15.682L29.4788 15.6818L26.4746 22.0044ZM26.4917 22.0125L23.4871 28.3349L23.4878 28.3352L26.4917 22.0125ZM26.5424 22.0125L29.5465 28.3351L29.5466 28.335L26.5424 22.0125ZM26.5595 22.0044L29.5637 28.3269L29.5639 28.3268L26.5595 22.0044ZM26.6537 22.0895L29.6579 15.7669L29.6576 15.7667L26.6537 22.0895ZM26.9873 22.248L23.983 28.5705C25.9875 29.523 28.3249 29.4685 30.2828 28.4237C32.2407 27.3789 33.5872 25.4675 33.9119 23.2721L26.9873 22.248ZM27.4324 19.2381L34.3571 20.2623V20.2623L27.4324 19.2381ZM38.3896 8.28096L37.3654 1.35629L38.3896 8.28096ZM37.6938 2.69957C38.7545 1.63833 40.1281 0.947728 41.6104 0.728435L43.6592 14.5777C45.1491 14.3573 46.5297 13.6632 47.5958 12.5966L37.6938 2.69957ZM37.7152 2.67815L37.6954 2.69797L47.5942 12.5982L47.614 12.5783L37.7152 2.67815ZM49.6039 8.6581C50.5895 1.98377 42.4929 -2.09971 37.7148 2.6786L47.6145 12.5779C42.8479 17.3446 34.7709 13.271 35.7541 6.61287L49.6039 8.6581ZM41.6648 0.720394C46.3064 0.0341363 50.2887 4.02253 49.6038 8.65853L35.7542 6.61244C35.0676 11.2597 39.0596 15.2578 43.7124 14.5698L41.6648 0.720394ZM47.6457 12.6091C52.4202 7.83441 48.3449 -0.267328 41.6647 0.720405L43.7125 14.5698C37.0485 15.5552 32.9831 7.47305 37.746 2.7099L47.6457 12.6091ZM47.6259 12.629L47.6457 12.6091L37.746 2.70988L37.7262 2.7297L47.6259 12.629ZM49.5959 8.71238C49.3768 10.1951 48.6861 11.5697 47.6236 12.6313L37.7285 2.72737C36.6606 3.79434 35.9664 5.17592 35.7462 6.66619L49.5959 8.71238ZM48.9678 12.9587L49.5957 8.71346L35.7464 6.66511L35.1185 10.9104L48.9678 12.9587ZM32.1102 29.8164C40.8306 28.5266 47.678 21.6791 48.9678 12.9587L35.1185 10.9104C34.7316 13.5262 32.6776 15.5801 30.0618 15.967L32.1102 29.8164ZM30.0175 30.1259L32.1102 29.8164L30.0618 15.967L27.9692 16.2765L30.0175 30.1259ZM38.9875 20.2L31.9976 16.8787L25.9891 29.5237L32.979 32.8451L38.9875 20.2ZM38.9875 62.4549C56.7905 53.9955 56.7905 28.6594 38.9875 20.2L32.979 32.8451C40.1266 36.2414 40.1266 46.4135 32.979 49.8098L38.9875 62.4549ZM29.6579 66.888L38.9875 62.4549L32.979 49.8098L23.6494 54.2429L29.6579 66.888ZM33.6268 60.608C33.6268 63.2919 32.0821 65.736 29.6581 66.8879L23.6492 54.243C21.1925 55.4104 19.6268 57.8877 19.6268 60.608H33.6268ZM23.5549 66.9729C28.2315 69.1953 33.6268 65.7846 33.6268 60.608H19.6268C19.6268 55.5005 24.95 52.1354 29.564 54.3281L23.5549 66.9729ZM23.5384 66.9651L23.5555 66.9732L29.5634 54.3278L29.5463 54.3197L23.5384 66.9651ZM29.4961 66.9648C27.611 67.8607 25.423 67.8605 23.5382 66.965L29.5465 54.3198C27.6297 53.409 25.4045 53.4089 23.4872 54.32L29.4961 66.9648ZM29.4791 66.9729L29.4962 66.9648L23.4871 54.32L23.47 54.3281L29.4791 66.9729ZM19.4073 60.608C19.4073 65.7853 24.8028 69.1945 29.4784 66.9733L23.4708 54.3278C28.0839 52.1362 33.4073 55.4998 33.4073 60.608H19.4073ZM23.3762 66.888C20.9521 65.7362 19.4073 63.292 19.4073 60.608H33.4073C33.4073 57.8875 31.8415 55.4102 29.3846 54.2428L23.3762 66.888ZM14.0465 62.4549L23.3761 66.8879L29.3846 54.2429L20.0551 49.8098L14.0465 62.4549ZM14.0465 20.2C-3.7564 28.6594 -3.7564 53.9955 14.0465 62.4549L20.0551 49.8098C12.9074 46.4135 12.9074 36.2414 20.0551 32.8451L14.0465 20.2ZM23.3761 15.7669L14.0465 20.2L20.0551 32.8451L29.3846 28.412L23.3761 15.7669ZM19.4073 22.0469C19.4073 19.363 20.952 16.9189 23.3759 15.767L29.3848 28.4119C31.8416 27.2444 33.4073 24.7672 33.4073 22.0469H19.4073ZM29.4788 15.6818C24.8029 13.46 19.4073 16.8698 19.4073 22.0469H33.4073C33.4073 27.1548 28.0838 30.5191 23.4703 28.3269L29.4788 15.6818ZM29.4962 15.6901L29.4791 15.682L23.4701 28.3268L23.4871 28.3349L29.4962 15.6901ZM23.5382 15.6899C25.4232 14.7942 27.6109 14.7944 29.4955 15.6898L23.4878 28.3352C25.4045 29.2458 27.6294 29.246 29.5465 28.3351L23.5382 15.6899ZM23.5552 15.6818L23.5381 15.69L29.5466 28.335L29.5637 28.3269L23.5552 15.6818ZM33.6268 22.0469C33.6268 16.87 28.2314 13.4597 23.5551 15.6819L29.5639 28.3268C24.9501 30.5193 19.6268 27.1546 19.6268 22.0469H33.6268ZM29.6576 15.7667C32.0825 16.9188 33.6268 19.3635 33.6268 22.0469H19.6268C19.6268 24.7667 21.192 27.2445 23.6498 28.4122L29.6576 15.7667ZM29.9915 15.9254L29.6579 15.7669L23.6494 28.412L23.983 28.5705L29.9915 15.9254ZM20.5077 18.2139L20.0626 21.2238L33.9119 23.2721L34.3571 20.2623L20.5077 18.2139ZM37.3654 1.35629C28.645 2.64607 21.7975 9.49353 20.5077 18.2139L34.3571 20.2623C34.744 17.6465 36.798 15.5925 39.4137 15.2056L37.3654 1.35629ZM41.6106 0.728406L37.3654 1.35629L39.4137 15.2056L43.659 14.5777L41.6106 0.728406Z" fill="black" mask="url(#path-1-outside-1)"/>
<path fill-rule="evenodd" clip-rule="evenodd" d="M42.6448 7.64821C42.6421 7.6509 42.6386 7.65266 42.6348 7.65321L38.3896 8.2811C32.7215 9.11943 28.2707 13.5702 27.4324 19.2382L26.8045 23.4835C26.804 23.4873 26.8022 23.4908 26.7995 23.4935L26.7797 23.5133C26.7739 23.5191 26.7789 23.5289 26.7869 23.5277C26.7926 23.5268 26.7974 23.5317 26.7966 23.5373C26.7954 23.5454 26.8052 23.5503 26.811 23.5445L26.8308 23.5247C26.8335 23.522 26.837 23.5203 26.8407 23.5197L31.086 22.8918C36.7541 22.0535 41.2048 17.6028 42.0431 11.9347L42.671 7.68942C42.6716 7.68565 42.6733 7.68216 42.676 7.67947L42.6959 7.65965C42.7016 7.65387 42.6967 7.64406 42.6886 7.64526C42.683 7.64609 42.6782 7.64125 42.679 7.63562C42.6802 7.62754 42.6704 7.62261 42.6646 7.62839L42.6448 7.64821Z" fill="#1CC64B"/>
<path fill-rule="evenodd" clip-rule="evenodd" d="M26.4073 22.047C26.4073 22.0652 26.3968 22.0818 26.3804 22.0896L17.0508 26.5227C4.57551 32.4505 4.57551 50.2046 17.0508 56.1325L26.3804 60.5656C26.3968 60.5734 26.4073 60.5899 26.4073 60.6081C26.4073 60.6427 26.4433 60.6655 26.4746 60.6507L26.4917 60.6425C26.5077 60.6349 26.5263 60.6349 26.5424 60.6425L26.5595 60.6507C26.5907 60.6655 26.6268 60.6427 26.6268 60.6081C26.6268 60.5899 26.6373 60.5734 26.6537 60.5656L35.9833 56.1325C48.4585 50.2046 48.4585 32.4505 35.9833 26.5227L26.6537 22.0896C26.6373 22.0818 26.6268 22.0652 26.6268 22.047C26.6268 22.0124 26.5907 21.9896 26.5595 22.0045L26.5424 22.0126C26.5263 22.0202 26.5077 22.0202 26.4917 22.0126L26.4746 22.0045C26.4433 21.9896 26.4073 22.0124 26.4073 22.047Z" fill="#FFE920"/>
</svg>