<svg width="100" height="98" viewBox="0 0 100 98" fill="none" xmlns="http://www.w3.org/2000/svg">
<mask id="path-1-outside-1" maskUnits="userSpaceOnUse" x="12.7837" y="0" width="87" height="85" fill="black">
<rect fill="white" x="12.7837" width="87" height="85"/>
<path fill-rule="evenodd" clip-rule="evenodd" d="M55.399 18.2656C56.285 17.5454 57.0138 16.6923 57.5854 15.7064C58.2492 14.5616 58.5703 13.3469 58.5486 12.0623C58.5453 10.746 58.2011 9.46683 57.516 8.22489C57.3257 7.81866 57.0389 7.50539 56.6557 7.28506C56.3363 7.10145 55.9868 7.00653 55.6072 7.00029C55.2276 6.99405 54.8749 7.08814 54.5493 7.28255C54.1413 7.47205 53.836 7.7417 53.6331 8.09152C53.2828 8.69576 53.2678 9.49278 53.5881 10.4826C54.0313 11.6278 53.9486 12.7251 53.3401 13.7746C53.0451 14.2834 52.6107 14.7757 52.0368 15.2514C51.4494 15.677 50.6303 16.245 49.5797 16.9554C48.2034 17.8602 47.0722 18.6728 46.1862 19.3931C45.3186 20.0816 44.599 20.9188 44.0274 21.9046C43.3636 23.0495 43.0334 24.2801 43.0366 25.5964C43.0583 26.881 43.4277 28.1534 44.1448 29.4137C44.3535 29.7881 44.6495 30.0855 45.0328 30.3058C45.7034 30.6914 46.3712 30.7149 47.0359 30.3762C47.4439 30.1867 47.7493 29.917 47.9521 29.5672C48.3209 28.9312 48.3291 28.1091 47.9768 27.1009C47.5706 25.8921 47.6532 24.7948 48.2248 23.8089C48.5198 23.3001 48.9359 22.8396 49.4729 22.4275C50.0099 22.0154 50.8633 21.4248 52.0332 20.6557C53.4095 19.7508 54.5314 18.9541 55.399 18.2656ZM60.4199 47.209C59.4299 47.7782 58.3704 48.1541 57.2414 48.3368C56.1443 48.501 54.7727 48.6324 53.1264 48.7308C52.8616 48.7466 52.6099 48.7625 52.3711 48.7786L60.7785 57.4094C63.8466 60.5591 62.5967 65.83 58.441 67.2667L56.7078 67.8658L39.8786 73.6842L28.7567 77.5294C23.9666 79.1855 19.4081 74.524 21.1708 69.772L32.1141 40.2701C33.6469 36.1381 38.9624 35.0132 42.0375 38.1702L48.4613 44.7648C48.5395 44.7509 48.618 44.738 48.6968 44.7262C49.8258 44.5436 51.2134 44.4031 52.8596 44.3047C54.1263 44.2125 55.1208 44.1284 55.8431 44.0523C56.579 43.9261 57.2024 43.7161 57.7134 43.4223C58.7673 42.8164 59.3899 41.9072 59.5812 40.6948C59.6535 40.3601 59.7467 40.0616 59.861 39.7993C59.6602 39.9693 59.4415 40.1239 59.2056 40.2601C57.078 41.4885 54.3574 40.7595 53.129 38.6319C51.9006 36.5042 52.6296 33.7836 54.7572 32.5552C56.8849 31.3269 59.6055 32.0558 60.8339 34.1835C61.659 35.6127 61.6009 37.3095 60.829 38.6418C61.1783 38.4433 61.5754 38.3634 62.0204 38.4021C62.4 38.3958 62.7526 38.4899 63.0783 38.6843C63.4039 38.8787 63.6589 39.1349 63.8433 39.453C64.0646 39.8346 64.1556 40.2487 64.1165 40.6952C64.0862 42.1119 63.742 43.391 63.0838 44.5326C62.4576 45.6559 61.5697 46.548 60.4199 47.209ZM85.6504 55.3407C84.5072 55.3407 83.4008 55.1387 82.3314 54.7348C81.2988 54.3309 80.045 53.7617 78.5699 53.0273C77.316 52.403 76.3757 51.9623 75.7487 51.7053C75.1218 51.4482 74.5133 51.3197 73.9233 51.3197C72.7801 51.3197 71.7844 51.7971 70.9362 52.7518C70.2355 53.5597 69.5164 53.9637 68.7789 53.9637C68.3732 53.9637 67.986 53.8351 67.6172 53.5781C66.9903 53.1741 66.6769 52.5866 66.6769 51.8154C66.6769 51.3748 66.7875 50.9708 67.0088 50.6036C67.7463 49.3551 68.6683 48.4003 69.7746 47.7393C70.9178 47.0784 72.1532 46.7479 73.4808 46.7479C74.624 46.7479 75.7119 46.9498 76.7444 47.3538C77.8139 47.7577 79.0862 48.3269 80.5613 49.0613C81.7045 49.6122 82.608 50.0344 83.2718 50.3282C83.9724 50.5853 84.6178 50.7138 85.2078 50.7138C86.4248 50.7138 87.4205 50.2364 88.1949 49.2817C88.8956 48.5105 89.5962 48.1249 90.2969 48.1249C90.7026 48.1249 91.0898 48.2535 91.4586 48.5105C91.7905 48.6941 92.0486 48.9512 92.233 49.2817C92.4174 49.6121 92.5096 49.961 92.5096 50.3282C92.5096 50.7689 92.3805 51.1728 92.1224 51.54C91.3848 52.7518 90.4444 53.6882 89.3012 54.3492C88.1949 55.0102 86.9779 55.3407 85.6504 55.3407ZM72.4397 12.0461C70.3121 10.8178 67.5915 11.5467 66.3631 13.6744C65.1347 15.802 65.8637 18.5226 67.9913 19.751C70.1189 20.9794 72.8395 20.2504 74.0679 18.1228C75.2963 15.9951 74.5673 13.2745 72.4397 12.0461ZM78.2221 37.6636C80.5952 37.0278 83.0344 38.4361 83.6702 40.8091C84.3061 43.1822 82.8978 45.6214 80.5248 46.2573C78.1517 46.8931 75.7125 45.4849 75.0766 43.1118C74.4408 40.7387 75.849 38.2995 78.2221 37.6636Z"/>
</mask>
<path d="M57.5854 15.7064L51.5297 12.1953L51.5297 12.1953L57.5854 15.7064ZM55.399 18.2656L59.7503 23.7489L59.7826 23.7233L59.8146 23.6973L55.399 18.2656ZM58.5486 12.0623L51.5486 12.0797L51.5487 12.1301L51.5496 12.1806L58.5486 12.0623ZM57.516 8.22489L51.177 11.1944L51.2751 11.4037L51.3868 11.6062L57.516 8.22489ZM56.6557 7.28506L60.1445 1.21647L60.1445 1.21647L56.6557 7.28506ZM55.6072 7.00029L55.4922 13.9993L55.4922 13.9993L55.6072 7.00029ZM54.5493 7.28255L57.4982 13.6311L57.8267 13.4785L58.1376 13.2929L54.5493 7.28255ZM53.6331 8.09152L59.6889 11.6027L59.6889 11.6026L53.6331 8.09152ZM53.5881 10.4826L46.9282 12.638L46.9888 12.8252L47.0598 13.0087L53.5881 10.4826ZM53.3401 13.7746L47.2844 10.2635L47.2844 10.2635L53.3401 13.7746ZM52.0368 15.2514L56.1436 20.9201L56.3283 20.7863L56.504 20.6407L52.0368 15.2514ZM49.5797 16.9554L53.4252 22.8045L53.4632 22.7795L53.5007 22.7541L49.5797 16.9554ZM46.1862 19.3931L50.5375 24.8764L50.5698 24.8508L50.6018 24.8247L46.1862 19.3931ZM44.0274 21.9046L37.9717 18.3935L37.9717 18.3935L44.0274 21.9046ZM43.0366 25.5964L36.0366 25.6138L36.0368 25.6642L36.0376 25.7147L43.0366 25.5964ZM44.1448 29.4137L50.2589 26.0052L50.244 25.9785L50.2289 25.952L44.1448 29.4137ZM45.0328 30.3058L41.5439 36.3744L41.5439 36.3744L45.0328 30.3058ZM47.0359 30.3762L44.087 24.0277L43.9717 24.0812L43.8584 24.1389L47.0359 30.3762ZM47.9521 29.5672L41.8963 26.0561L41.8963 26.0561L47.9521 29.5672ZM47.9768 27.1009L41.3415 29.3309L41.3548 29.3705L41.3686 29.4099L47.9768 27.1009ZM48.2248 23.8089L42.1691 20.2978L42.1691 20.2978L48.2248 23.8089ZM49.4729 22.4275L53.7345 27.9808L53.7345 27.9808L49.4729 22.4275ZM52.0332 20.6557L55.8787 26.5047L55.8787 26.5047L52.0332 20.6557ZM57.2414 48.3368L58.278 55.2596L58.3187 55.2535L58.3593 55.2469L57.2414 48.3368ZM60.4199 47.209L63.9088 53.2776L63.9088 53.2776L60.4199 47.209ZM53.1264 48.7308L53.544 55.7183L53.5441 55.7183L53.1264 48.7308ZM52.3711 48.7786L51.902 41.7943L36.7848 42.8098L47.3569 53.6629L52.3711 48.7786ZM60.7785 57.4094L65.7927 52.525L65.7927 52.525L60.7785 57.4094ZM58.441 67.2667L60.728 73.8826L60.7283 73.8825L58.441 67.2667ZM56.7078 67.8658L54.4209 61.25L54.4206 61.2501L56.7078 67.8658ZM39.8786 73.6842L37.5914 67.0684L37.5913 67.0684L39.8786 73.6842ZM28.7567 77.5294L31.044 84.1452L31.044 84.1451L28.7567 77.5294ZM21.1708 69.772L27.7338 72.2065L27.7338 72.2065L21.1708 69.772ZM32.1141 40.2701L38.6772 42.7046L32.1141 40.2701ZM42.0375 38.1702L47.0518 33.2858V33.2858L42.0375 38.1702ZM48.4613 44.7648L43.4471 49.6492L46.0341 52.305L49.6847 51.657L48.4613 44.7648ZM48.6968 44.7262L49.7335 51.649L49.7741 51.643L49.8146 51.6364L48.6968 44.7262ZM52.8596 44.3047L53.2773 51.2922L53.3224 51.2895L53.3676 51.2862L52.8596 44.3047ZM55.8431 44.0523L56.5763 51.0138L56.8025 50.99L57.0267 50.9515L55.8431 44.0523ZM57.7134 43.4223L54.2246 37.3537L54.2245 37.3537L57.7134 43.4223ZM59.5812 40.6948L52.739 39.217L52.6974 39.4095L52.6667 39.604L59.5812 40.6948ZM59.861 39.7993L66.2787 42.5944L55.3367 34.4579L59.861 39.7993ZM59.2056 40.2601L55.7057 34.1979L55.7056 34.1979L59.2056 40.2601ZM54.7572 32.5552L58.2572 38.6174L58.2573 38.6174L54.7572 32.5552ZM60.8339 34.1835L54.7717 37.6835L54.7717 37.6835L60.8339 34.1835ZM60.829 38.6418L54.7722 35.1324L41.8103 57.5026L64.2878 44.7276L60.829 38.6418ZM62.0204 38.4021L61.4139 45.3757L61.774 45.4071L62.1354 45.4011L62.0204 38.4021ZM63.0783 38.6843L59.4899 44.6946L59.49 44.6946L63.0783 38.6843ZM63.8433 39.453L57.7876 42.9641L57.7876 42.9641L63.8433 39.453ZM64.1165 40.6952L57.1432 40.0835L57.123 40.3142L57.118 40.5457L64.1165 40.6952ZM63.0838 44.5326L57.0194 41.0365L56.9943 41.0801L56.9698 41.1241L63.0838 44.5326ZM82.3314 54.7348L79.7812 61.2537L79.8195 61.2687L79.858 61.2833L82.3314 54.7348ZM78.5699 53.0273L81.6898 46.761L81.6898 46.761L78.5699 53.0273ZM70.9362 52.7518L65.703 48.1028L65.6754 48.1339L65.6481 48.1654L70.9362 52.7518ZM67.6172 53.5781L71.6201 47.8355L71.5157 47.7627L71.4086 47.6937L67.6172 53.5781ZM67.0088 50.6036L73.0045 54.2163L73.0202 54.1902L73.0357 54.164L67.0088 50.6036ZM69.7746 47.7393L66.2708 41.6794L66.2274 41.7045L66.1843 41.7302L69.7746 47.7393ZM76.7444 47.3538L74.1943 53.8727L74.2326 53.8877L74.271 53.9022L76.7444 47.3538ZM80.5613 49.0613L77.4414 55.3276L77.4819 55.3478L77.5228 55.3675L80.5613 49.0613ZM83.2718 50.3282L80.4388 56.7294L80.6471 56.8215L80.8608 56.8999L83.2718 50.3282ZM88.1949 49.2817L83.0141 44.5743L82.8821 44.7196L82.7584 44.872L88.1949 49.2817ZM91.4586 48.5105L87.4558 54.2531L87.753 54.4603L88.0701 54.6357L91.4586 48.5105ZM92.1224 51.54L86.3957 47.5144L86.2629 47.7034L86.1428 47.9007L92.1224 51.54ZM89.3012 54.3492L85.7974 48.2893L85.754 48.3144L85.711 48.3401L89.3012 54.3492ZM66.3631 13.6744L60.3009 10.1744V10.1744L66.3631 13.6744ZM72.4397 12.0461L68.9397 18.1083L68.9397 18.1083L72.4397 12.0461ZM67.9913 19.751L71.4913 13.6888L71.4913 13.6888L67.9913 19.751ZM83.6702 40.8091L90.4317 38.9974V38.9974L83.6702 40.8091ZM78.2221 37.6636L76.4104 30.9022H76.4104L78.2221 37.6636ZM80.5248 46.2573L82.3365 53.0188L82.3365 53.0188L80.5248 46.2573ZM75.0766 43.1118L68.3151 44.9235L68.3151 44.9235L75.0766 43.1118ZM51.5297 12.1953C51.3847 12.4453 51.2122 12.6481 50.9834 12.834L59.8146 23.6973C61.3579 22.4427 62.6429 20.9392 63.6412 19.2176L51.5297 12.1953ZM51.5496 12.1806C51.5497 12.186 51.5495 12.1883 51.5496 12.1877C51.5496 12.1872 51.5497 12.1845 51.5503 12.1802C51.5508 12.1758 51.5516 12.1705 51.5527 12.1646C51.5538 12.1587 51.5551 12.1531 51.5565 12.1481C51.5578 12.143 51.559 12.1394 51.5597 12.1373C51.5603 12.1353 51.5603 12.1356 51.5591 12.1384C51.557 12.1437 51.5487 12.1625 51.5297 12.1953L63.6412 19.2176C64.9235 17.006 65.5915 14.5413 65.5476 11.9441L51.5496 12.1806ZM51.3868 11.6062C51.5489 11.9 51.5485 12.0304 51.5486 12.0797L65.5486 12.045C65.5422 9.46155 64.8534 7.03368 63.6452 4.84359L51.3868 11.6062ZM53.1668 13.3536C52.285 12.8467 51.5866 12.0686 51.177 11.1944L63.8549 5.25538C63.0648 3.5687 61.7929 2.16411 60.1445 1.21647L53.1668 13.3536ZM55.4922 13.9993C54.7244 13.9867 53.9074 13.7794 53.1668 13.3537L60.1445 1.21647C58.7652 0.423459 57.2492 0.026329 55.7222 0.00123596L55.4922 13.9993ZM58.1376 13.2929C57.3435 13.767 56.4134 14.0145 55.4922 13.9993L55.7222 0.00123596C54.0417 -0.0263786 52.4063 0.409313 50.961 1.27223L58.1376 13.2929ZM59.6889 11.6026C59.0915 12.633 58.2396 13.2867 57.4982 13.6311L51.6004 0.934024C50.0431 1.6574 48.5804 2.85044 47.5774 4.58042L59.6889 11.6026ZM60.248 8.3272C60.258 8.35793 60.3687 8.70105 60.3579 9.27418C60.3462 9.89383 60.1897 10.7388 59.6889 11.6027L47.5774 4.58038C45.8277 7.59821 46.2981 10.691 46.9282 12.638L60.248 8.3272ZM59.3959 17.2857C61.0844 14.3736 61.3148 11.0533 60.1164 7.95644L47.0598 13.0087C46.9496 12.7237 46.8327 12.2431 46.8783 11.6386C46.924 11.0314 47.1143 10.5568 47.2844 10.2635L59.3959 17.2857ZM56.504 20.6407C57.5514 19.7724 58.5922 18.6719 59.3959 17.2857L47.2844 10.2635C47.498 9.89501 47.6699 9.779 47.5695 9.86216L56.504 20.6407ZM53.5007 22.7541C54.5753 22.0276 55.4661 21.4109 56.1436 20.9201L47.93 9.5827C47.4326 9.94303 46.6854 10.4623 45.6586 11.1567L53.5007 22.7541ZM50.6018 24.8247C51.2446 24.3022 52.1679 23.6311 53.4252 22.8045L45.7341 11.1063C44.2389 12.0894 42.8999 13.0434 41.7706 13.9615L50.6018 24.8247ZM50.0832 25.4157C50.2281 25.1658 50.3765 25.0042 50.5375 24.8764L41.8349 13.9098C40.2608 15.159 38.97 16.6717 37.9717 18.3935L50.0832 25.4157ZM50.0366 25.5791C50.0365 25.5462 50.0385 25.5262 50.0397 25.5167C50.0409 25.5073 50.0421 25.5027 50.0426 25.5006C50.0432 25.4985 50.0448 25.4927 50.0495 25.4816C50.0543 25.4702 50.0642 25.4485 50.0832 25.4157L37.9717 18.3935C36.6899 20.6042 36.0303 23.0515 36.0366 25.6138L50.0366 25.5791ZM50.2289 25.952C50.1163 25.7541 50.0706 25.6253 50.0524 25.5626C50.0353 25.5038 50.0357 25.4806 50.0356 25.4782L36.0376 25.7147C36.0816 28.317 36.8389 30.7282 38.0607 32.8754L50.2289 25.952ZM48.5216 24.2372C49.2023 24.6286 49.8298 25.2356 50.2589 26.0052L38.0307 32.8222C38.8772 34.3406 40.0967 35.5424 41.5439 36.3744L48.5216 24.2372ZM43.8584 24.1389C44.4585 23.8332 45.2957 23.5823 46.2823 23.6169C47.257 23.6512 48.0246 23.9515 48.5216 24.2372L41.5439 36.3744C44.1742 37.8866 47.3488 38.0728 50.2135 36.6134L43.8584 24.1389ZM41.8963 26.0561C42.4937 25.0258 43.3456 24.3721 44.087 24.0277L49.9848 36.7247C51.5422 36.0013 53.0048 34.8083 54.0078 33.0784L41.8963 26.0561ZM41.3686 29.4099C41.36 29.3852 40.8455 27.8684 41.8963 26.0561L54.0078 33.0784C55.7962 29.994 55.2982 26.8329 54.585 24.7919L41.3686 29.4099ZM42.1691 20.2978C40.4609 23.2439 40.3793 26.4678 41.3415 29.3309L54.6121 24.8709C54.66 25.0135 54.7535 25.3772 54.7143 25.8971C54.6736 26.4384 54.5046 26.9337 54.2806 27.32L42.1691 20.2978ZM45.2113 16.8742C44.057 17.76 42.9869 18.8872 42.1691 20.2978L54.2806 27.32C54.0528 27.7129 53.8147 27.9192 53.7345 27.9808L45.2113 16.8742ZM48.1876 14.8066C46.9919 15.5927 45.9611 16.2988 45.2113 16.8742L53.7345 27.9808C54.0587 27.732 54.7347 27.2569 55.8787 26.5047L48.1876 14.8066ZM51.0477 12.7824C50.4009 13.2957 49.4649 13.9668 48.1876 14.8066L55.8787 26.5047C57.354 25.5348 58.6619 24.6126 59.7503 23.7489L51.0477 12.7824ZM58.3593 55.2469C60.3217 54.9294 62.1847 54.2688 63.9088 53.2776L56.9311 41.1404C56.6751 41.2876 56.4191 41.3788 56.1235 41.4266L58.3593 55.2469ZM53.5441 55.7183C55.3083 55.6128 56.9031 55.4655 58.278 55.2596L56.2047 41.4139C55.3855 41.5366 54.237 41.6519 52.7088 41.7432L53.5441 55.7183ZM52.8403 55.7628C53.0601 55.7481 53.2946 55.7332 53.544 55.7183L52.7088 41.7432C52.4287 41.76 52.1596 41.777 51.902 41.7943L52.8403 55.7628ZM65.7927 52.525L57.3854 43.8942L47.3569 53.6629L55.7642 62.2938L65.7927 52.525ZM60.7283 73.8825C69.7322 70.7696 72.4402 59.3493 65.7927 52.525L55.7642 62.2938C55.2529 61.7689 55.4612 60.8904 56.1538 60.6509L60.7283 73.8825ZM58.9948 74.4817L60.728 73.8826L56.1541 60.6508L54.4209 61.25L58.9948 74.4817ZM42.1659 80.2999L58.9951 74.4816L54.4206 61.2501L37.5914 67.0684L42.1659 80.2999ZM31.044 84.1451L42.1659 80.2999L37.5913 67.0684L26.4694 70.9136L31.044 84.1451ZM14.6077 67.3376C10.7886 77.6334 20.6654 87.7333 31.044 84.1452L26.4695 70.9136C26.5938 70.8706 26.8183 70.8457 27.0599 70.9083C27.2712 70.9631 27.4168 71.0631 27.5112 71.1596C27.6055 71.2561 27.7022 71.4039 27.7523 71.6163C27.8095 71.8592 27.7795 72.0832 27.7338 72.2065L14.6077 67.3376ZM25.5511 37.8356L14.6077 67.3376L27.7338 72.2065L38.6772 42.7046L25.5511 37.8356ZM47.0518 33.2858C40.3889 26.4458 28.872 28.8829 25.5511 37.8356L38.6772 42.7046C38.4217 43.3932 37.5358 43.5807 37.0233 43.0546L47.0518 33.2858ZM53.4756 39.8804L47.0518 33.2858L37.0233 43.0546L43.4471 49.6492L53.4756 39.8804ZM47.66 37.8035C47.5192 37.8245 47.3785 37.8475 47.238 37.8725L49.6847 51.657C49.7005 51.6542 49.7168 51.6515 49.7335 51.649L47.66 37.8035ZM52.442 37.3172C50.6539 37.424 49.0164 37.5835 47.5789 37.8161L49.8146 51.6364C50.6352 51.5037 51.7728 51.3821 53.2773 51.2922L52.442 37.3172ZM55.1099 37.0908C54.4978 37.1553 53.5896 37.2331 52.3517 37.3231L53.3676 51.2862C54.6629 51.192 55.7437 51.1015 56.5763 51.0138L55.1099 37.0908ZM54.2245 37.3537C54.5889 37.1442 54.791 37.1306 54.6595 37.1531L57.0267 50.9515C58.367 50.7216 59.8159 50.2879 61.2023 49.4909L54.2245 37.3537ZM52.6667 39.604C52.7145 39.3008 52.8548 38.828 53.1952 38.3309C53.5369 37.832 53.9355 37.5199 54.2246 37.3537L61.2023 49.4909C64.1129 47.8176 65.9781 45.0665 66.4957 41.7856L52.6667 39.604ZM53.4433 37.0042C53.1125 37.7635 52.8905 38.5154 52.739 39.217L66.4234 42.1726C66.4165 42.2048 66.381 42.3597 66.2787 42.5944L53.4433 37.0042ZM55.3367 34.4579C55.4536 34.3589 55.5775 34.2719 55.7057 34.1979L62.7056 46.3223C63.3056 45.9759 63.8669 45.5798 64.3853 45.1407L55.3367 34.4579ZM55.7056 34.1979C56.9261 33.4933 58.4866 33.9114 59.1912 35.1319L47.0668 42.1319C50.2282 47.6075 57.23 49.4837 62.7056 46.3223L55.7056 34.1979ZM59.1912 35.1319C59.8958 36.3523 59.4777 37.9128 58.2572 38.6174L51.2573 26.4931C45.7816 29.6544 43.9055 36.6562 47.0668 42.1319L59.1912 35.1319ZM58.2573 38.6174C57.0368 39.322 55.4763 38.9039 54.7717 37.6835L66.896 30.6835C63.7347 25.2078 56.7329 23.3317 51.2572 26.4931L58.2573 38.6174ZM54.7717 37.6835C54.2939 36.856 54.34 35.8784 54.7722 35.1324L66.8857 42.1512C68.8619 38.7406 69.0241 34.3694 66.896 30.6835L54.7717 37.6835ZM62.6269 31.4284C60.9326 31.281 59.0893 31.579 57.3701 32.5561L64.2878 44.7276C63.2673 45.3076 62.2183 45.4457 61.4139 45.3757L62.6269 31.4284ZM66.6666 32.674C65.2212 31.8111 63.5858 31.3754 61.9054 31.403L62.1354 45.4011C61.2142 45.4163 60.284 45.1687 59.4899 44.6946L66.6666 32.674ZM69.8991 35.9419C69.0985 34.5612 67.98 33.4581 66.6666 32.674L59.49 44.6946C58.8278 44.2993 58.2193 43.7087 57.7876 42.9641L69.8991 35.9419ZM71.0897 41.3069C71.2526 39.4493 70.8558 37.5919 69.899 35.9418L57.7876 42.9641C57.2734 42.0773 57.0586 41.0481 57.1432 40.0835L71.0897 41.3069ZM69.1482 48.0288C70.438 45.7916 71.0614 43.3465 71.1149 40.8447L57.118 40.5457C57.111 40.8773 57.046 40.9904 57.0194 41.0365L69.1482 48.0288ZM63.9088 53.2776C66.1225 52.005 67.934 50.2084 69.1979 47.9412L56.9698 41.1241C56.9644 41.1337 56.9637 41.1336 56.9686 41.1271C56.9736 41.1204 56.9802 41.1128 56.9869 41.106C56.9936 41.0993 56.9957 41.0982 56.9899 41.1027C56.9838 41.1073 56.9656 41.1205 56.9311 41.1404L63.9088 53.2776ZM79.858 61.2833C81.7179 61.9858 83.6622 62.3407 85.6504 62.3407V48.3407C85.3521 48.3407 85.0838 48.2917 84.8048 48.1863L79.858 61.2833ZM75.45 59.2935C77.0311 60.0808 78.4867 60.7473 79.7812 61.2537L84.8815 48.2159C84.1109 47.9144 83.0588 47.4426 81.6898 46.761L75.45 59.2935ZM73.0932 58.182C73.4723 58.3375 74.2239 58.6831 75.45 59.2935L81.6898 46.761C80.4082 46.1229 79.279 45.5872 78.4043 45.2286L73.0932 58.182ZM73.9233 58.3197C73.4776 58.3197 73.1851 58.2197 73.0932 58.182L78.4043 45.2286C77.0586 44.6768 75.5491 44.3197 73.9233 44.3197V58.3197ZM76.1694 57.4009C76.0714 57.5112 75.8073 57.7683 75.3454 57.9898C74.8649 58.2201 74.3612 58.3197 73.9233 58.3197V44.3197C70.5328 44.3197 67.7061 45.848 65.703 48.1028L76.1694 57.4009ZM68.7789 60.9637C72.3241 60.9637 74.8071 58.9724 76.2244 57.3383L65.6481 48.1654C65.664 48.147 66.7088 46.9637 68.7789 46.9637V60.9637ZM63.6144 59.3207C65.0248 60.3038 66.7881 60.9637 68.7789 60.9637V46.9637C69.9583 46.9637 70.9472 47.3665 71.6201 47.8355L63.6144 59.3207ZM59.6769 51.8154C59.6769 54.8681 61.1181 57.7177 63.8259 59.4624L71.4086 47.6937C71.9752 48.0588 72.6186 48.6597 73.088 49.5395C73.5521 50.4095 73.6769 51.2343 73.6769 51.8154H59.6769ZM61.0131 46.9909C60.1158 48.4801 59.6769 50.1389 59.6769 51.8154H73.6769C73.6769 52.6107 73.4592 53.4616 73.0045 54.2163L61.0131 46.9909ZM66.1843 41.7302C63.9536 43.063 62.2386 44.9158 60.9818 47.0433L73.0357 54.164C73.1515 53.9679 73.2414 53.8628 73.2889 53.8136C73.3337 53.7672 73.3576 53.7528 73.3648 53.7485L66.1843 41.7302ZM73.4808 39.7479C70.9299 39.7479 68.485 40.3991 66.2708 41.6794L73.2784 53.7993C73.3357 53.7662 73.3623 53.7594 73.3675 53.7579C73.373 53.7565 73.4044 53.7479 73.4808 53.7479V39.7479ZM79.2946 40.8348C77.4241 40.1031 75.469 39.7479 73.4808 39.7479V53.7479C73.779 53.7479 73.9997 53.7966 74.1943 53.8727L79.2946 40.8348ZM83.6811 42.795C82.0786 41.9972 80.5799 41.3198 79.2178 40.8053L74.271 53.9022C75.0479 54.1956 76.0937 54.6566 77.4414 55.3276L83.6811 42.795ZM86.1047 43.9271C85.5424 43.6782 84.717 43.2935 83.5998 42.7552L77.5228 55.3675C78.6919 55.9308 79.6735 56.3907 80.4388 56.7294L86.1047 43.9271ZM85.2078 43.7138C85.6258 43.7138 85.8068 43.802 85.6827 43.7565L80.8608 56.8999C82.1381 57.3685 83.6098 57.7138 85.2078 57.7138V43.7138ZM82.7584 44.872C82.9494 44.6367 83.3034 44.3015 83.841 44.0437C84.3807 43.785 84.877 43.7138 85.2078 43.7138V57.7138C88.5596 57.7138 91.5436 56.2653 93.6314 53.6913L82.7584 44.872ZM90.2969 41.1249C86.8283 41.1249 84.3909 43.0589 83.0141 44.5743L93.3758 53.989C93.3554 54.0114 93.1165 54.274 92.6207 54.5469C92.0852 54.8416 91.2847 55.1249 90.2969 55.1249V41.1249ZM95.4614 42.7679C94.0509 41.7847 92.2876 41.1249 90.2969 41.1249V55.1249C89.1175 55.1249 88.1287 54.7222 87.4558 54.2531L95.4614 42.7679ZM98.346 45.8711C97.5232 44.3964 96.3201 43.2002 94.8471 42.3853L88.0701 54.6357C87.2609 54.188 86.574 53.5059 86.12 52.6922L98.346 45.8711ZM99.5096 50.3282C99.5096 48.7296 99.0935 47.211 98.346 45.8711L86.12 52.6922C85.7413 52.0133 85.5096 51.1924 85.5096 50.3282H99.5096ZM97.849 55.5657C98.9193 54.0432 99.5096 52.2383 99.5096 50.3282H85.5096C85.5096 49.2994 85.8417 48.3025 86.3957 47.5144L97.849 55.5657ZM92.805 60.4092C95.038 59.1181 96.8014 57.3161 98.1019 55.1794L86.1428 47.9007C85.9682 48.1876 85.8508 48.2584 85.7974 48.2893L92.805 60.4092ZM85.6504 62.3407C88.2022 62.3407 90.666 61.688 92.8915 60.3584L85.711 48.3401C85.6998 48.3467 85.6975 48.3472 85.7032 48.3448C85.709 48.3423 85.7167 48.3396 85.7242 48.3375C85.7316 48.3355 85.7324 48.3359 85.7237 48.3371C85.7148 48.3382 85.6912 48.3407 85.6504 48.3407V62.3407ZM72.4253 17.1744C71.7207 18.3948 70.1601 18.8129 68.9397 18.1083L75.9397 5.98397C70.464 2.82258 63.4623 4.69869 60.3009 10.1744L72.4253 17.1744ZM71.4913 13.6888C72.7117 14.3934 73.1299 15.954 72.4253 17.1744L60.3009 10.1744C57.1395 15.6501 59.0156 22.6518 64.4913 25.8132L71.4913 13.6888ZM68.0057 14.6228C68.7104 13.4024 70.2709 12.9842 71.4913 13.6888L64.4913 25.8132C69.967 28.9746 76.9687 27.0984 80.1301 21.6228L68.0057 14.6228ZM68.9397 18.1083C67.7193 17.4037 67.3011 15.8432 68.0057 14.6228L80.1301 21.6228C83.2915 16.1471 81.4154 9.14535 75.9397 5.98397L68.9397 18.1083ZM90.4317 38.9974C88.7953 32.8901 82.5177 29.2657 76.4104 30.9022L80.0338 44.4251C78.6726 44.7899 77.2735 43.9821 76.9088 42.6209L90.4317 38.9974ZM82.3365 53.0188C88.4438 51.3823 92.0682 45.1047 90.4317 38.9974L76.9088 42.6209C76.544 41.2597 77.3518 39.8605 78.713 39.4958L82.3365 53.0188ZM68.3151 44.9235C69.9516 51.0309 76.2292 54.6552 82.3365 53.0188L78.713 39.4958C80.0742 39.1311 81.4734 39.9389 81.8381 41.3L68.3151 44.9235ZM76.4104 30.9022C70.303 32.5386 66.6787 38.8162 68.3151 44.9235L81.8381 41.3001C82.2028 42.6613 81.395 44.0604 80.0338 44.4251L76.4104 30.9022Z" fill="black" mask="url(#path-1-outside-1)"/>
<path d="M85.6511 55.341C84.5079 55.341 83.4016 55.139 82.3322 54.735C81.2996 54.3311 80.0458 53.7619 78.5707 53.0275C77.3168 52.4032 76.3764 51.9626 75.7495 51.7055C75.1226 51.4485 74.5141 51.3199 73.9241 51.3199C72.7809 51.3199 71.7852 51.7973 70.937 52.7521C70.2363 53.56 69.5172 53.9639 68.7797 53.9639C68.374 53.9639 67.9868 53.8354 67.618 53.5783C66.9911 53.1744 66.6777 52.5868 66.6777 51.8157C66.6777 51.375 66.7883 50.9711 67.0096 50.6039C67.7471 49.3553 68.669 48.4006 69.7754 47.7396C70.9186 47.0786 72.154 46.7481 73.4816 46.7481C74.6248 46.7481 75.7127 46.9501 76.7452 47.354C77.8147 47.758 79.0869 48.3271 80.562 49.0616C81.7053 49.6124 82.6087 50.0347 83.2725 50.3285C83.9732 50.5855 84.6186 50.714 85.2086 50.714C86.4256 50.714 87.4213 50.2367 88.1957 49.2819C88.8964 48.5107 89.597 48.1252 90.2977 48.1252C90.7034 48.1252 91.0906 48.2537 91.4594 48.5107C91.7913 48.6944 92.0494 48.9514 92.2338 49.2819C92.4182 49.6124 92.5104 49.9612 92.5104 50.3285C92.5104 50.7691 92.3813 51.1731 92.1231 51.5403C91.3856 52.7521 90.4452 53.6885 89.302 54.3495C88.1957 55.0105 86.9787 55.341 85.6511 55.341Z" fill="#FFE920"/>
<path d="M60.4207 47.2093C59.4307 47.7784 58.3712 48.1544 57.2422 48.337C56.1451 48.5013 54.7735 48.6326 53.1272 48.731C51.7279 48.8146 50.6922 48.9012 50.0202 48.9907C49.3483 49.0803 48.7568 49.2719 48.2458 49.5657C47.2557 50.1349 46.6331 51.044 46.378 52.2932C46.1768 53.3417 45.7569 54.0495 45.1182 54.4167C44.7669 54.6187 44.367 54.7002 43.9185 54.6612C43.1728 54.6235 42.6063 54.2707 42.2191 53.6029C41.9978 53.2213 41.8908 52.8164 41.898 52.3882C41.9099 50.9397 42.2289 49.6539 42.8551 48.5306C43.5132 47.389 44.4172 46.4877 45.5669 45.8267C46.5569 45.2575 47.6005 44.8908 48.6976 44.7265C49.8265 44.5439 51.2142 44.4033 52.8604 44.3049C54.127 44.2128 55.1215 44.1287 55.8439 44.0526C56.5798 43.9263 57.2032 43.7163 57.7142 43.4226C58.7681 42.8167 59.3907 41.9075 59.582 40.6951C59.8016 39.6784 60.2148 38.9956 60.8216 38.6467C61.1729 38.4448 61.5727 38.3633 62.0212 38.4023C62.4008 38.3961 62.7534 38.4901 63.0791 38.6846C63.4047 38.879 63.6597 39.1352 63.8441 39.4532C64.0654 39.8348 64.1564 40.2489 64.1172 40.6955C64.087 42.1121 63.7428 43.3913 63.0846 44.5329C62.4584 45.6561 61.5705 46.5483 60.4207 47.2093Z" fill="#FFE920"/>
<path d="M57.5862 15.7067C57.0146 16.6925 56.2858 17.5456 55.3998 18.2659C54.5322 18.9544 53.4103 19.751 52.034 20.6559C50.8641 21.425 50.0107 22.0156 49.4737 22.4277C48.9367 22.8399 48.5206 23.3003 48.2256 23.8091C47.654 24.795 47.5714 25.8923 47.9776 27.1012C48.3299 28.1093 48.3216 28.9314 47.9529 29.5675C47.75 29.9173 47.4447 30.1869 47.0367 30.3764C46.3719 30.7151 45.7042 30.6916 45.0336 30.3061C44.6503 30.0857 44.3543 29.7884 44.1456 29.4139C43.4285 28.1536 43.0591 26.8812 43.0374 25.5967C43.0342 24.2803 43.3644 23.0497 44.0282 21.9049C44.5998 20.919 45.3194 20.0818 46.187 19.3933C47.073 18.6731 48.2042 17.8605 49.5805 16.9556C50.6311 16.2452 51.4502 15.6772 52.0376 15.2517C52.6114 14.7759 53.0459 14.2837 53.3409 13.7748C53.9494 12.7254 54.0321 11.628 53.5889 10.4828C53.2686 9.49302 53.2836 8.696 53.6339 8.09177C53.8367 7.74195 54.1421 7.47229 54.5501 7.2828C54.8757 7.08838 55.2283 6.9943 55.608 7.00054C55.9876 7.00677 56.3371 7.1017 56.6565 7.2853C57.0397 7.50563 57.3265 7.81891 57.5168 8.22513C58.2019 9.46707 58.5461 10.7462 58.5494 12.0626C58.5711 13.3471 58.25 14.5618 57.5862 15.7067Z" fill="#FFE920"/>
<path d="M28.7566 77.5294C23.9665 79.1855 19.408 74.524 21.1707 69.7721L32.114 40.2701C33.6467 36.1381 38.9622 35.0133 42.0374 38.1702L60.7784 57.4095C63.8465 60.5591 62.5966 65.83 58.4409 67.2668L28.7566 77.5294Z" fill="#FFBA09"/>
<path fill-rule="evenodd" clip-rule="evenodd" d="M53.9029 68.8352L39.8785 73.6838L25.1741 58.9793L30.2806 45.2129L53.9029 68.8352Z" fill="#FF0000"/>
<rect x="68.5879" y="9.82227" width="8.89679" height="8.89679" rx="4.44839" transform="rotate(30 68.5879 9.82227)" fill="#EB03FF"/>
<rect x="82.5195" y="36.5122" width="8.89679" height="8.89679" rx="4.44839" transform="rotate(75 82.5195 36.5122)" fill="#0094FF"/>
<rect x="58.6104" y="30.3311" width="8.89679" height="8.89679" rx="4.44839" transform="rotate(60 58.6104 30.3311)" fill="#1CC64B"/>
</svg>