<svg width="275" height="126" viewBox="0 0 275 126" fill="none" xmlns="http://www.w3.org/2000/svg">
<mask id="path-1-outside-1" maskUnits="userSpaceOnUse" x="0" y="0" width="275" height="126" fill="black">
<rect fill="white" width="275" height="126"/>
<path fill-rule="evenodd" clip-rule="evenodd" d="M268 12C268 9.23858 265.761 7 263 7H12C9.23858 7 7 9.23858 7 12V92C7 94.7614 9.23858 97 12 97H52.3057C55.0671 97 57.3057 99.2386 57.3057 102V113.346C57.3057 117.581 62.2427 119.898 65.5008 117.192L88.4165 98.154C89.3142 97.4083 90.4445 97 91.6116 97H263C265.761 97 268 94.7614 268 92V12Z"/>
</mask>
<path fill-rule="evenodd" clip-rule="evenodd" d="M268 12C268 9.23858 265.761 7 263 7H12C9.23858 7 7 9.23858 7 12V92C7 94.7614 9.23858 97 12 97H52.3057C55.0671 97 57.3057 99.2386 57.3057 102V113.346C57.3057 117.581 62.2427 119.898 65.5008 117.192L88.4165 98.154C89.3142 97.4083 90.4445 97 91.6116 97H263C265.761 97 268 94.7614 268 92V12Z" fill="white"/>
<path d="M88.4165 98.154L92.8897 103.538L88.4165 98.154ZM12 14H263V0H12V14ZM14 92V12H0V92H14ZM52.3057 90H12V104H52.3057V90ZM64.3057 113.346V102H50.3057V113.346H64.3057ZM83.9434 92.7697L61.0276 111.807L69.9739 122.576L92.8897 103.538L83.9434 92.7697ZM263 90H91.6116V104H263V90ZM261 12V92H275V12H261ZM263 104C269.627 104 275 98.6274 275 92H261C261 90.8954 261.895 90 263 90V104ZM92.8897 103.538C92.5306 103.837 92.0785 104 91.6116 104V90C88.8106 90 86.0979 90.9798 83.9434 92.7697L92.8897 103.538ZM50.3057 113.346C50.3057 123.511 62.1547 129.072 69.9739 122.576L61.0276 111.807C62.3308 110.725 64.3057 111.652 64.3057 113.346H50.3057ZM52.3057 104C51.2011 104 50.3057 103.105 50.3057 102H64.3057C64.3057 95.3726 58.9331 90 52.3057 90V104ZM0 92C0 98.6274 5.37259 104 12 104V90C13.1046 90 14 90.8954 14 92H0ZM263 14C261.895 14 261 13.1046 261 12H275C275 5.37257 269.627 0 263 0V14ZM12 0C5.37258 0 0 5.37259 0 12H14C14 13.1046 13.1046 14 12 14V0Z" fill="black" mask="url(#path-1-outside-1)"/>
</svg>