<svg width="216" height="126" viewBox="0 0 216 126" fill="none" xmlns="http://www.w3.org/2000/svg">
<mask id="path-1-outside-1" maskUnits="userSpaceOnUse" x="0" y="0" width="216" height="126" fill="black">
<rect fill="white" width="216" height="126"/>
<path fill-rule="evenodd" clip-rule="evenodd" d="M209 12C209 9.23858 206.761 7 204 7H12C9.23858 7 7 9.23858 7 12V92C7 94.7614 9.23858 97 12 97H58.6943C61.4558 97 63.6943 99.2386 63.6943 102V113.346C63.6943 117.581 68.6314 119.898 71.8894 117.192L94.8052 98.154C95.7029 97.4083 96.8332 97 98.0003 97H204C206.761 97 209 94.7614 209 92V12Z"/>
</mask>
<path fill-rule="evenodd" clip-rule="evenodd" d="M209 12C209 9.23858 206.761 7 204 7H12C9.23858 7 7 9.23858 7 12V92C7 94.7614 9.23858 97 12 97H58.6943C61.4558 97 63.6943 99.2386 63.6943 102V113.346C63.6943 117.581 68.6314 119.898 71.8894 117.192L94.8052 98.154C95.7029 97.4083 96.8332 97 98.0003 97H204C206.761 97 209 94.7614 209 92V12Z" fill="white"/>
<path d="M94.8052 98.154L99.2783 103.538L94.8052 98.154ZM12 14H204V0H12V14ZM14 92V12H0V92H14ZM58.6943 90H12V104H58.6943V90ZM70.6943 113.346V102H56.6943V113.346H70.6943ZM90.3321 92.7697L67.4163 111.807L76.3626 122.576L99.2783 103.538L90.3321 92.7697ZM204 90H98.0003V104H204V90ZM202 12V92H216V12H202ZM204 104C210.627 104 216 98.6274 216 92H202C202 90.8954 202.895 90 204 90V104ZM99.2783 103.538C98.9193 103.837 98.4671 104 98.0003 104V90C95.1993 90 92.4866 90.9798 90.3321 92.7697L99.2783 103.538ZM56.6943 113.346C56.6943 123.511 68.5433 129.072 76.3626 122.576L67.4163 111.807C68.7195 110.725 70.6943 111.652 70.6943 113.346H56.6943ZM58.6943 104C57.5898 104 56.6943 103.105 56.6943 102H70.6943C70.6943 95.3726 65.3218 90 58.6943 90V104ZM0 92C0 98.6274 5.37258 104 12 104V90C13.1046 90 14 90.8954 14 92H0ZM204 14C202.895 14 202 13.1046 202 12H216C216 5.37257 210.627 0 204 0V14ZM12 0C5.37258 0 0 5.37259 0 12H14C14 13.1046 13.1046 14 12 14V0Z" fill="black" mask="url(#path-1-outside-1)"/>
</svg>