<svg width="166" height="126" viewBox="0 0 166 126" fill="none" xmlns="http://www.w3.org/2000/svg">
<mask id="path-1-outside-1" maskUnits="userSpaceOnUse" x="0.694336" y="0" width="165" height="126" fill="black">
<rect fill="white" x="0.694336" width="165" height="126"/>
<path fill-rule="evenodd" clip-rule="evenodd" d="M7.69434 12C7.69434 9.23858 9.93291 7 12.6943 7H153.694C156.456 7 158.694 9.23858 158.694 12V92C158.694 94.7614 156.456 97 153.694 97H132.694C129.933 97 127.694 99.2386 127.694 102V113.346C127.694 117.581 122.757 119.898 119.499 117.192L96.5835 98.154C95.6858 97.4083 94.5554 97 93.3884 97H12.6943C9.93291 97 7.69434 94.7614 7.69434 92V12Z"/>
</mask>
<path fill-rule="evenodd" clip-rule="evenodd" d="M7.69434 12C7.69434 9.23858 9.93291 7 12.6943 7H153.694C156.456 7 158.694 9.23858 158.694 12V92C158.694 94.7614 156.456 97 153.694 97H132.694C129.933 97 127.694 99.2386 127.694 102V113.346C127.694 117.581 122.757 119.898 119.499 117.192L96.5835 98.154C95.6858 97.4083 94.5554 97 93.3884 97H12.6943C9.93291 97 7.69434 94.7614 7.69434 92V12Z" fill="white"/>
<path d="M96.5835 98.154L101.057 92.7697L96.5835 98.154ZM153.694 14H12.6943V0H153.694V14ZM151.694 92V12H165.694V92H151.694ZM132.694 90H153.694V104H132.694V90ZM120.694 113.346V102H134.694V113.346H120.694ZM101.057 92.7697L123.972 111.807L115.026 122.576L92.1103 103.538L101.057 92.7697ZM12.6943 90H93.3884V104H12.6943V90ZM14.6943 12V92H0.694336V12H14.6943ZM12.6943 104C6.06691 104 0.694336 98.6274 0.694336 92H14.6943C14.6943 90.8954 13.7989 90 12.6943 90V104ZM92.1103 103.538C92.4694 103.837 92.9215 104 93.3884 104V90C96.1894 90 98.9021 90.9798 101.057 92.7697L92.1103 103.538ZM134.694 113.346C134.694 123.511 122.845 129.072 115.026 122.576L123.972 111.807C122.669 110.725 120.694 111.652 120.694 113.346H134.694ZM132.694 104C133.799 104 134.694 103.105 134.694 102H120.694C120.694 95.3726 126.067 90 132.694 90V104ZM165.694 92C165.694 98.6274 160.322 104 153.694 104V90C152.59 90 151.694 90.8954 151.694 92H165.694ZM12.6943 14C13.7989 14 14.6943 13.1046 14.6943 12H0.694336C0.694336 5.37258 6.06693 0 12.6943 0V14ZM153.694 0C160.322 0 165.694 5.37259 165.694 12H151.694C151.694 13.1046 152.59 14 153.694 14V0Z" fill="black" mask="url(#path-1-outside-1)"/>
</svg>