<svg width="166" height="126" viewBox="0 0 166 126" fill="none" xmlns="http://www.w3.org/2000/svg">
<mask id="path-1-outside-1" maskUnits="userSpaceOnUse" x="0.694336" y="0" width="165" height="126" fill="black">
<rect fill="white" x="0.694336" width="165" height="126"/>
<path fill-rule="evenodd" clip-rule="evenodd" d="M158.694 12C158.694 9.23858 156.456 7 153.694 7H12.6943C9.93291 7 7.69434 9.23858 7.69434 12V92C7.69434 94.7614 9.93291 97 12.6943 97H33.6943C36.4558 97 38.6943 99.2386 38.6943 102V113.346C38.6943 117.581 43.6314 119.898 46.8894 117.192L69.8052 98.154C70.7029 97.4083 71.8332 97 73.0003 97H153.694C156.456 97 158.694 94.7614 158.694 92V12Z"/>
</mask>
<path fill-rule="evenodd" clip-rule="evenodd" d="M158.694 12C158.694 9.23858 156.456 7 153.694 7H12.6943C9.93291 7 7.69434 9.23858 7.69434 12V92C7.69434 94.7614 9.93291 97 12.6943 97H33.6943C36.4558 97 38.6943 99.2386 38.6943 102V113.346C38.6943 117.581 43.6314 119.898 46.8894 117.192L69.8052 98.154C70.7029 97.4083 71.8332 97 73.0003 97H153.694C156.456 97 158.694 94.7614 158.694 92V12Z" fill="white"/>
<path d="M69.8052 98.154L65.3321 92.7697L69.8052 98.154ZM12.6943 14H153.694V0H12.6943V14ZM14.6943 92V12H0.694336V92H14.6943ZM33.6943 90H12.6943V104H33.6943V90ZM45.6943 113.346V102H31.6943V113.346H45.6943ZM65.3321 92.7697L42.4163 111.807L51.3626 122.576L74.2783 103.538L65.3321 92.7697ZM153.694 90H73.0003V104H153.694V90ZM151.694 12V92H165.694V12H151.694ZM153.694 104C160.322 104 165.694 98.6274 165.694 92H151.694C151.694 90.8954 152.59 90 153.694 90V104ZM74.2783 103.538C73.9193 103.837 73.4671 104 73.0003 104V90C70.1993 90 67.4866 90.9798 65.3321 92.7697L74.2783 103.538ZM31.6943 113.346C31.6943 123.511 43.5433 129.072 51.3626 122.576L42.4163 111.807C43.7195 110.725 45.6943 111.652 45.6943 113.346H31.6943ZM33.6943 104C32.5898 104 31.6943 103.105 31.6943 102H45.6943C45.6943 95.3726 40.3218 90 33.6943 90V104ZM0.694336 92C0.694336 98.6274 6.06692 104 12.6943 104V90C13.7989 90 14.6943 90.8954 14.6943 92H0.694336ZM153.694 14C152.59 14 151.694 13.1046 151.694 12H165.694C165.694 5.37258 160.322 0 153.694 0V14ZM12.6943 0C6.06691 0 0.694336 5.37259 0.694336 12H14.6943C14.6943 13.1046 13.7989 14 12.6943 14V0Z" fill="black" mask="url(#path-1-outside-1)"/>
</svg>