<svg width="319" height="127" viewBox="0 0 319 127" fill="none" xmlns="http://www.w3.org/2000/svg">
<mask id="path-1-outside-1" maskUnits="userSpaceOnUse" x="0" y="0" width="319" height="127" fill="black">
<rect fill="white" width="319" height="127"/>
<path fill-rule="evenodd" clip-rule="evenodd" d="M312 12C312 9.23858 309.761 7 307 7H12C9.23858 7 7 9.23858 7 12V92C7 94.7614 9.23858 97 12 97H33C35.7614 97 38 99.2386 38 102V114.07C38 118.178 42.6776 120.533 45.9773 118.087L73.1022 97.9831C73.9636 97.3446 75.0073 97 76.0795 97H307C309.761 97 312 94.7614 312 92V12Z"/>
</mask>
<path fill-rule="evenodd" clip-rule="evenodd" d="M312 12C312 9.23858 309.761 7 307 7H12C9.23858 7 7 9.23858 7 12V92C7 94.7614 9.23858 97 12 97H33C35.7614 97 38 99.2386 38 102V114.07C38 118.178 42.6776 120.533 45.9773 118.087L73.1022 97.9831C73.9636 97.3446 75.0073 97 76.0795 97H307C309.761 97 312 94.7614 312 92V12Z" fill="white"/>
<path d="M73.1022 97.9831L68.9341 92.3593L73.1022 97.9831ZM45.9773 118.087L41.8091 112.464L45.9773 118.087ZM12 14H307V0H12V14ZM14 92V12H0V92H14ZM33 90H12V104H33V90ZM45 114.07V102H31V114.07H45ZM68.9341 92.3593L41.8091 112.464L50.1454 123.711L77.2704 103.607L68.9341 92.3593ZM307 90H76.0795V104H307V90ZM305 12V92H319V12H305ZM307 104C313.627 104 319 98.6274 319 92H305C305 90.8954 305.895 90 307 90V104ZM77.2704 103.607C76.9259 103.862 76.5084 104 76.0795 104V90C73.5063 90 71.0013 90.8271 68.9341 92.3593L77.2704 103.607ZM31 114.07C31 123.928 42.2262 129.581 50.1454 123.711L41.8091 112.464C43.129 111.485 45 112.428 45 114.07H31ZM33 104C31.8954 104 31 103.105 31 102H45C45 95.3726 39.6274 90 33 90V104ZM0 92C0 98.6274 5.37259 104 12 104V90C13.1046 90 14 90.8954 14 92H0ZM307 14C305.895 14 305 13.1046 305 12H319C319 5.37259 313.627 0 307 0V14ZM12 0C5.37258 0 0 5.37259 0 12H14C14 13.1046 13.1046 14 12 14V0Z" fill="black" mask="url(#path-1-outside-1)"/>
</svg>