<svg width="1008" height="536" viewBox="0 0 1008 536" fill="none" xmlns="http://www.w3.org/2000/svg">
<rect width="1008" height="536" rx="20" fill="white" fill-opacity="0.95"/>
<path d="M237.7 156.314C231.376 156.009 211.213 157.099 194.017 153.468C176.822 149.838 167.757 150.243 157.393 170.117C147.029 189.991 162.548 196.054 167.756 203.591C171.868 209.541 152.213 226.905 190.423 208.124C198.41 204.198 197.933 200.031 201.181 200.031C210.756 200.031 217.27 210.807 221.604 217.975L221.742 218.204C227.44 227.628 236.81 233.296 242.238 242.945C246.109 249.826 242.967 258.282 242.967 265.695C242.967 277.121 255.927 286.224 262.957 294.257C274.378 307.31 265.164 305.67 279.795 314.981C287.607 319.953 308.138 326.977 316.061 331.819C319.306 333.802 336.091 335.705 336.091 345.419C336.091 355.133 331.183 363.806 331.183 367.442C331.183 376.593 335.414 382.054 341.966 387.514C350.5 394.626 351.508 394.86 350.352 405.845C350.115 408.092 350.153 414.145 350.153 423.82C350.153 433.495 347.074 440.853 344.557 447.743C342.417 453.599 340.393 462.479 340.867 469.114C341.046 471.629 345.377 473 350.153 473C354.928 473 360.8 458.329 362.042 456.81C364.848 454.004 373.03 447.786 374.995 444.249C381.058 433.335 377.928 429.593 388.424 423.82C400.749 417.041 411.823 404.058 416.442 392.048C419.522 384.042 428.357 378.185 424.861 370.029C420.877 360.732 404.504 352.383 393.929 349.865C378.711 346.241 372.404 331.187 365.28 331.819C322.884 335.582 334.788 328.557 324.48 324.048C319.142 321.712 303.935 318.699 301.734 312.92C300.371 309.344 297.611 302.977 298.576 299.438C300.427 292.652 313.452 292.741 319.377 291.894C322.875 291.395 329.266 300.003 330.957 296.2C332.337 293.095 332.623 289.523 334.842 286.486C340.002 279.425 337.623 273.86 345.204 269.648C365.28 258.494 375.424 256.695 375.424 250.241C375.424 247.629 357.786 244.573 358.804 242.945C363.654 235.185 383.806 235.854 380.823 226.905C378.256 219.204 371.255 210.911 365.28 205.533C357.018 201.626 335.643 189.96 335.03 195.172C333.717 206.331 345.397 227.165 330.957 225.102C326.096 224.408 316.809 216.61 312.823 213.953C309.668 211.849 305.896 207.47 304.404 203.591C301.357 195.667 309.899 196.644 312.81 189.991C313.67 188.025 327.719 187.4 327.719 182.867C327.719 177.686 326.15 172.049 322.538 166.029C320.892 163.287 311.019 154.348 304.404 153.468C298.789 152.722 297.281 171.474 278.5 170.117C253.411 168.304 262.816 157.528 237.7 156.314Z" fill="#A1D900" stroke="black" stroke-width="6.501" stroke-linecap="round" stroke-linejoin="round"/>
<path d="M386.235 107.743C399.005 106.041 423.058 101.267 435.869 101.267C447.499 101.267 454.513 116.2 452.707 125.229C451.681 130.362 452.684 151.061 448.821 154.372C445.152 157.517 436.231 160.201 432.729 163.75C415.145 181.572 415.345 205.77 404.136 203.591C392.926 201.412 388.074 179.765 386.233 170.562C383.905 158.921 388.876 158.408 386.233 147.248C384.425 139.613 367.869 110.192 386.235 107.743Z" fill="#A1D900" stroke="black" stroke-width="6.501" stroke-linecap="round" stroke-linejoin="round"/>
<path d="M303.987 135.627C303.987 125.116 330.126 130.283 334.896 130.785C338.906 132.122 343.887 142.009 346.835 145.112C351.405 149.923 349.932 155.572 354.269 160.633C355.918 162.556 361.816 165.988 363.019 168.327C365.137 172.444 367.663 177.14 367.065 181.924C366.782 184.191 363.019 193.877 357.508 193.877C351.996 193.877 340.669 189.712 340.669 181.924C340.669 174.135 340.766 165.328 334.896 160.633C328.782 155.741 326.059 155.019 318.003 153.077C310.954 151.378 303.987 144.52 303.987 135.627Z" fill="#A1D900" stroke="black" stroke-width="6.501" stroke-linecap="round" stroke-linejoin="round"/>
<path d="M264.522 133.173C270.249 133.173 273.964 129.717 281.17 131.979C288.376 134.241 283.679 138.829 283.679 146.601C283.679 151.782 290.155 155.077 290.155 158.258C290.155 164.952 269.662 158.258 264.522 158.258C259.961 158.258 259.226 148.718 256.098 145.305C251.965 140.796 248.138 151.86 243.526 147.248C239.479 143.201 242.489 131.825 243.526 126.525C244.507 121.511 241.771 101.451 248.935 107.836C256.098 114.22 254.144 120.798 256.098 124.816C258.487 129.726 258.354 133.173 264.522 133.173Z" fill="#A1D900" stroke="black" stroke-width="6.501" stroke-linecap="round" stroke-linejoin="round"/>
<path d="M286.609 118.779C277.577 103.295 324.508 112.277 326.539 115.264C334.193 126.524 310.994 120.853 305.048 123.356C301.769 124.737 288.323 121.717 286.609 118.779Z" fill="#A1D900" stroke="black" stroke-width="6.501" stroke-linecap="round" stroke-linejoin="round"/>
<path d="M528.04 158.245C538.857 158.245 537.213 144.125 555.03 147.896C559.563 148.856 565.209 156.382 567.334 160.632C569.437 164.838 569.361 182.265 575.107 178.982C581.372 175.402 594.082 160.366 601.66 158.245C610.66 155.724 607.602 160.74 616.654 159.173C625.287 157.679 629.792 136.051 637.926 133.001C643.204 131.021 650.872 144.724 654.196 140.071C659.57 132.546 671.783 115.748 680.022 111.629C691.099 106.09 709.604 98.5957 721.469 103.21C724.608 104.431 721.48 123.006 724.105 124.55C744.136 136.333 749.622 127.727 754.498 133.001C764.5 143.819 765.108 146.306 778.494 146.306C785.953 146.306 820.555 141.85 820.555 153.725C820.555 158.827 848.374 164.42 853.583 178.982C859.619 195.854 842.989 221.883 839.983 227.225C837.321 231.959 809.759 201.848 806.955 206.182C804.021 210.716 784.288 210.715 779.107 215.896C773.926 221.077 783.282 236.81 779.29 246.982C773.368 262.067 757.088 260.804 757.088 263.82C757.088 275.862 764.294 275.769 752.555 283.896C747.348 287.501 748.071 265.414 742.193 268.353C735.79 271.555 740.25 277.294 740.25 285.191C740.25 293.189 741.73 304.634 733.126 308.505C728.17 310.736 716.07 311.418 711.107 313.686C708.274 314.982 718.907 329.706 715.641 331.82C701.873 340.728 711.741 345.745 707.869 346.067C700.098 346.715 698.248 335.737 692.974 329.877C686.803 323.02 688.648 319.547 681.317 312.391C679.582 310.698 675.717 310.327 670.307 316.277C665.425 321.648 660.593 324.048 661.241 329.877C661.528 332.467 661.655 345.865 658.002 343.477C655.168 341.623 649.618 338.234 648.288 335.058C646.261 330.215 642.782 325.016 641.164 320.163C639.41 314.899 634.461 309.862 631.45 305.267C628.513 300.784 620.143 305.424 615.26 302.677C612.518 301.135 601.707 300.195 599.069 298.144C597.244 296.724 587.189 282.852 589.261 290.104C590.077 292.963 595.048 300.944 596.479 301.382C602.422 303.198 602.742 302.665 607.7 306.288C609.583 307.664 615.487 309.61 613.669 311.064C611.694 312.644 610.256 320.163 607.7 320.163C596.886 320.163 595.764 329.393 584.822 327.934C579.975 327.288 573.425 306.288 565.913 306.288C562.104 306.288 571.557 317.621 572.517 320.163C574.554 325.554 576.946 328.477 580.936 332.467C582.667 334.199 597.636 333.647 597.774 336.136C598.135 342.628 580.936 351.737 580.936 358.372C580.936 363.161 578.449 366.82 578.449 371.687C578.449 376.589 577.244 383.454 575.398 387.938C573.598 392.309 569.871 395.422 567.704 399.412C564.866 404.641 566.618 412.683 561.507 416.01C555.081 420.195 549.148 432.526 540.136 428.963C530.002 424.956 526.23 415.958 522.003 406.296C518.048 397.256 519.133 392.015 520.06 382.982C521.192 371.939 509.806 369.529 514.231 359.667C516.311 355.033 512.451 349.399 508.403 347.013C495.542 339.435 489.573 350.331 476.669 347.013C468.364 344.878 459.708 327.1 460.479 320.163C461.818 308.108 468.357 298.569 475.84 289.724C480.211 284.56 496.402 275.477 503.868 275.477C508.049 275.477 518.9 279.341 521.408 283.604C524.77 289.321 530.926 286.718 536.796 287.252C546.07 288.095 559.347 296.543 559.347 281.813C559.347 272.264 548.14 276.772 539.487 276.772C532.22 276.772 536.945 260.103 529.772 260.582C526.836 260.777 531.392 279.062 521.408 276.772C518.115 276.017 518.546 267.054 518.115 265.115C517.089 260.495 511.275 261.057 506.218 262.18C499.033 263.777 498.507 269.228 493.683 274.053C488.142 279.593 476.02 275.504 476.02 268.68C476.02 265.028 483.701 259.128 486.382 258.532C489.374 257.867 493.146 260.932 494.346 258.532C497.503 252.218 493.718 245.251 501.443 241.818C508.238 238.797 506.815 233.885 506.815 227.225C506.815 222.707 502.917 218.42 501.111 214.358L501.057 214.236C499.224 210.115 497.476 206.182 503.234 198.771C509.049 191.286 516.072 179.674 520.058 176.391C524.978 172.34 522.001 158.245 528.04 158.245Z" fill="#A1D900" stroke="black" stroke-width="6.501" stroke-linecap="round" stroke-linejoin="round"/>
<path d="M490.92 239.21C483.146 238.778 487.718 226.905 485.091 226.905C479.945 226.21 478.612 237.795 474.727 233.328C471.006 229.05 474.261 226.026 477.317 221.077C480.037 216.671 482.217 210.067 485.091 210.067C492.861 210.067 501.503 239.798 490.92 239.21Z" fill="#A1D900" stroke="black" stroke-width="6.501" stroke-linecap="round" stroke-linejoin="round"/>
<path d="M762.269 291.019C758.383 295.294 751.848 289.79 758.384 282.6C762.154 278.453 770.133 277.358 774.574 270.943C778.741 264.924 780.986 256.314 784.288 252.162C786.864 248.924 793.436 255.63 780.403 277.419C777.941 281.535 768.745 283.895 762.269 291.019Z" fill="#A1D900" stroke="black" stroke-width="6.501" stroke-linecap="round" stroke-linejoin="round"/>
<path d="M821.39 461.845C817.504 466.119 810.969 460.615 817.505 453.426C821.275 449.279 829.254 448.184 833.695 441.769C837.862 435.75 840.107 427.139 843.41 422.988C845.321 420.585 851.594 427.054 847.107 437.113C845.547 440.611 838.813 440.558 835.45 446.18C832.988 450.295 827.866 454.721 821.39 461.845Z" fill="#A1D900" stroke="black" stroke-width="6.501" stroke-linecap="round" stroke-linejoin="round"/>
<path d="M743.488 350.6C753.787 357.466 760.593 357.641 772.631 360.962C780.403 363.106 785.043 374.562 778.46 374.562C775.488 374.562 771.255 372.619 766.557 366.58C764.996 364.572 759.047 364.848 756.441 364.848C752.747 364.848 747.846 359.39 744.784 360.962C740.197 363.318 735.583 373.506 730.536 374.562C726.157 375.479 718.775 372.13 714.346 371.324C710.086 370.55 690.6 358.587 689.737 353.838C688.224 345.52 709.567 360.185 714.346 358.819C717.522 357.912 722.676 348.771 725.567 346.88C728.795 344.77 740.3 348.474 743.488 350.6Z" fill="#A1D900" stroke="black" stroke-width="6.501" stroke-linecap="round" stroke-linejoin="round"/>
<path d="M762.27 379.743C774.999 379.743 770.041 396.581 780.402 384.924C790.764 373.267 790.545 395.701 795.277 397.157C803.923 399.817 806.307 405 803.717 420.543C801.126 436.086 784.611 451.054 778.46 438.029C772.342 425.074 764.317 425.076 762.303 425.076L762.27 425.076C743.025 424.241 743.28 432.775 736.364 432.775C725.389 432.775 726.65 419.896 724.06 405C724.06 399.901 739.939 400.109 741.547 395.286C743.864 388.332 754.804 379.743 762.27 379.743Z" fill="#A1D900" stroke="black" stroke-width="6.501" stroke-linecap="round" stroke-linejoin="round"/>
<path d="M582.63 409.493C577.159 397.456 594.408 381.007 597.386 382.966C600.364 384.924 595.999 403.039 589.355 409.493C586.391 412.372 584.442 413.48 582.63 409.493Z" fill="#A1D900" stroke="black" stroke-width="6.501" stroke-linecap="round" stroke-linejoin="round"/>
<path d="M448.316 172.571C455.56 172.571 458.115 175.007 462.643 180.929C464.365 184.81 459.718 188.092 456.077 188.092C450.894 188.092 448.381 185.254 446.459 180.929C445.282 178.281 444.706 172.571 448.316 172.571Z" fill="#A1D900" stroke="black" stroke-width="6.501" stroke-linecap="round" stroke-linejoin="round"/>
<path d="M320.701 310.467C314.468 296.442 330.589 307.713 333.546 309.8C337.133 311.594 341.782 317.774 336.354 316.104C332.031 314.774 322.928 315.478 320.701 310.467Z" fill="#A1D900" stroke="black" stroke-width="6.501" stroke-linecap="round" stroke-linejoin="round"/>
<path d="M345.298 319.892C345.298 314.952 349.306 314.014 352.052 314.351C356.681 314.919 365.213 320.056 353.54 321.724C351.818 321.97 345.298 323.292 345.298 319.892Z" fill="#A1D900" stroke="black" stroke-width="6.501" stroke-linecap="round" stroke-linejoin="round"/>
<path d="M603.588 126.075C605.566 114.867 619.126 105.713 634.563 105.713C642.46 105.713 628.58 112.281 626.269 113.572C618.866 117.708 615.036 124.468 613.964 126.075C611.887 129.192 611.403 147.2 609.431 150.486C607.459 153.772 604.363 149.203 601.012 147.248C598.519 145.794 603.18 128.386 603.588 126.075Z" fill="#A1D900" stroke="black" stroke-width="6.501" stroke-linecap="round" stroke-linejoin="round"/>
<circle cx="261" cy="232" r="12.5" fill="#DF3A1F" stroke="black" stroke-width="7"/>
<circle cx="257" cy="272" r="12.5" fill="#DF3A1F" stroke="black" stroke-width="7"/>
<circle cx="339" cy="248" r="12.5" fill="#DF3A1F" stroke="black" stroke-width="7"/>
<circle cx="406" cy="371" r="12.5" fill="#DF3A1F" stroke="black" stroke-width="7"/>
<circle cx="763" cy="179" r="12.5" fill="#DF3A1F" stroke="black" stroke-width="7"/>
<circle cx="637" cy="260" r="12.5" fill="#DF3A1F" stroke="black" stroke-width="7"/>
<circle cx="832" cy="192" r="12.5" fill="#DF3A1F" stroke="black" stroke-width="7"/>
<circle cx="529" cy="210" r="12.5" fill="#DF3A1F" stroke="black" stroke-width="7"/>
<circle cx="740" cy="283" r="12.5" fill="#DF3A1F" stroke="black" stroke-width="7"/>
<circle cx="503" cy="341" r="12.5" fill="#DF3A1F" stroke="black" stroke-width="7"/>
</svg>
