<svg width="41" height="41" viewBox="0 0 41 41" fill="none" xmlns="http://www.w3.org/2000/svg">
<mask id="path-2-outside-1" maskUnits="userSpaceOnUse" x="-0.161133" y="-0.320312" width="41" height="41" fill="black">
<rect fill="white" x="-0.161133" y="-0.320312" width="41" height="41"/>
<path fill-rule="evenodd" clip-rule="evenodd" d="M31.8163 19.8901C33.5361 19.8901 34.3099 17.7359 32.9832 16.6416L21.4132 7.0988C20.7357 6.53998 19.757 6.53998 19.0795 7.0988L7.50951 16.6416C6.18276 17.7359 6.95654 19.8901 8.67634 19.8901H8.78492C9.79772 19.8901 10.6187 20.7112 10.6187 21.7239V31.81C10.6187 32.8228 11.4398 33.6438 12.4526 33.6438H28.0401C29.0529 33.6438 29.8739 32.8228 29.8739 31.81V21.7239C29.8739 20.7112 30.695 19.8901 31.7078 19.8901H31.8163Z"/>
</mask>
<path fill-rule="evenodd" clip-rule="evenodd" d="M31.8163 19.8901C33.5361 19.8901 34.3099 17.7359 32.9832 16.6416L21.4132 7.0988C20.7357 6.53998 19.757 6.53998 19.0795 7.0988L7.50951 16.6416C6.18276 17.7359 6.95654 19.8901 8.67634 19.8901H8.78492C9.79772 19.8901 10.6187 20.7112 10.6187 21.7239V31.81C10.6187 32.8228 11.4398 33.6438 12.4526 33.6438H28.0401C29.0529 33.6438 29.8739 32.8228 29.8739 31.81V21.7239C29.8739 20.7112 30.695 19.8901 31.7078 19.8901H31.8163Z" fill="#0094FF"/>
<path d="M19.0795 7.0988L14.9956 2.1473L19.0795 7.0988ZM17.3293 12.0503L28.8993 21.5931L37.0671 11.6901L25.4971 2.1473L17.3293 12.0503ZM11.5934 21.5931L23.1634 12.0503L14.9956 2.1473L3.42558 11.6901L11.5934 21.5931ZM8.78492 13.4717H8.67634V26.3085H8.78492V13.4717ZM17.0371 31.81V21.7239H4.20035V31.81H17.0371ZM28.0401 27.2254H12.4526V40.0622H28.0401V27.2254ZM23.4555 21.7239V31.81H36.2923V21.7239H23.4555ZM31.8163 13.4717H31.7078V26.3085H31.8163V13.4717ZM36.2923 21.7239C36.2923 24.2559 34.2398 26.3085 31.7078 26.3085V13.4717C27.1502 13.4717 23.4555 17.1664 23.4555 21.7239H36.2923ZM28.0401 40.0622C32.5977 40.0622 36.2923 36.3676 36.2923 31.81H23.4555C23.4555 29.278 25.5081 27.2254 28.0401 27.2254V40.0622ZM4.20035 31.81C4.20035 36.3676 7.895 40.0622 12.4526 40.0622V27.2254C14.9846 27.2254 17.0371 29.278 17.0371 31.81H4.20035ZM8.78492 26.3085C6.25294 26.3085 4.20035 24.2559 4.20035 21.7239H17.0371C17.0371 17.1664 13.3425 13.4717 8.78492 13.4717V26.3085ZM3.42558 11.6901C-2.54476 16.6143 0.937229 26.3085 8.67634 26.3085V13.4717C12.9759 13.4717 14.9103 18.8574 11.5934 21.5931L3.42558 11.6901ZM28.8993 21.5931C25.5824 18.8574 27.5169 13.4717 31.8163 13.4717V26.3085C39.5554 26.3085 43.0375 16.6144 37.0671 11.6901L28.8993 21.5931ZM25.4971 2.1473C22.4482 -0.36738 18.0445 -0.367381 14.9956 2.1473L23.1634 12.0503C21.4696 13.4473 19.0231 13.4473 17.3293 12.0503L25.4971 2.1473Z" fill="black" mask="url(#path-2-outside-1)"/>
</svg>
