<svg width="336" height="235" viewBox="0 0 336 235" fill="none" xmlns="http://www.w3.org/2000/svg">
<circle cx="128.5" cy="99.6416" r="62.5" fill="#A1D900"/>
<path fill-rule="evenodd" clip-rule="evenodd" d="M112.632 138.318C113.488 136.129 112.526 133.688 110.491 132.514L93.7021 122.826C90.8273 121.167 87.1611 122.725 85.9846 125.828C84.8933 128.707 83.5563 131.536 81.9663 134.288C70.2825 154.514 48.187 164.985 26.3577 162.839C22.0981 162.421 19.0541 167.745 22.7608 169.884C52.7763 187.204 91.1603 176.92 108.494 146.913C110.112 144.113 111.489 141.24 112.632 138.318Z" fill="#A1D900"/>
<path fill-rule="evenodd" clip-rule="evenodd" d="M134.017 161.086C134.873 158.898 133.911 156.457 131.876 155.282L115.087 145.595C112.213 143.936 108.546 145.494 107.37 148.597C106.279 151.476 104.942 154.305 103.352 157.057C91.6678 177.282 69.5722 187.753 47.7429 185.608C43.4833 185.189 40.4394 190.514 44.146 192.653C74.1615 209.973 112.546 199.688 129.879 169.682C131.497 166.882 132.874 164.008 134.017 161.086Z" fill="#A1D900"/>
<path fill-rule="evenodd" clip-rule="evenodd" d="M144.368 138.318C143.512 136.129 144.474 133.688 146.509 132.514L163.298 122.826C166.173 121.167 169.839 122.725 171.015 125.828C172.107 128.707 173.444 131.536 175.034 134.288C186.717 154.514 208.813 164.985 230.642 162.839C234.902 162.421 237.946 167.745 234.239 169.884C204.224 187.204 165.84 176.92 148.506 146.913C146.888 144.113 145.511 141.24 144.368 138.318Z" fill="#A1D900"/>
<path fill-rule="evenodd" clip-rule="evenodd" d="M122.983 161.086C122.127 158.898 123.089 156.457 125.124 155.282L141.913 145.595C144.787 143.936 148.454 145.494 149.63 148.597C150.721 151.476 152.058 154.305 153.648 157.057C165.332 177.282 187.428 187.753 209.257 185.608C213.517 185.189 216.561 190.514 212.854 192.653C182.838 209.973 144.454 199.688 127.121 169.682C125.503 166.882 124.126 164.008 122.983 161.086Z" fill="#A1D900"/>
<rect width="8.29787" height="12.4468" rx="4.14894" transform="matrix(-1 0 0 1 116.297 95.6943)" fill="black"/>
<rect width="8.29787" height="12.4468" rx="4.14894" transform="matrix(-1 0 0 1 167.744 95.6943)" fill="black"/>
<rect width="8.29787" height="12.4468" rx="4.14894" transform="matrix(-1 0 0 1 141.191 79.1416)" fill="black"/>
<path d="M126.565 119.757C125.065 128.257 128.5 136.142 136 139.142L142.565 125.257C136 123.142 126.565 119.757 126.565 119.757Z" stroke="black" stroke-width="7" stroke-linecap="round" stroke-linejoin="round"/>
<mask id="path-10-outside-1" maskUnits="userSpaceOnUse" x="13.0942" y="30.1416" width="230" height="178" fill="black">
<rect fill="white" x="13.0942" y="30.1416" width="230" height="178"/>
<path fill-rule="evenodd" clip-rule="evenodd" d="M153.565 156.912C154.07 156.691 154.572 156.463 155.07 156.229C174.32 178.875 207.58 185.267 234.239 169.884C237.946 167.745 234.902 162.42 230.642 162.839C210.316 164.837 189.759 155.896 177.592 138.327C185.989 127.686 191 114.249 191 99.6416C191 65.1238 163.018 37.1416 128.5 37.1416C93.982 37.1416 65.9998 65.1238 65.9998 99.6416C65.9998 114.249 71.0109 127.686 79.4078 138.327C67.2406 155.896 46.6836 164.837 26.3575 162.839C22.0978 162.42 19.0539 167.745 22.7605 169.884C49.4194 185.267 82.6799 178.875 101.93 156.229C102.428 156.463 102.929 156.691 103.434 156.912L103.351 157.057C91.6676 177.282 69.572 187.753 47.7427 185.608C43.4831 185.189 40.4391 190.514 44.1458 192.653C73.389 209.527 110.576 200.199 128.5 171.959C146.424 200.199 183.611 209.527 212.854 192.653C216.56 190.514 213.517 185.189 209.257 185.608C187.428 187.753 165.332 177.282 153.648 157.057L153.565 156.912Z"/>
</mask>
<path d="M155.07 156.229L160.403 151.695C158.356 149.288 154.95 148.55 152.09 149.895L155.07 156.229ZM153.565 156.912L150.755 150.501C148.933 151.3 147.537 152.836 146.915 154.726C146.294 156.616 146.506 158.681 147.499 160.405L153.565 156.912ZM234.239 169.884L230.741 163.821L230.741 163.821L234.239 169.884ZM230.642 162.839L229.958 155.873H229.957L230.642 162.839ZM177.592 138.327L172.097 133.991C170.191 136.406 170.085 139.783 171.837 142.312L177.592 138.327ZM79.4078 138.327L85.1625 142.312C86.9143 139.783 86.8089 136.406 84.903 133.991L79.4078 138.327ZM26.3575 162.839L27.0421 155.873H27.0421L26.3575 162.839ZM22.7605 169.884L26.2591 163.821L26.2591 163.821L22.7605 169.884ZM101.93 156.229L104.909 149.895C102.05 148.55 98.6434 149.288 96.5966 151.695L101.93 156.229ZM103.434 156.912L109.501 160.405C110.493 158.681 110.706 156.616 110.084 154.726C109.463 152.836 108.067 151.3 106.244 150.501L103.434 156.912ZM103.351 157.057L109.413 160.558L109.418 160.55L103.351 157.057ZM47.7427 185.608L48.4274 178.641L48.4274 178.641L47.7427 185.608ZM44.1458 192.653L40.6472 198.716L40.6472 198.716L44.1458 192.653ZM128.5 171.959L134.41 168.208C133.126 166.184 130.896 164.959 128.5 164.959C126.104 164.959 123.874 166.184 122.59 168.208L128.5 171.959ZM212.854 192.653L216.352 198.716L212.854 192.653ZM209.257 185.608L209.942 192.574H209.942L209.257 185.608ZM153.648 157.057L147.582 160.55L147.587 160.558L153.648 157.057ZM152.09 149.895C151.648 150.103 151.203 150.305 150.755 150.501L156.375 163.324C156.937 163.077 157.495 162.824 158.049 162.563L152.09 149.895ZM230.741 163.821C207.061 177.485 177.504 171.812 160.403 151.695L149.736 160.763C171.136 185.937 208.099 193.049 237.738 175.947L230.741 163.821ZM231.327 169.806C230.312 169.905 229.602 169.35 229.261 168.714C229.057 168.334 228.751 167.5 228.994 166.361C229.273 165.053 230.1 164.191 230.741 163.821L237.738 175.947C240.231 174.508 242.068 172.178 242.686 169.283C243.267 166.557 242.629 164.017 241.595 162.091C239.594 158.363 235.232 155.354 229.958 155.873L231.327 169.806ZM171.837 142.312C185.494 162.032 208.548 172.044 231.327 169.806L229.957 155.873C212.084 157.629 194.024 149.76 183.347 134.342L171.837 142.312ZM184 99.6416C184 112.62 179.554 124.54 172.097 133.991L183.087 142.663C192.424 130.831 198 115.878 198 99.6416H184ZM128.5 44.1416C159.152 44.1416 184 68.9898 184 99.6416H198C198 61.2578 166.884 30.1416 128.5 30.1416V44.1416ZM72.9998 99.6416C72.9998 68.9898 97.848 44.1416 128.5 44.1416V30.1416C90.116 30.1416 58.9998 61.2578 58.9998 99.6416H72.9998ZM84.903 133.991C77.4459 124.54 72.9998 112.62 72.9998 99.6416H58.9998C58.9998 115.878 64.5759 130.831 73.9126 142.663L84.903 133.991ZM25.6728 169.806C48.4515 172.044 71.506 162.032 85.1625 142.312L73.6531 134.342C62.9752 149.76 44.9157 157.629 27.0421 155.873L25.6728 169.806ZM26.2591 163.821C26.8996 164.191 27.7264 165.053 28.0057 166.361C28.2487 167.5 27.9428 168.334 27.739 168.714C27.3975 169.35 26.6873 169.905 25.6728 169.806L27.0421 155.873C21.7679 155.354 17.406 158.363 15.4043 162.091C14.3703 164.017 13.7323 166.557 14.314 169.283C14.9318 172.178 16.7681 174.508 19.262 175.947L26.2591 163.821ZM96.5966 151.695C79.4958 171.812 49.9383 177.485 26.2591 163.821L19.262 175.947C48.9005 193.049 85.8639 185.937 107.263 160.763L96.5966 151.695ZM106.244 150.501C105.796 150.305 105.351 150.103 104.909 149.895L98.9506 162.563C99.5046 162.824 100.063 163.077 100.625 163.324L106.244 150.501ZM109.418 160.55L109.501 160.405L97.3683 153.419L97.2851 153.564L109.418 160.55ZM47.058 192.574C71.5197 194.978 96.3046 183.249 109.413 160.558L97.29 153.555C87.0305 171.315 67.6242 180.528 48.4274 178.641L47.058 192.574ZM47.6443 186.59C48.2849 186.959 49.1117 187.821 49.3909 189.13C49.6339 190.268 49.3281 191.102 49.1243 191.482C48.7828 192.118 48.0726 192.674 47.0581 192.574L48.4274 178.641C43.1532 178.123 38.7913 181.131 36.7895 184.86C35.7556 186.786 35.1175 189.326 35.6992 192.051C36.3171 194.947 38.1533 197.277 40.6472 198.716L47.6443 186.59ZM122.59 168.208C106.667 193.294 73.6249 201.581 47.6443 186.59L40.6472 198.716C73.1531 217.472 114.484 207.104 134.41 175.71L122.59 168.208ZM209.355 186.59C183.375 201.581 150.332 193.294 134.41 168.208L122.59 175.71C142.516 207.104 183.846 217.472 216.352 198.716L209.355 186.59ZM209.942 192.574C208.927 192.674 208.217 192.118 207.875 191.482C207.672 191.102 207.366 190.268 207.609 189.13C207.888 187.821 208.715 186.959 209.355 186.59L216.352 198.716C218.846 197.277 220.683 194.947 221.3 192.051C221.882 189.326 221.244 186.786 220.21 184.86C218.208 181.131 213.846 178.123 208.572 178.641L209.942 192.574ZM147.587 160.558C160.695 183.249 185.48 194.978 209.942 192.574L208.572 178.641C189.375 180.528 169.969 171.315 159.71 153.555L147.587 160.558ZM147.499 160.405L147.582 160.55L159.715 153.564L159.632 153.42L147.499 160.405Z" fill="black" mask="url(#path-10-outside-1)"/>
<rect x="215.983" y="96.0389" width="116" height="77" rx="23.5" transform="rotate(-60 215.983 96.0389)" fill="#304967" stroke="black" stroke-width="7"/>
<ellipse cx="289.873" cy="45.5278" rx="22.4549" ry="22.5503" transform="rotate(-60 289.873 45.5278)" fill="#D3D3D3"/>
<ellipse cx="253.494" cy="88.8063" rx="7.01717" ry="7.04698" transform="rotate(-60 253.494 88.8063)" fill="#FF0000"/>
<ellipse cx="270.989" cy="98.9069" rx="7.01717" ry="7.04698" transform="rotate(-60 270.989 98.9069)" fill="#1CC64B"/>
<mask id="mask0" mask-type="alpha" maskUnits="userSpaceOnUse" x="267" y="23" width="46" height="46">
<ellipse cx="289.873" cy="45.5278" rx="22.4549" ry="22.5503" transform="rotate(-60 289.873 45.5278)" fill="#9F9F9F" fill-opacity="0.9"/>
</mask>
<g mask="url(#mask0)">
<line x1="266.575" y1="44.8413" x2="301.71" y2="65.1265" stroke="black" stroke-width="5" stroke-linecap="round"/>
<line x1="272.468" y1="34.6338" x2="307.603" y2="54.919" stroke="black" stroke-width="5" stroke-linecap="round"/>
<line x1="278.361" y1="24.4267" x2="313.496" y2="44.712" stroke="black" stroke-width="5" stroke-linecap="round"/>
<line x1="294.435" y1="71.4736" x2="314.624" y2="36.5055" stroke="black" stroke-width="5" stroke-linecap="round"/>
<line x1="270.023" y1="57.3799" x2="290.212" y2="22.4118" stroke="black" stroke-width="5" stroke-linecap="round"/>
<line x1="282.229" y1="64.4267" x2="302.418" y2="29.4586" stroke="black" stroke-width="5" stroke-linecap="round"/>
<line x1="288.332" y1="67.9502" x2="308.521" y2="32.9821" stroke="black" stroke-width="5" stroke-linecap="round"/>
<line x1="263.92" y1="53.8559" x2="284.109" y2="18.8878" stroke="black" stroke-width="5" stroke-linecap="round"/>
<line x1="276.126" y1="60.9033" x2="296.315" y2="25.9352" stroke="black" stroke-width="5" stroke-linecap="round"/>
</g>
</svg>
