<svg width="273" height="165" viewBox="0 0 273 165" fill="none" xmlns="http://www.w3.org/2000/svg">
<path d="M185.818 62.1447C186.11 60.5138 187.671 59.4231 189.29 59.7751C208.394 63.9284 225.374 74.8122 237.125 90.4361C238.121 91.7602 237.781 93.6341 236.422 94.5807L177.91 135.309C175.717 136.836 172.772 134.949 173.243 132.318L185.818 62.1447Z" fill="#FFE2C7"/>
<path fill-rule="evenodd" clip-rule="evenodd" d="M181.94 83.7864L184.941 67.0388C186.32 66.3731 187.866 66 189.5 66C195.299 66 200 70.701 200 76.5C200 82.299 195.299 87 189.5 87C186.531 87 183.85 85.7676 181.94 83.7864ZM175.114 121.877L178.617 102.329C181.829 104.125 184 107.559 184 111.5C184 116.75 180.147 121.1 175.114 121.877ZM220.801 105.454L205.005 116.449C202.002 114.601 200 111.285 200 107.5C200 101.701 204.701 97 210.5 97C215.599 97 219.849 100.634 220.801 105.454Z" fill="#DF3A1F"/>
<path fill-rule="evenodd" clip-rule="evenodd" d="M189.29 59.7751C187.671 59.4231 186.11 60.5138 185.818 62.1447L183.849 73.1302C201.124 77.242 216.57 86.8811 227.849 100.548L236.421 94.5807C237.781 93.6341 238.12 91.7602 237.125 90.4361C225.373 74.8122 208.393 63.9284 189.29 59.7751Z" fill="#C17A38"/>
<mask id="path-4-outside-1" maskUnits="userSpaceOnUse" x="165.193" y="51.709" width="80" height="92" fill="black">
<rect fill="white" x="165.193" y="51.709" width="80" height="92"/>
<path fill-rule="evenodd" clip-rule="evenodd" d="M185.818 62.1447C186.11 60.5138 187.671 59.4231 189.29 59.7751C203.618 62.8901 216.751 69.7909 227.379 79.638C230.922 82.9204 234.187 86.5301 237.125 90.4361C237.125 90.4361 237.125 90.4361 237.125 90.4362C237.249 90.6017 237.353 90.7757 237.436 90.9555C237.538 91.1746 237.609 91.4022 237.652 91.6331C237.854 92.7283 237.404 93.8967 236.422 94.5808L220.801 105.454L205.005 116.449L177.91 135.309C175.717 136.836 172.772 134.949 173.243 132.318L175.114 121.877L178.617 102.329L181.94 83.7864L183.849 73.1302C183.849 73.1302 183.849 73.1302 183.849 73.1302L185.818 62.1447Z"/>
</mask>
<path d="M189.29 59.7751L187.803 66.6153H187.803L189.29 59.7751ZM185.818 62.1447L192.708 63.3793V63.3793L185.818 62.1447ZM227.379 79.638L232.137 74.5031L227.379 79.638ZM237.125 90.4361L242.843 86.3993L242.782 86.313L242.719 86.2285L237.125 90.4361ZM237.125 90.4362L231.406 94.473L231.467 94.5593L231.53 94.6437L237.125 90.4362ZM237.436 90.9555L243.786 88.0106L243.786 88.0104L237.436 90.9555ZM237.652 91.6331L230.768 92.903L230.768 92.9034L237.652 91.6331ZM236.422 94.5808L232.422 88.8356L232.422 88.8356L236.422 94.5808ZM220.801 105.454L224.8 111.199L224.8 111.199L220.801 105.454ZM205.005 116.449L209.004 122.194H209.004L205.005 116.449ZM177.91 135.309L173.911 129.564L173.911 129.564L177.91 135.309ZM173.243 132.318L166.353 131.083L166.353 131.083L173.243 132.318ZM175.114 121.877L182.005 123.111L182.005 123.111L175.114 121.877ZM178.617 102.329L185.507 103.564L178.617 102.329ZM181.94 83.7864L175.05 82.5518L181.94 83.7864ZM183.849 73.1302L190.74 74.3648L191.918 67.7856L185.401 66.3043L183.849 73.1302ZM183.849 73.1302L176.959 71.8955L175.78 78.4748L182.298 79.9561L183.849 73.1302ZM190.777 52.9349C185.118 51.7046 179.889 55.5415 178.927 60.91L192.708 63.3793C192.33 65.4861 190.224 67.1417 187.803 66.6153L190.777 52.9349ZM232.137 74.5031C220.596 63.8109 206.335 56.3174 190.777 52.9349L187.803 66.6153C200.9 69.4627 212.906 75.771 222.622 84.773L232.137 74.5031ZM242.719 86.2285C239.529 81.9872 235.984 78.0674 232.137 74.5031L222.622 84.773C225.861 87.7734 228.845 91.073 231.53 94.6437L242.719 86.2285ZM242.843 86.3994C242.817 86.3622 242.794 86.3297 242.774 86.3029C242.754 86.2761 242.738 86.2534 242.725 86.2362C242.712 86.219 242.701 86.2052 242.695 86.1969C242.692 86.1927 242.689 86.1893 242.688 86.1872C242.687 86.1862 242.686 86.1853 242.686 86.1848C242.686 86.1845 242.685 86.1843 242.685 86.1842C242.685 86.1841 242.685 86.1841 242.685 86.184C242.685 86.184 242.685 86.184 242.685 86.184C242.685 86.184 242.685 86.184 242.685 86.184C242.685 86.184 242.685 86.184 242.685 86.184C242.685 86.1837 242.686 86.1853 242.688 86.1872C242.689 86.1893 242.692 86.1927 242.695 86.1969C242.701 86.2051 242.712 86.2189 242.725 86.2361C242.738 86.2534 242.754 86.2761 242.774 86.3029C242.794 86.3297 242.817 86.3621 242.843 86.3993L231.406 94.4729C231.432 94.51 231.456 94.5425 231.475 94.5693C231.495 94.5961 231.512 94.6188 231.525 94.6361C231.537 94.6533 231.548 94.6671 231.554 94.6753C231.557 94.6796 231.56 94.683 231.562 94.685C231.562 94.6861 231.563 94.687 231.563 94.6875C231.564 94.6877 231.564 94.6879 231.564 94.6881C231.564 94.6881 231.564 94.6882 231.564 94.6882C231.564 94.6882 231.564 94.6883 231.564 94.6883C231.564 94.6883 231.564 94.6883 231.564 94.6883C231.564 94.6883 231.564 94.6883 231.564 94.6883C231.564 94.6886 231.563 94.6869 231.562 94.6851C231.56 94.683 231.557 94.6796 231.554 94.6754C231.548 94.6671 231.537 94.6533 231.525 94.6362C231.512 94.6189 231.495 94.5962 231.475 94.5694C231.456 94.5426 231.432 94.5101 231.406 94.473L242.843 86.3994ZM243.786 88.0104C243.497 87.3863 243.14 86.7889 242.719 86.2286L231.53 94.6437C231.358 94.4145 231.208 94.1651 231.086 93.9006L243.786 88.0104ZM244.536 90.3631C244.388 89.5629 244.139 88.7718 243.786 88.0106L231.086 93.9004C230.936 93.5775 230.83 93.2416 230.768 92.903L244.536 90.3631ZM240.421 100.326C243.682 98.0555 245.231 94.1312 244.536 90.3628L230.768 92.9034C230.477 91.3254 231.126 89.7379 232.422 88.8356L240.421 100.326ZM224.8 111.199L240.421 100.326L232.422 88.8356L216.802 99.7089L224.8 111.199ZM209.004 122.194L224.8 111.199L216.802 99.7089L201.006 110.704L209.004 122.194ZM181.909 141.055L209.004 122.194L201.006 110.704L173.911 129.564L181.909 141.055ZM166.353 131.083C164.782 139.853 174.597 146.144 181.909 141.055L173.911 129.564C176.836 127.528 180.762 130.045 180.134 133.553L166.353 131.083ZM168.224 120.642L166.353 131.083L180.134 133.553L182.005 123.111L168.224 120.642ZM171.727 101.094L168.224 120.642L182.005 123.111L185.507 103.564L171.727 101.094ZM175.05 82.5518L171.727 101.094L185.507 103.564L188.83 85.0211L175.05 82.5518ZM176.959 71.8955L175.05 82.5518L188.83 85.0211L190.74 74.3648L176.959 71.8955ZM182.298 79.9561C182.268 79.9494 182.244 79.9437 182.23 79.9402C182.222 79.9384 182.216 79.937 182.212 79.9361C182.209 79.9353 182.206 79.9346 182.207 79.9347C182.207 79.9347 182.207 79.9347 182.207 79.9347C182.207 79.9347 182.207 79.9347 182.207 79.9347C182.207 79.9347 182.207 79.9347 182.207 79.9347C182.207 79.9348 182.207 79.9348 182.207 79.9348C182.207 79.9348 182.207 79.9348 182.207 79.9348C182.207 79.9349 182.208 79.935 182.208 79.9351C182.209 79.9353 182.211 79.9357 182.212 79.9361C182.216 79.937 182.222 79.9385 182.23 79.9402C182.244 79.9437 182.268 79.9494 182.298 79.9561L185.401 66.3043C185.43 66.311 185.454 66.3166 185.469 66.3201C185.476 66.3219 185.482 66.3233 185.486 66.3242C185.489 66.325 185.492 66.3257 185.492 66.3256C185.492 66.3256 185.492 66.3256 185.492 66.3256C185.492 66.3256 185.492 66.3256 185.492 66.3256C185.492 66.3256 185.492 66.3256 185.492 66.3256C185.492 66.3256 185.492 66.3256 185.492 66.3256C185.492 66.3256 185.491 66.3255 185.491 66.3255C185.491 66.3254 185.491 66.3254 185.49 66.3252C185.489 66.325 185.488 66.3247 185.486 66.3242C185.482 66.3233 185.476 66.3219 185.469 66.3201C185.454 66.3166 185.43 66.311 185.4 66.3042L182.298 79.9561ZM178.927 60.91L176.959 71.8955L190.739 74.3648L192.708 63.3793L178.927 60.91Z" fill="black" mask="url(#path-4-outside-1)"/>
<path d="M239.704 153.044C240.556 152.389 241.39 151.717 242.204 151.028L234.285 141.589C244.285 133.129 250.554 121.758 252.79 109.692L264.881 111.938C265.274 109.822 265.564 107.689 265.753 105.546L253.501 104.473C254.579 92.2206 251.56 79.5898 244.14 68.8168L254.259 61.7867C253.653 60.9068 253.023 60.0377 252.37 59.1804C251.717 58.323 251.047 57.4853 250.36 56.6675L240.954 64.6334C232.544 54.6208 221.197 48.3864 209.14 46.2225L211.316 34.0673C209.208 33.6889 207.081 33.4121 204.946 33.2381L203.938 45.5454C191.757 44.5527 179.187 47.6499 168.438 55.127L161.44 44.9799C160.566 45.5885 159.701 46.2202 158.849 46.8752C157.996 47.5302 157.162 48.2024 156.348 48.8909L164.267 58.3302C154.267 66.7897 147.998 78.1614 145.762 90.2271L133.671 87.9811C133.279 90.0966 132.988 92.2298 132.799 94.3727L145.051 95.4461C143.973 107.698 146.992 120.329 154.412 131.102L144.293 138.132C144.899 139.012 145.529 139.881 146.182 140.739C146.835 141.596 147.505 142.434 148.192 143.252L157.598 135.286C166.008 145.298 177.356 151.533 189.413 153.696L187.236 165.852C189.344 166.23 191.471 166.507 193.606 166.681L194.615 154.374C206.796 155.366 219.366 152.269 230.114 144.792L237.112 154.939C237.987 154.331 238.851 153.699 239.704 153.044Z" stroke="#FFBA09" stroke-width="24.6471" stroke-linejoin="round" stroke-dasharray="5.75 41.08"/>
<path d="M27.8232 93.1831L27.862 93.2055L27.9015 93.2269C29.7513 94.2326 31.7656 94.359 33.7045 93.8395C35.6267 93.3244 37.319 92.2136 38.3896 90.3847C39.5054 88.5372 39.6708 86.4817 39.1415 84.5065L39.0914 84.3192C41.8059 82.5848 43.9762 80.3914 45.4725 77.6954C47.4859 74.128 47.9575 70.2545 46.893 66.2816C46.0184 63.0175 44.4049 60.2316 41.7967 58.3834C39.6069 56.7966 37.1673 55.8177 34.5183 55.5091C32.275 55.2342 29.576 55.1691 26.4683 55.2808C23.8781 55.3686 22.1642 55.2763 21.1632 55.0986C21.1642 55.0973 21.1653 55.0961 21.1665 55.0948L21.194 55.063L21.2207 55.0305C21.5009 54.6901 22.078 54.243 23.3141 53.9118C24.2098 53.6718 25.0262 53.5765 25.7749 53.5962L25.8503 53.5982L25.9256 53.5969C26.7941 53.5823 27.5995 53.6706 28.3515 53.8504L28.4073 53.8637L28.4635 53.8752C29.53 54.0935 30.106 54.2214 30.3035 54.2734L30.3655 54.2897L30.4281 54.3038C31.3774 54.5168 32.2555 54.6834 32.9616 54.745L32.9616 54.745C33.8411 54.8216 34.7118 54.7407 35.5557 54.5146C37.6807 53.9452 39.1088 52.4504 39.9162 50.6613L36.7261 49.2216L39.9162 50.6613C40.732 48.8537 40.8454 46.932 40.3406 45.0481C40.0249 43.8697 39.4757 42.6837 38.5467 41.7042C37.6167 40.6456 36.426 39.9869 35.2285 39.5818L35.1892 39.5684L35.1495 39.5561C32.2327 38.6459 29.3359 38.1656 26.4718 38.1424C25.9401 36.1755 24.7706 34.4859 22.8868 33.4473C21.0451 32.3987 19.0241 32.2828 17.1019 32.7979C15.1296 33.3264 13.4886 34.5038 12.432 36.3106C11.3336 38.1292 11.1363 40.1582 11.6649 42.1309L11.7422 42.4191C9.06281 44.1963 6.92476 46.4462 5.43157 49.1956C3.47087 52.8059 2.98986 56.6788 4.04802 60.6279C4.91836 63.876 6.53832 66.6415 9.14991 68.4834L9.1669 68.4954L9.18402 68.5072C11.3831 70.0193 13.8047 70.9719 16.4158 71.3212L16.4468 71.3253L16.4779 71.3289C18.7155 71.5876 21.4298 71.6848 24.5828 71.6418C26.4836 71.6193 27.8459 71.6394 28.7198 71.6919L28.7408 71.6931L28.7619 71.6941C29.0903 71.7099 29.356 71.7486 29.5698 71.7979C29.2249 72.0577 28.4942 72.4571 27.0898 72.8334C25.7047 73.2045 24.4002 73.3817 23.1681 73.3872C21.9658 73.3926 20.5208 73.2154 18.8087 72.8036C17.8942 72.5591 16.9753 72.367 16.1404 72.3169C15.2842 72.2655 14.4258 72.3438 13.5831 72.5696C11.4581 73.139 10.03 74.6338 9.22261 76.4229L9.20257 76.4673L9.18377 76.5122C8.435 78.3027 8.36395 80.1854 8.8557 82.0206C9.17168 83.1999 9.68864 84.4398 10.5904 85.4567L10.6548 85.5294L10.7232 85.5984C11.6857 86.5695 12.87 87.1602 14.0551 87.5155C17.2867 88.5501 20.7488 88.9413 24.4063 88.7459C24.9549 90.5693 26.0578 92.1638 27.8232 93.1831ZM20.8136 55.0156C20.8136 55.0156 20.8147 55.016 20.8166 55.017C20.8145 55.0161 20.8136 55.0156 20.8136 55.0156Z" fill="#1CC64B" stroke="black" stroke-width="7"/>
<path d="M80.7209 62.3117C82.4077 61.8597 83.746 61.8709 84.736 62.3452C85.754 62.771 86.4531 63.6931 86.8332 65.1115C87.2235 66.5683 87.0894 67.7547 86.4309 68.6707C85.8108 69.5765 84.6573 70.2554 82.9705 70.7074L61.9813 76.3314C60.6012 76.7012 59.4008 76.5914 58.38 76.0021C57.3489 75.3744 56.6639 74.428 56.3249 73.1629C55.8832 71.5144 56.1343 69.8447 57.0783 68.1536L65.864 52.1786C67.6854 48.8554 68.2982 46.0821 67.7024 43.8586C67.3532 42.5551 66.7027 41.6611 65.7511 41.1765C64.8378 40.6816 63.6911 40.6191 62.311 40.9889C61.1993 41.2868 60.2104 41.7366 59.3444 42.3385C58.5065 42.8917 57.5564 43.6393 56.494 44.5814L55.498 45.4646C55.3652 45.5824 55.1047 45.8371 54.7166 46.2287C54.3565 46.5717 54.0194 46.847 53.7052 47.0544C53.391 47.2619 53.0422 47.417 52.6588 47.5197C51.7004 47.7765 50.7823 47.5705 49.9046 46.9017C49.0167 46.1946 48.4134 45.2469 48.095 44.0584C47.869 43.215 47.7991 42.4942 47.8853 41.8958C48.0099 41.2872 48.3555 40.6604 48.9223 40.0155C50.3954 38.306 52.1513 36.8083 54.1899 35.5224C56.2668 34.2263 58.3979 33.2855 60.5831 32.7C63.42 31.9398 66.0402 31.7513 68.4439 32.1345C70.8372 32.4793 72.8452 33.3794 74.4678 34.8347C76.1185 36.2414 77.2469 38.0757 77.8529 40.3375C78.4795 42.676 78.5756 44.9513 78.141 47.1632C77.7346 49.3266 76.7189 51.8997 75.0939 54.8826L69.1625 65.4088L80.7209 62.3117ZM93.4485 56.3128C95.1353 55.8608 96.6606 56.1095 98.0243 57.0589C99.4265 57.9981 100.431 59.5985 101.037 61.8604C102.228 66.3074 101.675 70.6057 99.3762 74.7552C98.9553 75.4843 98.3614 75.9516 97.5947 76.157C96.828 76.3625 96.0852 76.2739 95.3663 75.8913C94.6577 75.547 94.2161 75.049 94.0415 74.3973C93.8771 73.7839 93.9774 73.1612 94.3422 72.5293C95.3039 70.7514 95.8131 68.9714 95.8698 67.1894C94.3822 67.4647 93.0551 67.2656 91.8885 66.5921C90.7116 65.8802 89.928 64.7959 89.5376 63.3391C89.1165 61.7673 89.2796 60.306 90.0271 58.9552C90.7745 57.6045 91.915 56.7236 93.4485 56.3128ZM120.892 61.1009C115.87 62.4466 111.559 61.6912 107.958 58.8347C104.358 55.9782 101.654 51.1763 99.8458 44.4291C98.0482 37.7203 97.9943 32.2288 99.6842 27.9547C101.374 23.6807 104.73 20.8708 109.752 19.5252C114.736 18.1898 119.028 18.9503 122.628 21.8068C126.267 24.6531 128.986 29.4306 130.783 36.1395C132.591 42.8867 132.65 48.3973 130.96 52.6714C129.27 56.9454 125.914 59.7553 120.892 61.1009ZM118.751 53.1078C120.591 52.6147 121.646 51.2636 121.917 49.0544C122.188 46.8452 121.712 43.4596 120.49 38.8975C119.278 34.3739 118.002 31.2231 116.663 29.4454C115.324 27.6676 113.734 27.0252 111.894 27.5183C110.054 28.0114 108.998 29.3625 108.727 31.5717C108.446 33.7426 108.917 37.109 110.139 41.671C111.361 46.2331 112.642 49.403 113.982 51.1807C115.321 52.9585 116.91 53.6009 118.751 53.1078ZM154.51 52.0931C149.488 53.4388 145.177 52.6833 141.576 49.8268C137.976 46.9703 135.271 42.1685 133.463 35.4213C131.666 28.7124 131.612 23.221 133.302 18.9469C134.992 14.6728 138.348 11.863 143.37 10.5173C148.354 9.18195 152.646 9.9425 156.246 12.799C159.885 15.6452 162.603 20.4228 164.401 27.1316C166.209 33.8788 166.268 39.3895 164.578 43.6635C162.888 47.9376 159.532 50.7474 154.51 52.0931ZM152.368 44.1C154.208 43.6069 155.264 42.2558 155.535 40.0466C155.806 37.8374 155.33 34.4517 154.108 29.8897C152.895 25.366 151.62 22.2153 150.281 20.4375C148.941 18.6597 147.352 18.0174 145.512 18.5105C143.671 19.0035 142.616 20.3547 142.345 22.5639C142.064 24.7347 142.534 28.1012 143.757 32.6632C144.979 37.2252 146.26 40.3951 147.599 42.1729C148.938 43.9507 150.528 44.593 152.368 44.1ZM188.128 43.0853C183.106 44.4309 178.794 43.6755 175.194 40.819C171.593 37.9625 168.889 33.1607 167.081 26.4135C165.284 19.7046 165.23 14.2131 166.92 9.93908C168.609 5.66502 171.965 2.85516 176.987 1.5095C181.971 0.174116 186.263 0.934672 189.864 3.79117C193.503 6.6374 196.221 11.4149 198.019 18.1238C199.826 24.871 199.886 30.3816 198.196 34.6557C196.506 38.9298 193.15 41.7396 188.128 43.0853ZM185.986 35.0921C187.826 34.5991 188.882 33.2479 189.153 31.0387C189.423 28.8295 188.948 25.4439 187.725 20.8819C186.513 16.3582 185.237 13.2075 183.898 11.4297C182.559 9.65192 180.969 9.00956 179.129 9.50263C177.289 9.99569 176.234 11.3468 175.963 13.556C175.681 15.7269 176.152 19.0934 177.374 23.6554C178.597 28.2174 179.878 31.3873 181.217 33.1651C182.556 34.9428 184.146 35.5852 185.986 35.0921Z" fill="black"/>
</svg>
