<svg width="191" height="159" viewBox="0 0 191 159" fill="none" xmlns="http://www.w3.org/2000/svg">
<rect x="36.0479" y="59.0122" width="119.863" height="92.3253" rx="10" fill="#C08CF4"/>
<path d="M89.1052 9.28174C92.4103 7.1106 96.6844 7.09097 100.009 9.23168L162.41 49.4084C170.798 54.8093 166.973 67.8164 156.996 67.8164H33.4361C23.5069 67.8164 19.6469 54.91 27.9456 49.4584L89.1052 9.28174Z" fill="#7F00FF"/>
<rect x="53.6437" y="80.2588" width="31.9315" height="33.6506" rx="13.5" stroke="white" stroke-width="7"/>
<path d="M103.171 121.014C103.171 110.952 111.328 102.795 121.39 102.795C131.452 102.795 139.609 110.952 139.609 121.014V151.337H103.171V121.014Z" fill="#7F00FF"/>
<line x1="55.226" y1="97.3916" x2="83.0341" y2="97.3916" stroke="white" stroke-width="7"/>
<line x1="69.4656" y1="110.886" x2="69.4656" y2="83.2833" stroke="white" stroke-width="7"/>
<ellipse cx="129.062" cy="129.446" rx="5.75343" ry="5.71084" fill="white"/>
<mask id="path-8-outside-1" maskUnits="userSpaceOnUse" x="15.4178" y="0.639648" width="159" height="158" fill="black">
<rect fill="white" x="15.4178" y="0.639648" width="159" height="158"/>
<path fill-rule="evenodd" clip-rule="evenodd" d="M89.1053 9.28172C92.4103 7.11058 96.6844 7.09096 100.009 9.23167L162.41 49.4084C170.798 54.8093 166.973 67.8163 156.996 67.8163H155.84C155.887 68.2085 155.911 68.6075 155.911 69.0122V141.337C155.911 146.86 151.434 151.337 145.911 151.337L139.609 151.337H103.171L46.0479 151.337C40.525 151.337 36.0479 146.86 36.0479 141.337V69.0122C36.0479 68.6075 36.0719 68.2085 36.1186 67.8163H33.4361C23.507 67.8163 19.6469 54.91 27.9457 49.4584L89.1053 9.28172Z"/>
</mask>
<path d="M100.009 9.23167L103.799 3.34609V3.34609L100.009 9.23167ZM89.1053 9.28172L92.9486 15.1323L92.9486 15.1323L89.1053 9.28172ZM162.41 49.4084L158.62 55.294L162.41 49.4084ZM155.84 67.8163V60.8163C153.839 60.8163 151.934 61.6725 150.606 63.1686C149.277 64.6648 148.652 66.6579 148.889 68.6446L155.84 67.8163ZM145.911 151.337L145.911 158.337H145.911V151.337ZM139.609 151.337L139.609 144.337H139.609V151.337ZM103.171 151.337V144.337V151.337ZM46.0479 151.337V158.337H46.0479L46.0479 151.337ZM36.1186 67.8163L43.0695 68.6447C43.3062 66.6579 42.6815 64.6648 41.3531 63.1687C40.0246 61.6725 38.1195 60.8163 36.1186 60.8163V67.8163ZM27.9457 49.4584L24.1024 43.6079H24.1024L27.9457 49.4584ZM103.799 3.34609C98.1465 -0.293118 90.8805 -0.259764 85.262 3.43118L92.9486 15.1323C93.9401 14.4809 95.2223 14.475 96.2198 15.1173L103.799 3.34609ZM166.199 43.5228L103.799 3.34609L96.2198 15.1173L158.62 55.294L166.199 43.5228ZM156.996 74.8163C173.957 74.8163 180.46 52.7045 166.199 43.5228L158.62 55.294C161.137 56.9142 159.989 60.8163 156.996 60.8163V74.8163ZM155.84 74.8163H156.996V60.8163H155.84V74.8163ZM162.911 69.0122C162.911 68.33 162.87 67.6543 162.791 66.9881L148.889 68.6446C148.903 68.7626 148.911 68.8851 148.911 69.0122H162.911ZM162.911 141.337V69.0122H148.911V141.337H162.911ZM145.911 158.337C155.3 158.337 162.911 150.726 162.911 141.337H148.911C148.911 142.994 147.568 144.337 145.911 144.337V158.337ZM139.609 158.337L145.911 158.337L145.911 144.337L139.609 144.337L139.609 158.337ZM103.171 158.337H139.609V144.337H103.171V158.337ZM46.0479 158.337L103.171 158.337V144.337L46.0479 144.337L46.0479 158.337ZM29.0479 141.337C29.0479 150.726 36.659 158.337 46.0479 158.337V144.337C44.391 144.337 43.0479 142.994 43.0479 141.337H29.0479ZM29.0479 69.0122V141.337H43.0479V69.0122H29.0479ZM29.1678 66.988C29.0884 67.6544 29.0479 68.3301 29.0479 69.0122H43.0479C43.0479 68.885 43.0554 68.7625 43.0695 68.6447L29.1678 66.988ZM33.4361 74.8163H36.1186V60.8163H33.4361V74.8163ZM24.1024 43.6079C9.99453 52.8755 16.5565 74.8163 33.4361 74.8163V60.8163C30.4574 60.8163 29.2994 56.9444 31.789 55.309L24.1024 43.6079ZM85.262 3.43117L24.1024 43.6079L31.789 55.309L92.9486 15.1323L85.262 3.43117Z" fill="black" mask="url(#path-8-outside-1)"/>
</svg>
