<svg width="275" height="175" viewBox="0 0 275 175" fill="none" xmlns="http://www.w3.org/2000/svg">
<g clip-path="url(#clip0)">
<path d="M0 20C0 8.9543 8.9543 0 20 0H255C266.046 0 275 8.95431 275 20V155C275 166.046 266.046 175 255 175H20C8.9543 175 0 166.046 0 155V20Z" fill="white"/>
<rect width="8.98982" height="14.9669" rx="4.49491" transform="matrix(0.920205 0.391436 -0.390863 0.920449 107.893 61)" fill="#FFE2C7"/>
<path fill-rule="evenodd" clip-rule="evenodd" d="M71.2652 92.3882C70.0076 91.9049 69.1808 90.7237 69.0177 89.3871C68.5759 85.7662 73.4287 82.9383 76.9706 83.8172C79.4683 84.4369 82.1251 84.6216 84.84 84.2938C89.5168 83.7291 93.6605 81.7287 96.8652 78.7997C99.2734 76.5987 103.371 76.3156 105.334 78.9261C106.417 80.3676 106.567 82.3419 105.462 83.7639C101.281 89.1402 94.2964 93.1076 86.0369 94.1049C80.7329 94.7453 75.6447 94.0714 71.2652 92.3882Z" fill="#FFE2C7"/>
<rect x="73" y="55" width="33.2453" height="39.0271" rx="11.9874" fill="#A5A5A5"/>
<path d="M45.5298 127.968C46.2441 124.656 49.5597 122.594 52.8463 123.418L58.2263 124.767C61.537 125.596 63.4873 129.019 62.5134 132.291L54.5785 158.942C53.6781 161.966 50.5872 163.774 47.5098 163.077L44.1894 162.325C40.9846 161.599 38.9619 158.428 39.6545 155.216L45.5298 127.968Z" fill="#FFE2C7"/>
<path d="M59.2804 128.284C59.3384 124.516 62.8549 121.578 66.5652 122.198L71.9391 123.096C74.9207 123.594 76.9476 126.25 76.6548 129.276L74.0966 155.715C73.7778 159.01 70.839 161.552 67.5326 161.392L64.2983 161.236C61.1794 161.086 58.8138 158.575 58.8617 155.465L59.2804 128.284Z" fill="#FFE2C7"/>
<path d="M58.6181 70.9275C62.8467 67.7462 68.8947 68.8868 71.674 73.3899L77.1577 82.2748C79.3954 85.9004 78.781 90.5988 75.6863 93.5271L60.2287 108.154C56.4449 111.734 50.4198 111.36 47.1086 107.338L38.9701 97.4534C35.7158 93.5008 36.4144 87.6325 40.5057 84.5545L58.6181 70.9275Z" fill="#04C439"/>
<path d="M27.8271 106.152C26.2597 102.838 26.8611 98.9047 29.3471 96.2107L35.5253 89.5153C39.0362 85.7106 45.0269 85.6497 48.6145 89.3821L76.8698 118.779C82.3611 124.492 78.3123 133.999 70.3881 133.999L46.6925 134C43.2163 134 40.0515 131.996 38.5651 128.853L27.8271 106.152Z" fill="#04C439"/>
<rect x="87.5781" y="46.4106" width="30.2306" height="26.9717" rx="11.9874" transform="rotate(53.0439 87.5781 46.4106)" fill="#A5A5A5"/>
<rect x="97.4727" y="58.0688" width="14.9656" height="21.877" rx="7.48282" transform="rotate(53.0439 97.4727 58.0688)" fill="#A5A5A5"/>
<path d="M97.5216 76.0891C88.1003 83.1773 83.0511 83.8611 78.5171 77.8346C73.9831 71.8082 71.1453 59.1722 77.8426 54.1335C84.5399 49.0948 98.927 50.3517 103.461 56.3781C107.995 62.4045 106.138 69.6068 97.5216 76.0891Z" fill="#FFE2C7"/>
<path d="M75.2124 66.3652C77.8576 64.375 81.6153 64.9061 83.6054 67.5513L83.9563 68.0177C85.9464 70.6629 85.4154 74.4206 82.7702 76.4107L78.6991 79.4736C76.0539 81.4638 72.2962 80.9327 70.3061 78.2875L69.9552 77.8211C67.965 75.1759 68.4961 71.4182 71.1413 69.4281L75.2124 66.3652Z" fill="#FFE2C7"/>
<path fill-rule="evenodd" clip-rule="evenodd" d="M78.1325 54.5831C83.1575 48.9744 91.4667 48.1167 96.8546 52.7111C98.729 54.3095 100.007 56.3606 100.676 58.6018C95.6511 64.2104 87.3419 65.0681 81.954 60.4737C80.0795 58.8753 78.8017 56.8242 78.1325 54.5831Z" fill="#A5A5A5"/>
<path fill-rule="evenodd" clip-rule="evenodd" d="M105.881 64.4789C106.374 59.222 104.402 53.9793 100.13 50.6397C94.385 46.1485 86.2957 46.5176 80.4231 51.0346C80.6172 55.4509 82.9543 60.0526 87.1151 63.3054C93.1256 68.0043 100.956 68.3358 105.881 64.4789Z" fill="#A5A5A5"/>
<path fill-rule="evenodd" clip-rule="evenodd" d="M72.7497 68.2618C75.7694 61.5802 83.5054 57.6939 91.4571 59.3436C97.8348 60.6668 102.66 65.2002 104.37 70.7239C104.809 69.7521 105.148 68.7212 105.374 67.6396C107.152 59.1213 101.21 50.6839 92.102 48.7943C82.9938 46.9047 74.1685 52.2783 72.3902 60.7967C71.8571 63.3504 72.0178 65.8969 72.7497 68.2618Z" fill="#A5A5A5"/>
<path fill-rule="evenodd" clip-rule="evenodd" d="M81.5627 65.9354C79.8904 66.6104 78.1434 65.1411 78.3747 63.3522C78.6181 61.4701 79.7762 59.8088 81.5722 59.0838C83.2444 58.4088 84.9915 59.8781 84.7601 61.6671C84.5167 63.5491 83.3586 65.2104 81.5627 65.9354Z" fill="#FFE2C7"/>
<path d="M94.4061 80.9972L97.1341 75.0251C97.7236 73.7346 96.201 72.5105 95.0673 73.3635L89.5052 77.5482C88.7399 78.1239 88.7878 79.2876 89.5979 79.7984L92.432 81.5859C93.1325 82.0278 94.0619 81.7506 94.4061 80.9972Z" fill="#FFE2C7"/>
<rect width="3.42003" height="5.13005" rx="1.71002" transform="matrix(-0.373896 -0.92747 -0.92747 0.373896 94.4219 71.9438)" fill="black"/>
<rect width="2.23549" height="5.91458" rx="1.11775" transform="matrix(0.799096 -0.601203 -0.612041 -0.790826 98.5098 70.1636)" fill="black"/>
<path d="M84.2126 81.3524C87.0017 80.5003 86.0013 77.0004 83.3076 77.6532C80.614 78.306 81.4236 82.2045 84.2126 81.3524Z" stroke="black" stroke-width="2.25722" stroke-linecap="round" stroke-linejoin="round"/>
<rect width="10.2601" height="15.7322" rx="5.13005" transform="matrix(0.609263 0.792968 -0.793701 0.608308 106.971 75.4888)" fill="#FFE2C7"/>
<path fill-rule="evenodd" clip-rule="evenodd" d="M55.0523 81.1557C54.4994 79.9438 54.7338 78.5379 55.5455 77.4812C57.9751 74.3182 65.3105 76.4986 67.519 79.8184C68.6706 81.5496 70.1171 83.117 71.8501 84.4451C76.8666 88.2893 83.2009 89.298 89.0267 87.7523C91.2627 87.1591 93.7542 87.6959 95.1582 89.5327C96.5451 91.3471 96.5243 93.9463 94.6957 95.3162C86.9093 101.15 74.3461 100.34 64.4249 92.7376C60.173 89.4793 57.0022 85.4299 55.0523 81.1557Z" fill="#FFE2C7"/>
<path d="M58.4865 156.165C60.8031 156.438 62.5488 158.402 62.5488 160.734C62.5488 163.275 60.4891 165.335 57.9483 165.335L42.6081 165.335C39.5701 165.335 37.1072 162.872 37.1072 159.834C37.1072 156.541 39.9811 153.985 43.2516 154.371L58.4865 156.165Z" fill="#7F00FF"/>
<path d="M78.3812 155.52C80.6977 155.791 82.4434 157.754 82.4434 160.086C82.4434 162.627 80.3838 164.688 77.8431 164.689L62.5013 164.696C59.4633 164.697 57.0006 162.236 57.0006 159.198C57.0006 155.905 59.8744 153.348 63.1447 153.732L78.3812 155.52Z" fill="#7F00FF"/>
<mask id="path-25-outside-1" maskUnits="userSpaceOnUse" x="18.9648" y="40.4531" width="103" height="132" fill="black">
<rect fill="white" x="18.9648" y="40.4531" width="103" height="132"/>
<path fill-rule="evenodd" clip-rule="evenodd" d="M73.5479 57.3846C75.4903 53.3521 79.1715 50.3836 83.5599 49.1073C88.9561 46.5314 95.3531 46.9058 100.13 50.6399C104.313 53.9101 106.291 59.0052 105.908 64.1515C105.991 64.493 106.059 64.8401 106.112 65.1922L106.136 65.1374C107.106 62.8524 109.744 61.7878 112.029 62.7596C114.313 63.7313 115.378 66.3714 114.408 68.6564L112.072 74.1579C111.111 76.4206 108.514 77.4866 106.246 76.5637V77.5552C107.709 77.6192 109.135 78.3052 110.097 79.5569C111.823 81.8036 111.4 85.022 109.151 86.7455L104.808 90.0742C103.99 90.7009 103.043 91.0437 102.087 91.1181C100.356 92.6121 98.1934 93.6194 95.8114 93.9275C95.5739 94.457 95.2046 94.9346 94.6947 95.3165C88.7862 99.7431 80.127 100.345 71.9589 97.0553L63.5966 104.968L76.871 118.779C80.679 122.74 79.8993 128.527 76.421 131.702L74.1643 155.026L78.381 155.52C80.6975 155.792 82.4432 157.755 82.4432 160.087C82.4432 162.628 80.3836 164.688 77.8429 164.689L62.5011 164.697C61.8794 164.697 61.2818 164.594 60.7244 164.404C59.9529 164.989 58.9914 165.335 57.949 165.335H42.6087C39.5707 165.335 37.1079 162.872 37.1079 159.834C37.1079 157.865 38.1358 156.159 39.6618 155.189L44.3006 133.676C41.8161 132.99 39.7017 131.254 38.5664 128.854L27.8284 106.152C26.2609 102.838 26.8623 98.9049 29.3483 96.2109L35.5266 89.5156C36.2266 88.7569 37.0253 88.1471 37.8838 87.6866C38.485 86.493 39.3635 85.4147 40.507 84.5544L58.6194 70.9274C61.9943 68.3883 66.5282 68.6023 69.6342 71.0815C70.0167 70.458 70.5205 69.8945 71.1405 69.428L71.5505 69.1195C70.0984 65.1566 70.846 60.6663 73.5479 57.3846ZM58.8688 155.067C58.5223 155.372 58.2139 155.72 57.9524 156.103L55.5108 155.815L59.0398 143.962L58.8688 155.067Z"/>
</mask>
<path d="M83.5599 49.1073L85.5148 55.8288L86.0616 55.6697L86.5754 55.4244L83.5599 49.1073ZM73.5479 57.3846L78.9519 61.8339L79.4882 61.1825L79.8544 60.4224L73.5479 57.3846ZM100.13 50.6399L95.8183 56.1546V56.1546L100.13 50.6399ZM105.908 64.1515L98.9276 63.6325L98.8459 64.7311L99.1056 65.8017L105.908 64.1515ZM106.112 65.1922L99.1899 66.2317L102.869 90.7347L112.555 67.9286L106.112 65.1922ZM106.136 65.1374L112.579 67.8738L112.579 67.8735L106.136 65.1374ZM112.029 62.7596L109.289 69.201L109.289 69.201L112.029 62.7596ZM114.408 68.6564L120.851 71.3924V71.3924L114.408 68.6564ZM112.072 74.1579L105.629 71.4219V71.4219L112.072 74.1579ZM106.246 76.5637L108.883 70.0797L99.2458 66.1593V76.5637H106.246ZM106.246 77.5552H99.2458V84.2554L105.94 84.5485L106.246 77.5552ZM110.097 79.5569L115.648 75.2921L115.648 75.292L110.097 79.5569ZM109.151 86.7455L113.409 92.3014L113.409 92.3014L109.151 86.7455ZM104.808 90.0742L109.066 95.6301V95.6301L104.808 90.0742ZM102.087 91.1181L101.544 84.1391L99.253 84.3173L97.5132 85.819L102.087 91.1181ZM95.8114 93.9275L94.9133 86.9854L91.0275 87.488L89.4242 91.0632L95.8114 93.9275ZM94.6947 95.3165L98.8918 100.919L98.8918 100.919L94.6947 95.3165ZM71.9589 97.0553L74.5738 90.5621L70.4089 88.8849L67.1477 91.9708L71.9589 97.0553ZM63.5966 104.968L58.7854 99.8837L53.6609 104.733L58.5498 109.819L63.5966 104.968ZM76.871 118.779L81.9178 113.928H81.9178L76.871 118.779ZM76.421 131.702L71.7015 126.533L69.7128 128.348L69.4535 131.028L76.421 131.702ZM74.1643 155.026L67.1968 154.351L66.5362 161.179L73.3486 161.978L74.1643 155.026ZM78.381 155.52L79.1967 148.568H79.1967L78.381 155.52ZM77.8429 164.689L77.8462 171.689H77.8462L77.8429 164.689ZM62.5011 164.697L62.4979 157.697H62.4978L62.5011 164.697ZM60.7244 164.404L62.9815 157.778L59.4615 156.579L56.4974 158.824L60.7244 164.404ZM39.6618 155.189L43.4183 161.096L45.8877 159.525L46.5045 156.664L39.6618 155.189ZM44.3006 133.676L51.1433 135.151L52.5369 128.688L46.1641 126.928L44.3006 133.676ZM38.5664 128.854L32.2386 131.847H32.2386L38.5664 128.854ZM27.8284 106.152L21.5005 109.145L21.5006 109.145L27.8284 106.152ZM29.3483 96.2109L24.2039 91.4637H24.2039L29.3483 96.2109ZM35.5266 89.5156L40.671 94.2627L40.671 94.2627L35.5266 89.5156ZM37.8838 87.6866L41.1929 93.855L43.1409 92.81L44.1355 90.8356L37.8838 87.6866ZM40.507 84.5544L44.7154 90.148L44.7154 90.148L40.507 84.5544ZM58.6194 70.9274L54.411 65.3338H54.411L58.6194 70.9274ZM69.6342 71.0815L65.2674 76.5524L71.4591 81.4946L75.6012 74.7415L69.6342 71.0815ZM71.1405 69.428L66.9321 63.8343L66.932 63.8343L71.1405 69.428ZM71.5505 69.1195L75.7589 74.7132L79.9108 71.5896L78.1232 66.7111L71.5505 69.1195ZM57.9524 156.103L57.1336 163.055L61.3451 163.551L63.735 160.048L57.9524 156.103ZM58.8688 155.067L63.4928 160.322L65.8202 158.274L65.868 155.175L58.8688 155.067ZM55.5108 155.815L48.8019 153.818L46.4272 161.794L54.6919 162.767L55.5108 155.815ZM59.0398 143.962L66.039 144.07L52.3309 141.965L59.0398 143.962ZM81.6051 42.3858C75.4577 44.1736 70.1108 48.3897 67.2414 54.3469L79.8544 60.4224C80.8697 58.3144 82.8854 56.5935 85.5148 55.8288L81.6051 42.3858ZM104.441 45.1251C97.35 39.5817 88.0719 39.1968 80.5444 42.7901L86.5754 55.4244C89.8403 53.866 93.3562 54.2299 95.8183 56.1546L104.441 45.1251ZM112.889 64.6706C113.428 57.4253 110.641 49.9724 104.441 45.1251L95.8183 56.1546C97.9841 57.8478 99.1542 60.5851 98.9276 63.6325L112.889 64.6706ZM113.035 64.1527C112.951 63.5944 112.843 63.0435 112.711 62.5014L99.1056 65.8017C99.1398 65.9424 99.1679 66.0858 99.1899 66.2317L113.035 64.1527ZM99.6925 62.401L99.6693 62.4558L112.555 67.9286L112.579 67.8738L99.6925 62.401ZM114.769 56.3181C108.925 53.8324 102.174 56.5564 99.6924 62.4014L112.579 67.8735C112.037 69.1485 110.563 69.7432 109.289 69.201L114.769 56.3181ZM120.851 71.3924C123.332 65.5505 120.609 58.8025 114.769 56.3181L109.289 69.201C108.017 68.6601 107.425 67.1922 107.965 65.9203L120.851 71.3924ZM118.515 76.894L120.851 71.3924L107.965 65.9203L105.629 71.4219L118.515 76.894ZM103.608 83.0478C109.414 85.4094 116.057 82.6824 118.515 76.894L105.629 71.4219C106.165 70.1588 107.615 69.5638 108.883 70.0797L103.608 83.0478ZM113.246 77.5552V76.5637H99.2458V77.5552H113.246ZM115.648 75.292C113.373 72.3311 109.991 70.7124 106.552 70.5619L105.94 84.5485C105.428 84.526 104.898 84.2793 104.546 83.8217L115.648 75.292ZM113.409 92.3014C118.729 88.2242 119.731 80.607 115.648 75.2921L104.546 83.8217C103.915 83.0002 104.07 81.8198 104.893 81.1896L113.409 92.3014ZM109.066 95.6301L113.409 92.3014L104.893 81.1896L100.55 84.5183L109.066 95.6301ZM102.63 98.097C104.895 97.9208 107.141 97.1057 109.066 95.6301L100.55 84.5183C100.839 84.2962 101.192 84.1665 101.544 84.1391L102.63 98.097ZM96.7094 100.87C100.494 100.38 103.925 98.7786 106.661 96.4172L97.5132 85.819C96.7874 86.4455 95.8932 86.8586 94.9133 86.9854L96.7094 100.87ZM98.8918 100.919C100.37 99.8112 101.484 98.3843 102.198 96.7919L89.4242 91.0632C89.6635 90.5297 90.0391 90.0579 90.4977 89.7143L98.8918 100.919ZM69.344 103.549C79.2023 107.519 90.5711 107.152 98.8918 100.919L90.4977 89.7143C87.0012 92.3338 81.0517 93.1707 74.5738 90.5621L69.344 103.549ZM68.4078 110.053L76.7701 102.14L67.1477 91.9708L58.7854 99.8837L68.4078 110.053ZM81.9178 113.928L68.6433 100.117L58.5498 109.819L71.8243 123.63L81.9178 113.928ZM81.1405 136.872C87.195 131.345 88.7543 121.041 81.9178 113.928L71.8243 123.63C72.3029 124.127 72.424 124.611 72.3934 125.076C72.3569 125.632 72.0903 126.178 71.7015 126.533L81.1405 136.872ZM81.1317 155.7L83.3884 132.377L69.4535 131.028L67.1968 154.351L81.1317 155.7ZM73.3486 161.978L77.5654 162.473L79.1967 148.568L74.9799 148.073L73.3486 161.978ZM77.5654 162.473C76.3553 162.331 75.4432 161.305 75.4432 160.087H89.4432C89.4432 154.204 85.0397 149.253 79.1967 148.568L77.5654 162.473ZM75.4432 160.087C75.4432 158.763 76.5156 157.69 77.8397 157.689L77.8462 171.689C84.2515 171.686 89.4432 166.492 89.4432 160.087H75.4432ZM77.8397 157.689L62.4979 157.697L62.5043 171.697L77.8462 171.689L77.8397 157.689ZM62.4978 157.697C62.6549 157.696 62.8205 157.723 62.9815 157.778L58.4673 171.03C59.743 171.465 61.1038 171.697 62.5044 171.697L62.4978 157.697ZM57.949 172.335C60.5697 172.335 63.0056 171.458 64.9514 169.984L56.4974 158.824C56.9002 158.519 57.4131 158.335 57.949 158.335V172.335ZM42.6087 172.335H57.949V158.335H42.6087V172.335ZM30.1079 159.834C30.1079 166.738 35.7047 172.335 42.6087 172.335V158.335C43.4367 158.335 44.1079 159.006 44.1079 159.834H30.1079ZM35.9053 149.282C32.4621 151.472 30.1079 155.351 30.1079 159.834H44.1079C44.1079 160.378 43.8095 160.847 43.4183 161.096L35.9053 149.282ZM37.4578 132.2L32.819 153.713L46.5045 156.664L51.1433 135.151L37.4578 132.2ZM32.2386 131.847C34.2586 136.117 38.0203 139.203 42.4371 140.423L46.1641 126.928C45.6118 126.776 45.1447 126.39 44.8942 125.86L32.2386 131.847ZM21.5006 109.145L32.2386 131.847L44.8942 125.86L34.1562 103.159L21.5006 109.145ZM24.2039 91.4637C19.7824 96.2553 18.7127 103.251 21.5005 109.145L34.1562 103.159C33.8091 102.425 33.9423 101.554 34.4927 100.958L24.2039 91.4637ZM30.3822 84.7684L24.2039 91.4637L34.4927 100.958L40.671 94.2627L30.3822 84.7684ZM34.5747 81.5181C33.0383 82.3423 31.6173 83.43 30.3822 84.7684L40.671 94.2627C40.836 94.0839 41.0123 93.9519 41.1929 93.855L34.5747 81.5181ZM36.2986 78.9607C34.2764 80.4821 32.7068 82.404 31.6321 84.5375L44.1355 90.8356C44.2632 90.5821 44.4505 90.3473 44.7154 90.148L36.2986 78.9607ZM54.411 65.3338L36.2986 78.9607L44.7154 90.148L62.8278 76.5211L54.411 65.3338ZM74.001 65.6106C68.486 61.2086 60.4254 60.8088 54.411 65.3338L62.8278 76.5211C63.5632 75.9679 64.5703 75.996 65.2674 76.5524L74.001 65.6106ZM66.932 63.8343C65.5983 64.8378 64.5017 66.061 63.6672 67.4216L75.6012 74.7415C75.5316 74.8549 75.4427 74.9511 75.3489 75.0217L66.932 63.8343ZM67.3421 63.5258L66.9321 63.8343L75.3489 75.0217L75.7589 74.7132L67.3421 63.5258ZM68.1438 52.9353C63.8555 58.1438 62.6759 65.2457 64.9779 71.5279L78.1232 66.7111C77.5209 65.0675 77.8364 63.1889 78.9519 61.8339L68.1438 52.9353ZM63.735 160.048C63.6643 160.151 63.5827 160.243 63.4928 160.322L54.2447 149.811C53.4619 150.5 52.7636 151.288 52.1699 152.158L63.735 160.048ZM54.6919 162.767L57.1336 163.055L58.7713 149.151L56.3297 148.863L54.6919 162.767ZM52.3309 141.965L48.8019 153.818L62.2198 157.813L65.7488 145.96L52.3309 141.965ZM65.868 155.175L66.039 144.07L52.0407 143.855L51.8696 154.959L65.868 155.175Z" fill="black" mask="url(#path-25-outside-1)"/>
<circle cx="161.5" cy="35.5" r="22" fill="#DF3A1F" stroke="black" stroke-width="7"/>
<mask id="mask0" mask-type="alpha" maskUnits="userSpaceOnUse" x="143" y="17" width="37" height="37">
<circle cx="161.5" cy="35.5" r="18.5" fill="#DF3A1F"/>
</mask>
<g mask="url(#mask0)">
<path d="M182.963 31.799C177.496 37.2663 168.631 37.2663 163.164 31.799C157.697 26.3316 157.697 17.4673 163.164 12" stroke="black" stroke-width="4"/>
<path d="M155.799 58.9611C161.266 53.4938 161.266 44.6294 155.799 39.1621C150.332 33.6948 141.467 33.6948 136 39.1621" stroke="black" stroke-width="4"/>
<line x1="143.586" y1="50.5858" x2="177.586" y2="16.5858" stroke="black" stroke-width="4"/>
<line x1="177.586" y1="53.4142" x2="143.586" y2="19.4142" stroke="black" stroke-width="4"/>
</g>
<path d="M198 34.208C201.467 28.2032 206.454 23.2169 212.458 19.75C218.463 16.2832 225.275 14.458 232.209 14.458C239.142 14.458 245.954 16.2832 251.958 19.75C257.963 23.2169 262.95 28.2032 266.417 34.208" stroke="black" stroke-width="7" stroke-linecap="round" stroke-linejoin="round"/>
<path d="M192 12.208C195.467 6.20325 200.454 1.21685 206.458 -2.25C212.463 -5.71685 219.275 -7.542 226.209 -7.542C233.142 -7.542 239.954 -5.71685 245.958 -2.25C251.963 1.21685 256.95 6.20325 260.417 12.208" stroke="black" stroke-width="7" stroke-linecap="round" stroke-linejoin="round"/>
</g>
<defs>
<clipPath id="clip0">
<path d="M0 20C0 8.9543 8.9543 0 20 0H255C266.046 0 275 8.95431 275 20V155C275 166.046 266.046 175 255 175H20C8.9543 175 0 166.046 0 155V20Z" fill="white"/>
</clipPath>
</defs>
</svg>
