<svg width="173" height="173" viewBox="0 0 173 173" fill="none" xmlns="http://www.w3.org/2000/svg">
<mask id="path-1-outside-1" maskUnits="userSpaceOnUse" x="0" y="15.3472" width="173" height="149" fill="black">
<rect fill="white" y="15.3472" width="173" height="149"/>
<path fill-rule="evenodd" clip-rule="evenodd" d="M48.5215 24.9012C42.5033 22.7286 36.1622 27.2178 36.2118 33.616L36.3547 52.0447C35.5145 52.7534 34.8083 53.618 34.2573 54.6182L14.1753 72.9664C10.9633 74.5988 9 77.9776 9 82.4236C9 87.1256 11.1959 91.863 14.7425 94.9668C14.7109 95.2951 14.6963 95.6296 14.6997 95.9694L14.7823 104.233C14.82 108.003 17.1564 111.367 20.6756 112.719L128.99 154.335C130.681 154.984 132.406 155.101 134.013 154.79C136.057 154.609 138.088 153.726 139.755 151.999L161.63 129.333C163.341 127.56 164.268 125.174 164.204 122.711L163.977 114.018C164.065 113.48 164.107 112.924 164.098 112.353L163.484 72.7143C163.424 68.8948 161.009 65.5103 157.416 64.2132L48.5215 24.9012Z"/>
</mask>
<path d="M36.2118 33.616L44.8875 33.5488V33.5488L36.2118 33.616ZM48.5215 24.9012L45.5755 33.0617V33.0617L48.5215 24.9012ZM36.3547 52.0447L41.9485 58.6765L45.0619 56.0504L45.0303 51.9775L36.3547 52.0447ZM34.2573 54.6182L40.1094 61.0232L41.166 60.0579L41.8565 58.8043L34.2573 54.6182ZM14.1753 72.9664L18.106 80.7008L19.157 80.1667L20.0273 79.3714L14.1753 72.9664ZM14.7425 94.9668L23.3785 95.7983L23.805 91.3687L20.4563 88.4381L14.7425 94.9668ZM14.6997 95.9694L6.02422 96.0562L14.6997 95.9694ZM14.7823 104.233L6.10685 104.319L14.7823 104.233ZM20.6756 112.719L23.7872 104.62L23.7872 104.62L20.6756 112.719ZM128.99 154.335L125.879 162.433H125.879L128.99 154.335ZM134.013 154.79L133.247 146.148L132.804 146.188L132.366 146.272L134.013 154.79ZM139.755 151.999L145.997 158.024L145.997 158.024L139.755 151.999ZM161.63 129.333L167.873 135.357L167.873 135.357L161.63 129.333ZM164.204 122.711L172.877 122.484V122.484L164.204 122.711ZM163.977 114.018L155.415 112.611L155.282 113.423L155.304 114.244L163.977 114.018ZM164.098 112.353L155.423 112.488V112.488L164.098 112.353ZM163.484 72.7143L172.159 72.5798V72.5798L163.484 72.7143ZM157.416 64.2132L154.47 72.3736V72.3736L157.416 64.2132ZM44.8875 33.5488C44.8864 33.4152 44.9136 33.3506 44.9347 33.3106C44.9641 33.2553 45.0187 33.1862 45.1043 33.1256C45.1899 33.065 45.2732 33.0364 45.3352 33.0271C45.38 33.0204 45.4499 33.0163 45.5755 33.0617L51.4675 16.7408C39.7675 12.517 27.4397 21.2445 27.5361 33.6833L44.8875 33.5488ZM45.0303 51.9775L44.8875 33.5488L27.5361 33.6833L27.679 52.112L45.0303 51.9775ZM41.8565 58.8043C41.8853 58.7521 41.9081 58.7212 41.9213 58.7051C41.9342 58.6892 41.9431 58.6811 41.9485 58.6765L30.7608 45.413C29.084 46.8274 27.7066 48.5286 26.6581 50.4321L41.8565 58.8043ZM20.0273 79.3714L40.1094 61.0232L28.4052 48.2131L8.3232 66.5613L20.0273 79.3714ZM17.6759 82.4236C17.6759 81.4763 17.8816 81.0073 17.9654 80.8566C18.0341 80.7331 18.0696 80.7193 18.106 80.7008L10.2446 65.232C3.622 68.5976 0.324084 75.3123 0.324084 82.4236H17.6759ZM20.4563 88.4381C18.747 86.9422 17.6759 84.5648 17.6759 82.4236H0.324084C0.324084 89.6864 3.64481 96.7837 9.02878 101.496L20.4563 88.4381ZM23.3752 95.8827C23.3748 95.8486 23.3763 95.8206 23.3785 95.7983L6.10653 94.1354C6.04547 94.7696 6.01777 95.4105 6.02422 96.0562L23.3752 95.8827ZM23.4578 104.146L23.3752 95.8827L6.02422 96.0562L6.10685 104.319L23.4578 104.146ZM23.7872 104.62C23.5905 104.545 23.4599 104.357 23.4578 104.146L6.10685 104.319C6.18014 111.648 10.7223 118.189 17.564 120.818L23.7872 104.62ZM132.102 146.236L23.7872 104.62L17.564 120.818L125.879 162.433L132.102 146.236ZM132.366 146.272C132.331 146.279 132.299 146.28 132.266 146.278C132.236 146.275 132.182 146.267 132.102 146.236L125.879 162.433C129.122 163.68 132.499 163.92 135.66 163.308L132.366 146.272ZM133.512 145.974C133.451 146.037 133.405 146.074 133.376 146.095C133.347 146.116 133.328 146.126 133.317 146.131C133.301 146.139 133.282 146.145 133.247 146.148L134.779 163.432C138.852 163.071 142.844 161.292 145.997 158.024L133.512 145.974ZM155.387 123.308L133.512 145.974L145.997 158.024L167.873 135.357L155.387 123.308ZM155.531 122.938C155.534 123.075 155.483 123.209 155.387 123.308L167.873 135.357C171.199 131.911 173.002 127.273 172.877 122.484L155.531 122.938ZM155.304 114.244L155.531 122.938L172.877 122.484L172.65 113.791L155.304 114.244ZM155.423 112.488C155.424 112.543 155.42 112.584 155.415 112.611L172.538 115.424C172.71 114.376 172.79 113.305 172.773 112.219L155.423 112.488ZM154.809 72.8488L155.423 112.488L172.773 112.219L172.159 72.5798L154.809 72.8488ZM154.47 72.3736C154.67 72.4461 154.805 72.6353 154.809 72.8488L172.159 72.5798C172.043 65.1544 167.347 58.5745 160.362 56.0528L154.47 72.3736ZM45.5755 33.0617L154.47 72.3736L160.362 56.0528L51.4675 16.7408L45.5755 33.0617Z" fill="black" mask="url(#path-1-outside-1)"/>
<path d="M36.2122 33.6156C36.1626 27.2174 42.5037 22.7281 48.5219 24.9008L157.416 64.2127C161.009 65.5098 163.425 68.8944 163.484 72.7139L164.099 112.353C164.198 118.776 157.845 123.317 151.8 121.143L42.5985 81.8615C38.9759 80.5584 36.5495 77.1353 36.5197 73.2856L36.2122 33.6156Z" fill="#3A71B3"/>
<path d="M14.6999 95.9691C14.635 89.4826 21.1296 84.9725 27.1849 87.299L135.499 128.915C139.019 130.267 141.355 133.631 141.393 137.401L141.475 145.664C141.54 152.151 135.046 156.661 128.99 154.334L20.6758 112.719C17.1566 111.367 14.8202 108.002 14.7825 104.232L14.6999 95.9691Z" fill="#3A71B3"/>
<path d="M163.968 113.664C163.754 105.466 153.723 101.633 148.096 107.599L126.457 130.544C124.849 132.249 123.953 134.504 123.953 136.849L123.953 145.618C123.953 153.884 134.015 157.948 139.755 152L161.63 129.333C163.341 127.56 164.268 125.175 164.204 122.712L163.968 113.664Z" fill="#3A71B3"/>
<path d="M33.7543 70.1473C36.2815 67.3164 40.2889 66.3301 43.8414 67.6646L144.857 105.614C150.902 107.885 152.781 115.519 148.481 120.336L135.695 134.658C133.168 137.489 129.16 138.476 125.608 137.141L24.5922 99.1918C18.5469 96.9207 16.668 89.2868 20.9687 84.4693L33.7543 70.1473Z" fill="#6096D6"/>
<rect x="11.0521" y="75.8198" width="35.1914" height="28.272" transform="rotate(-42.4168 11.0521 75.8198)" fill="#304967"/>
<path d="M34.7311 87.9924C34.7311 95.2208 28.8065 99.6284 21.4981 98.2958C14.1897 96.9632 9.00024 89.6514 9.00024 82.423C9.00024 75.1947 14.1897 70.787 21.4981 72.1196C28.8065 73.4522 34.7311 80.7641 34.7311 87.9924Z" fill="#3A71B3"/>
<path d="M58.6243 65.9358C58.6243 73.1641 52.6997 77.5718 45.3913 76.2392C38.0829 74.9066 32.8934 67.5947 32.8934 60.3664C32.8934 53.138 38.0829 48.7304 45.3913 50.063C52.6997 51.3956 58.6243 58.7074 58.6243 65.9358Z" fill="#304967"/>
<rect x="115.813" y="117.173" width="35.1914" height="28.272" transform="rotate(-42.4168 115.813 117.173)" fill="#304967"/>
<path d="M139.492 129.343C139.492 136.572 133.568 140.979 126.259 139.647C118.951 138.314 113.761 131.002 113.761 123.774C113.761 116.546 118.951 112.138 126.259 113.471C133.568 114.803 139.492 122.115 139.492 129.343Z" fill="#3A71B3"/>
<path d="M163.385 107.289C163.385 114.518 157.461 118.925 150.152 117.593C142.844 116.26 137.655 108.948 137.655 101.72C137.655 94.4915 142.844 90.0839 150.152 91.4165C157.461 92.7491 163.385 100.061 163.385 107.289Z" fill="#304967"/>
<rect width="34.0583" height="34.7829" rx="12.6996" transform="matrix(-1 0 0 1 112.609 9.24658)" fill="black"/>
<path d="M109.328 105.126C112.332 103.269 113.244 99.3185 111.357 96.3331L105.615 87.2439C103.541 83.9614 99.0336 83.2921 96.0956 85.8305L64.293 113.307C61.9181 115.359 61.3985 118.838 63.0702 121.494L65.2534 124.963C67.1106 127.914 70.9999 128.815 73.9659 126.982L109.328 105.126Z" fill="#6B6E70"/>
<path d="M100.963 92.4042C104.397 90.5236 105.439 85.8911 103.144 82.7034L97.5782 74.9704C95.6094 72.2352 91.9096 71.6298 89.16 73.5931L51.3408 100.596C48.4867 102.634 47.7114 106.676 49.6091 109.625L51.746 112.946C53.4866 115.651 56.9098 116.531 59.715 114.995L100.963 92.4042Z" fill="#6B6E70"/>
<path d="M86.9436 107.915C87.11 104.387 84.3666 101.402 80.8377 101.27L70.094 100.869C66.2141 100.724 63.1138 104.064 63.547 107.923L68.2354 149.689C68.5855 152.808 71.1617 155.203 74.2977 155.325L78.3933 155.485C81.8774 155.621 84.8195 152.923 84.9839 149.44L86.9436 107.915Z" fill="#6B6E70"/>
<path d="M68.9969 111.962C70.1956 108.199 67.6885 104.099 63.778 103.426L54.5597 101.841C51.2158 101.266 48.138 103.457 47.5784 106.81L41.5742 142.793C40.997 146.252 43.3074 149.659 46.7346 150.402L50.7243 151.268C53.8117 151.937 56.8117 150.214 57.7641 147.225L68.9969 111.962Z" fill="#6B6E70"/>
<path d="M112.598 95.3102C112.598 91.8022 109.753 88.9575 106.245 88.9575H78.3554C74.8496 88.9575 72.0085 91.7987 72.0085 95.3044L72.0085 115.352C72.0085 119.87 76.5937 122.945 80.7725 121.229L108.662 109.777C111.043 108.799 112.598 106.48 112.598 103.905L112.598 95.3102Z" fill="#6B6E70"/>
<rect width="9.52391" height="15.8561" rx="4.76196" transform="matrix(0.258819 0.965926 0.966087 -0.258218 45.5492 87.7305)" fill="#F4C498"/>
<path fill-rule="evenodd" clip-rule="evenodd" d="M83.9051 53.9618C83.5845 52.571 82.4681 51.5285 81.0901 51.1593C77.3575 50.1592 73.6718 54.8303 74.0686 58.6758C74.3485 61.3879 74.1484 64.2023 73.402 67.0016C72.1163 71.824 69.4035 75.8744 65.8556 78.8019C63.1898 81.0016 62.2854 85.2575 64.7328 87.7033C66.0841 89.0537 68.1327 89.5038 69.7882 88.5549C76.0478 84.9669 81.2452 78.2278 83.5159 69.7112C84.9739 64.2425 85.0214 58.8053 83.9051 53.9618Z" fill="#F4C498"/>
<path fill-rule="evenodd" clip-rule="evenodd" d="M83.2339 53.0984C82.8324 51.7918 81.6984 50.8684 80.3577 50.6056C76.6212 49.8733 73.2581 54.9903 73.9061 58.7439C74.3193 61.1368 74.3131 63.6312 73.825 66.1385C73.6849 66.8581 73.9848 67.6032 74.6142 67.9798L79.3539 70.8156C81.1764 71.9061 83.5425 71.0144 83.9483 68.9305C85.0369 63.3389 84.7021 57.8766 83.2339 53.0984Z" fill="#DF3A1F"/>
<path d="M112.465 56.6295C112.465 51.1665 107.879 46.8229 102.424 47.1188L84.7882 48.0753C79.8018 48.3457 75.8709 52.4214 75.7809 57.4144L75.3849 79.382C75.2915 84.5641 79.3588 88.8697 84.5378 89.0712L102.57 89.7728C107.971 89.983 112.465 85.6609 112.465 80.2553V56.6295Z" fill="#DF3A1F"/>
<rect width="9.52029" height="15.8621" rx="4.76014" transform="matrix(0.610433 0.792068 0.791333 -0.611386 91.0576 101.423)" fill="#F4C498"/>
<path fill-rule="evenodd" clip-rule="evenodd" d="M110.168 49.7469C109.111 48.8842 107.658 48.7468 106.398 49.2733C102.886 50.7413 102.926 56.8716 105.544 59.6329C107.216 61.396 108.595 63.4777 109.579 65.8389C112.291 72.3492 111.385 79.503 107.776 85.2036C106.279 87.568 106.012 90.6752 107.725 92.886C109.321 94.9457 112.199 95.6852 114.216 94.0339C122.107 87.5733 124.583 74.632 119.542 62.5349C117.348 57.2706 114.04 52.9075 110.168 49.7469Z" fill="#F4C498"/>
<path fill-rule="evenodd" clip-rule="evenodd" d="M110.169 49.7474C109.112 48.8846 107.658 48.7472 106.399 49.2737C102.887 50.7418 102.926 56.8719 105.545 59.6332C107.216 61.3962 108.595 63.4779 109.579 65.839C109.867 66.5299 110.542 66.993 111.29 66.9556L116.748 66.6822C118.88 66.5754 120.364 64.5064 119.542 62.535C117.349 57.2709 114.041 52.908 110.169 49.7474Z" fill="#DF3A1F"/>
<rect width="32.0266" height="28.5741" rx="12.6996" transform="matrix(-1 0 0 1 110.292 16.0952)" fill="black"/>
<rect width="15.8548" height="23.1768" rx="7.92738" transform="matrix(-1 0 0 1 94.1208 15.1426)" fill="black"/>
<path d="M78.8342 26.5801C78.8342 39.0705 81.4713 43.7805 89.4609 43.7805C97.4505 43.7805 109.955 38.1348 109.955 29.2558C109.955 20.3767 99.7277 8.99756 91.7381 8.99756C83.7484 8.99756 78.8342 15.1572 78.8342 26.5801Z" fill="#F4C498"/>
<path d="M101.276 39.2722C101.276 35.7653 98.4331 32.9224 94.9262 32.9224H94.3078C90.8009 32.9224 87.958 35.7653 87.958 39.2722V44.6695C87.958 48.1764 90.8009 51.0193 94.3078 51.0193H94.9262C98.4331 51.0193 101.276 48.1764 101.276 44.6695V39.2722Z" fill="#F4C498"/>
<path fill-rule="evenodd" clip-rule="evenodd" d="M109.39 29.2956C110.938 21.4697 106.371 13.8895 99.0505 12.2546C96.503 11.6857 93.9523 11.9105 91.6284 12.7718C90.0813 20.5977 94.6474 28.1779 101.968 29.8128C104.516 30.3817 107.066 30.1569 109.39 29.2956Z" fill="black"/>
<path fill-rule="evenodd" clip-rule="evenodd" d="M83.3391 12.1076C87.4754 8.34187 93.17 6.67251 98.7181 8.1619C106.179 10.1649 111.019 17.2482 110.936 25.0967C107.073 27.7454 101.689 28.6978 96.2851 27.2471C88.4789 25.1516 83.211 18.734 83.3391 12.1076Z" fill="black"/>
<path fill-rule="evenodd" clip-rule="evenodd" d="M101.237 42.5648C104.971 35.7527 103.334 26.7277 96.8726 21.0465C91.6906 16.4903 84.7798 15.2927 79.0149 17.3633C79.5578 16.3729 80.2141 15.4293 80.9857 14.5496C87.0645 7.61856 97.9919 7.275 105.393 13.7822C112.794 20.2894 113.866 31.1832 107.787 38.1142C105.964 40.1923 103.706 41.6781 101.237 42.5648Z" fill="black"/>
<path fill-rule="evenodd" clip-rule="evenodd" d="M97.5949 33.6227C98.0886 35.4687 100.446 36.0118 101.813 34.6759C103.251 33.2712 103.919 31.2331 103.389 29.2514C102.895 27.4054 100.538 26.8624 99.1709 28.1982C97.7333 29.6029 97.0649 31.641 97.5949 33.6227Z" fill="#F4C498"/>
<path d="M76.2929 32.4909L78.6563 25.1179C79.1333 23.6298 81.3032 23.8463 81.4767 25.3994L82.442 34.0371C82.5625 35.1146 81.5005 35.938 80.487 35.5529L77.1582 34.2881C76.4379 34.0144 76.0576 33.2248 76.2929 32.4909Z" fill="#F4C498"/>
<rect x="86.0183" y="24.9399" width="3.62322" height="5.43483" rx="1.81161" fill="black"/>
<rect width="2.3683" height="6.26597" rx="1.18415" transform="matrix(4.37114e-08 -1 0.999907 0.0136318 83.2218 21.9668)" fill="black"/>
<path d="M87.1053 37.2586C85.8429 39.1612 83.482 39.7948 81.8306 39.8858L81.468 39.5234C84.2067 40.1571 87.1053 37.2586 87.1053 37.2586Z" stroke="black" stroke-width="2.39133" stroke-linecap="round" stroke-linejoin="round"/>
<path d="M62.4225 160.211C59.9683 160.5 58.1189 162.58 58.1189 165.051C58.1189 167.743 60.301 169.925 62.9927 169.925L79.2443 169.925C82.4629 169.925 85.072 167.316 85.072 164.097C85.072 160.609 82.0274 157.902 78.5626 158.31L62.4225 160.211Z" fill="#1CC64B"/>
<path d="M34.0672 152.54C31.603 152.357 29.3929 154.048 28.9243 156.474C28.4138 159.117 30.1422 161.674 32.7847 162.186L48.7416 165.276C51.9013 165.888 54.9576 163.822 55.5679 160.662C56.2295 157.237 53.754 154 50.2751 153.742L34.0672 152.54Z" fill="#1CC64B"/>
<mask id="path-40-outside-2" maskUnits="userSpaceOnUse" x="21.1627" y="-0.379395" width="108" height="178" fill="black">
<rect fill="white" x="21.1627" y="-0.379395" width="108" height="178"/>
<path fill-rule="evenodd" clip-rule="evenodd" d="M101.915 9.4041C107.976 10.3657 112.609 15.6149 112.609 21.9462V31.3299C112.609 37.5879 108.082 42.7886 102.125 43.8369C101.847 43.9433 101.564 44.0401 101.276 44.1271V44.6697C101.276 45.5731 101.087 46.4323 100.747 47.2103L102.424 47.1194C104.779 46.9917 106.972 47.7284 108.704 49.0466C109.232 49.1603 109.733 49.3924 110.168 49.7473C114.04 52.9079 117.349 57.2709 119.542 62.5353C124.583 74.6324 122.107 87.5737 114.216 94.0343C113.713 94.4458 113.157 94.7088 112.581 94.84C112.592 94.9952 112.598 95.1519 112.598 95.31V103.905C112.598 106.48 111.044 108.799 108.662 109.776L88.2276 118.167L86.4067 119.293L84.984 149.44C84.8196 152.923 81.8776 155.622 78.3934 155.485L74.2979 155.326C71.1618 155.203 68.5857 152.808 68.2355 149.689L65.5009 125.328C65.4149 125.21 65.3323 125.088 65.2534 124.963L64.9893 124.543L57.7642 147.225C56.8118 150.215 53.8118 151.937 50.7244 151.268L46.7347 150.402C43.3075 149.659 40.9971 146.252 41.5743 142.793L47.5785 106.811C47.7688 105.67 48.2504 104.664 48.9346 103.855C49.3689 102.577 50.1842 101.422 51.3409 100.596L67.5213 89.0432C66.4999 88.9508 65.5031 88.4736 64.7328 87.7038C62.2855 85.258 63.1899 81.0022 65.8556 78.8025C69.4035 75.875 72.1164 71.8246 73.4022 67.0021C73.9037 65.1209 74.1586 63.233 74.1869 61.3738C74.1501 60.4868 74.0555 59.6088 73.9062 58.7441C73.35 55.5224 75.7487 51.2964 78.8021 50.6264C80.3837 49.1481 82.4721 48.2015 84.7883 48.0759L88.8151 47.8575C88.2702 46.9206 87.9581 45.8316 87.9581 44.6697V44.3113C86.6654 43.9974 85.4501 43.4857 84.346 42.8101C83.4541 42.3829 82.6877 41.8078 82.0348 41.0713C82.0074 41.0732 81.9802 41.075 81.9533 41.0766C81.9342 41.0778 81.9153 41.0789 81.8965 41.0799C81.5572 41.0986 81.2259 40.972 80.9856 40.7318L80.6229 40.3695C80.2618 40.0086 80.1712 39.4604 80.3908 39.005C79.5562 37.7529 78.938 36.3442 78.5897 34.8323L77.1583 34.2885C76.4379 34.0147 76.0577 33.2251 76.2929 32.4913L78.2662 26.3354V23.0702C78.2662 22.2719 78.3842 21.5011 78.6037 20.7744C78.718 19.5251 79.0133 18.3281 79.463 17.2099C79.313 17.2589 79.1636 17.3101 79.0151 17.3635C79.4806 16.5142 80.0296 15.6993 80.6631 14.9296C81.5796 13.5495 82.7589 12.3589 84.1294 11.4291C88.1839 8.14648 93.5155 6.76547 98.7182 8.16212C99.8463 8.46496 100.914 8.88392 101.915 9.4041ZM81.3077 40.217L81.2497 40.4675L81.1985 40.6886C81.3984 40.7348 81.5973 40.7669 81.7945 40.7865C81.7461 40.7263 81.6984 40.6652 81.6514 40.603C81.5343 40.4767 81.4197 40.348 81.3077 40.217ZM50.1498 86.5013C47.609 87.1804 46.1011 89.7903 46.7818 92.3306C47.4625 94.871 50.074 96.3798 52.6147 95.7007L58.7322 94.0656C61.2729 93.3865 62.7808 90.7766 62.1001 88.2363C61.4195 85.696 58.808 84.1871 56.2672 84.8662L50.1498 86.5013ZM62.4227 160.211C59.9685 160.5 58.1191 162.581 58.1191 165.052C58.1191 167.743 60.3011 169.925 62.9929 169.925H79.2445C82.463 169.925 85.0722 167.316 85.0722 164.098C85.0722 160.609 82.0275 157.902 78.5627 158.31L62.4227 160.211ZM28.9244 156.474C29.393 154.048 31.6031 152.358 34.0673 152.54L50.2752 153.742C53.7541 154 56.2297 157.237 55.5681 160.662C54.9577 163.822 51.9014 165.888 48.7417 165.276L32.7848 162.186C30.1423 161.674 28.4139 159.117 28.9244 156.474Z"/>
</mask>
<path d="M101.915 9.4041L100.818 16.3176C100.074 16.1996 99.3535 15.9621 98.6851 15.6145L101.915 9.4041ZM102.125 43.8369L99.6262 37.2981C100.042 37.139 100.473 37.02 100.912 36.9428L102.125 43.8369ZM101.276 44.1271H94.2761C94.2761 41.042 96.2959 38.3206 99.2489 37.4271L101.276 44.1271ZM100.747 47.2103L101.127 54.2C98.7009 54.3316 96.3804 53.1961 94.9958 51.2001C93.6112 49.2041 93.3605 46.6329 94.3333 44.407L100.747 47.2103ZM102.424 47.1194L102.045 40.1296H102.045L102.424 47.1194ZM108.704 49.0466L107.23 55.8896C106.226 55.6733 105.281 55.2387 104.464 54.6167L108.704 49.0466ZM110.168 49.7473L105.742 55.1702L105.742 55.1702L110.168 49.7473ZM119.542 62.5353L113.081 65.2277H113.081L119.542 62.5353ZM114.216 94.0343L109.782 88.6181L109.782 88.6181L114.216 94.0343ZM112.581 94.84L105.6 95.3508C105.347 91.8997 107.654 88.7819 111.028 88.0143L112.581 94.84ZM108.662 109.776L106.004 103.301H106.004L108.662 109.776ZM88.2276 118.167L84.5473 112.213C84.8729 112.012 85.2146 111.837 85.5687 111.692L88.2276 118.167ZM86.4067 119.293L79.4145 118.963C79.5234 116.657 80.7624 114.552 82.7264 113.338L86.4067 119.293ZM84.984 149.44L91.9762 149.77L84.984 149.44ZM78.3934 155.485L78.6666 148.491H78.6666L78.3934 155.485ZM74.2979 155.326L74.0247 162.32H74.0247L74.2979 155.326ZM68.2355 149.689L75.1919 148.908L68.2355 149.689ZM65.5009 125.328L71.1563 121.203C71.8731 122.186 72.3215 123.338 72.4572 124.547L65.5009 125.328ZM65.2534 124.963L59.3291 128.692L59.3291 128.692L65.2534 124.963ZM64.9893 124.543L58.3196 122.419C59.1463 119.824 61.4032 117.944 64.105 117.599C66.8069 117.255 69.463 118.51 70.9137 120.815L64.9893 124.543ZM57.7642 147.225L64.434 149.35L57.7642 147.225ZM50.7244 151.268L49.2405 158.109H49.2404L50.7244 151.268ZM46.7347 150.402L48.2186 143.561H48.2186L46.7347 150.402ZM41.5743 142.793L34.6698 141.641V141.641L41.5743 142.793ZM47.5785 106.811L54.483 107.963V107.963L47.5785 106.811ZM48.9346 103.855L55.5627 106.107C55.2805 106.938 54.8447 107.708 54.278 108.377L48.9346 103.855ZM51.3409 100.596L47.2733 94.899L47.2734 94.899L51.3409 100.596ZM67.5213 89.0432L68.1516 82.0716C71.067 82.3352 73.5105 84.385 74.2771 87.2102C75.0436 90.0353 73.9713 93.0391 71.5889 94.7401L67.5213 89.0432ZM64.7328 87.7038L69.681 82.7526L69.6811 82.7526L64.7328 87.7038ZM65.8556 78.8025L61.4005 73.4033L61.4005 73.4033L65.8556 78.8025ZM73.4022 67.0021L66.6384 65.1988L66.6384 65.1988L73.4022 67.0021ZM74.1869 61.3738L81.1809 61.0835C81.1864 61.2157 81.1881 61.3481 81.1861 61.4804L74.1869 61.3738ZM73.9062 58.7441L67.0083 59.9351V59.9351L73.9062 58.7441ZM78.8021 50.6264L83.582 55.7404C82.6634 56.5989 81.5306 57.1942 80.3025 57.4637L78.8021 50.6264ZM84.7883 48.0759L85.1674 55.0656H85.1674L84.7883 48.0759ZM88.8151 47.8575L94.8661 44.3382C96.0914 46.445 96.1327 49.0375 94.9751 51.1822C93.8175 53.3269 91.6278 54.7152 89.1941 54.8472L88.8151 47.8575ZM87.9581 44.3113L89.6099 37.509C92.7484 38.2711 94.9581 41.0816 94.9581 44.3113H87.9581ZM84.346 42.8101L87.3698 36.4968C87.5855 36.6001 87.7957 36.7145 87.9998 36.8393L84.346 42.8101ZM82.0348 41.0713L81.5449 34.0884C83.714 33.9362 85.8306 34.8007 87.273 36.4278L82.0348 41.0713ZM81.9533 41.0766L82.3823 48.0635L82.3818 48.0635L81.9533 41.0766ZM81.8965 41.0799L82.2821 48.0693L82.2817 48.0693L81.8965 41.0799ZM80.9856 40.7318L76.0376 45.6834L76.0376 45.6834L80.9856 40.7318ZM80.6229 40.3695L85.5709 35.4179L85.5709 35.4179L80.6229 40.3695ZM80.3908 39.005L86.2153 35.1223C87.5885 37.1822 87.7714 39.8143 86.6965 42.0444L80.3908 39.005ZM78.5897 34.8323L81.0759 28.2887C83.2603 29.1187 84.8865 30.9839 85.411 33.2609L78.5897 34.8323ZM77.1583 34.2885L74.672 40.8321L74.672 40.832L77.1583 34.2885ZM76.2929 32.4913L82.9588 34.628L82.9588 34.628L76.2929 32.4913ZM78.2662 26.3354H85.2662C85.2662 27.0606 85.1535 27.7815 84.9321 28.4721L78.2662 26.3354ZM78.6037 20.7744L85.5746 21.4122C85.5316 21.8822 85.4412 22.3468 85.3046 22.7986L78.6037 20.7744ZM79.463 17.2099L77.2891 10.556C79.8751 9.71117 82.7163 10.4411 84.5749 12.4278C86.4334 14.4144 86.9725 17.298 85.9574 19.822L79.463 17.2099ZM79.0151 17.3635L81.3814 23.9514C78.6437 24.9347 75.5832 24.1225 73.6934 21.911C71.8036 19.6995 71.4785 16.5497 72.8767 13.9989L79.0151 17.3635ZM80.6631 14.9296L86.4944 18.8021C86.3621 19.0013 86.2197 19.1935 86.0678 19.3781L80.6631 14.9296ZM84.1294 11.4291L88.5341 16.8696C88.3808 16.9937 88.2223 17.1113 88.0591 17.222L84.1294 11.4291ZM98.7182 8.16212L100.533 1.40149H100.533L98.7182 8.16212ZM81.2497 40.4675L88.0695 42.0456L88.0695 42.0456L81.2497 40.4675ZM81.3077 40.217L74.4879 38.6389C75.0835 36.0648 77.0777 34.0454 79.6442 33.4175C82.2106 32.7896 84.9119 33.6603 86.6287 35.6687L81.3077 40.217ZM81.1985 40.6886L79.6204 47.5084C75.854 46.6368 73.5072 42.877 74.3787 39.1105L81.1985 40.6886ZM81.7945 40.7865L87.251 36.4017C89.0169 38.5991 89.2922 41.6415 87.9496 44.1203C86.607 46.5992 83.9084 48.0307 81.1031 47.7523L81.7945 40.7865ZM81.6514 40.603L86.7841 35.8432C86.9427 36.0142 87.0926 36.193 87.2333 36.3789L81.6514 40.603ZM46.7818 92.3306L53.5433 90.5189L53.5433 90.5189L46.7818 92.3306ZM50.1498 86.5013L51.9573 93.2639L51.9573 93.2639L50.1498 86.5013ZM52.6147 95.7007L54.4223 102.463H54.4223L52.6147 95.7007ZM58.7322 94.0656L56.9246 87.303H56.9246L58.7322 94.0656ZM62.1001 88.2363L68.8616 86.4246L62.1001 88.2363ZM56.2672 84.8662L54.4597 78.1036L54.4597 78.1036L56.2672 84.8662ZM62.4227 160.211L61.6038 153.259H61.6038L62.4227 160.211ZM78.5627 158.31L77.7438 151.358H77.7439L78.5627 158.31ZM34.0673 152.54L34.585 145.559H34.585L34.0673 152.54ZM28.9244 156.474L35.7974 157.802L35.7973 157.802L28.9244 156.474ZM50.2752 153.742L50.7929 146.761H50.7929L50.2752 153.742ZM55.5681 160.662L62.441 161.99L62.441 161.99L55.5681 160.662ZM48.7417 165.276L50.0724 158.404H50.0724L48.7417 165.276ZM32.7848 162.186L31.4541 169.058H31.4541L32.7848 162.186ZM105.609 21.9462C105.609 19.1113 103.532 16.7483 100.818 16.3176L103.012 2.49057C112.419 3.98308 119.609 12.1184 119.609 21.9462H105.609ZM105.609 31.3299V21.9462H119.609V31.3299H105.609ZM100.912 36.9428C103.581 36.4732 105.609 34.1313 105.609 31.3299H119.609C119.609 41.0445 112.584 49.104 103.338 50.731L100.912 36.9428ZM99.2489 37.4271C99.3765 37.3885 99.5024 37.3454 99.6262 37.2981L104.624 50.3757C104.191 50.5411 103.75 50.6918 103.303 50.8271L99.2489 37.4271ZM94.2761 44.6697V44.1271H108.276V44.6697H94.2761ZM94.3333 44.407C94.2943 44.4964 94.2761 44.5901 94.2761 44.6697H108.276C108.276 46.556 107.881 48.3683 107.162 50.0136L94.3333 44.407ZM102.804 54.1091L101.127 54.2L100.368 40.2206L102.045 40.1296L102.804 54.1091ZM104.464 54.6167C104.003 54.2657 103.436 54.0748 102.804 54.1091L102.045 40.1296C106.123 39.9085 109.941 41.1911 112.943 43.4765L104.464 54.6167ZM105.742 55.1702C106.204 55.5478 106.726 55.7811 107.23 55.8896L110.178 42.2035C111.737 42.5394 113.262 43.237 114.594 44.3243L105.742 55.1702ZM113.081 65.2277C111.316 60.993 108.693 57.579 105.742 55.1702L114.594 44.3243C119.388 48.2368 123.381 53.5489 126.004 59.8429L113.081 65.2277ZM109.782 88.6181C114.671 84.6152 117.266 75.2711 113.081 65.2277L126.004 59.8429C131.9 73.9937 129.543 90.5322 118.651 99.4505L109.782 88.6181ZM111.028 88.0143C110.558 88.1212 110.126 88.3363 109.782 88.6181L118.651 99.4505C117.301 100.555 115.756 101.296 114.134 101.666L111.028 88.0143ZM105.598 95.31C105.598 95.3225 105.598 95.3362 105.6 95.3508L119.562 94.3291C119.586 94.6542 119.598 94.9813 119.598 95.31H105.598ZM105.598 103.905V95.31H119.598V103.905H105.598ZM106.004 103.301C105.758 103.402 105.598 103.641 105.598 103.905H119.598C119.598 109.318 116.329 114.195 111.321 116.252L106.004 103.301ZM85.5687 111.692L106.004 103.301L111.321 116.252L90.8865 124.643L85.5687 111.692ZM82.7264 113.338L84.5473 112.213L91.9079 124.122L90.0871 125.247L82.7264 113.338ZM77.9918 149.11L79.4145 118.963L93.399 119.623L91.9762 149.77L77.9918 149.11ZM78.6666 148.491C78.3099 148.477 78.0086 148.753 77.9918 149.11L91.9762 149.77C91.6306 157.092 85.4452 162.766 78.1202 162.48L78.6666 148.491ZM74.5711 148.331L78.6666 148.491L78.1202 162.48L74.0247 162.32L74.5711 148.331ZM75.1919 148.908C75.156 148.589 74.8922 148.343 74.5711 148.331L74.0247 162.32C67.4314 162.063 62.0153 157.027 61.2792 150.47L75.1919 148.908ZM72.4572 124.547L75.1919 148.908L61.2792 150.47L58.5446 126.109L72.4572 124.547ZM71.1778 121.234C71.1715 121.225 71.1644 121.214 71.1563 121.203L59.8455 129.453C59.6654 129.206 59.4932 128.952 59.3291 128.692L71.1778 121.234ZM70.9137 120.815L71.1778 121.235L59.3291 128.692L59.065 128.272L70.9137 120.815ZM51.0944 145.1L58.3196 122.419L71.6591 126.668L64.434 149.35L51.0944 145.1ZM52.2084 144.427C52.0465 144.392 51.7985 144.411 51.5589 144.548C51.318 144.687 51.1565 144.905 51.0944 145.1L64.434 149.35C62.3742 155.816 55.8169 159.535 49.2405 158.109L52.2084 144.427ZM48.2186 143.561L52.2084 144.427L49.2404 158.109L45.2507 157.243L48.2186 143.561ZM48.4788 143.945C48.5056 143.785 48.4534 143.698 48.4463 143.687C48.4391 143.676 48.3774 143.596 48.2186 143.561L45.2507 157.243C38.1737 155.708 33.4779 148.784 34.6698 141.641L48.4788 143.945ZM54.483 107.963L48.4788 143.945L34.6698 141.641L40.674 105.658L54.483 107.963ZM54.278 108.377C54.4047 108.228 54.465 108.071 54.483 107.963L40.674 105.658C41.0726 103.269 42.0961 101.1 43.5913 99.3333L54.278 108.377ZM55.4085 106.293C55.5135 106.218 55.5531 106.135 55.5627 106.107L42.3066 101.604C43.1846 99.0192 44.8548 96.6258 47.2733 94.899L55.4085 106.293ZM71.5889 94.7401L55.4085 106.293L47.2734 94.899L63.4538 83.3463L71.5889 94.7401ZM69.6811 82.7526C69.3625 82.4342 68.8572 82.1354 68.1516 82.0716L66.8911 96.0148C64.1426 95.7663 61.6436 94.513 59.7846 92.6551L69.6811 82.7526ZM70.3108 84.2017C70.3429 84.1752 70.3302 84.1778 70.3072 84.2185C70.2833 84.2609 70.2879 84.2743 70.2952 84.2268C70.3026 84.1787 70.3227 83.9925 70.2415 83.7025C70.1531 83.3868 69.9665 83.0378 69.681 82.7526L59.7846 92.6551C56.676 89.5484 55.9373 85.4777 56.4584 82.0949C56.9689 78.7821 58.7198 75.6152 61.4005 73.4033L70.3108 84.2017ZM80.1659 68.8054C78.4949 75.0728 74.956 80.3687 70.3108 84.2017L61.4005 73.4033C63.8511 71.3812 65.7379 68.5764 66.6384 65.1988L80.1659 68.8054ZM81.1861 61.4804C81.1491 63.9084 80.8162 66.3664 80.1659 68.8054L66.6384 65.1988C66.9912 63.8755 67.1681 62.5575 67.1877 61.2673L81.1861 61.4804ZM80.8042 57.5531C81.0044 58.7126 81.1314 59.8914 81.1809 61.0835L67.1929 61.6642C67.1688 61.0822 67.1067 60.505 67.0083 59.9351L80.8042 57.5531ZM80.3025 57.4637C80.8549 57.3425 81.131 57.1196 81.1656 57.0906C81.191 57.0693 81.182 57.0731 81.1494 57.1123C81.1174 57.1508 81.0739 57.2102 81.0269 57.2897C80.9256 57.4611 80.8619 57.6345 80.8348 57.7544C80.8227 57.8081 80.8241 57.8238 80.8252 57.7991C80.8262 57.7748 80.8278 57.6899 80.8042 57.5531L67.0083 59.9351C66.382 56.308 67.4357 52.7704 68.9742 50.1671C70.4788 47.6209 73.2315 44.6822 77.3018 43.7891L80.3025 57.4637ZM85.1674 55.0656C84.55 55.0991 84.0049 55.3451 83.582 55.7404L74.0223 45.5124C76.7625 42.9512 80.3943 41.3039 84.4093 41.0861L85.1674 55.0656ZM89.1941 54.8472L85.1674 55.0656L84.4092 41.0861L88.436 40.8678L89.1941 54.8472ZM94.9581 44.6697C94.9581 44.5623 94.926 44.4412 94.8661 44.3382L82.764 51.3767C81.6144 49.4 80.9581 47.1009 80.9581 44.6697H94.9581ZM94.9581 44.3113V44.6697H80.9581V44.3113H94.9581ZM87.9998 36.8393C88.4949 37.1423 89.0362 37.3697 89.6099 37.509L86.3064 51.1136C84.2947 50.6251 82.4053 49.8291 80.6922 48.7808L87.9998 36.8393ZM87.273 36.4278C87.2947 36.4523 87.3051 36.4599 87.3074 36.4617C87.31 36.4636 87.3265 36.4761 87.3698 36.4968L81.3223 49.1233C79.6004 48.2986 78.0778 47.1599 76.7966 45.7147L87.273 36.4278ZM81.5242 34.0898C81.5312 34.0893 81.5381 34.0889 81.5449 34.0884L82.5248 48.0541C82.4767 48.0575 82.4292 48.0606 82.3823 48.0635L81.5242 34.0898ZM81.5109 34.0905C81.5162 34.0903 81.5208 34.09 81.5247 34.0897L82.3818 48.0635C82.3477 48.0656 82.3144 48.0675 82.2821 48.0693L81.5109 34.0905ZM85.9335 35.7803C84.7666 34.6142 83.1585 33.9997 81.5113 34.0905L82.2817 48.0693C79.9558 48.1975 77.6853 47.3299 76.0376 45.6834L85.9335 35.7803ZM85.5709 35.4179L85.9335 35.7803L76.0376 45.6834L75.675 45.321L85.5709 35.4179ZM86.6965 42.0444C87.7635 39.8307 87.3249 37.1707 85.5709 35.4179L75.675 45.321C73.1986 42.8465 72.579 39.0902 74.0851 35.9655L86.6965 42.0444ZM85.411 33.2609C85.5655 33.9317 85.8402 34.5596 86.2153 35.1223L74.5663 42.8876C73.2721 40.9462 72.3104 38.7567 71.7683 36.4037L85.411 33.2609ZM79.6445 27.7449L81.0759 28.2887L76.1034 41.3759L74.672 40.8321L79.6445 27.7449ZM82.9588 34.628C83.8598 31.8174 82.4036 28.7932 79.6445 27.7449L74.672 40.832C70.4722 39.2363 68.2556 34.6329 69.627 30.3545L82.9588 34.628ZM84.9321 28.4721L82.9588 34.628L69.627 30.3545L71.6003 24.1986L84.9321 28.4721ZM85.2662 23.0702V26.3354H71.2662V23.0702H85.2662ZM85.3046 22.7986C85.2813 22.8761 85.2662 22.9651 85.2662 23.0702H71.2662C71.2662 21.5787 71.4871 20.1262 71.9028 18.7501L85.3046 22.7986ZM85.9574 19.822C85.7579 20.3181 85.626 20.8506 85.5746 21.4122L71.6328 20.1366C71.8101 18.1996 72.2687 16.3382 72.9686 14.5979L85.9574 19.822ZM76.6488 10.7756C76.8614 10.6992 77.0749 10.626 77.2891 10.556L81.6369 23.8638C81.551 23.8919 81.4658 23.9211 81.3814 23.9514L76.6488 10.7756ZM86.0678 19.3781C85.7146 19.8073 85.4106 20.2588 85.1534 20.7281L72.8767 13.9989C73.5505 12.7696 74.3445 11.5914 75.2584 10.4812L86.0678 19.3781ZM88.0591 17.222C87.4408 17.6414 86.9076 18.1799 86.4944 18.8021L74.8318 11.0571C76.2517 8.9191 78.0769 7.07631 80.1997 5.63626L88.0591 17.222ZM96.9033 14.9228C94.0647 14.1607 91.0131 14.8626 88.5341 16.8696L79.7247 5.98869C85.3548 1.43039 92.9663 -0.629798 100.533 1.40149L96.9033 14.9228ZM98.6851 15.6145C98.131 15.3264 97.5369 15.0928 96.9033 14.9228L100.533 1.40149C102.156 1.83708 103.698 2.44145 105.144 3.19367L98.6851 15.6145ZM74.4299 38.8895L74.4879 38.6389L88.1275 41.795L88.0695 42.0456L74.4299 38.8895ZM74.3787 39.1105L74.4299 38.8895L88.0695 42.0456L88.0183 42.2667L74.3787 39.1105ZM81.1031 47.7523C80.6174 47.7041 80.122 47.6244 79.6204 47.5084L82.7766 33.8688C82.6748 33.8452 82.5771 33.8298 82.4859 33.8207L81.1031 47.7523ZM87.2333 36.3789C87.2396 36.3873 87.2455 36.3948 87.251 36.4017L76.338 45.1713C76.2468 45.0578 76.1573 44.9431 76.0696 44.8271L87.2333 36.3789ZM86.6287 35.6687C86.6793 35.728 86.7312 35.7862 86.7841 35.8432L76.5187 45.3628C76.3374 45.1672 76.16 44.968 75.9867 44.7652L86.6287 35.6687ZM40.0203 94.1424C38.3386 87.8661 42.065 81.4165 48.3423 79.7387L51.9573 93.2639C53.153 92.9443 53.8636 91.7145 53.5433 90.5189L40.0203 94.1424ZM54.4223 102.463C48.1483 104.14 41.7011 100.415 40.0203 94.1423L53.5433 90.5189C53.2238 89.3266 51.9997 88.6194 50.8072 88.9381L54.4223 102.463ZM60.5397 100.828L54.4223 102.463L50.8072 88.9381L56.9246 87.303L60.5397 100.828ZM68.8616 86.4246C70.5433 92.7008 66.817 99.1504 60.5397 100.828L56.9246 87.303C55.7289 87.6226 55.0183 88.8525 55.3387 90.048L68.8616 86.4246ZM54.4597 78.1036C60.7337 76.4267 67.1808 80.1516 68.8616 86.4246L55.3387 90.048C55.6581 91.2403 56.8822 91.9476 58.0747 91.6288L54.4597 78.1036ZM48.3422 79.7387L54.4597 78.1036L58.0747 91.6288L51.9573 93.2639L48.3422 79.7387ZM51.1191 165.052C51.1191 159.031 55.6248 153.964 61.6038 153.259L63.2416 167.163C64.3122 167.037 65.1191 166.13 65.1191 165.052H51.1191ZM62.9929 176.925C56.4352 176.925 51.1191 171.609 51.1191 165.052H65.1191C65.1191 163.877 64.1671 162.925 62.9929 162.925V176.925ZM79.2445 176.925H62.9929V162.925H79.2445V176.925ZM92.0722 164.098C92.0722 171.182 86.329 176.925 79.2445 176.925V162.925C78.597 162.925 78.0722 163.45 78.0722 164.098H92.0722ZM77.7439 151.358C85.3704 150.46 92.0722 156.419 92.0722 164.098H78.0722C78.0722 164.8 78.6846 165.344 79.3816 165.262L77.7439 151.358ZM61.6038 153.259L77.7438 151.358L79.3816 165.262L63.2416 167.163L61.6038 153.259ZM33.5497 159.521C34.6265 159.601 35.5927 158.862 35.7974 157.802L22.0514 155.147C23.1933 149.235 28.5798 145.114 34.585 145.559L33.5497 159.521ZM49.7576 160.723L33.5497 159.521L34.585 145.559L50.7929 146.761L49.7576 160.723ZM48.6951 159.335C48.5623 160.022 49.0582 160.671 49.7575 160.723L50.7929 146.761C58.4499 147.329 63.897 154.451 62.441 161.99L48.6951 159.335ZM50.0724 158.404C49.4354 158.28 48.8182 158.697 48.6951 159.334L62.441 161.99C61.0972 168.947 54.3674 173.495 47.411 172.148L50.0724 158.404ZM34.1155 155.314L50.0724 158.404L47.411 172.148L31.4541 169.058L34.1155 155.314ZM35.7973 157.802C36.0198 156.65 35.2673 155.537 34.1156 155.314L31.4541 169.058C25.0173 167.812 20.808 161.584 22.0514 155.147L35.7973 157.802Z" fill="black" mask="url(#path-40-outside-2)"/>
</svg>
