<svg width="275" height="175" viewBox="0 0 275 175" fill="none" xmlns="http://www.w3.org/2000/svg">
<g clip-path="url(#clip0)">
<path d="M0 20C0 8.9543 8.9543 0 20 0H255C266.046 0 275 8.95431 275 20V155C275 166.046 266.046 175 255 175H20C8.9543 175 0 166.046 0 155V20Z" fill="white"/>
<mask id="path-2-outside-1" maskUnits="userSpaceOnUse" x="59.6758" y="22.3052" width="173" height="149" fill="black">
<rect fill="white" x="59.6758" y="22.3052" width="173" height="149"/>
<path fill-rule="evenodd" clip-rule="evenodd" d="M108.198 31.8593C102.179 29.6866 95.8383 34.1758 95.8879 40.5741L96.0307 59.0021C95.1896 59.7115 94.4826 60.5771 93.9313 61.5787L73.8531 79.9233C70.6399 81.5553 68.6758 84.9347 68.6758 89.3816C68.6758 94.0839 70.872 98.8216 74.419 101.925C74.3874 102.254 74.3728 102.588 74.3762 102.927L74.4589 111.191C74.4966 114.961 76.8329 118.325 80.3521 119.677L188.667 161.293C190.358 161.942 192.083 162.059 193.69 161.748C195.733 161.567 197.764 160.684 199.431 158.957L221.306 136.291C223.017 134.518 223.944 132.132 223.88 129.669L223.653 120.976C223.741 120.438 223.783 119.882 223.774 119.311L223.16 79.6723C223.101 75.8528 220.685 72.4683 217.092 71.1712L108.198 31.8593Z"/>
</mask>
<path d="M95.8879 40.5741L104.564 40.5068L95.8879 40.5741ZM108.198 31.8593L111.144 23.6988L108.198 31.8593ZM96.0307 59.0021L101.624 65.6345L104.738 63.0084L104.706 58.9349L96.0307 59.0021ZM93.9313 61.5787L99.7833 67.9837L100.841 67.0175L101.532 65.7626L93.9313 61.5787ZM73.8531 79.9233L77.7819 87.6587L78.834 87.1244L79.7052 86.3284L73.8531 79.9233ZM74.419 101.925L83.055 102.756L83.4812 98.3268L80.1324 95.3963L74.419 101.925ZM74.3762 102.927L83.0517 102.841L74.3762 102.927ZM74.4589 111.191L65.7834 111.277L74.4589 111.191ZM80.3521 119.677L83.4638 111.578L83.4637 111.578L80.3521 119.677ZM188.667 161.293L185.555 169.391L185.555 169.391L188.667 161.293ZM193.69 161.748L192.924 153.106L192.48 153.146L192.043 153.23L193.69 161.748ZM199.431 158.957L205.674 164.982L205.674 164.982L199.431 158.957ZM221.306 136.291L227.549 142.315L227.549 142.315L221.306 136.291ZM223.88 129.669L232.553 129.442V129.442L223.88 129.669ZM223.653 120.976L215.092 119.569L214.958 120.381L214.98 121.202L223.653 120.976ZM223.774 119.311L215.099 119.446V119.446L223.774 119.311ZM223.16 79.6723L231.835 79.5378V79.5378L223.16 79.6723ZM217.092 71.1712L214.146 79.3316L217.092 71.1712ZM104.564 40.5068C104.563 40.3732 104.59 40.3086 104.611 40.2686C104.64 40.2133 104.695 40.1442 104.78 40.0836C104.866 40.023 104.949 39.9944 105.011 39.9851C105.056 39.9784 105.126 39.9743 105.252 40.0197L111.144 23.6988C99.4436 19.475 87.1158 28.2025 87.2122 40.6413L104.564 40.5068ZM104.706 58.9349L104.564 40.5068L87.2122 40.6413L87.3551 59.0694L104.706 58.9349ZM101.532 65.7626C101.56 65.7102 101.583 65.6793 101.597 65.6632C101.61 65.6472 101.618 65.6391 101.624 65.6345L90.4376 52.3697C88.7587 53.7856 87.38 55.4889 86.3308 57.3948L101.532 65.7626ZM79.7052 86.3284L99.7833 67.9837L88.0792 55.1736L68.001 73.5183L79.7052 86.3284ZM77.3517 89.3816C77.3517 88.4342 77.5575 87.9651 77.6412 87.8145C77.7099 87.6911 77.7453 87.6773 77.7819 87.6587L69.9243 72.188C63.2993 75.5528 59.9999 82.2687 59.9999 89.3816H77.3517ZM80.1324 95.3963C78.4229 93.9005 77.3517 91.5229 77.3517 89.3816H59.9999C59.9999 96.6449 63.321 103.743 68.7056 108.455L80.1324 95.3963ZM83.0517 102.841C83.0514 102.807 83.0529 102.779 83.055 102.756L65.783 101.095C65.722 101.728 65.6943 102.369 65.7008 103.014L83.0517 102.841ZM83.1344 111.104L83.0517 102.841L65.7008 103.014L65.7834 111.277L83.1344 111.104ZM83.4637 111.578C83.2671 111.503 83.1365 111.315 83.1344 111.104L65.7834 111.277C65.8567 118.606 70.3988 125.147 77.2405 127.776L83.4637 111.578ZM191.778 153.194L83.4638 111.578L77.2405 127.776L185.555 169.391L191.778 153.194ZM192.043 153.23C192.008 153.237 191.975 153.239 191.943 153.236C191.912 153.233 191.859 153.225 191.778 153.194L185.555 169.391C188.799 170.638 192.176 170.878 195.337 170.266L192.043 153.23ZM193.188 152.932C193.127 152.995 193.081 153.032 193.052 153.053C193.023 153.074 193.004 153.084 192.993 153.089C192.977 153.097 192.958 153.103 192.924 153.106L194.457 170.39C198.529 170.029 202.52 168.249 205.674 164.982L193.188 152.932ZM215.063 130.266L193.188 152.932L205.674 164.982L227.549 142.315L215.063 130.266ZM215.207 129.896C215.211 130.033 215.159 130.167 215.063 130.266L227.549 142.315C230.875 138.869 232.678 134.231 232.553 129.442L215.207 129.896ZM214.98 121.202L215.207 129.896L232.553 129.442L232.326 120.749L214.98 121.202ZM215.099 119.446C215.1 119.501 215.096 119.542 215.092 119.569L232.214 122.382C232.386 121.334 232.466 120.263 232.449 119.177L215.099 119.446ZM214.485 79.8068L215.099 119.446L232.449 119.177L231.835 79.5378L214.485 79.8068ZM214.146 79.3316C214.347 79.4041 214.482 79.5933 214.485 79.8068L231.835 79.5378C231.72 72.1124 227.023 65.5325 220.038 63.0108L214.146 79.3316ZM105.252 40.0197L214.146 79.3316L220.038 63.0108L111.144 23.6988L105.252 40.0197Z" fill="black" mask="url(#path-2-outside-1)"/>
<path d="M95.8874 40.5731C95.8378 34.1749 102.179 29.6857 108.197 31.8583L217.091 71.1703C220.684 72.4674 223.1 75.8519 223.159 79.6714L223.774 119.31C223.873 125.734 217.52 130.274 211.475 128.1L102.274 88.819C98.6512 87.5159 96.2248 84.0929 96.195 80.2431L95.8874 40.5731Z" fill="#3A71B3"/>
<path d="M74.3754 102.927C74.3106 96.4401 80.8051 91.93 86.8604 94.2565L195.175 135.872C198.694 137.224 201.031 140.589 201.068 144.359L201.151 152.622C201.216 159.108 194.721 163.618 188.666 161.292L80.3513 119.676C76.8321 118.324 74.4958 114.96 74.4581 111.19L74.3754 102.927Z" fill="#3A71B3"/>
<path d="M223.644 120.622C223.429 112.424 213.398 108.591 207.772 114.557L186.133 137.502C184.525 139.207 183.629 141.462 183.629 143.807L183.629 152.576C183.629 160.842 193.691 164.906 199.431 158.958L221.306 136.291C223.017 134.518 223.944 132.133 223.88 129.67L223.644 120.622Z" fill="#3A71B3"/>
<path d="M93.4309 77.1048C95.9582 74.2739 99.9656 73.2876 103.518 74.6222L204.534 112.571C210.579 114.842 212.458 122.476 208.157 127.294L195.372 141.616C192.844 144.447 188.837 145.433 185.285 144.098L84.2689 106.149C78.2235 103.878 76.3447 96.2443 80.6453 91.4268L93.4309 77.1048Z" fill="#6096D6"/>
<rect x="70.7285" y="82.7773" width="35.1914" height="28.272" transform="rotate(-42.4168 70.7285 82.7773)" fill="#304967"/>
<path d="M94.4066 94.9504C94.4066 102.179 88.482 106.586 81.1736 105.254C73.8652 103.921 68.6758 96.6094 68.6758 89.381C68.6758 82.1527 73.8652 77.745 81.1736 79.0776C88.482 80.4102 94.4066 87.7221 94.4066 94.9504Z" fill="#3A71B3"/>
<path d="M118.299 72.8938C118.299 80.1221 112.375 84.5298 105.066 83.1972C97.7578 81.8646 92.5684 74.5527 92.5684 67.3244C92.5684 60.096 97.7578 55.6884 105.066 57.021C112.375 58.3536 118.299 65.6654 118.299 72.8938Z" fill="#304967"/>
<rect x="175.488" y="124.131" width="35.1914" height="28.272" transform="rotate(-42.4168 175.488 124.131)" fill="#304967"/>
<path d="M199.168 136.301C199.168 143.529 193.244 147.937 185.935 146.604C178.627 145.272 173.438 137.96 173.438 130.732C173.438 123.503 178.627 119.096 185.935 120.428C193.244 121.761 199.168 129.073 199.168 136.301Z" fill="#3A71B3"/>
<path d="M223.061 114.247C223.061 121.476 217.136 125.883 209.828 124.551C202.52 123.218 197.33 115.906 197.33 108.678C197.33 101.45 202.52 97.0419 209.828 98.3745C217.136 99.7071 223.061 107.019 223.061 114.247Z" fill="#304967"/>
<rect width="34.0583" height="34.7829" rx="12.6996" transform="matrix(-1 0 0 1 163.609 11.2466)" fill="black"/>
<path d="M160.328 107.126C163.332 105.269 164.244 101.319 162.358 98.3331L156.616 89.2439C154.542 85.9614 150.034 85.2921 147.096 87.8305L115.294 115.307C112.919 117.359 112.399 120.838 114.071 123.494L116.254 126.963C118.111 129.914 122.001 130.815 124.967 128.982L160.328 107.126Z" fill="#6B6E70"/>
<path d="M151.965 94.4042C155.399 92.5236 156.44 87.8911 154.145 84.7034L148.579 76.9704C146.611 74.2352 142.911 73.6298 140.161 75.5931L102.342 102.596C99.4879 104.634 98.7126 108.676 100.61 111.625L102.747 114.946C104.488 117.651 107.911 118.531 110.716 116.995L151.965 94.4042Z" fill="#6B6E70"/>
<path d="M137.944 109.915C138.11 106.387 135.367 103.402 131.838 103.27L121.094 102.869C117.214 102.724 114.114 106.064 114.547 109.923L119.236 151.689C119.586 154.808 122.162 157.203 125.298 157.325L129.394 157.485C132.878 157.621 135.82 154.923 135.984 151.44L137.944 109.915Z" fill="#6B6E70"/>
<path d="M119.998 113.962C121.197 110.199 118.69 106.099 114.779 105.426L105.561 103.841C102.217 103.266 99.139 105.457 98.5794 108.81L92.5752 144.793C91.998 148.252 94.3084 151.659 97.7355 152.402L101.725 153.268C104.813 153.937 107.813 152.214 108.765 149.225L119.998 113.962Z" fill="#6B6E70"/>
<path d="M163.6 97.3102C163.6 93.8022 160.755 90.9575 157.247 90.9575H129.357C125.851 90.9575 123.01 93.7987 123.01 97.3044L123.01 117.352C123.01 121.87 127.595 124.945 131.774 123.229L159.664 111.777C162.045 110.799 163.6 108.48 163.6 105.905L163.6 97.3102Z" fill="#6B6E70"/>
<rect width="9.52391" height="15.8561" rx="4.76196" transform="matrix(0.258819 0.965926 0.966087 -0.258218 96.5488 89.7305)" fill="#F4C498"/>
<path fill-rule="evenodd" clip-rule="evenodd" d="M134.905 55.9618C134.585 54.571 133.468 53.5285 132.09 53.1593C128.358 52.1592 124.672 56.8303 125.069 60.6758C125.349 63.3879 125.149 66.2023 124.402 69.0016C123.116 73.824 120.404 77.8744 116.856 80.8019C114.19 83.0016 113.286 87.2575 115.733 89.7033C117.084 91.0537 119.133 91.5038 120.788 90.5549C127.048 86.9669 132.245 80.2278 134.516 71.7112C135.974 66.2425 136.022 60.8053 134.905 55.9618Z" fill="#F4C498"/>
<path fill-rule="evenodd" clip-rule="evenodd" d="M134.233 55.0984C133.831 53.7918 132.697 52.8684 131.357 52.6056C127.62 51.8733 124.257 56.9903 124.905 60.7439C125.318 63.1368 125.312 65.6312 124.824 68.1385C124.684 68.8581 124.984 69.6032 125.613 69.9798L130.353 72.8156C132.175 73.9061 134.542 73.0144 134.947 70.9305C136.036 65.3389 135.701 59.8766 134.233 55.0984Z" fill="#DF3A1F"/>
<path d="M163.465 58.6295C163.465 53.1665 158.879 48.8229 153.424 49.1188L135.788 50.0753C130.802 50.3457 126.871 54.4214 126.781 59.4144L126.385 81.382C126.292 86.5641 130.359 90.8697 135.538 91.0712L153.57 91.7728C158.971 91.983 163.465 87.6609 163.465 82.2553V58.6295Z" fill="#DF3A1F"/>
<rect width="9.52029" height="15.8621" rx="4.76014" transform="matrix(0.610433 0.792068 0.791333 -0.611386 142.057 103.423)" fill="#F4C498"/>
<path fill-rule="evenodd" clip-rule="evenodd" d="M161.167 51.7469C160.11 50.8842 158.657 50.7468 157.398 51.2733C153.886 52.7413 153.925 58.8717 156.543 61.6329C158.215 63.396 159.594 65.4777 160.578 67.839C163.29 74.3492 162.384 81.503 158.775 87.2036C157.279 89.568 157.012 92.6752 158.724 94.886C160.32 96.9457 163.198 97.6852 165.215 96.0339C173.106 89.5733 175.582 76.632 170.541 64.5349C168.348 59.2706 165.039 54.9075 161.167 51.7469Z" fill="#F4C498"/>
<path fill-rule="evenodd" clip-rule="evenodd" d="M161.169 51.7474C160.112 50.8846 158.659 50.7472 157.4 51.2737C153.888 52.7418 153.927 58.8719 156.545 61.6332C158.217 63.3962 159.596 65.4779 160.579 67.839C160.867 68.5299 161.543 68.993 162.29 68.9556L167.749 68.6822C169.881 68.5754 171.364 66.5064 170.543 64.535C168.349 59.2709 165.042 54.908 161.169 51.7474Z" fill="#DF3A1F"/>
<rect width="32.0266" height="28.5741" rx="12.6996" transform="matrix(-1 0 0 1 161.291 18.0952)" fill="black"/>
<rect width="15.8548" height="23.1768" rx="7.92738" transform="matrix(-1 0 0 1 145.121 17.1426)" fill="black"/>
<path d="M129.834 28.5801C129.834 41.0705 132.471 45.7805 140.461 45.7805C148.45 45.7805 160.955 40.1348 160.955 31.2558C160.955 22.3767 150.728 10.9976 142.738 10.9976C134.748 10.9976 129.834 17.1572 129.834 28.5801Z" fill="#F4C498"/>
<path d="M152.275 41.2722C152.275 37.7653 149.432 34.9224 145.926 34.9224H145.307C141.8 34.9224 138.957 37.7653 138.957 41.2722V46.6695C138.957 50.1764 141.8 53.0193 145.307 53.0193H145.926C149.432 53.0193 152.275 50.1764 152.275 46.6695V41.2722Z" fill="#F4C498"/>
<path fill-rule="evenodd" clip-rule="evenodd" d="M160.389 31.2956C161.936 23.4697 157.37 15.8895 150.049 14.2546C147.502 13.6857 144.951 13.9105 142.627 14.7718C141.08 22.5977 145.646 30.1779 152.967 31.8128C155.515 32.3817 158.065 32.1569 160.389 31.2956Z" fill="black"/>
<path fill-rule="evenodd" clip-rule="evenodd" d="M134.338 14.1076C138.474 10.3419 144.169 8.67251 149.717 10.1619C157.178 12.1649 162.018 19.2482 161.935 27.0967C158.072 29.7454 152.688 30.6978 147.284 29.2471C139.478 27.1516 134.21 20.734 134.338 14.1076Z" fill="black"/>
<path fill-rule="evenodd" clip-rule="evenodd" d="M152.237 44.5648C155.971 37.7527 154.334 28.7277 147.873 23.0465C142.691 18.4903 135.78 17.2927 130.015 19.3633C130.558 18.3729 131.214 17.4293 131.986 16.5496C138.064 9.61856 148.992 9.275 156.393 15.7822C163.794 22.2894 164.865 33.1832 158.787 40.1142C156.964 42.1923 154.706 43.6781 152.237 44.5648Z" fill="black"/>
<path fill-rule="evenodd" clip-rule="evenodd" d="M148.595 35.6227C149.089 37.4687 151.446 38.0118 152.813 36.6759C154.251 35.2712 154.919 33.2331 154.389 31.2514C153.896 29.4054 151.538 28.8624 150.171 30.1982C148.734 31.6029 148.065 33.641 148.595 35.6227Z" fill="#F4C498"/>
<path d="M127.293 34.4909L129.656 27.1179C130.133 25.6298 132.303 25.8463 132.476 27.3994L133.442 36.0371C133.562 37.1146 132.5 37.938 131.487 37.5529L128.158 36.2881C127.438 36.0144 127.057 35.2248 127.293 34.4909Z" fill="#F4C498"/>
<rect x="137.018" y="26.9399" width="3.62322" height="5.43483" rx="1.81161" fill="black"/>
<rect width="2.3683" height="6.26597" rx="1.18415" transform="matrix(4.37114e-08 -1 0.999907 0.0136318 134.221 23.9668)" fill="black"/>
<path d="M138.104 39.2586C136.842 41.1612 134.481 41.7948 132.829 41.8858L132.467 41.5234C135.205 42.1571 138.104 39.2586 138.104 39.2586Z" stroke="black" stroke-width="2.39133" stroke-linecap="round" stroke-linejoin="round"/>
<path d="M113.423 162.211C110.969 162.5 109.119 164.58 109.119 167.051C109.119 169.743 111.301 171.925 113.993 171.925L130.245 171.925C133.463 171.925 136.072 169.316 136.072 166.097C136.072 162.609 133.028 159.902 129.563 160.31L113.423 162.211Z" fill="#04C439"/>
<path d="M85.0667 154.54C82.6025 154.357 80.3924 156.048 79.9238 158.474C79.4133 161.117 81.1417 163.674 83.7842 164.186L99.7411 167.276C102.901 167.888 105.957 165.822 106.567 162.662C107.229 159.237 104.753 156 101.275 155.742L85.0667 154.54Z" fill="#04C439"/>
<mask id="path-41-outside-2" maskUnits="userSpaceOnUse" x="72.1621" y="1.62061" width="108" height="178" fill="black">
<rect fill="white" x="72.1621" y="1.62061" width="108" height="178"/>
<path fill-rule="evenodd" clip-rule="evenodd" d="M152.914 11.4041C158.975 12.3657 163.608 17.6149 163.608 23.9462V33.3299C163.608 39.5879 159.082 44.7886 153.124 45.8369C152.846 45.9433 152.563 46.0401 152.276 46.1271V46.6697C152.276 47.5731 152.087 48.4323 151.747 49.2103L153.424 49.1194C155.779 48.9917 157.971 49.7284 159.703 51.0466C160.231 51.1603 160.733 51.3924 161.168 51.7473C165.04 54.9079 168.348 59.2709 170.541 64.5353C175.582 76.6324 173.106 89.5737 165.215 96.0343C164.713 96.4458 164.157 96.7088 163.58 96.84C163.592 96.9952 163.597 97.1519 163.597 97.31V105.905C163.597 108.48 162.043 110.799 159.662 111.776L139.227 120.167L137.406 121.293L135.983 151.44C135.819 154.923 132.877 157.622 129.393 157.485L125.297 157.326C122.161 157.203 119.585 154.808 119.235 151.689L116.5 127.328C116.414 127.21 116.332 127.088 116.253 126.963L115.989 126.543L108.764 149.225C107.811 152.215 104.811 153.937 101.724 153.268L97.7341 152.402C94.3069 151.659 91.9965 148.252 92.5737 144.793L98.5779 108.811C98.7682 107.67 99.2498 106.664 99.934 105.855C100.368 104.577 101.184 103.422 102.34 102.596L118.521 91.0432C117.499 90.9508 116.502 90.4736 115.732 89.7038C113.285 87.258 114.189 83.0022 116.855 80.8025C120.403 77.875 123.116 73.8246 124.402 69.0021C124.903 67.1209 125.158 65.233 125.186 63.3738C125.149 62.4868 125.055 61.6088 124.906 60.7441C124.349 57.5224 126.748 53.2964 129.802 52.6264C131.383 51.1481 133.472 50.2015 135.788 50.0759L139.814 49.8575C139.27 48.9206 138.958 47.8316 138.958 46.6697V46.3113C137.665 45.9974 136.449 45.4857 135.345 44.8101C134.454 44.3829 133.687 43.8078 133.034 43.0713C132.987 43.0745 132.941 43.0774 132.896 43.0799C132.557 43.0986 132.225 42.972 131.985 42.7318L131.622 42.3695C131.261 42.0086 131.171 41.4604 131.39 41.005C130.556 39.7529 129.937 38.3442 129.589 36.8323L128.158 36.2885C127.437 36.0147 127.057 35.2251 127.292 34.4913L129.266 28.3354V25.0702C129.266 24.2719 129.384 23.5011 129.603 22.7744C129.717 21.5251 130.013 20.3281 130.462 19.2099C130.312 19.2589 130.163 19.3101 130.014 19.3635C130.48 18.5142 131.029 17.6993 131.662 16.9296C132.579 15.5495 133.758 14.3589 135.129 13.4291C139.183 10.1465 144.515 8.76547 149.718 10.1621C150.846 10.465 151.914 10.8839 152.914 11.4041ZM132.307 42.217L132.249 42.4675L132.198 42.6886C132.398 42.7348 132.597 42.7669 132.794 42.7865C132.746 42.7263 132.698 42.6652 132.651 42.603C132.534 42.4767 132.419 42.348 132.307 42.217ZM101.149 88.5013C98.6084 89.1804 97.1005 91.7903 97.7812 94.3306C98.4619 96.871 101.073 98.3798 103.614 97.7007L109.732 96.0656C112.272 95.3865 113.78 92.7766 113.1 90.2363C112.419 87.696 109.807 86.1871 107.267 86.8662L101.149 88.5013ZM113.422 162.211C110.968 162.5 109.118 164.581 109.118 167.052C109.118 169.743 111.301 171.925 113.992 171.925H130.244C133.462 171.925 136.072 169.316 136.072 166.098C136.072 162.609 133.027 159.902 129.562 160.31L113.422 162.211ZM79.9238 158.474C80.3924 156.048 82.6025 154.358 85.0667 154.54L101.275 155.742C104.753 156 107.229 159.237 106.567 162.662C105.957 165.822 102.901 167.888 99.7411 167.276L83.7842 164.186C81.1417 163.674 79.4133 161.117 79.9238 158.474Z"/>
</mask>
<path d="M152.914 11.4041L151.817 18.3176C151.073 18.1996 150.353 17.9621 149.684 17.6145L152.914 11.4041ZM153.124 45.8369L150.626 39.2981C151.042 39.139 151.472 39.02 151.911 38.9428L153.124 45.8369ZM152.276 46.1271H145.276C145.276 43.0419 147.295 40.3206 150.248 39.4271L152.276 46.1271ZM151.747 49.2103L152.126 56.2C149.7 56.3316 147.38 55.1962 145.995 53.2001C144.611 51.2041 144.36 48.6329 145.333 46.407L151.747 49.2103ZM153.424 49.1194L153.045 42.1296H153.045L153.424 49.1194ZM159.703 51.0466L158.229 57.8896C157.225 57.6733 156.281 57.2387 155.464 56.6167L159.703 51.0466ZM161.168 51.7473L156.741 57.1702L156.741 57.1702L161.168 51.7473ZM170.541 64.5353L164.08 67.2277L170.541 64.5353ZM165.215 96.0343L160.781 90.6181L160.781 90.6181L165.215 96.0343ZM163.58 96.84L156.599 97.3508C156.346 93.8997 158.653 90.7819 162.028 90.0143L163.58 96.84ZM159.662 111.776L157.003 105.301H157.003L159.662 111.776ZM139.227 120.167L135.547 114.213C135.872 114.012 136.214 113.837 136.568 113.692L139.227 120.167ZM137.406 121.293L130.414 120.963C130.523 118.657 131.762 116.552 133.726 115.338L137.406 121.293ZM135.983 151.44L128.991 151.11L135.983 151.44ZM129.393 157.485L129.12 164.48H129.12L129.393 157.485ZM125.297 157.326L125.57 150.331H125.57L125.297 157.326ZM119.235 151.689L126.191 150.908L119.235 151.689ZM116.5 127.328L122.156 123.203C122.873 124.186 123.321 125.338 123.457 126.547L116.5 127.328ZM116.253 126.963L110.328 130.692L110.328 130.692L116.253 126.963ZM115.989 126.543L109.319 124.419C110.146 121.824 112.403 119.944 115.104 119.599C117.806 119.255 120.462 120.51 121.913 122.815L115.989 126.543ZM108.764 149.225L115.433 151.35L108.764 149.225ZM101.724 153.268L103.208 146.427H103.208L101.724 153.268ZM97.7341 152.402L96.2501 159.243H96.2501L97.7341 152.402ZM92.5737 144.793L99.4782 145.945V145.945L92.5737 144.793ZM98.5779 108.811L91.6734 107.658L98.5779 108.811ZM99.934 105.855L106.562 108.107C106.28 108.938 105.844 109.708 105.277 110.377L99.934 105.855ZM102.34 102.596L98.2727 96.899L98.2727 96.899L102.34 102.596ZM118.521 91.0432L119.151 84.0716C122.066 84.3352 124.51 86.385 125.276 89.2101C126.043 92.0353 124.971 95.0391 122.588 96.7401L118.521 91.0432ZM115.732 89.7038L110.784 94.6552L110.784 94.6551L115.732 89.7038ZM116.855 80.8025L121.31 86.2017L121.31 86.2018L116.855 80.8025ZM124.402 69.0021L117.638 67.1988V67.1988L124.402 69.0021ZM125.186 63.3738L132.18 63.0835C132.186 63.2157 132.187 63.348 132.185 63.4804L125.186 63.3738ZM124.906 60.7441L131.804 59.5531V59.5531L124.906 60.7441ZM129.802 52.6264L134.581 57.7404C133.663 58.5989 132.53 59.1942 131.302 59.4637L129.802 52.6264ZM135.788 50.0759L136.167 57.0656H136.167L135.788 50.0759ZM139.814 49.8575L145.865 46.3382C147.091 48.445 147.132 51.0374 145.974 53.1822C144.817 55.3269 142.627 56.7152 140.194 56.8472L139.814 49.8575ZM138.958 46.3113L140.609 39.509C143.748 40.2711 145.957 43.0816 145.957 46.3113H138.958ZM135.345 44.8101L138.369 38.4968C138.585 38.6002 138.795 38.7145 138.999 38.8393L135.345 44.8101ZM133.034 43.0713L132.544 36.0884C134.713 35.9362 136.83 36.8007 138.272 38.4279L133.034 43.0713ZM132.896 43.0799L133.281 50.0693L133.281 50.0693L132.896 43.0799ZM131.985 42.7318L127.037 47.6834L127.037 47.6834L131.985 42.7318ZM131.622 42.3695L136.57 37.4179L136.57 37.4179L131.622 42.3695ZM131.39 41.005L137.215 37.1223C138.588 39.1822 138.771 41.8143 137.696 44.0444L131.39 41.005ZM129.589 36.8323L132.075 30.2887C134.26 31.1187 135.886 32.9839 136.41 35.2609L129.589 36.8323ZM128.158 36.2885L125.671 42.8321L125.671 42.8321L128.158 36.2885ZM127.292 34.4913L120.626 32.3545L120.626 32.3545L127.292 34.4913ZM129.266 28.3354H136.266C136.266 29.0606 136.153 29.7815 135.931 30.4721L129.266 28.3354ZM129.603 22.7744L136.574 23.4121C136.531 23.8822 136.441 24.3468 136.304 24.7986L129.603 22.7744ZM130.462 19.2099L128.289 12.556C130.874 11.7112 133.716 12.4411 135.574 14.4278C137.433 16.4145 137.972 19.298 136.957 21.822L130.462 19.2099ZM130.014 19.3635L132.381 25.9514C129.643 26.9347 126.583 26.1224 124.693 23.911C122.803 21.6995 122.478 18.5497 123.876 15.9989L130.014 19.3635ZM131.662 16.9296L137.494 20.8021C137.362 21.0013 137.219 21.1935 137.067 21.3781L131.662 16.9296ZM135.129 13.4291L139.534 18.8696C139.38 18.9937 139.222 19.1113 139.059 19.222L135.129 13.4291ZM149.718 10.1621L151.532 3.40149H151.532L149.718 10.1621ZM132.249 42.4675L125.429 40.8895L125.429 40.8894L132.249 42.4675ZM132.307 42.217L125.487 40.6388C126.083 38.0647 128.077 36.0453 130.644 35.4175C133.21 34.7896 135.911 35.6603 137.628 37.6688L132.307 42.217ZM132.198 42.6886L130.62 49.5084C128.811 49.0899 127.243 47.97 126.26 46.3951C125.277 44.8202 124.96 42.9193 125.378 41.1105L132.198 42.6886ZM132.794 42.7865L138.25 38.4017C140.016 40.5991 140.292 43.6414 138.949 46.1203C137.606 48.5991 134.908 50.0307 132.103 49.7523L132.794 42.7865ZM132.651 42.603L137.784 37.8432C137.942 38.0142 138.092 38.193 138.233 38.3789L132.651 42.603ZM97.7812 94.3306L91.0197 96.1424L91.0197 96.1424L97.7812 94.3306ZM101.149 88.5013L102.957 95.2639L102.957 95.2639L101.149 88.5013ZM103.614 97.7007L105.422 104.463L105.422 104.463L103.614 97.7007ZM109.732 96.0656L107.924 89.303H107.924L109.732 96.0656ZM113.1 90.2363L106.338 92.048L113.1 90.2363ZM107.267 86.8662L105.459 80.1036H105.459L107.267 86.8662ZM113.422 162.211L112.603 155.259H112.603L113.422 162.211ZM129.562 160.31L128.743 153.358L128.743 153.358L129.562 160.31ZM85.0667 154.54L85.5843 147.559H85.5844L85.0667 154.54ZM79.9238 158.474L73.0508 157.147V157.147L79.9238 158.474ZM101.275 155.742L101.792 148.761H101.792L101.275 155.742ZM106.567 162.662L99.6945 161.334L106.567 162.662ZM99.7411 167.276L101.072 160.404L99.7411 167.276ZM83.7842 164.186L82.4535 171.058L82.4535 171.058L83.7842 164.186ZM156.608 23.9462C156.608 21.1113 154.532 18.7483 151.817 18.3176L154.011 4.49057C163.418 5.98308 170.608 14.1184 170.608 23.9462H156.608ZM156.608 33.3299V23.9462H170.608V33.3299H156.608ZM151.911 38.9428C154.58 38.4732 156.608 36.1313 156.608 33.3299H170.608C170.608 43.0445 163.583 51.104 154.337 52.731L151.911 38.9428ZM150.248 39.4271C150.376 39.3885 150.502 39.3454 150.626 39.2981L155.623 52.3757C155.19 52.5411 154.75 52.6918 154.303 52.8271L150.248 39.4271ZM145.276 46.6697V46.1271H159.276V46.6697H145.276ZM145.333 46.407C145.294 46.4964 145.276 46.5902 145.276 46.6697H159.276C159.276 48.556 158.88 50.3683 158.161 52.0136L145.333 46.407ZM153.803 56.1091L152.126 56.2L151.368 42.2206L153.045 42.1296L153.803 56.1091ZM155.464 56.6167C155.002 56.2657 154.435 56.0748 153.803 56.1091L153.045 42.1296C157.122 41.9085 160.94 43.1911 163.943 45.4765L155.464 56.6167ZM156.741 57.1702C157.204 57.5478 157.725 57.7811 158.229 57.8896L161.177 44.2035C162.737 44.5394 164.262 45.237 165.594 46.3243L156.741 57.1702ZM164.08 67.2277C162.315 62.993 159.692 59.579 156.741 57.1702L165.594 46.3243C170.387 50.2368 174.38 55.5489 177.003 61.8429L164.08 67.2277ZM160.781 90.6181C165.67 86.6152 168.265 77.2711 164.08 67.2277L177.003 61.8429C182.899 75.9937 180.542 92.5322 169.65 101.45L160.781 90.6181ZM162.028 90.0143C161.558 90.1212 161.125 90.3363 160.781 90.6181L169.65 101.45C168.301 102.555 166.756 103.296 165.133 103.666L162.028 90.0143ZM156.597 97.31C156.597 97.3225 156.598 97.3362 156.599 97.3508L170.562 96.3291C170.585 96.6542 170.597 96.9813 170.597 97.31H156.597ZM156.597 105.905V97.31H170.597V105.905H156.597ZM157.003 105.301C156.757 105.402 156.597 105.641 156.597 105.905H170.597C170.597 111.318 167.329 116.195 162.321 118.252L157.003 105.301ZM136.568 113.692L157.003 105.301L162.321 118.252L141.886 126.643L136.568 113.692ZM133.726 115.338L135.547 114.213L142.907 126.122L141.086 127.247L133.726 115.338ZM128.991 151.11L130.414 120.963L144.398 121.623L142.976 151.77L128.991 151.11ZM129.666 150.491C129.309 150.477 129.008 150.753 128.991 151.11L142.976 151.77C142.63 159.092 136.445 164.766 129.12 164.48L129.666 150.491ZM125.57 150.331L129.666 150.491L129.12 164.48L125.024 164.32L125.57 150.331ZM126.191 150.908C126.155 150.589 125.892 150.343 125.57 150.331L125.024 164.32C118.431 164.063 113.015 159.027 112.279 152.47L126.191 150.908ZM123.457 126.547L126.191 150.908L112.279 152.47L109.544 128.109L123.457 126.547ZM122.177 123.234C122.171 123.225 122.164 123.214 122.156 123.203L110.845 131.453C110.665 131.206 110.493 130.952 110.328 130.692L122.177 123.234ZM121.913 122.815L122.177 123.235L110.328 130.692L110.064 130.272L121.913 122.815ZM102.094 147.1L109.319 124.419L122.659 128.668L115.433 151.35L102.094 147.1ZM103.208 146.427C103.046 146.392 102.798 146.411 102.558 146.548C102.317 146.687 102.156 146.905 102.094 147.1L115.433 151.35C113.374 157.816 106.816 161.535 100.24 160.109L103.208 146.427ZM99.218 145.561L103.208 146.427L100.24 160.109L96.2501 159.243L99.218 145.561ZM99.4782 145.945C99.505 145.785 99.4528 145.698 99.4456 145.687C99.4385 145.676 99.3768 145.596 99.218 145.561L96.2501 159.243C89.1731 157.708 84.4773 150.784 85.6692 143.641L99.4782 145.945ZM105.482 109.963L99.4782 145.945L85.6692 143.641L91.6734 107.658L105.482 109.963ZM105.277 110.377C105.404 110.228 105.464 110.071 105.482 109.963L91.6734 107.658C92.072 105.269 93.0954 103.1 94.5907 101.333L105.277 110.377ZM106.408 108.293C106.513 108.218 106.553 108.135 106.562 108.107L93.306 103.604C94.184 101.019 95.8542 98.6258 98.2727 96.899L106.408 108.293ZM122.588 96.7401L106.408 108.293L98.2727 96.899L114.453 85.3463L122.588 96.7401ZM120.68 84.7525C120.362 84.4342 119.857 84.1354 119.151 84.0716L117.89 98.0147C115.142 97.7663 112.643 96.513 110.784 94.6552L120.68 84.7525ZM121.31 86.2018C121.342 86.1752 121.33 86.1778 121.307 86.2185C121.283 86.2609 121.287 86.2743 121.295 86.2268C121.302 86.1787 121.322 85.9925 121.241 85.7025C121.152 85.3868 120.966 85.0378 120.68 84.7526L110.784 94.6551C107.675 91.5484 106.937 87.4777 107.458 84.0949C107.968 80.7821 109.719 77.6152 112.4 75.4033L121.31 86.2018ZM131.165 70.8054C129.494 77.0728 125.955 82.3687 121.31 86.2017L112.4 75.4033C114.85 73.3812 116.737 70.5764 117.638 67.1988L131.165 70.8054ZM132.185 63.4804C132.149 65.9084 131.816 68.3664 131.165 70.8054L117.638 67.1988C117.991 65.8755 118.167 64.5575 118.187 63.2673L132.185 63.4804ZM131.804 59.5531C132.004 60.7126 132.131 61.8913 132.18 63.0835L118.192 63.6642C118.168 63.0822 118.106 62.505 118.008 61.9351L131.804 59.5531ZM131.302 59.4637C131.854 59.3425 132.13 59.1196 132.165 59.0906C132.19 59.0693 132.181 59.0731 132.149 59.1123C132.117 59.1508 132.073 59.2102 132.026 59.2897C131.925 59.4611 131.861 59.6345 131.834 59.7544C131.822 59.8081 131.823 59.8238 131.825 59.7991C131.826 59.7748 131.827 59.6899 131.804 59.5531L118.008 61.9351C117.381 58.308 118.435 54.7704 119.974 52.1671C121.478 49.6209 124.231 46.6822 128.301 45.7891L131.302 59.4637ZM136.167 57.0656C135.549 57.0991 135.004 57.3451 134.581 57.7404L125.022 47.5124C127.762 44.9512 131.394 43.3039 135.409 43.0861L136.167 57.0656ZM140.194 56.8472L136.167 57.0656L135.409 43.0861L139.435 42.8678L140.194 56.8472ZM145.957 46.6697C145.957 46.5623 145.925 46.4412 145.865 46.3382L133.763 53.3767C132.614 51.4 131.958 49.1009 131.958 46.6697H145.957ZM145.957 46.3113V46.6697H131.958V46.3113H145.957ZM138.999 38.8393C139.494 39.1423 140.036 39.3697 140.609 39.509L137.306 53.1136C135.294 52.6251 133.405 51.8291 131.692 50.7808L138.999 38.8393ZM138.272 38.4279C138.294 38.4523 138.304 38.4599 138.307 38.4617C138.309 38.4636 138.326 38.4761 138.369 38.4968L132.322 51.1233C130.6 50.2986 129.077 49.16 127.796 47.7146L138.272 38.4279ZM132.51 36.0905C132.521 36.0899 132.533 36.0892 132.544 36.0884L133.524 50.0541C133.442 50.0598 133.361 50.0649 133.281 50.0693L132.51 36.0905ZM136.933 37.7803C135.766 36.6142 134.158 35.9997 132.511 36.0905L133.281 50.0693C130.955 50.1975 128.685 49.3299 127.037 47.6834L136.933 37.7803ZM136.57 37.4179L136.933 37.7803L127.037 47.6834L126.674 47.321L136.57 37.4179ZM137.696 44.0444C138.763 41.8307 138.324 39.1707 136.57 37.4179L126.674 47.321C124.198 44.8465 123.578 41.0902 125.084 37.9655L137.696 44.0444ZM136.41 35.2609C136.565 35.9317 136.84 36.5596 137.215 37.1223L125.566 44.8876C124.272 42.9462 123.31 40.7567 122.768 38.4037L136.41 35.2609ZM130.644 29.7449L132.075 30.2887L127.103 43.3759L125.671 42.8321L130.644 29.7449ZM133.958 36.628C134.859 33.8174 133.403 30.7932 130.644 29.7449L125.671 42.8321C121.472 41.2363 119.255 36.6329 120.626 32.3545L133.958 36.628ZM135.931 30.4721L133.958 36.628L120.626 32.3545L122.6 26.1986L135.931 30.4721ZM136.266 25.0702V28.3354H122.266V25.0702H136.266ZM136.304 24.7986C136.281 24.8761 136.266 24.9651 136.266 25.0702H122.266C122.266 23.5787 122.487 22.1262 122.902 20.7502L136.304 24.7986ZM136.957 21.822C136.757 22.3181 136.625 22.8506 136.574 23.4121L122.632 22.1366C122.809 20.1996 123.268 18.3382 123.968 16.5979L136.957 21.822ZM127.648 12.7755C127.861 12.6992 128.074 12.626 128.289 12.556L132.636 25.8638C132.55 25.8918 132.465 25.921 132.381 25.9514L127.648 12.7755ZM137.067 21.3781C136.714 21.8073 136.41 22.2589 136.153 22.7281L123.876 15.9989C124.55 14.7696 125.344 13.5914 126.258 12.4812L137.067 21.3781ZM139.059 19.222C138.44 19.6414 137.907 20.1799 137.494 20.8021L125.831 13.0571C127.251 10.9191 129.076 9.07629 131.199 7.63624L139.059 19.222ZM147.903 16.9228C145.064 16.1607 142.012 16.8626 139.534 18.8696L130.724 7.98866C136.354 3.43038 143.966 1.3702 151.532 3.40149L147.903 16.9228ZM149.684 17.6145C149.13 17.3264 148.536 17.0928 147.903 16.9228L151.532 3.40149C153.155 3.83708 154.697 4.44145 156.144 5.19367L149.684 17.6145ZM125.429 40.8894L125.487 40.6388L139.127 43.7951L139.069 44.0456L125.429 40.8894ZM125.378 41.1105L125.429 40.8895L139.069 44.0456L139.018 44.2667L125.378 41.1105ZM132.103 49.7523C131.617 49.7041 131.121 49.6244 130.62 49.5084L133.776 35.8688C133.674 35.8452 133.576 35.8298 133.485 35.8207L132.103 49.7523ZM138.233 38.3789C138.239 38.3873 138.245 38.3948 138.25 38.4017L127.337 47.1713C127.246 47.0578 127.157 46.943 127.069 46.8271L138.233 38.3789ZM137.628 37.6688C137.679 37.728 137.731 37.7862 137.784 37.8432L127.518 47.3628C127.337 47.1672 127.159 46.968 126.986 46.7651L137.628 37.6688ZM91.0197 96.1424C89.338 89.8661 93.0643 83.4165 99.3416 81.7387L102.957 95.2639C104.152 94.9443 104.863 93.7145 104.543 92.5189L91.0197 96.1424ZM105.422 104.463C99.1476 106.14 92.7005 102.415 91.0197 96.1424L104.543 92.5189C104.223 91.3266 102.999 90.6194 101.807 90.9381L105.422 104.463ZM111.539 102.828L105.422 104.463L101.807 90.9381L107.924 89.303L111.539 102.828ZM119.861 88.4246C121.543 94.7008 117.816 101.15 111.539 102.828L107.924 89.303C106.728 89.6226 106.018 90.8525 106.338 92.048L119.861 88.4246ZM105.459 80.1036C111.733 78.4267 118.18 82.1516 119.861 88.4246L106.338 92.048C106.658 93.2403 107.882 93.9476 109.074 93.6288L105.459 80.1036ZM99.3416 81.7387L105.459 80.1036L109.074 93.6288L102.957 95.2639L99.3416 81.7387ZM102.118 167.052C102.118 161.031 106.624 155.964 112.603 155.259L114.241 169.163C115.312 169.037 116.118 168.13 116.118 167.052H102.118ZM113.992 178.925C107.435 178.925 102.118 173.609 102.118 167.052H116.118C116.118 165.877 115.167 164.925 113.992 164.925V178.925ZM130.244 178.925H113.992V164.925H130.244V178.925ZM143.072 166.098C143.072 173.182 137.328 178.925 130.244 178.925V164.925C129.596 164.925 129.072 165.45 129.072 166.098H143.072ZM128.743 153.358C136.37 152.46 143.072 158.418 143.072 166.098H129.072C129.072 166.8 129.684 167.344 130.381 167.262L128.743 153.358ZM112.603 155.259L128.743 153.358L130.381 167.262L114.241 169.163L112.603 155.259ZM84.5491 161.521C85.6259 161.601 86.5921 160.862 86.7967 159.802L73.0508 157.147C74.1927 151.235 79.5792 147.114 85.5843 147.559L84.5491 161.521ZM100.757 162.723L84.549 161.521L85.5844 147.559L101.792 148.761L100.757 162.723ZM99.6945 161.334C99.5617 162.022 100.058 162.671 100.757 162.723L101.792 148.761C109.449 149.329 114.896 156.451 113.44 163.99L99.6945 161.334ZM101.072 160.404C100.435 160.28 99.8175 160.697 99.6945 161.334L113.44 163.99C112.097 170.947 105.367 175.495 98.4104 174.148L101.072 160.404ZM85.1149 157.314L101.072 160.404L98.4104 174.148L82.4535 171.058L85.1149 157.314ZM86.7967 159.802C87.0192 158.65 86.2667 157.537 85.1149 157.314L82.4535 171.058C76.0167 169.812 71.8074 163.584 73.0508 157.147L86.7967 159.802Z" fill="black" mask="url(#path-41-outside-2)"/>
</g>
<defs>
<clipPath id="clip0">
<path d="M0 20C0 8.9543 8.9543 0 20 0H255C266.046 0 275 8.95431 275 20V155C275 166.046 266.046 175 255 175H20C8.9543 175 0 166.046 0 155V20Z" fill="white"/>
</clipPath>
</defs>
</svg>
