<svg width="275" height="175" viewBox="0 0 275 175" fill="none" xmlns="http://www.w3.org/2000/svg">
<g clip-path="url(#clip0)">
<path d="M0 20C0 8.9543 8.9543 0 20 0H255C266.046 0 275 8.95431 275 20V155C275 166.046 266.046 175 255 175H20C8.9543 175 0 166.046 0 155V20Z" fill="white"/>
<path d="M187.818 72.1447C188.11 70.5138 189.671 69.4231 191.29 69.7751C210.394 73.9284 227.374 84.8122 239.125 100.436C240.121 101.76 239.782 103.634 238.422 104.581L179.91 145.309C177.717 146.836 174.772 144.949 175.244 142.318L187.818 72.1447Z" fill="#FFE2C7"/>
<path fill-rule="evenodd" clip-rule="evenodd" d="M183.941 93.7864L186.942 77.0388C188.321 76.3731 189.867 76 191.501 76C197.3 76 202.001 80.701 202.001 86.5C202.001 92.299 197.3 97 191.501 97C188.532 97 185.85 95.7676 183.941 93.7864ZM177.115 131.877L180.618 112.329C183.83 114.125 186.001 117.559 186.001 121.5C186.001 126.75 182.148 131.1 177.115 131.877ZM222.802 115.454L207.006 126.449C204.003 124.601 202.001 121.285 202.001 117.5C202.001 111.701 206.702 107 212.501 107C217.6 107 221.85 110.634 222.802 115.454Z" fill="#DF3A1F"/>
<path fill-rule="evenodd" clip-rule="evenodd" d="M191.29 69.7751C189.671 69.4231 188.11 70.5138 187.818 72.1447L185.85 83.1302C203.124 87.242 218.57 96.8811 229.849 110.548L238.422 104.581C239.782 103.634 240.121 101.76 239.125 100.436C227.374 84.8122 210.394 73.9284 191.29 69.7751Z" fill="#C17A38"/>
<mask id="path-5-outside-1" maskUnits="userSpaceOnUse" x="167.193" y="61.709" width="80" height="92" fill="black">
<rect fill="white" x="167.193" y="61.709" width="80" height="92"/>
<path fill-rule="evenodd" clip-rule="evenodd" d="M187.818 72.1447C188.11 70.5138 189.671 69.4231 191.29 69.7751C205.618 72.8901 218.751 79.7909 229.38 89.638C232.922 92.9204 236.187 96.5301 239.125 100.436C239.125 100.436 239.125 100.436 239.125 100.436C239.249 100.602 239.353 100.776 239.436 100.956C239.538 101.175 239.609 101.402 239.652 101.633C239.854 102.728 239.405 103.897 238.422 104.581L222.801 115.454L207.005 126.449L179.91 145.309C177.717 146.836 174.772 144.949 175.244 142.318L177.115 131.877L180.617 112.329L183.94 93.7864L185.849 83.1302C185.849 83.1302 185.849 83.1302 185.849 83.1302L187.818 72.1447Z"/>
</mask>
<path d="M191.29 69.7751L189.803 76.6153H189.803L191.29 69.7751ZM187.818 72.1447L194.708 73.3793V73.3793L187.818 72.1447ZM229.38 89.638L234.137 84.5031L229.38 89.638ZM239.125 100.436L244.844 96.3993L244.783 96.313L244.719 96.2285L239.125 100.436ZM239.125 100.436L233.406 104.473L233.467 104.559L233.531 104.644L239.125 100.436ZM239.436 100.956L245.787 98.0106L245.787 98.0104L239.436 100.956ZM239.652 101.633L232.768 102.903L232.768 102.903L239.652 101.633ZM238.422 104.581L234.423 98.8356L234.423 98.8356L238.422 104.581ZM222.801 115.454L226.8 121.199L226.8 121.199L222.801 115.454ZM207.005 126.449L211.005 132.194H211.005L207.005 126.449ZM179.91 145.309L175.911 139.564L175.911 139.564L179.91 145.309ZM175.244 142.318L168.353 141.083L168.353 141.083L175.244 142.318ZM177.115 131.877L184.005 133.111L184.005 133.111L177.115 131.877ZM180.617 112.329L187.508 113.564L180.617 112.329ZM183.94 93.7864L177.05 92.5518L183.94 93.7864ZM185.849 83.1302L192.74 84.3648L193.919 77.7856L187.401 76.3043L185.849 83.1302ZM185.849 83.1302L178.959 81.8955L177.78 88.4748L184.298 89.9561L185.849 83.1302ZM192.777 62.9349C187.118 61.7046 181.89 65.5415 180.928 70.91L194.708 73.3793C194.331 75.4861 192.224 77.1417 189.803 76.6153L192.777 62.9349ZM234.137 84.5031C222.596 73.8109 208.336 66.3174 192.777 62.9349L189.803 76.6153C202.9 79.4627 214.906 85.771 224.622 94.773L234.137 84.5031ZM244.719 96.2285C241.529 91.9872 237.984 88.0674 234.137 84.5031L224.622 94.773C227.861 97.7734 230.845 101.073 233.531 104.644L244.719 96.2285ZM244.844 96.3994C244.817 96.3622 244.794 96.3297 244.774 96.3029C244.755 96.2761 244.738 96.2534 244.725 96.2362C244.712 96.219 244.702 96.2052 244.695 96.1969C244.692 96.1927 244.689 96.1893 244.688 96.1872C244.687 96.1862 244.686 96.1853 244.686 96.1848C244.686 96.1845 244.686 96.1843 244.686 96.1842C244.685 96.1841 244.685 96.1841 244.685 96.184C244.685 96.184 244.685 96.184 244.685 96.184C244.685 96.184 244.685 96.184 244.685 96.184C244.685 96.184 244.685 96.184 244.685 96.184C244.685 96.1837 244.686 96.1853 244.688 96.1872C244.689 96.1893 244.692 96.1927 244.695 96.1969C244.701 96.2051 244.712 96.2189 244.725 96.2361C244.738 96.2534 244.755 96.2761 244.774 96.3029C244.794 96.3297 244.817 96.3621 244.844 96.3993L233.406 104.473C233.432 104.51 233.456 104.543 233.475 104.569C233.495 104.596 233.512 104.619 233.525 104.636C233.538 104.653 233.548 104.667 233.554 104.675C233.558 104.68 233.56 104.683 233.562 104.685C233.563 104.686 233.563 104.687 233.564 104.687C233.564 104.688 233.564 104.688 233.564 104.688C233.564 104.688 233.564 104.688 233.564 104.688C233.564 104.688 233.564 104.688 233.564 104.688C233.564 104.688 233.564 104.688 233.564 104.688C233.564 104.688 233.564 104.688 233.564 104.688C233.565 104.689 233.563 104.687 233.562 104.685C233.56 104.683 233.558 104.68 233.554 104.675C233.548 104.667 233.538 104.653 233.525 104.636C233.512 104.619 233.495 104.596 233.475 104.569C233.456 104.543 233.432 104.51 233.406 104.473L244.844 96.3994ZM245.787 98.0104C245.497 97.3863 245.141 96.7889 244.719 96.2286L233.531 104.644C233.358 104.414 233.209 104.165 233.086 103.901L245.787 98.0104ZM246.536 100.363C246.388 99.5629 246.14 98.7718 245.787 98.0106L233.086 103.9C232.936 103.578 232.831 103.242 232.768 102.903L246.536 100.363ZM242.421 110.326C245.683 108.056 247.231 104.131 246.536 100.363L232.768 102.903C232.477 101.325 233.126 99.7379 234.423 98.8356L242.421 110.326ZM226.8 121.199L242.421 110.326L234.423 98.8356L218.802 109.709L226.8 121.199ZM211.005 132.194L226.8 121.199L218.802 109.709L203.006 120.704L211.005 132.194ZM183.91 151.055L211.005 132.194L203.006 120.704L175.911 139.564L183.91 151.055ZM168.353 141.083C166.782 149.853 176.598 156.144 183.91 151.055L175.911 139.564C178.836 137.528 182.762 140.045 182.134 143.553L168.353 141.083ZM170.224 130.642L168.353 141.083L182.134 143.553L184.005 133.111L170.224 130.642ZM173.727 111.094L170.224 130.642L184.005 133.111L187.508 113.564L173.727 111.094ZM177.05 92.5518L173.727 111.094L187.508 113.564L190.83 95.0211L177.05 92.5518ZM178.959 81.8955L177.05 92.5518L190.83 95.0211L192.74 84.3648L178.959 81.8955ZM184.298 89.9561C184.268 89.9494 184.244 89.9437 184.23 89.9402C184.222 89.9384 184.216 89.937 184.213 89.9361C184.209 89.9353 184.206 89.9346 184.207 89.9347C184.207 89.9347 184.207 89.9347 184.207 89.9347C184.207 89.9347 184.207 89.9347 184.207 89.9347C184.207 89.9347 184.207 89.9347 184.207 89.9347C184.207 89.9348 184.207 89.9348 184.207 89.9348C184.207 89.9348 184.207 89.9348 184.207 89.9348C184.208 89.9349 184.208 89.935 184.208 89.9351C184.209 89.9353 184.211 89.9357 184.213 89.9361C184.216 89.937 184.222 89.9385 184.23 89.9402C184.245 89.9437 184.269 89.9494 184.298 89.9561L187.401 76.3043C187.43 76.311 187.454 76.3166 187.469 76.3201C187.477 76.3219 187.483 76.3233 187.486 76.3242C187.49 76.325 187.492 76.3257 187.492 76.3256C187.492 76.3256 187.492 76.3256 187.492 76.3256C187.492 76.3256 187.492 76.3256 187.492 76.3256C187.492 76.3256 187.492 76.3256 187.492 76.3256C187.492 76.3256 187.492 76.3256 187.492 76.3256C187.492 76.3256 187.492 76.3255 187.492 76.3255C187.491 76.3254 187.491 76.3254 187.49 76.3252C187.49 76.325 187.488 76.3247 187.486 76.3242C187.483 76.3233 187.476 76.3219 187.469 76.3201C187.454 76.3166 187.43 76.311 187.401 76.3042L184.298 89.9561ZM180.928 70.91L178.959 81.8955L192.74 84.3648L194.708 73.3793L180.928 70.91Z" fill="black" mask="url(#path-5-outside-1)"/>
<path d="M241.703 163.044C242.555 162.389 243.389 161.717 244.203 161.028L236.284 151.589C246.284 143.129 252.553 131.758 254.789 119.692L266.88 121.938C267.273 119.822 267.563 117.689 267.752 115.546L255.5 114.473C256.579 102.221 253.559 89.5898 246.139 78.8168L256.258 71.7867C255.652 70.9068 255.022 70.0377 254.369 69.1804C253.716 68.323 253.046 67.4853 252.359 66.6675L242.953 74.6334C234.543 64.6208 223.196 58.3864 211.139 56.2225L213.315 44.0673C211.207 43.6889 209.081 43.4121 206.945 43.2381L205.937 55.5454C193.756 54.5527 181.186 57.6499 170.437 65.127L163.439 54.9799C162.565 55.5885 161.7 56.2202 160.848 56.8752C159.995 57.5302 159.161 58.2024 158.347 58.8909L166.266 68.3302C156.266 76.7897 149.997 88.1614 147.761 100.227L135.67 97.9811C135.278 100.097 134.987 102.23 134.798 104.373L147.05 105.446C145.972 117.698 148.991 130.329 156.411 141.102L146.292 148.132C146.898 149.012 147.528 149.881 148.181 150.739C148.834 151.596 149.504 152.434 150.191 153.252L159.597 145.286C168.007 155.298 179.355 161.533 191.412 163.696L189.235 175.852C191.344 176.23 193.47 176.507 195.605 176.681L196.614 164.374C208.795 165.366 221.365 162.269 232.113 154.792L239.111 164.939C239.986 164.331 240.85 163.699 241.703 163.044Z" stroke="#FFBA09" stroke-width="24.6471" stroke-linejoin="round" stroke-dasharray="5.75 41.08"/>
<path d="M29.8232 103.183L29.862 103.205L29.9015 103.227C31.7513 104.233 33.7656 104.359 35.7045 103.839C37.6267 103.324 39.319 102.214 40.3896 100.385C41.5054 98.5372 41.6708 96.4817 41.1415 94.5065L41.0914 94.3192C43.8059 92.5848 45.9762 90.3914 47.4725 87.6954C49.4859 84.128 49.9575 80.2545 48.893 76.2816C48.0184 73.0175 46.4049 70.2316 43.7967 68.3834C41.6069 66.7966 39.1673 65.8177 36.5183 65.5091C34.275 65.2342 31.576 65.1691 28.4683 65.2808C25.8781 65.3686 24.1642 65.2763 23.1632 65.0986C23.1642 65.0973 23.1653 65.0961 23.1665 65.0948L23.194 65.063L23.2207 65.0305C23.5009 64.6901 24.078 64.243 25.3141 63.9118C26.2098 63.6718 27.0262 63.5765 27.7749 63.5962L27.8503 63.5982L27.9256 63.5969C28.7941 63.5823 29.5995 63.6706 30.3515 63.8504L30.4073 63.8637L30.4635 63.8752C31.53 64.0935 32.106 64.2214 32.3035 64.2734L32.3655 64.2897L32.4281 64.3038C33.3774 64.5168 34.2555 64.6834 34.9616 64.745L34.9616 64.745C35.8411 64.8216 36.7118 64.7407 37.5557 64.5146C39.6807 63.9452 41.1088 62.4504 41.9162 60.6613L38.7261 59.2216L41.9162 60.6613C42.732 58.8537 42.8454 56.932 42.3406 55.0481C42.0249 53.8697 41.4757 52.6837 40.5467 51.7042C39.6167 50.6456 38.426 49.9869 37.2285 49.5818L37.1892 49.5684L37.1495 49.5561C34.2327 48.6459 31.3359 48.1656 28.4718 48.1424C27.9401 46.1755 26.7706 44.4859 24.8868 43.4473C23.0451 42.3987 21.0241 42.2828 19.1019 42.7979C17.1296 43.3264 15.4886 44.5038 14.432 46.3106C13.3336 48.1292 13.1363 50.1582 13.6649 52.1309L13.7422 52.4191C11.0628 54.1963 8.92476 56.4462 7.43157 59.1956C5.47087 62.8059 4.98986 66.6788 6.04802 70.6279C6.91836 73.876 8.53832 76.6415 11.1499 78.4834L11.1669 78.4954L11.184 78.5072C13.3831 80.0193 15.8047 80.9719 18.4158 81.3212L18.4468 81.3253L18.4779 81.3289C20.7155 81.5876 23.4298 81.6848 26.5828 81.6418C28.4836 81.6193 29.8459 81.6394 30.7198 81.6919L30.7408 81.6931L30.7619 81.6941C31.0903 81.7099 31.356 81.7486 31.5698 81.7979C31.2249 82.0577 30.4942 82.4571 29.0898 82.8334C27.7047 83.2045 26.4002 83.3817 25.1681 83.3872C23.9658 83.3926 22.5208 83.2154 20.8087 82.8036C19.8942 82.5591 18.9753 82.367 18.1404 82.3169C17.2842 82.2655 16.4258 82.3438 15.5831 82.5696C13.4581 83.139 12.03 84.6338 11.2226 86.4229L11.2026 86.4673L11.1838 86.5122C10.435 88.3027 10.3639 90.1854 10.8557 92.0206C11.1717 93.1999 11.6886 94.4398 12.5904 95.4567L12.6548 95.5294L12.7232 95.5984C13.6857 96.5695 14.87 97.1602 16.0551 97.5155C19.2867 98.5501 22.7488 98.9413 26.4063 98.7459C26.9549 100.569 28.0578 102.164 29.8232 103.183ZM22.8136 65.0156C22.8136 65.0156 22.8147 65.016 22.8166 65.017C22.8145 65.0161 22.8136 65.0156 22.8136 65.0156Z" fill="#04C439" stroke="black" stroke-width="7"/>
<path d="M82.7209 72.3117C84.4077 71.8597 85.746 71.8709 86.736 72.3452C87.754 72.771 88.4531 73.6931 88.8332 75.1115C89.2235 76.5683 89.0894 77.7547 88.4309 78.6707C87.8108 79.5765 86.6573 80.2554 84.9705 80.7074L63.9813 86.3314C62.6012 86.7012 61.4008 86.5914 60.38 86.0021C59.3489 85.3744 58.6639 84.428 58.3249 83.1629C57.8832 81.5144 58.1343 79.8447 59.0783 78.1536L67.864 62.1786C69.6854 58.8554 70.2982 56.0821 69.7024 53.8586C69.3532 52.5551 68.7027 51.6611 67.7511 51.1765C66.8378 50.6816 65.6911 50.6191 64.311 50.9889C63.1993 51.2868 62.2104 51.7366 61.3444 52.3385C60.5065 52.8917 59.5564 53.6393 58.494 54.5814L57.498 55.4646C57.3652 55.5824 57.1047 55.8371 56.7166 56.2287C56.3565 56.5717 56.0194 56.847 55.7052 57.0544C55.391 57.2619 55.0422 57.417 54.6588 57.5197C53.7004 57.7765 52.7823 57.5705 51.9046 56.9017C51.0167 56.1946 50.4134 55.2469 50.095 54.0584C49.869 53.215 49.7991 52.4942 49.8853 51.8958C50.0099 51.2872 50.3555 50.6604 50.9223 50.0155C52.3954 48.306 54.1513 46.8083 56.1899 45.5224C58.2668 44.2263 60.3979 43.2855 62.5831 42.7C65.42 41.9398 68.0402 41.7513 70.4439 42.1345C72.8372 42.4793 74.8452 43.3794 76.4678 44.8347C78.1185 46.2414 79.2469 48.0757 79.8529 50.3375C80.4795 52.676 80.5756 54.9513 80.141 57.1632C79.7346 59.3266 78.7189 61.8997 77.0939 64.8826L71.1625 75.4088L82.7209 72.3117ZM95.4485 66.3128C97.1353 65.8608 98.6606 66.1095 100.024 67.0589C101.426 67.9981 102.431 69.5985 103.037 71.8604C104.228 76.3074 103.675 80.6057 101.376 84.7552C100.955 85.4843 100.361 85.9516 99.5947 86.157C98.828 86.3625 98.0852 86.2739 97.3663 85.8913C96.6577 85.547 96.2161 85.049 96.0415 84.3973C95.8771 83.7839 95.9774 83.1612 96.3422 82.5293C97.3039 80.7514 97.8131 78.9714 97.8698 77.1894C96.3822 77.4647 95.0551 77.2656 93.8885 76.5921C92.7116 75.8802 91.928 74.7959 91.5376 73.3391C91.1165 71.7673 91.2796 70.306 92.0271 68.9552C92.7745 67.6045 93.915 66.7236 95.4485 66.3128ZM122.892 71.1009C117.87 72.4466 113.559 71.6912 109.958 68.8347C106.358 65.9782 103.654 61.1763 101.846 54.4291C100.048 47.7203 99.9943 42.2288 101.684 37.9547C103.374 33.6807 106.73 30.8708 111.752 29.5252C116.736 28.1898 121.028 28.9503 124.628 31.8068C128.267 34.6531 130.986 39.4306 132.783 46.1395C134.591 52.8867 134.65 58.3973 132.96 62.6714C131.27 66.9454 127.914 69.7553 122.892 71.1009ZM120.751 63.1078C122.591 62.6147 123.646 61.2636 123.917 59.0544C124.188 56.8452 123.712 53.4596 122.49 48.8975C121.278 44.3739 120.002 41.2231 118.663 39.4454C117.324 37.6676 115.734 37.0252 113.894 37.5183C112.054 38.0114 110.998 39.3625 110.727 41.5717C110.446 43.7426 110.917 47.109 112.139 51.671C113.361 56.2331 114.642 59.403 115.982 61.1807C117.321 62.9585 118.91 63.6009 120.751 63.1078ZM156.51 62.0931C151.488 63.4388 147.177 62.6833 143.576 59.8268C139.976 56.9703 137.271 52.1685 135.463 45.4213C133.666 38.7124 133.612 33.221 135.302 28.9469C136.992 24.6728 140.348 21.863 145.37 20.5173C150.354 19.1819 154.646 19.9425 158.246 22.799C161.885 25.6452 164.603 30.4228 166.401 37.1316C168.209 43.8788 168.268 49.3895 166.578 53.6635C164.888 57.9376 161.532 60.7474 156.51 62.0931ZM154.368 54.1C156.208 53.6069 157.264 52.2558 157.535 50.0466C157.806 47.8374 157.33 44.4517 156.108 39.8897C154.895 35.366 153.62 32.2153 152.281 30.4375C150.941 28.6597 149.352 28.0174 147.512 28.5105C145.671 29.0035 144.616 30.3547 144.345 32.5639C144.064 34.7347 144.534 38.1012 145.757 42.6632C146.979 47.2252 148.26 50.3951 149.599 52.1729C150.938 53.9507 152.528 54.593 154.368 54.1ZM190.128 53.0853C185.106 54.4309 180.794 53.6755 177.194 50.819C173.593 47.9625 170.889 43.1607 169.081 36.4135C167.284 29.7046 167.23 24.2131 168.92 19.9391C170.609 15.665 173.965 12.8552 178.987 11.5095C183.971 10.1741 188.263 10.9347 191.864 13.7912C195.503 16.6374 198.221 21.4149 200.019 28.1238C201.826 34.871 201.886 40.3816 200.196 44.6557C198.506 48.9298 195.15 51.7396 190.128 53.0853ZM187.986 45.0921C189.826 44.5991 190.882 43.2479 191.153 41.0387C191.423 38.8295 190.948 35.4439 189.725 30.8819C188.513 26.3582 187.237 23.2075 185.898 21.4297C184.559 19.6519 182.969 19.0096 181.129 19.5026C179.289 19.9957 178.234 21.3468 177.963 23.556C177.681 25.7269 178.152 29.0934 179.374 33.6554C180.597 38.2174 181.878 41.3873 183.217 43.1651C184.556 44.9428 186.146 45.5852 187.986 45.0921Z" fill="black"/>
</g>
<defs>
<clipPath id="clip0">
<path d="M0 20C0 8.9543 8.9543 0 20 0H255C266.046 0 275 8.95431 275 20V155C275 166.046 266.046 175 255 175H20C8.9543 175 0 166.046 0 155V20Z" fill="white"/>
</clipPath>
</defs>
</svg>
