<svg width="275" height="175" viewBox="0 0 275 175" fill="none" xmlns="http://www.w3.org/2000/svg">
<g clip-path="url(#clip0)">
<path d="M0 20C0 8.9543 8.9543 0 20 0H255C266.046 0 275 8.95431 275 20V155C275 166.046 266.046 175 255 175H20C8.9543 175 0 166.046 0 155V20Z" fill="white"/>
<mask id="path-2-outside-1" maskUnits="userSpaceOnUse" x="26" y="40.1689" width="140" height="121" fill="black">
<rect fill="white" x="26" y="40.1689" width="140" height="121"/>
<path fill-rule="evenodd" clip-rule="evenodd" d="M64.8872 48.616C60.0315 46.863 54.9153 50.4851 54.9553 55.6474L55.0706 70.5159C54.3925 71.0878 53.8226 71.7856 53.378 72.5928L37.1755 87.3964C34.584 88.7135 33 91.4397 33 95.0268C33 98.8205 34.7717 102.643 37.6332 105.147C37.6077 105.412 37.5959 105.682 37.5987 105.956L37.6653 112.623C37.6957 115.664 39.5808 118.379 42.4202 119.47L129.812 153.047C131.176 153.571 132.567 153.665 133.863 153.414C135.512 153.268 137.152 152.556 138.497 151.162L156.146 132.874C157.527 131.444 158.275 129.519 158.223 127.532L158.04 120.518C158.111 120.084 158.145 119.636 158.138 119.175L157.642 87.1931C157.594 84.1114 155.645 81.3806 152.746 80.3341L64.8872 48.616Z"/>
</mask>
<path d="M54.9553 55.6474L61.9551 55.5931V55.5931L54.9553 55.6474ZM64.8872 48.616L67.2641 42.0319L64.8872 48.616ZM55.0706 70.5159L59.5839 75.8666L62.0958 73.7477L62.0703 70.4616L55.0706 70.5159ZM53.378 72.5928L58.0996 77.7606L58.9524 76.9815L59.5096 75.9697L53.378 72.5928ZM37.1755 87.3964L40.347 93.6368L41.1949 93.2058L41.8972 92.5642L37.1755 87.3964ZM37.6332 105.147L44.601 105.818L44.9449 102.244L42.2432 99.8794L37.6332 105.147ZM37.5987 105.956L30.599 106.026V106.026L37.5987 105.956ZM37.6653 112.623L44.665 112.553L37.6653 112.623ZM42.4202 119.47L44.9308 112.935L44.9307 112.935L42.4202 119.47ZM129.812 153.047L132.322 146.512H132.322L129.812 153.047ZM133.863 153.414L133.247 146.442L132.889 146.473L132.536 146.541L133.863 153.414ZM138.497 151.162L133.46 146.301L133.46 146.301L138.497 151.162ZM156.146 132.874L161.183 137.735L156.146 132.874ZM158.223 127.532L165.221 127.349V127.349L158.223 127.532ZM158.04 120.518L151.133 119.383L151.025 120.038L151.042 120.701L158.04 120.518ZM158.138 119.175L151.139 119.284V119.284L158.138 119.175ZM157.642 87.1931L150.643 87.3016V87.3016L157.642 87.1931ZM152.746 80.3341L150.369 86.9182L150.369 86.9182L152.746 80.3341ZM61.9551 55.5931C61.9543 55.4853 61.9761 55.4332 61.9932 55.4009C62.0169 55.3563 62.061 55.3006 62.1301 55.2516C62.1991 55.2027 62.2663 55.1797 62.3163 55.1722C62.3525 55.1668 62.4089 55.1635 62.5103 55.2001L67.2641 42.0319C57.8241 38.624 47.8777 45.6657 47.9555 55.7016L61.9551 55.5931ZM62.0703 70.4616L61.9551 55.5931L47.9555 55.7016L48.0708 70.5701L62.0703 70.4616ZM59.5096 75.9697C59.5328 75.9276 59.5513 75.9026 59.5619 75.8897C59.5723 75.8768 59.5795 75.8702 59.5839 75.8666L50.5572 65.1652C49.204 66.3067 48.0925 67.6797 47.2464 69.2159L59.5096 75.9697ZM41.8972 92.5642L58.0996 77.7606L48.6564 67.425L32.4539 82.2286L41.8972 92.5642ZM40 95.0268C40 94.2625 40.166 93.8841 40.2336 93.7625C40.289 93.6629 40.3176 93.6517 40.347 93.6368L34.0041 81.1561C28.6608 83.8716 26 89.2892 26 95.0268H40ZM42.2432 99.8794C40.8642 98.6725 40 96.7544 40 95.0268H26C26 100.887 28.6792 106.613 33.0231 110.415L42.2432 99.8794ZM44.5983 105.886C44.598 105.858 44.5992 105.836 44.601 105.818L30.6654 104.476C30.6161 104.988 30.5938 105.505 30.599 106.026L44.5983 105.886ZM44.665 112.553L44.5983 105.886L30.599 106.026L30.6657 112.693L44.665 112.553ZM44.9307 112.935C44.772 112.874 44.6667 112.723 44.665 112.553L30.6657 112.693C30.7248 118.606 34.3895 123.883 39.9097 126.004L44.9307 112.935ZM132.322 146.512L44.9308 112.935L39.9096 126.004L127.301 159.581L132.322 146.512ZM132.536 146.541C132.507 146.547 132.481 146.548 132.455 146.546C132.43 146.544 132.387 146.537 132.322 146.512L127.301 159.581C129.918 160.586 132.641 160.78 135.191 160.287L132.536 146.541ZM133.46 146.301C133.411 146.352 133.374 146.382 133.35 146.399C133.327 146.415 133.311 146.424 133.303 146.427C133.29 146.434 133.274 146.439 133.247 146.442L134.48 160.387C137.767 160.096 140.989 158.66 143.534 156.023L133.46 146.301ZM151.11 128.013L133.46 146.301L143.534 156.023L161.183 137.735L151.11 128.013ZM151.226 127.715C151.229 127.826 151.187 127.933 151.11 128.013L161.183 137.735C163.867 134.954 165.322 131.212 165.221 127.349L151.226 127.715ZM151.042 120.701L151.226 127.715L165.221 127.349L165.038 120.335L151.042 120.701ZM151.139 119.284C151.14 119.328 151.136 119.361 151.133 119.383L164.947 121.652C165.086 120.807 165.151 119.943 165.137 119.067L151.139 119.284ZM150.643 87.3016L151.139 119.284L165.137 119.067L164.641 87.0845L150.643 87.3016ZM150.369 86.9182C150.531 86.9767 150.64 87.1293 150.643 87.3016L164.641 87.0846C164.548 81.0935 160.759 75.7846 155.123 73.75L150.369 86.9182ZM62.5103 55.2001L150.369 86.9182L155.123 73.75L67.2641 42.0319L62.5103 55.2001Z" fill="black" mask="url(#path-2-outside-1)"/>
<path d="M54.9556 55.6467C54.9156 50.4844 60.0318 46.8624 64.8875 48.6153L152.747 80.3334C155.646 81.38 157.595 84.1107 157.643 87.1924L158.138 119.174C158.219 124.357 153.092 128.021 148.215 126.266L60.1083 94.573C57.1854 93.5216 55.2278 90.7598 55.2037 87.6537L54.9556 55.6467Z" fill="#3A71B3"/>
<path d="M37.5993 105.955C37.547 100.722 42.787 97.0829 47.6726 98.96L135.064 132.537C137.904 133.628 139.789 136.342 139.819 139.384L139.886 146.051C139.938 151.285 134.698 154.923 129.812 153.046L42.4209 119.469C39.5815 118.378 37.6964 115.664 37.666 112.622L37.5993 105.955Z" fill="#3A71B3"/>
<path d="M158.033 120.233C157.86 113.618 149.767 110.526 145.227 115.339L127.768 133.851C126.47 135.227 125.748 137.047 125.748 138.938L125.748 146.014C125.748 152.683 133.866 155.962 138.497 151.163L156.147 132.875C157.527 131.444 158.275 129.52 158.224 127.532L158.033 120.233Z" fill="#3A71B3"/>
<path d="M52.973 85.1215C55.012 82.8375 58.2453 82.0417 61.1116 83.1184L142.614 113.737C147.492 115.569 149.008 121.729 145.538 125.616L135.222 137.171C133.183 139.455 129.95 140.251 127.083 139.174L45.5807 108.556C40.7032 106.723 39.1873 100.564 42.6572 96.677L52.973 85.1215Z" fill="#6096D6"/>
<rect x="34.6562" y="89.6982" width="28.3935" height="22.8108" transform="rotate(-42.4168 34.6562 89.6982)" fill="#304967"/>
<path d="M53.7605 99.5197C53.7605 105.352 48.9803 108.908 43.0836 107.833C37.187 106.758 33 100.858 33 95.0261C33 89.1941 37.187 85.6378 43.0836 86.713C48.9803 87.7882 53.7605 93.6876 53.7605 99.5197Z" fill="#3A71B3"/>
<path d="M73.0378 81.7238C73.0378 87.5559 68.2576 91.1121 62.361 90.0369C56.4644 88.9617 52.2773 83.0623 52.2773 77.2302C52.2773 71.3982 56.4644 67.8419 62.361 68.9171C68.2576 69.9923 73.0378 75.8917 73.0378 81.7238Z" fill="#304967"/>
<rect x="119.18" y="123.063" width="28.3935" height="22.8108" transform="rotate(-42.4168 119.18 123.063)" fill="#304967"/>
<path d="M138.286 132.883C138.286 138.715 133.506 142.271 127.609 141.196C121.712 140.121 117.525 134.221 117.525 128.389C117.525 122.557 121.712 119.001 127.609 120.076C133.506 121.152 138.286 127.051 138.286 132.883Z" fill="#3A71B3"/>
<path d="M157.563 115.089C157.563 120.921 152.783 124.477 146.886 123.402C140.99 122.327 136.803 116.428 136.803 110.595C136.803 104.763 140.99 101.207 146.886 102.282C152.783 103.358 157.563 109.257 157.563 115.089Z" fill="#304967"/>
<mask id="path-14-outside-2" maskUnits="userSpaceOnUse" x="192" y="38" width="64" height="67" fill="black">
<rect fill="white" x="192" y="38" width="64" height="67"/>
<path fill-rule="evenodd" clip-rule="evenodd" d="M248.053 63.0312C247.656 61.5497 247.139 60.1139 246.512 58.7362C246.296 58.2629 246.106 57.7784 245.931 57.2886C243.379 50.1266 236.538 45 228.5 45C220.758 45 214.126 49.7562 211.368 56.5062C210.991 57.4279 210.569 58.335 210.003 59.1544L208.408 61.4653C207.682 62.5169 206.74 63.3947 205.753 64.2067C201.63 67.5997 199 72.7425 199 78.4995C199 87.1218 204.899 94.3664 212.881 96.4181C217.913 98.0517 223.352 98.2164 228.542 96.8259C235.611 94.9318 241.637 90.3072 245.297 83.9695C248.956 77.6318 249.947 70.1 248.053 63.0312Z"/>
</mask>
<path fill-rule="evenodd" clip-rule="evenodd" d="M248.053 63.0312C247.656 61.5497 247.139 60.1139 246.512 58.7362C246.296 58.2629 246.106 57.7784 245.931 57.2886C243.379 50.1266 236.538 45 228.5 45C220.758 45 214.126 49.7562 211.368 56.5062C210.991 57.4279 210.569 58.335 210.003 59.1544L208.408 61.4653C207.682 62.5169 206.74 63.3947 205.753 64.2067C201.63 67.5997 199 72.7425 199 78.4995C199 87.1218 204.899 94.3664 212.881 96.4181C217.913 98.0517 223.352 98.2164 228.542 96.8259C235.611 94.9318 241.637 90.3072 245.297 83.9695C248.956 77.6318 249.947 70.1 248.053 63.0312Z" fill="#C17A38"/>
<path d="M248.053 63.0312L241.292 64.8429L241.292 64.8429L248.053 63.0312ZM212.881 96.4181L215.042 89.7601L214.834 89.6928L214.623 89.6385L212.881 96.4181ZM228.542 96.8259L226.73 90.0644L228.542 96.8259ZM245.297 83.9695L251.359 87.4695L251.359 87.4695L245.297 83.9695ZM208.408 61.4653L202.648 57.488L208.408 61.4653ZM205.753 64.2067L210.201 69.6121L205.753 64.2067ZM211.368 56.5062L204.888 53.8582L211.368 56.5062ZM210.003 59.1544L215.764 63.1318L210.003 59.1544ZM246.512 58.7362L252.882 55.8349L246.512 58.7362ZM245.931 57.2886L239.338 59.6384L245.931 57.2886ZM240.141 61.6375C240.61 62.6655 240.995 63.7369 241.292 64.8429L254.815 61.2195C254.317 59.3625 253.669 57.5624 252.882 55.8349L240.141 61.6375ZM228.5 52C233.486 52 237.748 55.1767 239.338 59.6384L252.525 54.9388C249.011 45.0765 239.591 38 228.5 38V52ZM217.848 59.1541C219.568 54.9451 223.698 52 228.5 52V38C217.817 38 208.685 44.5673 204.888 53.8582L217.848 59.1541ZM214.168 65.4427L215.764 63.1318L204.243 55.1771L202.648 57.488L214.168 65.4427ZM206 78.4995C206 74.9234 207.624 71.7325 210.201 69.6121L201.306 58.8013C195.635 63.4669 192 70.5616 192 78.4995H206ZM214.623 89.6385C209.66 88.3627 206 83.8497 206 78.4995H192C192 90.3939 200.137 100.37 211.138 103.198L214.623 89.6385ZM226.73 90.0644C222.857 91.1021 218.798 90.9794 215.042 89.7601L210.72 103.076C217.029 105.124 223.847 105.331 230.354 103.587L226.73 90.0644ZM239.234 80.4695C236.504 85.1994 232.006 88.6508 226.73 90.0644L230.354 103.587C239.216 101.213 246.771 95.415 251.359 87.4695L239.234 80.4695ZM241.292 64.8429C242.705 70.1185 241.965 75.7395 239.234 80.4695L251.359 87.4695C255.946 79.524 257.189 70.0816 254.815 61.2195L241.292 64.8429ZM202.648 57.488C202.47 57.7452 202.113 58.1368 201.306 58.8013L210.201 69.6121C211.367 68.6526 212.894 67.2886 214.168 65.4427L202.648 57.488ZM204.888 53.8582C204.578 54.6156 204.382 54.9766 204.243 55.1771L215.764 63.1318C216.757 61.6934 217.404 60.2403 217.848 59.1541L204.888 53.8582ZM252.882 55.8349C252.768 55.5848 252.651 55.2917 252.525 54.9388L239.338 59.6384C239.561 60.2651 239.824 60.9411 240.141 61.6375L252.882 55.8349Z" fill="black" mask="url(#path-14-outside-2)"/>
<ellipse cx="231" cy="63" rx="2" ry="3" fill="#984900"/>
<ellipse cx="209.501" cy="93.5001" rx="2.5" ry="1.5" transform="rotate(15.3837 209.501 93.5001)" fill="#984900"/>
<ellipse cx="206.598" cy="76.232" rx="3" ry="2" transform="rotate(30 206.598 76.232)" fill="#984900"/>
<ellipse cx="224" cy="91.5" rx="3" ry="1.5" fill="#984900"/>
<ellipse cx="244" cy="77" rx="2" ry="3" fill="#984900"/>
</g>
<defs>
<clipPath id="clip0">
<path d="M0 20C0 8.9543 8.9543 0 20 0H255C266.046 0 275 8.95431 275 20V155C275 166.046 266.046 175 255 175H20C8.9543 175 0 166.046 0 155V20Z" fill="white"/>
</clipPath>
</defs>
</svg>
