<svg width="275" height="175" viewBox="0 0 275 175" fill="none" xmlns="http://www.w3.org/2000/svg">
<g clip-path="url(#clip0)">
<path d="M0 20C0 8.9543 8.9543 0 20 0H255C266.046 0 275 8.95431 275 20V155C275 166.046 266.046 175 255 175H20C8.9543 175 0 166.046 0 155V20Z" fill="white"/>
<ellipse cx="118.188" cy="41.5441" rx="7.22158" ry="7.22966" fill="black"/>
<ellipse cx="125.409" cy="48.7736" rx="7.22158" ry="7.22966" fill="black"/>
<ellipse cx="129.741" cy="57.4489" rx="7.22158" ry="7.22966" fill="black"/>
<path d="M67.6367 46.8852C67.6367 41.392 71.5913 36.6966 77.0044 35.7624L103.054 31.267C111.337 29.8376 118.91 36.2156 118.91 44.621C118.91 52.1052 112.843 58.1724 105.359 58.1724H78.9239C72.6902 58.1724 67.6367 53.1189 67.6367 46.8852Z" fill="#C08CF4"/>
<path d="M118.455 22.0801C121.365 22.8609 123.194 25.7411 122.663 28.7073L120.71 39.6021C120.063 43.2125 116.467 45.4956 112.925 44.5454C109.583 43.649 107.599 40.2129 108.494 36.8706L111.355 26.1791C112.183 23.0856 115.362 21.2504 118.455 22.0801Z" fill="#C08CF4"/>
<path d="M104.788 33.1116C111.476 30.9896 118.64 34.5485 120.989 41.1598L129.368 64.7428C132.108 72.4557 127.688 80.8702 119.782 82.991C112.301 84.9975 104.614 80.5594 102.612 73.0781L96.141 48.9008C94.3405 42.1738 98.15 35.2176 104.788 33.1116Z" fill="#C08CF4"/>
<rect x="103.021" y="63.2329" width="84.4925" height="45.5468" rx="20" fill="#C08CF4"/>
<rect width="13.5163" height="47.5712" rx="6.75816" transform="matrix(0.965853 0.259089 -0.258549 0.965998 107.553 84.0557)" fill="#C08CF4"/>
<rect width="13.5163" height="47.5712" rx="6.75816" transform="matrix(0.965853 -0.259089 0.258549 0.965998 170.678 87.5474)" fill="#C08CF4"/>
<path fill-rule="evenodd" clip-rule="evenodd" d="M86.9663 108.497C84.5462 108.497 82.8379 110.865 83.7632 113.102C87.1154 121.204 92.0288 128.565 98.2229 134.766C104.417 140.967 111.77 145.886 119.863 149.242C127.956 152.598 136.63 154.326 145.39 154.326C154.15 154.326 162.824 152.598 170.917 149.242C179.01 145.886 186.363 140.967 192.557 134.766C198.752 128.565 203.665 121.204 207.017 113.102C207.942 110.865 206.234 108.497 203.814 108.497H199.534C198.929 108.497 198.387 108.868 198.156 109.427C195.286 116.364 191.079 122.667 185.775 127.977C180.472 133.286 174.176 137.498 167.247 140.371C160.317 143.245 152.89 144.724 145.39 144.724C137.89 144.724 130.463 143.245 123.534 140.371C116.605 137.498 110.309 133.286 105.005 127.977C99.7018 122.667 95.4949 116.364 92.6247 109.427C92.3933 108.868 91.8514 108.497 91.2462 108.497H86.9663Z" fill="#7F00FF"/>
<ellipse cx="99.0505" cy="43.713" rx="3.24971" ry="3.61483" fill="black"/>
<path d="M76.3032 43.7127C76.3032 45.3098 73.9093 46.6045 72.5143 46.6045C71.1193 46.6045 71.2514 45.3098 71.2514 43.7127C71.2514 42.1155 72.3823 40.8208 73.7773 40.8208C75.1723 40.8208 76.3032 42.1155 76.3032 43.7127Z" fill="black"/>
<mask id="path-14-outside-1" maskUnits="userSpaceOnUse" x="60.6367" y="13.8809" width="154" height="148" fill="black">
<rect fill="white" x="60.6367" y="13.8809" width="154" height="148"/>
<path fill-rule="evenodd" clip-rule="evenodd" d="M118.456 22.0803C121.366 22.861 123.195 25.7412 122.663 28.7074L121.513 35.1247C123.828 36.3291 125.409 38.7517 125.409 41.544C129.398 41.5441 132.631 44.7809 132.631 48.7737C132.631 49.4453 132.539 50.0955 132.368 50.7125C135.058 51.7641 136.964 54.3839 136.964 57.4493C136.964 59.8142 135.83 61.914 134.076 63.233H167.515C178.561 63.233 187.515 72.1873 187.515 83.233V88.7798C187.515 90.8667 187.195 92.8789 186.602 94.7702L193.087 118.998C195.071 115.983 196.77 112.779 198.156 109.428C198.388 108.868 198.93 108.497 199.535 108.497H203.814C206.235 108.497 207.943 110.866 207.018 113.102C203.665 121.204 198.752 128.566 192.558 134.767C186.364 140.968 179.01 145.887 170.917 149.243C162.824 152.599 154.15 154.326 145.391 154.326C136.631 154.326 127.957 152.599 119.864 149.243C111.771 145.887 104.417 140.968 98.2233 134.767C92.0292 128.566 87.1158 121.204 83.7635 113.102C82.8383 110.866 84.5466 108.497 86.9667 108.497H91.2465C91.8517 108.497 92.3936 108.868 92.625 109.428C94.0952 112.981 95.916 116.368 98.0553 119.54L104.36 95.9852C103.496 93.7496 103.023 91.32 103.023 88.7798V83.233C103.023 80.9311 103.411 78.7201 104.127 76.662C103.473 75.5697 102.958 74.3693 102.613 73.0783L98.6232 58.1723H78.9239C72.6902 58.1723 67.6367 53.1188 67.6367 46.8851C67.6367 41.392 71.5913 36.6965 77.0044 35.7623L103.054 31.2669C105.43 30.8569 107.747 31.0893 109.844 31.8275L111.356 26.1792C112.184 23.0857 115.363 21.2506 118.456 22.0803ZM107.727 130.53C112.417 134.648 117.756 137.975 123.534 140.372C130.464 143.245 137.89 144.724 145.391 144.724C152.891 144.724 160.318 143.245 167.247 140.372C173.129 137.933 178.554 134.529 183.304 130.309C182.33 129.457 181.589 128.317 181.229 126.973L175.872 106.956C173.329 108.127 170.498 108.78 167.515 108.78H123.023C120.299 108.78 117.703 108.236 115.337 107.25L110.055 126.983C109.665 128.441 108.826 129.66 107.727 130.53Z"/>
</mask>
<path d="M122.663 28.7074L129.553 29.9422L129.553 29.9422L122.663 28.7074ZM118.456 22.0803L116.642 28.8412L116.642 28.8412L118.456 22.0803ZM121.513 35.1247L114.623 33.89L113.715 38.9583L118.282 41.3347L121.513 35.1247ZM125.409 41.544H118.409V48.544L125.409 48.544L125.409 41.544ZM132.368 50.7125L125.623 48.8414L123.934 54.9309L129.819 57.2319L132.368 50.7125ZM134.076 63.233L129.868 57.6388L113.124 70.233H134.076V63.233ZM186.602 94.7702L179.923 92.676L179.315 94.6161L179.84 96.58L186.602 94.7702ZM193.087 118.998L186.325 120.808L190.359 135.88L198.935 122.846L193.087 118.998ZM198.156 109.428L191.688 106.751L191.688 106.751L198.156 109.428ZM207.018 113.102L213.486 115.778L213.486 115.778L207.018 113.102ZM192.558 134.767L197.51 139.714L192.558 134.767ZM170.917 149.243L173.599 155.709L173.599 155.709L170.917 149.243ZM119.864 149.243L122.545 142.777L122.545 142.777L119.864 149.243ZM98.2233 134.767L93.2708 139.714H93.2708L98.2233 134.767ZM83.7635 113.102L77.2953 115.778H77.2953L83.7635 113.102ZM92.625 109.428L99.0932 106.751L99.0932 106.751L92.625 109.428ZM98.0553 119.54L92.2517 123.454L100.844 136.195L104.817 121.35L98.0553 119.54ZM104.36 95.9852L111.122 97.795L111.712 95.5909L110.889 93.4625L104.36 95.9852ZM104.127 76.662L110.739 78.961L111.813 75.8724L110.133 73.0668L104.127 76.662ZM102.613 73.0783L95.8508 74.8881L102.613 73.0783ZM98.6232 58.1723L105.385 56.3624L103.996 51.1723H98.6232V58.1723ZM77.0044 35.7623L75.814 28.8643L77.0044 35.7623ZM103.054 31.2669L101.864 24.3689L103.054 31.2669ZM109.844 31.8275L107.52 38.4303L114.651 40.941L116.606 33.6373L109.844 31.8275ZM111.356 26.1792L118.118 27.9891L118.118 27.9891L111.356 26.1792ZM123.534 140.372L120.853 146.838H120.853L123.534 140.372ZM107.727 130.53L103.382 125.041L96.802 130.251L103.108 135.789L107.727 130.53ZM167.247 140.372L164.566 133.906L167.247 140.372ZM183.304 130.309L187.953 135.542L193.891 130.266L187.911 125.039L183.304 130.309ZM181.229 126.973L187.991 125.163V125.163L181.229 126.973ZM175.872 106.956L182.634 105.146L180.487 97.1236L172.944 100.597L175.872 106.956ZM115.337 107.25L118.029 100.788L110.643 97.7114L108.575 105.44L115.337 107.25ZM110.055 126.983L116.817 128.793L110.055 126.983ZM129.553 29.9422C130.726 23.397 126.692 17.0422 120.269 15.3193L116.642 28.8412C116.04 28.6798 115.663 28.0854 115.773 27.4727L129.553 29.9422ZM128.403 36.3595L129.553 29.9422L115.773 27.4727L114.623 33.89L128.403 36.3595ZM132.409 41.544C132.409 36.0422 129.286 31.278 124.744 28.9148L118.282 41.3347C118.317 41.3529 118.354 41.3854 118.379 41.4253C118.39 41.443 118.397 41.4593 118.401 41.4745C118.405 41.4882 118.409 41.5096 118.409 41.544H132.409ZM139.631 48.7737C139.631 40.9223 133.271 34.5441 125.409 34.544L125.409 48.544C125.452 48.544 125.475 48.5512 125.491 48.5581C125.512 48.567 125.538 48.583 125.563 48.6085C125.589 48.634 125.606 48.6609 125.615 48.6839C125.623 48.7022 125.631 48.7279 125.631 48.7737H139.631ZM139.114 52.5835C139.452 51.3629 139.631 50.0835 139.631 48.7737H125.631C125.631 48.807 125.627 48.828 125.623 48.8414L139.114 52.5835ZM143.964 57.4493C143.964 51.4096 140.205 46.2602 134.917 44.193L129.819 57.2319C129.852 57.2448 129.895 57.2744 129.926 57.32C129.94 57.34 129.949 57.3586 129.954 57.3751C129.959 57.3896 129.964 57.4121 129.964 57.4493H143.964ZM138.284 68.8272C141.721 66.2416 143.964 62.1054 143.964 57.4493H129.964C129.964 57.4791 129.961 57.4986 129.957 57.5114C129.954 57.5249 129.949 57.5382 129.942 57.5521C129.927 57.5823 129.901 57.6141 129.868 57.6388L138.284 68.8272ZM167.515 56.233H134.076V70.233H167.515V56.233ZM194.515 83.233C194.515 68.3213 182.427 56.233 167.515 56.233V70.233C174.695 70.233 180.515 76.0533 180.515 83.233H194.515ZM194.515 88.7798V83.233H180.515V88.7798H194.515ZM193.282 96.8643C194.085 94.3031 194.515 91.5851 194.515 88.7798H180.515C180.515 90.1483 180.306 91.4547 179.923 92.676L193.282 96.8643ZM199.849 117.188L193.364 92.9603L179.84 96.58L186.325 120.808L199.849 117.188ZM191.688 106.751C190.471 109.693 188.98 112.505 187.239 115.151L198.935 122.846C201.161 119.461 203.068 115.866 204.624 112.104L191.688 106.751ZM199.535 101.497C196.027 101.497 192.975 103.641 191.688 106.751L204.624 112.104C203.8 114.096 201.832 115.497 199.535 115.497V101.497ZM203.814 101.497H199.535V115.497H203.814V101.497ZM213.486 115.778C216.473 108.558 210.809 101.497 203.814 101.497V115.497C201.66 115.497 199.412 113.174 200.549 110.426L213.486 115.778ZM197.51 139.714C204.354 132.862 209.782 124.729 213.486 115.778L200.549 110.426C197.548 117.679 193.15 124.269 187.605 129.82L197.51 139.714ZM173.599 155.709C182.541 152 190.667 146.565 197.51 139.714L187.605 129.82C182.061 135.37 175.479 139.773 168.236 142.777L173.599 155.709ZM145.391 161.326C155.071 161.326 164.656 159.417 173.599 155.709L168.236 142.777C160.993 145.78 153.23 147.326 145.391 147.326V161.326ZM117.182 155.709C126.125 159.417 135.71 161.326 145.391 161.326V147.326C137.551 147.326 129.788 145.78 122.545 142.777L117.182 155.709ZM93.2708 139.714C100.115 146.565 108.24 152 117.182 155.709L122.545 142.777C115.302 139.773 108.72 135.37 103.176 129.82L93.2708 139.714ZM77.2953 115.778C80.9987 124.729 86.427 132.862 93.2708 139.714L103.176 129.82C97.6313 124.269 93.2328 117.679 90.2318 110.426L77.2953 115.778ZM86.9667 101.497C79.9719 101.497 74.3079 108.558 77.2953 115.778L90.2318 110.426C91.3687 113.174 89.1213 115.497 86.9667 115.497V101.497ZM91.2465 101.497H86.9667V115.497H91.2465V101.497ZM99.0932 106.751C97.8061 103.641 94.7541 101.497 91.2465 101.497V115.497C88.9493 115.497 86.9812 114.096 86.1568 112.104L99.0932 106.751ZM103.859 115.626C101.982 112.842 100.384 109.87 99.0932 106.751L86.1568 112.104C87.8068 116.092 89.8505 119.893 92.2517 123.454L103.859 115.626ZM97.5978 94.1753L91.2933 117.73L104.817 121.35L111.122 97.795L97.5978 94.1753ZM96.0225 88.7798C96.0225 92.1963 96.6605 95.4804 97.8301 98.5078L110.889 93.4625C110.332 92.0189 110.023 90.4438 110.023 88.7798H96.0225ZM96.0225 83.233V88.7798H110.023V83.233H96.0225ZM97.5153 74.363C96.5461 77.1503 96.0225 80.1379 96.0225 83.233H110.023C110.023 81.7243 110.277 80.2899 110.739 78.961L97.5153 74.363ZM95.8508 74.8881C96.3659 76.8126 97.1367 78.6132 98.1208 80.2573L110.133 73.0668C109.81 72.5262 109.551 71.926 109.375 71.2684L95.8508 74.8881ZM91.8612 59.9821L95.8508 74.8881L109.375 71.2684L105.385 56.3624L91.8612 59.9821ZM78.9239 65.1723H98.6232V51.1723H78.9239V65.1723ZM60.6367 46.8851C60.6367 56.9848 68.8242 65.1723 78.9239 65.1723V51.1723C76.5562 51.1723 74.6367 49.2528 74.6367 46.8851H60.6367ZM75.814 28.8643C67.0438 30.3778 60.6367 37.9853 60.6367 46.8851H74.6367C74.6367 44.7986 76.1388 43.0152 78.1948 42.6604L75.814 28.8643ZM101.864 24.3689L75.814 28.8643L78.1948 42.6604L104.244 38.165L101.864 24.3689ZM112.169 25.2247C108.972 24.0994 105.446 23.7507 101.864 24.3689L104.244 38.165C105.414 37.9631 106.522 38.0791 107.52 38.4303L112.169 25.2247ZM104.594 24.3694L103.082 30.0177L116.606 33.6373L118.118 27.9891L104.594 24.3694ZM120.269 15.3193C113.441 13.4876 106.422 17.5399 104.594 24.3694L118.118 27.9891C117.946 28.6316 117.284 29.0136 116.642 28.8412L120.269 15.3193ZM126.216 133.906C121.146 131.803 116.462 128.884 112.347 125.27L103.108 135.789C108.373 140.412 114.365 144.147 120.853 146.838L126.216 133.906ZM145.391 137.724C138.811 137.724 132.295 136.427 126.216 133.906L120.853 146.838C128.632 150.064 136.97 151.724 145.391 151.724V137.724ZM164.566 133.906C158.486 136.427 151.97 137.724 145.391 137.724V151.724C153.811 151.724 162.149 150.064 169.928 146.838L164.566 133.906ZM178.654 125.076C174.487 128.78 169.726 131.766 164.566 133.906L169.928 146.838C176.531 144.1 182.622 140.279 187.953 135.542L178.654 125.076ZM174.467 128.783C175.197 131.51 176.709 133.842 178.697 135.579L187.911 125.039C187.928 125.053 187.946 125.074 187.962 125.099C187.979 125.126 187.988 125.151 187.991 125.163L174.467 128.783ZM169.11 108.765L174.467 128.783L187.991 125.163L182.634 105.146L169.11 108.765ZM167.515 115.78C171.529 115.78 175.357 114.899 178.8 113.314L172.944 100.597C171.3 101.354 169.467 101.78 167.515 101.78V115.78ZM123.023 115.78H167.515V101.78H123.023V115.78ZM112.645 113.711C115.849 115.046 119.359 115.78 123.023 115.78V101.78C121.239 101.78 119.557 101.425 118.029 100.788L112.645 113.711ZM116.817 128.793L122.099 109.06L108.575 105.44L103.293 125.173L116.817 128.793ZM112.072 136.018C114.312 134.245 116.025 131.754 116.817 128.793L103.293 125.173C103.297 125.159 103.307 125.132 103.327 125.103C103.345 125.076 103.365 125.056 103.382 125.041L112.072 136.018Z" fill="black" mask="url(#path-14-outside-1)"/>
</g>
<defs>
<clipPath id="clip0">
<path d="M0 20C0 8.9543 8.9543 0 20 0H255C266.046 0 275 8.95431 275 20V155C275 166.046 266.046 175 255 175H20C8.9543 175 0 166.046 0 155V20Z" fill="white"/>
</clipPath>
</defs>
</svg>
