<svg width="275" height="175" viewBox="0 0 275 175" fill="none" xmlns="http://www.w3.org/2000/svg">
<g clip-path="url(#clip0)">
<path d="M0 20C0 8.9543 8.9543 0 20 0H255C266.046 0 275 8.95431 275 20V155C275 166.046 266.046 175 255 175H20C8.9543 175 0 166.046 0 155V20Z" fill="white"/>
<rect width="8.98982" height="14.9669" rx="4.49491" transform="matrix(0.920205 0.391436 -0.390863 0.920449 107.892 61)" fill="#FFE2C7"/>
<path fill-rule="evenodd" clip-rule="evenodd" d="M71.2662 92.3882C70.0086 91.9049 69.1818 90.7237 69.0187 89.3871C68.5769 85.7662 73.4297 82.9383 76.9715 83.8172C79.4693 84.4369 82.1261 84.6216 84.8409 84.2938C89.5178 83.7291 93.6615 81.7287 96.8662 78.7997C99.2744 76.5987 103.372 76.3156 105.335 78.9261C106.418 80.3676 106.568 82.3419 105.463 83.7639C101.282 89.1402 94.2974 93.1076 86.0379 94.1049C80.7339 94.7453 75.6457 94.0714 71.2662 92.3882Z" fill="#FFE2C7"/>
<rect x="73" y="55" width="33.2453" height="39.0271" rx="11.9874" fill="#A5A5A5"/>
<path d="M45.5311 127.968C46.2453 124.656 49.5609 122.594 52.8476 123.418L58.2276 124.767C61.5382 125.596 63.4886 129.019 62.5146 132.291L54.5797 158.942C53.6793 161.966 50.5885 163.774 47.5111 163.077L44.1906 162.325C40.9858 161.599 38.9631 158.428 39.6557 155.216L45.5311 127.968Z" fill="#FFE2C7"/>
<path d="M59.2811 128.284C59.3392 124.516 62.8556 121.578 66.5659 122.198L71.9398 123.096C74.9215 123.594 76.9483 126.25 76.6555 129.276L74.0973 155.715C73.7785 159.01 70.8397 161.552 67.5334 161.392L64.299 161.236C61.1801 161.086 58.8146 158.575 58.8625 155.465L59.2811 128.284Z" fill="#FFE2C7"/>
<path d="M58.6191 70.9275C62.8476 67.7462 68.8957 68.8868 71.6749 73.3899L77.1586 82.2748C79.3963 85.9004 78.782 90.5988 75.6873 93.5271L60.2297 108.154C56.4459 111.734 50.4207 111.36 47.1096 107.338L38.9711 97.4534C35.7168 93.5008 36.4154 87.6325 40.5067 84.5545L58.6191 70.9275Z" fill="#1CC64B"/>
<path d="M27.8279 106.152C26.2604 102.838 26.8618 98.9047 29.3478 96.2107L35.5261 89.5153C39.037 85.7106 45.0276 85.6497 48.6152 89.3821L76.8705 118.779C82.3618 124.492 78.313 133.999 70.3888 133.999L46.6932 134C43.217 134 40.0523 131.996 38.5659 128.853L27.8279 106.152Z" fill="#1CC64B"/>
<rect x="87.5771" y="46.4106" width="30.2306" height="26.9717" rx="11.9874" transform="rotate(53.0439 87.5771 46.4106)" fill="#A5A5A5"/>
<rect x="97.4717" y="58.0688" width="14.9656" height="21.877" rx="7.48282" transform="rotate(53.0439 97.4717 58.0688)" fill="#A5A5A5"/>
<path d="M97.5204 76.0891C88.0991 83.1773 83.0499 83.8611 78.5159 77.8346C73.9819 71.8082 71.1441 59.1722 77.8414 54.1335C84.5387 49.0948 98.9258 50.3517 103.46 56.3781C107.994 62.4045 106.136 69.6068 97.5204 76.0891Z" fill="#FFE2C7"/>
<path d="M75.2112 66.3652C77.8564 64.375 81.614 64.9061 83.6042 67.5513L83.9551 68.0177C85.9452 70.6629 85.4142 74.4206 82.769 76.4107L78.6979 79.4736C76.0527 81.4638 72.295 80.9327 70.3049 78.2875L69.954 77.8211C67.9638 75.1759 68.4949 71.4182 71.1401 69.4281L75.2112 66.3652Z" fill="#FFE2C7"/>
<path fill-rule="evenodd" clip-rule="evenodd" d="M78.1323 54.5831C83.1572 48.9744 91.4665 48.1167 96.8543 52.7111C98.7288 54.3095 100.007 56.3606 100.676 58.6018C95.6508 64.2104 87.3416 65.0681 81.9538 60.4737C80.0793 58.8753 78.8015 56.8242 78.1323 54.5831Z" fill="#A5A5A5"/>
<path fill-rule="evenodd" clip-rule="evenodd" d="M105.88 64.4789C106.373 59.222 104.401 53.9793 100.129 50.6397C94.3841 46.1485 86.2947 46.5176 80.4222 51.0346C80.6162 55.4509 82.9533 60.0526 87.1141 63.3054C93.1247 68.0043 100.955 68.3358 105.88 64.4789Z" fill="#A5A5A5"/>
<path fill-rule="evenodd" clip-rule="evenodd" d="M72.7495 68.2618C75.7691 61.5802 83.5052 57.6939 91.4569 59.3436C97.8346 60.6668 102.66 65.2002 104.369 70.7239C104.808 69.7521 105.148 68.7212 105.374 67.6396C107.152 59.1213 101.21 50.6839 92.1017 48.7943C82.9935 46.9047 74.1683 52.2783 72.39 60.7967C71.8569 63.3504 72.0176 65.8969 72.7495 68.2618Z" fill="#A5A5A5"/>
<path fill-rule="evenodd" clip-rule="evenodd" d="M81.562 65.9354C79.8897 66.6104 78.1427 65.1411 78.374 63.3522C78.6174 61.4701 79.7755 59.8088 81.5714 59.0838C83.2437 58.4088 84.9907 59.8781 84.7594 61.6671C84.516 63.5491 83.3579 65.2104 81.562 65.9354Z" fill="#FFE2C7"/>
<path d="M94.4046 80.9972L97.1326 75.0251C97.7221 73.7346 96.1996 72.5105 95.0658 73.3635L89.5037 77.5482C88.7384 78.1239 88.7864 79.2876 89.5964 79.7984L92.4305 81.5859C93.1311 82.0278 94.0605 81.7506 94.4046 80.9972Z" fill="#FFE2C7"/>
<rect width="3.42003" height="5.13005" rx="1.71002" transform="matrix(-0.373896 -0.92747 -0.92747 0.373896 94.4214 71.9438)" fill="black"/>
<rect width="2.23549" height="5.91458" rx="1.11775" transform="matrix(0.799096 -0.601203 -0.612041 -0.790826 98.5085 70.1636)" fill="black"/>
<path d="M84.2114 81.3524C87.0005 80.5003 86 77.0004 83.3064 77.6532C80.6128 78.306 81.4223 82.2045 84.2114 81.3524Z" stroke="black" stroke-width="2.25722" stroke-linecap="round" stroke-linejoin="round"/>
<rect width="10.2601" height="15.7322" rx="5.13005" transform="matrix(0.609263 0.792968 -0.793701 0.608308 106.971 75.4888)" fill="#FFE2C7"/>
<path fill-rule="evenodd" clip-rule="evenodd" d="M55.0508 81.1557C54.4979 79.9438 54.7324 78.5379 55.5441 77.4812C57.9736 74.3182 65.309 76.4986 67.5175 79.8184C68.6691 81.5496 70.1156 83.117 71.8487 84.4451C76.8651 88.2893 83.1994 89.298 89.0252 87.7523C91.2613 87.1591 93.7527 87.6959 95.1567 89.5327C96.5437 91.3471 96.5228 93.9463 94.6942 95.3162C86.9078 101.15 74.3446 100.34 64.4234 92.7376C60.1715 89.4793 57.0007 85.4299 55.0508 81.1557Z" fill="#FFE2C7"/>
<path d="M58.4868 156.165C60.8033 156.438 62.5491 158.402 62.5491 160.734C62.5491 163.275 60.4894 165.335 57.9486 165.335L42.6083 165.335C39.5703 165.335 37.1075 162.872 37.1075 159.834C37.1075 156.541 39.9814 153.985 43.2519 154.371L58.4868 156.165Z" fill="#7F00FF"/>
<path d="M78.3805 155.52C80.697 155.791 82.4426 157.754 82.4426 160.086C82.4426 162.627 80.383 164.688 77.8424 164.689L62.5005 164.696C59.4626 164.697 56.9999 162.236 56.9999 159.198C56.9999 155.905 59.8736 153.348 63.144 153.732L78.3805 155.52Z" fill="#7F00FF"/>
<mask id="path-25-outside-1" maskUnits="userSpaceOnUse" x="18.9644" y="40.4531" width="103" height="132" fill="black">
<rect fill="white" x="18.9644" y="40.4531" width="103" height="132"/>
<path fill-rule="evenodd" clip-rule="evenodd" d="M73.5474 57.3846C75.4898 53.3521 79.1711 50.3836 83.5594 49.1073C88.9556 46.5314 95.3526 46.9058 100.129 50.6399C104.312 53.9101 106.29 59.0052 105.908 64.1515C105.991 64.4929 106.059 64.8401 106.112 65.1922L106.135 65.1374C107.105 62.8524 109.744 61.7878 112.028 62.7596C114.313 63.7313 115.378 66.3714 114.408 68.6564L112.071 74.1579C111.11 76.4206 108.514 77.4866 106.245 76.5637V77.5552C107.709 77.6192 109.135 78.3052 110.097 79.5569C111.823 81.8036 111.399 85.022 109.15 86.7455L104.807 90.0742C103.989 90.7009 103.043 91.0437 102.087 91.1181C100.356 92.6121 98.1929 93.6194 95.8109 93.9275C95.5734 94.457 95.2041 94.9346 94.6942 95.3165C88.7857 99.7431 80.1265 100.345 71.9584 97.0553L63.5961 104.968L76.8706 118.779C80.6785 122.74 79.8988 128.527 76.4205 131.702L74.1638 155.026L78.3805 155.52C80.697 155.792 82.4427 157.755 82.4427 160.087C82.4427 162.628 80.3831 164.688 77.8424 164.689L62.5006 164.697C61.8789 164.697 61.2813 164.594 60.7239 164.404C59.9524 164.989 58.991 165.335 57.9485 165.335H42.6083C39.5702 165.335 37.1074 162.872 37.1074 159.834C37.1074 157.865 38.1353 156.159 39.6613 155.189L44.3001 133.676C41.8156 132.99 39.7012 131.254 38.5659 128.854L27.8279 106.152C26.2604 102.838 26.8618 98.9049 29.3478 96.2109L35.5261 89.5156C36.2261 88.7569 37.0248 88.1471 37.8833 87.6866C38.4845 86.493 39.363 85.4147 40.5065 84.5544L58.6189 70.9274C61.9938 68.3883 66.5277 68.6023 69.6337 71.0815C70.0162 70.458 70.52 69.8945 71.14 69.428L71.55 69.1195C70.0979 65.1566 70.8455 60.6663 73.5474 57.3846ZM58.8683 155.067C58.5218 155.372 58.2134 155.72 57.952 156.103L55.5103 155.815L59.0393 143.962L58.8683 155.067Z"/>
</mask>
<path d="M83.5594 49.1073L85.5143 55.8288L86.0611 55.6697L86.575 55.4244L83.5594 49.1073ZM73.5474 57.3846L78.9514 61.8339L79.4878 61.1825L79.8539 60.4224L73.5474 57.3846ZM100.129 50.6399L95.8178 56.1546L95.8178 56.1547L100.129 50.6399ZM105.908 64.1515L98.9271 63.6325L98.8454 64.7311L99.1052 65.8018L105.908 64.1515ZM106.112 65.1922L99.1894 66.2317L102.87 90.7398L112.555 67.9279L106.112 65.1922ZM106.135 65.1374L99.6919 62.4014L99.6918 62.4017L106.135 65.1374ZM112.028 62.7596L109.288 69.201L109.288 69.201L112.028 62.7596ZM114.408 68.6564L120.851 71.3924V71.3924L114.408 68.6564ZM112.071 74.1579L105.628 71.4219V71.4219L112.071 74.1579ZM106.245 76.5637L108.883 70.0797L99.2453 66.1593V76.5637H106.245ZM106.245 77.5552H99.2453V84.2554L105.939 84.5485L106.245 77.5552ZM110.097 79.5569L115.647 75.292L115.647 75.292L110.097 79.5569ZM109.15 86.7455L113.409 92.3014L113.409 92.3014L109.15 86.7455ZM104.807 90.0742L109.065 95.6301L109.065 95.6301L104.807 90.0742ZM102.087 91.1181L101.544 84.1391L99.2525 84.3173L97.5128 85.819L102.087 91.1181ZM95.8109 93.9275L94.9128 86.9854L91.027 87.488L89.4237 91.0632L95.8109 93.9275ZM94.6942 95.3165L98.8913 100.919L98.8913 100.919L94.6942 95.3165ZM71.9584 97.0553L74.5733 90.5621L70.4085 88.8849L67.1472 91.9708L71.9584 97.0553ZM63.5961 104.968L58.7849 99.8837L53.6604 104.733L58.5494 109.819L63.5961 104.968ZM76.8706 118.779L81.9173 113.928L76.8706 118.779ZM76.4205 131.702L71.701 126.533L69.7123 128.348L69.453 131.028L76.4205 131.702ZM74.1638 155.026L67.1963 154.351L66.5357 161.179L73.3482 161.978L74.1638 155.026ZM78.3805 155.52L79.1962 148.568H79.1962L78.3805 155.52ZM77.8424 164.689L77.8457 171.689H77.8457L77.8424 164.689ZM62.5006 164.697L62.4974 157.697H62.4973L62.5006 164.697ZM60.7239 164.404L62.981 157.778L59.461 156.579L56.4969 158.824L60.7239 164.404ZM39.6613 155.189L43.4178 161.096L45.8872 159.525L46.504 156.664L39.6613 155.189ZM44.3001 133.676L51.1428 135.151L52.5364 128.688L46.1636 126.928L44.3001 133.676ZM38.5659 128.854L32.2381 131.847H32.2381L38.5659 128.854ZM27.8279 106.152L21.5001 109.145H21.5001L27.8279 106.152ZM29.3478 96.2109L24.2034 91.4637L24.2034 91.4638L29.3478 96.2109ZM35.5261 89.5156L40.6705 94.2627L40.6705 94.2627L35.5261 89.5156ZM37.8833 87.6866L41.1924 93.855L43.1405 92.81L44.135 90.8356L37.8833 87.6866ZM40.5065 84.5544L44.7149 90.148L44.7149 90.148L40.5065 84.5544ZM58.6189 70.9274L54.4105 65.3338L58.6189 70.9274ZM69.6337 71.0815L65.2669 76.5524L71.4586 81.4946L75.6007 74.7415L69.6337 71.0815ZM71.14 69.428L66.9316 63.8343L66.9316 63.8343L71.14 69.428ZM71.55 69.1195L75.7585 74.7132L79.9103 71.5896L78.1227 66.7111L71.55 69.1195ZM57.952 156.103L57.1331 163.055L61.3446 163.551L63.7345 160.048L57.952 156.103ZM58.8683 155.067L63.4923 160.322L65.8197 158.274L65.8675 155.175L58.8683 155.067ZM55.5103 155.815L48.8014 153.818L46.4267 161.794L54.6914 162.767L55.5103 155.815ZM59.0393 143.962L66.0385 144.07L52.3304 141.965L59.0393 143.962ZM81.6046 42.3858C75.4572 44.1736 70.1103 48.3897 67.2409 54.3469L79.8539 60.4224C80.8693 58.3144 82.8849 56.5935 85.5143 55.8288L81.6046 42.3858ZM104.44 45.1251C97.3495 39.5817 88.0714 39.1968 80.5439 42.7901L86.575 55.4244C89.8398 53.866 93.3557 54.2299 95.8178 56.1546L104.44 45.1251ZM112.889 64.6705C113.427 57.4253 110.641 49.9724 104.44 45.1251L95.8178 56.1547C97.9836 57.8478 99.1537 60.585 98.9271 63.6325L112.889 64.6705ZM113.034 64.1528C112.95 63.5944 112.842 63.0435 112.711 62.5013L99.1052 65.8018C99.1393 65.9424 99.1675 66.0857 99.1894 66.2317L113.034 64.1528ZM99.6918 62.4017L99.6685 62.4565L112.555 67.9279L112.578 67.8731L99.6918 62.4017ZM114.768 56.3181C108.925 53.8324 102.174 56.5564 99.6919 62.4014L112.578 67.8735C112.037 69.1485 110.563 69.7432 109.288 69.201L114.768 56.3181ZM120.851 71.3924C123.331 65.5505 120.609 58.8025 114.768 56.3181L109.288 69.201C108.017 68.6601 107.424 67.1922 107.964 65.9203L120.851 71.3924ZM118.514 76.894L120.851 71.3924L107.964 65.9203L105.628 71.4219L118.514 76.894ZM103.608 83.0478C109.413 85.4094 116.056 82.6824 118.514 76.894L105.628 71.4219C106.165 70.1588 107.615 69.5638 108.883 70.0797L103.608 83.0478ZM113.245 77.5552V76.5637H99.2453V77.5552H113.245ZM115.647 75.292C113.372 72.3311 109.99 70.7124 106.551 70.5619L105.939 84.5485C105.427 84.526 104.897 84.2793 104.546 83.8218L115.647 75.292ZM113.409 92.3014C118.728 88.2242 119.731 80.607 115.647 75.292L104.546 83.8217C103.915 83.0002 104.07 81.8198 104.892 81.1896L113.409 92.3014ZM109.065 95.6301L113.409 92.3014L104.892 81.1896L100.549 84.5183L109.065 95.6301ZM102.629 98.097C104.894 97.9208 107.14 97.1057 109.065 95.6301L100.549 84.5183C100.839 84.2962 101.192 84.1665 101.544 84.1391L102.629 98.097ZM96.7089 100.87C100.493 100.38 103.924 98.7786 106.66 96.4172L97.5128 85.819C96.7869 86.4455 95.8927 86.8586 94.9128 86.9854L96.7089 100.87ZM98.8913 100.919C100.37 99.8112 101.484 98.3843 102.198 96.7919L89.4237 91.0632C89.663 90.5297 90.0386 90.0579 90.4972 89.7143L98.8913 100.919ZM69.3435 103.549C79.2018 107.519 90.5707 107.152 98.8913 100.919L90.4972 89.7143C87.0007 92.3338 81.0512 93.1707 74.5733 90.5621L69.3435 103.549ZM68.4073 110.053L76.7696 102.14L67.1472 91.9708L58.7849 99.8837L68.4073 110.053ZM81.9173 113.928L68.6428 100.117L58.5494 109.819L71.8238 123.63L81.9173 113.928ZM81.14 136.872C87.1945 131.345 88.7538 121.041 81.9173 113.928L71.8238 123.63C72.3024 124.127 72.4235 124.611 72.3929 125.076C72.3564 125.632 72.0898 126.178 71.701 126.533L81.14 136.872ZM81.1313 155.7L83.3879 132.377L69.453 131.028L67.1963 154.351L81.1313 155.7ZM73.3482 161.978L77.5649 162.473L79.1962 148.568L74.9794 148.073L73.3482 161.978ZM77.5649 162.473C76.3548 162.331 75.4427 161.305 75.4427 160.087H89.4427C89.4427 154.204 85.0392 149.253 79.1962 148.568L77.5649 162.473ZM75.4427 160.087C75.4427 158.763 76.5151 157.69 77.8392 157.689L77.8457 171.689C84.2511 171.686 89.4427 166.492 89.4427 160.087H75.4427ZM77.8392 157.689L62.4974 157.697L62.5039 171.697L77.8457 171.689L77.8392 157.689ZM62.4973 157.697C62.6545 157.696 62.82 157.723 62.981 157.778L58.4668 171.03C59.7425 171.465 61.1033 171.697 62.5039 171.697L62.4973 157.697ZM57.9485 172.335C60.5693 172.335 63.0052 171.458 64.9509 169.984L56.4969 158.824C56.8997 158.519 57.4127 158.335 57.9485 158.335V172.335ZM42.6083 172.335H57.9485V158.335H42.6083V172.335ZM30.1074 159.834C30.1074 166.738 35.7042 172.335 42.6083 172.335V158.335C43.4362 158.335 44.1074 159.006 44.1074 159.834H30.1074ZM35.9048 149.282C32.4617 151.472 30.1074 155.351 30.1074 159.834H44.1074C44.1074 160.378 43.809 160.847 43.4178 161.096L35.9048 149.282ZM37.4574 132.2L32.8186 153.713L46.504 156.664L51.1428 135.151L37.4574 132.2ZM32.2381 131.847C34.2581 136.117 38.0199 139.203 42.4366 140.423L46.1636 126.928C45.6113 126.776 45.1442 126.39 44.8937 125.86L32.2381 131.847ZM21.5001 109.145L32.2381 131.847L44.8937 125.86L34.1557 103.159L21.5001 109.145ZM24.2034 91.4638C19.7819 96.2553 18.7122 103.251 21.5001 109.145L34.1557 103.159C33.8086 102.425 33.9418 101.554 34.4922 100.958L24.2034 91.4638ZM30.3817 84.7684L24.2034 91.4637L34.4922 100.958L40.6705 94.2627L30.3817 84.7684ZM34.5742 81.5181C33.0378 82.3423 31.6168 83.43 30.3817 84.7684L40.6705 94.2627C40.8355 94.0839 41.0118 93.9519 41.1924 93.855L34.5742 81.5181ZM36.2981 78.9607C34.2759 80.4821 32.7063 82.404 31.6316 84.5375L44.135 90.8356C44.2627 90.5821 44.4501 90.3473 44.7149 90.148L36.2981 78.9607ZM54.4105 65.3338L36.2981 78.9607L44.7149 90.148L62.8273 76.5211L54.4105 65.3338ZM74.0006 65.6106C68.4856 61.2086 60.4249 60.8088 54.4105 65.3338L62.8273 76.5211C63.5627 75.9679 64.5698 75.996 65.2669 76.5524L74.0006 65.6106ZM66.9316 63.8343C65.5978 64.8378 64.5013 66.061 63.6667 67.4216L75.6007 74.7415C75.5311 74.8549 75.4422 74.9511 75.3484 75.0217L66.9316 63.8343ZM67.3416 63.5258L66.9316 63.8343L75.3484 75.0217L75.7585 74.7132L67.3416 63.5258ZM68.1433 52.9353C63.8551 58.1438 62.6754 65.2457 64.9774 71.5279L78.1227 66.7111C77.5204 65.0675 77.8359 63.1889 78.9514 61.8339L68.1433 52.9353ZM63.7345 160.048C63.6638 160.151 63.5822 160.243 63.4923 160.322L54.2442 149.811C53.4615 150.5 52.7631 151.288 52.1695 152.158L63.7345 160.048ZM54.6914 162.767L57.1331 163.055L58.7708 149.151L56.3292 148.863L54.6914 162.767ZM52.3304 141.965L48.8014 153.818L62.2193 157.813L65.7483 145.96L52.3304 141.965ZM65.8675 155.175L66.0385 144.07L52.0402 143.855L51.8691 154.959L65.8675 155.175Z" fill="black" mask="url(#path-25-outside-1)"/>
<circle cx="161.5" cy="35.5" r="22" fill="#DF3A1F" stroke="black" stroke-width="7"/>
<mask id="mask0" mask-type="alpha" maskUnits="userSpaceOnUse" x="143" y="17" width="37" height="37">
<circle cx="161.5" cy="35.5" r="18.5" fill="#DF3A1F"/>
</mask>
<g mask="url(#mask0)">
<path d="M182.962 31.799C177.495 37.2663 168.63 37.2663 163.163 31.799C157.696 26.3316 157.696 17.4673 163.163 12" stroke="black" stroke-width="4"/>
<path d="M155.799 58.9611C161.266 53.4938 161.266 44.6294 155.799 39.1621C150.332 33.6948 141.467 33.6948 136 39.1621" stroke="black" stroke-width="4"/>
<line x1="143.586" y1="50.5858" x2="177.586" y2="16.5858" stroke="black" stroke-width="4"/>
<line x1="177.586" y1="53.4142" x2="143.586" y2="19.4142" stroke="black" stroke-width="4"/>
</g>
<path d="M198 34.208C201.467 28.2032 206.453 23.2169 212.458 19.75C218.463 16.2832 225.274 14.458 232.208 14.458C239.142 14.458 245.953 16.2832 251.958 19.75C257.963 23.2169 262.949 28.2032 266.416 34.208" stroke="black" stroke-width="7" stroke-linecap="round" stroke-linejoin="round"/>
<path d="M192 12.208C195.467 6.20325 200.453 1.21685 206.458 -2.25C212.463 -5.71685 219.274 -7.542 226.208 -7.542C233.142 -7.542 239.953 -5.71685 245.958 -2.25C251.963 1.21685 256.949 6.20325 260.416 12.208" stroke="black" stroke-width="7" stroke-linecap="round" stroke-linejoin="round"/>
</g>
<defs>
<clipPath id="clip0">
<path d="M0 20C0 8.9543 8.9543 0 20 0H255C266.046 0 275 8.95431 275 20V155C275 166.046 266.046 175 255 175H20C8.9543 175 0 166.046 0 155V20Z" fill="white"/>
</clipPath>
</defs>
</svg>
