<svg width="275" height="175" viewBox="0 0 275 175" fill="none" xmlns="http://www.w3.org/2000/svg">
<g clip-path="url(#clip0)">
<path d="M0 20C0 8.9543 8.9543 0 20 0H255C266.046 0 275 8.95431 275 20V155C275 166.046 266.046 175 255 175H20C8.9543 175 0 166.046 0 155V20Z" fill="white"/>
<rect x="78.0469" y="68.0122" width="119.863" height="92.3253" rx="10" fill="#C08CF4"/>
<path d="M131.105 18.2817C134.41 16.1106 138.684 16.091 142.009 18.2317L204.41 58.4084C212.798 63.8093 208.973 76.8164 198.996 76.8164H75.4361C65.5069 76.8164 61.6469 63.91 69.9456 58.4584L131.105 18.2817Z" fill="#7F00FF"/>
<rect x="95.6445" y="89.2588" width="31.9315" height="33.6506" rx="13.5" stroke="white" stroke-width="7"/>
<path d="M145.172 130.014C145.172 119.952 153.329 111.795 163.391 111.795C173.453 111.795 181.61 119.952 181.61 130.014V160.337H145.172V130.014Z" fill="#7F00FF"/>
<line x1="97.2266" y1="106.392" x2="125.035" y2="106.392" stroke="white" stroke-width="7"/>
<line x1="111.465" y1="119.886" x2="111.465" y2="92.2833" stroke="white" stroke-width="7"/>
<ellipse cx="171.062" cy="138.446" rx="5.75343" ry="5.71084" fill="white"/>
<mask id="path-9-outside-1" maskUnits="userSpaceOnUse" x="57.418" y="9.63965" width="159" height="158" fill="black">
<rect fill="white" x="57.418" y="9.63965" width="159" height="158"/>
<path fill-rule="evenodd" clip-rule="evenodd" d="M131.105 18.2817C134.41 16.1106 138.685 16.091 142.009 18.2317L204.41 58.4084C212.798 63.8093 208.973 76.8163 198.996 76.8163H197.84C197.887 77.2085 197.911 77.6075 197.911 78.0122V150.337C197.911 155.86 193.434 160.337 187.911 160.337L181.61 160.337H145.171L88.048 160.337C82.5251 160.337 78.048 155.86 78.048 150.337V78.0122C78.048 77.6075 78.072 77.2085 78.1188 76.8163H75.4363C65.5071 76.8163 61.6471 63.91 69.9458 58.4584L131.105 18.2817Z"/>
</mask>
<path d="M142.009 18.2317L138.22 24.1173L138.22 24.1173L142.009 18.2317ZM131.105 18.2817L127.262 12.4312V12.4312L131.105 18.2817ZM204.41 58.4084L208.199 52.5228L204.41 58.4084ZM197.84 76.8163V69.8163C195.839 69.8163 193.934 70.6725 192.606 72.1686C191.277 73.6648 190.653 75.6579 190.889 77.6446L197.84 76.8163ZM187.911 160.337L187.911 167.337H187.911V160.337ZM181.61 160.337L181.61 153.337H181.61V160.337ZM145.171 160.337V153.337V160.337ZM88.048 160.337V167.337H88.048L88.048 160.337ZM78.1188 76.8163L85.0696 77.6447C85.3063 75.6579 84.6816 73.6648 83.3532 72.1687C82.0247 70.6725 80.1196 69.8163 78.1188 69.8163V76.8163ZM69.9458 58.4584L73.7891 64.309L69.9458 58.4584ZM145.799 12.3461C140.147 8.70688 132.881 8.74024 127.262 12.4312L134.949 24.1323C135.94 23.4809 137.222 23.475 138.22 24.1173L145.799 12.3461ZM208.199 52.5228L145.799 12.3461L138.22 24.1173L200.62 64.294L208.199 52.5228ZM198.996 83.8163C215.957 83.8163 222.46 61.7045 208.199 52.5228L200.62 64.294C203.137 65.9142 201.989 69.8163 198.996 69.8163V83.8163ZM197.84 83.8163H198.996V69.8163H197.84V83.8163ZM204.911 78.0122C204.911 77.33 204.87 76.6543 204.791 75.9881L190.889 77.6446C190.903 77.7626 190.911 77.8851 190.911 78.0122H204.911ZM204.911 150.337V78.0122H190.911V150.337H204.911ZM187.911 167.337C197.3 167.337 204.911 159.726 204.911 150.337H190.911C190.911 151.994 189.568 153.337 187.911 153.337V167.337ZM181.61 167.337L187.911 167.337L187.911 153.337L181.61 153.337L181.61 167.337ZM145.171 167.337H181.61V153.337H145.171V167.337ZM88.048 167.337L145.171 167.337L145.171 153.337L88.048 153.337L88.048 167.337ZM71.048 150.337C71.048 159.726 78.6591 167.337 88.048 167.337V153.337C86.3911 153.337 85.048 151.994 85.048 150.337H71.048ZM71.048 78.0122V150.337H85.048V78.0122H71.048ZM71.168 75.988C71.0885 76.6544 71.048 77.3301 71.048 78.0122H85.048C85.048 77.885 85.0555 77.7625 85.0696 77.6447L71.168 75.988ZM75.4363 83.8163H78.1188V69.8163H75.4363V83.8163ZM66.1025 52.6079C51.9946 61.8755 58.5566 83.8163 75.4363 83.8163V69.8163C72.4575 69.8163 71.2995 65.9444 73.7891 64.309L66.1025 52.6079ZM127.262 12.4312L66.1025 52.6079L73.7891 64.309L134.949 24.1323L127.262 12.4312Z" fill="black" mask="url(#path-9-outside-1)"/>
</g>
<defs>
<clipPath id="clip0">
<path d="M0 20C0 8.9543 8.9543 0 20 0H255C266.046 0 275 8.95431 275 20V155C275 166.046 266.046 175 255 175H20C8.9543 175 0 166.046 0 155V20Z" fill="white"/>
</clipPath>
</defs>
</svg>
