<svg width="275" height="175" viewBox="0 0 275 175" fill="none" xmlns="http://www.w3.org/2000/svg">
<g clip-path="url(#clip0)">
<rect width="275" height="175" rx="20" fill="white"/>
<path d="M168.052 111.119C168.052 112.474 167.785 113.815 167.267 115.067C166.748 116.319 165.988 117.456 165.03 118.414C164.072 119.372 162.935 120.132 161.683 120.651C160.431 121.169 159.09 121.436 157.735 121.436C156.38 121.436 155.038 121.169 153.786 120.651C152.535 120.132 151.397 119.372 150.439 118.414C149.481 117.456 148.721 116.319 148.203 115.067C147.684 113.815 147.417 112.474 147.417 111.119L157.735 111.119H168.052Z" fill="#FFBA09"/>
<rect x="179.516" y="145.511" width="3.43917" height="16.0495" fill="#FFBA09"/>
<rect x="187.541" y="161.561" width="3.43917" height="16.0495" transform="rotate(90 187.541 161.561)" fill="#FFBA09"/>
<circle cx="168.052" cy="112.265" r="10.3175" fill="#FFE920"/>
<path d="M211.615 125.449C211.615 128.987 210.918 132.49 209.564 135.759C208.21 139.027 206.226 141.997 203.724 144.499C201.223 147 198.253 148.985 194.984 150.338C191.716 151.692 188.212 152.389 184.675 152.389C181.137 152.389 177.634 151.692 174.365 150.338C171.096 148.985 168.127 147 165.625 144.499C163.123 141.997 161.139 139.027 159.785 135.759C158.431 132.49 157.734 128.987 157.734 125.449L184.675 125.449H211.615Z" fill="#FFE920"/>
<rect x="157.734" y="112.266" width="20.635" height="14.9031" fill="#FFE920"/>
<path d="M203.59 125.449C203.59 127.782 203.131 130.093 202.238 132.249C201.345 134.405 200.036 136.363 198.386 138.013C196.736 139.663 194.777 140.972 192.621 141.865C190.465 142.758 188.155 143.218 185.821 143.218C183.488 143.218 181.177 142.758 179.021 141.865C176.866 140.972 174.907 139.663 173.257 138.013C171.607 136.363 170.298 134.405 169.405 132.249C168.512 130.093 168.052 127.782 168.052 125.449L185.821 125.449H203.59Z" fill="#FFBA09"/>
<circle cx="168.052" cy="112.265" r="2.29278" fill="black"/>
<mask id="path-10-outside-1" maskUnits="userSpaceOnUse" x="140.417" y="94.9473" width="79" height="78" fill="black">
<rect fill="white" x="140.417" y="94.9473" width="79" height="78"/>
<path fill-rule="evenodd" clip-rule="evenodd" d="M178.369 112.266V112.265C178.369 106.567 173.75 101.947 168.052 101.947C162.741 101.947 158.367 105.96 157.797 111.119H157.735L147.417 111.119C147.417 112.474 147.684 113.815 148.202 115.067C148.721 116.319 149.481 117.456 150.439 118.414C151.397 119.372 152.534 120.132 153.786 120.651C155.038 121.169 156.379 121.436 157.734 121.436V125.449V127.169H157.789C157.978 130.118 158.651 133.021 159.785 135.758C161.139 139.027 163.123 141.997 165.625 144.498C168.126 147 171.096 148.984 174.365 150.338C176.03 151.028 177.756 151.547 179.516 151.891V161.561H182.955V152.334C183.527 152.371 184.1 152.389 184.674 152.389C188.212 152.389 191.715 151.692 194.984 150.338C198.252 148.984 201.222 147 203.724 144.498C206.226 141.997 208.21 139.027 209.564 135.758C210.918 132.49 211.615 128.987 211.615 125.449H203.59V125.449H185.821H178.369V112.266ZM187.541 161.561V165H171.491V161.561H187.541Z"/>
</mask>
<path d="M157.797 111.119V118.119C161.366 118.119 164.363 115.434 164.755 111.888L157.797 111.119ZM157.735 111.119L157.735 118.119H157.735V111.119ZM147.417 111.119L147.417 104.119C145.56 104.119 143.78 104.856 142.467 106.169C141.154 107.482 140.417 109.262 140.417 111.119H147.417ZM148.202 115.067L154.67 112.388V112.388L148.202 115.067ZM150.439 118.414L155.389 113.464L155.389 113.464L150.439 118.414ZM153.786 120.651L151.107 127.118L151.107 127.118L153.786 120.651ZM157.734 121.436H164.734C164.734 117.57 161.6 114.436 157.734 114.436L157.734 121.436ZM157.734 127.169H150.734C150.734 131.035 153.868 134.169 157.734 134.169V127.169ZM157.789 127.169L164.775 126.722C164.539 123.037 161.482 120.169 157.789 120.169V127.169ZM159.785 135.758L153.318 138.437L153.318 138.437L159.785 135.758ZM165.625 144.498L160.675 149.448L160.675 149.448L165.625 144.498ZM174.365 150.338L171.686 156.806L174.365 150.338ZM179.516 151.891H186.516C186.516 148.541 184.144 145.661 180.856 145.02L179.516 151.891ZM179.516 161.561H172.516C172.516 165.427 175.65 168.561 179.516 168.561V161.561ZM182.955 161.561V168.561C186.821 168.561 189.955 165.427 189.955 161.561H182.955ZM182.955 152.334L183.402 145.348C181.472 145.225 179.577 145.906 178.166 147.229C176.756 148.552 175.955 150.4 175.955 152.334H182.955ZM194.984 150.338L192.305 143.871V143.871L194.984 150.338ZM203.724 144.498L198.774 139.549L198.774 139.549L203.724 144.498ZM209.564 135.758L203.097 133.08L203.097 133.08L209.564 135.758ZM211.615 125.449H218.615C218.615 121.583 215.481 118.449 211.615 118.449V125.449ZM203.59 125.449H196.59C196.59 129.315 199.724 132.449 203.59 132.449V125.449ZM203.59 125.449H210.59C210.59 121.583 207.456 118.449 203.59 118.449V125.449ZM178.369 125.449H171.369C171.369 129.315 174.503 132.449 178.369 132.449V125.449ZM187.541 165V172C191.407 172 194.541 168.866 194.541 165H187.541ZM187.541 161.561H194.541C194.541 157.695 191.407 154.561 187.541 154.561V161.561ZM171.491 165H164.491C164.491 168.866 167.625 172 171.491 172V165ZM171.491 161.561V154.561C167.625 154.561 164.491 157.695 164.491 161.561H171.491ZM171.369 112.265V112.266H185.369V112.265H171.369ZM168.052 108.947C169.884 108.947 171.369 110.433 171.369 112.265H185.369C185.369 102.701 177.616 94.9473 168.052 94.9473V108.947ZM164.755 111.888C164.937 110.236 166.349 108.947 168.052 108.947V94.9473C159.133 94.9473 151.797 101.683 150.839 110.35L164.755 111.888ZM157.735 118.119H157.797V104.119H157.735V118.119ZM147.417 118.119L157.735 118.119L157.735 104.119L147.417 104.119L147.417 118.119ZM154.67 112.388C154.503 111.986 154.417 111.554 154.417 111.119H140.417C140.417 113.393 140.865 115.645 141.735 117.746L154.67 112.388ZM155.389 113.464C155.081 113.156 154.836 112.791 154.67 112.388L141.735 117.746C142.605 119.847 143.881 121.756 145.489 123.364L155.389 113.464ZM156.465 114.184C156.062 114.017 155.697 113.772 155.389 113.464L145.489 123.364C147.097 124.972 149.006 126.248 151.107 127.118L156.465 114.184ZM157.734 114.436C157.299 114.436 156.867 114.35 156.465 114.184L151.107 127.118C153.208 127.988 155.46 128.436 157.734 128.436L157.734 114.436ZM164.734 125.449V121.436H150.734V125.449H164.734ZM164.734 127.169V125.449H150.734V127.169H164.734ZM157.789 120.169H157.734V134.169H157.789V120.169ZM166.252 133.08C165.413 131.053 164.915 128.905 164.775 126.722L150.803 127.616C151.041 131.332 151.889 134.988 153.318 138.437L166.252 133.08ZM170.575 139.549C168.723 137.697 167.254 135.499 166.252 133.08L153.318 138.437C155.023 142.555 157.523 146.297 160.675 149.448L170.575 139.549ZM177.044 143.871C174.624 142.869 172.426 141.4 170.575 139.549L160.675 149.448C163.827 152.6 167.568 155.1 171.686 156.806L177.044 143.871ZM180.856 145.02C179.553 144.766 178.276 144.382 177.044 143.871L171.686 156.806C173.784 157.674 175.958 158.328 178.176 158.761L180.856 145.02ZM186.516 161.561V151.891H172.516V161.561H186.516ZM182.955 154.561H179.516V168.561H182.955V154.561ZM175.955 152.334V161.561H189.955V152.334H175.955ZM184.674 145.389C184.249 145.389 183.825 145.375 183.402 145.348L182.509 159.32C183.229 159.366 183.951 159.389 184.674 159.389V145.389ZM192.305 143.871C189.886 144.873 187.293 145.389 184.674 145.389V159.389C189.131 159.389 193.545 158.511 197.663 156.806L192.305 143.871ZM198.774 139.549C196.923 141.4 194.724 142.869 192.305 143.871L197.663 156.806C201.781 155.1 205.522 152.6 208.674 149.448L198.774 139.549ZM203.097 133.08C202.095 135.499 200.626 137.697 198.774 139.549L208.674 149.448C211.825 146.297 214.325 142.555 216.031 138.437L203.097 133.08ZM204.615 125.449C204.615 128.067 204.099 130.66 203.097 133.08L216.031 138.437C217.737 134.319 218.615 129.906 218.615 125.449H204.615ZM203.59 132.449H211.615V118.449H203.59V132.449ZM196.59 125.449V125.449H210.59V125.449H196.59ZM185.821 132.449H203.59V118.449H185.821V132.449ZM178.369 132.449H185.821V118.449H178.369V132.449ZM171.369 112.266V125.449H185.369V112.266H171.369ZM194.541 165V161.561H180.541V165H194.541ZM171.491 172H187.541V158H171.491V172ZM164.491 161.561V165H178.491V161.561H164.491ZM187.541 154.561H171.491V168.561H187.541V154.561Z" fill="black" mask="url(#path-10-outside-1)"/>
<rect x="48.8999" y="14.2271" width="33.2453" height="39.0271" rx="11.9874" fill="#A5A5A5"/>
<path d="M47.4076 89.9193C47.2535 86.5065 49.9788 83.6553 53.3952 83.6553L59.1715 83.6553C62.4817 83.6553 65.1652 86.3387 65.1652 89.649L65.1652 145.661C65.1652 148.88 62.6222 151.524 59.4054 151.65L56.1637 151.776C52.8702 151.905 50.0909 149.35 49.9422 146.058L47.4076 89.9193Z" fill="#FFE2C7"/>
<path d="M60.6299 87.1035C59.8147 83.2713 62.8168 79.5261 66.7039 79.5258L72.802 79.5253C75.5989 79.5251 77.9286 81.5151 78.3936 84.3017L88.2478 143.357C88.7927 146.622 86.6118 149.837 83.3768 150.539L80.1365 151.242C77.0021 151.922 74.0077 149.991 73.3418 146.861L60.6299 87.1035Z" fill="#FFE2C7"/>
<rect width="20.1523" height="21.8895" rx="5.99371" transform="matrix(0.982336 -0.187128 0.186679 0.982421 54.5742 92.4976)" fill="#FFE2C7"/>
<rect width="8.98982" height="14.9669" rx="4.49491" transform="matrix(-0.258819 0.965926 -0.966087 -0.258218 112.715 87.9224)" fill="#FFE2C7"/>
<path fill-rule="evenodd" clip-rule="evenodd" d="M76.5103 56.0491C76.8129 54.7363 77.8667 53.7523 79.1674 53.4038C82.6909 52.4597 86.17 56.869 85.7954 60.499C85.5313 63.0589 85.7202 65.7154 86.4246 68.3576C87.6382 72.9094 90.1987 76.7325 93.5474 79.4958C96.0637 81.5723 96.9174 85.5897 94.6072 87.8985C93.3316 89.1733 91.3977 89.5982 89.835 88.7023C83.9266 85.3155 79.0208 78.9544 76.8776 70.9157C75.5013 65.7535 75.4565 60.6211 76.5103 56.0491Z" fill="#FFE2C7"/>
<path d="M48.8999 58.4746C48.8999 53.2936 53.2674 49.1848 58.4388 49.5008L71.7739 50.3156C76.4622 50.602 80.1399 54.4491 80.2151 59.1456L80.5599 80.6992C80.6378 85.5666 76.8275 89.6118 71.9642 89.825L58.2842 90.4246C53.1692 90.6489 48.8999 86.5626 48.8999 81.4427V58.4746Z" fill="#1CC64B"/>
<path d="M48.1008 92.0827C48.3746 87.326 52.3119 83.6089 57.0765 83.6089H73.6889C78.1595 83.6089 81.9509 86.8937 82.5877 91.3187L86.4488 118.147C87.2287 123.566 83.0249 128.418 77.5499 128.418H55.5321C50.3636 128.418 46.2593 124.07 46.5564 118.911L48.1008 92.0827Z" fill="#1CC64B"/>
<rect width="10.2601" height="15.7322" rx="5.13005" transform="matrix(-0.610433 0.792068 -0.791333 -0.611386 70.4419 100.848)" fill="#FFE2C7"/>
<path fill-rule="evenodd" clip-rule="evenodd" d="M51.7202 52.0685C52.718 51.2542 54.0897 51.1246 55.2784 51.6215C58.5938 53.0074 58.5566 58.7955 56.0846 61.4022C54.5065 63.0664 53.205 65.0314 52.2763 67.2603C49.7158 73.4053 50.571 80.1579 53.9774 85.5388C55.3902 87.7704 55.6421 90.7031 54.0257 92.7898C52.5198 94.7338 49.8029 95.4319 47.8992 93.8734C40.4503 87.7754 38.1128 75.5593 42.871 64.1401C44.9417 59.1706 48.0646 55.0519 51.7202 52.0685Z" fill="#FFE2C7"/>
<rect x="51.6018" y="20.3042" width="30.2306" height="26.9717" rx="11.9874" fill="#A5A5A5"/>
<rect x="66.8665" y="19.4062" width="14.9656" height="21.877" rx="7.48282" fill="#A5A5A5"/>
<path d="M81.2956 30.2015C81.2956 41.9914 78.8065 46.4373 71.2649 46.4373C63.7233 46.4373 51.9199 41.1082 51.9199 32.7271C51.9199 24.346 61.5739 13.605 69.1155 13.605C76.657 13.605 81.2956 19.4192 81.2956 30.2015Z" fill="#FFE2C7"/>
<path d="M60.1128 42.1827C60.1128 38.8724 62.7963 36.189 66.1065 36.189H66.6902C70.0005 36.189 72.6839 38.8724 72.6839 42.1827V47.2773C72.6839 50.5876 70.0005 53.271 66.6902 53.271H66.1065C62.7963 53.271 60.1128 50.5876 60.1128 47.2773V42.1827Z" fill="#FFE2C7"/>
<path fill-rule="evenodd" clip-rule="evenodd" d="M52.4544 32.7651C50.9935 25.3777 55.3037 18.2222 62.2142 16.6789C64.6185 16.142 67.0257 16.3541 69.2189 17.1667C70.6797 24.5541 66.3696 31.7096 59.4591 33.2528C57.0548 33.7898 54.6476 33.5777 52.4544 32.7651Z" fill="#A5A5A5"/>
<path fill-rule="evenodd" clip-rule="evenodd" d="M77.0442 16.5406C73.1399 12.9861 67.7646 11.4104 62.5277 12.8163C55.4848 14.7069 50.9165 21.393 50.9954 28.8014C54.6411 31.3015 59.7234 32.2005 64.8242 30.8311C72.1926 28.8531 77.1651 22.7954 77.0442 16.5406Z" fill="#A5A5A5"/>
<path fill-rule="evenodd" clip-rule="evenodd" d="M60.1485 45.2897C56.6246 38.8597 58.1701 30.3414 64.2689 24.9791C69.1605 20.6782 75.6842 19.5478 81.1259 21.5026C80.6134 20.5675 79.9936 19.6765 79.2651 18.8458C73.5272 12.3035 63.2126 11.9792 56.2267 18.1215C49.2408 24.2638 48.2291 34.5467 53.967 41.089C55.6872 43.0503 57.8187 44.4528 60.1485 45.2897Z" fill="#A5A5A5"/>
<path fill-rule="evenodd" clip-rule="evenodd" d="M63.5877 36.8495C63.1217 38.5917 60.8973 39.1044 59.6068 37.844C58.2492 36.518 57.6179 34.5938 58.1183 32.7228C58.5843 30.9806 60.8087 30.4679 62.0992 31.7283C63.4568 33.0543 64.0881 34.9785 63.5877 36.8495Z" fill="#FFE2C7"/>
<path d="M83.3447 35.6419L80.2124 29.8715C79.5356 28.6246 77.6421 29.1053 77.6421 30.5241V37.4846C77.6421 38.4423 78.6008 39.1036 79.496 38.7634L82.6282 37.5733C83.4025 37.2791 83.7398 36.3698 83.3447 35.6419Z" fill="#FFE2C7"/>
<rect width="3.42003" height="5.13005" rx="1.71002" transform="matrix(-0.965926 -0.258819 -0.258819 0.965926 76.1204 30.1855)" fill="black"/>
<rect width="2.23549" height="5.91458" rx="1.11775" transform="matrix(-4.37114e-08 -1 -0.999907 0.0136318 77.1548 25.8491)" fill="black"/>
<path d="M73.4887 40.2831C74.6802 42.0789 76.9088 42.677 78.4675 42.7629L78.8098 42.4209C76.2247 43.0191 73.4887 40.2831 73.4887 40.2831Z" stroke="black" stroke-width="2.25722" stroke-linecap="round" stroke-linejoin="round"/>
<path d="M70.4868 156.166C72.8033 156.439 74.5491 158.402 74.5491 160.735C74.5491 163.275 72.4894 165.335 69.9486 165.335L54.6083 165.335C51.5703 165.335 49.1075 162.872 49.1075 159.834C49.1075 156.541 51.9814 153.986 55.2519 154.371L70.4868 156.166Z" fill="#7F00FF"/>
<path d="M97.8547 152.345C100.181 152.173 102.267 153.769 102.709 156.059C103.191 158.553 101.56 160.967 99.0653 161.45L84.0033 164.367C81.0207 164.944 78.1359 162.994 77.5597 160.012C76.9352 156.778 79.272 153.723 82.5558 153.48L97.8547 152.345Z" fill="#7F00FF"/>
<mask id="path-36-outside-2" maskUnits="userSpaceOnUse" x="33.3975" y="4.30518" width="86" height="169" fill="black">
<rect fill="white" x="33.3975" y="4.30518" width="86" height="169"/>
<path fill-rule="evenodd" clip-rule="evenodd" d="M58.74 14.4189C53.1443 15.431 48.9001 20.3271 48.9001 26.2145V41.2668C48.9001 45.0731 50.6741 48.465 53.4404 50.6609C52.5442 51.1728 51.7431 51.8348 51.0726 52.6137C47.6963 55.5457 44.8184 59.4665 42.8711 64.1399C38.1829 75.3911 40.3832 87.416 47.574 93.6002L47.7672 97.8806L46.5566 118.91C46.4073 121.503 47.3696 123.891 49.0199 125.625L49.9424 146.058C50.0911 149.35 52.8705 151.905 56.164 151.776L59.4056 151.65C62.6224 151.524 65.1654 148.88 65.1654 145.661V128.418H69.4186L73.3419 146.861C74.0078 149.991 77.0022 151.922 80.1365 151.242L83.3769 150.539C86.6119 149.837 88.7928 146.622 88.2479 143.357L85.0759 124.347C86.2271 122.59 86.776 120.418 86.4491 118.146L82.588 91.3185C82.2478 88.9547 81.0073 86.9162 79.244 85.53C80.1045 84.124 80.5884 82.4657 80.5602 80.6992L80.5406 79.4774C82.9992 83.4631 86.2306 86.6363 89.8351 88.7024C91.3978 89.5983 93.3317 89.1734 94.6073 87.8986C96.9175 85.5898 96.0639 81.5724 93.5475 79.4959C90.1989 76.7326 87.6383 72.9095 86.4248 68.3577C85.7203 65.7155 85.5314 63.059 85.7955 60.4991C86.1701 56.8691 82.691 52.4598 79.1676 53.4039C78.8646 53.485 78.575 53.6007 78.3052 53.747C77.678 52.9466 76.9175 52.2547 76.0561 51.7052C79.6918 49.6465 82.1455 45.7432 82.1455 41.2668V37.7567L82.6283 37.5732C83.4025 37.2791 83.7398 36.3697 83.3447 35.6418L82.1455 33.4325V26.2145C82.1455 21.8715 79.836 18.068 76.3781 15.965C72.5413 12.8198 67.4729 11.4888 62.5278 12.8163C61.1677 13.1814 59.8999 13.7254 58.74 14.4189ZM108.373 86.7618C110.771 87.4028 112.194 89.8663 111.552 92.2642C110.909 94.6621 108.444 96.0863 106.046 95.4453L100.272 93.9019C97.8734 93.2609 96.45 90.7973 97.0925 88.3995C97.735 86.0016 100.2 84.5774 102.598 85.2184L108.373 86.7618ZM70.4868 156.165C72.8034 156.438 74.5491 158.402 74.5491 160.734C74.5491 163.275 72.4894 165.335 69.9486 165.335H54.6084C51.5703 165.335 49.1075 162.872 49.1075 159.834C49.1075 156.541 51.9814 153.986 55.2519 154.371L70.4868 156.165ZM102.709 156.059C102.267 153.769 100.181 152.173 97.8549 152.345L82.556 153.48C79.2722 153.723 76.9354 156.778 77.5599 160.011C78.1361 162.994 81.0209 164.944 84.0035 164.367L99.0655 161.45C101.56 160.967 103.191 158.553 102.709 156.059Z"/>
</mask>
<path d="M58.74 14.4189L59.9859 21.3071C60.8145 21.1572 61.6093 20.8591 62.3321 20.4269L58.74 14.4189ZM53.4404 50.6609L56.9118 56.7395C58.9293 55.5874 60.2437 53.5093 60.4202 51.1926C60.5967 48.876 59.6123 46.6228 57.7926 45.1783L53.4404 50.6609ZM51.0726 52.6137L55.6623 57.8991C55.9178 57.6772 56.1569 57.437 56.3777 57.1806L51.0726 52.6137ZM42.8711 64.1399L36.4096 61.4475L42.8711 64.1399ZM47.574 93.6002L54.5669 93.2845C54.4798 91.3571 53.6011 89.551 52.1383 88.293L47.574 93.6002ZM47.7672 97.8806L54.7557 98.2829C54.7694 98.0438 54.7709 97.8042 54.7601 97.5649L47.7672 97.8806ZM46.5566 118.91L39.5682 118.508L46.5566 118.91ZM49.0199 125.625L56.0128 125.31C55.9367 123.624 55.254 122.022 54.0906 120.8L49.0199 125.625ZM49.9424 146.058L56.9353 145.742L49.9424 146.058ZM56.164 151.776L56.4371 158.771L56.4372 158.771L56.164 151.776ZM59.4056 151.65L59.1324 144.655H59.1324L59.4056 151.65ZM65.1654 128.418V121.418C61.2994 121.418 58.1654 124.552 58.1654 128.418H65.1654ZM69.4186 128.418L76.2654 126.961C75.5778 123.729 72.7232 121.418 69.4186 121.418V128.418ZM73.3419 146.861L80.1887 145.404L73.3419 146.861ZM80.1365 151.242L78.6526 144.401H78.6526L80.1365 151.242ZM83.3769 150.539L84.8609 157.38H84.8609L83.3769 150.539ZM88.2479 143.357L95.1525 142.204L88.2479 143.357ZM85.0759 124.347L79.221 120.51C78.2565 121.982 77.8817 123.763 78.1713 125.499L85.0759 124.347ZM86.4491 118.146L79.5204 119.143L86.4491 118.146ZM82.588 91.3185L75.6594 92.3157L82.588 91.3185ZM79.244 85.53L73.2734 81.876C71.4204 84.9038 72.1272 88.8393 74.9179 91.0332L79.244 85.53ZM80.5602 80.6992L73.5611 80.8111L80.5602 80.6992ZM80.5406 79.4774L86.4983 75.8024C84.844 73.1204 81.6015 71.8744 78.5769 72.7585C75.5522 73.6425 73.4911 76.4386 73.5415 79.5893L80.5406 79.4774ZM89.8351 88.7024L86.3539 94.7754L86.3539 94.7755L89.8351 88.7024ZM94.6073 87.8986L89.6591 82.9473L89.6591 82.9473L94.6073 87.8986ZM93.5475 79.4959L89.0922 84.895L89.0922 84.895L93.5475 79.4959ZM86.4248 68.3577L93.1885 66.5544V66.5544L86.4248 68.3577ZM85.7955 60.4991L78.8325 59.7806L85.7955 60.4991ZM79.1676 53.4039L77.3558 46.6424L77.3558 46.6424L79.1676 53.4039ZM78.3052 53.747L72.7954 58.0646C74.9015 60.7522 78.6394 61.5282 81.6412 59.9009L78.3052 53.747ZM76.0561 51.7052L72.6069 45.614C70.4697 46.8242 69.1231 49.0659 69.0585 51.5211C68.9939 53.9764 70.2208 56.2858 72.2915 57.6067L76.0561 51.7052ZM82.1455 37.7567L79.6592 31.2131C76.9419 32.2455 75.1455 34.8499 75.1455 37.7567H82.1455ZM82.6283 37.5732L80.142 31.0297L80.142 31.0297L82.6283 37.5732ZM83.3447 35.6418L89.4968 32.3024L89.4968 32.3024L83.3447 35.6418ZM82.1455 33.4325H75.1455C75.1455 34.5989 75.4369 35.7468 75.9934 36.7719L82.1455 33.4325ZM76.3781 15.965L71.9404 21.3786C72.1936 21.5862 72.4611 21.7757 72.7408 21.9458L76.3781 15.965ZM62.5278 12.8163L60.7129 6.05569V6.05569L62.5278 12.8163ZM108.373 86.7618L110.18 79.9992H110.18L108.373 86.7618ZM106.046 95.4453L104.238 102.208L104.238 102.208L106.046 95.4453ZM100.272 93.9019L98.4641 100.664H98.4641L100.272 93.9019ZM97.0925 88.3995L103.854 90.2112L103.854 90.2112L97.0925 88.3995ZM102.598 85.2184L104.406 78.4558L104.406 78.4558L102.598 85.2184ZM70.4868 156.165L69.6679 163.117H69.6679L70.4868 156.165ZM55.2519 154.371L54.433 161.323H54.433L55.2519 154.371ZM97.8549 152.345L98.3726 159.326H98.3726L97.8549 152.345ZM102.709 156.059L95.8365 157.386L95.8365 157.386L102.709 156.059ZM82.556 153.48L82.0383 146.499H82.0383L82.556 153.48ZM77.5599 160.011L70.687 161.339V161.339L77.5599 160.011ZM84.0035 164.367L85.3342 171.239H85.3342L84.0035 164.367ZM99.0655 161.45L97.7348 154.578H97.7348L99.0655 161.45ZM55.9001 26.2145C55.9001 23.7724 57.6623 21.7274 59.9859 21.3071L57.4941 7.53065C48.6263 9.13459 41.9001 16.8818 41.9001 26.2145H55.9001ZM55.9001 41.2668V26.2145H41.9001V41.2668H55.9001ZM57.7926 45.1783C56.6271 44.2532 55.9001 42.847 55.9001 41.2668H41.9001C41.9001 47.2991 44.7212 52.6769 49.0883 56.1435L57.7926 45.1783ZM56.3777 57.1806C56.5302 57.0034 56.712 56.8537 56.9118 56.7395L49.9691 44.5823C48.3764 45.4918 46.956 46.6662 45.7675 48.0469L56.3777 57.1806ZM49.3326 66.8323C50.8758 63.1288 53.1236 60.1036 55.6623 57.8991L46.4829 47.3284C42.2689 50.9877 38.7611 55.8043 36.4096 61.4475L49.3326 66.8323ZM52.1383 88.293C47.8101 84.5706 45.4942 76.0441 49.3326 66.8323L36.4096 61.4475C30.8716 74.7382 32.9562 90.2614 43.0097 98.9075L52.1383 88.293ZM54.7601 97.5649L54.5669 93.2845L40.5811 93.9159L40.7744 98.1964L54.7601 97.5649ZM53.545 119.313L54.7557 98.2829L40.7788 97.4783L39.5682 118.508L53.545 119.313ZM54.0906 120.8C53.7159 120.406 53.5119 119.889 53.545 119.313L39.5682 118.508C39.3028 123.118 41.0233 127.377 43.9493 130.451L54.0906 120.8ZM56.9353 145.742L56.0128 125.31L42.027 125.941L42.9495 146.373L56.9353 145.742ZM55.8908 144.782C56.4437 144.76 56.9103 145.189 56.9353 145.742L42.9495 146.373C43.2718 153.511 49.2972 159.05 56.4371 158.771L55.8908 144.782ZM59.1324 144.655L55.8907 144.782L56.4372 158.771L59.6788 158.644L59.1324 144.655ZM58.1654 145.661C58.1654 145.12 58.5923 144.676 59.1324 144.655L59.6788 158.644C66.6524 158.372 72.1654 152.639 72.1654 145.661H58.1654ZM58.1654 128.418V145.661H72.1654V128.418H58.1654ZM69.4186 121.418H65.1654V135.418H69.4186V121.418ZM80.1887 145.404L76.2654 126.961L62.5718 129.874L66.4951 148.317L80.1887 145.404ZM78.6526 144.401C78.9211 144.343 79.285 144.39 79.607 144.597C79.9295 144.805 80.1288 145.123 80.1887 145.404L66.4951 148.317C67.9706 155.254 74.7112 159.582 81.6205 158.083L78.6526 144.401ZM81.893 143.698L78.6526 144.401L81.6205 158.083L84.8609 157.38L81.893 143.698ZM81.3434 144.509C81.3005 144.251 81.3769 144.068 81.4364 143.98C81.496 143.892 81.6381 143.754 81.893 143.698L84.8609 157.38C91.7457 155.887 96.312 149.153 95.1525 142.204L81.3434 144.509ZM78.1713 125.499L81.3434 144.509L95.1525 142.204L91.9804 123.195L78.1713 125.499ZM79.5204 119.143C79.5945 119.658 79.4764 120.121 79.221 120.51L90.9308 128.184C92.9778 125.06 93.9576 121.178 93.3777 117.149L79.5204 119.143ZM75.6594 92.3157L79.5204 119.143L93.3777 117.149L89.5166 90.3213L75.6594 92.3157ZM74.9179 91.0332C75.3155 91.3457 75.5841 91.7926 75.6594 92.3157L89.5166 90.3213C88.9115 86.1167 86.6992 82.4867 83.5701 80.0269L74.9179 91.0332ZM73.5611 80.8111C73.5675 81.2117 73.4613 81.569 73.2734 81.876L85.2146 89.184C86.7478 86.6789 87.6094 83.7197 87.5593 80.5872L73.5611 80.8111ZM73.5415 79.5893L73.5611 80.8111L87.5593 80.5872L87.5397 79.3654L73.5415 79.5893ZM93.3163 82.6294C90.8141 81.1951 88.401 78.8868 86.4983 75.8024L74.5829 83.1524C77.5974 88.0393 81.647 92.0774 86.3539 94.7754L93.3163 82.6294ZM89.6591 82.9473C90.1988 82.4079 91.6555 81.6775 93.3162 82.6294L86.3539 94.7755C91.1402 97.519 96.4646 95.9388 99.5555 92.8499L89.6591 82.9473ZM89.0922 84.895C89.0228 84.8377 89.0043 84.8022 89.0037 84.8011C89.0014 84.797 88.9972 84.789 88.9919 84.7739C88.9866 84.7589 88.9769 84.7272 88.969 84.676C88.9545 84.5818 88.9362 84.3492 89.0296 84.0156C89.1302 83.6564 89.3394 83.2668 89.6591 82.9473L99.5555 92.8499C102.596 89.8117 103.313 85.8348 102.806 82.5443C102.31 79.3236 100.609 76.2472 98.0028 74.0968L89.0922 84.895ZM79.661 70.1611C81.2598 76.1576 84.6463 81.2262 89.0922 84.895L98.0028 74.0968C95.7514 72.239 94.0169 69.6614 93.1885 66.5544L79.661 70.1611ZM78.8325 59.7806C78.4823 63.1747 78.7346 66.6861 79.661 70.1611L93.1885 66.5544C92.706 64.7448 92.5805 62.9432 92.7586 61.2176L78.8325 59.7806ZM80.9793 60.1653C80.1788 60.3798 79.4764 60.2416 79.0675 60.0725C78.715 59.9268 78.623 59.7863 78.6845 59.8562C78.7368 59.9157 78.7982 60.0171 78.8301 60.1055C78.8651 60.2021 78.8001 60.0947 78.8325 59.7806L92.7586 61.2176C93.1837 57.0971 91.4872 53.2172 89.2021 50.6162C86.9467 48.0489 82.6464 45.2248 77.3558 46.6424L80.9793 60.1653ZM81.6412 59.9009C81.4262 60.0174 81.204 60.1051 80.9793 60.1653L77.3558 46.6424C76.5252 46.8649 75.7238 47.1839 74.9692 47.593L81.6412 59.9009ZM72.2915 57.6067C72.4826 57.7287 72.6539 57.884 72.7954 58.0646L83.815 49.4293C82.7021 48.0091 81.3524 46.7808 79.8207 45.8037L72.2915 57.6067ZM75.1455 41.2668C75.1455 43.1201 74.1378 44.7471 72.6069 45.614L79.5053 57.7965C85.2459 54.5459 89.1455 48.3662 89.1455 41.2668H75.1455ZM75.1455 37.7567V41.2668H89.1455V37.7567H75.1455ZM80.142 31.0297L79.6592 31.2131L84.6317 44.3003L85.1145 44.1168L80.142 31.0297ZM77.1926 38.9812C75.5659 35.9844 76.9544 32.2408 80.142 31.0297L85.1145 44.1168C89.8506 42.3174 91.9138 36.7551 89.4968 32.3024L77.1926 38.9812ZM75.9934 36.7719L77.1926 38.9812L89.4968 32.3024L88.2976 30.0931L75.9934 36.7719ZM75.1455 26.2145V33.4325H89.1455V26.2145H75.1455ZM72.7408 21.9458C74.1977 22.8319 75.1455 24.4157 75.1455 26.2145H89.1455C89.1455 19.3273 85.4743 13.3041 80.0155 9.98426L72.7408 21.9458ZM64.3427 19.577C66.9066 18.8887 69.6808 19.5263 71.9404 21.3786L80.8159 10.5515C75.4018 6.11335 68.0392 4.08896 60.7129 6.05569L64.3427 19.577ZM62.3321 20.4269C62.9449 20.0606 63.6155 19.7722 64.3427 19.577L60.7129 6.05569C58.7199 6.59072 56.8549 7.39025 55.1479 8.41081L62.3321 20.4269ZM118.313 94.0759C119.957 87.9421 116.315 81.6389 110.18 79.9992L106.565 93.5244C105.227 93.1667 104.432 91.7905 104.79 90.4525L118.313 94.0759ZM104.238 102.208C110.37 103.847 116.671 100.206 118.313 94.0759L104.79 90.4525C105.148 89.1177 106.519 88.3259 107.854 88.6827L104.238 102.208ZM98.4641 100.664L104.238 102.208L107.854 88.6827L102.079 87.1393L98.4641 100.664ZM90.3311 86.5877C88.6875 92.7215 92.3293 99.0247 98.4641 100.664L102.079 87.1393C103.417 87.497 104.213 88.8732 103.854 90.2112L90.3311 86.5877ZM104.406 78.4558C98.2744 76.8169 91.9737 80.4572 90.331 86.5877L103.854 90.2112C103.496 91.5459 102.126 92.3378 100.791 91.981L104.406 78.4558ZM110.18 79.9992L104.406 78.4558L100.791 91.981L106.565 93.5244L110.18 79.9992ZM81.5491 160.734C81.5491 154.852 77.1471 149.902 71.3057 149.213L69.6679 163.117C68.4596 162.975 67.5491 161.951 67.5491 160.734H81.5491ZM69.9486 172.335C76.3554 172.335 81.5491 167.141 81.5491 160.734H67.5491C67.5491 159.409 68.6234 158.335 69.9486 158.335V172.335ZM54.6084 172.335H69.9486V158.335H54.6084V172.335ZM42.1075 159.834C42.1075 166.738 47.7043 172.335 54.6084 172.335V158.335C55.4363 158.335 56.1075 159.006 56.1075 159.834H42.1075ZM56.0708 147.419C48.6385 146.543 42.1075 152.35 42.1075 159.834H56.1075C56.1075 160.731 55.3243 161.428 54.433 161.323L56.0708 147.419ZM71.3057 149.213L56.0708 147.419L54.433 161.323L69.6679 163.117L71.3057 149.213ZM98.3726 159.326C97.1575 159.416 96.0674 158.582 95.8365 157.386L109.582 154.731C108.467 148.955 103.204 144.929 97.3373 145.364L98.3726 159.326ZM83.0736 160.46L98.3726 159.326L97.3373 145.364L82.0383 146.499L83.0736 160.46ZM84.4329 158.684C84.6028 159.563 83.968 160.394 83.0736 160.46L82.0383 146.499C74.5764 147.052 69.2681 153.993 70.687 161.339L84.4329 158.684ZM82.6728 157.494C83.487 157.337 84.2756 157.87 84.4329 158.684L70.687 161.339C71.9965 168.119 78.5549 172.552 85.3342 171.239L82.6728 157.494ZM97.7348 154.578L82.6727 157.494L85.3342 171.239L100.396 168.322L97.7348 154.578ZM95.8365 157.386C95.5854 156.086 96.4349 154.829 97.7348 154.578L100.396 168.322C106.685 167.105 110.797 161.02 109.582 154.731L95.8365 157.386Z" fill="black" mask="url(#path-36-outside-2)"/>
<path d="M109.5 98C117 123.5 140 147 184 121.5" stroke="black" stroke-width="7"/>
</g>
<defs>
<clipPath id="clip0">
<rect width="275" height="175" rx="20" fill="white"/>
</clipPath>
</defs>
</svg>
