<svg width="230" height="130" viewBox="0 0 230 130" fill="none" xmlns="http://www.w3.org/2000/svg">
<mask id="path-1-outside-1" maskUnits="userSpaceOnUse" x="0" y="5.16895" width="140" height="121" fill="black">
<rect fill="white" y="5.16895" width="140" height="121"/>
<path fill-rule="evenodd" clip-rule="evenodd" d="M38.8872 13.616C34.0315 11.863 28.9153 15.4851 28.9553 20.6474L29.0706 35.5159C28.3925 36.0878 27.8226 36.7856 27.378 37.5928L11.1755 52.3964C8.584 53.7135 7 56.4397 7 60.0268C7 63.8205 8.77169 67.6427 11.6332 70.147C11.6077 70.4118 11.5959 70.6815 11.5987 70.9556L11.6653 77.6227C11.6957 80.6643 13.5808 83.3788 16.4202 84.4697L103.812 118.047C105.176 118.571 106.567 118.665 107.863 118.414C109.512 118.268 111.152 117.556 112.497 116.162L130.146 97.8742C131.527 96.4438 132.275 94.5189 132.223 92.5317L132.04 85.5179C132.111 85.0841 132.145 84.6356 132.138 84.1751L131.642 52.1931C131.594 49.1114 129.645 46.3806 126.746 45.3341L38.8872 13.616Z"/>
</mask>
<path d="M28.9553 20.6474L35.9551 20.5931V20.5931L28.9553 20.6474ZM38.8872 13.616L36.5103 20.2001L38.8872 13.616ZM29.0706 35.5159L33.5839 40.8666L36.0958 38.7477L36.0703 35.4616L29.0706 35.5159ZM27.378 37.5928L32.0996 42.7606L32.9524 41.9815L33.5096 40.9697L27.378 37.5928ZM11.1755 52.3964L14.347 58.6368L15.1949 58.2058L15.8972 57.5642L11.1755 52.3964ZM11.6332 70.147L18.601 70.8176L18.9449 67.2439L16.2432 64.8794L11.6332 70.147ZM11.5987 70.9556L4.599 71.0256V71.0256L11.5987 70.9556ZM11.6653 77.6227L18.665 77.5527L11.6653 77.6227ZM16.4202 84.4697L18.9308 77.9354L18.9307 77.9354L16.4202 84.4697ZM103.812 118.047L106.322 111.512L106.322 111.512L103.812 118.047ZM107.863 118.414L107.247 111.442L106.889 111.473L106.536 111.541L107.863 118.414ZM112.497 116.162L117.534 121.023L117.534 121.023L112.497 116.162ZM130.146 97.8742L125.11 93.0132L130.146 97.8742ZM132.223 92.5317L139.221 92.3489V92.3489L132.223 92.5317ZM132.04 85.5179L125.133 84.3833L125.025 85.0377L125.042 85.7007L132.04 85.5179ZM132.138 84.1751L125.139 84.2836V84.2836L132.138 84.1751ZM131.642 52.1931L138.641 52.0845V52.0845L131.642 52.1931ZM126.746 45.3341L129.123 38.75L126.746 45.3341ZM35.9551 20.5931C35.9543 20.4853 35.9761 20.4332 35.9932 20.4009C36.0169 20.3563 36.061 20.3006 36.1301 20.2516C36.1991 20.2027 36.2663 20.1797 36.3163 20.1722C36.3525 20.1668 36.4089 20.1635 36.5103 20.2001L41.2641 7.0319C31.8241 3.62396 21.8777 10.6657 21.9555 20.7016L35.9551 20.5931ZM36.0703 35.4616L35.9551 20.5931L21.9555 20.7016L22.0708 35.5701L36.0703 35.4616ZM33.5096 40.9697C33.5328 40.9276 33.5513 40.9026 33.5619 40.8897C33.5723 40.8768 33.5795 40.8702 33.5839 40.8666L24.5572 30.1652C23.204 31.3067 22.0925 32.6797 21.2464 34.2159L33.5096 40.9697ZM15.8972 57.5642L32.0996 42.7606L22.6564 32.425L6.45391 47.2286L15.8972 57.5642ZM14 60.0268C14 59.2625 14.166 58.8841 14.2336 58.7625C14.289 58.6629 14.3176 58.6517 14.347 58.6368L8.00409 46.1561C2.66084 48.8716 0 54.2892 0 60.0268H14ZM16.2432 64.8794C14.8642 63.6725 14 61.7543 14 60.0268H0C0 65.8866 2.67922 71.6129 7.02311 75.4146L16.2432 64.8794ZM18.5983 70.8856C18.598 70.8582 18.5992 70.8356 18.601 70.8176L4.66536 69.4765C4.61614 69.988 4.5938 70.5049 4.599 71.0256L18.5983 70.8856ZM18.665 77.5527L18.5983 70.8856L4.599 71.0256L4.66567 77.6927L18.665 77.5527ZM18.9307 77.9354C18.772 77.8744 18.6667 77.7227 18.665 77.5527L4.66567 77.6927C4.72481 83.6059 8.38955 88.8831 13.9097 91.004L18.9307 77.9354ZM106.322 111.512L18.9308 77.9354L13.9096 91.004L101.301 124.581L106.322 111.512ZM106.536 111.541C106.507 111.547 106.481 111.548 106.455 111.546C106.43 111.544 106.387 111.537 106.322 111.512L101.301 124.581C103.918 125.586 106.641 125.78 109.191 125.287L106.536 111.541ZM107.46 111.301C107.411 111.352 107.374 111.382 107.351 111.399C107.327 111.415 107.312 111.423 107.303 111.427C107.29 111.434 107.274 111.439 107.247 111.442L108.48 125.387C111.767 125.096 114.989 123.66 117.534 121.023L107.46 111.301ZM125.11 93.0132L107.46 111.301L117.534 121.023L135.183 102.735L125.11 93.0132ZM125.226 92.7145C125.229 92.8256 125.187 92.9332 125.11 93.0132L135.183 102.735C137.867 99.9544 139.322 96.2123 139.221 92.3489L125.226 92.7145ZM125.042 85.7007L125.226 92.7145L139.221 92.3489L139.038 85.3351L125.042 85.7007ZM125.139 84.2836C125.14 84.3284 125.136 84.3609 125.133 84.3833L138.947 86.6525C139.086 85.8073 139.151 84.9428 139.137 84.0665L125.139 84.2836ZM124.643 52.3016L125.139 84.2836L139.137 84.0666L138.641 52.0845L124.643 52.3016ZM124.369 51.9182C124.531 51.9767 124.64 52.1293 124.643 52.3016L138.641 52.0845C138.548 46.0935 134.759 40.7846 129.123 38.75L124.369 51.9182ZM36.5103 20.2001L124.369 51.9182L129.123 38.75L41.2641 7.0319L36.5103 20.2001Z" fill="black" mask="url(#path-1-outside-1)"/>
<path d="M28.9556 20.6467C28.9156 15.4844 34.0318 11.8624 38.8875 13.6153L126.747 45.3334C129.646 46.38 131.595 49.1107 131.643 52.1924L132.138 84.1744C132.219 89.357 127.092 93.0205 122.215 91.2661L34.1083 59.573C31.1854 58.5216 29.2278 55.7598 29.2037 52.6537L28.9556 20.6467Z" fill="#3A71B3"/>
<path d="M11.5988 70.9553C11.5465 65.7218 16.7865 62.0829 21.6721 63.96L109.064 97.5369C111.903 98.6278 113.788 101.342 113.819 104.384L113.885 111.051C113.938 116.285 108.698 119.923 103.812 118.046L16.4204 84.4694C13.581 83.3785 11.6959 80.664 11.6655 77.6224L11.5988 70.9553Z" fill="#3A71B3"/>
<path d="M132.033 85.2328C131.86 78.6182 123.767 75.5256 119.227 80.3393L101.768 98.8513C100.47 100.227 99.7476 102.047 99.7476 103.938L99.7476 111.014C99.7476 117.683 107.866 120.962 112.497 116.163L130.147 97.8748C131.527 96.4444 132.275 94.5195 132.224 92.5323L132.033 85.2328Z" fill="#3A71B3"/>
<path d="M26.9725 50.1215C29.0115 47.8375 32.2448 47.0417 35.1111 48.1184L116.614 78.7371C121.491 80.5694 123.007 86.7287 119.537 90.6156L109.221 102.171C107.182 104.455 103.949 105.251 101.083 104.174L19.5803 73.5555C14.7027 71.7231 13.1868 65.5639 16.6567 61.677L26.9725 50.1215Z" fill="#6096D6"/>
<rect x="8.65576" y="54.6982" width="28.3935" height="22.8108" transform="rotate(-42.4168 8.65576 54.6982)" fill="#304967"/>
<path d="M27.7607 64.5197C27.7607 70.3518 22.9805 73.908 17.0839 72.8328C11.1873 71.7576 7.00024 65.8582 7.00024 60.0261C7.00024 54.1941 11.1873 50.6378 17.0839 51.713C22.9805 52.7882 27.7607 58.6876 27.7607 64.5197Z" fill="#3A71B3"/>
<path d="M47.0384 46.7238C47.0384 52.5559 42.2582 56.1121 36.3616 55.0369C30.465 53.9617 26.278 48.0623 26.278 42.2302C26.278 36.3982 30.465 32.8419 36.3616 33.9171C42.2582 34.9923 47.0384 40.8917 47.0384 46.7238Z" fill="#304967"/>
<rect x="93.1803" y="88.0635" width="28.3935" height="22.8108" transform="rotate(-42.4168 93.1803 88.0635)" fill="#304967"/>
<path d="M112.285 97.883C112.285 103.715 107.505 107.271 101.608 106.196C95.7118 105.121 91.5248 99.2215 91.5248 93.3894C91.5248 87.5574 95.7118 84.0011 101.608 85.0763C107.505 86.1515 112.285 92.0509 112.285 97.883Z" fill="#3A71B3"/>
<path d="M131.563 80.089C131.563 85.9211 126.783 89.4773 120.886 88.4021C114.99 87.327 110.802 81.4275 110.802 75.5955C110.802 69.7634 114.99 66.2072 120.886 67.2824C126.783 68.3576 131.563 74.257 131.563 80.089Z" fill="#304967"/>
<mask id="path-13-outside-2" maskUnits="userSpaceOnUse" x="166" y="0" width="64" height="67" fill="black">
<rect fill="white" x="166" width="64" height="67"/>
<path fill-rule="evenodd" clip-rule="evenodd" d="M179.753 26.2067C180.74 25.3947 181.682 24.5169 182.408 23.4653L184.003 21.1544C184.569 20.335 184.991 19.4279 185.368 18.5062C188.126 11.7562 194.758 7 202.5 7C210.538 7 217.379 12.1266 219.931 19.2886C220.106 19.7784 220.296 20.2629 220.512 20.7362C221.139 22.1139 221.656 23.5497 222.053 25.0312C223.947 32.1 222.956 39.6318 219.297 45.9695C215.637 52.3072 209.611 56.9318 202.542 58.8259C197.352 60.2164 191.913 60.0517 186.881 58.4181C178.899 56.3664 173 49.1218 173 40.4995C173 34.7425 175.63 29.5997 179.753 26.2067Z"/>
</mask>
<path fill-rule="evenodd" clip-rule="evenodd" d="M179.753 26.2067C180.74 25.3947 181.682 24.5169 182.408 23.4653L184.003 21.1544C184.569 20.335 184.991 19.4279 185.368 18.5062C188.126 11.7562 194.758 7 202.5 7C210.538 7 217.379 12.1266 219.931 19.2886C220.106 19.7784 220.296 20.2629 220.512 20.7362C221.139 22.1139 221.656 23.5497 222.053 25.0312C223.947 32.1 222.956 39.6318 219.297 45.9695C215.637 52.3072 209.611 56.9318 202.542 58.8259C197.352 60.2164 191.913 60.0517 186.881 58.4181C178.899 56.3664 173 49.1218 173 40.4995C173 34.7425 175.63 29.5997 179.753 26.2067Z" fill="#C17A38"/>
<path d="M222.053 25.0312L228.815 23.2195V23.2195L222.053 25.0312ZM219.297 45.9695L225.359 49.4695L225.359 49.4695L219.297 45.9695ZM202.542 58.8259L200.73 52.0644L200.73 52.0644L202.542 58.8259ZM186.881 58.4181L189.042 51.7601L188.834 51.6928L188.623 51.6385L186.881 58.4181ZM219.931 19.2886L226.525 16.9388L219.931 19.2886ZM220.512 20.7362L226.882 17.8349L220.512 20.7362ZM184.003 21.1544L189.764 25.1318L184.003 21.1544ZM185.368 18.5062L178.888 15.8582L185.368 18.5062ZM182.408 23.4653L176.648 19.488L182.408 23.4653ZM179.753 26.2067L184.201 31.6121L179.753 26.2067ZM188.168 27.4427L189.764 25.1318L178.243 17.1771L176.648 19.488L188.168 27.4427ZM191.848 21.1541C193.568 16.9451 197.698 14 202.5 14V0C191.817 0 182.685 6.56727 178.888 15.8582L191.848 21.1541ZM202.5 14C207.486 14 211.748 17.1767 213.338 21.6384L226.525 16.9388C223.011 7.07654 213.591 0 202.5 0V14ZM214.141 23.6375C214.61 24.6655 214.995 25.7369 215.292 26.8429L228.815 23.2195C228.317 21.3625 227.669 19.5624 226.882 17.8349L214.141 23.6375ZM215.292 26.8429C216.705 32.1185 215.965 37.7396 213.234 42.4695L225.359 49.4695C229.946 41.524 231.189 32.0816 228.815 23.2195L215.292 26.8429ZM213.234 42.4695C210.504 47.1994 206.006 50.6508 200.73 52.0644L204.353 65.5874C213.216 63.2128 220.771 57.415 225.359 49.4695L213.234 42.4695ZM200.73 52.0644C196.857 53.1021 192.798 52.9794 189.042 51.7601L184.72 65.0761C191.029 67.124 197.847 67.3307 204.354 65.5874L200.73 52.0644ZM188.623 51.6385C183.66 50.3627 180 45.8497 180 40.4995H166C166 52.3938 174.137 62.37 185.138 65.1977L188.623 51.6385ZM180 40.4995C180 36.9234 181.624 33.7325 184.201 31.6121L175.306 20.8013C169.635 25.4669 166 32.5616 166 40.4995H180ZM213.338 21.6384C213.561 22.2651 213.824 22.9411 214.141 23.6375L226.882 17.8349C226.768 17.5848 226.651 17.2917 226.525 16.9388L213.338 21.6384ZM189.764 25.1318C190.757 23.6934 191.404 22.2403 191.848 21.1541L178.888 15.8582C178.578 16.6156 178.382 16.9766 178.243 17.1771L189.764 25.1318ZM176.648 19.488C176.47 19.7452 176.113 20.1368 175.306 20.8013L184.201 31.6121C185.367 30.6526 186.894 29.2886 188.168 27.4427L176.648 19.488Z" fill="black" mask="url(#path-13-outside-2)"/>
<ellipse cx="205" cy="25" rx="2" ry="3" fill="#984900"/>
<ellipse cx="183.5" cy="55.5001" rx="2.5" ry="1.5" transform="rotate(15.3837 183.5 55.5001)" fill="#984900"/>
<ellipse cx="180.598" cy="38.2321" rx="3" ry="2" transform="rotate(30 180.598 38.2321)" fill="#984900"/>
<ellipse cx="198" cy="53.5" rx="3" ry="1.5" fill="#984900"/>
<ellipse cx="218" cy="39" rx="2" ry="3" fill="#984900"/>
</svg>
