<svg width="275" height="175" viewBox="0 0 275 175" fill="none" xmlns="http://www.w3.org/2000/svg">
<g clip-path="url(#clip0)">
<path d="M0 20C0 8.9543 8.9543 0 20 0H255C266.046 0 275 8.95431 275 20V155C275 166.046 266.046 175 255 175H20C8.9543 175 0 166.046 0 155V20Z" fill="white"/>
<path d="M178.053 111.119C178.053 112.474 177.786 113.815 177.268 115.067C176.749 116.319 175.989 117.456 175.031 118.414C174.073 119.372 172.936 120.132 171.684 120.651C170.432 121.169 169.09 121.436 167.735 121.436C166.381 121.436 165.039 121.169 163.787 120.651C162.535 120.132 161.398 119.372 160.44 118.414C159.482 117.456 158.722 116.319 158.203 115.067C157.685 113.815 157.418 112.474 157.418 111.119L167.735 111.119H178.053Z" fill="#FFBA09"/>
<rect x="189.518" y="145.511" width="3.43917" height="16.0495" fill="#FFBA09"/>
<rect x="197.543" y="161.561" width="3.43917" height="16.0495" transform="rotate(90 197.543 161.561)" fill="#FFBA09"/>
<circle cx="178.054" cy="112.265" r="10.3175" fill="#FFE920"/>
<path d="M221.617 125.449C221.617 128.987 220.92 132.49 219.566 135.759C218.212 139.027 216.228 141.997 213.726 144.499C211.224 147 208.255 148.985 204.986 150.338C201.718 151.692 198.214 152.389 194.677 152.389C191.139 152.389 187.635 151.692 184.367 150.338C181.098 148.985 178.129 147 175.627 144.499C173.125 141.997 171.141 139.027 169.787 135.759C168.433 132.49 167.736 128.987 167.736 125.449L194.677 125.449H221.617Z" fill="#FFE920"/>
<rect x="167.736" y="112.266" width="20.635" height="14.9031" fill="#FFE920"/>
<path d="M213.591 125.449C213.591 127.782 213.131 130.093 212.238 132.249C211.345 134.405 210.036 136.363 208.386 138.013C206.736 139.663 204.778 140.972 202.622 141.865C200.466 142.758 198.155 143.218 195.822 143.218C193.488 143.218 191.178 142.758 189.022 141.865C186.866 140.972 184.907 139.663 183.257 138.013C181.607 136.363 180.298 134.405 179.405 132.249C178.512 130.093 178.053 127.782 178.053 125.449L195.822 125.449H213.591Z" fill="#FFBA09"/>
<circle cx="178.053" cy="112.265" r="2.29278" fill="black"/>
<mask id="path-10-outside-1" maskUnits="userSpaceOnUse" x="150.418" y="94.9473" width="79" height="78" fill="black">
<rect fill="white" x="150.418" y="94.9473" width="79" height="78"/>
<path fill-rule="evenodd" clip-rule="evenodd" d="M188.37 112.266V112.265C188.37 106.567 183.751 101.947 178.053 101.947C172.742 101.947 168.368 105.96 167.798 111.119H167.735L157.418 111.119C157.418 112.474 157.685 113.815 158.203 115.067C158.722 116.319 159.482 117.456 160.44 118.414C161.398 119.372 162.535 120.132 163.787 120.651C165.039 121.169 166.38 121.436 167.735 121.436V125.449V127.169H167.79C167.979 130.118 168.652 133.021 169.786 135.758C171.14 139.027 173.124 141.997 175.626 144.498C178.127 147 181.097 148.984 184.366 150.338C186.031 151.028 187.757 151.547 189.517 151.891V161.561H192.956V152.334C193.528 152.371 194.101 152.389 194.675 152.389C198.213 152.389 201.716 151.692 204.985 150.338C208.253 148.984 211.223 147 213.725 144.498C216.227 141.997 218.211 139.027 219.565 135.758C220.919 132.49 221.616 128.987 221.616 125.449H213.591V125.449H195.822H188.37V112.266ZM197.542 161.561V165H181.492V161.561H197.542Z"/>
</mask>
<path d="M167.798 111.119V118.119C171.366 118.119 174.364 115.434 174.756 111.888L167.798 111.119ZM167.735 111.119L167.735 118.119H167.735V111.119ZM157.418 111.119L157.418 104.119C155.561 104.119 153.781 104.856 152.468 106.169C151.155 107.482 150.418 109.262 150.418 111.119H157.418ZM158.203 115.067L164.67 112.388V112.388L158.203 115.067ZM160.44 118.414L165.39 113.464L165.39 113.464L160.44 118.414ZM163.787 120.651L161.108 127.118L161.108 127.118L163.787 120.651ZM167.735 121.436H174.735C174.735 117.57 171.601 114.436 167.735 114.436L167.735 121.436ZM167.735 127.169H160.735C160.735 131.035 163.869 134.169 167.735 134.169V127.169ZM167.79 127.169L174.776 126.722C174.54 123.037 171.483 120.169 167.79 120.169V127.169ZM169.786 135.758L163.319 138.437L163.319 138.437L169.786 135.758ZM175.626 144.498L170.676 149.448L170.676 149.448L175.626 144.498ZM184.366 150.338L181.687 156.806L184.366 150.338ZM189.517 151.891H196.517C196.517 148.541 194.145 145.661 190.857 145.02L189.517 151.891ZM189.517 161.561H182.517C182.517 165.427 185.651 168.561 189.517 168.561V161.561ZM192.956 161.561V168.561C196.822 168.561 199.956 165.427 199.956 161.561H192.956ZM192.956 152.334L193.403 145.348C191.473 145.225 189.578 145.906 188.167 147.229C186.756 148.552 185.956 150.4 185.956 152.334H192.956ZM204.985 150.338L202.306 143.871V143.871L204.985 150.338ZM213.725 144.498L208.775 139.549L208.775 139.549L213.725 144.498ZM219.565 135.758L213.098 133.08L213.098 133.08L219.565 135.758ZM221.616 125.449H228.616C228.616 121.583 225.481 118.449 221.616 118.449V125.449ZM213.591 125.449H206.591C206.591 129.315 209.725 132.449 213.591 132.449V125.449ZM213.591 125.449H220.591C220.591 121.583 217.457 118.449 213.591 118.449V125.449ZM188.37 125.449H181.37C181.37 129.315 184.504 132.449 188.37 132.449V125.449ZM197.542 165V172C201.408 172 204.542 168.866 204.542 165H197.542ZM197.542 161.561H204.542C204.542 157.695 201.408 154.561 197.542 154.561V161.561ZM181.492 165H174.492C174.492 168.866 177.626 172 181.492 172V165ZM181.492 161.561V154.561C177.626 154.561 174.492 157.695 174.492 161.561H181.492ZM181.37 112.265V112.266H195.37V112.265H181.37ZM178.053 108.947C179.885 108.947 181.37 110.433 181.37 112.265H195.37C195.37 102.701 187.617 94.9473 178.053 94.9473V108.947ZM174.756 111.888C174.938 110.236 176.35 108.947 178.053 108.947V94.9473C169.134 94.9473 161.798 101.683 160.84 110.35L174.756 111.888ZM167.735 118.119H167.798V104.119H167.735V118.119ZM157.418 118.119L167.735 118.119L167.735 104.119L157.418 104.119L157.418 118.119ZM164.67 112.388C164.504 111.986 164.418 111.554 164.418 111.119H150.418C150.418 113.393 150.866 115.645 151.736 117.746L164.67 112.388ZM165.39 113.464C165.082 113.156 164.837 112.791 164.67 112.388L151.736 117.746C152.606 119.847 153.882 121.756 155.49 123.364L165.39 113.464ZM166.466 114.184C166.063 114.017 165.698 113.772 165.39 113.464L155.49 123.364C157.098 124.972 159.007 126.248 161.108 127.118L166.466 114.184ZM167.735 114.436C167.3 114.436 166.868 114.35 166.466 114.184L161.108 127.118C163.209 127.988 165.461 128.436 167.735 128.436L167.735 114.436ZM174.735 125.449V121.436H160.735V125.449H174.735ZM174.735 127.169V125.449H160.735V127.169H174.735ZM167.79 120.169H167.735V134.169H167.79V120.169ZM176.253 133.08C175.414 131.053 174.915 128.905 174.776 126.722L160.804 127.616C161.042 131.332 161.89 134.988 163.319 138.437L176.253 133.08ZM180.575 139.549C178.724 137.697 177.255 135.499 176.253 133.08L163.319 138.437C165.024 142.555 167.524 146.297 170.676 149.448L180.575 139.549ZM187.045 143.871C184.625 142.869 182.427 141.4 180.575 139.549L170.676 149.448C173.828 152.6 177.569 155.1 181.687 156.806L187.045 143.871ZM190.857 145.02C189.554 144.766 188.277 144.382 187.045 143.871L181.687 156.806C183.785 157.674 185.959 158.328 188.177 158.761L190.857 145.02ZM196.517 161.561V151.891H182.517V161.561H196.517ZM192.956 154.561H189.517V168.561H192.956V154.561ZM185.956 152.334V161.561H199.956V152.334H185.956ZM194.675 145.389C194.25 145.389 193.826 145.375 193.403 145.348L192.51 159.32C193.23 159.366 193.952 159.389 194.675 159.389V145.389ZM202.306 143.871C199.887 144.873 197.294 145.389 194.675 145.389V159.389C199.132 159.389 203.546 158.511 207.664 156.806L202.306 143.871ZM208.775 139.549C206.924 141.4 204.725 142.869 202.306 143.871L207.664 156.806C211.781 155.1 215.523 152.6 218.675 149.448L208.775 139.549ZM213.098 133.08C212.096 135.499 210.627 137.697 208.775 139.549L218.675 149.448C221.826 146.297 224.326 142.555 226.032 138.437L213.098 133.08ZM214.616 125.449C214.616 128.067 214.1 130.66 213.098 133.08L226.032 138.437C227.738 134.319 228.616 129.906 228.616 125.449H214.616ZM213.591 132.449H221.616V118.449H213.591V132.449ZM206.591 125.449V125.449H220.591V125.449H206.591ZM195.822 132.449H213.591V118.449H195.822V132.449ZM188.37 132.449H195.822V118.449H188.37V132.449ZM181.37 112.266V125.449H195.37V112.266H181.37ZM204.542 165V161.561H190.542V165H204.542ZM181.492 172H197.542V158H181.492V172ZM174.492 161.561V165H188.492V161.561H174.492ZM197.542 154.561H181.492V168.561H197.542V154.561Z" fill="black" mask="url(#path-10-outside-1)"/>
<rect x="58.9004" y="14.2271" width="33.2453" height="39.0271" rx="11.9874" fill="#A5A5A5"/>
<path d="M57.4078 89.9193C57.2537 86.5065 59.9791 83.6553 63.3954 83.6553L69.1717 83.6553C72.4819 83.6553 75.1654 86.3387 75.1654 89.649L75.1654 145.661C75.1654 148.88 72.6224 151.524 69.4056 151.65L66.164 151.776C62.8705 151.905 60.0911 149.35 59.9424 146.058L57.4078 89.9193Z" fill="#FFE2C7"/>
<path d="M70.6294 87.1035C69.8142 83.2713 72.8163 79.5261 76.7035 79.5258L82.8015 79.5253C85.5984 79.5251 87.9281 81.5151 88.3931 84.3017L98.2473 143.357C98.7922 146.622 96.6114 149.837 93.3764 150.539L90.136 151.242C87.0017 151.922 84.0072 149.991 83.3413 146.861L70.6294 87.1035Z" fill="#FFE2C7"/>
<rect width="20.1523" height="21.8895" rx="5.99371" transform="matrix(0.982336 -0.187128 0.186679 0.982421 64.5742 92.4976)" fill="#FFE2C7"/>
<rect width="8.98982" height="14.9669" rx="4.49491" transform="matrix(-0.258819 0.965926 -0.966087 -0.258218 122.715 87.9224)" fill="#FFE2C7"/>
<path fill-rule="evenodd" clip-rule="evenodd" d="M86.5096 56.0491C86.8122 54.7363 87.866 53.7523 89.1667 53.4038C92.6901 52.4597 96.1692 56.869 95.7947 60.499C95.5305 63.0589 95.7194 65.7154 96.4239 68.3576C97.6375 72.9094 100.198 76.7325 103.547 79.4958C106.063 81.5723 106.917 85.5897 104.606 87.8985C103.331 89.1733 101.397 89.5982 99.8342 88.7023C93.9258 85.3155 89.0201 78.9544 86.8768 70.9157C85.5005 65.7535 85.4558 60.6211 86.5096 56.0491Z" fill="#FFE2C7"/>
<path d="M58.8984 58.4746C58.8984 53.2936 63.266 49.1848 68.4373 49.5008L81.7725 50.3156C86.4608 50.602 90.1384 54.4491 90.2136 59.1456L90.5584 80.6992C90.6363 85.5666 86.8261 89.6118 81.9627 89.825L68.2827 90.4246C63.1678 90.6489 58.8984 86.5626 58.8984 81.4427V58.4746Z" fill="#04C439"/>
<path d="M58.0996 92.0827C58.3734 87.326 62.3106 83.6089 67.0753 83.6089H83.6876C88.1582 83.6089 91.9497 86.8937 92.5865 91.3187L96.4476 118.147C97.2275 123.566 93.0237 128.418 87.5487 128.418H65.5308C60.3624 128.418 56.2581 124.07 56.5551 118.911L58.0996 92.0827Z" fill="#04C439"/>
<rect width="10.2601" height="15.7322" rx="5.13005" transform="matrix(-0.610433 0.792068 -0.791333 -0.611386 80.4414 100.848)" fill="#FFE2C7"/>
<path fill-rule="evenodd" clip-rule="evenodd" d="M61.7183 52.0685C62.7161 51.2542 64.0877 51.1246 65.2764 51.6215C68.5919 53.0074 68.5546 58.7955 66.0827 61.4022C64.5045 63.0664 63.2031 65.0314 62.2744 67.2603C59.7138 73.4053 60.569 80.1579 63.9755 85.5388C65.3882 87.7704 65.6402 90.7031 64.0237 92.7898C62.5178 94.7338 59.8009 95.4319 57.8973 93.8734C50.4483 87.7754 48.1109 75.5593 52.869 64.1401C54.9398 59.1706 58.0627 55.0519 61.7183 52.0685Z" fill="#FFE2C7"/>
<rect x="61.6016" y="20.3042" width="30.2306" height="26.9717" rx="11.9874" fill="#A5A5A5"/>
<rect x="76.8672" y="19.4062" width="14.9656" height="21.877" rx="7.48282" fill="#A5A5A5"/>
<path d="M91.2956 30.2015C91.2956 41.9914 88.8065 46.4373 81.2649 46.4373C73.7233 46.4373 61.9199 41.1082 61.9199 32.7271C61.9199 24.346 71.5739 13.605 79.1155 13.605C86.657 13.605 91.2956 19.4192 91.2956 30.2015Z" fill="#FFE2C7"/>
<path d="M70.1133 42.1827C70.1133 38.8724 72.7968 36.189 76.107 36.189H76.6907C80.0009 36.189 82.6844 38.8724 82.6844 42.1827V47.2773C82.6844 50.5876 80.0009 53.271 76.6907 53.271H76.107C72.7968 53.271 70.1133 50.5876 70.1133 47.2773V42.1827Z" fill="#FFE2C7"/>
<path fill-rule="evenodd" clip-rule="evenodd" d="M62.4553 32.7651C60.9945 25.3777 65.3046 18.2222 72.2152 16.6789C74.6195 16.142 77.0267 16.3541 79.2199 17.1667C80.6807 24.5541 76.3706 31.7096 69.46 33.2528C67.0558 33.7898 64.6486 33.5777 62.4553 32.7651Z" fill="#A5A5A5"/>
<path fill-rule="evenodd" clip-rule="evenodd" d="M87.0449 16.5406C83.1406 12.9861 77.7653 11.4104 72.5284 12.8163C65.4856 14.7069 60.9172 21.393 60.9961 28.8014C64.6419 31.3015 69.7241 32.2005 74.8249 30.8311C82.1933 28.8531 87.1658 22.7954 87.0449 16.5406Z" fill="#A5A5A5"/>
<path fill-rule="evenodd" clip-rule="evenodd" d="M70.1497 45.2897C66.6258 38.8597 68.1713 30.3414 74.2702 24.9791C79.1617 20.6782 85.6854 19.5478 91.1271 21.5026C90.6146 20.5675 89.9948 19.6765 89.2663 18.8458C83.5284 12.3035 73.2138 11.9792 66.2279 18.1215C59.2421 24.2638 58.2304 34.5467 63.9682 41.089C65.6884 43.0503 67.8199 44.4528 70.1497 45.2897Z" fill="#A5A5A5"/>
<path fill-rule="evenodd" clip-rule="evenodd" d="M73.5892 36.8495C73.1232 38.5917 70.8988 39.1044 69.6083 37.844C68.2507 36.518 67.6194 34.5938 68.1198 32.7228C68.5857 30.9806 70.8102 30.4679 72.1007 31.7283C73.4583 33.0543 74.0895 34.9785 73.5892 36.8495Z" fill="#FFE2C7"/>
<path d="M93.3432 35.6419L90.211 29.8715C89.5341 28.6246 87.6406 29.1053 87.6406 30.5241V37.4846C87.6406 38.4423 88.5993 39.1036 89.4945 38.7634L92.6268 37.5733C93.401 37.2791 93.7383 36.3698 93.3432 35.6419Z" fill="#FFE2C7"/>
<rect width="3.42003" height="5.13005" rx="1.71002" transform="matrix(-0.965926 -0.258819 -0.258819 0.965926 86.1191 30.1855)" fill="black"/>
<rect width="2.23549" height="5.91458" rx="1.11775" transform="matrix(-4.37114e-08 -1 -0.999907 0.0136318 87.1543 25.8491)" fill="black"/>
<path d="M83.4875 40.2831C84.679 42.0789 86.9075 42.677 88.4663 42.7629L88.8086 42.4209C86.2235 43.0191 83.4875 40.2831 83.4875 40.2831Z" stroke="black" stroke-width="2.25722" stroke-linecap="round" stroke-linejoin="round"/>
<path d="M80.4865 156.166C82.8031 156.439 84.5488 158.402 84.5488 160.735C84.5488 163.275 82.4891 165.335 79.9483 165.335L64.6081 165.335C61.5701 165.335 59.1072 162.872 59.1072 159.834C59.1072 156.541 61.9811 153.986 65.2516 154.371L80.4865 156.166Z" fill="#7F00FF"/>
<path d="M107.855 152.345C110.181 152.173 112.267 153.769 112.709 156.059C113.191 158.553 111.56 160.967 109.065 161.45L94.0033 164.367C91.0207 164.944 88.1359 162.994 87.5597 160.012C86.9352 156.778 89.272 153.723 92.5558 153.48L107.855 152.345Z" fill="#7F00FF"/>
<mask id="path-36-outside-2" maskUnits="userSpaceOnUse" x="43.3965" y="4.30518" width="86" height="169" fill="black">
<rect fill="white" x="43.3965" y="4.30518" width="86" height="169"/>
<path fill-rule="evenodd" clip-rule="evenodd" d="M68.739 14.4189C63.1433 15.431 58.8991 20.3271 58.8991 26.2145V41.2668C58.8991 45.0731 60.6732 48.465 63.4395 50.6609C62.5432 51.1728 61.7421 51.8348 61.0716 52.6137C57.6953 55.5457 54.8175 59.4665 52.8701 64.1399C48.1819 75.3911 50.3822 87.416 57.573 93.6002L57.7663 97.8806L56.5556 118.91C56.4063 121.503 57.3686 123.891 59.0189 125.625L59.9414 146.058C60.0901 149.35 62.8695 151.905 66.163 151.776L69.4046 151.65C72.6214 151.524 75.1644 148.88 75.1644 145.661V128.418H79.4176L83.3409 146.861C84.0068 149.991 87.0013 151.922 90.1356 151.242L93.376 150.539C96.611 149.837 98.7918 146.622 98.2469 143.357L95.0749 124.347C96.2261 122.59 96.775 120.418 96.4481 118.146L92.587 91.3185C92.2468 88.9547 91.0064 86.9162 89.2431 85.53C90.1036 84.124 90.5875 82.4657 90.5592 80.6992L90.5397 79.4774C92.9982 83.4631 96.2296 86.6363 99.8341 88.7024C101.397 89.5983 103.331 89.1734 104.606 87.8986C106.917 85.5898 106.063 81.5724 103.547 79.4959C100.198 76.7326 97.6374 72.9095 96.4238 68.3577C95.7193 65.7155 95.5304 63.059 95.7946 60.4991C96.1691 56.8691 92.69 52.4598 89.1666 53.4039C88.8636 53.485 88.574 53.6007 88.3042 53.747C87.677 52.9466 86.9165 52.2547 86.0551 51.7052C89.6908 49.6465 92.1445 45.7432 92.1445 41.2668V37.7567L92.6273 37.5732C93.4016 37.2791 93.7388 36.3697 93.3437 35.6418L92.1445 33.4325V26.2145C92.1445 21.8715 89.835 18.068 86.3772 15.965C82.5403 12.8198 77.4719 11.4888 72.5268 12.8163C71.1667 13.1814 69.8989 13.7254 68.739 14.4189ZM118.372 86.7618C120.77 87.4028 122.193 89.8663 121.551 92.2642C120.908 94.6621 118.443 96.0863 116.045 95.4453L110.271 93.9019C107.872 93.2609 106.449 90.7973 107.092 88.3995C107.734 86.0016 110.199 84.5774 112.597 85.2184L118.372 86.7618ZM80.4858 156.165C82.8024 156.438 84.5481 158.402 84.5481 160.734C84.5481 163.275 82.4884 165.335 79.9476 165.335H64.6074C61.5694 165.335 59.1065 162.872 59.1065 159.834C59.1065 156.541 61.9804 153.986 65.2509 154.371L80.4858 156.165ZM112.708 156.059C112.266 153.769 110.18 152.173 107.854 152.345L92.555 153.48C89.2712 153.723 86.9345 156.778 87.559 160.011C88.1351 162.994 91.02 164.944 94.0025 164.367L109.065 161.45C111.559 160.967 113.19 158.553 112.708 156.059Z"/>
</mask>
<path d="M68.739 14.4189L69.9849 21.3071C70.8135 21.1572 71.6083 20.8591 72.3311 20.4269L68.739 14.4189ZM63.4395 50.6609L66.9109 56.7395C68.9284 55.5874 70.2428 53.5093 70.4192 51.1926C70.5957 48.876 69.6113 46.6228 67.7916 45.1783L63.4395 50.6609ZM61.0716 52.6137L65.6613 57.8991C65.9168 57.6772 66.1559 57.437 66.3767 57.1806L61.0716 52.6137ZM52.8701 64.1399L46.4086 61.4475L52.8701 64.1399ZM57.573 93.6002L64.5659 93.2845C64.4789 91.3571 63.6002 89.551 62.1373 88.293L57.573 93.6002ZM57.7663 97.8806L64.7547 98.2829C64.7685 98.0438 64.7699 97.8042 64.7591 97.5649L57.7663 97.8806ZM56.5556 118.91L49.5672 118.508L56.5556 118.91ZM59.0189 125.625L66.0118 125.31C65.9357 123.624 65.253 122.022 64.0896 120.8L59.0189 125.625ZM59.9414 146.058L66.9343 145.742L59.9414 146.058ZM66.163 151.776L66.4362 158.771L66.4362 158.771L66.163 151.776ZM69.4046 151.65L69.1314 144.655H69.1314L69.4046 151.65ZM75.1644 128.418V121.418C71.2984 121.418 68.1644 124.552 68.1644 128.418H75.1644ZM79.4176 128.418L86.2644 126.961C85.5768 123.729 82.7223 121.418 79.4176 121.418V128.418ZM83.3409 146.861L90.1877 145.404L83.3409 146.861ZM90.1356 151.242L88.6516 144.401H88.6516L90.1356 151.242ZM93.376 150.539L94.8599 157.38H94.8599L93.376 150.539ZM98.2469 143.357L105.151 142.204L98.2469 143.357ZM95.0749 124.347L89.22 120.51C88.2555 121.982 87.8807 123.763 88.1704 125.499L95.0749 124.347ZM96.4481 118.146L89.5195 119.143L96.4481 118.146ZM92.587 91.3185L85.6584 92.3157L92.587 91.3185ZM89.2431 85.53L83.2725 81.876C81.4194 84.9038 82.1262 88.8393 84.917 91.0332L89.2431 85.53ZM90.5592 80.6992L83.5601 80.8111L90.5592 80.6992ZM90.5397 79.4774L96.4974 75.8024C94.843 73.1204 91.6005 71.8744 88.5759 72.7585C85.5512 73.6425 83.4901 76.4386 83.5406 79.5893L90.5397 79.4774ZM99.8341 88.7024L96.3529 94.7754L96.3529 94.7755L99.8341 88.7024ZM104.606 87.8986L99.6581 82.9473L99.6581 82.9473L104.606 87.8986ZM103.547 79.4959L99.0912 84.895L99.0912 84.895L103.547 79.4959ZM96.4238 68.3577L103.188 66.5544V66.5544L96.4238 68.3577ZM95.7946 60.4991L88.8315 59.7806L95.7946 60.4991ZM89.1666 53.4039L87.3548 46.6424L87.3548 46.6424L89.1666 53.4039ZM88.3042 53.747L82.7945 58.0646C84.9006 60.7522 88.6384 61.5282 91.6402 59.9009L88.3042 53.747ZM86.0551 51.7052L82.606 45.614C80.4687 46.8242 79.1221 49.0659 79.0575 51.5211C78.993 53.9764 80.2199 56.2858 82.2905 57.6067L86.0551 51.7052ZM92.1445 37.7567L89.6582 31.2131C86.9409 32.2455 85.1445 34.8499 85.1445 37.7567H92.1445ZM92.6273 37.5732L90.1411 31.0297L90.141 31.0297L92.6273 37.5732ZM93.3437 35.6418L99.4958 32.3024L99.4958 32.3024L93.3437 35.6418ZM92.1445 33.4325H85.1445C85.1445 34.5989 85.4359 35.7468 85.9924 36.7719L92.1445 33.4325ZM86.3772 15.965L81.9394 21.3786C82.1926 21.5862 82.4601 21.7757 82.7398 21.9458L86.3772 15.965ZM72.5268 12.8163L70.7119 6.05569V6.05569L72.5268 12.8163ZM118.372 86.7618L120.179 79.9992H120.179L118.372 86.7618ZM116.045 95.4453L114.238 102.208L114.238 102.208L116.045 95.4453ZM110.271 93.9019L108.463 100.664H108.463L110.271 93.9019ZM107.092 88.3995L113.853 90.2112L113.853 90.2112L107.092 88.3995ZM112.597 85.2184L114.405 78.4558L114.405 78.4558L112.597 85.2184ZM80.4858 156.165L79.6669 163.117H79.667L80.4858 156.165ZM65.2509 154.371L64.432 161.323H64.432L65.2509 154.371ZM107.854 152.345L108.372 159.326H108.372L107.854 152.345ZM112.708 156.059L105.836 157.386L105.836 157.386L112.708 156.059ZM92.555 153.48L92.0373 146.499H92.0373L92.555 153.48ZM87.559 160.011L80.686 161.339V161.339L87.559 160.011ZM94.0025 164.367L95.3332 171.239H95.3332L94.0025 164.367ZM109.065 161.45L107.734 154.578H107.734L109.065 161.45ZM65.8991 26.2145C65.8991 23.7724 67.6613 21.7274 69.9849 21.3071L67.4931 7.53065C58.6254 9.13459 51.8991 16.8818 51.8991 26.2145H65.8991ZM65.8991 41.2668V26.2145H51.8991V41.2668H65.8991ZM67.7916 45.1783C66.6261 44.2532 65.8991 42.847 65.8991 41.2668H51.8991C51.8991 47.2991 54.7202 52.6769 59.0874 56.1435L67.7916 45.1783ZM66.3767 57.1806C66.5292 57.0034 66.711 56.8537 66.9109 56.7395L59.9681 44.5823C58.3755 45.4918 56.955 46.6662 55.7665 48.0469L66.3767 57.1806ZM59.3316 66.8323C60.8748 63.1288 63.1226 60.1036 65.6613 57.8991L56.4819 47.3284C52.2679 50.9877 48.7601 55.8043 46.4086 61.4475L59.3316 66.8323ZM62.1373 88.293C57.8091 84.5706 55.4932 76.0441 59.3316 66.8323L46.4086 61.4475C40.8707 74.7382 42.9553 90.2614 53.0087 98.9075L62.1373 88.293ZM64.7591 97.5649L64.5659 93.2845L50.5801 93.9159L50.7734 98.1964L64.7591 97.5649ZM63.5441 119.313L64.7547 98.2829L50.7778 97.4783L49.5672 118.508L63.5441 119.313ZM64.0896 120.8C63.7149 120.406 63.5109 119.889 63.5441 119.313L49.5672 118.508C49.3018 123.118 51.0223 127.377 53.9483 130.451L64.0896 120.8ZM66.9343 145.742L66.0118 125.31L52.0261 125.941L52.9486 146.373L66.9343 145.742ZM65.8898 144.782C66.4427 144.76 66.9094 145.189 66.9343 145.742L52.9486 146.373C53.2708 153.511 59.2962 159.05 66.4362 158.771L65.8898 144.782ZM69.1314 144.655L65.8898 144.782L66.4362 158.771L69.6778 158.644L69.1314 144.655ZM68.1644 145.661C68.1644 145.12 68.5913 144.676 69.1314 144.655L69.6778 158.644C76.6514 158.372 82.1644 152.639 82.1644 145.661H68.1644ZM68.1644 128.418V145.661H82.1644V128.418H68.1644ZM79.4176 121.418H75.1644V135.418H79.4176V121.418ZM90.1877 145.404L86.2644 126.961L72.5708 129.874L76.4941 148.317L90.1877 145.404ZM88.6516 144.401C88.9202 144.343 89.284 144.39 89.606 144.597C89.9285 144.805 90.1278 145.123 90.1877 145.404L76.4941 148.317C77.9696 155.254 84.7102 159.582 91.6195 158.083L88.6516 144.401ZM91.892 143.698L88.6516 144.401L91.6195 158.083L94.8599 157.38L91.892 143.698ZM91.3424 144.509C91.2995 144.251 91.3759 144.068 91.4355 143.98C91.495 143.892 91.6371 143.754 91.892 143.698L94.8599 157.38C101.745 155.887 106.311 149.153 105.151 142.204L91.3424 144.509ZM88.1704 125.499L91.3424 144.509L105.151 142.204L101.979 123.195L88.1704 125.499ZM89.5195 119.143C89.5935 119.658 89.4754 120.121 89.22 120.51L100.93 128.184C102.977 125.06 103.957 121.178 103.377 117.149L89.5195 119.143ZM85.6584 92.3157L89.5195 119.143L103.377 117.149L99.5156 90.3213L85.6584 92.3157ZM84.917 91.0332C85.3145 91.3457 85.5831 91.7926 85.6584 92.3157L99.5156 90.3213C98.9105 86.1167 96.6982 82.4867 93.5692 80.0269L84.917 91.0332ZM83.5601 80.8111C83.5665 81.2117 83.4603 81.569 83.2725 81.876L95.2137 89.184C96.7468 86.6789 97.6084 83.7197 97.5583 80.5872L83.5601 80.8111ZM83.5406 79.5893L83.5601 80.8111L97.5583 80.5872L97.5388 79.3654L83.5406 79.5893ZM103.315 82.6294C100.813 81.1951 98.4 78.8868 96.4974 75.8024L84.582 83.1524C87.5965 88.0393 91.6461 92.0774 96.3529 94.7754L103.315 82.6294ZM99.6581 82.9473C100.198 82.4079 101.655 81.6775 103.315 82.6294L96.3529 94.7755C101.139 97.519 106.464 95.9388 109.555 92.8499L99.6581 82.9473ZM99.0912 84.895C99.0218 84.8377 99.0033 84.8022 99.0027 84.8011C99.0004 84.797 98.9962 84.789 98.9909 84.7739C98.9856 84.7589 98.9759 84.7272 98.968 84.676C98.9535 84.5818 98.9352 84.3492 99.0287 84.0156C99.1293 83.6564 99.3384 83.2668 99.6581 82.9473L109.555 92.8499C112.595 89.8117 113.312 85.8348 112.805 82.5443C112.309 79.3236 110.608 76.2472 108.002 74.0968L99.0912 84.895ZM89.6601 70.1611C91.2588 76.1576 94.6453 81.2262 99.0912 84.895L108.002 74.0968C105.75 72.239 104.016 69.6614 103.188 66.5544L89.6601 70.1611ZM88.8315 59.7806C88.4813 63.1747 88.7336 66.6861 89.6601 70.1611L103.188 66.5544C102.705 64.7448 102.58 62.9432 102.758 61.2176L88.8315 59.7806ZM90.9783 60.1653C90.1778 60.3798 89.4755 60.2416 89.0665 60.0725C88.714 59.9268 88.622 59.7863 88.6835 59.8562C88.7358 59.9157 88.7972 60.0171 88.8292 60.1055C88.8641 60.2021 88.7991 60.0947 88.8315 59.7806L102.758 61.2176C103.183 57.0971 101.486 53.2172 99.2011 50.6162C96.9457 48.0489 92.6454 45.2248 87.3548 46.6424L90.9783 60.1653ZM91.6402 59.9009C91.4252 60.0174 91.203 60.1051 90.9783 60.1653L87.3548 46.6424C86.5242 46.8649 85.7228 47.1839 84.9682 47.593L91.6402 59.9009ZM82.2905 57.6067C82.4817 57.7287 82.6529 57.884 82.7945 58.0646L93.814 49.4293C92.7011 48.0091 91.3514 46.7808 89.8198 45.8037L82.2905 57.6067ZM85.1445 41.2668C85.1445 43.1201 84.1368 44.7471 82.606 45.614L89.5043 57.7965C95.2449 54.5459 99.1445 48.3662 99.1445 41.2668H85.1445ZM85.1445 37.7567V41.2668H99.1445V37.7567H85.1445ZM90.141 31.0297L89.6582 31.2131L94.6307 44.3003L95.1135 44.1168L90.141 31.0297ZM87.1916 38.9812C85.5649 35.9844 86.9535 32.2408 90.1411 31.0297L95.1135 44.1168C99.8496 42.3174 101.913 36.7551 99.4958 32.3024L87.1916 38.9812ZM85.9924 36.7719L87.1916 38.9812L99.4958 32.3024L98.2966 30.0931L85.9924 36.7719ZM85.1445 26.2145V33.4325H99.1445V26.2145H85.1445ZM82.7398 21.9458C84.1967 22.8319 85.1445 24.4157 85.1445 26.2145H99.1445C99.1445 19.3273 95.4733 13.3041 90.0145 9.98426L82.7398 21.9458ZM74.3417 19.577C76.9056 18.8887 79.6798 19.5263 81.9394 21.3786L90.8149 10.5515C85.4008 6.11335 78.0382 4.08896 70.7119 6.05569L74.3417 19.577ZM72.3311 20.4269C72.9439 20.0606 73.6145 19.7722 74.3417 19.577L70.7119 6.05569C68.7189 6.59072 66.8539 7.39025 65.1469 8.41081L72.3311 20.4269ZM128.312 94.0759C129.956 87.9421 126.314 81.6389 120.179 79.9992L116.564 93.5244C115.226 93.1667 114.431 91.7905 114.789 90.4525L128.312 94.0759ZM114.238 102.208C120.369 103.847 126.67 100.206 128.312 94.0759L114.789 90.4525C115.147 89.1177 116.518 88.3259 117.853 88.6827L114.238 102.208ZM108.463 100.664L114.238 102.208L117.853 88.6827L112.078 87.1393L108.463 100.664ZM100.33 86.5877C98.6865 92.7215 102.328 99.0247 108.463 100.664L112.078 87.1393C113.416 87.497 114.212 88.8732 113.853 90.2112L100.33 86.5877ZM114.405 78.4558C108.273 76.8169 101.973 80.4572 100.33 86.5877L113.853 90.2112C113.495 91.5459 112.125 92.3378 110.79 91.981L114.405 78.4558ZM120.179 79.9992L114.405 78.4558L110.79 91.981L116.564 93.5244L120.179 79.9992ZM91.5481 160.734C91.5481 154.852 87.1461 149.902 81.3047 149.213L79.667 163.117C78.4587 162.975 77.5481 161.951 77.5481 160.734H91.5481ZM79.9476 172.335C86.3544 172.335 91.5481 167.141 91.5481 160.734H77.5481C77.5481 159.409 78.6224 158.335 79.9476 158.335V172.335ZM64.6074 172.335H79.9476V158.335H64.6074V172.335ZM52.1065 159.834C52.1065 166.738 57.7034 172.335 64.6074 172.335V158.335C65.4354 158.335 66.1065 159.006 66.1065 159.834H52.1065ZM66.0698 147.419C58.6375 146.543 52.1065 152.35 52.1065 159.834H66.1065C66.1065 160.731 65.3233 161.428 64.432 161.323L66.0698 147.419ZM81.3047 149.213L66.0698 147.419L64.432 161.323L79.6669 163.117L81.3047 149.213ZM108.372 159.326C107.157 159.416 106.066 158.582 105.836 157.386L119.581 154.731C118.466 148.955 113.203 144.929 107.336 145.364L108.372 159.326ZM93.0726 160.46L108.372 159.326L107.336 145.364L92.0373 146.499L93.0726 160.46ZM94.4319 158.684C94.6018 159.563 93.9671 160.394 93.0727 160.46L92.0373 146.499C84.5754 147.052 79.2671 153.993 80.686 161.339L94.4319 158.684ZM92.6718 157.494C93.486 157.337 94.2746 157.87 94.4319 158.684L80.686 161.339C81.9956 168.119 88.554 172.552 95.3332 171.239L92.6718 157.494ZM107.734 154.578L92.6718 157.494L95.3332 171.239L110.395 168.322L107.734 154.578ZM105.836 157.386C105.584 156.086 106.434 154.829 107.734 154.578L110.395 168.322C116.684 167.105 120.796 161.02 119.581 154.731L105.836 157.386Z" fill="black" mask="url(#path-36-outside-2)"/>
</g>
<defs>
<clipPath id="clip0">
<path d="M0 20C0 8.9543 8.9543 0 20 0H255C266.046 0 275 8.95431 275 20V155C275 166.046 266.046 175 255 175H20C8.9543 175 0 166.046 0 155V20Z" fill="white"/>
</clipPath>
</defs>
</svg>
