<svg width="171" height="161" viewBox="0 0 171 161" fill="none" xmlns="http://www.w3.org/2000/svg">
<ellipse cx="63.4751" cy="29.2002" rx="8.06786" ry="8.00003" fill="black"/>
<ellipse cx="71.5428" cy="37.2002" rx="8.06786" ry="8.00003" fill="black"/>
<ellipse cx="76.3835" cy="46.8003" rx="8.06786" ry="8.00003" fill="black"/>
<path d="M7 35.1198C7 29.0383 11.3833 23.8421 17.3779 22.8175L46.7446 17.7979C55.9112 16.2311 64.2818 23.2923 64.2818 32.5919C64.2818 40.8809 57.5623 47.6004 49.2733 47.6004H19.4807C12.5878 47.6004 7 42.0126 7 35.1198Z" fill="#C08CF4"/>
<path d="M63.7763 7.66286C67.0272 8.52661 69.0651 11.7326 68.4665 15.0414L66.3051 26.9876C65.5763 31.0161 61.5516 33.5724 57.5936 32.5207C53.8616 31.5291 51.6528 27.7034 52.6601 23.9756L55.8282 12.2516C56.7612 8.79892 60.3197 6.74444 63.7763 7.66286Z" fill="#C08CF4"/>
<path d="M48.5151 19.8666C55.984 17.5195 63.9961 21.5011 66.6408 28.8743L75.9172 54.7354C79.0043 63.3415 74.0849 72.7183 65.2513 75.0653C56.8975 77.2849 48.2974 72.3198 46.0426 63.9754L38.8779 37.4611C36.8485 29.9509 41.0948 22.1985 48.5151 19.8666Z" fill="#C08CF4"/>
<rect x="46.5325" y="53.2002" width="94.394" height="50.4002" rx="20" fill="#C08CF4"/>
<rect width="15.0907" height="52.6742" rx="7.54533" transform="matrix(0.966468 0.256787 -0.260865 0.965375 51.5936 76.2417)" fill="#C08CF4"/>
<rect width="15.0907" height="52.6742" rx="7.54533" transform="matrix(0.966468 -0.256787 0.260865 0.965375 122.116 80.106)" fill="#C08CF4"/>
<path fill-rule="evenodd" clip-rule="evenodd" d="M28.5493 103.288C25.8715 103.288 23.9845 105.913 25.0166 108.383C28.7617 117.349 34.2509 125.495 41.1709 132.357C48.0908 139.218 56.306 144.662 65.3474 148.375C74.3888 152.089 84.0793 154 93.8656 154C103.652 154 113.342 152.089 122.384 148.375C131.425 144.662 139.64 139.218 146.56 132.357C153.48 125.495 158.969 117.349 162.715 108.383C163.747 105.913 161.86 103.288 159.182 103.288H154.345C153.674 103.288 153.073 103.698 152.815 104.317C149.608 111.994 144.908 118.968 138.983 124.843C133.058 130.719 126.024 135.379 118.283 138.559C110.542 141.738 102.245 143.375 93.8656 143.375C85.4864 143.375 77.1894 141.738 69.4481 138.559C61.7068 135.379 54.6728 130.719 48.7479 124.843C42.823 118.968 38.123 111.994 34.9165 104.317C34.6579 103.698 34.0567 103.288 33.3857 103.288H28.5493Z" fill="#7F00FF"/>
<ellipse cx="42.0951" cy="31.6001" rx="3.63054" ry="4.00002" fill="black"/>
<path d="M16.6814 31.6004C16.6814 33.3677 14.0071 34.8004 12.4486 34.8004C10.8901 34.8004 11.0377 33.3677 11.0377 31.6004C11.0377 29.8331 12.3011 28.4004 13.8596 28.4004C15.418 28.4004 16.6814 29.8331 16.6814 31.6004Z" fill="black"/>
<mask id="path-13-outside-1" maskUnits="userSpaceOnUse" x="0" y="-0.556152" width="171" height="162" fill="black">
<rect fill="white" y="-0.556152" width="171" height="162"/>
<path fill-rule="evenodd" clip-rule="evenodd" d="M63.7764 7.66283C67.0273 8.52659 69.0652 11.7326 68.4665 15.0414L67.19 22.0967C69.7763 23.4294 71.5429 26.1102 71.5429 29.2C75.9986 29.2001 79.6107 32.7818 79.6107 37.2001C79.6107 37.9432 79.5085 38.6626 79.3174 39.3454C82.3225 40.5091 84.4514 43.408 84.4514 46.8C84.4514 49.417 83.1843 51.7404 81.2251 53.2H120.927C131.972 53.2 140.926 62.1543 140.926 73.2V83.6002C140.926 85.4964 140.663 87.3309 140.17 89.0691L147.152 114.907C149.368 111.571 151.265 108.026 152.815 104.317C153.073 103.698 153.674 103.288 154.345 103.288H159.182C161.86 103.288 163.747 105.912 162.715 108.383C158.969 117.349 153.48 125.495 146.56 132.356C139.64 139.218 131.425 144.661 122.384 148.375C113.342 152.089 103.652 154 93.8656 154C84.0793 154 74.3888 152.089 65.3474 148.375C56.306 144.661 48.0908 139.218 41.1709 132.356C34.2509 125.495 28.7617 117.349 25.0166 108.383C23.9845 105.912 25.8715 103.288 28.5493 103.288H33.3857C34.0567 103.288 34.6579 103.698 34.9165 104.317C36.5589 108.249 38.5932 111.997 40.9832 115.507L47.7466 90.4781C46.9612 88.3335 46.5325 86.0169 46.5325 83.6002V73.2C46.5325 71.1709 46.8347 69.2124 47.3965 67.367C46.8261 66.3145 46.3682 65.18 46.0426 63.975L41.6177 47.6H19.4807C12.5878 47.6 7 42.0122 7 35.1193C7 29.0378 11.3833 23.8417 17.3779 22.8171L46.7446 17.7975C49.3401 17.3538 51.8718 17.6019 54.1677 18.3967L55.8282 12.2516C56.7612 8.79889 60.3197 6.74442 63.7764 7.66283ZM51.7773 127.658C57.0192 132.22 62.9873 135.905 69.4481 138.558C77.1894 141.738 85.4865 143.375 93.8656 143.375C102.245 143.375 110.542 141.738 118.283 138.558C124.859 135.857 130.925 132.088 136.234 127.413C135.133 126.459 134.296 125.18 133.888 123.672L128.106 102.273C125.877 103.13 123.457 103.6 120.926 103.6H66.5325C64.2884 103.6 62.1305 103.231 60.1166 102.549L54.4057 123.683C53.9638 125.318 53.0166 126.684 51.7773 127.658Z"/>
</mask>
<path d="M68.4665 15.0414L75.3547 16.2876L68.4665 15.0414ZM63.7764 7.66283L65.5739 0.897559L65.5739 0.897558L63.7764 7.66283ZM67.19 22.0967L60.3019 20.8505L59.3798 25.9469L63.9837 28.3192L67.19 22.0967ZM71.5429 29.2H64.5429V36.2L71.5429 36.2L71.5429 29.2ZM79.3174 39.3454L72.5767 37.4578L70.8628 43.5779L76.7895 45.873L79.3174 39.3454ZM81.2251 53.2L77.0431 47.5866L60.1127 60.2H81.2251V53.2ZM140.17 89.0691L133.435 87.1589L132.906 89.0238L133.412 90.8952L140.17 89.0691ZM147.152 114.907L140.394 116.733L144.427 131.66L152.982 118.78L147.152 114.907ZM152.815 104.317L146.356 101.619L146.356 101.619L152.815 104.317ZM162.715 108.383L169.174 111.081L169.174 111.081L162.715 108.383ZM146.56 132.356L141.631 127.386H141.631L146.56 132.356ZM122.384 148.375L119.724 141.9L122.384 148.375ZM41.1709 132.356L36.2421 137.327L41.1709 132.356ZM25.0166 108.383L18.5575 111.081L18.5575 111.081L25.0166 108.383ZM34.9165 104.317L28.4574 107.015L28.4574 107.015L34.9165 104.317ZM40.9832 115.507L35.197 119.447L43.768 132.035L47.7408 117.333L40.9832 115.507ZM47.7466 90.4781L54.5042 92.3042L55.0841 90.1582L54.3197 88.0709L47.7466 90.4781ZM47.3965 67.367L54.0931 69.4057L54.9455 66.6055L53.551 64.032L47.3965 67.367ZM46.0426 63.975L52.8002 62.149L52.8002 62.149L46.0426 63.975ZM41.6177 47.6L48.3753 45.7739L46.9772 40.6H41.6177V47.6ZM17.3779 22.8171L18.5573 29.717H18.5573L17.3779 22.8171ZM46.7446 17.7975L45.5652 10.8975V10.8975L46.7446 17.7975ZM54.1677 18.3967L51.8778 25.0115L58.968 27.466L60.9253 20.2227L54.1677 18.3967ZM55.8282 12.2516L49.0706 10.4256V10.4256L55.8282 12.2516ZM69.4481 138.558L72.1076 132.083L69.4481 138.558ZM51.7773 127.658L47.4528 122.153L40.7975 127.382L47.1819 132.938L51.7773 127.658ZM118.283 138.558L115.624 132.083V132.083L118.283 138.558ZM136.234 127.413L140.86 132.667L146.873 127.371L140.818 122.123L136.234 127.413ZM133.888 123.672L127.131 125.498L127.131 125.498L133.888 123.672ZM128.106 102.273L134.863 100.447L132.838 92.9522L125.592 95.7398L128.106 102.273ZM60.1166 102.549L62.3609 95.9184L55.3028 93.5294L53.359 100.723L60.1166 102.549ZM54.4057 123.683L47.6481 121.857L54.4057 123.683ZM75.3547 16.2876C76.603 9.3879 72.3476 2.69732 65.5739 0.897559L61.9788 14.4281C61.7069 14.3559 61.5273 14.0773 61.5784 13.7951L75.3547 16.2876ZM74.0782 23.343L75.3547 16.2876L61.5784 13.7951L60.3019 20.8505L74.0782 23.343ZM78.5429 29.2C78.5429 23.3656 75.2003 18.3496 70.3964 15.8743L63.9837 28.3192C64.3523 28.5092 64.5429 28.8547 64.5429 29.2H78.5429ZM86.6107 37.2001C86.6107 28.8602 79.8088 22.2001 71.5429 22.2L71.5429 36.2C72.1884 36.2 72.6107 36.7034 72.6107 37.2001H86.6107ZM86.058 41.233C86.4195 39.9421 86.6107 38.5877 86.6107 37.2001H72.6107C72.6107 37.2987 72.5975 37.3832 72.5767 37.4578L86.058 41.233ZM91.4514 46.8C91.4514 40.3933 87.4282 34.9797 81.8452 32.8177L76.7895 45.873C77.2169 46.0385 77.4514 46.4227 77.4514 46.8H91.4514ZM85.4072 58.8134C89.0514 56.0984 91.4514 51.7358 91.4514 46.8H77.4514C77.4514 47.0982 77.3171 47.3824 77.0431 47.5866L85.4072 58.8134ZM120.927 46.2H81.2251V60.2H120.927V46.2ZM147.926 73.2C147.926 58.2883 135.838 46.2 120.927 46.2V60.2C128.106 60.2 133.926 66.0203 133.926 73.2H147.926ZM147.926 83.6002V73.2H133.926V83.6002H147.926ZM146.904 90.9793C147.571 88.6258 147.926 86.1486 147.926 83.6002H133.926C133.926 84.8441 133.754 86.036 133.435 87.1589L146.904 90.9793ZM153.909 113.081L146.927 87.243L133.412 90.8952L140.394 116.733L153.909 113.081ZM146.356 101.619C144.979 104.915 143.291 108.067 141.321 111.034L152.982 118.78C155.444 115.075 157.552 111.136 159.274 107.015L146.356 101.619ZM154.345 96.2879C150.78 96.2879 147.675 98.4602 146.356 101.619L159.274 107.015C158.471 108.936 156.569 110.288 154.345 110.288V96.2879ZM159.182 96.2879H154.345V110.288H159.182V96.2879ZM169.174 111.081C172.29 103.621 166.441 96.2879 159.182 96.2879V110.288C157.279 110.288 155.203 108.204 156.255 105.685L169.174 111.081ZM151.489 137.327C159.062 129.818 165.072 120.9 169.174 111.081L156.255 105.685C152.867 113.797 147.899 121.171 141.631 127.386L151.489 137.327ZM125.043 154.85C134.93 150.789 143.916 144.836 151.489 137.327L141.631 127.386C135.364 133.601 127.921 138.533 119.724 141.9L125.043 154.85ZM93.8656 161C104.563 161 115.157 158.911 125.043 154.85L119.724 141.9C111.528 145.266 102.741 147 93.8656 147V161ZM62.6879 154.85C72.5742 158.911 83.1682 161 93.8656 161V147C84.9903 147 76.2034 145.266 68.0069 141.9L62.6879 154.85ZM36.2421 137.327C43.8147 144.836 52.8015 150.789 62.6879 154.85L68.0069 141.9C59.8106 138.533 52.367 133.601 46.0997 127.386L36.2421 137.327ZM18.5575 111.081C22.6591 120.9 28.6693 129.818 36.2421 137.327L46.0997 127.386C39.8325 121.171 34.8643 113.797 31.4757 105.685L18.5575 111.081ZM28.5493 96.2879C21.2904 96.2879 15.441 103.621 18.5575 111.081L31.4757 105.685C32.528 108.204 30.4526 110.288 28.5493 110.288V96.2879ZM33.3857 96.2879H28.5493V110.288H33.3857V96.2879ZM41.3756 101.619C40.0561 98.4603 36.9509 96.2879 33.3857 96.2879V110.288C31.1625 110.288 29.2596 108.936 28.4574 107.015L41.3756 101.619ZM46.7694 111.568C44.6439 108.446 42.8355 105.114 41.3756 101.619L28.4574 107.015C30.2824 111.384 32.5424 115.548 35.197 119.447L46.7694 111.568ZM40.9889 88.6521L34.2256 113.681L47.7408 117.333L54.5042 92.3042L40.9889 88.6521ZM39.5325 83.6002C39.5325 86.8501 40.1098 89.9809 41.1735 92.8853L54.3197 88.0709C53.8125 86.6861 53.5325 85.1837 53.5325 83.6002H39.5325ZM39.5325 73.2V83.6002H53.5325V73.2H39.5325ZM40.6999 65.3284C39.9392 67.8274 39.5325 70.4726 39.5325 73.2H53.5325C53.5325 71.8693 53.7302 70.5975 54.0931 69.4057L40.6999 65.3284ZM39.285 65.8011C39.7535 67.5351 40.4148 69.1756 41.242 70.7021L53.551 64.032C53.2374 63.4533 52.9829 62.8249 52.8002 62.149L39.285 65.8011ZM34.8601 49.426L39.285 65.8011L52.8002 62.149L48.3753 45.7739L34.8601 49.426ZM19.4807 54.6H41.6177V40.6H19.4807V54.6ZM0 35.1193C0 45.8782 8.72177 54.6 19.4807 54.6V40.6C16.4538 40.6 14 38.1462 14 35.1193H0ZM16.1985 15.9171C6.84177 17.5164 0 25.6269 0 35.1193H14C14 32.4487 15.9249 30.1669 18.5573 29.717L16.1985 15.9171ZM45.5652 10.8975L16.1985 15.9171L18.5573 29.717L47.9239 24.6974L45.5652 10.8975ZM56.4576 11.7818C53.0745 10.6107 49.3503 10.2505 45.5652 10.8975L47.9239 24.6974C49.3298 24.4571 50.669 24.5931 51.8778 25.0115L56.4576 11.7818ZM49.0706 10.4256L47.4101 16.5706L60.9253 20.2227L62.5858 14.0777L49.0706 10.4256ZM65.5739 0.897558C58.392 -1.01064 51.0091 3.25185 49.0706 10.4256L62.5858 14.0777C62.5133 14.3459 62.2474 14.4995 61.9789 14.4281L65.5739 0.897558ZM72.1076 132.083C66.3521 129.719 61.0381 126.438 56.3726 122.377L47.1819 132.938C53.0003 138.002 59.6224 142.09 66.7885 145.034L72.1076 132.083ZM93.8656 136.375C86.3975 136.375 79.004 134.916 72.1076 132.083L66.7885 145.034C75.3747 148.56 84.5754 150.375 93.8656 150.375V136.375ZM115.624 132.083C108.727 134.916 101.334 136.375 93.8656 136.375V150.375C103.156 150.375 112.356 148.56 120.943 145.034L115.624 132.083ZM131.607 122.16C126.882 126.32 121.482 129.677 115.624 132.083L120.943 145.034C128.236 142.038 134.967 137.856 140.86 132.667L131.607 122.16ZM127.131 125.498C127.914 128.396 129.531 130.867 131.649 132.703L140.818 122.123C140.775 122.086 140.74 122.044 140.713 122.002C140.687 121.962 140.664 121.912 140.646 121.846L127.131 125.498ZM121.348 104.099L127.131 125.498L140.646 121.846L134.863 100.447L121.348 104.099ZM120.926 110.6C124.33 110.6 127.602 109.967 130.619 108.806L125.592 95.7398C124.153 96.2934 122.584 96.6002 120.926 96.6002V110.6ZM66.5325 110.6H120.926V96.6002H66.5325V110.6ZM57.8723 109.179C60.5998 110.103 63.5152 110.6 66.5325 110.6V96.6002C65.0615 96.6002 63.6613 96.3586 62.3609 95.9184L57.8723 109.179ZM61.1633 125.509L66.8742 104.375L53.359 100.723L47.6481 121.857L61.1633 125.509ZM56.1018 133.162C58.4839 131.291 60.3138 128.653 61.1633 125.509L47.6481 121.857C47.6289 121.928 47.6027 121.981 47.5738 122.024C47.5435 122.069 47.5034 122.114 47.4528 122.153L56.1018 133.162Z" fill="black" mask="url(#path-13-outside-1)"/>
</svg>
