<svg width="66" height="39" viewBox="0 0 66 39" fill="none" xmlns="http://www.w3.org/2000/svg">
<path d="M33.2776 38.0563C43.5261 38.0563 51.8341 29.7483 51.8341 19.4998C51.8341 9.25137 43.5261 0.943359 33.2776 0.943359C23.0292 0.943359 14.7212 9.25137 14.7212 19.4998C14.7212 29.7483 23.0292 38.0563 33.2776 38.0563Z" fill="#DF3A1F"/>
<mask id="mask0" mask-type="alpha" maskUnits="userSpaceOnUse" x="14" y="0" width="38" height="39">
<path d="M33.2776 38.0563C43.5261 38.0563 51.8341 29.7483 51.8341 19.4998C51.8341 9.25137 43.5261 0.943359 33.2776 0.943359C23.0292 0.943359 14.7212 9.25137 14.7212 19.4998C14.7212 29.7483 23.0292 38.0563 33.2776 38.0563Z" fill="#DF3A1F"/>
</mask>
<g mask="url(#mask0)">
<rect x="10" y="20" width="7" height="25" rx="3.5" transform="rotate(-90 10 20)" fill="#FF8874"/>
<rect x="14" y="13" width="6" height="12" rx="3" transform="rotate(-90 14 13)" fill="#FF8874"/>
<rect x="32" y="36.2803" width="6.28037" height="21.8832" rx="3.14019" transform="rotate(-90 32 36.2803)" fill="#FF8874"/>
</g>
<path fill-rule="evenodd" clip-rule="evenodd" d="M51.8317 19.2071C53.2227 18.6792 54.5218 18.1574 55.7154 17.6476C58.4047 16.4988 60.6376 15.3772 62.1889 14.3441C62.953 13.8353 63.6575 13.2792 64.1648 12.6762C64.6151 12.1412 65.2919 11.1058 64.9498 9.82925C64.6078 8.55268 63.5039 7.99441 62.8465 7.75618C62.1056 7.48769 61.2175 7.35838 60.3013 7.29974C58.4414 7.18068 55.9467 7.3258 53.0434 7.67559C51.5355 7.85726 49.8943 8.09708 48.1434 8.39198C48.9967 9.53201 49.7218 10.7734 50.2976 12.0949C51.4337 11.9183 52.5111 11.7686 53.5219 11.6469C56.0548 11.3417 58.1004 11.2203 59.5762 11.2691C58.3225 12.0493 56.4903 12.9669 54.1441 13.9691C53.2624 14.3458 52.3171 14.7306 51.3143 15.1208C51.6319 16.4339 51.81 17.8016 51.8317 19.2071ZM15.4915 24.8085C15.8884 26.1402 16.4307 27.4092 17.1002 28.5971C15.3264 28.8967 13.6646 29.14 12.1392 29.3238C9.23592 29.6736 6.7413 29.8187 4.88134 29.6996C3.96517 29.641 3.07703 29.5117 2.33614 29.2432C1.67874 29.005 0.574871 28.4467 0.232816 27.1701C-0.109238 25.8936 0.567603 24.8581 1.01782 24.3231C1.5252 23.7202 2.2297 23.1641 2.9938 22.6552C4.54505 21.6222 6.778 20.5005 9.46723 19.3518C11.0824 18.6619 12.8908 17.9502 14.8584 17.2308C14.7677 17.9745 14.721 18.7318 14.721 19.5C14.721 20.179 14.7575 20.8496 14.8286 21.5098C13.4648 22.0267 12.1968 22.5355 11.0385 23.0303C8.69237 24.0324 6.86019 24.9501 5.60643 25.7303C7.08231 25.779 9.12785 25.6577 11.6608 25.3525C12.8497 25.2093 14.1309 25.0274 15.4915 24.8085ZM4.01741 26.9802C4.01643 26.9804 4.02173 26.971 4.03625 26.9514C4.02565 26.9702 4.01839 26.98 4.01741 26.9802ZM61.5773 11.557C61.5764 11.5574 61.5652 11.5525 61.5466 11.5415C61.569 11.5512 61.5783 11.5567 61.5773 11.557ZM61.1464 10.048C61.157 10.0292 61.1643 10.0194 61.1653 10.0192C61.1662 10.019 61.1609 10.0284 61.1464 10.048ZM3.63605 25.4578C3.61368 25.4481 3.6044 25.4426 3.60535 25.4423C3.60629 25.442 3.61748 25.4469 3.63605 25.4578Z" fill="#304967"/>
<path d="M63.0179 10.3467C63.6611 12.7473 50.5601 18.3435 33.7559 22.8462C16.9517 27.3489 2.80779 29.0529 2.16455 26.6523" stroke="#304967" stroke-width="4"/>
<path d="M28.7471 15.0989L40.7023 19.342L31.05 27.574L28.7471 15.0989Z" fill="white"/>
</svg>
