<svg width="25" height="25" viewBox="0 0 25 25" fill="none" xmlns="http://www.w3.org/2000/svg">
<path d="M23.9529 13.8138L13.5292 24.4566C12.8196 25.1811 11.6654 25.1811 10.9558 24.4566L0.532227 13.8138C-0.177409 13.0893 -0.177409 11.9108 0.532227 11.1862L10.9558 0.543421C11.6654 -0.18114 12.8196 -0.18114 13.5292 0.543421L23.9529 11.1862C24.6624 11.9108 24.6624 13.0893 23.9529 13.8138Z" fill="#A1D900"/>
<path d="M11.0707 17.7991C11.2886 16.4965 11.5794 13.7164 10.999 13.0166" stroke="black" stroke-width="4"/>
<path d="M10.9786 12.8727L10.9778 12.999L10.8521 13.0118C9.99633 13.0983 8.74899 12.9857 7.80414 12.3468C7.32865 12.0253 6.93031 11.5705 6.70096 10.9447C6.47205 10.3201 6.41507 9.53485 6.60494 8.55668L6.62837 8.43591L6.7511 8.44305C8.40836 8.53944 9.48346 8.92123 10.1355 9.66494C10.7858 10.4068 10.9864 11.4765 10.9786 12.8727Z" fill="black" stroke="black" stroke-width="4"/>
<path d="M10.501 12.5196C10.1304 10.9927 8.65289 9.38618 7.2124 8.97778" stroke="#A1D900" stroke-width="4"/>
<path d="M11.2788 17.7994C11.562 16.472 12.3432 13.7015 13.2024 13.2383" stroke="black" stroke-width="4"/>
<path d="M13.1709 13.0508L13.1265 13.1703L13.24 13.2269C13.987 13.5999 15.1584 13.9259 16.2363 13.668C16.7788 13.5383 17.2972 13.2603 17.721 12.7681C18.1441 12.2769 18.4662 11.58 18.6303 10.6226L18.6513 10.5004L18.5339 10.4636C16.9967 9.98208 15.889 9.96047 15.0406 10.4148C14.1944 10.8681 13.6441 11.7753 13.1709 13.0508Z" fill="black" stroke="black" stroke-width="4"/>
<path d="M13.6011 12.9345C14.5352 11.6322 16.5701 10.6467 18.1175 10.773" stroke="#A1D900" stroke-width="4"/>
</svg>
