<svg width="247" height="205" viewBox="0 0 247 205" fill="none" xmlns="http://www.w3.org/2000/svg">
<ellipse cx="123.5" cy="70.1396" rx="62.5" ry="62.4384" fill="#A1D900"/>
<mask id="path-2-outside-1" maskUnits="userSpaceOnUse" x="21.6377" y="0.55957" width="203" height="178" fill="black">
<rect fill="white" x="21.6377" y="0.55957" width="203" height="178"/>
<path fill-rule="evenodd" clip-rule="evenodd" d="M144.172 129.22C145.257 128.841 146.328 128.433 147.384 127.997C162.055 148.983 188.797 159.627 214.963 152.628C219.088 151.525 217.53 145.606 213.315 144.909C194.649 141.819 178.225 129.598 170.21 111.806C180.102 100.741 186.114 86.141 186.114 70.1385C186.114 35.5771 158.069 7.55957 123.474 7.55957C88.8781 7.55957 60.833 35.5771 60.833 70.1385C60.833 86.1624 66.8615 100.78 76.7764 111.85C68.7546 129.618 52.3418 141.822 33.6914 144.909C29.4771 145.606 27.9184 151.525 32.0439 152.628C58.2015 159.625 84.9354 148.99 99.6095 128.016C100.667 128.452 101.74 128.859 102.826 129.238C94.6516 146.48 78.499 158.297 60.1899 161.327C55.9757 162.024 54.4169 167.943 58.5424 169.046C83.2198 175.647 108.41 166.555 123.503 147.894C138.597 166.555 163.787 175.647 188.464 169.046C192.59 167.943 191.031 162.024 186.817 161.327C168.501 158.296 152.344 146.472 144.172 129.22Z"/>
</mask>
<path d="M147.384 127.997L153.121 123.986L149.903 119.383L144.712 121.527L147.384 127.997ZM144.172 129.22L141.862 122.613L134.514 125.182L137.846 132.217L144.172 129.22ZM214.963 152.628L213.154 145.866L213.154 145.866L214.963 152.628ZM213.315 144.909L212.172 151.815L212.172 151.815L213.315 144.909ZM170.21 111.806L164.992 107.141L161.959 110.533L163.828 114.681L170.21 111.806ZM76.7764 111.85L83.1563 114.73L85.032 110.576L81.9908 107.18L76.7764 111.85ZM33.6914 144.909L34.8343 151.815L34.8343 151.815L33.6914 144.909ZM32.0439 152.628L30.235 159.39L30.235 159.39L32.0439 152.628ZM99.6095 128.016L102.276 121.544L97.0895 119.407L93.8739 124.003L99.6095 128.016ZM102.826 129.238L109.151 132.237L112.49 125.194L105.131 122.628L102.826 129.238ZM60.1899 161.327L61.3329 168.233L61.3329 168.233L60.1899 161.327ZM58.5424 169.046L56.7335 175.808L56.7336 175.808L58.5424 169.046ZM123.503 147.894L128.946 143.492L123.503 136.763L118.061 143.492L123.503 147.894ZM188.464 169.046L186.656 162.284L186.656 162.284L188.464 169.046ZM186.817 161.327L187.96 154.421L187.96 154.421L186.817 161.327ZM144.712 121.527C143.775 121.914 142.824 122.276 141.862 122.613L146.482 135.828C147.689 135.406 148.88 134.952 150.055 134.467L144.712 121.527ZM213.154 145.866C189.922 152.08 166.16 142.637 153.121 123.986L141.647 132.008C157.951 155.329 187.673 167.174 216.772 159.39L213.154 145.866ZM212.172 151.815C211.163 151.648 210.618 150.925 210.452 150.218C210.353 149.797 210.274 148.91 210.804 147.871C211.414 146.677 212.438 146.058 213.154 145.866L216.772 159.39C219.551 158.647 221.927 156.874 223.273 154.238C224.54 151.757 224.581 149.14 224.081 147.014C223.113 142.898 219.682 138.867 214.458 138.003L212.172 151.815ZM163.828 114.681C172.826 134.657 191.249 148.352 212.172 151.815L214.458 138.003C198.05 135.287 183.623 124.539 176.593 108.931L163.828 114.681ZM179.114 70.1385C179.114 84.3535 173.781 97.3083 164.992 107.141L175.429 116.471C186.423 104.173 193.114 87.9286 193.114 70.1385H179.114ZM123.474 14.5596C154.21 14.5596 179.114 39.4496 179.114 70.1385H193.114C193.114 31.7046 161.929 0.55957 123.474 0.55957V14.5596ZM67.833 70.1385C67.833 39.4496 92.7376 14.5596 123.474 14.5596V0.55957C85.0186 0.55957 53.833 31.7046 53.833 70.1385H67.833ZM81.9908 107.18C73.1805 97.3429 67.833 84.3724 67.833 70.1385H53.833C53.833 87.9524 60.5425 104.216 71.562 116.52L81.9908 107.18ZM34.8343 151.815C55.7408 148.355 74.1498 134.68 83.1563 114.73L70.3964 108.97C63.3594 124.557 48.9428 135.289 32.5485 138.003L34.8343 151.815ZM33.8527 145.866C34.5693 146.058 35.5929 146.677 36.2024 147.871C36.733 148.91 36.6535 149.797 36.5545 150.218C36.3883 150.925 35.8434 151.648 34.8343 151.815L32.5485 138.003C27.3251 138.867 23.8937 142.898 22.926 147.014C22.4262 149.14 22.4672 151.757 23.7341 154.238C25.0799 156.874 27.4557 158.647 30.235 159.39L33.8527 145.866ZM93.8739 124.003C80.8327 142.643 57.0775 152.078 33.8527 145.866L30.235 159.39C59.3254 167.172 89.0382 155.337 105.345 132.029L93.8739 124.003ZM105.131 122.628C104.167 122.292 103.215 121.93 102.276 121.544L96.9432 134.488C98.1201 134.973 99.3132 135.427 100.522 135.848L105.131 122.628ZM61.3329 168.233C81.8574 164.836 99.9733 151.595 109.151 132.237L96.5009 126.239C89.3298 141.365 75.1405 151.757 59.047 154.421L61.3329 168.233ZM60.3513 162.284C61.0678 162.476 62.0914 163.095 62.7009 164.289C63.2315 165.328 63.152 166.215 63.053 166.636C62.8869 167.343 62.3419 168.066 61.3329 168.233L59.047 154.421C53.8237 155.285 50.3922 159.316 49.4245 163.432C48.9247 165.558 48.9657 168.175 50.2326 170.656C51.5784 173.292 53.9543 175.065 56.7335 175.808L60.3513 162.284ZM118.061 143.492C104.643 160.082 82.2612 168.145 60.3513 162.284L56.7336 175.808C84.1784 183.15 112.178 173.029 128.946 152.296L118.061 143.492ZM186.656 162.284C164.746 168.145 142.364 160.082 128.946 143.492L118.061 152.296C134.829 173.029 162.828 183.15 190.273 175.808L186.656 162.284ZM185.674 168.233C184.665 168.066 184.12 167.343 183.954 166.636C183.855 166.215 183.775 165.328 184.306 164.289C184.915 163.095 185.939 162.476 186.656 162.284L190.273 175.808C193.052 175.065 195.428 173.292 196.774 170.656C198.041 168.175 198.082 165.558 197.582 163.432C196.615 159.316 193.183 155.285 187.96 154.421L185.674 168.233ZM137.846 132.217C147.021 151.586 165.142 164.835 185.674 168.233L187.96 154.421C171.861 151.756 157.667 141.358 150.498 126.224L137.846 132.217Z" fill="black" mask="url(#path-2-outside-1)"/>
<path fill-rule="evenodd" clip-rule="evenodd" d="M110.699 98.8836C110.962 96.5478 109.4 94.438 107.129 93.8311L88.4022 88.8265C85.1974 87.9701 82.0601 90.4214 81.724 93.7211C81.4134 96.7713 80.8542 99.8369 80.0328 102.894C73.9766 125.435 55.3463 141.26 33.712 144.844C29.4901 145.544 27.9287 151.473 32.0616 152.577V152.577C65.5311 161.524 99.9455 141.665 108.928 108.222C109.764 105.11 110.35 101.99 110.699 98.8836Z" fill="#A1D900"/>
<path fill-rule="evenodd" clip-rule="evenodd" d="M137.249 115.325C137.511 112.989 135.95 110.879 133.679 110.272L114.952 105.268C111.747 104.411 108.61 106.863 108.274 110.163C107.963 113.213 107.404 116.278 106.583 119.336C100.526 141.877 81.8961 157.701 60.2618 161.286C56.0399 161.985 54.4785 167.914 58.6115 169.019V169.019C92.0809 177.965 126.495 158.106 135.478 124.663C136.314 121.551 136.9 118.432 137.249 115.325Z" fill="#A1D900"/>
<path fill-rule="evenodd" clip-rule="evenodd" d="M136.301 98.8836C136.038 96.5478 137.6 94.438 139.871 93.8311L158.598 88.8265C161.803 87.9701 164.94 90.4214 165.276 93.7211C165.587 96.7713 166.146 99.8369 166.967 102.894C173.023 125.435 191.654 141.26 213.288 144.844C217.51 145.544 219.071 151.473 214.938 152.577V152.577C181.469 161.524 147.055 141.665 138.072 108.222C137.236 105.11 136.65 101.99 136.301 98.8836Z" fill="#A1D900"/>
<path fill-rule="evenodd" clip-rule="evenodd" d="M109.751 115.325C109.489 112.989 111.05 110.879 113.321 110.272L132.048 105.268C135.253 104.411 138.39 106.863 138.726 110.163C139.037 113.213 139.596 116.278 140.417 119.336C146.474 141.877 165.104 157.701 186.738 161.286C190.96 161.985 192.521 167.914 188.389 169.019V169.019C154.919 177.965 120.505 158.106 111.522 124.663C110.686 121.551 110.1 118.432 109.751 115.325Z" fill="#A1D900"/>
<rect width="8.29787" height="12.4345" rx="4.14894" transform="matrix(-1 0 0 1 111.298 66.1963)" fill="black"/>
<rect width="8.29787" height="12.4345" rx="4.14893" transform="matrix(-1 0 0 1 162.745 66.1963)" fill="black"/>
<rect width="8.29788" height="12.4345" rx="4.14894" transform="matrix(-1 0 0 1 136.191 49.6597)" fill="black"/>
<path d="M121.5 105.127C121.5 97.3911 124.5 90.897 133.5 90.8972C142.5 90.8973 137.565 105.127 137.565 105.127L121.5 105.127Z" stroke="black" stroke-width="7" stroke-linecap="round" stroke-linejoin="round"/>
</svg>
