<svg width="207" height="193" viewBox="0 0 207 193" fill="none" xmlns="http://www.w3.org/2000/svg">
<circle cx="103.5" cy="70.2085" r="62.5" fill="#A1D900"/>
<mask id="path-2-outside-1" maskUnits="userSpaceOnUse" x="1.83301" y="0.566895" width="203" height="178" fill="black">
<rect fill="white" x="1.83301" y="0.566895" width="203" height="178"/>
<path fill-rule="evenodd" clip-rule="evenodd" d="M124.152 129.355C125.239 128.975 126.311 128.566 127.37 128.129C142.038 149.131 168.782 159.778 194.952 152.768C199.078 151.662 197.519 145.741 193.304 145.045C174.634 141.962 158.207 129.737 150.195 111.933C160.096 100.855 166.114 86.234 166.114 70.2075C166.114 35.6121 138.069 7.56689 103.474 7.56689C68.8782 7.56689 40.833 35.6121 40.833 70.2075C40.833 86.2554 46.8677 100.894 56.7916 111.977C48.7721 129.757 32.3577 141.965 13.703 145.045C9.48786 145.741 7.92839 151.662 12.0548 152.768C38.2174 159.776 64.9527 149.137 79.624 128.148C80.6837 128.585 81.758 128.993 82.846 129.372C74.6751 146.631 58.5183 158.455 40.2016 161.48C35.9864 162.176 34.4269 168.096 38.5534 169.202C63.2274 175.812 88.4108 166.725 103.503 148.063C118.596 166.725 143.779 175.812 168.453 169.202C172.58 168.096 171.02 162.176 166.805 161.48C148.482 158.454 132.321 146.623 124.152 129.355Z"/>
</mask>
<path d="M127.37 128.129L133.108 124.121L129.891 119.514L124.697 121.659L127.37 128.129ZM124.152 129.355L121.842 122.747L114.498 125.314L117.825 132.348L124.152 129.355ZM194.952 152.768L196.763 159.529H196.763L194.952 152.768ZM193.304 145.045L194.444 138.139H194.444L193.304 145.045ZM150.195 111.933L144.976 107.268L141.946 110.659L143.812 114.806L150.195 111.933ZM56.7916 111.977L63.1726 114.855L65.0459 110.702L62.0067 107.308L56.7916 111.977ZM13.703 145.045L12.5625 138.139H12.5625L13.703 145.045ZM12.0548 152.768L10.2435 159.529H10.2435L12.0548 152.768ZM79.624 128.148L82.2909 121.676L77.1019 119.538L73.8866 124.138L79.624 128.148ZM82.846 129.372L89.1728 132.368L92.5062 125.327L85.1503 122.763L82.846 129.372ZM40.2016 161.48L39.061 154.573H39.061L40.2016 161.48ZM38.5534 169.202L40.3647 162.44H40.3647L38.5534 169.202ZM103.503 148.063L108.946 143.661L103.503 136.931L98.0606 143.661L103.503 148.063ZM168.453 169.202L166.642 162.44H166.642L168.453 169.202ZM166.805 161.48L167.946 154.573H167.946L166.805 161.48ZM124.697 121.659C123.758 122.047 122.806 122.41 121.842 122.747L126.462 135.962C127.671 135.54 128.865 135.085 130.042 134.599L124.697 121.659ZM193.141 146.006C169.906 152.23 146.145 142.786 133.108 124.121L121.631 132.137C137.931 155.476 167.657 167.327 196.763 159.529L193.141 146.006ZM192.163 151.952C191.153 151.785 190.608 151.061 190.442 150.355C190.343 149.934 190.264 149.048 190.793 148.01C191.402 146.818 192.424 146.198 193.141 146.006L196.763 159.529C199.543 158.785 201.918 157.01 203.263 154.375C204.529 151.894 204.57 149.277 204.07 147.151C203.102 143.034 199.67 139.002 194.444 138.139L192.163 151.952ZM143.812 114.806C152.807 134.795 171.232 148.495 192.163 151.952L194.444 138.139C178.035 135.429 163.607 124.679 156.579 109.06L143.812 114.806ZM159.114 70.2075C159.114 84.4476 153.774 97.4237 144.976 107.268L155.415 116.597C166.417 104.286 173.114 88.0205 173.114 70.2075H159.114ZM103.474 14.5669C134.203 14.5669 159.114 39.478 159.114 70.2075H173.114C173.114 31.7461 141.935 0.566895 103.474 0.566895V14.5669ZM47.833 70.2075C47.833 39.478 72.7442 14.5669 103.474 14.5669V0.566895C65.0122 0.566895 33.833 31.7461 33.833 70.2075H47.833ZM62.0067 107.308C53.1876 97.4583 47.833 84.4666 47.833 70.2075H33.833C33.833 88.0443 40.5479 104.329 51.5766 116.647L62.0067 107.308ZM14.8435 151.952C35.7572 148.498 54.1688 134.818 63.1726 114.855L50.4107 109.099C43.3754 124.697 28.9583 135.431 12.5625 138.139L14.8435 151.952ZM13.8662 146.006C14.5824 146.198 15.6049 146.818 16.2136 148.01C16.7434 149.048 16.664 149.934 16.565 150.355C16.3991 151.061 15.8542 151.785 14.8435 151.952L12.5625 138.139C7.33673 139.002 3.90446 143.034 2.93663 147.151C2.43671 149.277 2.47771 151.894 3.74398 154.375C5.08906 157.01 7.46403 158.785 10.2435 159.529L13.8662 146.006ZM73.8866 124.138C60.848 142.791 37.0936 152.228 13.8662 146.006L10.2435 159.529C39.3412 167.324 69.0574 155.483 85.3613 132.158L73.8866 124.138ZM85.1503 122.763C84.1849 122.426 83.2314 122.064 82.2909 121.676L76.9571 134.62C78.136 135.106 79.3312 135.56 80.5418 135.982L85.1503 122.763ZM41.3421 168.386C61.8775 164.995 79.9991 151.744 89.1728 132.368L76.5193 126.377C69.3511 141.518 55.1591 151.915 39.061 154.573L41.3421 168.386ZM40.3647 162.44C41.081 162.632 42.1034 163.252 42.7121 164.444C43.2419 165.482 43.1625 166.368 43.0636 166.789C42.8976 167.495 42.3527 168.219 41.3421 168.386L39.061 154.573C33.8353 155.436 30.403 159.469 29.4352 163.585C28.9353 165.711 28.9762 168.328 30.2425 170.809C31.5876 173.444 33.9626 175.219 36.742 175.963L40.3647 162.44ZM98.0606 143.661C84.6436 160.251 62.2702 168.309 40.3647 162.44L36.742 175.963C64.1846 183.315 92.178 173.199 108.946 152.465L98.0606 143.661ZM166.642 162.44C144.737 168.309 122.363 160.251 108.946 143.661L98.0606 152.465C114.829 173.199 142.822 183.315 170.265 175.963L166.642 162.44ZM165.665 168.386C164.654 168.219 164.109 167.495 163.943 166.789C163.844 166.368 163.765 165.482 164.295 164.444C164.903 163.252 165.926 162.632 166.642 162.44L170.265 175.963C173.044 175.219 175.419 173.444 176.764 170.809C178.031 168.328 178.072 165.711 177.572 163.585C176.604 159.469 173.172 155.436 167.946 154.573L165.665 168.386ZM117.825 132.348C126.995 151.735 145.122 164.994 165.665 168.386L167.946 154.573C151.842 151.914 137.646 141.51 130.48 126.361L117.825 132.348Z" fill="black" mask="url(#path-2-outside-1)"/>
<path fill-rule="evenodd" clip-rule="evenodd" d="M90.711 98.9654C90.9714 96.6302 89.4101 94.5211 87.1402 93.9135L68.4166 88.9013C65.2104 88.0431 62.0723 90.4965 61.7391 93.7986C61.43 96.8616 60.8707 99.9403 60.0473 103.01C53.9964 125.571 35.3637 141.403 13.723 144.981C9.50019 145.679 7.93809 151.61 12.072 152.717C45.5475 161.678 79.9619 141.809 88.9387 108.339C89.7765 105.216 90.3631 102.084 90.711 98.9654Z" fill="#A1D900"/>
<path fill-rule="evenodd" clip-rule="evenodd" d="M117.261 115.423C117.521 113.088 115.96 110.979 113.69 110.371L94.9664 105.359C91.7602 104.501 88.6221 106.954 88.2889 110.256C87.9798 113.319 87.4206 116.398 86.5971 119.468C80.5462 142.028 61.9135 157.861 40.2728 161.438C36.05 162.136 34.4879 168.068 38.6218 169.174C72.0973 178.135 106.512 158.267 115.489 124.797C116.326 121.673 116.913 118.541 117.261 115.423Z" fill="#A1D900"/>
<path fill-rule="evenodd" clip-rule="evenodd" d="M116.289 98.9654C116.029 96.6302 117.59 94.5211 119.86 93.9135L138.583 88.9013C141.79 88.0431 144.928 90.4965 145.261 93.7986C145.57 96.8616 146.129 99.9403 146.953 103.01C153.004 125.571 171.636 141.403 193.277 144.981C197.5 145.679 199.062 151.61 194.928 152.717C161.453 161.678 127.038 141.809 118.061 108.339C117.223 105.216 116.637 102.084 116.289 98.9654Z" fill="#A1D900"/>
<path fill-rule="evenodd" clip-rule="evenodd" d="M89.7392 115.423C89.4788 113.088 91.0401 110.979 93.3099 110.371L112.034 105.359C115.24 104.501 118.378 106.954 118.711 110.256C119.02 113.319 119.579 116.398 120.403 119.468C126.454 142.028 145.086 157.861 166.727 161.438C170.95 162.136 172.512 168.068 168.378 169.174C134.903 178.135 100.488 158.267 91.5115 124.797C90.6737 121.673 90.0871 118.541 89.7392 115.423Z" fill="#A1D900"/>
<rect width="8.29787" height="12.4468" rx="4.14894" transform="matrix(-1 0 0 1 91.2979 66.2612)" fill="black"/>
<rect width="8.29787" height="12.4468" rx="4.14894" transform="matrix(-1 0 0 1 142.745 66.2612)" fill="black"/>
<rect width="8.29787" height="12.4468" rx="4.14894" transform="matrix(-1 0 0 1 116.191 49.7085)" fill="black"/>
<path d="M101.5 105.23C101.5 97.4871 104.5 90.9866 113.5 90.9867C122.5 90.9869 117.565 105.23 117.565 105.23L101.5 105.23Z" stroke="black" stroke-width="7" stroke-linecap="round" stroke-linejoin="round"/>
</svg>
