<svg width="247" height="205" viewBox="0 0 247 205" fill="none" xmlns="http://www.w3.org/2000/svg">
<ellipse cx="123.5" cy="70.0465" rx="62.5" ry="62.4815" fill="#A1D900"/>
<mask id="path-2-outside-1" maskUnits="userSpaceOnUse" x="21.6377" y="0.42334" width="203" height="178" fill="black">
<rect fill="white" x="21.6377" y="0.42334" width="203" height="178"/>
<path fill-rule="evenodd" clip-rule="evenodd" d="M144.158 129.173C145.244 128.793 146.316 128.385 147.374 127.948C162.043 148.945 188.786 159.592 214.955 152.585C219.081 151.48 217.522 145.559 213.307 144.863C194.638 141.778 178.213 129.554 170.2 111.753C180.097 100.679 186.114 86.0648 186.114 70.0455C186.114 35.4602 158.069 7.42334 123.474 7.42334C88.8781 7.42334 60.833 35.4602 60.833 70.0455C60.833 86.0862 66.8658 100.718 76.787 111.798C68.7668 129.574 52.3529 141.781 33.6995 144.863C29.4846 145.559 27.9254 151.48 32.0515 152.584C58.2126 159.59 84.9475 148.952 99.6196 127.967C100.679 128.403 101.753 128.812 102.84 129.191C94.668 146.444 78.5125 158.266 60.198 161.292C55.9832 161.989 54.4239 167.909 58.5501 169.014C83.2251 175.621 108.411 166.533 123.503 147.871C138.596 166.533 163.782 175.621 188.457 169.014C192.583 167.909 191.024 161.989 186.809 161.292C168.488 158.265 152.328 146.436 144.158 129.173Z"/>
</mask>
<path d="M147.374 127.948L153.112 123.939L149.895 119.334L144.702 121.478L147.374 127.948ZM144.158 129.173L141.848 122.565L134.502 125.133L137.831 132.167L144.158 129.173ZM214.955 152.585L213.145 145.823L213.145 145.823L214.955 152.585ZM213.307 144.863L212.166 151.769L212.166 151.769L213.307 144.863ZM170.2 111.753L164.981 107.089L161.95 110.48L163.817 114.627L170.2 111.753ZM76.787 111.798L83.1677 114.677L85.0417 110.523L82.0019 107.128L76.787 111.798ZM33.6995 144.863L34.8408 151.769L34.8408 151.769L33.6995 144.863ZM32.0515 152.584L33.8621 145.823L33.8621 145.823L32.0515 152.584ZM99.6196 127.967L102.286 121.495L97.0982 119.357L93.8828 123.956L99.6196 127.967ZM102.84 129.191L109.166 132.187L112.501 125.146L105.144 122.581L102.84 129.191ZM60.198 161.292L61.3393 168.199L61.3393 168.199L60.198 161.292ZM58.5501 169.014L60.3607 162.252L60.3606 162.252L58.5501 169.014ZM123.503 147.871L128.946 143.469L123.503 136.739L118.061 143.469L123.503 147.871ZM188.457 169.014L186.646 162.252L186.646 162.252L188.457 169.014ZM186.809 161.292L187.95 154.386L187.95 154.386L186.809 161.292ZM144.702 121.478C143.763 121.866 142.812 122.228 141.848 122.565L146.468 135.781C147.676 135.358 148.869 134.904 150.046 134.418L144.702 121.478ZM213.145 145.823C189.911 152.044 166.149 142.6 153.112 123.939L141.635 131.957C157.937 155.291 187.662 167.14 216.766 159.346L213.145 145.823ZM212.166 151.769C211.156 151.602 210.611 150.879 210.445 150.173C210.346 149.752 210.267 148.865 210.797 147.827C211.405 146.634 212.428 146.015 213.145 145.823L216.766 159.346C219.545 158.602 221.92 156.828 223.266 154.193C224.532 151.712 224.573 149.095 224.073 146.969C223.106 142.852 219.674 138.82 214.448 137.957L212.166 151.769ZM163.817 114.627C172.813 134.612 191.237 148.311 212.166 151.769L214.448 137.957C198.04 135.245 183.612 124.496 176.583 108.88L163.817 114.627ZM179.114 70.0455C179.114 84.278 173.776 97.2477 164.981 107.089L175.419 116.418C186.419 104.111 193.114 87.8516 193.114 70.0455H179.114ZM123.474 14.4233C154.205 14.4233 179.114 39.3282 179.114 70.0455H193.114C193.114 31.5923 161.933 0.42334 123.474 0.42334V14.4233ZM67.833 70.0455C67.833 39.3282 92.7422 14.4233 123.474 14.4233V0.42334C85.0141 0.42334 53.833 31.5923 53.833 70.0455H67.833ZM82.0019 107.128C73.1854 97.2824 67.833 84.297 67.833 70.0455H53.833C53.833 87.8754 60.5462 104.154 71.5722 116.467L82.0019 107.128ZM34.8408 151.769C55.7522 148.314 74.163 134.635 83.1677 114.677L70.4064 108.919C63.3706 124.514 48.9536 135.247 32.5583 137.957L34.8408 151.769ZM33.8621 145.823C34.5784 146.015 35.6013 146.634 36.2102 147.827C36.7402 148.865 36.6608 149.752 36.5618 150.173C36.3958 150.879 35.8509 151.602 34.8408 151.769L32.5583 137.957C27.3332 138.82 23.9012 142.852 22.9334 146.969C22.4335 149.095 22.4745 151.712 23.741 154.193C25.0863 156.828 27.4615 158.602 30.2409 159.346L33.8621 145.823ZM93.8828 123.956C80.8433 142.606 57.0888 152.042 33.8621 145.823L30.2409 159.346C59.3364 167.137 89.0516 155.298 105.356 131.978L93.8828 123.956ZM105.144 122.581C104.179 122.245 103.226 121.882 102.286 121.495L96.9528 134.439C98.1312 134.925 99.3258 135.379 100.536 135.801L105.144 122.581ZM61.3393 168.199C81.8714 164.806 99.9913 151.558 109.166 132.187L96.5137 126.194C89.3447 141.331 75.1535 151.726 59.0568 154.386L61.3393 168.199ZM60.3606 162.252C61.077 162.444 62.0998 163.064 62.7087 164.256C63.2388 165.295 63.1593 166.181 63.0604 166.602C62.8944 167.308 62.3494 168.032 61.3393 168.199L59.0568 154.386C53.8318 155.249 50.3997 159.282 49.432 163.398C48.9321 165.524 48.973 168.141 50.2395 170.622C51.5848 173.257 53.9601 175.031 56.7395 175.776L60.3606 162.252ZM118.061 143.469C104.643 160.059 82.2674 168.118 60.3607 162.252L56.7395 175.776C84.1827 183.124 112.178 173.006 128.946 152.273L118.061 143.469ZM186.646 162.252C164.739 168.118 142.363 160.059 128.946 143.469L118.061 152.273C134.829 173.006 162.824 183.124 190.267 175.776L186.646 162.252ZM185.667 168.199C184.657 168.032 184.112 167.308 183.946 166.602C183.847 166.181 183.768 165.295 184.298 164.256C184.907 163.064 185.93 162.444 186.646 162.252L190.267 175.776C193.047 175.031 195.422 173.257 196.767 170.622C198.034 168.141 198.075 165.524 197.575 163.398C196.607 159.282 193.175 155.249 187.95 154.386L185.667 168.199ZM137.831 132.167C147.003 151.549 165.128 164.805 185.667 168.199L187.95 154.386C171.848 151.725 157.652 141.323 150.486 126.179L137.831 132.167Z" fill="black" mask="url(#path-2-outside-1)"/>
<path fill-rule="evenodd" clip-rule="evenodd" d="M110.707 98.7993C110.968 96.464 109.407 94.3547 107.137 93.7473L88.4121 88.7374C85.2063 87.8797 82.0684 90.3325 81.7344 93.6339C81.4248 96.693 80.8656 99.7678 80.0428 102.834C73.9903 125.389 55.3583 141.219 33.7195 144.798C29.497 145.497 27.9351 151.427 32.0687 152.533V152.533C65.5423 161.49 99.9567 141.625 108.935 108.163C109.773 105.042 110.359 101.914 110.707 98.7993Z" fill="#A1D900"/>
<path fill-rule="evenodd" clip-rule="evenodd" d="M137.257 115.252C137.518 112.917 135.957 110.808 133.686 110.2L114.962 105.191C111.756 104.333 108.618 106.786 108.284 110.087C107.975 113.146 107.415 116.221 106.593 119.287C100.54 141.842 81.9081 157.672 60.2693 161.252C56.0468 161.95 54.4849 167.88 58.6185 168.987V168.987C92.0921 177.943 126.507 158.078 135.485 124.616C136.322 121.496 136.909 118.367 137.257 115.252Z" fill="#A1D900"/>
<path fill-rule="evenodd" clip-rule="evenodd" d="M136.293 98.7993C136.032 96.464 137.593 94.3547 139.863 93.7473L158.588 88.7374C161.794 87.8797 164.932 90.3325 165.266 93.6339C165.575 96.693 166.134 99.7678 166.957 102.834C173.01 125.389 191.642 141.219 213.28 144.798C217.503 145.497 219.065 151.427 214.931 152.533V152.533C181.458 161.49 147.043 141.625 138.065 108.163C137.227 105.042 136.641 101.914 136.293 98.7993Z" fill="#A1D900"/>
<path fill-rule="evenodd" clip-rule="evenodd" d="M109.743 115.252C109.482 112.917 111.043 110.808 113.314 110.2L132.038 105.191C135.244 104.333 138.382 106.786 138.716 110.087C139.025 113.146 139.585 116.221 140.407 119.287C146.46 141.842 165.092 157.672 186.731 161.252C190.953 161.95 192.515 167.88 188.382 168.987V168.987C154.908 177.943 120.493 158.078 111.515 124.616C110.678 121.496 110.091 118.367 109.743 115.252Z" fill="#A1D900"/>
<path d="M121.565 89.7306C120.065 98.2281 123.5 106.111 131 109.11L137.565 95.229C131 93.1144 121.565 89.7306 121.565 89.7306Z" stroke="black" stroke-width="7" stroke-linecap="round" stroke-linejoin="round"/>
<path d="M114 73C114 69.134 110.866 66 107 66C103.134 66 100 69.134 100 73" stroke="black" stroke-width="7" stroke-linecap="round" stroke-linejoin="round"/>
<path d="M140 60C140 56.134 136.866 53 133 53C129.134 53 126 56.134 126 60" stroke="black" stroke-width="7" stroke-linecap="round" stroke-linejoin="round"/>
<path d="M166 75C166 71.134 162.866 68 159 68C155.134 68 152 71.134 152 75" stroke="black" stroke-width="7" stroke-linecap="round" stroke-linejoin="round"/>
</svg>
