<svg width="247" height="205" viewBox="0 0 247 205" fill="none" xmlns="http://www.w3.org/2000/svg">
<ellipse cx="123.5" cy="69.9529" rx="62.5" ry="62.5247" fill="#A1D900"/>
<mask id="path-2-outside-1" maskUnits="userSpaceOnUse" x="22.6377" y="0.286621" width="202" height="178" fill="black">
<rect fill="white" x="22.6377" y="0.286621" width="202" height="178"/>
<path fill-rule="evenodd" clip-rule="evenodd" d="M144.144 129.125C145.231 128.745 146.305 128.336 147.364 127.899C162.031 148.907 188.775 159.556 214.948 152.54C219.074 151.434 217.515 145.512 213.299 144.817C194.627 141.736 178.2 129.51 170.189 111.701C180.093 100.617 186.114 85.9882 186.114 69.952C186.114 35.3429 158.069 7.28662 123.474 7.28662C88.8781 7.28662 60.833 35.3429 60.833 69.952C60.833 86.0096 66.8701 100.656 76.7977 111.745C68.7791 129.53 52.364 141.739 33.7076 144.817C29.4921 145.512 27.9323 151.434 32.0592 152.54C58.2237 159.554 84.9595 148.913 99.6297 127.918C100.69 128.355 101.765 128.764 102.854 129.143C94.6845 146.408 78.5259 158.235 60.2062 161.258C55.9906 161.953 54.4308 167.875 58.5577 168.981C83.2303 175.595 108.411 166.51 123.503 147.848C138.596 166.51 163.776 175.595 188.449 168.981C192.576 167.875 191.016 161.953 186.801 161.258C168.475 158.234 152.311 146.4 144.144 129.125Z"/>
</mask>
<path d="M147.364 127.899L153.103 123.891L149.886 119.283L144.691 121.429L147.364 127.899ZM144.144 129.125L141.834 122.517L134.491 125.084L137.816 132.117L144.144 129.125ZM214.948 152.54L216.76 159.302L216.76 159.302L214.948 152.54ZM213.299 144.817L214.439 137.91L214.439 137.91L213.299 144.817ZM170.189 111.701L164.969 107.037L161.94 110.426L163.805 114.573L170.189 111.701ZM76.7977 111.745L83.1791 114.622L85.0513 110.47L82.0129 107.076L76.7977 111.745ZM33.7076 144.817L34.8472 151.724L34.8472 151.724L33.7076 144.817ZM32.0592 152.54L30.2468 159.302L30.2468 159.302L32.0592 152.54ZM99.6297 127.918L102.297 121.446L97.1069 119.307L93.8917 123.908L99.6297 127.918ZM102.854 129.143L109.181 132.137L112.513 125.097L105.158 122.533L102.854 129.143ZM60.2062 161.258L61.3457 168.164L61.3457 168.164L60.2062 161.258ZM58.5577 168.981L60.3701 162.22L60.37 162.22L58.5577 168.981ZM123.503 147.848L128.946 143.446L123.503 136.716L118.061 143.446L123.503 147.848ZM188.449 168.981L190.261 175.742L190.261 175.742L188.449 168.981ZM186.801 161.258L187.94 154.351L187.94 154.351L186.801 161.258ZM144.691 121.429C143.752 121.817 142.799 122.18 141.834 122.517L146.454 135.733C147.664 135.31 148.858 134.855 150.036 134.369L144.691 121.429ZM213.135 145.779C189.9 152.007 166.138 142.562 153.103 123.891L141.624 131.906C157.924 155.252 187.651 167.104 216.76 159.302L213.135 145.779ZM212.16 151.724C211.148 151.557 210.603 150.832 210.438 150.127C210.339 149.706 210.259 148.821 210.789 147.783C211.397 146.591 212.419 145.971 213.135 145.779L216.76 159.302C219.54 158.557 221.914 156.782 223.259 154.147C224.525 151.666 224.566 149.049 224.066 146.923C223.098 142.806 219.665 138.773 214.439 137.91L212.16 151.724ZM163.805 114.573C172.8 134.567 191.226 148.27 212.16 151.724L214.439 137.91C198.029 135.203 183.601 124.452 176.573 108.829L163.805 114.573ZM179.114 69.952C179.114 84.2022 173.771 97.1868 164.969 107.037L175.409 116.365C186.415 104.048 193.114 87.7741 193.114 69.952H179.114ZM123.474 14.2866C154.2 14.2866 179.114 39.2063 179.114 69.952H193.114C193.114 31.4795 161.938 0.286621 123.474 0.286621V14.2866ZM67.833 69.952C67.833 39.2063 92.7467 14.2866 123.474 14.2866V0.286621C85.0095 0.286621 53.833 31.4795 53.833 69.952H67.833ZM82.0129 107.076C73.1903 97.2214 67.833 84.2211 67.833 69.952H53.833C53.833 87.798 60.55 104.092 71.5824 116.414L82.0129 107.076ZM34.8472 151.724C55.7637 148.273 74.1763 134.59 83.1791 114.622L70.4163 108.868C63.3818 124.47 48.9644 135.205 32.5681 137.91L34.8472 151.724ZM33.8715 145.779C34.5876 145.971 35.6097 146.591 36.218 147.783C36.7475 148.821 36.6681 149.706 36.5692 150.127C36.4034 150.832 35.8584 151.557 34.8472 151.724L32.5681 137.91C27.3413 138.773 23.9087 142.806 22.9408 146.923C22.4409 149.049 22.4819 151.666 23.7479 154.147C25.0927 156.782 27.4673 158.557 30.2468 159.302L33.8715 145.779ZM93.8917 123.908C80.854 142.567 57.1 152.005 33.8715 145.779L30.2468 159.302C59.3474 167.102 89.065 155.259 105.368 131.927L93.8917 123.908ZM105.158 122.533C104.192 122.196 103.238 121.834 102.297 121.446L96.9625 134.39C98.1423 134.876 99.3384 135.331 100.55 135.753L105.158 122.533ZM61.3457 168.164C81.8854 164.775 100.009 151.521 109.181 132.137L96.5266 126.149C89.3596 141.296 75.1664 151.695 59.0666 154.351L61.3457 168.164ZM60.37 162.22C61.0862 162.412 62.1082 163.032 62.7165 164.224C63.246 165.261 63.1667 166.147 63.0677 166.568C62.9019 167.273 62.3569 167.997 61.3457 168.164L59.0666 154.351C53.8399 155.213 50.4073 159.247 49.4393 163.363C48.9394 165.49 48.9804 168.107 50.2464 170.587C51.5912 173.223 53.9658 174.997 56.7454 175.742L60.37 162.22ZM118.061 143.446C104.644 160.036 82.2737 168.091 60.3701 162.22L56.7454 175.742C84.187 183.098 112.178 172.984 128.946 152.249L118.061 143.446ZM186.637 162.22C164.733 168.091 142.363 160.036 128.946 143.446L118.061 152.249C134.829 172.984 162.82 183.098 190.261 175.742L186.637 162.22ZM185.661 168.164C184.65 167.997 184.105 167.273 183.939 166.568C183.84 166.147 183.761 165.261 184.29 164.224C184.899 163.032 185.921 162.412 186.637 162.22L190.261 175.742C193.041 174.997 195.416 173.223 196.76 170.587C198.026 168.107 198.067 165.49 197.567 163.363C196.6 159.247 193.167 155.213 187.94 154.351L185.661 168.164ZM137.816 132.117C146.985 151.512 165.114 164.774 185.661 168.164L187.94 154.351C171.835 151.694 157.637 141.288 150.473 126.133L137.816 132.117Z" fill="black" mask="url(#path-2-outside-1)"/>
<path fill-rule="evenodd" clip-rule="evenodd" d="M110.716 98.7148C110.976 96.3799 109.415 94.2712 107.145 93.6633L88.4227 88.648C85.2159 87.789 82.0775 90.2433 81.7455 93.5464C81.4371 96.6146 80.8777 99.6985 80.0535 102.774C74.0047 125.342 55.3711 141.177 33.7278 144.752C29.5046 145.45 27.9422 151.382 32.0765 152.489V152.489C65.5544 161.456 99.9688 141.584 108.943 108.103C109.782 104.975 110.369 101.838 110.716 98.7148Z" fill="#A1D900"/>
<path fill-rule="evenodd" clip-rule="evenodd" d="M137.266 115.179C137.526 112.844 135.964 110.736 133.695 110.128L114.972 105.112C111.766 104.253 108.627 106.708 108.295 110.011C107.987 113.079 107.428 116.163 106.603 119.238C100.555 141.806 81.9209 157.642 60.2776 161.217C56.0544 161.914 54.492 167.846 58.6263 168.954V168.954C92.1042 177.921 126.519 158.048 135.493 124.567C136.332 121.439 136.918 118.302 137.266 115.179Z" fill="#A1D900"/>
<path fill-rule="evenodd" clip-rule="evenodd" d="M136.284 98.7148C136.024 96.3799 137.585 94.2712 139.855 93.6633L158.577 88.648C161.784 87.789 164.922 90.2433 165.254 93.5464C165.563 96.6146 166.122 99.6985 166.947 102.774C172.995 125.342 191.629 141.177 213.272 144.752C217.495 145.45 219.058 151.382 214.923 152.489V152.489C181.446 161.456 147.031 141.584 138.057 108.103C137.218 104.975 136.631 101.838 136.284 98.7148Z" fill="#A1D900"/>
<path fill-rule="evenodd" clip-rule="evenodd" d="M109.734 115.179C109.474 112.844 111.036 110.736 113.305 110.128L132.028 105.112C135.234 104.253 138.373 106.708 138.705 110.011C139.013 113.079 139.572 116.163 140.397 119.238C146.445 141.806 165.079 157.642 186.722 161.217C190.946 161.914 192.508 167.846 188.374 168.954V168.954C154.896 177.921 120.481 158.048 111.507 124.567C110.668 121.439 110.082 118.302 109.734 115.179Z" fill="#A1D900"/>
<rect width="8.29787" height="12.4517" rx="4.14894" transform="matrix(-1 0 0 1 111.298 66.0039)" fill="black"/>
<rect width="8.29788" height="12.4517" rx="4.14894" transform="matrix(-1 0 0 1 162.745 66.0039)" fill="black"/>
<rect width="8.29787" height="12.4517" rx="4.14893" transform="matrix(-1 0 0 1 136.191 49.4448)" fill="black"/>
<path d="M142.454 103.505C142.454 103.505 141.349 92.3197 131.924 92.3197C122.5 92.3197 120.963 104.212 120.963 104.212" stroke="black" stroke-width="7" stroke-linecap="round" stroke-linejoin="round"/>
<path d="M145.999 30.1933L132 38.7987L117.963 30.193" stroke="black" stroke-width="7" stroke-linecap="round" stroke-linejoin="round"/>
</svg>
