<svg width="217" height="193" viewBox="0 0 217 193" fill="none" xmlns="http://www.w3.org/2000/svg">
<mask id="path-1-outside-1" maskUnits="userSpaceOnUse" x="12.6377" y="0" width="202" height="178" fill="black">
<rect fill="white" x="12.6377" width="202" height="178"/>
<path fill-rule="evenodd" clip-rule="evenodd" d="M134.152 128.788C135.239 128.408 136.311 127.999 137.369 127.562C152.038 148.564 178.781 159.212 204.952 152.201C209.078 151.095 207.519 145.174 203.304 144.478C184.634 141.395 168.207 129.17 160.195 111.366C170.096 100.288 176.114 85.6671 176.114 69.6406C176.114 35.0452 148.069 7 113.474 7C78.8781 7 50.8329 35.0452 50.8329 69.6406C50.8329 85.6885 56.8677 100.327 66.7916 111.41C58.772 129.191 42.3577 141.398 23.703 144.478C19.4878 145.174 17.9283 151.095 22.0548 152.201C48.2173 159.209 74.9526 148.57 89.6239 127.581C90.6837 128.018 91.758 128.426 92.846 128.806C84.675 146.064 68.5182 157.888 50.2015 160.913C45.9863 161.609 44.4269 167.53 48.5533 168.635C73.2273 175.245 98.4107 166.158 113.503 147.496C128.596 166.158 153.779 175.245 178.453 168.635C182.58 167.53 181.02 161.609 176.805 160.913C158.482 157.887 142.321 146.056 134.152 128.788Z"/>
</mask>
<path d="M137.369 127.562L143.108 123.554L139.891 118.947L134.697 121.092L137.369 127.562ZM134.152 128.788L131.842 122.18L124.498 124.747L127.825 131.781L134.152 128.788ZM204.952 152.201L206.763 158.962L206.763 158.962L204.952 152.201ZM203.304 144.478L204.444 137.572L204.444 137.572L203.304 144.478ZM160.195 111.366L154.976 106.702L151.946 110.092L153.812 114.239L160.195 111.366ZM66.7916 111.41L73.1726 114.288L75.0458 110.135L72.0066 106.741L66.7916 111.41ZM23.703 144.478L22.5624 137.572L22.5624 137.572L23.703 144.478ZM22.0548 152.201L20.2434 158.962L20.2434 158.962L22.0548 152.201ZM89.6239 127.581L92.2908 121.109L87.1019 118.971L83.8866 123.571L89.6239 127.581ZM92.846 128.806L99.1727 131.801L102.506 124.76L95.1503 122.196L92.846 128.806ZM50.2015 160.913L49.061 154.006L49.061 154.006L50.2015 160.913ZM48.5533 168.635L50.3647 161.873L50.3647 161.873L48.5533 168.635ZM113.503 147.496L118.946 143.094L113.503 136.364L108.061 143.094L113.503 147.496ZM178.453 168.635L176.642 161.873L176.642 161.873L178.453 168.635ZM176.805 160.913L177.946 154.006L177.946 154.006L176.805 160.913ZM134.697 121.092C133.758 121.48 132.806 121.843 131.842 122.18L136.462 135.396C137.671 134.973 138.864 134.518 140.042 134.032L134.697 121.092ZM203.141 145.439C179.906 151.663 156.144 142.219 143.108 123.554L131.631 131.57C147.931 154.909 177.657 166.76 206.763 158.962L203.141 145.439ZM202.163 151.385C201.153 151.218 200.608 150.494 200.442 149.788C200.343 149.367 200.263 148.481 200.793 147.443C201.402 146.251 202.424 145.631 203.141 145.439L206.763 158.962C209.543 158.218 211.918 156.443 213.263 153.808C214.529 151.327 214.57 148.71 214.07 146.584C213.102 142.467 209.67 138.435 204.444 137.572L202.163 151.385ZM153.812 114.239C162.807 134.228 181.232 147.928 202.163 151.385L204.444 137.572C188.035 134.862 173.607 124.112 166.579 108.493L153.812 114.239ZM169.114 69.6406C169.114 83.8807 163.774 96.8568 154.976 106.702L165.415 116.031C176.417 103.719 183.114 87.4536 183.114 69.6406H169.114ZM113.474 14C144.203 14 169.114 38.9111 169.114 69.6406H183.114C183.114 31.1792 151.935 0 113.474 0V14ZM57.8329 69.6406C57.8329 38.9111 82.7441 14 113.474 14V0C75.0121 0 43.8329 31.1792 43.8329 69.6406H57.8329ZM72.0066 106.741C63.1875 96.8914 57.8329 83.8997 57.8329 69.6406H43.8329C43.8329 87.4774 50.5478 103.762 61.5766 116.08L72.0066 106.741ZM24.8435 151.385C45.7571 147.931 64.1687 134.251 73.1726 114.288L60.4106 108.532C53.3754 124.13 38.9582 134.864 22.5624 137.572L24.8435 151.385ZM23.8662 145.439C24.5824 145.631 25.6049 146.251 26.2135 147.443C26.7433 148.481 26.6639 149.367 26.565 149.788C26.399 150.494 25.8541 151.218 24.8435 151.385L22.5624 137.572C17.3367 138.435 13.9044 142.467 12.9366 146.584C12.4367 148.71 12.4777 151.327 13.7439 153.808C15.089 156.443 17.464 158.218 20.2434 158.962L23.8662 145.439ZM83.8866 123.571C70.8479 142.224 47.0936 151.662 23.8661 145.439L20.2434 158.962C49.3411 166.757 79.0573 154.916 95.3613 131.591L83.8866 123.571ZM95.1503 122.196C94.1848 121.859 93.2314 121.497 92.2908 121.109L86.957 134.053C88.1359 134.539 89.3312 134.993 90.5417 135.415L95.1503 122.196ZM51.342 167.819C71.8774 164.428 89.999 151.178 99.1727 131.801L86.5192 125.81C79.351 140.951 65.159 151.348 49.061 154.006L51.342 167.819ZM50.3647 161.873C51.0809 162.065 52.1034 162.685 52.712 163.878C53.2419 164.916 53.1625 165.801 53.0635 166.222C52.8976 166.928 52.3526 167.652 51.342 167.819L49.061 154.006C43.8352 154.869 40.4029 158.902 39.4351 163.018C38.9352 165.145 38.9762 167.761 40.2425 170.242C41.5875 172.878 43.9625 174.652 46.742 175.397L50.3647 161.873ZM108.061 143.094C94.6435 159.684 72.2701 167.742 50.3647 161.873L46.742 175.397C74.1845 182.748 102.178 172.632 118.946 151.898L108.061 143.094ZM176.642 161.873C154.737 167.742 132.363 159.684 118.946 143.094L108.061 151.898C124.829 172.632 152.822 182.748 180.265 175.397L176.642 161.873ZM175.665 167.819C174.654 167.652 174.109 166.928 173.943 166.222C173.844 165.801 173.765 164.916 174.295 163.878C174.903 162.685 175.926 162.065 176.642 161.873L180.265 175.397C183.044 174.652 185.419 172.878 186.764 170.242C188.031 167.761 188.072 165.145 187.572 163.018C186.604 158.902 183.172 154.869 177.946 154.006L175.665 167.819ZM127.825 131.781C136.995 151.168 155.122 164.427 175.665 167.819L177.946 154.006C161.842 151.347 147.646 140.944 140.48 125.794L127.825 131.781Z" fill="black" mask="url(#path-1-outside-1)"/>
<circle cx="113.5" cy="69.6416" r="62.5" fill="#A1D900"/>
<path fill-rule="evenodd" clip-rule="evenodd" d="M100.711 98.3985C100.971 96.0633 99.4101 93.9542 97.1402 93.3466L78.4166 88.3344C75.2104 87.4762 72.0723 89.9296 71.7391 93.2317C71.43 96.2948 70.8707 99.3734 70.0473 102.444C63.9964 125.004 45.3637 140.836 23.723 144.414C19.5002 145.112 17.9381 151.043 22.072 152.15V152.15C55.5475 161.111 89.9619 141.243 98.9387 107.772C99.7765 104.649 100.363 101.517 100.711 98.3985Z" fill="#A1D900"/>
<path fill-rule="evenodd" clip-rule="evenodd" d="M127.261 114.856C127.521 112.521 125.96 110.412 123.69 109.804L104.966 104.792C101.76 103.934 98.6221 106.387 98.2889 109.689C97.9798 112.752 97.4206 115.831 96.5971 118.901C90.5462 141.461 71.9135 157.294 50.2728 160.871C46.05 161.57 44.4879 167.501 48.6218 168.607V168.607C82.0973 177.568 116.512 157.7 125.489 124.23C126.326 121.106 126.913 117.974 127.261 114.856Z" fill="#A1D900"/>
<path fill-rule="evenodd" clip-rule="evenodd" d="M126.289 98.3985C126.029 96.0633 127.59 93.9542 129.86 93.3466L148.583 88.3344C151.79 87.4762 154.928 89.9296 155.261 93.2317C155.57 96.2948 156.129 99.3734 156.953 102.444C163.004 125.004 181.636 140.836 203.277 144.414C207.5 145.112 209.062 151.043 204.928 152.15V152.15C171.453 161.111 137.038 141.243 128.061 107.772C127.223 104.649 126.637 101.517 126.289 98.3985Z" fill="#A1D900"/>
<path fill-rule="evenodd" clip-rule="evenodd" d="M99.7392 114.856C99.4788 112.521 101.04 110.412 103.31 109.804L122.034 104.792C125.24 103.934 128.378 106.387 128.711 109.689C129.02 112.752 129.579 115.831 130.403 118.901C136.454 141.461 155.086 157.294 176.727 160.871C180.95 161.57 182.512 167.501 178.378 168.607V168.607C144.903 177.568 110.488 157.7 101.511 124.23C100.674 121.106 100.087 117.974 99.7392 114.856Z" fill="#A1D900"/>
<rect width="8.29787" height="12.4468" rx="4.14894" transform="matrix(-1 0 0 1 101.298 65.6943)" fill="black"/>
<rect width="8.29787" height="12.4468" rx="4.14894" transform="matrix(-1 0 0 1 152.745 65.6943)" fill="black"/>
<rect width="8.29787" height="12.4468" rx="4.14894" transform="matrix(-1 0 0 1 126.191 49.1416)" fill="black"/>
<path d="M132.454 103.18C132.454 103.18 131.349 91.9993 121.924 91.9993C112.5 91.9993 110.963 103.887 110.963 103.887" stroke="black" stroke-width="7" stroke-linecap="round" stroke-linejoin="round"/>
<path d="M135.999 29.8976L122 38.4996L107.963 29.8973" stroke="black" stroke-width="7" stroke-linecap="round" stroke-linejoin="round"/>
</svg>
