<svg width="207" height="203" viewBox="0 0 207 203" fill="none" xmlns="http://www.w3.org/2000/svg">
<circle cx="103.5" cy="69.6416" r="62.5" fill="#A1D900"/>
<path fill-rule="evenodd" clip-rule="evenodd" d="M90.711 108.398C90.9714 106.063 89.4101 103.954 87.1402 103.346L68.4166 98.3342C65.2104 97.4759 62.0723 99.9294 61.7391 103.231C61.43 106.295 60.8707 109.373 60.0473 112.443C53.9964 135.004 35.3637 150.836 13.723 154.414C9.50019 155.112 7.9381 161.043 12.072 162.15V162.15C45.5475 171.111 79.9619 151.242 88.9387 117.772C89.7765 114.648 90.3631 111.517 90.711 108.398Z" fill="#A1D900"/>
<path fill-rule="evenodd" clip-rule="evenodd" d="M117.261 124.856C117.521 122.521 115.96 120.412 113.69 119.804L94.9664 114.792C91.7602 113.934 88.6221 116.387 88.2889 119.689C87.9798 122.753 87.4206 125.831 86.5971 128.901C80.5462 151.462 61.9135 167.294 40.2728 170.872C36.05 171.57 34.4879 177.501 38.6218 178.608V178.608C72.0973 187.569 106.512 167.7 115.489 134.23C116.326 131.106 116.913 127.975 117.261 124.856Z" fill="#A1D900"/>
<path fill-rule="evenodd" clip-rule="evenodd" d="M116.289 108.398C116.029 106.063 117.59 103.954 119.86 103.346L138.583 98.3342C141.79 97.4759 144.928 99.9294 145.261 103.231C145.57 106.295 146.129 109.373 146.953 112.443C153.004 135.004 171.636 150.836 193.277 154.414C197.5 155.112 199.062 161.043 194.928 162.15V162.15C161.453 171.111 127.038 151.242 118.061 117.772C117.223 114.648 116.637 111.517 116.289 108.398Z" fill="#A1D900"/>
<path fill-rule="evenodd" clip-rule="evenodd" d="M89.7392 124.856C89.4788 122.521 91.0401 120.412 93.3099 119.804L112.034 114.792C115.24 113.934 118.378 116.387 118.711 119.689C119.02 122.753 119.579 125.831 120.403 128.901C126.454 151.462 145.086 167.294 166.727 170.872C170.95 171.57 172.512 177.501 168.378 178.608V178.608C134.903 187.569 100.488 167.7 91.5115 134.23C90.6737 131.106 90.0871 127.975 89.7392 124.856Z" fill="#A1D900"/>
<path d="M101.565 89.7568C100.065 98.2568 103.5 106.142 111 109.142L117.565 95.2568C111 93.1416 101.565 89.7568 101.565 89.7568Z" stroke="black" stroke-width="7" stroke-linecap="round" stroke-linejoin="round"/>
<path d="M94 73C94 69.134 90.866 66 87 66C83.134 66 80 69.134 80 73" stroke="black" stroke-width="7" stroke-linecap="round" stroke-linejoin="round"/>
<path d="M120 60C120 56.134 116.866 53 113 53C109.134 53 106 56.134 106 60" stroke="black" stroke-width="7" stroke-linecap="round" stroke-linejoin="round"/>
<path d="M146 75C146 71.134 142.866 68 139 68C135.134 68 132 71.134 132 75" stroke="black" stroke-width="7" stroke-linecap="round" stroke-linejoin="round"/>
<mask id="path-10-outside-1" maskUnits="userSpaceOnUse" x="2.65137" y="0.141602" width="202" height="188" fill="black">
<rect fill="white" x="2.65137" y="0.141602" width="202" height="188"/>
<path fill-rule="evenodd" clip-rule="evenodd" d="M120.641 129.762C121.219 129.598 121.793 129.425 122.364 129.244C135.312 155.609 165.483 170.032 194.928 162.15C199.062 161.043 197.5 155.112 193.277 154.414C172.171 150.925 153.927 135.779 147.424 114.104C158.893 102.773 166 87.0375 166 69.6416C166 35.1238 138.018 7.1416 103.5 7.1416C68.9827 7.1416 41.0005 35.1238 41.0005 69.6416C41.0005 87.0375 48.1075 102.773 59.5765 114.104C53.0741 135.779 34.8296 150.925 13.7239 154.414C9.50108 155.112 7.93899 161.043 12.0729 162.15C41.5176 170.032 71.6887 155.609 84.6365 129.244C85.2075 129.425 85.7819 129.598 86.3598 129.762C80.0706 151.864 61.6379 167.34 40.2734 170.872C36.0506 171.57 34.4885 177.501 38.6224 178.607C63.2356 185.196 88.3564 176.199 103.5 157.67C118.645 176.199 143.765 185.196 168.379 178.607C172.512 177.501 170.95 171.57 166.728 170.872C145.363 167.34 126.93 151.864 120.641 129.762Z"/>
</mask>
<path d="M122.364 129.244L128.648 126.159C127.122 123.052 123.554 121.527 120.254 122.57L122.364 129.244ZM120.641 129.762L118.725 123.029C115.007 124.087 112.85 127.959 113.908 131.678L120.641 129.762ZM194.928 162.15L196.738 168.912L196.738 168.912L194.928 162.15ZM193.277 154.414L194.419 147.508L194.419 147.508L193.277 154.414ZM147.424 114.104L142.505 109.125C140.662 110.945 139.975 113.635 140.72 116.116L147.424 114.104ZM59.5765 114.104L66.2812 116.116C67.0256 113.635 66.3389 110.945 64.4961 109.125L59.5765 114.104ZM13.7239 154.414L12.5822 147.508L12.5822 147.508L13.7239 154.414ZM12.0729 162.15L10.2628 168.912L10.2628 168.912L12.0729 162.15ZM84.6365 129.244L86.747 122.57C83.4467 121.527 79.8792 123.052 78.3533 126.159L84.6365 129.244ZM86.3598 129.762L93.0925 131.678C94.1506 127.959 91.9941 124.087 88.2757 123.029L86.3598 129.762ZM40.2734 170.872L39.1317 163.965L39.1317 163.965L40.2734 170.872ZM38.6224 178.607L36.8123 185.369L36.8123 185.369L38.6224 178.607ZM103.5 157.67L108.921 153.24C107.591 151.614 105.601 150.67 103.5 150.67C101.4 150.67 99.4099 151.614 98.0804 153.24L103.5 157.67ZM168.379 178.607L166.568 171.846L166.568 171.846L168.379 178.607ZM166.728 170.872L167.869 163.965L167.869 163.965L166.728 170.872ZM120.254 122.57C119.748 122.73 119.238 122.883 118.725 123.029L122.557 136.495C123.2 136.312 123.839 136.12 124.475 135.919L120.254 122.57ZM193.118 155.388C166.965 162.389 140.15 149.581 128.648 126.159L116.081 132.33C130.474 161.638 164.002 177.675 196.738 168.912L193.118 155.388ZM192.135 161.32C191.13 161.154 190.587 160.433 190.422 159.731C190.323 159.311 190.244 158.426 190.773 157.389C191.382 156.198 192.404 155.579 193.118 155.388L196.738 168.912C199.52 168.167 201.896 166.392 203.242 163.755C204.51 161.273 204.551 158.654 204.051 156.527C203.082 152.407 199.647 148.372 194.419 147.508L192.135 161.32ZM140.72 116.116C148.016 140.438 168.484 157.41 192.135 161.32L194.419 147.508C175.859 144.439 159.837 131.12 154.129 112.093L140.72 116.116ZM159 69.6416C159 85.0908 152.697 99.0549 142.505 109.125L152.344 119.084C165.09 106.492 173 88.9842 173 69.6416H159ZM103.5 14.1416C134.152 14.1416 159 38.9898 159 69.6416H173C173 31.2578 141.884 0.141602 103.5 0.141602V14.1416ZM48.0005 69.6416C48.0005 38.9898 72.8487 14.1416 103.5 14.1416V0.141602C65.1167 0.141602 34.0005 31.2578 34.0005 69.6416H48.0005ZM64.4961 109.125C54.3037 99.0549 48.0005 85.0908 48.0005 69.6416H34.0005C34.0005 88.9842 41.9114 106.492 54.6568 119.084L64.4961 109.125ZM14.8656 161.32C38.5168 157.41 58.9848 140.438 66.2812 116.116L52.8717 112.093C47.1635 131.12 31.1424 144.439 12.5822 147.508L14.8656 161.32ZM13.883 155.388C14.5974 155.579 15.6192 156.198 16.2275 157.389C16.757 158.426 16.6774 159.311 16.5788 159.731C16.4136 160.433 15.8714 161.154 14.8656 161.32L12.5822 147.508C7.35356 148.372 3.91893 152.407 2.95041 156.527C2.45016 158.654 2.49127 161.273 3.75856 163.755C5.10472 166.392 7.48142 168.167 10.2628 168.912L13.883 155.388ZM78.3533 126.159C66.8508 149.581 40.0361 162.389 13.883 155.388L10.2628 168.912C42.999 177.675 76.5267 161.638 90.9197 132.33L78.3533 126.159ZM88.2757 123.029C87.763 122.883 87.2534 122.73 86.747 122.57L82.5261 135.919C83.1615 136.12 83.8009 136.312 84.4439 136.495L88.2757 123.029ZM41.4151 177.778C65.3561 173.82 86.0358 156.477 93.0925 131.678L79.6271 127.846C74.1053 147.251 57.9197 160.859 39.1317 163.965L41.4151 177.778ZM40.4325 171.846C41.1469 172.037 42.1687 172.655 42.777 173.847C43.3065 174.884 43.2269 175.769 43.1283 176.188C42.9631 176.891 42.4209 177.612 41.4151 177.778L39.1317 163.965C33.9031 164.83 30.4684 168.865 29.4999 172.984C28.9997 175.112 29.0408 177.731 30.3081 180.213C31.6542 182.85 34.0309 184.625 36.8123 185.369L40.4325 171.846ZM98.0804 153.24C84.614 169.717 62.29 177.697 40.4325 171.846L36.8123 185.369C64.1812 192.696 92.0988 182.682 108.921 162.1L98.0804 153.24ZM166.568 171.846C144.711 177.697 122.387 169.717 108.921 153.24L98.0804 162.1C114.902 182.682 142.82 192.696 170.189 185.369L166.568 171.846ZM165.586 177.778C164.58 177.612 164.038 176.891 163.873 176.188C163.774 175.769 163.694 174.884 164.224 173.847C164.832 172.655 165.854 172.037 166.568 171.846L170.189 185.369C172.97 184.625 175.347 182.85 176.693 180.213C177.96 177.731 178.001 175.112 177.501 172.984C176.533 168.865 173.098 164.83 167.869 163.965L165.586 177.778ZM113.908 131.678C120.965 156.477 141.645 173.82 165.586 177.778L167.869 163.965C149.081 160.859 132.896 147.251 127.374 127.846L113.908 131.678Z" fill="black" mask="url(#path-10-outside-1)"/>
</svg>
