<svg width="247" height="205" viewBox="0 0 247 205" fill="none" xmlns="http://www.w3.org/2000/svg">
<ellipse cx="123.5" cy="69.7657" rx="62.5" ry="62.6114" fill="#A1D900"/>
<mask id="path-2-outside-1" maskUnits="userSpaceOnUse" x="22.6377" y="0.0126953" width="202" height="179" fill="black">
<rect fill="white" x="22.6377" y="0.0126953" width="202" height="179"/>
<path fill-rule="evenodd" clip-rule="evenodd" d="M144.116 129.03C145.206 128.649 146.282 128.239 147.343 127.8C162.007 148.83 188.753 159.484 214.932 152.453C219.061 151.344 217.5 145.419 213.283 144.725C194.605 141.653 178.176 129.421 170.168 111.596C180.084 100.494 186.114 85.8349 186.114 69.765C186.114 35.1078 158.069 7.0127 123.474 7.0127C88.8781 7.0127 60.833 35.1078 60.833 69.765C60.833 85.8563 66.8788 100.533 76.8191 111.64C68.8036 129.441 52.3864 141.655 33.7239 144.725C29.5071 145.419 27.9463 151.344 32.0745 152.453C58.2461 159.482 84.9836 148.837 99.65 127.819C100.713 128.258 101.791 128.667 102.882 129.048C94.7175 146.337 78.553 158.173 60.2224 161.189C56.0056 161.882 54.4448 167.807 58.573 168.916C83.2409 175.542 108.412 166.465 123.503 147.802C138.595 166.465 163.766 175.542 188.434 168.916C192.562 167.807 191.001 161.882 186.784 161.189C168.447 158.172 152.278 146.328 144.116 129.03Z"/>
</mask>
<path d="M147.343 127.8L153.085 123.797L149.868 119.183L144.67 121.331L147.343 127.8ZM144.116 129.03L141.807 122.422L134.469 124.987L137.786 132.017L144.116 129.03ZM214.932 152.453L216.748 159.213L216.748 159.213L214.932 152.453ZM213.283 144.725L212.147 151.632L212.147 151.632L213.283 144.725ZM170.168 111.596L164.947 106.932L161.921 110.32L163.783 114.464L170.168 111.596ZM76.8191 111.64L83.2019 114.514L85.0707 110.363L82.0352 106.972L76.8191 111.64ZM33.7239 144.725L34.86 151.632L34.86 151.632L33.7239 144.725ZM32.0745 152.453L30.2586 159.213L30.2586 159.213L32.0745 152.453ZM99.65 127.819L102.318 121.348L97.1243 119.207L93.9095 123.814L99.65 127.819ZM102.882 129.048L109.212 132.037L112.535 124.999L105.186 122.438L102.882 129.048ZM60.2224 161.189L59.0863 154.281L59.0863 154.281L60.2224 161.189ZM58.573 168.916L56.7572 175.676L56.7572 175.676L58.573 168.916ZM123.503 147.802L128.946 143.4L123.503 136.669L118.06 143.4L123.503 147.802ZM188.434 168.916L186.618 162.156L186.618 162.156L188.434 168.916ZM186.784 161.189L187.92 154.281L187.92 154.281L186.784 161.189ZM144.67 121.331C143.728 121.72 142.774 122.084 141.807 122.422L146.426 135.638C147.639 135.214 148.836 134.758 150.017 134.27L144.67 121.331ZM213.116 145.692C189.877 151.934 166.117 142.486 153.085 123.797L141.602 131.804C157.897 155.174 187.628 167.035 216.748 159.213L213.116 145.692ZM212.147 151.632C211.133 151.466 210.588 150.74 210.423 150.035C210.324 149.615 210.245 148.731 210.773 147.695C211.38 146.504 212.401 145.884 213.116 145.692L216.748 159.213C219.528 158.466 221.901 156.69 223.245 154.055C224.51 151.574 224.551 148.958 224.051 146.831C223.083 142.713 219.649 138.678 214.419 137.818L212.147 151.632ZM163.783 114.464C172.773 134.477 191.203 148.187 212.147 151.632L214.419 137.818C198.007 135.118 183.579 124.365 176.553 108.727L163.783 114.464ZM179.114 69.765C179.114 84.0505 173.761 97.065 164.947 106.932L175.388 116.259C186.408 103.923 193.114 87.6193 193.114 69.765H179.114ZM123.474 14.0127C154.191 14.0127 179.114 38.9621 179.114 69.765H193.114C193.114 31.2536 161.947 0.0126953 123.474 0.0126953V14.0127ZM67.833 69.765C67.833 38.9621 92.7558 14.0127 123.474 14.0127V0.0126953C85.0004 0.0126953 53.833 31.2536 53.833 69.765H67.833ZM82.0352 106.972C73.2001 97.0997 67.833 84.0695 67.833 69.765H53.833C53.833 87.6431 60.5575 103.966 71.603 116.308L82.0352 106.972ZM34.86 151.632C55.7866 148.19 74.203 134.5 83.2019 114.514L70.4362 108.766C63.4043 124.383 48.9861 135.121 32.5878 137.818L34.86 151.632ZM33.8904 145.692C34.6061 145.884 35.6265 146.504 36.2336 147.695C36.762 148.731 36.6828 149.615 36.584 150.035C36.4184 150.74 35.8734 151.466 34.86 151.632L32.5878 137.818C27.3576 138.678 23.9238 142.713 22.9557 146.831C22.4556 148.958 22.4966 151.574 23.7617 154.055C25.1054 156.69 27.4788 158.466 30.2586 159.213L33.8904 145.692ZM93.9095 123.814C80.8754 142.492 57.1226 151.932 33.8904 145.692L30.2586 159.213C59.3695 167.032 89.0919 155.181 105.39 131.825L93.9095 123.814ZM105.186 122.438C104.218 122.1 103.261 121.737 102.318 121.348L96.9819 134.291C98.1646 134.779 99.3637 135.235 100.578 135.658L105.186 122.438ZM61.3586 168.096C81.9136 164.715 100.045 151.447 109.212 132.037L96.5523 126.059C89.3895 141.226 75.1924 151.632 59.0863 154.281L61.3586 168.096ZM60.3889 162.156C61.1046 162.348 62.125 162.968 62.7321 164.158C63.2605 165.194 63.1813 166.079 63.0825 166.499C62.9169 167.203 62.3719 167.929 61.3586 168.096L59.0863 154.281C53.8561 155.142 50.4223 159.177 49.4542 163.294C48.9541 165.421 48.9951 168.038 50.2602 170.518C51.604 173.153 53.9774 174.93 56.7572 175.676L60.3889 162.156ZM118.06 143.4C104.645 159.991 82.2862 168.037 60.3889 162.156L56.7572 175.676C84.1956 183.047 112.179 172.939 128.946 152.203L118.06 143.4ZM186.618 162.156C164.721 168.037 142.362 159.991 128.946 143.4L118.06 152.203C134.828 172.939 162.811 183.047 190.25 175.676L186.618 162.156ZM185.648 168.096C184.635 167.929 184.09 167.203 183.924 166.499C183.825 166.079 183.746 165.194 184.275 164.158C184.882 162.968 185.902 162.348 186.618 162.156L190.25 175.676C193.029 174.93 195.403 173.153 196.747 170.518C198.012 168.038 198.053 165.421 197.553 163.294C196.584 159.177 193.151 155.142 187.92 154.281L185.648 168.096ZM137.786 132.017C146.949 151.438 165.086 164.714 185.648 168.096L187.92 154.281C171.809 151.631 157.607 141.219 150.447 126.043L137.786 132.017Z" fill="black" mask="url(#path-2-outside-1)"/>
<path fill-rule="evenodd" clip-rule="evenodd" d="M110.734 98.5459C110.991 96.212 109.43 94.1042 107.163 93.4954L88.4439 88.4693C85.2352 87.6078 82.0958 90.065 81.7679 93.3714C81.4617 96.4579 80.9022 99.5602 80.075 102.654C74.0338 125.248 55.3968 141.095 33.7445 144.661C29.52 145.356 27.9566 151.291 32.0923 152.401V152.401C65.5786 161.39 99.993 141.503 108.959 107.985C109.8 104.839 110.388 101.686 110.734 98.5459Z" fill="#A1D900"/>
<path fill-rule="evenodd" clip-rule="evenodd" d="M137.283 115.033C137.541 112.699 135.98 110.592 133.712 109.983L114.994 104.957C111.785 104.095 108.646 106.552 108.318 109.859C108.012 112.945 107.452 116.047 106.625 119.141C100.584 141.736 81.9466 157.582 60.2943 161.148C56.0698 161.843 54.5063 167.779 58.6421 168.889V168.889C92.1284 177.877 126.543 157.991 135.509 124.472C136.35 121.327 136.937 118.173 137.283 115.033Z" fill="#A1D900"/>
<path fill-rule="evenodd" clip-rule="evenodd" d="M136.266 98.5459C136.009 96.212 137.57 94.1042 139.837 93.4954L158.556 88.4693C161.765 87.6078 164.904 90.065 165.232 93.3714C165.538 96.4579 166.098 99.5602 166.925 102.654C172.966 125.248 191.603 141.095 213.256 144.661C217.48 145.356 219.043 151.291 214.908 152.401V152.401C181.421 161.39 147.007 141.503 138.041 107.985C137.2 104.839 136.612 101.686 136.266 98.5459Z" fill="#A1D900"/>
<path fill-rule="evenodd" clip-rule="evenodd" d="M109.717 115.033C109.459 112.699 111.02 110.592 113.288 109.983L132.006 104.957C135.215 104.095 138.354 106.552 138.682 109.859C138.988 112.945 139.548 116.047 140.375 119.141C146.416 141.736 165.053 157.582 186.706 161.148C190.93 161.843 192.494 167.779 188.358 168.889V168.889C154.872 177.877 120.457 157.991 111.491 124.472C110.65 121.327 110.063 118.173 109.717 115.033Z" fill="#A1D900"/>
<rect width="8.29787" height="12.469" rx="4.14894" transform="matrix(-1 0 0 1 111.298 65.811)" fill="black"/>
<rect width="8.29787" height="12.469" rx="4.14893" transform="matrix(-1 0 0 1 162.745 65.811)" fill="black"/>
<rect width="8.29788" height="12.469" rx="4.14894" transform="matrix(-1 0 0 1 136.191 49.229)" fill="black"/>
<path d="M121.5 95.4266C121.5 103.184 125 109.696 133.5 109.696L137.565 95.4266L121.5 95.4266Z" stroke="black" stroke-width="7" stroke-linecap="round" stroke-linejoin="round"/>
</svg>
