<svg width="196" height="25" viewBox="0 0 196 25" fill="none" xmlns="http://www.w3.org/2000/svg">
<path d="M33.2963 20.18C31.8563 20.18 30.5963 19.88 29.5163 19.28C28.4496 18.6666 27.6296 17.8133 27.0563 16.72C26.483 15.6133 26.1963 14.3266 26.1963 12.86C26.1963 11.4066 26.483 10.1333 27.0563 9.03996C27.6296 7.93329 28.4496 7.07996 29.5163 6.47996C30.5963 5.87996 31.8563 5.57996 33.2963 5.57996C34.243 5.57996 35.143 5.72662 35.9963 6.01996C36.863 6.29996 37.5696 6.69996 38.1163 7.21996L37.1363 9.45996C36.4963 8.97996 35.8696 8.63329 35.2563 8.41996C34.6563 8.19329 34.023 8.07996 33.3563 8.07996C32.0763 8.07996 31.0963 8.48662 30.4163 9.29996C29.7363 10.1133 29.3963 11.3 29.3963 12.86C29.3963 14.4333 29.7363 15.6333 30.4163 16.46C31.0963 17.2733 32.0763 17.68 33.3563 17.68C34.023 17.68 34.6563 17.5733 35.2563 17.36C35.8696 17.1333 36.4963 16.78 37.1363 16.3L38.1163 18.54C37.5696 19.06 36.863 19.4666 35.9963 19.76C35.143 20.04 34.243 20.18 33.2963 20.18ZM53.3276 20H50.0276L48.2076 15.26C48.061 14.8866 47.8343 14.6266 47.5276 14.48C47.2343 14.3333 46.861 14.26 46.4076 14.26H44.3876V20H41.3076V5.75996H47.6476C49.301 5.75996 50.5543 6.11996 51.4076 6.83996C52.261 7.55996 52.6876 8.59329 52.6876 9.93996C52.6876 10.8866 52.4343 11.7 51.9276 12.38C51.4343 13.06 50.721 13.5466 49.7876 13.84C50.6276 14.0133 51.2343 14.5933 51.6076 15.58L53.3276 20ZM47.1876 11.88C48.081 11.88 48.7343 11.7333 49.1476 11.44C49.561 11.1333 49.7676 10.66 49.7676 10.02C49.7676 9.37996 49.561 8.91329 49.1476 8.61996C48.7343 8.31329 48.081 8.15996 47.1876 8.15996H44.3476V11.88H47.1876ZM56.4678 5.75996H66.2878V8.17996H59.5078V11.54H65.8678V13.98H59.5078V17.58H66.2878V20H56.4678V5.75996ZM78.7651 16.84H72.1051L70.7451 20H67.6051L74.1451 5.75996H76.6651L83.2051 20H80.1251L78.7651 16.84ZM77.7451 14.46L75.4451 9.11996L73.1451 14.46H77.7451ZM86.9043 8.29996H82.444V5.75996H94.5243V8.29996H90.0643V20H86.9043V8.29996ZM97.1826 5.75996H100.303V20H97.1826V5.75996ZM117.739 5.75996L111.339 20H108.839L102.439 5.75996H105.679L110.119 16.1L114.599 5.75996H117.739ZM119.866 5.75996H129.686V8.17996H122.906V11.54H129.266V13.98H122.906V17.58H129.686V20H119.866V5.75996ZM139.464 5.75996H142.584V17.46H148.944V20H139.464V5.75996ZM161.351 16.84H154.691L153.331 20H150.191L156.731 5.75996H159.251L165.791 20H162.711L161.351 16.84ZM160.331 14.46L158.031 9.11996L155.731 14.46H160.331ZM177.147 12.64C177.973 12.88 178.613 13.3 179.067 13.9C179.52 14.5 179.747 15.2333 179.747 16.1C179.747 17.3 179.3 18.2533 178.407 18.96C177.513 19.6533 176.3 20 174.767 20H168.007V5.75996H174.567C176.047 5.75996 177.213 6.09329 178.067 6.75996C178.933 7.41329 179.367 8.31329 179.367 9.45996C179.367 10.2066 179.167 10.86 178.767 11.42C178.38 11.98 177.84 12.3866 177.147 12.64ZM171.047 11.56H174.047C174.847 11.56 175.44 11.4266 175.827 11.16C176.227 10.88 176.427 10.4533 176.427 9.87996C176.427 9.29329 176.227 8.85996 175.827 8.57996C175.44 8.29996 174.847 8.15996 174.047 8.15996H171.047V11.56ZM174.407 17.6C175.247 17.6 175.853 17.46 176.227 17.18C176.613 16.8866 176.807 16.4266 176.807 15.8C176.807 15.16 176.613 14.6933 176.227 14.4C175.853 14.1066 175.247 13.96 174.407 13.96H171.047V17.6H174.407ZM187.913 20.18C186.833 20.18 185.793 20.04 184.793 19.76C183.806 19.4666 182.986 19.06 182.333 18.54L183.333 16.3C184.706 17.26 186.239 17.74 187.933 17.74C188.839 17.74 189.533 17.6 190.013 17.32C190.506 17.0266 190.753 16.62 190.753 16.1C190.753 15.6466 190.526 15.2933 190.073 15.04C189.633 14.7733 188.853 14.52 187.733 14.28C186.479 14.0266 185.479 13.72 184.733 13.36C183.999 12.9866 183.459 12.54 183.113 12.02C182.779 11.4866 182.613 10.8266 182.613 10.04C182.613 9.18662 182.846 8.41996 183.313 7.73996C183.793 7.05996 184.459 6.53329 185.313 6.15996C186.166 5.77329 187.153 5.57996 188.273 5.57996C189.286 5.57996 190.259 5.72662 191.193 6.01996C192.126 6.31329 192.873 6.71329 193.433 7.21996L192.433 9.45996C191.179 8.49996 189.799 8.01996 188.293 8.01996C187.493 8.01996 186.853 8.17996 186.373 8.49996C185.893 8.81996 185.653 9.25329 185.653 9.79996C185.653 10.12 185.739 10.3866 185.913 10.6C186.099 10.8133 186.406 11.0066 186.833 11.18C187.259 11.34 187.866 11.5 188.653 11.66C190.479 12.06 191.793 12.58 192.593 13.22C193.406 13.86 193.813 14.7333 193.813 15.84C193.813 17.1733 193.293 18.2333 192.253 19.02C191.213 19.7933 189.766 20.18 187.913 20.18Z" fill="black"/>
<path d="M12.845 12.8324C13.7765 12.8324 14.552 13.5982 14.3356 14.5041C13.5825 17.6563 10.7469 20.0001 7.3639 20.0001C3.40534 20.0001 0.196289 16.791 0.196289 12.8324C0.196289 9.44943 2.53999 6.61388 5.69227 5.8608C6.5982 5.64438 7.3639 6.4199 7.3639 7.35133V11.1459C7.3639 12.0774 8.11898 12.8324 9.05041 12.8324H12.845Z" fill="black"/>
<path fill-rule="evenodd" clip-rule="evenodd" d="M9.7965 5C8.86441 5 8.10889 5.75557 8.10889 6.6876V10.4003C8.10889 11.3323 8.86441 12.0879 9.7965 12.0879H13.5092C14.4412 12.0879 15.1968 11.3323 15.1968 10.4003V10.2316C15.1968 9.2995 14.4412 8.544 13.5092 8.544H13.3404C12.4084 8.544 11.6528 7.7884 11.6528 6.85636V6.6876C11.6528 5.75557 10.8972 5 9.96525 5H9.7965Z" fill="black"/>
</svg>
