<svg width="66" height="39" viewBox="0 0 66 39" fill="none" xmlns="http://www.w3.org/2000/svg">
<path d="M33.2776 38.0563C43.5261 38.0563 51.8341 29.7483 51.8341 19.4998C51.8341 9.25137 43.5261 0.943359 33.2776 0.943359C23.0292 0.943359 14.7212 9.25137 14.7212 19.4998C14.7212 29.7483 23.0292 38.0563 33.2776 38.0563Z" fill="#DF3A1F"/>
<mask id="mask0" mask-type="alpha" maskUnits="userSpaceOnUse" x="14" y="0" width="38" height="39">
<path d="M33.2776 38.0563C43.5261 38.0563 51.8341 29.7483 51.8341 19.4998C51.8341 9.25137 43.5261 0.943359 33.2776 0.943359C23.0292 0.943359 14.7212 9.25137 14.7212 19.4998C14.7212 29.7483 23.0292 38.0563 33.2776 38.0563Z" fill="#DF3A1F"/>
</mask>
<g mask="url(#mask0)">
<rect x="10" y="20" width="7" height="25" rx="3.5" transform="rotate(-90 10 20)" fill="#FF8874"/>
<rect x="14" y="13" width="6" height="12" rx="3" transform="rotate(-90 14 13)" fill="#FF8874"/>
<rect x="32" y="36.2803" width="6.28037" height="21.8832" rx="3.14019" transform="rotate(-90 32 36.2803)" fill="#FF8874"/>
</g>
<path fill-rule="evenodd" clip-rule="evenodd" d="M51.745 22.5788C53.2817 22.0654 54.7089 21.5537 56.0084 21.0505C58.6574 20.0246 60.8777 18.9954 62.4248 18.0114C63.1847 17.5281 63.9133 16.9746 64.4384 16.343C64.9075 15.7789 65.6303 14.6381 65.1625 13.1735C64.6947 11.7088 63.3889 11.0241 62.6464 10.7323C61.8153 10.4056 60.8545 10.2319 59.9083 10.1321C57.9821 9.92892 55.4458 9.96893 52.5404 10.1917C51.6215 10.2622 50.6546 10.3519 49.6449 10.4603C50.4724 11.9352 51.1038 13.535 51.5035 15.2244C52.1341 15.1625 52.7437 15.109 53.3306 15.064C54.948 14.9399 56.3563 14.8835 57.5366 14.8878C56.517 15.3866 55.2637 15.9285 53.7891 16.4995C53.1777 16.7362 52.5342 16.9758 51.8606 17.2173C51.9526 17.9653 52 18.7271 52 19.5C52 20.549 51.9127 21.5775 51.745 22.5788ZM18.3901 30.1769C17.3822 28.7532 16.5705 27.1808 15.9944 25.4991C14.5662 25.6692 13.2242 25.8023 11.9833 25.8975C10.3659 26.0215 8.95767 26.078 7.77733 26.0737C8.79697 25.5748 10.0502 25.033 11.5248 24.4619C12.6876 24.0117 13.9667 23.5513 15.3474 23.0868C15.1195 21.9264 15 20.7272 15 19.5C15 18.9583 15.0233 18.422 15.0689 17.8921C12.9535 18.5695 11.0185 19.2476 9.30549 19.911C6.65648 20.9368 4.43617 21.9661 2.88914 22.95C2.12918 23.4334 1.40065 23.9869 0.87553 24.6184C0.406435 25.1826 -0.316372 26.3233 0.151402 27.788C0.619175 29.2526 1.92502 29.9374 2.66749 30.2292C3.49864 30.5558 4.45942 30.7295 5.40563 30.8293C7.33182 31.0325 9.86808 30.9925 12.7736 30.7697C14.4896 30.6381 16.3732 30.4395 18.3901 30.1769ZM4.93803 27.8736C4.93732 27.8737 4.94234 27.8658 4.95524 27.8495C4.94519 27.8653 4.93874 27.8735 4.93803 27.8736ZM61.0682 15.2555C61.0675 15.2557 61.0571 15.2514 61.039 15.2419C61.0598 15.2506 61.0689 15.2553 61.0682 15.2555ZM60.3587 13.1119C60.3687 13.0961 60.3752 13.088 60.3759 13.0878C60.3766 13.0877 60.3716 13.0956 60.3587 13.1119ZM4.27496 25.7195C4.25409 25.7108 4.24503 25.7061 4.24572 25.7059C4.2464 25.7057 4.25684 25.7101 4.27496 25.7195Z" fill="#304967"/>
<path fill-rule="evenodd" clip-rule="evenodd" d="M25.4417 26.2341C25.0602 25.0518 23.8634 24.3356 22.638 24.5401C18.6314 25.2085 15.0073 25.6656 11.9837 25.8975C9.19695 26.1112 7.03094 26.1244 5.58207 25.9716C4.84075 25.8934 4.4458 25.7868 4.29518 25.7276L4.27533 25.7196C4.25721 25.7101 4.24678 25.7058 4.24609 25.706C4.2454 25.7062 4.25446 25.7109 4.27533 25.7196V25.7196C4.87546 26.0329 4.46161 26.8192 3.80111 26.9677L2.5909 27.2397C1.27996 27.5344 0.54778 28.9721 1.66793 29.7142C2.0312 29.9548 2.38921 30.1197 2.66786 30.2292C3.49901 30.5559 4.45979 30.7296 5.40601 30.8294C7.33219 31.0326 9.86845 30.9926 12.7739 30.7697C15.8751 30.5319 19.5238 30.0752 23.5169 29.4178C24.9991 29.1737 25.903 27.6636 25.4417 26.2341V26.2341ZM47.0888 18.8031C45.7395 19.221 44.976 20.6556 45.4098 21.9999V21.9999C45.8255 23.2884 47.1905 24.016 48.4852 23.6201C51.2949 22.7609 53.8311 21.8938 56.0088 21.0505C58.6578 20.0247 60.8781 18.9954 62.4252 18.0115C63.1851 17.5281 63.9136 16.9746 64.4388 16.3431C64.5951 16.155 64.7797 15.9029 64.9389 15.5961C65.5907 14.3403 64.1042 13.4115 62.7238 13.7218L61.4508 14.008C60.7908 14.1564 59.9957 13.6826 60.359 13.1119V13.1119C60.3719 13.0957 60.377 13.0878 60.3763 13.0879C60.3756 13.088 60.3691 13.0962 60.359 13.1119L60.3466 13.1272C60.2515 13.2417 59.973 13.4996 59.3776 13.8783C58.2139 14.6185 56.3302 15.5156 53.7895 16.4995C51.8553 17.2486 49.5991 18.0255 47.0888 18.8031Z" fill="#304967"/>
<path d="M29.8376 14.3286L40.8239 20.6716L29.8376 27.0145L29.8376 14.3286Z" fill="white"/>
</svg>
