<svg width="57" height="65" viewBox="0 0 57 65" fill="none" xmlns="http://www.w3.org/2000/svg">
<rect x="8.61308" y="36.4141" width="44.4414" height="24.5846" rx="5" fill="black"/>
<mask id="mask0" mask-type="alpha" maskUnits="userSpaceOnUse" x="3" y="4" width="43" height="31">
<rect x="1.89258" y="24.6719" width="44.4414" height="13.4423" rx="5" transform="rotate(-30 1.89258 24.6719)" fill="white"/>
</mask>
<g mask="url(#mask0)">
<rect x="1.89258" y="24.6719" width="44.4414" height="13.4423" rx="5" transform="rotate(-30 1.89258 24.6719)" fill="white"/>
<path fill-rule="evenodd" clip-rule="evenodd" d="M36.3621 6.51669L30.5817 9.85396L32.9011 19.4333L38.6814 16.096L36.3621 6.51669ZM19.1944 17.1197L24.9747 13.7825L27.294 23.3618L21.5137 26.6991L19.1944 17.1197ZM8.75257 23.4418L14.5329 20.1045L16.8522 29.6838L11.0719 33.0211L8.75257 23.4418Z" fill="black"/>
</g>
<mask id="mask1" mask-type="alpha" maskUnits="userSpaceOnUse" x="9" y="33" width="45" height="15">
<rect x="9.55864" y="33.5781" width="44.4414" height="13.4423" rx="5" fill="white"/>
</mask>
<g mask="url(#mask1)">
<rect x="9.55864" y="33.5781" width="44.4414" height="13.4423" rx="5" fill="white"/>
<path fill-rule="evenodd" clip-rule="evenodd" d="M28.3173 38.3066L34.9918 38.3066L32.2108 47.7622H25.5362L28.3173 38.3066ZM15.9872 38.307H22.6617L19.8807 47.7626H13.2061L15.9872 38.307ZM48.1392 38.3066H41.4646L38.6836 47.7622L45.3581 47.7622L48.1392 38.3066Z" fill="black"/>
</g>
<path d="M4.39255 29.0008L1.36147 30.7508H1.36147L4.39255 29.0008ZM6.22268 22.1707L4.47268 19.1396H4.47268L6.22268 22.1707ZM6.11368 31.9819L3.08259 33.7319H3.08259L6.11368 31.9819ZM12.9438 33.812L14.6938 36.8431H14.6938L12.9438 33.812ZM42.7709 16.5913L41.0209 13.5602V13.5602L42.7709 16.5913ZM44.601 9.76121L47.6321 8.01121L47.6321 8.01121L44.601 9.76121ZM42.8799 6.78013L39.8488 8.53013L39.8488 8.53014L42.8799 6.78013ZM36.0498 4.95L37.7998 7.98109V7.98109L36.0498 4.95ZM7.42364 27.2508C7.00943 26.5334 7.25524 25.616 7.97268 25.2018L4.47268 19.1396C0.4072 21.4868 -0.985746 26.6853 1.36147 30.7508L7.42364 27.2508ZM9.14477 30.2319L7.42364 27.2508L1.36147 30.7508L3.08259 33.7319L9.14477 30.2319ZM11.1938 30.7809C10.4764 31.1951 9.55899 30.9493 9.14477 30.2319L3.08259 33.7319C5.4298 37.7974 10.6283 39.1903 14.6938 36.8431L11.1938 30.7809ZM41.0209 13.5602L11.1938 30.7809L14.6938 36.8431L44.5209 19.6224L41.0209 13.5602ZM41.5699 11.5112C41.9842 12.2286 41.7383 13.146 41.0209 13.5602L44.5209 19.6224C48.5864 17.2752 49.9793 12.0767 47.6321 8.01121L41.5699 11.5112ZM39.8488 8.53014L41.5699 11.5112L47.6321 8.01121L45.911 5.03013L39.8488 8.53014ZM37.7998 7.98109C38.5172 7.56688 39.4346 7.81269 39.8488 8.53013L45.911 5.03013C43.5638 0.96465 38.3653 -0.428298 34.2998 1.91892L37.7998 7.98109ZM7.97268 25.2018L37.7998 7.98109L34.2998 1.91892L4.47268 19.1396L7.97268 25.2018ZM12.1131 41.4136C12.1131 40.5851 12.7846 39.9136 13.6131 39.9136V32.9136C8.91864 32.9136 5.11306 36.7191 5.11306 41.4136H12.1131ZM12.1131 55.9981V41.4136H5.11306V55.9981H12.1131ZM13.6131 57.4981C12.7846 57.4981 12.1131 56.8266 12.1131 55.9981H5.11306C5.11306 60.6926 8.91863 64.4981 13.6131 64.4981V57.4981ZM48.0544 57.4981H13.6131V64.4981H48.0544V57.4981ZM49.5544 55.9981C49.5544 56.8266 48.8828 57.4981 48.0544 57.4981V64.4981C52.7488 64.4981 56.5544 60.6926 56.5544 55.9981H49.5544ZM49.5544 41.4136V55.9981H56.5544V41.4136H49.5544ZM48.0544 39.9136C48.8828 39.9136 49.5544 40.5851 49.5544 41.4136H56.5544C56.5544 36.7191 52.7488 32.9136 48.0544 32.9136V39.9136ZM13.6131 39.9136H48.0544V32.9136H13.6131V39.9136Z" fill="black"/>
</svg>
