<svg width="257" height="205" viewBox="0 0 257 205" fill="none" xmlns="http://www.w3.org/2000/svg">
<circle cx="128.5" cy="69.6416" r="62.5" fill="#A1D900"/>
<path fill-rule="evenodd" clip-rule="evenodd" d="M112.632 108.318C113.488 106.129 112.526 103.688 110.491 102.514L93.7021 92.8262C90.8273 91.1674 87.1611 92.725 85.9846 95.8284C84.8933 98.707 83.5563 101.536 81.9663 104.288C70.2825 124.514 48.187 134.985 26.3577 132.839C22.0981 132.421 19.0541 137.745 22.7608 139.884C52.7763 157.204 91.1603 146.92 108.494 116.913C110.112 114.113 111.489 111.24 112.632 108.318Z" fill="#A1D900"/>
<path fill-rule="evenodd" clip-rule="evenodd" d="M134.017 131.086C134.873 128.898 133.911 126.457 131.876 125.282L115.087 115.595C112.213 113.936 108.546 115.494 107.37 118.597C106.279 121.476 104.942 124.305 103.352 127.057C91.6678 147.282 69.5722 157.753 47.7429 155.608C43.4833 155.189 40.4394 160.514 44.146 162.653C74.1615 179.973 112.546 169.688 129.879 139.682C131.497 136.882 132.874 134.008 134.017 131.086Z" fill="#A1D900"/>
<path fill-rule="evenodd" clip-rule="evenodd" d="M144.368 108.318C143.512 106.129 144.474 103.688 146.509 102.514L163.298 92.8262C166.173 91.1674 169.839 92.725 171.015 95.8284C172.107 98.707 173.444 101.536 175.034 104.288C186.717 124.514 208.813 134.985 230.642 132.839C234.902 132.421 237.946 137.745 234.239 139.884C204.224 157.204 165.84 146.92 148.506 116.913C146.888 114.113 145.511 111.24 144.368 108.318Z" fill="#A1D900"/>
<path fill-rule="evenodd" clip-rule="evenodd" d="M122.983 131.086C122.127 128.898 123.089 126.457 125.124 125.282L141.913 115.595C144.787 113.936 148.454 115.494 149.63 118.597C150.721 121.476 152.058 124.305 153.648 127.057C165.332 147.282 187.428 157.753 209.257 155.608C213.517 155.189 216.561 160.514 212.854 162.653C182.838 179.973 144.454 169.688 127.121 139.682C125.503 136.882 124.126 134.008 122.983 131.086Z" fill="#A1D900"/>
<rect width="8.29787" height="12.4468" rx="4.14894" transform="matrix(-1 0 0 1 116.297 65.6943)" fill="black"/>
<rect width="8.29787" height="12.4468" rx="4.14894" transform="matrix(-1 0 0 1 167.744 65.6943)" fill="black"/>
<rect width="8.29787" height="12.4468" rx="4.14894" transform="matrix(-1 0 0 1 141.191 49.1416)" fill="black"/>
<path d="M126.565 89.7568C125.065 98.2568 128.5 106.142 136 109.142L142.565 95.2568C136 93.1416 126.565 89.7568 126.565 89.7568Z" stroke="black" stroke-width="7" stroke-linecap="round" stroke-linejoin="round"/>
<mask id="path-10-outside-1" maskUnits="userSpaceOnUse" x="13.0942" y="0.141602" width="230" height="178" fill="black">
<rect fill="white" x="13.0942" y="0.141602" width="230" height="178"/>
<path fill-rule="evenodd" clip-rule="evenodd" d="M153.565 126.912C154.07 126.691 154.572 126.463 155.07 126.229C174.32 148.875 207.58 155.267 234.239 139.884C237.946 137.745 234.902 132.42 230.642 132.839C210.316 134.837 189.759 125.896 177.592 108.327C185.989 97.6857 191 84.2489 191 69.6416C191 35.1238 163.018 7.1416 128.5 7.1416C93.982 7.1416 65.9998 35.1238 65.9998 69.6416C65.9998 84.2489 71.0109 97.6857 79.4078 108.327C67.2406 125.896 46.6836 134.837 26.3575 132.839C22.0978 132.42 19.0539 137.745 22.7605 139.884C49.4194 155.267 82.6799 148.875 101.93 126.229C102.428 126.463 102.929 126.691 103.434 126.912L103.351 127.057C91.6676 147.282 69.572 157.753 47.7427 155.608C43.4831 155.189 40.4391 160.514 44.1458 162.653C73.389 179.527 110.576 170.199 128.5 141.959C146.424 170.199 183.611 179.527 212.854 162.653C216.56 160.514 213.517 155.189 209.257 155.608C187.428 157.753 165.332 147.282 153.648 127.057L153.565 126.912Z"/>
</mask>
<path d="M155.07 126.229L160.403 121.695C158.356 119.288 154.95 118.55 152.09 119.895L155.07 126.229ZM153.565 126.912L150.755 120.501C148.933 121.3 147.537 122.836 146.915 124.726C146.294 126.616 146.506 128.681 147.499 130.405L153.565 126.912ZM234.239 139.884L230.741 133.821L230.741 133.821L234.239 139.884ZM230.642 132.839L229.958 125.873H229.957L230.642 132.839ZM177.592 108.327L172.097 103.991C170.191 106.406 170.085 109.783 171.837 112.312L177.592 108.327ZM79.4078 108.327L85.1625 112.312C86.9143 109.783 86.8089 106.406 84.903 103.991L79.4078 108.327ZM26.3575 132.839L27.0421 125.873H27.0421L26.3575 132.839ZM22.7605 139.884L26.2591 133.821L26.2591 133.821L22.7605 139.884ZM101.93 126.229L104.909 119.895C102.05 118.55 98.6434 119.288 96.5966 121.695L101.93 126.229ZM103.434 126.912L109.501 130.405C110.493 128.681 110.706 126.616 110.084 124.726C109.463 122.836 108.067 121.3 106.244 120.501L103.434 126.912ZM103.351 127.057L109.413 130.558L109.418 130.55L103.351 127.057ZM47.7427 155.608L48.4274 148.641L48.4274 148.641L47.7427 155.608ZM44.1458 162.653L40.6472 168.716L40.6472 168.716L44.1458 162.653ZM128.5 141.959L134.41 138.208C133.126 136.184 130.896 134.959 128.5 134.959C126.104 134.959 123.874 136.184 122.59 138.208L128.5 141.959ZM212.854 162.653L216.352 168.716L212.854 162.653ZM209.257 155.608L209.942 162.574H209.942L209.257 155.608ZM153.648 127.057L147.582 130.55L147.587 130.558L153.648 127.057ZM152.09 119.895C151.648 120.103 151.203 120.305 150.755 120.501L156.375 133.324C156.937 133.077 157.495 132.824 158.049 132.563L152.09 119.895ZM230.741 133.821C207.061 147.485 177.504 141.812 160.403 121.695L149.736 130.763C171.136 155.937 208.099 163.049 237.738 145.947L230.741 133.821ZM231.327 139.806C230.312 139.905 229.602 139.35 229.261 138.714C229.057 138.334 228.751 137.5 228.994 136.361C229.273 135.053 230.1 134.191 230.741 133.821L237.738 145.947C240.231 144.508 242.068 142.178 242.686 139.283C243.267 136.557 242.629 134.017 241.595 132.091C239.594 128.363 235.232 125.354 229.958 125.873L231.327 139.806ZM171.837 112.312C185.494 132.032 208.548 142.044 231.327 139.806L229.957 125.873C212.084 127.629 194.024 119.76 183.347 104.342L171.837 112.312ZM184 69.6416C184 82.62 179.554 94.5404 172.097 103.991L183.087 112.663C192.424 100.831 198 85.8778 198 69.6416H184ZM128.5 14.1416C159.152 14.1416 184 38.9898 184 69.6416H198C198 31.2578 166.884 0.141602 128.5 0.141602V14.1416ZM72.9998 69.6416C72.9998 38.9898 97.848 14.1416 128.5 14.1416V0.141602C90.116 0.141602 58.9998 31.2578 58.9998 69.6416H72.9998ZM84.903 103.991C77.4459 94.5405 72.9998 82.62 72.9998 69.6416H58.9998C58.9998 85.8777 64.5759 100.831 73.9126 112.663L84.903 103.991ZM25.6728 139.806C48.4515 142.044 71.506 132.032 85.1625 112.312L73.6531 104.342C62.9752 119.76 44.9157 127.629 27.0421 125.873L25.6728 139.806ZM26.2591 133.821C26.8996 134.191 27.7264 135.053 28.0057 136.361C28.2487 137.5 27.9428 138.334 27.739 138.714C27.3975 139.35 26.6873 139.905 25.6728 139.806L27.0421 125.873C21.7679 125.354 17.406 128.363 15.4043 132.091C14.3703 134.017 13.7323 136.557 14.314 139.283C14.9318 142.178 16.7681 144.508 19.262 145.947L26.2591 133.821ZM96.5966 121.695C79.4958 141.812 49.9383 147.485 26.2591 133.821L19.262 145.947C48.9005 163.049 85.8639 155.937 107.263 130.763L96.5966 121.695ZM106.244 120.501C105.796 120.305 105.351 120.103 104.909 119.895L98.9506 132.563C99.5046 132.824 100.063 133.077 100.625 133.324L106.244 120.501ZM109.418 130.55L109.501 130.405L97.3683 123.419L97.2851 123.564L109.418 130.55ZM47.058 162.574C71.5197 164.978 96.3046 153.249 109.413 130.558L97.29 123.555C87.0305 141.315 67.6242 150.528 48.4274 148.641L47.058 162.574ZM47.6443 156.59C48.2849 156.959 49.1117 157.821 49.3909 159.13C49.6339 160.268 49.3281 161.102 49.1243 161.482C48.7828 162.118 48.0726 162.674 47.0581 162.574L48.4274 148.641C43.1532 148.123 38.7913 151.131 36.7895 154.86C35.7556 156.786 35.1175 159.326 35.6992 162.051C36.3171 164.947 38.1533 167.277 40.6472 168.716L47.6443 156.59ZM122.59 138.208C106.667 163.294 73.6249 171.581 47.6443 156.59L40.6472 168.716C73.1531 187.472 114.484 177.104 134.41 145.71L122.59 138.208ZM209.355 156.59C183.375 171.581 150.332 163.294 134.41 138.208L122.59 145.71C142.516 177.104 183.846 187.472 216.352 168.716L209.355 156.59ZM209.942 162.574C208.927 162.674 208.217 162.118 207.875 161.482C207.672 161.102 207.366 160.268 207.609 159.13C207.888 157.821 208.715 156.959 209.355 156.59L216.352 168.716C218.846 167.277 220.683 164.947 221.3 162.051C221.882 159.326 221.244 156.786 220.21 154.86C218.208 151.131 213.846 148.123 208.572 148.641L209.942 162.574ZM147.587 130.558C160.695 153.249 185.48 164.978 209.942 162.574L208.572 148.641C189.375 150.528 169.969 141.315 159.71 123.555L147.587 130.558ZM147.499 130.405L147.582 130.55L159.715 123.564L159.632 123.42L147.499 130.405Z" fill="black" mask="url(#path-10-outside-1)"/>
</svg>
