<svg width="1284" height="745" viewBox="0 0 1284 745" fill="none" xmlns="http://www.w3.org/2000/svg">
<rect width="1666" height="1436" transform="translate(-174 -6)" fill="#304967"/>
<path d="M126 376C126 363 87.5 400 102 400C116.5 400 78 361 78 376C78 391 116 352 102 352C88 352 126 389 126 376Z" fill="white" fill-opacity="0.7"/>
<path d="M85 555C85 547.417 62.5417 569 71 569C79.4583 569 57 546.25 57 555C57 563.75 79.1667 541 71 541C62.8333 541 85 562.583 85 555Z" fill="white" fill-opacity="0.7"/>
<path d="M1203 193C1203 185.417 1180.54 207 1189 207C1197.46 207 1175 184.25 1175 193C1175 201.75 1197.17 179 1189 179C1180.83 179 1203 200.583 1203 193Z" fill="white" fill-opacity="0.7"/>
<path d="M1284 489C1284 481.417 1261.54 503 1270 503C1278.46 503 1256 480.25 1256 489C1256 497.75 1278.17 475 1270 475C1261.83 475 1284 496.583 1284 489Z" fill="white" fill-opacity="0.7"/>
<g style="mix-blend-mode:overlay">
<rect x="-131" y="521" width="64" height="304" rx="32" transform="rotate(-90 -131 521)" fill="#9F9F9F" fill-opacity="0.9"/>
<rect x="23" y="521" width="64" height="274" rx="32" transform="rotate(-90 23 521)" fill="#9F9F9F" fill-opacity="0.9"/>
<rect x="-51" y="457" width="64" height="224" rx="32" transform="rotate(-90 -51 457)" fill="#9F9F9F" fill-opacity="0.9"/>
<rect x="74" y="585" width="64" height="223" rx="32" transform="rotate(-90 74 585)" fill="#9F9F9F" fill-opacity="0.9"/>
<rect x="-62" y="585" width="64" height="95" rx="32" transform="rotate(-90 -62 585)" fill="#9F9F9F" fill-opacity="0.9"/>
</g>
<g style="mix-blend-mode:overlay">
<rect x="1363" y="207" width="64" height="96" rx="32" transform="rotate(90 1363 207)" fill="#9F9F9F" fill-opacity="0.9"/>
<rect x="1330" y="207" width="64" height="223" rx="32" transform="rotate(90 1330 207)" fill="#9F9F9F" fill-opacity="0.9"/>
<rect x="1455" y="271" width="64" height="224" rx="32" transform="rotate(90 1455 271)" fill="#9F9F9F" fill-opacity="0.9"/>
<rect x="1330" y="143" width="64" height="223" rx="32" transform="rotate(90 1330 143)" fill="#9F9F9F" fill-opacity="0.9"/>
</g>
<circle cx="642" cy="1009" r="570" fill="#AB2B16"/>
<path fill-rule="evenodd" clip-rule="evenodd" d="M1202.49 904.732C1202.28 904.916 1202.08 905.101 1201.87 905.285C1193.63 912.698 1187.46 921.322 1181.29 929.95C1174.04 940.088 1166.79 950.231 1156.17 958.421C1154.31 959.855 1152.45 961.3 1150.58 962.749C1128.08 980.179 1104.71 998.289 1077.83 1008.11C1068.01 1011.7 1058.45 1016.26 1048.87 1020.82L1048.87 1020.82C1028 1030.77 1007.07 1040.75 983.344 1040.75C928.148 1040.75 868.034 1038.92 834.274 990.157C822.493 973.14 823.037 946.839 847.875 939.742C871.933 932.868 896.931 931.665 922.011 930.457C945.335 929.334 968.73 928.207 991.505 922.514C1013.42 917.035 1049.2 906.392 1051.53 879.534C1052.71 865.976 1038.67 866.824 1027.7 867.487C1025.5 867.62 1023.42 867.746 1021.61 867.746C974.547 867.746 928.02 866.58 881.062 864.663C851.778 863.468 819.947 849.438 819.947 815.336C819.947 759.576 898.398 715.099 943.991 698.002C949.958 696.51 951.778 693.197 954.667 687.935L954.668 687.933C954.909 687.495 955.157 687.043 955.416 686.577C960.413 677.583 979.203 671.108 988.603 667.898C1014.12 659.186 1040.62 654.216 1067.1 649.252C1072.02 648.329 1076.95 647.405 1081.87 646.458C1142.14 719.504 1184.57 807.819 1202.49 904.732ZM430.12 479.68C259.383 548.086 129.441 696.706 86.9087 878.926C90.5507 880.528 94.4353 881.895 98.5646 883C164.859 900.741 233.747 895.235 299.682 879.917C313.959 876.6 328.411 873.89 342.871 871.179L342.873 871.179C369.349 866.215 395.854 861.245 421.368 852.533C430.768 849.323 449.558 842.848 454.555 833.854C454.814 833.388 455.062 832.935 455.304 832.496C458.193 827.234 460.013 823.921 465.98 822.429C472.701 819.909 480.526 817.26 488.983 814.398C537.905 797.841 608 774.117 608 726.577C608 692.474 591.38 681.709 562.096 680.514C537.512 679.511 502.618 686.295 468.194 692.988C436.864 699.08 405.924 705.095 383.5 705.095C350 705.095 317.5 704.975 317.5 667.898C317.5 630.821 396.552 603.396 418.466 597.917C441.241 592.224 464.636 591.097 487.96 589.974C513.04 588.766 538.038 587.563 562.096 580.689C586.934 573.592 587.478 547.29 575.697 530.274C542.648 482.537 484.343 479.775 430.12 479.68Z" fill="white" fill-opacity="0.2"/>
</svg>
