<svg width="557" height="372" viewBox="0 0 557 372" fill="none" xmlns="http://www.w3.org/2000/svg">
<mask id="path-1-outside-1" maskUnits="userSpaceOnUse" x="0" y="-0.314453" width="557" height="372" fill="black">
<rect fill="white" y="-0.314453" width="557" height="372"/>
<path fill-rule="evenodd" clip-rule="evenodd" d="M9 21.3978C9 14.377 14.6915 8.68555 21.7123 8.68555H535.288C542.308 8.68555 548 14.377 548 21.3978V296.83C548 303.851 542.309 309.542 535.288 309.542H21.7123C14.6915 309.542 9 303.851 9 296.83V21.3978ZM256.903 323.102C251.764 323.102 247.131 326.196 245.161 330.943L239.184 345.35C235.711 353.721 241.863 362.934 250.926 362.934H304.347C313.844 362.934 319.987 352.899 315.668 344.44L308.311 330.033C306.139 325.779 301.766 323.102 296.99 323.102H278.5H256.903Z"/>
</mask>
<path d="M245.161 330.943L237.334 327.695L237.334 327.695L245.161 330.943ZM239.184 345.35L247.012 348.598L247.012 348.598L239.184 345.35ZM315.668 344.44L323.216 340.586L323.216 340.586L315.668 344.44ZM308.311 330.033L315.859 326.179L315.859 326.179L308.311 330.033ZM21.7123 0.210705C10.0109 0.210705 0.525158 9.69651 0.525158 21.3978H17.4748C17.4748 19.0575 19.372 17.1604 21.7123 17.1604V0.210705ZM535.288 0.210705H21.7123V17.1604H535.288V0.210705ZM556.475 21.3978C556.475 9.69646 546.989 0.210705 535.288 0.210705V17.1604C537.628 17.1604 539.525 19.0576 539.525 21.3978H556.475ZM556.475 296.83V21.3978H539.525V296.83H556.475ZM535.288 318.017C546.989 318.017 556.475 308.531 556.475 296.83H539.525C539.525 299.17 537.628 301.068 535.288 301.068V318.017ZM21.7123 318.017H535.288V301.068H21.7123V318.017ZM0.525158 296.83C0.525158 308.532 10.011 318.017 21.7123 318.017V301.068C19.372 301.068 17.4748 299.17 17.4748 296.83H0.525158ZM0.525158 21.3978V296.83H17.4748V21.3978H0.525158ZM252.989 334.191C253.646 332.608 255.19 331.577 256.903 331.577V314.627C248.338 314.627 240.616 319.784 237.334 327.695L252.989 334.191ZM247.012 348.598L252.989 334.191L237.334 327.695L231.356 342.102L247.012 348.598ZM250.926 354.459C247.905 354.459 245.854 351.388 247.012 348.598L231.356 342.102C225.567 356.054 235.821 371.409 250.926 371.409V354.459ZM304.347 354.459H250.926V371.409H304.347V354.459ZM308.12 348.295C309.56 351.114 307.512 354.459 304.347 354.459V371.409C320.175 371.409 330.414 354.683 323.216 340.586L308.12 348.295ZM300.764 333.887L308.12 348.295L323.216 340.586L315.859 326.179L300.764 333.887ZM296.99 331.577C298.582 331.577 300.04 332.469 300.764 333.887L315.859 326.179C312.239 319.089 304.95 314.627 296.99 314.627V331.577ZM278.5 331.577H296.99V314.627H278.5V331.577ZM256.903 331.577H278.5V314.627H256.903V331.577Z" fill="black" mask="url(#path-1-outside-1)"/>
<rect x="15.3561" y="15.0417" width="526.288" height="288.145" rx="6.35613" fill="white" stroke="#A5A5A5" stroke-width="12.7123"/>
<path d="M245.161 330.943C247.131 326.197 251.764 323.103 256.903 323.103H278.5H296.99C301.766 323.103 306.139 325.78 308.311 330.034L315.668 344.441C319.987 352.899 313.844 362.934 304.347 362.934H250.926C241.863 362.934 235.711 353.721 239.184 345.35L245.161 330.943Z" fill="#A5A5A5"/>
</svg>
