<svg width="289" height="189" viewBox="0 0 289 189" fill="none" xmlns="http://www.w3.org/2000/svg">
<g clip-path="url(#clip0)">
<rect x="3.5" y="3.5" width="282" height="182" rx="23.5" fill="white"/>
<path d="M175.052 118.119C175.052 119.474 174.785 120.815 174.267 122.067C173.748 123.319 172.988 124.456 172.03 125.414C171.072 126.372 169.935 127.132 168.683 127.651C167.431 128.169 166.09 128.436 164.735 128.436C163.38 128.436 162.038 128.169 160.786 127.651C159.535 127.132 158.397 126.372 157.439 125.414C156.481 124.456 155.721 123.319 155.203 122.067C154.684 120.815 154.417 119.474 154.417 118.119L164.735 118.119H175.052Z" fill="#FFBA09"/>
<rect x="186.516" y="152.511" width="3.43917" height="16.0495" fill="#FFBA09"/>
<rect x="194.541" y="168.561" width="3.43917" height="16.0495" transform="rotate(90 194.541 168.561)" fill="#FFBA09"/>
<circle cx="175.052" cy="119.265" r="10.3175" fill="#FFE920"/>
<path d="M218.615 132.449C218.615 135.987 217.918 139.49 216.564 142.759C215.21 146.027 213.226 148.997 210.724 151.499C208.223 154 205.253 155.985 201.984 157.338C198.716 158.692 195.212 159.389 191.675 159.389C188.137 159.389 184.634 158.692 181.365 157.338C178.096 155.985 175.127 154 172.625 151.499C170.123 148.997 168.139 146.027 166.785 142.759C165.431 139.49 164.734 135.987 164.734 132.449L191.675 132.449H218.615Z" fill="#FFE920"/>
<rect x="164.734" y="119.266" width="20.635" height="14.9031" fill="#FFE920"/>
<path d="M210.59 132.449C210.59 134.782 210.131 137.093 209.238 139.249C208.345 141.405 207.036 143.363 205.386 145.013C203.736 146.663 201.777 147.972 199.621 148.865C197.465 149.758 195.155 150.218 192.821 150.218C190.488 150.218 188.177 149.758 186.021 148.865C183.866 147.972 181.907 146.663 180.257 145.013C178.607 143.363 177.298 141.405 176.405 139.249C175.512 137.093 175.052 134.782 175.052 132.449L192.821 132.449H210.59Z" fill="#FFBA09"/>
<circle cx="175.052" cy="119.265" r="2.29278" fill="black"/>
<mask id="path-10-outside-1" maskUnits="userSpaceOnUse" x="147.417" y="101.947" width="79" height="78" fill="black">
<rect fill="white" x="147.417" y="101.947" width="79" height="78"/>
<path fill-rule="evenodd" clip-rule="evenodd" d="M185.369 119.266V119.265C185.369 113.567 180.75 108.947 175.052 108.947C169.741 108.947 165.367 112.96 164.797 118.119H164.735L154.417 118.119C154.417 119.474 154.684 120.815 155.202 122.067C155.721 123.319 156.481 124.456 157.439 125.414C158.397 126.372 159.534 127.132 160.786 127.651C162.038 128.169 163.379 128.436 164.734 128.436V132.449V134.169H164.789C164.978 137.118 165.651 140.021 166.785 142.758C168.139 146.027 170.123 148.997 172.625 151.498C175.126 154 178.096 155.984 181.365 157.338C183.03 158.028 184.756 158.547 186.516 158.891V168.561H189.955V159.334C190.527 159.371 191.1 159.389 191.674 159.389C195.212 159.389 198.715 158.692 201.984 157.338C205.252 155.984 208.222 154 210.724 151.498C213.226 148.997 215.21 146.027 216.564 142.758C217.918 139.49 218.615 135.987 218.615 132.449H210.59V132.449H192.821H185.369V119.266ZM194.541 168.561V172H178.491V168.561H194.541Z"/>
</mask>
<path d="M164.797 118.119V125.119C168.366 125.119 171.363 122.434 171.755 118.888L164.797 118.119ZM164.735 118.119L164.735 125.119H164.735V118.119ZM154.417 118.119L154.417 111.119C152.56 111.119 150.78 111.856 149.467 113.169C148.154 114.482 147.417 116.262 147.417 118.119H154.417ZM155.202 122.067L161.67 119.388V119.388L155.202 122.067ZM157.439 125.414L162.389 120.464L162.389 120.464L157.439 125.414ZM160.786 127.651L158.107 134.118L158.107 134.118L160.786 127.651ZM164.734 128.436H171.734C171.734 124.57 168.6 121.436 164.734 121.436L164.734 128.436ZM164.734 134.169H157.734C157.734 138.035 160.868 141.169 164.734 141.169V134.169ZM164.789 134.169L171.775 133.722C171.539 130.037 168.482 127.169 164.789 127.169V134.169ZM166.785 142.758L160.318 145.437L160.318 145.437L166.785 142.758ZM172.625 151.498L167.675 156.448L167.675 156.448L172.625 151.498ZM181.365 157.338L178.686 163.806L181.365 157.338ZM186.516 158.891H193.516C193.516 155.541 191.144 152.661 187.856 152.02L186.516 158.891ZM186.516 168.561H179.516C179.516 172.427 182.65 175.561 186.516 175.561V168.561ZM189.955 168.561V175.561C193.821 175.561 196.955 172.427 196.955 168.561H189.955ZM189.955 159.334L190.402 152.348C188.472 152.225 186.577 152.906 185.166 154.229C183.756 155.552 182.955 157.4 182.955 159.334H189.955ZM201.984 157.338L199.305 150.871V150.871L201.984 157.338ZM210.724 151.498L205.774 146.549L205.774 146.549L210.724 151.498ZM216.564 142.758L210.097 140.08L210.097 140.08L216.564 142.758ZM218.615 132.449H225.615C225.615 128.583 222.481 125.449 218.615 125.449V132.449ZM210.59 132.449H203.59C203.59 136.315 206.724 139.449 210.59 139.449V132.449ZM210.59 132.449H217.59C217.59 128.583 214.456 125.449 210.59 125.449V132.449ZM185.369 132.449H178.369C178.369 136.315 181.503 139.449 185.369 139.449V132.449ZM194.541 172V179C198.407 179 201.541 175.866 201.541 172H194.541ZM194.541 168.561H201.541C201.541 164.695 198.407 161.561 194.541 161.561V168.561ZM178.491 172H171.491C171.491 175.866 174.625 179 178.491 179V172ZM178.491 168.561V161.561C174.625 161.561 171.491 164.695 171.491 168.561H178.491ZM178.369 119.265V119.266H192.369V119.265H178.369ZM175.052 115.947C176.884 115.947 178.369 117.433 178.369 119.265H192.369C192.369 109.701 184.616 101.947 175.052 101.947V115.947ZM171.755 118.888C171.937 117.236 173.349 115.947 175.052 115.947V101.947C166.133 101.947 158.797 108.683 157.839 117.35L171.755 118.888ZM164.735 125.119H164.797V111.119H164.735V125.119ZM154.417 125.119L164.735 125.119L164.735 111.119L154.417 111.119L154.417 125.119ZM161.67 119.388C161.503 118.986 161.417 118.554 161.417 118.119H147.417C147.417 120.393 147.865 122.645 148.735 124.746L161.67 119.388ZM162.389 120.464C162.081 120.156 161.836 119.791 161.67 119.388L148.735 124.746C149.605 126.847 150.881 128.756 152.489 130.364L162.389 120.464ZM163.465 121.184C163.062 121.017 162.697 120.772 162.389 120.464L152.489 130.364C154.097 131.972 156.006 133.248 158.107 134.118L163.465 121.184ZM164.734 121.436C164.299 121.436 163.867 121.35 163.465 121.184L158.107 134.118C160.208 134.988 162.46 135.436 164.734 135.436L164.734 121.436ZM171.734 132.449V128.436H157.734V132.449H171.734ZM171.734 134.169V132.449H157.734V134.169H171.734ZM164.789 127.169H164.734V141.169H164.789V127.169ZM173.252 140.08C172.413 138.053 171.915 135.905 171.775 133.722L157.803 134.616C158.041 138.332 158.889 141.988 160.318 145.437L173.252 140.08ZM177.575 146.549C175.723 144.697 174.254 142.499 173.252 140.08L160.318 145.437C162.023 149.555 164.523 153.297 167.675 156.448L177.575 146.549ZM184.044 150.871C181.624 149.869 179.426 148.4 177.575 146.549L167.675 156.448C170.827 159.6 174.568 162.1 178.686 163.806L184.044 150.871ZM187.856 152.02C186.553 151.766 185.276 151.382 184.044 150.871L178.686 163.806C180.784 164.674 182.958 165.328 185.176 165.761L187.856 152.02ZM193.516 168.561V158.891H179.516V168.561H193.516ZM189.955 161.561H186.516V175.561H189.955V161.561ZM182.955 159.334V168.561H196.955V159.334H182.955ZM191.674 152.389C191.249 152.389 190.825 152.375 190.402 152.348L189.509 166.32C190.229 166.366 190.951 166.389 191.674 166.389V152.389ZM199.305 150.871C196.886 151.873 194.293 152.389 191.674 152.389V166.389C196.131 166.389 200.545 165.511 204.663 163.806L199.305 150.871ZM205.774 146.549C203.923 148.4 201.724 149.869 199.305 150.871L204.663 163.806C208.781 162.1 212.522 159.6 215.674 156.448L205.774 146.549ZM210.097 140.08C209.095 142.499 207.626 144.697 205.774 146.549L215.674 156.448C218.825 153.297 221.325 149.555 223.031 145.437L210.097 140.08ZM211.615 132.449C211.615 135.067 211.099 137.66 210.097 140.08L223.031 145.437C224.737 141.319 225.615 136.906 225.615 132.449H211.615ZM210.59 139.449H218.615V125.449H210.59V139.449ZM203.59 132.449V132.449H217.59V132.449H203.59ZM192.821 139.449H210.59V125.449H192.821V139.449ZM185.369 139.449H192.821V125.449H185.369V139.449ZM178.369 119.266V132.449H192.369V119.266H178.369ZM201.541 172V168.561H187.541V172H201.541ZM178.491 179H194.541V165H178.491V179ZM171.491 168.561V172H185.491V168.561H171.491ZM194.541 161.561H178.491V175.561H194.541V161.561Z" fill="black" mask="url(#path-10-outside-1)"/>
<rect x="55.8999" y="21.2271" width="33.2453" height="39.0271" rx="11.9874" fill="#A5A5A5"/>
<path d="M54.4076 96.9193C54.2535 93.5065 56.9788 90.6553 60.3952 90.6553L66.1715 90.6553C69.4817 90.6553 72.1652 93.3387 72.1652 96.649L72.1652 152.661C72.1652 155.88 69.6222 158.524 66.4054 158.65L63.1637 158.776C59.8702 158.905 57.0909 156.35 56.9422 153.058L54.4076 96.9193Z" fill="#FFE2C7"/>
<path d="M67.6299 94.1035C66.8147 90.2713 69.8168 86.5261 73.7039 86.5258L79.802 86.5253C82.5989 86.5251 84.9286 88.5151 85.3936 91.3017L95.2478 150.357C95.7927 153.622 93.6118 156.837 90.3768 157.539L87.1365 158.242C84.0021 158.922 81.0077 156.991 80.3418 153.861L67.6299 94.1035Z" fill="#FFE2C7"/>
<rect width="20.1523" height="21.8895" rx="5.99371" transform="matrix(0.982336 -0.187128 0.186679 0.982421 61.5742 99.4976)" fill="#FFE2C7"/>
<rect width="8.98982" height="14.9669" rx="4.49491" transform="matrix(-0.258819 0.965926 -0.966087 -0.258218 119.715 94.9224)" fill="#FFE2C7"/>
<path fill-rule="evenodd" clip-rule="evenodd" d="M83.5103 63.0491C83.8129 61.7363 84.8667 60.7523 86.1674 60.4038C89.6909 59.4597 93.17 63.869 92.7954 67.499C92.5313 70.0589 92.7202 72.7154 93.4246 75.3576C94.6382 79.9094 97.1987 83.7325 100.547 86.4958C103.064 88.5723 103.917 92.5897 101.607 94.8985C100.332 96.1733 98.3977 96.5982 96.835 95.7023C90.9266 92.3155 86.0208 85.9544 83.8776 77.9157C82.5013 72.7535 82.4565 67.6211 83.5103 63.0491Z" fill="#FFE2C7"/>
<path d="M55.8999 65.4746C55.8999 60.2936 60.2674 56.1848 65.4388 56.5008L78.7739 57.3156C83.4622 57.602 87.1399 61.4491 87.2151 66.1456L87.5599 87.6992C87.6378 92.5666 83.8275 96.6118 78.9642 96.825L65.2842 97.4246C60.1692 97.6489 55.8999 93.5626 55.8999 88.4427V65.4746Z" fill="#1CC64B"/>
<path d="M55.1008 99.0827C55.3746 94.326 59.3119 90.6089 64.0765 90.6089H80.6889C85.1595 90.6089 88.9509 93.8937 89.5877 98.3187L93.4488 125.147C94.2287 130.566 90.0249 135.418 84.5499 135.418H62.5321C57.3636 135.418 53.2593 131.07 53.5564 125.911L55.1008 99.0827Z" fill="#1CC64B"/>
<rect width="10.2601" height="15.7322" rx="5.13005" transform="matrix(-0.610433 0.792068 -0.791333 -0.611386 77.4419 107.848)" fill="#FFE2C7"/>
<path fill-rule="evenodd" clip-rule="evenodd" d="M58.7202 59.0685C59.718 58.2542 61.0897 58.1246 62.2784 58.6215C65.5938 60.0074 65.5566 65.7955 63.0846 68.4022C61.5065 70.0664 60.205 72.0314 59.2763 74.2603C56.7158 80.4053 57.571 87.1579 60.9774 92.5388C62.3902 94.7704 62.6421 97.7031 61.0257 99.7898C59.5198 101.734 56.8029 102.432 54.8992 100.873C47.4503 94.7754 45.1128 82.5593 49.871 71.1401C51.9417 66.1706 55.0646 62.0519 58.7202 59.0685Z" fill="#FFE2C7"/>
<rect x="58.6018" y="27.3042" width="30.2306" height="26.9717" rx="11.9874" fill="#A5A5A5"/>
<rect x="73.8665" y="26.4062" width="14.9656" height="21.877" rx="7.48282" fill="#A5A5A5"/>
<path d="M88.2956 37.2015C88.2956 48.9914 85.8065 53.4373 78.2649 53.4373C70.7233 53.4373 58.9199 48.1082 58.9199 39.7271C58.9199 31.346 68.5739 20.605 76.1155 20.605C83.657 20.605 88.2956 26.4192 88.2956 37.2015Z" fill="#FFE2C7"/>
<path d="M67.1128 49.1827C67.1128 45.8724 69.7963 43.189 73.1065 43.189H73.6902C77.0005 43.189 79.6839 45.8724 79.6839 49.1827V54.2773C79.6839 57.5876 77.0005 60.271 73.6902 60.271H73.1065C69.7963 60.271 67.1128 57.5876 67.1128 54.2773V49.1827Z" fill="#FFE2C7"/>
<path fill-rule="evenodd" clip-rule="evenodd" d="M59.4544 39.7651C57.9935 32.3777 62.3037 25.2222 69.2142 23.6789C71.6185 23.142 74.0257 23.3541 76.2189 24.1667C77.6797 31.5541 73.3696 38.7096 66.4591 40.2528C64.0548 40.7898 61.6476 40.5777 59.4544 39.7651Z" fill="#A5A5A5"/>
<path fill-rule="evenodd" clip-rule="evenodd" d="M84.0442 23.5406C80.1399 19.9861 74.7646 18.4104 69.5277 19.8163C62.4848 21.7069 57.9165 28.393 57.9954 35.8014C61.6411 38.3015 66.7234 39.2005 71.8242 37.8311C79.1926 35.8531 84.1651 29.7954 84.0442 23.5406Z" fill="#A5A5A5"/>
<path fill-rule="evenodd" clip-rule="evenodd" d="M67.1485 52.2897C63.6246 45.8597 65.1701 37.3414 71.2689 31.9791C76.1605 27.6782 82.6842 26.5478 88.1259 28.5026C87.6134 27.5675 86.9936 26.6765 86.2651 25.8458C80.5272 19.3035 70.2126 18.9792 63.2267 25.1215C56.2408 31.2638 55.2291 41.5467 60.967 48.089C62.6872 50.0503 64.8187 51.4528 67.1485 52.2897Z" fill="#A5A5A5"/>
<path fill-rule="evenodd" clip-rule="evenodd" d="M70.5877 43.8495C70.1217 45.5917 67.8973 46.1044 66.6068 44.844C65.2492 43.518 64.6179 41.5938 65.1183 39.7228C65.5843 37.9806 67.8087 37.4679 69.0992 38.7283C70.4568 40.0543 71.0881 41.9785 70.5877 43.8495Z" fill="#FFE2C7"/>
<path d="M90.3447 42.6419L87.2124 36.8715C86.5356 35.6246 84.6421 36.1053 84.6421 37.5241V44.4846C84.6421 45.4423 85.6008 46.1036 86.496 45.7634L89.6282 44.5733C90.4025 44.2791 90.7398 43.3698 90.3447 42.6419Z" fill="#FFE2C7"/>
<rect width="3.42003" height="5.13005" rx="1.71002" transform="matrix(-0.965926 -0.258819 -0.258819 0.965926 83.1204 37.1855)" fill="black"/>
<rect width="2.23549" height="5.91458" rx="1.11775" transform="matrix(-4.37114e-08 -1 -0.999907 0.0136318 84.1548 32.8491)" fill="black"/>
<path d="M80.4887 47.2831C81.6802 49.0789 83.9088 49.677 85.4675 49.7629L85.8098 49.4209C83.2247 50.0191 80.4887 47.2831 80.4887 47.2831Z" stroke="black" stroke-width="2.25722" stroke-linecap="round" stroke-linejoin="round"/>
<path d="M77.4868 163.166C79.8033 163.439 81.5491 165.402 81.5491 167.735C81.5491 170.275 79.4894 172.335 76.9486 172.335L61.6083 172.335C58.5703 172.335 56.1075 169.872 56.1075 166.834C56.1075 163.541 58.9814 160.986 62.2519 161.371L77.4868 163.166Z" fill="#7F00FF"/>
<path d="M104.855 159.345C107.181 159.173 109.267 160.769 109.709 163.059C110.191 165.553 108.56 167.967 106.065 168.45L91.0033 171.367C88.0207 171.944 85.1359 169.994 84.5597 167.012C83.9352 163.778 86.272 160.723 89.5558 160.48L104.855 159.345Z" fill="#7F00FF"/>
<mask id="path-36-outside-2" maskUnits="userSpaceOnUse" x="40.3975" y="11.3052" width="86" height="169" fill="black">
<rect fill="white" x="40.3975" y="11.3052" width="86" height="169"/>
<path fill-rule="evenodd" clip-rule="evenodd" d="M65.74 21.4189C60.1443 22.431 55.9001 27.3271 55.9001 33.2145V48.2668C55.9001 52.0731 57.6741 55.465 60.4404 57.6609C59.5442 58.1728 58.7431 58.8348 58.0726 59.6137C54.6963 62.5457 51.8184 66.4665 49.8711 71.1399C45.1829 82.3911 47.3832 94.416 54.574 100.6L54.7672 104.881L53.5566 125.91C53.4073 128.503 54.3696 130.891 56.0199 132.625L56.9424 153.058C57.0911 156.35 59.8705 158.905 63.164 158.776L66.4056 158.65C69.6224 158.524 72.1654 155.88 72.1654 152.661V135.418H76.4186L80.3419 153.861C81.0078 156.991 84.0022 158.922 87.1365 158.242L90.3769 157.539C93.6119 156.837 95.7928 153.622 95.2479 150.357L92.0759 131.347C93.2271 129.59 93.776 127.418 93.4491 125.146L89.588 98.3185C89.2478 95.9547 88.0073 93.9162 86.244 92.53C87.1045 91.124 87.5884 89.4657 87.5602 87.6992L87.5406 86.4774C89.9992 90.4631 93.2306 93.6363 96.8351 95.7024C98.3978 96.5983 100.332 96.1734 101.607 94.8986C103.918 92.5898 103.064 88.5724 100.548 86.4959C97.1989 83.7326 94.6383 79.9095 93.4248 75.3577C92.7203 72.7155 92.5314 70.059 92.7955 67.4991C93.1701 63.8691 89.691 59.4598 86.1676 60.4039C85.8646 60.485 85.575 60.6007 85.3052 60.747C84.678 59.9466 83.9175 59.2547 83.0561 58.7052C86.6918 56.6465 89.1455 52.7432 89.1455 48.2668V44.7567L89.6283 44.5732C90.4025 44.2791 90.7398 43.3697 90.3447 42.6418L89.1455 40.4325V33.2145C89.1455 28.8715 86.836 25.068 83.3781 22.965C79.5413 19.8198 74.4729 18.4888 69.5278 19.8163C68.1677 20.1814 66.8999 20.7254 65.74 21.4189ZM115.373 93.7618C117.771 94.4028 119.194 96.8663 118.552 99.2642C117.909 101.662 115.444 103.086 113.046 102.445L107.272 100.902C104.873 100.261 103.45 97.7973 104.093 95.3995C104.735 93.0016 107.2 91.5774 109.598 92.2184L115.373 93.7618ZM77.4868 163.165C79.8034 163.438 81.5491 165.402 81.5491 167.734C81.5491 170.275 79.4894 172.335 76.9486 172.335H61.6084C58.5703 172.335 56.1075 169.872 56.1075 166.834C56.1075 163.541 58.9814 160.986 62.2519 161.371L77.4868 163.165ZM109.709 163.059C109.267 160.769 107.181 159.173 104.855 159.345L89.556 160.48C86.2722 160.723 83.9354 163.778 84.5599 167.011C85.1361 169.994 88.0209 171.944 91.0035 171.367L106.066 168.45C108.56 167.967 110.191 165.553 109.709 163.059Z"/>
</mask>
<path d="M65.74 21.4189L66.9859 28.3071C67.8145 28.1572 68.6093 27.8591 69.3321 27.4269L65.74 21.4189ZM60.4404 57.6609L63.9118 63.7395C65.9293 62.5874 67.2437 60.5093 67.4202 58.1926C67.5967 55.876 66.6123 53.6228 64.7926 52.1783L60.4404 57.6609ZM58.0726 59.6137L62.6623 64.8991C62.9178 64.6772 63.1569 64.437 63.3777 64.1806L58.0726 59.6137ZM49.8711 71.1399L43.4096 68.4475L49.8711 71.1399ZM54.574 100.6L61.5669 100.284C61.4798 98.3571 60.6011 96.551 59.1383 95.293L54.574 100.6ZM54.7672 104.881L61.7557 105.283C61.7694 105.044 61.7709 104.804 61.7601 104.565L54.7672 104.881ZM53.5566 125.91L46.5682 125.508L53.5566 125.91ZM56.0199 132.625L63.0128 132.31C62.9367 130.624 62.254 129.022 61.0906 127.8L56.0199 132.625ZM56.9424 153.058L63.9353 152.742L56.9424 153.058ZM63.164 158.776L63.4371 165.771L63.4372 165.771L63.164 158.776ZM66.4056 158.65L66.1324 151.655H66.1324L66.4056 158.65ZM72.1654 135.418V128.418C68.2994 128.418 65.1654 131.552 65.1654 135.418H72.1654ZM76.4186 135.418L83.2654 133.961C82.5778 130.729 79.7232 128.418 76.4186 128.418V135.418ZM80.3419 153.861L87.1887 152.404L80.3419 153.861ZM87.1365 158.242L85.6526 151.401H85.6526L87.1365 158.242ZM90.3769 157.539L91.8609 164.38H91.8609L90.3769 157.539ZM95.2479 150.357L102.152 149.204L95.2479 150.357ZM92.0759 131.347L86.221 127.51C85.2565 128.982 84.8817 130.763 85.1713 132.499L92.0759 131.347ZM93.4491 125.146L86.5204 126.143L93.4491 125.146ZM89.588 98.3185L82.6594 99.3157L89.588 98.3185ZM86.244 92.53L80.2734 88.876C78.4204 91.9038 79.1272 95.8393 81.9179 98.0332L86.244 92.53ZM87.5602 87.6992L80.5611 87.8111L87.5602 87.6992ZM87.5406 86.4774L93.4983 82.8024C91.844 80.1204 88.6015 78.8744 85.5769 79.7585C82.5522 80.6425 80.4911 83.4386 80.5415 86.5893L87.5406 86.4774ZM96.8351 95.7024L93.3539 101.775L93.3539 101.775L96.8351 95.7024ZM101.607 94.8986L96.6591 89.9473L96.6591 89.9473L101.607 94.8986ZM100.548 86.4959L96.0922 91.895L96.0922 91.895L100.548 86.4959ZM93.4248 75.3577L100.188 73.5544V73.5544L93.4248 75.3577ZM92.7955 67.4991L85.8325 66.7806L92.7955 67.4991ZM86.1676 60.4039L84.3558 53.6424L84.3558 53.6424L86.1676 60.4039ZM85.3052 60.747L79.7954 65.0646C81.9015 67.7522 85.6394 68.5282 88.6412 66.9009L85.3052 60.747ZM83.0561 58.7052L79.6069 52.614C77.4697 53.8242 76.1231 56.0659 76.0585 58.5211C75.9939 60.9764 77.2208 63.2858 79.2915 64.6067L83.0561 58.7052ZM89.1455 44.7567L86.6592 38.2131C83.9419 39.2455 82.1455 41.8499 82.1455 44.7567H89.1455ZM89.6283 44.5732L87.142 38.0297L87.142 38.0297L89.6283 44.5732ZM90.3447 42.6418L96.4968 39.3024L96.4968 39.3024L90.3447 42.6418ZM89.1455 40.4325H82.1455C82.1455 41.5989 82.4369 42.7468 82.9934 43.7719L89.1455 40.4325ZM83.3781 22.965L78.9404 28.3786C79.1936 28.5862 79.4611 28.7757 79.7408 28.9458L83.3781 22.965ZM69.5278 19.8163L67.7129 13.0557V13.0557L69.5278 19.8163ZM115.373 93.7618L117.18 86.9992H117.18L115.373 93.7618ZM113.046 102.445L111.238 109.208L111.238 109.208L113.046 102.445ZM107.272 100.902L105.464 107.664H105.464L107.272 100.902ZM104.093 95.3995L110.854 97.2112L110.854 97.2112L104.093 95.3995ZM109.598 92.2184L111.406 85.4558L111.406 85.4558L109.598 92.2184ZM77.4868 163.165L76.6679 170.117H76.6679L77.4868 163.165ZM62.2519 161.371L61.433 168.323H61.433L62.2519 161.371ZM104.855 159.345L105.373 166.326H105.373L104.855 159.345ZM109.709 163.059L102.836 164.386L102.836 164.386L109.709 163.059ZM89.556 160.48L89.0383 153.499H89.0383L89.556 160.48ZM84.5599 167.011L77.687 168.339V168.339L84.5599 167.011ZM91.0035 171.367L92.3342 178.239H92.3342L91.0035 171.367ZM106.066 168.45L104.735 161.578H104.735L106.066 168.45ZM62.9001 33.2145C62.9001 30.7724 64.6623 28.7274 66.9859 28.3071L64.4941 14.5306C55.6263 16.1346 48.9001 23.8818 48.9001 33.2145H62.9001ZM62.9001 48.2668V33.2145H48.9001V48.2668H62.9001ZM64.7926 52.1783C63.6271 51.2532 62.9001 49.847 62.9001 48.2668H48.9001C48.9001 54.2991 51.7212 59.6769 56.0883 63.1435L64.7926 52.1783ZM63.3777 64.1806C63.5302 64.0034 63.712 63.8537 63.9118 63.7395L56.9691 51.5823C55.3764 52.4918 53.956 53.6662 52.7675 55.0469L63.3777 64.1806ZM56.3326 73.8323C57.8758 70.1288 60.1236 67.1036 62.6623 64.8991L53.4829 54.3284C49.2689 57.9877 45.7611 62.8043 43.4096 68.4475L56.3326 73.8323ZM59.1383 95.293C54.8101 91.5706 52.4942 83.0441 56.3326 73.8323L43.4096 68.4475C37.8716 81.7382 39.9562 97.2614 50.0097 105.907L59.1383 95.293ZM61.7601 104.565L61.5669 100.284L47.5811 100.916L47.7744 105.196L61.7601 104.565ZM60.545 126.313L61.7557 105.283L47.7788 104.478L46.5682 125.508L60.545 126.313ZM61.0906 127.8C60.7159 127.406 60.5119 126.889 60.545 126.313L46.5682 125.508C46.3028 130.118 48.0233 134.377 50.9493 137.451L61.0906 127.8ZM63.9353 152.742L63.0128 132.31L49.027 132.941L49.9495 153.373L63.9353 152.742ZM62.8908 151.782C63.4437 151.76 63.9103 152.189 63.9353 152.742L49.9495 153.373C50.2718 160.511 56.2972 166.05 63.4371 165.771L62.8908 151.782ZM66.1324 151.655L62.8907 151.782L63.4372 165.771L66.6788 165.644L66.1324 151.655ZM65.1654 152.661C65.1654 152.12 65.5923 151.676 66.1324 151.655L66.6788 165.644C73.6524 165.372 79.1654 159.639 79.1654 152.661H65.1654ZM65.1654 135.418V152.661H79.1654V135.418H65.1654ZM76.4186 128.418H72.1654V142.418H76.4186V128.418ZM87.1887 152.404L83.2654 133.961L69.5718 136.874L73.4951 155.317L87.1887 152.404ZM85.6526 151.401C85.9211 151.343 86.285 151.39 86.607 151.597C86.9295 151.805 87.1288 152.123 87.1887 152.404L73.4951 155.317C74.9706 162.254 81.7112 166.582 88.6205 165.083L85.6526 151.401ZM88.893 150.698L85.6526 151.401L88.6205 165.083L91.8609 164.38L88.893 150.698ZM88.3434 151.509C88.3005 151.251 88.3769 151.068 88.4364 150.98C88.496 150.892 88.6381 150.754 88.893 150.698L91.8609 164.38C98.7457 162.887 103.312 156.153 102.152 149.204L88.3434 151.509ZM85.1713 132.499L88.3434 151.509L102.152 149.204L98.9804 130.195L85.1713 132.499ZM86.5204 126.143C86.5945 126.658 86.4764 127.121 86.221 127.51L97.9308 135.184C99.9778 132.06 100.958 128.178 100.378 124.149L86.5204 126.143ZM82.6594 99.3157L86.5204 126.143L100.378 124.149L96.5166 97.3213L82.6594 99.3157ZM81.9179 98.0332C82.3155 98.3457 82.5841 98.7926 82.6594 99.3157L96.5166 97.3213C95.9115 93.1167 93.6992 89.4867 90.5701 87.0269L81.9179 98.0332ZM80.5611 87.8111C80.5675 88.2117 80.4613 88.569 80.2734 88.876L92.2146 96.184C93.7478 93.6789 94.6094 90.7197 94.5593 87.5872L80.5611 87.8111ZM80.5415 86.5893L80.5611 87.8111L94.5593 87.5872L94.5397 86.3654L80.5415 86.5893ZM100.316 89.6294C97.8141 88.1951 95.401 85.8868 93.4983 82.8024L81.5829 90.1524C84.5974 95.0393 88.647 99.0774 93.3539 101.775L100.316 89.6294ZM96.6591 89.9473C97.1988 89.4079 98.6555 88.6775 100.316 89.6294L93.3539 101.775C98.1402 104.519 103.465 102.939 106.555 99.8499L96.6591 89.9473ZM96.0922 91.895C96.0228 91.8377 96.0043 91.8022 96.0037 91.8011C96.0014 91.797 95.9972 91.789 95.9919 91.7739C95.9866 91.7589 95.9769 91.7272 95.969 91.676C95.9545 91.5818 95.9362 91.3492 96.0296 91.0156C96.1302 90.6564 96.3394 90.2668 96.6591 89.9473L106.555 99.8499C109.596 96.8117 110.313 92.8348 109.806 89.5443C109.31 86.3236 107.609 83.2472 105.003 81.0968L96.0922 91.895ZM86.661 77.1611C88.2598 83.1576 91.6463 88.2262 96.0922 91.895L105.003 81.0968C102.751 79.239 101.017 76.6614 100.188 73.5544L86.661 77.1611ZM85.8325 66.7806C85.4823 70.1747 85.7346 73.6861 86.661 77.1611L100.188 73.5544C99.706 71.7448 99.5805 69.9432 99.7586 68.2176L85.8325 66.7806ZM87.9793 67.1653C87.1788 67.3798 86.4764 67.2416 86.0675 67.0725C85.715 66.9268 85.623 66.7863 85.6845 66.8562C85.7368 66.9157 85.7982 67.0171 85.8301 67.1055C85.8651 67.2021 85.8001 67.0947 85.8325 66.7806L99.7586 68.2176C100.184 64.0971 98.4872 60.2172 96.2021 57.6162C93.9467 55.0489 89.6464 52.2248 84.3558 53.6424L87.9793 67.1653ZM88.6412 66.9009C88.4262 67.0174 88.204 67.1051 87.9793 67.1653L84.3558 53.6424C83.5252 53.8649 82.7238 54.1839 81.9692 54.593L88.6412 66.9009ZM79.2915 64.6067C79.4826 64.7287 79.6539 64.884 79.7954 65.0646L90.815 56.4293C89.7021 55.0091 88.3524 53.7808 86.8207 52.8037L79.2915 64.6067ZM82.1455 48.2668C82.1455 50.1201 81.1378 51.7471 79.6069 52.614L86.5053 64.7965C92.2459 61.5459 96.1455 55.3662 96.1455 48.2668H82.1455ZM82.1455 44.7567V48.2668H96.1455V44.7567H82.1455ZM87.142 38.0297L86.6592 38.2131L91.6317 51.3003L92.1145 51.1168L87.142 38.0297ZM84.1926 45.9812C82.5659 42.9844 83.9544 39.2408 87.142 38.0297L92.1145 51.1168C96.8506 49.3174 98.9138 43.7551 96.4968 39.3024L84.1926 45.9812ZM82.9934 43.7719L84.1926 45.9812L96.4968 39.3024L95.2976 37.0931L82.9934 43.7719ZM82.1455 33.2145V40.4325H96.1455V33.2145H82.1455ZM79.7408 28.9458C81.1977 29.8319 82.1455 31.4157 82.1455 33.2145H96.1455C96.1455 26.3273 92.4743 20.3041 87.0155 16.9843L79.7408 28.9458ZM71.3427 26.577C73.9066 25.8887 76.6808 26.5263 78.9404 28.3786L87.8159 17.5515C82.4018 13.1134 75.0392 11.089 67.7129 13.0557L71.3427 26.577ZM69.3321 27.4269C69.9449 27.0606 70.6155 26.7722 71.3427 26.577L67.7129 13.0557C65.7199 13.5907 63.8549 14.3903 62.1479 15.4108L69.3321 27.4269ZM125.313 101.076C126.957 94.9421 123.315 88.6389 117.18 86.9992L113.565 100.524C112.227 100.167 111.432 98.7905 111.79 97.4525L125.313 101.076ZM111.238 109.208C117.37 110.847 123.671 107.206 125.313 101.076L111.79 97.4525C112.148 96.1177 113.519 95.3259 114.854 95.6827L111.238 109.208ZM105.464 107.664L111.238 109.208L114.854 95.6827L109.079 94.1393L105.464 107.664ZM97.3311 93.5877C95.6875 99.7215 99.3293 106.025 105.464 107.664L109.079 94.1393C110.417 94.497 111.213 95.8732 110.854 97.2112L97.3311 93.5877ZM111.406 85.4558C105.274 83.8169 98.9737 87.4572 97.331 93.5877L110.854 97.2112C110.496 98.5459 109.126 99.3378 107.791 98.981L111.406 85.4558ZM117.18 86.9992L111.406 85.4558L107.791 98.981L113.565 100.524L117.18 86.9992ZM88.5491 167.734C88.5491 161.852 84.1471 156.902 78.3057 156.213L76.6679 170.117C75.4596 169.975 74.5491 168.951 74.5491 167.734H88.5491ZM76.9486 179.335C83.3554 179.335 88.5491 174.141 88.5491 167.734H74.5491C74.5491 166.409 75.6234 165.335 76.9486 165.335V179.335ZM61.6084 179.335H76.9486V165.335H61.6084V179.335ZM49.1075 166.834C49.1075 173.738 54.7043 179.335 61.6084 179.335V165.335C62.4363 165.335 63.1075 166.006 63.1075 166.834H49.1075ZM63.0708 154.419C55.6385 153.543 49.1075 159.35 49.1075 166.834H63.1075C63.1075 167.731 62.3243 168.428 61.433 168.323L63.0708 154.419ZM78.3057 156.213L63.0708 154.419L61.433 168.323L76.6679 170.117L78.3057 156.213ZM105.373 166.326C104.158 166.416 103.067 165.582 102.836 164.386L116.582 161.731C115.467 155.955 110.204 151.929 104.337 152.364L105.373 166.326ZM90.0736 167.46L105.373 166.326L104.337 152.364L89.0383 153.499L90.0736 167.46ZM91.4329 165.684C91.6028 166.563 90.968 167.394 90.0736 167.46L89.0383 153.499C81.5764 154.052 76.2681 160.993 77.687 168.339L91.4329 165.684ZM89.6728 164.494C90.487 164.337 91.2756 164.87 91.4329 165.684L77.687 168.339C78.9965 175.119 85.5549 179.552 92.3342 178.239L89.6728 164.494ZM104.735 161.578L89.6727 164.494L92.3342 178.239L107.396 175.322L104.735 161.578ZM102.836 164.386C102.585 163.086 103.435 161.829 104.735 161.578L107.396 175.322C113.685 174.105 117.797 168.02 116.582 161.731L102.836 164.386Z" fill="black" mask="url(#path-36-outside-2)"/>
<path d="M116.5 105C124 130.5 147 154 191 128.5" stroke="black" stroke-width="7"/>
</g>
<rect x="3.5" y="3.5" width="282" height="182" rx="23.5" stroke="#1CC64B" stroke-width="7"/>
<defs>
<clipPath id="clip0">
</clipPath>
</defs>
</svg>
