<svg width="289" height="189" viewBox="0 0 289 189" fill="none" xmlns="http://www.w3.org/2000/svg">
<g clip-path="url(#clip0)">
<rect x="3.5" y="3.5" width="282" height="182" rx="23.5" fill="white"/>
<path d="M175.052 128.119C175.052 129.474 174.785 130.815 174.267 132.067C173.748 133.319 172.988 134.456 172.03 135.414C171.072 136.372 169.935 137.132 168.683 137.651C167.431 138.169 166.09 138.436 164.735 138.436C163.38 138.436 162.038 138.169 160.786 137.651C159.535 137.132 158.397 136.372 157.439 135.414C156.481 134.456 155.721 133.319 155.203 132.067C154.684 130.815 154.417 129.474 154.417 128.119L164.735 128.119H175.052Z" fill="#FFBA09"/>
<rect x="186.516" y="162.511" width="3.43917" height="16.0495" fill="#FFBA09"/>
<rect x="194.541" y="178.561" width="3.43917" height="16.0495" transform="rotate(90 194.541 178.561)" fill="#FFBA09"/>
<circle cx="175.052" cy="129.265" r="10.3175" fill="#FFE920"/>
<path d="M218.615 142.449C218.615 145.987 217.918 149.49 216.564 152.759C215.21 156.027 213.226 158.997 210.724 161.499C208.223 164 205.253 165.985 201.984 167.338C198.716 168.692 195.212 169.389 191.675 169.389C188.137 169.389 184.634 168.692 181.365 167.338C178.096 165.985 175.127 164 172.625 161.499C170.123 158.997 168.139 156.027 166.785 152.759C165.431 149.49 164.734 145.987 164.734 142.449L191.675 142.449H218.615Z" fill="#FFE920"/>
<rect x="164.734" y="129.266" width="20.635" height="14.9031" fill="#FFE920"/>
<path d="M210.59 142.449C210.59 144.782 210.131 147.093 209.238 149.249C208.345 151.405 207.036 153.363 205.386 155.013C203.736 156.663 201.777 157.972 199.621 158.865C197.465 159.758 195.155 160.218 192.821 160.218C190.488 160.218 188.177 159.758 186.021 158.865C183.866 157.972 181.907 156.663 180.257 155.013C178.607 153.363 177.298 151.405 176.405 149.249C175.512 147.093 175.052 144.782 175.052 142.449L192.821 142.449H210.59Z" fill="#FFBA09"/>
<circle cx="175.052" cy="129.265" r="2.29278" fill="black"/>
<mask id="path-10-outside-1" maskUnits="userSpaceOnUse" x="147.417" y="111.947" width="79" height="78" fill="black">
<rect fill="white" x="147.417" y="111.947" width="79" height="78"/>
<path fill-rule="evenodd" clip-rule="evenodd" d="M185.369 129.266V129.265C185.369 123.567 180.75 118.947 175.052 118.947C169.741 118.947 165.367 122.96 164.797 128.119H164.735L154.417 128.119C154.417 129.474 154.684 130.815 155.202 132.067C155.721 133.319 156.481 134.456 157.439 135.414C158.397 136.372 159.534 137.132 160.786 137.651C162.038 138.169 163.379 138.436 164.734 138.436V142.449V144.169H164.789C164.978 147.118 165.651 150.021 166.785 152.758C168.139 156.027 170.123 158.997 172.625 161.498C175.126 164 178.096 165.984 181.365 167.338C183.03 168.028 184.756 168.547 186.516 168.891V178.561H189.955V169.334C190.527 169.371 191.1 169.389 191.674 169.389C195.212 169.389 198.715 168.692 201.984 167.338C205.252 165.984 208.222 164 210.724 161.498C213.226 158.997 215.21 156.027 216.564 152.758C217.918 149.49 218.615 145.987 218.615 142.449H210.59V142.449H192.821H185.369V129.266ZM194.541 178.561V182H178.491V178.561H194.541Z"/>
</mask>
<path d="M164.797 128.119V135.119C168.366 135.119 171.363 132.434 171.755 128.888L164.797 128.119ZM164.735 128.119L164.735 135.119H164.735V128.119ZM154.417 128.119L154.417 121.119C152.56 121.119 150.78 121.856 149.467 123.169C148.154 124.482 147.417 126.262 147.417 128.119H154.417ZM155.202 132.067L161.67 129.388V129.388L155.202 132.067ZM157.439 135.414L162.389 130.464L162.389 130.464L157.439 135.414ZM160.786 137.651L158.107 144.118L158.107 144.118L160.786 137.651ZM164.734 138.436H171.734C171.734 134.57 168.6 131.436 164.734 131.436L164.734 138.436ZM164.734 144.169H157.734C157.734 148.035 160.868 151.169 164.734 151.169V144.169ZM164.789 144.169L171.775 143.722C171.539 140.037 168.482 137.169 164.789 137.169V144.169ZM166.785 152.758L160.318 155.437L160.318 155.437L166.785 152.758ZM172.625 161.498L167.675 166.448L167.675 166.448L172.625 161.498ZM181.365 167.338L178.686 173.806L181.365 167.338ZM186.516 168.891H193.516C193.516 165.541 191.144 162.661 187.856 162.02L186.516 168.891ZM186.516 178.561H179.516C179.516 182.427 182.65 185.561 186.516 185.561V178.561ZM189.955 178.561V185.561C193.821 185.561 196.955 182.427 196.955 178.561H189.955ZM189.955 169.334L190.402 162.348C188.472 162.225 186.577 162.906 185.166 164.229C183.756 165.552 182.955 167.4 182.955 169.334H189.955ZM201.984 167.338L199.305 160.871V160.871L201.984 167.338ZM210.724 161.498L205.774 156.549L205.774 156.549L210.724 161.498ZM216.564 152.758L210.097 150.08L210.097 150.08L216.564 152.758ZM218.615 142.449H225.615C225.615 138.583 222.481 135.449 218.615 135.449V142.449ZM210.59 142.449H203.59C203.59 146.315 206.724 149.449 210.59 149.449V142.449ZM210.59 142.449H217.59C217.59 138.583 214.456 135.449 210.59 135.449V142.449ZM185.369 142.449H178.369C178.369 146.315 181.503 149.449 185.369 149.449V142.449ZM194.541 182V189C198.407 189 201.541 185.866 201.541 182H194.541ZM194.541 178.561H201.541C201.541 174.695 198.407 171.561 194.541 171.561V178.561ZM178.491 182H171.491C171.491 185.866 174.625 189 178.491 189V182ZM178.491 178.561V171.561C174.625 171.561 171.491 174.695 171.491 178.561H178.491ZM178.369 129.265V129.266H192.369V129.265H178.369ZM175.052 125.947C176.884 125.947 178.369 127.433 178.369 129.265H192.369C192.369 119.701 184.616 111.947 175.052 111.947V125.947ZM171.755 128.888C171.937 127.236 173.349 125.947 175.052 125.947V111.947C166.133 111.947 158.797 118.683 157.839 127.35L171.755 128.888ZM164.735 135.119H164.797V121.119H164.735V135.119ZM154.417 135.119L164.735 135.119L164.735 121.119L154.417 121.119L154.417 135.119ZM161.67 129.388C161.503 128.986 161.417 128.554 161.417 128.119H147.417C147.417 130.393 147.865 132.645 148.735 134.746L161.67 129.388ZM162.389 130.464C162.081 130.156 161.836 129.791 161.67 129.388L148.735 134.746C149.605 136.847 150.881 138.756 152.489 140.364L162.389 130.464ZM163.465 131.184C163.062 131.017 162.697 130.772 162.389 130.464L152.489 140.364C154.097 141.972 156.006 143.248 158.107 144.118L163.465 131.184ZM164.734 131.436C164.299 131.436 163.867 131.35 163.465 131.184L158.107 144.118C160.208 144.988 162.46 145.436 164.734 145.436L164.734 131.436ZM171.734 142.449V138.436H157.734V142.449H171.734ZM171.734 144.169V142.449H157.734V144.169H171.734ZM164.789 137.169H164.734V151.169H164.789V137.169ZM173.252 150.08C172.413 148.053 171.915 145.905 171.775 143.722L157.803 144.616C158.041 148.332 158.889 151.988 160.318 155.437L173.252 150.08ZM177.575 156.549C175.723 154.697 174.254 152.499 173.252 150.08L160.318 155.437C162.023 159.555 164.523 163.297 167.675 166.448L177.575 156.549ZM184.044 160.871C181.624 159.869 179.426 158.4 177.575 156.549L167.675 166.448C170.827 169.6 174.568 172.1 178.686 173.806L184.044 160.871ZM187.856 162.02C186.553 161.766 185.276 161.382 184.044 160.871L178.686 173.806C180.784 174.674 182.958 175.328 185.176 175.761L187.856 162.02ZM193.516 178.561V168.891H179.516V178.561H193.516ZM189.955 171.561H186.516V185.561H189.955V171.561ZM182.955 169.334V178.561H196.955V169.334H182.955ZM191.674 162.389C191.249 162.389 190.825 162.375 190.402 162.348L189.509 176.32C190.229 176.366 190.951 176.389 191.674 176.389V162.389ZM199.305 160.871C196.886 161.873 194.293 162.389 191.674 162.389V176.389C196.131 176.389 200.545 175.511 204.663 173.806L199.305 160.871ZM205.774 156.549C203.923 158.4 201.724 159.869 199.305 160.871L204.663 173.806C208.781 172.1 212.522 169.6 215.674 166.448L205.774 156.549ZM210.097 150.08C209.095 152.499 207.626 154.697 205.774 156.549L215.674 166.448C218.825 163.297 221.325 159.555 223.031 155.437L210.097 150.08ZM211.615 142.449C211.615 145.067 211.099 147.66 210.097 150.08L223.031 155.437C224.737 151.319 225.615 146.906 225.615 142.449H211.615ZM210.59 149.449H218.615V135.449H210.59V149.449ZM203.59 142.449V142.449H217.59V142.449H203.59ZM192.821 149.449H210.59V135.449H192.821V149.449ZM185.369 149.449H192.821V135.449H185.369V149.449ZM178.369 129.266V142.449H192.369V129.266H178.369ZM201.541 182V178.561H187.541V182H201.541ZM178.491 189H194.541V175H178.491V189ZM171.491 178.561V182H185.491V178.561H171.491ZM194.541 171.561H178.491V185.561H194.541V171.561Z" fill="black" mask="url(#path-10-outside-1)"/>
<rect x="55.8999" y="31.2271" width="33.2453" height="39.0271" rx="11.9874" fill="#A5A5A5"/>
<path d="M54.4076 106.919C54.2535 103.506 56.9788 100.655 60.3952 100.655L66.1715 100.655C69.4817 100.655 72.1652 103.339 72.1652 106.649L72.1652 162.661C72.1652 165.88 69.6222 168.524 66.4054 168.65L63.1637 168.776C59.8702 168.905 57.0909 166.35 56.9422 163.058L54.4076 106.919Z" fill="#FFE2C7"/>
<path d="M67.6299 104.103C66.8147 100.271 69.8168 96.5261 73.7039 96.5258L79.802 96.5253C82.5989 96.5251 84.9286 98.5151 85.3936 101.302L95.2478 160.357C95.7927 163.622 93.6118 166.837 90.3768 167.539L87.1365 168.242C84.0021 168.922 81.0077 166.991 80.3418 163.861L67.6299 104.103Z" fill="#FFE2C7"/>
<rect width="20.1523" height="21.8895" rx="5.99371" transform="matrix(0.982336 -0.187128 0.186679 0.982421 61.5742 109.498)" fill="#FFE2C7"/>
<rect width="8.98982" height="14.9669" rx="4.49491" transform="matrix(-0.258819 0.965926 -0.966087 -0.258218 119.715 104.922)" fill="#FFE2C7"/>
<path fill-rule="evenodd" clip-rule="evenodd" d="M83.5103 73.0491C83.8129 71.7363 84.8667 70.7523 86.1674 70.4038C89.6909 69.4597 93.17 73.869 92.7954 77.499C92.5313 80.0589 92.7202 82.7154 93.4246 85.3576C94.6382 89.9094 97.1987 93.7325 100.547 96.4958C103.064 98.5723 103.917 102.59 101.607 104.898C100.332 106.173 98.3977 106.598 96.835 105.702C90.9266 102.316 86.0208 95.9544 83.8776 87.9157C82.5013 82.7535 82.4565 77.6211 83.5103 73.0491Z" fill="#FFE2C7"/>
<path d="M55.8999 75.4746C55.8999 70.2936 60.2674 66.1848 65.4388 66.5008L78.7739 67.3156C83.4622 67.602 87.1399 71.4491 87.2151 76.1456L87.5599 97.6992C87.6378 102.567 83.8275 106.612 78.9642 106.825L65.2842 107.425C60.1692 107.649 55.8999 103.563 55.8999 98.4427V75.4746Z" fill="#1CC64B"/>
<path d="M55.1008 109.083C55.3746 104.326 59.3119 100.609 64.0765 100.609H80.6889C85.1595 100.609 88.9509 103.894 89.5877 108.319L93.4488 135.147C94.2287 140.566 90.0249 145.418 84.5499 145.418H62.5321C57.3636 145.418 53.2593 141.07 53.5564 135.911L55.1008 109.083Z" fill="#1CC64B"/>
<rect width="10.2601" height="15.7322" rx="5.13005" transform="matrix(-0.610433 0.792068 -0.791333 -0.611386 77.4419 117.848)" fill="#FFE2C7"/>
<path fill-rule="evenodd" clip-rule="evenodd" d="M58.7202 69.0685C59.718 68.2542 61.0897 68.1246 62.2784 68.6215C65.5938 70.0074 65.5566 75.7955 63.0846 78.4022C61.5065 80.0664 60.205 82.0314 59.2763 84.2603C56.7158 90.4053 57.571 97.1579 60.9774 102.539C62.3902 104.77 62.6421 107.703 61.0257 109.79C59.5198 111.734 56.8029 112.432 54.8992 110.873C47.4503 104.775 45.1128 92.5593 49.871 81.1401C51.9417 76.1706 55.0646 72.0519 58.7202 69.0685Z" fill="#FFE2C7"/>
<rect x="58.6018" y="37.3042" width="30.2306" height="26.9717" rx="11.9874" fill="#A5A5A5"/>
<rect x="73.8665" y="36.4062" width="14.9656" height="21.877" rx="7.48282" fill="#A5A5A5"/>
<path d="M88.2956 47.2015C88.2956 58.9914 85.8065 63.4373 78.2649 63.4373C70.7233 63.4373 58.9199 58.1082 58.9199 49.7271C58.9199 41.346 68.5739 30.605 76.1155 30.605C83.657 30.605 88.2956 36.4192 88.2956 47.2015Z" fill="#FFE2C7"/>
<path d="M67.1128 59.1827C67.1128 55.8724 69.7963 53.189 73.1065 53.189H73.6902C77.0005 53.189 79.6839 55.8724 79.6839 59.1827V64.2773C79.6839 67.5876 77.0005 70.271 73.6902 70.271H73.1065C69.7963 70.271 67.1128 67.5876 67.1128 64.2773V59.1827Z" fill="#FFE2C7"/>
<path fill-rule="evenodd" clip-rule="evenodd" d="M59.4544 49.7651C57.9935 42.3777 62.3037 35.2222 69.2142 33.6789C71.6185 33.142 74.0257 33.3541 76.2189 34.1667C77.6797 41.5541 73.3696 48.7096 66.4591 50.2528C64.0548 50.7898 61.6476 50.5777 59.4544 49.7651Z" fill="#A5A5A5"/>
<path fill-rule="evenodd" clip-rule="evenodd" d="M84.0442 33.5406C80.1399 29.9861 74.7646 28.4104 69.5277 29.8163C62.4848 31.7069 57.9165 38.393 57.9954 45.8014C61.6411 48.3015 66.7234 49.2005 71.8242 47.8311C79.1926 45.8531 84.1651 39.7954 84.0442 33.5406Z" fill="#A5A5A5"/>
<path fill-rule="evenodd" clip-rule="evenodd" d="M67.1485 62.2897C63.6246 55.8597 65.1701 47.3414 71.2689 41.9791C76.1605 37.6782 82.6842 36.5478 88.1259 38.5026C87.6134 37.5675 86.9936 36.6765 86.2651 35.8458C80.5272 29.3035 70.2126 28.9792 63.2267 35.1215C56.2408 41.2638 55.2291 51.5467 60.967 58.089C62.6872 60.0503 64.8187 61.4528 67.1485 62.2897Z" fill="#A5A5A5"/>
<path fill-rule="evenodd" clip-rule="evenodd" d="M70.5877 53.8495C70.1217 55.5917 67.8973 56.1044 66.6068 54.844C65.2492 53.518 64.6179 51.5938 65.1183 49.7228C65.5843 47.9806 67.8087 47.4679 69.0992 48.7283C70.4568 50.0543 71.0881 51.9785 70.5877 53.8495Z" fill="#FFE2C7"/>
<path d="M90.3447 52.6419L87.2124 46.8715C86.5356 45.6246 84.6421 46.1053 84.6421 47.5241V54.4846C84.6421 55.4423 85.6008 56.1036 86.496 55.7634L89.6282 54.5733C90.4025 54.2791 90.7398 53.3698 90.3447 52.6419Z" fill="#FFE2C7"/>
<rect width="3.42003" height="5.13005" rx="1.71002" transform="matrix(-0.965926 -0.258819 -0.258819 0.965926 83.1204 47.1855)" fill="black"/>
<rect width="2.23549" height="5.91458" rx="1.11775" transform="matrix(-4.37114e-08 -1 -0.999907 0.0136318 84.1548 42.8491)" fill="black"/>
<path d="M80.4887 57.2831C81.6802 59.0789 83.9088 59.677 85.4675 59.7629L85.8098 59.4209C83.2247 60.0191 80.4887 57.2831 80.4887 57.2831Z" stroke="black" stroke-width="2.25722" stroke-linecap="round" stroke-linejoin="round"/>
<path d="M77.4868 173.166C79.8033 173.439 81.5491 175.402 81.5491 177.735C81.5491 180.275 79.4894 182.335 76.9486 182.335L61.6083 182.335C58.5703 182.335 56.1075 179.872 56.1075 176.834C56.1075 173.541 58.9814 170.986 62.2519 171.371L77.4868 173.166Z" fill="#7F00FF"/>
<path d="M104.855 169.345C107.181 169.173 109.267 170.769 109.709 173.059C110.191 175.553 108.56 177.967 106.065 178.45L91.0033 181.367C88.0207 181.944 85.1359 179.994 84.5597 177.012C83.9352 173.778 86.272 170.723 89.5558 170.48L104.855 169.345Z" fill="#7F00FF"/>
<mask id="path-36-outside-2" maskUnits="userSpaceOnUse" x="40.3975" y="21.3052" width="86" height="169" fill="black">
<rect fill="white" x="40.3975" y="21.3052" width="86" height="169"/>
<path fill-rule="evenodd" clip-rule="evenodd" d="M65.74 31.4189C60.1443 32.431 55.9001 37.3271 55.9001 43.2145V58.2668C55.9001 62.0731 57.6741 65.465 60.4404 67.6609C59.5442 68.1728 58.7431 68.8348 58.0726 69.6137C54.6963 72.5457 51.8184 76.4665 49.8711 81.1399C45.1829 92.3911 47.3832 104.416 54.574 110.6L54.7672 114.881L53.5566 135.91C53.4073 138.503 54.3696 140.891 56.0199 142.625L56.9424 163.058C57.0911 166.35 59.8705 168.905 63.164 168.776L66.4056 168.65C69.6224 168.524 72.1654 165.88 72.1654 162.661V145.418H76.4186L80.3419 163.861C81.0078 166.991 84.0022 168.922 87.1365 168.242L90.3769 167.539C93.6119 166.837 95.7928 163.622 95.2479 160.357L92.0759 141.347C93.2271 139.59 93.776 137.418 93.4491 135.146L89.588 108.319C89.2478 105.955 88.0073 103.916 86.244 102.53C87.1045 101.124 87.5884 99.4657 87.5602 97.6992L87.5406 96.4774C89.9992 100.463 93.2306 103.636 96.8351 105.702C98.3978 106.598 100.332 106.173 101.607 104.899C103.918 102.59 103.064 98.5724 100.548 96.4959C97.1989 93.7326 94.6383 89.9095 93.4248 85.3577C92.7203 82.7155 92.5314 80.059 92.7955 77.4991C93.1701 73.8691 89.691 69.4598 86.1676 70.4039C85.8646 70.485 85.575 70.6007 85.3052 70.747C84.678 69.9466 83.9175 69.2547 83.0561 68.7052C86.6918 66.6465 89.1455 62.7432 89.1455 58.2668V54.7567L89.6283 54.5732C90.4025 54.2791 90.7398 53.3697 90.3447 52.6418L89.1455 50.4325V43.2145C89.1455 38.8715 86.836 35.068 83.3781 32.965C79.5413 29.8198 74.4729 28.4888 69.5278 29.8163C68.1677 30.1814 66.8999 30.7254 65.74 31.4189ZM115.373 103.762C117.771 104.403 119.194 106.866 118.552 109.264C117.909 111.662 115.444 113.086 113.046 112.445L107.272 110.902C104.873 110.261 103.45 107.797 104.093 105.399C104.735 103.002 107.2 101.577 109.598 102.218L115.373 103.762ZM77.4868 173.165C79.8034 173.438 81.5491 175.402 81.5491 177.734C81.5491 180.275 79.4894 182.335 76.9486 182.335H61.6084C58.5703 182.335 56.1075 179.872 56.1075 176.834C56.1075 173.541 58.9814 170.986 62.2519 171.371L77.4868 173.165ZM109.709 173.059C109.267 170.769 107.181 169.173 104.855 169.345L89.556 170.48C86.2722 170.723 83.9354 173.778 84.5599 177.011C85.1361 179.994 88.0209 181.944 91.0035 181.367L106.066 178.45C108.56 177.967 110.191 175.553 109.709 173.059Z"/>
</mask>
<path d="M65.74 31.4189L66.9859 38.3071C67.8145 38.1572 68.6093 37.8591 69.3321 37.4269L65.74 31.4189ZM60.4404 67.6609L63.9118 73.7395C65.9293 72.5874 67.2437 70.5093 67.4202 68.1926C67.5967 65.876 66.6123 63.6228 64.7926 62.1783L60.4404 67.6609ZM58.0726 69.6137L62.6623 74.8991C62.9178 74.6772 63.1569 74.437 63.3777 74.1806L58.0726 69.6137ZM49.8711 81.1399L43.4096 78.4475L49.8711 81.1399ZM54.574 110.6L61.5669 110.284C61.4798 108.357 60.6011 106.551 59.1383 105.293L54.574 110.6ZM54.7672 114.881L61.7557 115.283C61.7694 115.044 61.7709 114.804 61.7601 114.565L54.7672 114.881ZM53.5566 135.91L46.5682 135.508L53.5566 135.91ZM56.0199 142.625L63.0128 142.31C62.9367 140.624 62.254 139.022 61.0906 137.8L56.0199 142.625ZM56.9424 163.058L63.9353 162.742L56.9424 163.058ZM63.164 168.776L63.4371 175.771L63.4372 175.771L63.164 168.776ZM66.4056 168.65L66.1324 161.655H66.1324L66.4056 168.65ZM72.1654 145.418V138.418C68.2994 138.418 65.1654 141.552 65.1654 145.418H72.1654ZM76.4186 145.418L83.2654 143.961C82.5778 140.729 79.7232 138.418 76.4186 138.418V145.418ZM80.3419 163.861L87.1887 162.404L80.3419 163.861ZM87.1365 168.242L85.6526 161.401H85.6526L87.1365 168.242ZM90.3769 167.539L91.8609 174.38H91.8609L90.3769 167.539ZM95.2479 160.357L102.152 159.204L95.2479 160.357ZM92.0759 141.347L86.221 137.51C85.2565 138.982 84.8817 140.763 85.1713 142.499L92.0759 141.347ZM93.4491 135.146L86.5204 136.143L93.4491 135.146ZM89.588 108.319L82.6594 109.316L89.588 108.319ZM86.244 102.53L80.2734 98.876C78.4204 101.904 79.1272 105.839 81.9179 108.033L86.244 102.53ZM87.5602 97.6992L80.5611 97.8111L87.5602 97.6992ZM87.5406 96.4774L93.4983 92.8024C91.844 90.1204 88.6015 88.8744 85.5769 89.7585C82.5522 90.6425 80.4911 93.4386 80.5415 96.5893L87.5406 96.4774ZM96.8351 105.702L93.3539 111.775L93.3539 111.775L96.8351 105.702ZM101.607 104.899L96.6591 99.9473L96.6591 99.9473L101.607 104.899ZM100.548 96.4959L96.0922 101.895L96.0922 101.895L100.548 96.4959ZM93.4248 85.3577L100.188 83.5544V83.5544L93.4248 85.3577ZM92.7955 77.4991L85.8325 76.7806L92.7955 77.4991ZM86.1676 70.4039L84.3558 63.6424L84.3558 63.6424L86.1676 70.4039ZM85.3052 70.747L79.7954 75.0646C81.9015 77.7522 85.6394 78.5282 88.6412 76.9009L85.3052 70.747ZM83.0561 68.7052L79.6069 62.614C77.4697 63.8242 76.1231 66.0659 76.0585 68.5211C75.9939 70.9764 77.2208 73.2858 79.2915 74.6067L83.0561 68.7052ZM89.1455 54.7567L86.6592 48.2131C83.9419 49.2455 82.1455 51.8499 82.1455 54.7567H89.1455ZM89.6283 54.5732L87.142 48.0297L87.142 48.0297L89.6283 54.5732ZM90.3447 52.6418L96.4968 49.3024L96.4968 49.3024L90.3447 52.6418ZM89.1455 50.4325H82.1455C82.1455 51.5989 82.4369 52.7468 82.9934 53.7719L89.1455 50.4325ZM83.3781 32.965L78.9404 38.3786C79.1936 38.5862 79.4611 38.7757 79.7408 38.9458L83.3781 32.965ZM69.5278 29.8163L67.7129 23.0557V23.0557L69.5278 29.8163ZM115.373 103.762L117.18 96.9992H117.18L115.373 103.762ZM113.046 112.445L111.238 119.208L111.238 119.208L113.046 112.445ZM107.272 110.902L105.464 117.664H105.464L107.272 110.902ZM104.093 105.399L110.854 107.211L110.854 107.211L104.093 105.399ZM109.598 102.218L111.406 95.4558L111.406 95.4558L109.598 102.218ZM77.4868 173.165L76.6679 180.117H76.6679L77.4868 173.165ZM62.2519 171.371L61.433 178.323H61.433L62.2519 171.371ZM104.855 169.345L105.373 176.326H105.373L104.855 169.345ZM109.709 173.059L102.836 174.386L102.836 174.386L109.709 173.059ZM89.556 170.48L89.0383 163.499H89.0383L89.556 170.48ZM84.5599 177.011L77.687 178.339V178.339L84.5599 177.011ZM91.0035 181.367L92.3342 188.239H92.3342L91.0035 181.367ZM106.066 178.45L104.735 171.578H104.735L106.066 178.45ZM62.9001 43.2145C62.9001 40.7724 64.6623 38.7274 66.9859 38.3071L64.4941 24.5306C55.6263 26.1346 48.9001 33.8818 48.9001 43.2145H62.9001ZM62.9001 58.2668V43.2145H48.9001V58.2668H62.9001ZM64.7926 62.1783C63.6271 61.2532 62.9001 59.847 62.9001 58.2668H48.9001C48.9001 64.2991 51.7212 69.6769 56.0883 73.1435L64.7926 62.1783ZM63.3777 74.1806C63.5302 74.0034 63.712 73.8537 63.9118 73.7395L56.9691 61.5823C55.3764 62.4918 53.956 63.6662 52.7675 65.0469L63.3777 74.1806ZM56.3326 83.8323C57.8758 80.1288 60.1236 77.1036 62.6623 74.8991L53.4829 64.3284C49.2689 67.9877 45.7611 72.8043 43.4096 78.4475L56.3326 83.8323ZM59.1383 105.293C54.8101 101.571 52.4942 93.0441 56.3326 83.8323L43.4096 78.4475C37.8716 91.7382 39.9562 107.261 50.0097 115.907L59.1383 105.293ZM61.7601 114.565L61.5669 110.284L47.5811 110.916L47.7744 115.196L61.7601 114.565ZM60.545 136.313L61.7557 115.283L47.7788 114.478L46.5682 135.508L60.545 136.313ZM61.0906 137.8C60.7159 137.406 60.5119 136.889 60.545 136.313L46.5682 135.508C46.3028 140.118 48.0233 144.377 50.9493 147.451L61.0906 137.8ZM63.9353 162.742L63.0128 142.31L49.027 142.941L49.9495 163.373L63.9353 162.742ZM62.8908 161.782C63.4437 161.76 63.9103 162.189 63.9353 162.742L49.9495 163.373C50.2718 170.511 56.2972 176.05 63.4371 175.771L62.8908 161.782ZM66.1324 161.655L62.8907 161.782L63.4372 175.771L66.6788 175.644L66.1324 161.655ZM65.1654 162.661C65.1654 162.12 65.5923 161.676 66.1324 161.655L66.6788 175.644C73.6524 175.372 79.1654 169.639 79.1654 162.661H65.1654ZM65.1654 145.418V162.661H79.1654V145.418H65.1654ZM76.4186 138.418H72.1654V152.418H76.4186V138.418ZM87.1887 162.404L83.2654 143.961L69.5718 146.874L73.4951 165.317L87.1887 162.404ZM85.6526 161.401C85.9211 161.343 86.285 161.39 86.607 161.597C86.9295 161.805 87.1288 162.123 87.1887 162.404L73.4951 165.317C74.9706 172.254 81.7112 176.582 88.6205 175.083L85.6526 161.401ZM88.893 160.698L85.6526 161.401L88.6205 175.083L91.8609 174.38L88.893 160.698ZM88.3434 161.509C88.3005 161.251 88.3769 161.068 88.4364 160.98C88.496 160.892 88.6381 160.754 88.893 160.698L91.8609 174.38C98.7457 172.887 103.312 166.153 102.152 159.204L88.3434 161.509ZM85.1713 142.499L88.3434 161.509L102.152 159.204L98.9804 140.195L85.1713 142.499ZM86.5204 136.143C86.5945 136.658 86.4764 137.121 86.221 137.51L97.9308 145.184C99.9778 142.06 100.958 138.178 100.378 134.149L86.5204 136.143ZM82.6594 109.316L86.5204 136.143L100.378 134.149L96.5166 107.321L82.6594 109.316ZM81.9179 108.033C82.3155 108.346 82.5841 108.793 82.6594 109.316L96.5166 107.321C95.9115 103.117 93.6992 99.4867 90.5701 97.0269L81.9179 108.033ZM80.5611 97.8111C80.5675 98.2117 80.4613 98.569 80.2734 98.876L92.2146 106.184C93.7478 103.679 94.6094 100.72 94.5593 97.5872L80.5611 97.8111ZM80.5415 96.5893L80.5611 97.8111L94.5593 97.5872L94.5397 96.3654L80.5415 96.5893ZM100.316 99.6294C97.8141 98.1951 95.401 95.8868 93.4983 92.8024L81.5829 100.152C84.5974 105.039 88.647 109.077 93.3539 111.775L100.316 99.6294ZM96.6591 99.9473C97.1988 99.4079 98.6555 98.6775 100.316 99.6294L93.3539 111.775C98.1402 114.519 103.465 112.939 106.555 109.85L96.6591 99.9473ZM96.0922 101.895C96.0228 101.838 96.0043 101.802 96.0037 101.801C96.0014 101.797 95.9972 101.789 95.9919 101.774C95.9866 101.759 95.9769 101.727 95.969 101.676C95.9545 101.582 95.9362 101.349 96.0296 101.016C96.1302 100.656 96.3394 100.267 96.6591 99.9473L106.555 109.85C109.596 106.812 110.313 102.835 109.806 99.5443C109.31 96.3236 107.609 93.2472 105.003 91.0968L96.0922 101.895ZM86.661 87.1611C88.2598 93.1576 91.6463 98.2262 96.0922 101.895L105.003 91.0968C102.751 89.239 101.017 86.6614 100.188 83.5544L86.661 87.1611ZM85.8325 76.7806C85.4823 80.1747 85.7346 83.6861 86.661 87.1611L100.188 83.5544C99.706 81.7448 99.5805 79.9432 99.7586 78.2176L85.8325 76.7806ZM87.9793 77.1653C87.1788 77.3798 86.4764 77.2416 86.0675 77.0725C85.715 76.9268 85.623 76.7863 85.6845 76.8562C85.7368 76.9157 85.7982 77.0171 85.8301 77.1055C85.8651 77.2021 85.8001 77.0947 85.8325 76.7806L99.7586 78.2176C100.184 74.0971 98.4872 70.2172 96.2021 67.6162C93.9467 65.0489 89.6464 62.2248 84.3558 63.6424L87.9793 77.1653ZM88.6412 76.9009C88.4262 77.0174 88.204 77.1051 87.9793 77.1653L84.3558 63.6424C83.5252 63.8649 82.7238 64.1839 81.9692 64.593L88.6412 76.9009ZM79.2915 74.6067C79.4826 74.7287 79.6539 74.884 79.7954 75.0646L90.815 66.4293C89.7021 65.0091 88.3524 63.7808 86.8207 62.8037L79.2915 74.6067ZM82.1455 58.2668C82.1455 60.1201 81.1378 61.7471 79.6069 62.614L86.5053 74.7965C92.2459 71.5459 96.1455 65.3662 96.1455 58.2668H82.1455ZM82.1455 54.7567V58.2668H96.1455V54.7567H82.1455ZM87.142 48.0297L86.6592 48.2131L91.6317 61.3003L92.1145 61.1168L87.142 48.0297ZM84.1926 55.9812C82.5659 52.9844 83.9544 49.2408 87.142 48.0297L92.1145 61.1168C96.8506 59.3174 98.9138 53.7551 96.4968 49.3024L84.1926 55.9812ZM82.9934 53.7719L84.1926 55.9812L96.4968 49.3024L95.2976 47.0931L82.9934 53.7719ZM82.1455 43.2145V50.4325H96.1455V43.2145H82.1455ZM79.7408 38.9458C81.1977 39.8319 82.1455 41.4157 82.1455 43.2145H96.1455C96.1455 36.3273 92.4743 30.3041 87.0155 26.9843L79.7408 38.9458ZM71.3427 36.577C73.9066 35.8887 76.6808 36.5263 78.9404 38.3786L87.8159 27.5515C82.4018 23.1134 75.0392 21.089 67.7129 23.0557L71.3427 36.577ZM69.3321 37.4269C69.9449 37.0606 70.6155 36.7722 71.3427 36.577L67.7129 23.0557C65.7199 23.5907 63.8549 24.3903 62.1479 25.4108L69.3321 37.4269ZM125.313 111.076C126.957 104.942 123.315 98.6389 117.18 96.9992L113.565 110.524C112.227 110.167 111.432 108.79 111.79 107.452L125.313 111.076ZM111.238 119.208C117.37 120.847 123.671 117.206 125.313 111.076L111.79 107.452C112.148 106.118 113.519 105.326 114.854 105.683L111.238 119.208ZM105.464 117.664L111.238 119.208L114.854 105.683L109.079 104.139L105.464 117.664ZM97.3311 103.588C95.6875 109.722 99.3293 116.025 105.464 117.664L109.079 104.139C110.417 104.497 111.213 105.873 110.854 107.211L97.3311 103.588ZM111.406 95.4558C105.274 93.8169 98.9737 97.4572 97.331 103.588L110.854 107.211C110.496 108.546 109.126 109.338 107.791 108.981L111.406 95.4558ZM117.18 96.9992L111.406 95.4558L107.791 108.981L113.565 110.524L117.18 96.9992ZM88.5491 177.734C88.5491 171.852 84.1471 166.902 78.3057 166.213L76.6679 180.117C75.4596 179.975 74.5491 178.951 74.5491 177.734H88.5491ZM76.9486 189.335C83.3554 189.335 88.5491 184.141 88.5491 177.734H74.5491C74.5491 176.409 75.6234 175.335 76.9486 175.335V189.335ZM61.6084 189.335H76.9486V175.335H61.6084V189.335ZM49.1075 176.834C49.1075 183.738 54.7043 189.335 61.6084 189.335V175.335C62.4363 175.335 63.1075 176.006 63.1075 176.834H49.1075ZM63.0708 164.419C55.6385 163.543 49.1075 169.35 49.1075 176.834H63.1075C63.1075 177.731 62.3243 178.428 61.433 178.323L63.0708 164.419ZM78.3057 166.213L63.0708 164.419L61.433 178.323L76.6679 180.117L78.3057 166.213ZM105.373 176.326C104.158 176.416 103.067 175.582 102.836 174.386L116.582 171.731C115.467 165.955 110.204 161.929 104.337 162.364L105.373 176.326ZM90.0736 177.46L105.373 176.326L104.337 162.364L89.0383 163.499L90.0736 177.46ZM91.4329 175.684C91.6028 176.563 90.968 177.394 90.0736 177.46L89.0383 163.499C81.5764 164.052 76.2681 170.993 77.687 178.339L91.4329 175.684ZM89.6728 174.494C90.487 174.337 91.2756 174.87 91.4329 175.684L77.687 178.339C78.9965 185.119 85.5549 189.552 92.3342 188.239L89.6728 174.494ZM104.735 171.578L89.6727 174.494L92.3342 188.239L107.396 185.322L104.735 171.578ZM102.836 174.386C102.585 173.086 103.435 171.829 104.735 171.578L107.396 185.322C113.685 184.105 117.797 178.02 116.582 171.731L102.836 174.386Z" fill="black" mask="url(#path-36-outside-2)"/>
<path d="M116.5 115C124 140.5 147 164 191 138.5" stroke="black" stroke-width="7"/>
</g>
<rect x="3.5" y="3.5" width="282" height="182" rx="23.5" stroke="#FF0000" stroke-width="7"/>
<defs>
<clipPath id="clip0">
</clipPath>
</defs>
</svg>
