<svg width="466" height="373" viewBox="0 0 466 373" fill="none" xmlns="http://www.w3.org/2000/svg">
<path d="M331.889 76.1371L444.343 181.438L301.69 324.489L331.889 76.1371Z" fill="#D3D3D3" stroke="black" stroke-width="8.61436"/>
<circle cx="186.07" cy="186.07" r="181.763" fill="white" stroke="black" stroke-width="8.61436"/>
<mask id="mask0" mask-type="alpha" maskUnits="userSpaceOnUse" x="0" y="0" width="373" height="373">
<circle cx="186.07" cy="186.07" r="181.763" fill="white" stroke="black" stroke-width="8.61436"/>
</mask>
<g mask="url(#mask0)">
<path d="M301.072 136.538L292.889 138.26C294.612 141.706 294.181 141.275 295.473 142.998C300.642 141.965 301.359 138.26 301.072 136.538Z" fill="white" stroke="black" stroke-width="0.861436"/>
<ellipse cx="80.1133" cy="302.795" rx="124.047" ry="17.6594" fill="#D3D3D3"/>
<path d="M141.381 258.768C144.994 265.391 155.057 262.824 155.057 255.28L155.057 199.968C155.057 198.749 154.751 197.549 154.167 196.479L135.231 161.778C131.617 155.155 121.555 157.722 121.555 165.266L121.555 220.578C121.555 221.797 121.861 222.997 122.445 224.067L141.381 258.768Z" fill="#FF0000"/>
<path d="M20.1594 258.768C16.5456 265.391 6.4834 262.824 6.4834 255.28L6.48339 199.968C6.48339 198.749 6.78937 197.549 7.37327 196.479L26.309 161.778C29.9228 155.155 39.985 157.722 39.985 165.266L39.985 220.578C39.985 221.797 39.6791 222.997 39.0952 224.067L20.1594 258.768Z" fill="#FF0000"/>
<path d="M80.7701 225.57L80.7701 -11.7548C85.2362 -8.47095 90.8838 -3.43643 98.2491 3.43779C98.2491 3.43779 129.566 35.4828 131.022 71.8976C132.479 108.312 121.555 219.744 121.555 219.744C121.555 222.962 118.946 225.57 115.728 225.57L80.7701 225.57Z" fill="white"/>
<path d="M80.7701 225.57L80.7701 -11.7548C76.3039 -8.47095 70.6562 -3.43643 63.2909 3.43779C63.2909 3.43779 31.9741 35.4828 30.5175 71.8977C29.0609 108.312 39.9854 219.744 39.9854 219.744C39.9854 222.962 42.5939 225.57 45.8117 225.57L80.7701 225.57Z" fill="white"/>
<path d="M115.728 229.877C117.315 229.877 118.817 229.513 120.154 228.862L137.599 260.832C143.35 271.371 159.363 267.286 159.363 255.28L159.363 199.968C159.363 198.028 158.876 196.119 157.947 194.416L139.011 159.715C137.248 156.483 134.519 154.626 131.584 153.951C133.947 123.082 136.022 89.1307 135.326 71.7255C134.554 52.4168 125.909 34.5367 117.721 21.6963C113.6 15.2336 109.528 9.9454 106.482 6.26678C104.958 4.42565 103.686 2.98275 102.788 1.99231C102.339 1.49697 101.982 1.11441 101.734 0.851406C101.61 0.719875 101.513 0.618221 101.445 0.547268L101.365 0.463985L101.341 0.439785L101.334 0.432094L101.331 0.429348C101.33 0.42828 101.329 0.427334 98.2488 3.43777L101.329 0.427334L101.26 0.356533L101.188 0.288967C93.8341 -6.57425 88.0168 -11.7724 83.3212 -15.2249L80.7697 -17.101L78.2183 -15.2249C73.5227 -11.7725 67.7052 -6.57428 60.3517 0.288969L60.2793 0.356535L60.2102 0.427335L63.2906 3.43777C60.2102 0.427335 60.2092 0.428281 60.2082 0.429349L60.2055 0.432096L60.198 0.439786L60.1745 0.463987L60.0942 0.547269C60.0261 0.618223 59.929 0.719877 59.805 0.851408C59.557 1.11441 59.2008 1.49698 58.7516 1.99231C57.8533 2.98276 56.5816 4.42566 55.0571 6.26678C52.0111 9.9454 47.9396 15.2336 43.8185 21.6963C35.6304 34.5367 26.9858 52.4168 26.2134 71.7255C25.5172 89.1307 27.592 123.082 29.9558 153.951C27.0201 154.626 24.2916 156.483 22.5281 159.715L3.59237 194.416C2.66314 196.119 2.17621 198.028 2.17621 199.968L2.17622 255.28C2.17622 267.286 18.1892 271.371 23.9403 260.832L41.3853 228.862C42.7226 229.513 44.2244 229.877 45.8114 229.877L80.7697 229.877L115.728 229.877Z" stroke="black" stroke-width="8.61436"/>
<mask id="path-10-outside-1" maskUnits="userSpaceOnUse" x="213.528" y="95.6289" width="179" height="221" fill="black">
<rect fill="white" x="213.528" y="95.6289" width="179" height="221"/>
<path fill-rule="evenodd" clip-rule="evenodd" d="M318.957 146.485L318.786 142.893C320.873 141.859 322.834 140.47 324.578 138.727C332.981 130.324 333.147 116.867 324.95 108.67C318.277 101.997 308.121 100.866 300.041 105.208C296.792 105.541 293.691 106.775 291.122 108.945C291.415 110.306 291.885 111.631 292.514 112.889C290.525 116.331 289.443 121.015 289.443 126.858C289.443 140.621 292.136 146.438 300.094 147.214C300.15 148.384 300.473 149.485 301.004 150.455C296.542 150.532 292.626 153.209 290.864 157.15C286.539 159.577 282.238 163.857 281.328 166.91C280.701 169.017 279.807 171.085 278.636 173.067C276.602 176.511 273.937 179.346 270.885 181.508C270.789 181.198 270.672 180.889 270.533 180.585L257.365 151.746C255.633 147.954 251.155 146.283 247.363 148.015L225.047 158.204C221.255 159.936 219.584 164.414 221.316 168.206L234.484 197.046C236.215 200.838 240.693 202.508 244.486 200.777L251.071 197.77L254.21 197.723C256.649 197.686 258.704 196.111 259.468 193.936L262.659 192.479C262.756 192.734 262.874 192.986 263.013 193.233C263.866 194.745 265.384 195.806 267.12 195.821C272.975 195.874 279.073 193.808 284.492 189.971L283.139 197.318C282.55 200.514 283.395 203.789 285.756 205.788L284.931 218.805H237.757H229.143C224.385 218.805 220.528 222.662 220.528 227.419V237.757C220.528 242.514 224.385 246.371 229.143 246.371H229.143V301.503C229.143 306.261 233 310.117 237.757 310.117H377.31C382.068 310.117 385.924 306.261 385.924 301.503V227.419C385.924 222.662 382.068 218.805 377.31 218.805H368.695H337.741L337.692 209.792C337.685 208.665 337.435 207.614 336.994 206.683C337.218 206.523 337.43 206.364 337.629 206.209C339.722 204.577 340.214 201.837 339.747 199.225L339.174 196.021C342.712 188.008 342.821 177.623 338.684 167.713C336.837 163.287 334.327 159.397 331.385 156.168C329.417 152.717 325.709 150.454 321.547 150.454H318.048C318.688 149.281 319.026 147.922 318.957 146.485Z"/>
</mask>
<path d="M318.786 142.893L316.111 137.489C313.963 138.552 312.649 140.786 312.763 143.179L318.786 142.893ZM318.957 146.485L324.98 146.198L324.98 146.198L318.957 146.485ZM324.95 108.67L329.214 104.406L329.214 104.406L324.95 108.67ZM300.041 105.208L300.657 111.206C301.441 111.126 302.201 110.892 302.895 110.519L300.041 105.208ZM291.122 108.945L287.231 104.338C285.528 105.776 284.757 108.037 285.227 110.217L291.122 108.945ZM292.514 112.889L297.734 115.907C298.749 114.152 298.814 112.005 297.907 110.193L292.514 112.889ZM300.094 147.214L306.117 146.923C305.972 143.934 303.658 141.504 300.68 141.213L300.094 147.214ZM301.004 150.455L301.107 156.485C303.217 156.448 305.154 155.312 306.216 153.488C307.277 151.664 307.307 149.418 306.296 147.566L301.004 150.455ZM290.864 157.15L293.814 162.409C294.944 161.776 295.84 160.795 296.369 159.612L290.864 157.15ZM281.328 166.91L275.55 165.188L275.55 165.188L281.328 166.91ZM278.636 173.067L283.828 176.134L283.828 176.134L278.636 173.067ZM270.885 181.508L265.121 183.283C265.69 185.131 267.112 186.594 268.942 187.217C270.773 187.84 272.792 187.547 274.37 186.429L270.885 181.508ZM270.533 180.585L265.048 183.09L265.048 183.09L270.533 180.585ZM257.365 151.746L262.85 149.241L262.85 149.241L257.365 151.746ZM247.363 148.015L244.859 142.529L244.859 142.529L247.363 148.015ZM225.047 158.204L227.552 163.69L227.552 163.69L225.047 158.204ZM221.316 168.206L215.83 170.711L215.83 170.711L221.316 168.206ZM234.484 197.046L239.969 194.541L239.969 194.541L234.484 197.046ZM244.486 200.777L246.99 206.262L246.99 206.262L244.486 200.777ZM251.071 197.77L250.979 191.741C250.146 191.753 249.324 191.939 248.566 192.285L251.071 197.77ZM254.21 197.723L254.301 203.752L254.301 203.752L254.21 197.723ZM259.468 193.936L256.963 188.451C255.471 189.132 254.321 190.392 253.778 191.94L259.468 193.936ZM262.659 192.479L268.296 190.337C267.704 188.778 266.493 187.534 264.95 186.901C263.408 186.267 261.672 186.301 260.155 186.993L262.659 192.479ZM263.013 193.233L257.761 196.196L257.761 196.196L263.013 193.233ZM267.12 195.821L267.065 201.851L267.065 201.851L267.12 195.821ZM284.492 189.971L290.423 191.064C290.867 188.652 289.806 186.21 287.739 184.89C285.672 183.569 283.011 183.632 281.008 185.05L284.492 189.971ZM283.139 197.318L277.209 196.226L277.209 196.226L283.139 197.318ZM285.756 205.788L291.774 206.169C291.894 204.266 291.108 202.418 289.652 201.185L285.756 205.788ZM284.931 218.805V224.835C288.113 224.835 290.748 222.362 290.949 219.186L284.931 218.805ZM229.143 246.371H235.173C235.173 243.041 232.473 240.341 229.143 240.341V246.371ZM337.741 218.805L331.711 218.838C331.73 222.156 334.424 224.835 337.741 224.835V218.805ZM337.692 209.792L331.662 209.825L331.662 209.825L337.692 209.792ZM336.994 206.683L333.486 201.779C331.113 203.476 330.296 206.629 331.545 209.265L336.994 206.683ZM337.629 206.209L341.337 210.965L341.337 210.965L337.629 206.209ZM339.747 199.225L333.811 200.286L333.811 200.286L339.747 199.225ZM339.174 196.021L333.658 193.585C333.173 194.683 333.027 195.901 333.238 197.082L339.174 196.021ZM338.684 167.713L333.119 170.036L333.119 170.036L338.684 167.713ZM331.385 156.168L326.147 159.156C326.367 159.541 326.629 159.901 326.928 160.229L331.385 156.168ZM318.048 150.454L312.755 147.565C311.735 149.433 311.776 151.701 312.862 153.531C313.949 155.362 315.919 156.484 318.048 156.484V150.454ZM312.763 143.179L312.934 146.771L324.98 146.198L324.809 142.606L312.763 143.179ZM320.314 134.463C319.039 135.738 317.616 136.743 316.111 137.489L321.462 148.297C324.13 146.976 326.629 145.203 328.842 142.991L320.314 134.463ZM320.686 112.934C326.43 118.677 326.462 128.315 320.314 134.463L328.842 142.991C339.499 132.333 339.865 115.057 329.214 104.406L320.686 112.934ZM302.895 110.519C308.773 107.361 316.007 108.255 320.686 112.934L329.214 104.406C320.548 95.7405 307.468 94.3713 297.187 99.8957L302.895 110.519ZM295.012 113.552C296.594 112.216 298.532 111.424 300.657 111.206L299.425 99.209C295.052 99.6582 290.789 101.333 287.231 104.338L295.012 113.552ZM297.907 110.193C297.499 109.376 297.201 108.529 297.016 107.673L285.227 110.217C285.63 112.083 286.27 113.886 287.12 115.586L297.907 110.193ZM295.473 126.858C295.473 121.688 296.44 118.146 297.734 115.907L287.293 109.872C284.609 114.515 283.413 120.342 283.413 126.858H295.473ZM300.68 141.213C299.376 141.086 298.685 140.792 298.301 140.549C297.957 140.33 297.565 139.969 297.156 139.167C296.185 137.262 295.473 133.622 295.473 126.858H283.413C283.413 133.858 284.048 140.007 286.412 144.645C287.671 147.115 289.445 149.214 291.844 150.734C294.204 152.231 296.833 152.955 299.508 153.216L300.68 141.213ZM306.296 147.566C306.192 147.376 306.128 147.161 306.117 146.923L294.071 147.506C294.173 149.607 294.755 151.594 295.711 153.345L306.296 147.566ZM296.369 159.612C297.193 157.769 299.027 156.52 301.107 156.485L300.9 144.426C294.056 144.544 288.06 148.65 285.359 154.689L296.369 159.612ZM287.107 168.632C287.093 168.679 287.174 168.42 287.559 167.861C287.92 167.337 288.44 166.709 289.11 166.028C290.468 164.65 292.177 163.328 293.814 162.409L287.914 151.892C285.226 153.4 282.622 155.43 280.521 157.563C278.56 159.552 276.428 162.24 275.55 165.188L287.107 168.632ZM283.828 176.134C285.25 173.726 286.34 171.207 287.107 168.632L275.55 165.188C275.061 166.828 274.364 168.444 273.444 170L283.828 176.134ZM274.37 186.429C278.104 183.784 281.354 180.321 283.828 176.134L273.444 170C271.849 172.701 269.77 174.908 267.399 176.588L274.37 186.429ZM265.048 183.09C265.078 183.156 265.102 183.22 265.121 183.283L276.648 179.734C276.475 179.175 276.266 178.622 276.018 178.081L265.048 183.09ZM251.88 154.251L265.048 183.09L276.018 178.081L262.85 149.241L251.88 154.251ZM249.868 153.5C250.631 153.152 251.531 153.488 251.88 154.251L262.85 149.241C259.735 142.42 251.68 139.415 244.859 142.529L249.868 153.5ZM227.552 163.69L249.868 153.5L244.859 142.529L222.542 152.719L227.552 163.69ZM226.801 165.702C226.453 164.939 226.789 164.038 227.552 163.69L222.542 152.719C215.721 155.834 212.716 163.889 215.83 170.711L226.801 165.702ZM239.969 194.541L226.801 165.702L215.83 170.711L228.999 199.55L239.969 194.541ZM241.981 195.292C241.218 195.64 240.318 195.304 239.969 194.541L228.999 199.55C232.113 206.372 240.169 209.377 246.99 206.262L241.981 195.292ZM248.566 192.285L241.981 195.292L246.99 206.262L253.575 203.255L248.566 192.285ZM254.118 191.693L250.979 191.741L251.162 203.8L254.301 203.752L254.118 191.693ZM253.778 191.94C253.805 191.861 253.85 191.806 253.902 191.768C253.964 191.723 254.047 191.694 254.118 191.693L254.301 203.752C259.348 203.676 263.585 200.415 265.158 195.932L253.778 191.94ZM260.155 186.993L256.963 188.451L261.972 199.421L265.164 197.964L260.155 186.993ZM268.266 190.27C268.275 190.287 268.286 190.309 268.296 190.337L257.023 194.621C257.227 195.159 257.473 195.685 257.761 196.196L268.266 190.27ZM267.175 189.791C267.546 189.795 267.84 189.915 268.017 190.029C268.18 190.135 268.244 190.232 268.266 190.27L257.761 196.196C259.474 199.231 262.795 201.812 267.065 201.851L267.175 189.791ZM281.008 185.05C276.467 188.265 271.585 189.831 267.175 189.791L267.065 201.851C274.365 201.917 281.678 199.351 287.976 194.893L281.008 185.05ZM289.069 198.411L290.423 191.064L278.562 188.879L277.209 196.226L289.069 198.411ZM289.652 201.185C289.321 200.905 288.772 200.022 289.069 198.411L277.209 196.226C276.328 201.007 277.468 206.672 281.86 210.39L289.652 201.185ZM290.949 219.186L291.774 206.169L279.738 205.406L278.913 218.424L290.949 219.186ZM237.757 224.835H284.931V212.775H237.757V224.835ZM229.143 224.835H237.757V212.775H229.143V224.835ZM226.558 227.419C226.558 225.992 227.715 224.835 229.143 224.835V212.775C221.055 212.775 214.498 219.332 214.498 227.419H226.558ZM226.558 237.757V227.419H214.498V237.757H226.558ZM229.143 240.341C227.715 240.341 226.558 239.184 226.558 237.757H214.498C214.498 245.845 221.055 252.401 229.143 252.401V240.341ZM229.143 240.341H229.143V252.401H229.143V240.341ZM235.173 301.503V246.371H223.113V301.503H235.173ZM237.757 304.087C236.33 304.087 235.173 302.93 235.173 301.503H223.113C223.113 309.591 229.669 316.147 237.757 316.147V304.087ZM377.31 304.087H237.757V316.147H377.31V304.087ZM379.894 301.503C379.894 302.93 378.737 304.087 377.31 304.087V316.147C385.398 316.147 391.954 309.591 391.954 301.503H379.894ZM379.894 227.419V301.503H391.954V227.419H379.894ZM377.31 224.835C378.737 224.835 379.894 225.992 379.894 227.419H391.954C391.954 219.332 385.398 212.775 377.31 212.775V224.835ZM368.695 224.835H377.31V212.775H368.695V224.835ZM337.741 224.835H368.695V212.775H337.741V224.835ZM331.662 209.825L331.711 218.838L343.771 218.772L343.722 209.759L331.662 209.825ZM331.545 209.265C331.608 209.398 331.66 209.579 331.662 209.825L343.722 209.759C343.711 207.75 343.263 205.829 342.444 204.101L331.545 209.265ZM333.922 201.453C333.787 201.558 333.642 201.667 333.486 201.779L340.503 211.587C340.795 211.378 341.072 211.171 341.337 210.965L333.922 201.453ZM333.811 200.286C333.923 200.911 333.875 201.331 333.824 201.521C333.802 201.603 333.789 201.611 333.811 201.575C333.838 201.533 333.88 201.486 333.922 201.453L341.337 210.965C345.894 207.411 346.358 201.94 345.683 198.163L333.811 200.286ZM333.238 197.082L333.811 200.286L345.683 198.163L345.11 194.959L333.238 197.082ZM333.119 170.036C336.688 178.586 336.458 187.242 333.658 193.585L344.69 198.456C348.965 188.775 348.953 176.661 344.249 165.39L333.119 170.036ZM326.928 160.229C329.397 162.94 331.535 166.241 333.119 170.036L344.249 165.39C342.138 160.334 339.256 155.854 335.843 152.107L326.928 160.229ZM321.547 156.484C323.488 156.484 325.224 157.537 326.147 159.156L336.623 153.181C333.61 147.898 327.931 144.424 321.547 144.424V156.484ZM318.048 156.484H321.547V144.424H318.048V156.484ZM312.934 146.771C312.948 147.072 312.88 147.336 312.755 147.565L323.341 153.343C324.496 151.226 325.103 148.772 324.98 146.198L312.934 146.771Z" fill="black" mask="url(#path-10-outside-1)"/>
<path d="M312.874 209.029C313.588 204.932 310.832 200.873 306.728 199.976L294.636 197.331C290.236 196.369 286.158 199.426 285.874 203.899L281.386 274.722C281.122 278.883 284.267 282.631 288.41 283.093L293.032 283.608C296.86 284.035 300.258 281.499 300.915 277.724L312.874 209.029Z" fill="#EB03FF"/>
<path d="M310.517 213.643C310.052 209.578 312.928 205.73 316.989 204.985L329.152 202.752C333.654 201.925 337.666 205.233 337.691 209.792L338.082 280.665C338.105 284.774 334.851 288.305 330.758 288.613L326.11 288.962C322.205 289.256 318.867 286.507 318.423 282.633L310.517 213.643Z" fill="#EB03FF"/>
<path d="M312.066 296.079C309.148 296.422 306.949 298.895 306.949 301.832V301.832C306.949 305.032 309.543 307.626 312.743 307.626L332.102 307.626C335.928 307.626 339.03 304.524 339.03 300.697V300.697C339.03 296.55 335.411 293.332 331.292 293.817L312.066 296.079Z" fill="#A5A5A5"/>
<path d="M272.074 289.786C269.158 290.143 266.971 292.625 266.984 295.563V295.563C266.999 298.763 269.605 301.345 272.804 301.33L292.163 301.241C295.99 301.224 299.077 298.107 299.06 294.281V294.281C299.041 290.134 295.407 286.932 291.29 287.436L272.074 289.786Z" fill="#A5A5A5"/>
<rect width="32.5714" height="32.5294" rx="7.54846" transform="matrix(-0.998446 -0.0557333 -0.0557333 0.998446 327.752 200.956)" fill="#EB03FF"/>
<path fill-rule="evenodd" clip-rule="evenodd" d="M301.068 159.858C301.144 158.184 300.211 156.653 298.768 155.801V155.801C294.123 153.057 282.866 161.741 281.326 166.91C280.698 169.017 279.804 171.085 278.633 173.067C275.723 177.993 271.524 181.675 266.743 183.921C263.24 185.568 261.108 189.862 263.01 193.233V193.233C263.863 194.745 265.381 195.805 267.116 195.821C277.576 195.917 288.812 189.247 295.572 177.803C299.003 171.996 300.801 165.772 301.068 159.858Z" fill="#0094FF"/>
<path d="M332.691 159.783C331.725 154.384 327.029 150.454 321.545 150.454H301.197C295.735 150.454 291.052 154.353 290.062 159.725L283.136 197.318C282.451 201.036 283.706 204.86 287.031 206.659C291.91 209.298 300.497 212.515 313.366 212.515C326.978 212.515 334.154 208.916 337.627 206.209C339.72 204.577 340.212 201.837 339.745 199.224L332.691 159.783Z" fill="#00E0FF"/>
<rect width="11.3227" height="18.8712" rx="5.66135" transform="matrix(0.0151471 0.999885 0.999885 -0.0151471 240.827 186.602)" fill="#C17A38"/>
<rect width="11.3227" height="18.8712" rx="5.66135" transform="matrix(0.610909 0.791701 0.791701 -0.610909 302.203 216.518)" fill="#C17A38"/>
<path fill-rule="evenodd" clip-rule="evenodd" d="M327.249 152.286C326.158 151.414 324.673 151.271 323.384 151.809V151.809C318.953 153.659 318.409 173.488 320.53 177.795C320.754 178.25 320.965 178.715 321.163 179.189C323.911 185.771 323.545 192.906 320.736 199.06C319.645 201.449 319.67 204.297 321.279 206.372L321.506 206.664C322.824 208.363 325.038 209.194 327.021 208.366V208.366C340.487 202.746 345.707 184.545 338.682 167.714C336.018 161.331 331.976 156.062 327.249 152.286Z" fill="#0094FF"/>
<rect x="218.18" y="161.339" width="39.6294" height="46.8005" rx="7.54846" transform="rotate(-24.5416 218.18 161.339)" fill="#6B6E70"/>
<path d="M233.443 177.109C233.439 176.87 233.534 176.703 233.73 176.609C233.853 176.55 233.983 176.538 234.12 176.572C234.257 176.607 234.355 176.686 234.414 176.808C234.449 176.881 234.464 176.955 234.459 177.027L234.543 183.319C234.545 183.448 234.513 183.569 234.446 183.682C234.376 183.786 234.283 183.866 234.169 183.921C234.063 183.972 233.947 183.992 233.822 183.982C233.692 183.964 233.574 183.915 233.465 183.837L228.618 179.835C228.558 179.794 228.512 179.74 228.48 179.675C228.422 179.552 228.424 179.421 228.487 179.28C228.558 179.135 228.659 179.031 228.789 178.969C228.871 178.929 228.96 178.917 229.057 178.93C229.162 178.94 229.257 178.98 229.341 179.05L233.593 182.66L233.443 177.109ZM238.716 181.765C238.569 181.836 238.427 181.854 238.29 181.819C238.157 181.773 238.053 181.672 237.979 181.517L235.495 176.349C235.421 176.194 235.409 176.054 235.459 175.929C235.514 175.792 235.615 175.688 235.762 175.617C235.909 175.547 236.049 175.535 236.182 175.582C236.311 175.62 236.413 175.717 236.487 175.872L238.971 181.04C239.049 181.203 239.063 181.347 239.013 181.472C238.962 181.597 238.863 181.694 238.716 181.765ZM235.144 174.332C234.948 174.426 234.761 174.445 234.584 174.39C234.406 174.334 234.273 174.213 234.182 174.025C234.096 173.845 234.087 173.669 234.154 173.496C234.222 173.323 234.353 173.189 234.549 173.095C234.745 173.001 234.932 172.981 235.109 173.037C235.287 173.092 235.419 173.21 235.505 173.389C235.595 173.577 235.607 173.757 235.539 173.931C235.471 174.104 235.34 174.237 235.144 174.332ZM240.911 173.113C241.433 172.861 241.955 172.766 242.477 172.827C242.999 172.888 243.482 173.098 243.926 173.458C244.37 173.817 244.739 174.303 245.033 174.915C245.332 175.536 245.484 176.136 245.491 176.715C245.495 177.286 245.359 177.799 245.085 178.252C244.81 178.706 244.412 179.058 243.889 179.309C243.424 179.533 242.966 179.627 242.517 179.592C242.076 179.552 241.676 179.388 241.316 179.099L241.633 179.76C241.704 179.907 241.716 180.047 241.669 180.18C241.631 180.309 241.534 180.411 241.379 180.485C241.224 180.56 241.08 180.574 240.947 180.527C240.814 180.481 240.712 180.384 240.642 180.237L236.898 172.448C236.831 172.309 236.821 172.174 236.868 172.041C236.915 171.908 237.016 171.804 237.171 171.729C237.326 171.655 237.466 171.643 237.591 171.693C237.72 171.732 237.82 171.825 237.89 171.972L239.468 175.254C239.467 174.792 239.589 174.376 239.833 174.007C240.086 173.635 240.446 173.336 240.911 173.113ZM243.299 178.583C243.878 178.304 244.231 177.888 244.357 177.335C244.48 176.774 244.366 176.13 244.017 175.404C243.676 174.693 243.252 174.219 242.745 173.98C242.238 173.741 241.695 173.761 241.115 174.04C240.536 174.318 240.181 174.73 240.051 175.275C239.929 175.816 240.042 176.45 240.392 177.176C240.741 177.903 241.167 178.392 241.669 178.643C242.176 178.881 242.719 178.861 243.299 178.583ZM248.323 177.148C248.176 177.219 248.034 177.237 247.897 177.202C247.764 177.155 247.66 177.055 247.586 176.899L245.102 171.732C245.027 171.576 245.015 171.436 245.066 171.312C245.121 171.175 245.221 171.071 245.368 171C245.515 170.93 245.655 170.918 245.788 170.964C245.917 171.003 246.019 171.1 246.094 171.255L248.577 176.423C248.656 176.586 248.67 176.73 248.619 176.855C248.569 176.98 248.47 177.077 248.323 177.148ZM244.75 169.715C244.554 169.809 244.368 169.828 244.19 169.773C244.013 169.717 243.879 169.596 243.789 169.408C243.703 169.228 243.693 169.052 243.761 168.879C243.828 168.706 243.96 168.572 244.156 168.478C244.352 168.384 244.539 168.364 244.716 168.42C244.893 168.475 245.025 168.593 245.112 168.772C245.202 168.96 245.213 169.14 245.146 169.314C245.078 169.487 244.946 169.62 244.75 169.715ZM250.517 168.496C251.946 167.809 253.039 168.253 253.797 169.829L255.392 173.148C255.466 173.303 255.48 173.447 255.433 173.58C255.391 173.701 255.292 173.799 255.137 173.873C254.982 173.948 254.84 173.966 254.711 173.927C254.578 173.881 254.474 173.78 254.4 173.625L252.834 170.367C252.567 169.812 252.263 169.461 251.921 169.314C251.587 169.163 251.183 169.201 250.71 169.428C250.163 169.691 249.806 170.069 249.64 170.56C249.475 171.052 249.529 171.583 249.804 172.155L251.24 175.143C251.315 175.298 251.329 175.442 251.282 175.575C251.24 175.696 251.141 175.794 250.986 175.868C250.831 175.943 250.688 175.961 250.559 175.922C250.426 175.876 250.323 175.775 250.248 175.62L247.764 170.452C247.694 170.305 247.682 170.165 247.728 170.032C247.775 169.899 247.876 169.795 248.031 169.721C248.178 169.65 248.314 169.64 248.439 169.691C248.572 169.737 248.671 169.83 248.738 169.969L249.038 170.593C249.058 170.132 249.198 169.723 249.459 169.366C249.716 169.002 250.068 168.711 250.517 168.496ZM259.143 164.38C259.298 164.306 259.442 164.292 259.575 164.338C259.708 164.385 259.81 164.482 259.88 164.629L262.376 169.821C262.804 170.711 262.897 171.49 262.655 172.159C262.418 172.836 261.85 173.39 260.952 173.822C260.078 174.242 259.269 174.42 258.525 174.355C258.153 174.333 257.915 174.216 257.813 174.004C257.758 173.89 257.742 173.782 257.764 173.681C257.794 173.576 257.858 173.5 257.956 173.453C258.037 173.414 258.212 173.4 258.479 173.413C258.835 173.422 259.174 173.405 259.495 173.362C259.815 173.318 260.168 173.204 260.551 173.02C261.131 172.741 261.493 172.376 261.638 171.924C261.787 171.481 261.72 170.966 261.437 170.378L260.931 169.325C260.944 169.791 260.82 170.212 260.559 170.589C260.306 170.962 259.939 171.264 259.457 171.495C258.934 171.747 258.41 171.848 257.884 171.799C257.367 171.746 256.885 171.55 256.441 171.211C256.005 170.868 255.645 170.403 255.363 169.815C255.08 169.227 254.941 168.656 254.946 168.101C254.959 167.542 255.106 167.044 255.389 166.607C255.679 166.165 256.086 165.819 256.608 165.568C257.082 165.341 257.543 165.245 257.992 165.28C258.441 165.315 258.846 165.478 259.206 165.767L258.888 165.106C258.818 164.959 258.802 164.821 258.84 164.692C258.887 164.559 258.988 164.455 259.143 164.38ZM259.259 170.581C259.83 170.306 260.189 169.902 260.335 169.37C260.477 168.829 260.387 168.224 260.066 167.555C259.748 166.893 259.335 166.454 258.828 166.235C258.325 166.004 257.784 166.028 257.204 166.307C256.625 166.585 256.26 166.997 256.11 167.542C255.963 168.074 256.049 168.671 256.367 169.332C256.689 170.002 257.105 170.45 257.616 170.677C258.131 170.891 258.679 170.859 259.259 170.581Z" fill="white"/>
<path d="M318.617 139.369C318.398 134.759 314.131 131.424 309.605 132.324L306.16 133.009C302.628 133.712 300.083 136.811 300.083 140.413V146.844C300.083 151.013 303.463 154.392 307.632 154.392H311.416C315.726 154.392 319.161 150.79 318.956 146.485L318.617 139.369Z" fill="#C17A38"/>
<rect width="18.8712" height="27.5519" rx="9.43558" transform="matrix(-1 0 0 1 309.993 112.121)" fill="#7F00FF"/>
<path fill-rule="evenodd" clip-rule="evenodd" d="M328.162 128.948C330.009 119.64 324.577 110.626 315.863 108.683C312.832 108.008 309.797 108.276 307.032 109.3C305.185 118.607 310.617 127.622 319.331 129.564C322.362 130.24 325.397 129.972 328.162 128.948Z" fill="#7F00FF"/>
<path d="M289.443 126.859C289.443 141.707 292.578 147.306 302.075 147.306C311.573 147.306 326.438 140.594 326.438 130.039C326.438 119.484 314.28 105.957 304.782 105.957C295.285 105.957 289.443 113.279 289.443 126.859Z" fill="#C17A38"/>
<path fill-rule="evenodd" clip-rule="evenodd" d="M291.121 108.945C292.322 114.509 296.455 119.475 302.46 121.712C309.122 124.193 316.24 122.627 320.813 118.265C319.894 116.012 318.55 113.854 316.781 111.92C309.664 104.137 298.313 102.872 291.121 108.945Z" fill="#7F00FF"/>
<path fill-rule="evenodd" clip-rule="evenodd" d="M318.182 143.181C319.237 136.381 316.532 128.397 310.414 122.279C304.73 116.595 297.436 113.858 290.977 114.344C291.98 112.44 293.286 110.648 294.892 109.042C303.295 100.639 316.752 100.473 324.949 108.67C333.147 116.868 332.98 130.325 324.578 138.727C322.667 140.638 320.494 142.123 318.182 143.181Z" fill="#7F00FF"/>
<path fill-rule="evenodd" clip-rule="evenodd" d="M313.481 134.088C314.07 136.285 316.877 136.931 318.503 135.341C320.212 133.672 321.006 131.25 320.375 128.895V128.895C319.786 126.698 316.979 126.052 315.352 127.642C313.643 129.311 312.85 131.733 313.481 134.088V134.088Z" fill="#C17A38"/>
<path d="M286.433 131.064L289.776 126.509C290.761 125.167 292.888 125.864 292.888 127.528V133.471C292.888 134.699 291.639 135.533 290.504 135.062L287.162 133.675C286.13 133.247 285.772 131.965 286.433 131.064Z" fill="#C17A38"/>
<rect x="298.92" y="123.449" width="4.30718" height="6.46077" rx="2.15359" fill="black"/>
<rect width="2.81537" height="7.44881" rx="1.40769" transform="matrix(0.5 -0.866025 0.859129 0.511759 299.726 118.732)" fill="black"/>
<path d="M298.486 138.955C296.985 141.217 293.317 141.109 291.354 141.217L290.923 140.786C294.178 141.539 298.486 138.955 298.486 138.955Z" stroke="black" stroke-width="2.84274" stroke-linecap="round" stroke-linejoin="round"/>
<rect x="229.142" y="218.805" width="156.781" height="91.3123" rx="8.61436" fill="#A5A5A5"/>
<rect x="220.527" y="218.805" width="156.781" height="27.566" rx="8.61436" fill="#6B6E70"/>
<mask id="path-37-outside-2" maskUnits="userSpaceOnUse" x="87.8779" y="100.47" width="120" height="218" fill="black">
<rect fill="white" x="87.8779" y="100.47" width="120" height="218"/>
<path fill-rule="evenodd" clip-rule="evenodd" d="M117.228 111.867C112.497 113.411 108.793 117.228 107.408 122.029C104.22 127.764 104.008 134.583 106.851 140.106C107.301 146.954 112.318 152.555 118.884 153.893C118.921 154.526 119.035 155.137 119.217 155.719H117.74C114.527 155.719 111.627 157.057 109.566 159.206C109.422 159.296 109.283 159.395 109.149 159.505C104.546 163.263 100.613 168.448 98.0025 174.701C91.2073 190.981 95.8687 208.542 108.366 214.761C108.326 215.078 108.305 215.401 108.305 215.729V287.817C108.305 291.986 111.684 295.365 115.853 295.365H119.627C123.796 295.365 127.176 291.986 127.176 287.817V236.914L130.509 236.28L139.12 287.82C139.807 291.932 143.667 294.55 147.741 293.667L151.525 292.848C155.6 291.965 158.346 287.916 157.659 283.804L145.827 212.984C145.603 211.647 145.045 210.469 144.252 209.517C145.155 207.891 145.669 206.02 145.669 204.029V181.898C155.024 190.694 167.195 194.018 177.011 191.297C178.544 190.872 179.648 189.587 180.06 188.051C181.134 184.042 176.98 180.208 172.829 180.213C165.891 180.222 158.898 177.542 153.548 172.191C151.111 169.754 149.228 166.977 147.901 164.019C146.998 162.007 145.013 160.358 142.834 159.547C140.766 157.207 137.745 155.728 134.378 155.719C134.589 155.046 134.709 154.334 134.722 153.595C135.372 153.405 136.003 153.173 136.612 152.902C140.251 152.111 142.585 149.965 143.949 146.085L144.1 145.934C144.065 145.942 144.029 145.95 143.994 145.957C144.031 145.847 144.069 145.736 144.105 145.622C144.786 144.204 145.251 142.662 145.459 141.039L148.724 139.684C149.756 139.256 150.114 137.974 149.453 137.073L146.11 132.518C145.958 132.31 145.778 132.151 145.582 132.037V126.222C145.582 124.005 145.104 121.899 144.246 120.003C141.474 111.057 132.576 105.71 124.034 107.999C121.395 108.706 119.091 110.062 117.228 111.867ZM134.514 300.868C137.432 301.211 139.631 303.684 139.631 306.621C139.631 309.821 137.037 312.415 133.837 312.415H114.478C110.651 312.415 107.55 309.313 107.55 305.487C107.55 301.339 111.169 298.121 115.287 298.606L134.514 300.868ZM175.139 300.732C174.581 297.848 171.953 295.838 169.023 296.055L149.717 297.484C145.581 297.791 142.639 301.638 143.426 305.709C144.153 309.466 147.787 311.923 151.544 311.196L170.551 307.52C173.693 306.913 175.747 303.874 175.139 300.732ZM201.112 181.644C200.302 178.624 197.198 176.831 194.178 177.641L186.887 179.594C183.867 180.404 182.074 183.508 182.884 186.528C183.693 189.548 186.797 191.34 189.817 190.531L197.108 188.578C200.129 187.768 201.921 184.664 201.112 181.644Z"/>
</mask>
<path d="M107.408 122.029L112.679 124.958C112.9 124.56 113.075 124.138 113.202 123.701L107.408 122.029ZM117.228 111.867L119.098 117.6C119.97 117.315 120.765 116.836 121.424 116.198L117.228 111.867ZM106.851 140.106L112.868 139.71C112.814 138.886 112.59 138.081 112.212 137.346L106.851 140.106ZM118.884 153.893L124.905 153.548C124.748 150.815 122.771 148.531 120.088 147.984L118.884 153.893ZM119.217 155.719V161.749C121.137 161.749 122.942 160.835 124.078 159.287C125.214 157.74 125.546 155.744 124.97 153.912L119.217 155.719ZM109.566 159.206L112.763 164.319C113.186 164.054 113.574 163.739 113.918 163.379L109.566 159.206ZM109.149 159.505L105.336 154.834L105.336 154.834L109.149 159.505ZM98.0025 174.701L92.4377 172.378L98.0025 174.701ZM108.366 214.761L114.347 215.527C114.673 212.98 113.351 210.507 111.053 209.363L108.366 214.761ZM127.176 236.914L126.049 230.99C123.204 231.531 121.146 234.018 121.146 236.914H127.176ZM130.509 236.28L136.457 235.286C136.189 233.685 135.288 232.26 133.956 231.332C132.625 230.404 130.976 230.052 129.382 230.356L130.509 236.28ZM139.12 287.82L145.068 286.827L145.068 286.827L139.12 287.82ZM147.741 293.667L146.464 287.774L146.464 287.774L147.741 293.667ZM151.525 292.848L152.802 298.741L152.802 298.741L151.525 292.848ZM157.659 283.804L163.606 282.81L163.606 282.81L157.659 283.804ZM145.827 212.984L139.879 213.978L139.879 213.978L145.827 212.984ZM144.252 209.517L138.98 206.59C137.772 208.766 138.025 211.461 139.617 213.374L144.252 209.517ZM145.669 181.898L149.8 177.505C148.047 175.857 145.484 175.408 143.276 176.363C141.068 177.317 139.639 179.493 139.639 181.898H145.669ZM177.011 191.297L175.4 185.486L175.4 185.486L177.011 191.297ZM180.06 188.051L185.885 189.612L185.885 189.612L180.06 188.051ZM172.829 180.213L172.822 174.183L172.822 174.183L172.829 180.213ZM153.548 172.191L157.812 167.927L157.812 167.927L153.548 172.191ZM147.901 164.019L142.399 166.488L142.399 166.488L147.901 164.019ZM142.834 159.547L138.315 163.54C138.971 164.282 139.8 164.852 140.729 165.198L142.834 159.547ZM134.378 155.719L128.625 153.912C128.051 155.741 128.38 157.734 129.512 159.281C130.645 160.827 132.445 161.744 134.362 161.749L134.378 155.719ZM134.722 153.595L133.033 147.806C130.5 148.545 128.741 150.846 128.693 153.485L134.722 153.595ZM136.612 152.902L135.33 147.01C134.929 147.097 134.538 147.225 134.163 147.392L136.612 152.902ZM143.949 146.085L139.687 141.82C139.048 142.458 138.561 143.232 138.261 144.084L143.949 146.085ZM144.1 145.934L148.363 150.199C150.266 148.297 150.679 145.364 149.374 143.01C148.069 140.656 145.363 139.452 142.741 140.059L144.1 145.934ZM143.994 145.957L138.29 144.001C137.587 146.051 138.038 148.32 139.471 149.946C140.904 151.571 143.099 152.302 145.221 151.861L143.994 145.957ZM144.105 145.622L138.668 143.014C138.549 143.262 138.448 143.517 138.364 143.779L144.105 145.622ZM145.459 141.039L143.147 135.47C141.152 136.298 139.753 138.13 139.478 140.272L145.459 141.039ZM148.724 139.684L151.036 145.253L151.036 145.253L148.724 139.684ZM149.453 137.073L154.315 133.506L154.315 133.506L149.453 137.073ZM146.11 132.518L150.972 128.951L150.972 128.951L146.11 132.518ZM145.582 132.037H139.552C139.552 134.181 140.69 136.163 142.541 137.244L145.582 132.037ZM144.246 120.003L138.486 121.787C138.56 122.027 138.649 122.261 138.752 122.49L144.246 120.003ZM124.034 107.999L122.474 102.175L122.474 102.175L124.034 107.999ZM134.514 300.868L133.809 306.856L133.809 306.856L134.514 300.868ZM115.287 298.606L114.583 304.594L114.583 304.594L115.287 298.606ZM169.023 296.055L168.578 290.041L168.578 290.041L169.023 296.055ZM175.139 300.732L169.219 301.877L169.219 301.877L175.139 300.732ZM149.717 297.484L150.162 303.498L150.162 303.498L149.717 297.484ZM143.426 305.709L149.347 304.564L149.347 304.564L143.426 305.709ZM151.544 311.196L150.399 305.276L150.399 305.276L151.544 311.196ZM170.551 307.52L169.406 301.6L169.406 301.6L170.551 307.52ZM194.178 177.641L192.617 171.816L192.617 171.816L194.178 177.641ZM201.112 181.644L195.287 183.205L195.287 183.205L201.112 181.644ZM186.887 179.594L188.447 185.419L188.447 185.419L186.887 179.594ZM182.884 186.528L188.708 184.967L188.708 184.967L182.884 186.528ZM189.817 190.531L191.378 196.356L191.378 196.356L189.817 190.531ZM197.108 188.578L195.548 182.753L195.548 182.753L197.108 188.578ZM113.202 123.701C114.031 120.826 116.261 118.525 119.098 117.6L115.357 106.135C108.732 108.296 103.555 113.631 101.614 120.357L113.202 123.701ZM112.212 137.346C110.354 133.735 110.403 129.053 112.679 124.958L102.137 119.099C98.0373 126.476 97.6625 135.431 101.489 142.866L112.212 137.346ZM120.088 147.984C116.149 147.182 113.137 143.81 112.868 139.71L100.834 140.502C101.465 150.098 108.486 157.928 117.68 159.802L120.088 147.984ZM124.97 153.912C124.935 153.8 124.912 153.679 124.905 153.548L112.864 154.238C112.929 155.372 113.134 156.475 113.464 157.526L124.97 153.912ZM117.74 161.749H119.217V149.689H117.74V161.749ZM113.918 163.379C114.889 162.367 116.237 161.749 117.74 161.749V149.689C112.817 149.689 108.365 151.747 105.214 155.032L113.918 163.379ZM112.963 164.176C112.9 164.227 112.833 164.275 112.763 164.319L106.369 154.093C106.012 154.316 105.667 154.563 105.336 154.834L112.963 164.176ZM103.567 177.024C105.808 171.656 109.151 167.288 112.963 164.175L105.336 154.834C99.9405 159.239 95.4176 165.239 92.4377 172.378L103.567 177.024ZM111.053 209.363C102.345 205.03 97.5409 191.462 103.567 177.024L92.4377 172.378C84.8738 190.5 89.3928 212.055 105.68 220.16L111.053 209.363ZM114.335 215.729C114.335 215.658 114.339 215.59 114.347 215.527L102.385 213.996C102.312 214.566 102.275 215.145 102.275 215.729H114.335ZM114.335 287.817V215.729H102.275V287.817H114.335ZM115.853 289.335C115.014 289.335 114.335 288.656 114.335 287.817H102.275C102.275 295.316 108.354 301.395 115.853 301.395V289.335ZM119.627 289.335H115.853V301.395H119.627V289.335ZM121.146 287.817C121.146 288.656 120.466 289.335 119.627 289.335V301.395C127.127 301.395 133.206 295.316 133.206 287.817H121.146ZM121.146 236.914V287.817H133.206V236.914H121.146ZM129.382 230.356L126.049 230.99L128.303 242.837L131.636 242.203L129.382 230.356ZM145.068 286.827L136.457 235.286L124.561 237.273L133.172 288.814L145.068 286.827ZM146.464 287.774C146.06 287.862 145.758 287.771 145.545 287.626C145.332 287.482 145.136 287.235 145.068 286.827L133.172 288.814C134.427 296.322 141.578 301.173 149.018 299.561L146.464 287.774ZM150.248 286.954L146.464 287.774L149.018 299.561L152.802 298.741L150.248 286.954ZM151.711 284.798C151.868 285.735 151.177 286.753 150.248 286.954L152.802 298.741C160.022 297.177 164.824 290.096 163.606 282.81L151.711 284.798ZM139.879 213.978L151.711 284.798L163.606 282.81L151.774 211.99L139.879 213.978ZM139.617 213.374C139.729 213.508 139.832 213.699 139.879 213.978L151.774 211.99C151.374 209.596 150.36 207.43 148.888 205.66L139.617 213.374ZM139.639 204.029C139.639 204.97 139.399 205.837 138.98 206.59L149.525 212.444C150.911 209.946 151.699 207.07 151.699 204.029H139.639ZM139.639 181.898V204.029H151.699V181.898H139.639ZM175.4 185.486C167.976 187.544 157.916 185.136 149.8 177.505L141.538 186.291C152.133 196.252 166.413 200.493 178.622 197.107L175.4 185.486ZM174.236 186.49C174.28 186.324 174.539 185.724 175.4 185.486L178.622 197.107C182.548 196.019 185.017 192.851 185.885 189.612L174.236 186.49ZM172.837 186.244C172.954 186.243 173.164 186.273 173.431 186.391C173.698 186.508 173.928 186.674 174.088 186.838C174.25 187.003 174.261 187.084 174.238 187.016C174.205 186.913 174.178 186.707 174.236 186.49L185.885 189.612C187.112 185.03 185.209 180.967 182.721 178.416C180.264 175.898 176.668 174.179 172.822 174.183L172.837 186.244ZM149.284 176.455C155.799 182.97 164.343 186.254 172.837 186.244L172.822 174.183C167.439 174.19 161.998 172.113 157.812 167.927L149.284 176.455ZM142.399 166.488C144.023 170.105 146.322 173.493 149.284 176.455L157.812 167.927C155.9 166.015 154.433 163.848 153.402 161.55L142.399 166.488ZM140.729 165.198C141.719 165.566 142.286 166.236 142.399 166.488L153.402 161.55C151.709 157.778 148.307 155.15 144.938 153.896L140.729 165.198ZM134.362 161.749C135.934 161.753 137.34 162.436 138.315 163.54L147.352 155.554C144.192 151.977 139.555 149.703 134.395 149.689L134.362 161.749ZM128.693 153.485C128.691 153.641 128.666 153.783 128.625 153.912L140.131 157.526C140.513 156.31 140.727 155.026 140.751 153.704L128.693 153.485ZM134.163 147.392C133.798 147.554 133.421 147.693 133.033 147.806L136.412 159.383C137.322 159.118 138.207 158.792 139.062 158.412L134.163 147.392ZM138.261 144.084C137.82 145.337 137.36 145.927 137.034 146.229C136.735 146.507 136.266 146.806 135.33 147.01L137.894 158.794C140.597 158.206 143.114 157.037 145.232 155.074C147.325 153.135 148.714 150.713 149.638 148.086L138.261 144.084ZM139.838 141.669L139.687 141.82L148.212 150.351L148.363 150.199L139.838 141.669ZM145.221 151.861C145.3 151.845 145.38 151.827 145.46 151.809L142.741 140.059C142.75 140.057 142.759 140.055 142.766 140.054L145.221 151.861ZM138.364 143.779C138.339 143.855 138.314 143.929 138.29 144.001L149.698 147.914C149.748 147.765 149.798 147.616 149.846 147.466L138.364 143.779ZM139.478 140.272C139.353 141.245 139.075 142.166 138.668 143.014L149.542 148.231C150.496 146.241 151.149 144.079 151.44 141.806L139.478 140.272ZM146.413 134.115L143.147 135.47L147.771 146.609L151.036 145.253L146.413 134.115ZM144.592 140.641C142.939 138.389 143.834 135.185 146.413 134.115L151.036 145.253C155.679 143.326 157.288 137.559 154.315 133.506L144.592 140.641ZM141.249 136.086L144.592 140.641L154.315 133.506L150.972 128.951L141.249 136.086ZM142.541 137.244C142.01 136.934 141.575 136.53 141.249 136.086L150.972 128.951C150.34 128.09 149.545 127.369 148.624 126.83L142.541 137.244ZM139.552 126.222V132.037H151.613V126.222H139.552ZM138.752 122.49C139.264 123.62 139.552 124.88 139.552 126.222H151.613C151.613 123.13 150.944 120.178 149.739 117.516L138.752 122.49ZM125.595 113.824C130.656 112.468 136.562 115.576 138.486 121.787L150.006 118.218C146.387 106.538 134.496 98.9532 122.474 102.175L125.595 113.824ZM121.424 116.198C122.579 115.078 123.986 114.255 125.595 113.824L122.474 102.175C118.805 103.158 115.603 105.046 113.032 107.536L121.424 116.198ZM145.661 306.621C145.661 300.626 141.173 295.579 135.219 294.879L133.809 306.856C133.69 306.842 133.6 306.741 133.6 306.621H145.661ZM133.837 318.445C140.367 318.445 145.661 313.151 145.661 306.621H133.6C133.6 306.491 133.706 306.385 133.837 306.385V318.445ZM114.478 318.445H133.837V306.385H114.478V318.445ZM101.52 305.487C101.52 312.643 107.321 318.445 114.478 318.445V306.385C113.982 306.385 113.58 305.983 113.58 305.487H101.52ZM115.992 292.617C108.288 291.711 101.52 297.73 101.52 305.487H113.58C113.58 304.949 114.049 304.532 114.583 304.594L115.992 292.617ZM135.219 294.879L115.992 292.617L114.583 304.594L133.809 306.856L135.219 294.879ZM169.469 302.068C169.349 302.077 169.242 301.995 169.219 301.877L181.06 299.587C179.921 293.701 174.557 289.598 168.578 290.041L169.469 302.068ZM150.162 303.498L169.469 302.068L168.578 290.041L149.272 291.471L150.162 303.498ZM149.347 304.564C149.245 304.037 149.626 303.538 150.162 303.498L149.272 291.471C141.536 292.044 136.033 299.239 137.506 306.854L149.347 304.564ZM150.399 305.276C149.912 305.37 149.441 305.052 149.347 304.564L137.506 306.854C138.865 313.881 145.663 318.475 152.689 317.116L150.399 305.276ZM169.406 301.6L150.399 305.276L152.689 317.116L171.696 313.441L169.406 301.6ZM169.219 301.877C169.194 301.749 169.278 301.625 169.406 301.6L171.696 313.441C178.107 312.201 182.3 305.998 181.06 299.587L169.219 301.877ZM195.739 183.465C195.542 183.518 195.34 183.401 195.287 183.205L206.936 180.083C205.265 173.846 198.854 170.145 192.617 171.816L195.739 183.465ZM188.447 185.419L195.739 183.465L192.617 171.816L185.326 173.77L188.447 185.419ZM188.708 184.967C188.761 185.164 188.644 185.366 188.447 185.419L185.326 173.77C179.089 175.441 175.388 181.852 177.059 188.089L188.708 184.967ZM188.257 184.707C188.453 184.654 188.655 184.771 188.708 184.967L177.059 188.089C178.73 194.326 185.141 198.027 191.378 196.356L188.257 184.707ZM195.548 182.753L188.257 184.707L191.378 196.356L198.669 194.402L195.548 182.753ZM195.287 183.205C195.234 183.008 195.351 182.806 195.548 182.753L198.669 194.402C204.906 192.731 208.607 186.32 206.936 180.083L195.287 183.205Z" fill="black" mask="url(#path-37-outside-2)"/>
<rect x="108.305" y="208.181" width="18.8712" height="87.1848" rx="7.54846" fill="white"/>
<rect width="18.9687" height="86.8985" rx="7.54846" transform="matrix(0.977326 -0.211742 0.164789 0.986329 126.044 209.555)" fill="white"/>
<rect x="114.473" y="211.267" width="25.4103" height="27.5688" rx="7.54846" transform="rotate(-10.7721 114.473 211.267)" fill="white"/>
<rect x="199.646" y="176.176" width="11.3227" height="18.8712" rx="5.66135" transform="rotate(75 199.646 176.176)" fill="#984900"/>
<path fill-rule="evenodd" clip-rule="evenodd" d="M134.957 165.021C134.459 163.399 134.988 161.662 136.188 160.462V160.462C139.438 157.211 146.019 159.826 147.901 164.019C149.228 166.977 151.111 169.754 153.548 172.191C158.899 177.542 165.891 180.222 172.83 180.214C176.981 180.209 181.135 184.042 180.06 188.051V188.051C179.649 189.588 178.544 190.872 177.011 191.297C166.867 194.109 154.208 190.465 144.741 180.998C139.98 176.237 136.692 170.67 134.957 165.021Z" fill="#A5A5A5"/>
<rect x="106.417" y="155.719" width="39.252" height="59.6329" rx="11.3227" fill="white"/>
<rect x="134.385" y="223.112" width="12.9215" height="19.813" rx="6.46077" transform="rotate(127.655 134.385 223.112)" fill="#984900"/>
<path fill-rule="evenodd" clip-rule="evenodd" d="M109.15 159.505C110.408 158.477 112.139 158.313 113.639 158.939V158.939C117.818 160.683 117.772 167.97 114.655 171.256C112.669 173.351 111.03 175.824 109.859 178.628C106.066 187.717 108.207 197.859 114.523 205.019C116.638 207.417 117.209 211.033 115.25 213.559L115.177 213.653C113.86 215.351 111.646 216.182 109.663 215.354V215.354C96.1979 209.734 90.9774 191.533 98.0027 174.701C100.613 168.448 104.546 163.263 109.15 159.505Z" fill="#A5A5A5"/>
<rect x="99.0654" y="105.957" width="51.6862" height="49.9633" rx="15.0969" fill="black"/>
<rect x="125.666" y="118.354" width="18.8712" height="27.5519" rx="9.43558" fill="black"/>
<path d="M145.537 132.812C145.537 147.66 142.402 153.259 132.904 153.259C123.407 153.259 112.849 146.548 112.849 135.993C112.849 125.437 120.7 111.91 130.197 111.91C139.695 111.91 145.537 119.233 145.537 132.812Z" fill="#984900"/>
<path d="M118.871 147.038C118.871 142.869 122.251 139.489 126.42 139.489H127.174C131.343 139.489 134.723 142.869 134.723 147.038V153.454C134.723 157.623 131.343 161.002 127.174 161.002H126.42C122.251 161.002 118.871 157.623 118.871 153.454V147.038Z" fill="#984900"/>
<path fill-rule="evenodd" clip-rule="evenodd" d="M110.081 136.041C108.234 126.734 113.666 117.719 122.38 115.777C125.411 115.102 128.446 115.369 131.212 116.394C133.059 125.701 127.627 134.716 118.913 136.658C115.882 137.333 112.847 137.065 110.081 136.041Z" fill="black"/>
<path fill-rule="evenodd" clip-rule="evenodd" d="M144.26 120.045C141.503 111.074 132.59 105.707 124.035 107.999C120.883 108.844 118.208 110.614 116.193 112.97C118.949 121.94 127.862 127.307 136.417 125.015C139.569 124.17 142.244 122.401 144.26 120.045Z" fill="black"/>
<path fill-rule="evenodd" clip-rule="evenodd" d="M108.469 117.011C99.498 119.767 94.1307 128.68 96.423 137.235C97.2677 140.388 99.0376 143.062 101.394 145.078C110.364 142.322 115.732 133.409 113.439 124.854C112.595 121.701 110.825 119.027 108.469 117.011Z" fill="black"/>
<path fill-rule="evenodd" clip-rule="evenodd" d="M119.006 148.911C118.422 142.224 121.076 134.824 126.76 129.139C133.891 122.008 143.722 119.646 151.458 122.462C150.32 120.009 148.729 117.698 146.691 115.659C137.787 106.756 123.698 106.41 115.221 114.886C106.745 123.363 107.091 137.452 115.994 146.355C116.944 147.305 117.952 148.157 119.006 148.911Z" fill="black"/>
<path fill-rule="evenodd" clip-rule="evenodd" d="M127.558 136.875C126.97 139.072 124.162 139.718 122.536 138.129C120.827 136.459 120.033 134.037 120.664 131.682V131.682C121.253 129.485 124.06 128.839 125.687 130.429C127.396 132.098 128.189 134.52 127.558 136.875V136.875Z" fill="#984900"/>
<path d="M149.454 137.073L146.111 132.518C145.126 131.176 142.999 131.872 142.999 133.537V139.48C142.999 140.708 144.248 141.542 145.382 141.071L148.725 139.684C149.757 139.255 150.114 137.974 149.454 137.073Z" fill="#984900"/>
<rect width="4.30718" height="6.46077" rx="2.15359" transform="matrix(-1 0 0 1 140.416 129.458)" fill="black"/>
<rect width="2.81537" height="7.44881" rx="1.40769" transform="matrix(-0.5 -0.866025 -0.859129 0.511759 137.887 124.741)" fill="black"/>
<path d="M138.262 144.964C139.763 147.226 143.431 147.118 145.394 147.226L145.825 146.795C142.57 147.549 138.262 144.964 138.262 144.964Z" stroke="black" stroke-width="2.84274" stroke-linecap="round" stroke-linejoin="round"/>
<path d="M134.514 300.868C137.432 301.211 139.631 303.684 139.631 306.621V306.621C139.631 309.821 137.037 312.415 133.837 312.415L114.478 312.415C110.652 312.415 107.55 309.313 107.55 305.487V305.487C107.55 301.339 111.169 298.121 115.288 298.606L134.514 300.868Z" fill="#A5A5A5"/>
<path d="M169.023 296.055C171.953 295.838 174.581 297.848 175.139 300.732V300.732C175.747 303.874 173.693 306.913 170.551 307.521L151.544 311.196C147.787 311.923 144.153 309.466 143.426 305.71V305.71C142.639 301.638 145.581 297.791 149.717 297.485L169.023 296.055Z" fill="#A5A5A5"/>
<circle cx="127.492" cy="132.584" r="35.7496" stroke="black" stroke-width="6.03006"/>
</g>
<circle cx="186.07" cy="186.07" r="181.763" stroke="black" stroke-width="8.61436"/>
</svg>
