<svg width="206" height="216" viewBox="0 0 206 216" fill="none" xmlns="http://www.w3.org/2000/svg">
<circle cx="103" cy="113" r="99" stroke="#304967" stroke-width="7" stroke-linecap="round" stroke-linejoin="round" stroke-dasharray="15 30"/>
<path d="M75.8963 33.3298C74.606 34.0307 75.1039 35.9902 76.5723 35.9902L87.2931 35.9902C87.5292 35.9902 87.7616 35.9312 87.9691 35.8185L94.6835 32.1709C95.9737 31.47 95.4759 29.5105 94.0075 29.5105L83.2866 29.5105C83.0505 29.5105 82.8181 29.5695 82.6106 29.6823L75.8963 33.3298Z" fill="#FF0000"/>
<path d="M75.8963 9.91433C74.606 9.21339 75.1039 7.25391 76.5723 7.25391L87.2931 7.25391C87.5292 7.25391 87.7616 7.31295 87.9691 7.42566L94.6835 11.0732C95.9737 11.7742 95.4759 13.7336 94.0075 13.7336L83.2866 13.7336C83.0505 13.7336 82.8181 13.6746 82.6106 13.5619L75.8963 9.91433Z" fill="#FF0000"/>
<path d="M82.3184 21.622L128.426 21.622C127.788 22.4858 126.81 23.5781 125.474 25.0027C125.474 25.0027 119.249 31.0598 112.174 31.3416C105.099 31.6233 83.4503 29.5103 83.4503 29.5103C82.8252 29.5103 82.3184 29.0058 82.3184 28.3834L82.3184 21.622Z" fill="white"/>
<path d="M82.3184 21.622L128.426 21.622C127.788 20.7581 126.81 19.6658 125.474 18.2412C125.474 18.2412 119.249 12.1841 112.174 11.9023C105.099 11.6206 83.4503 13.7336 83.4503 13.7336C82.8252 13.7336 82.3184 14.2381 82.3184 14.8605L82.3184 21.622Z" fill="white"/>
<path d="M125.59 25.122L127.915 27.5114L127.972 27.4553L128.027 27.3966C129.354 25.9816 130.466 24.7515 131.241 23.7014L132.777 21.622L131.241 19.5427C130.466 18.4926 129.354 17.2625 128.027 15.8475L127.972 15.7888L127.915 15.7327L125.59 18.122C127.915 15.7327 127.914 15.732 127.913 15.7313L127.912 15.7298L127.908 15.7264L127.899 15.7178L127.875 15.6942C127.867 15.6865 127.858 15.6778 127.847 15.6681C127.833 15.6545 127.817 15.6389 127.798 15.6216C127.735 15.5623 127.648 15.4817 127.538 15.3827C127.319 15.1848 127.009 14.9125 126.617 14.5898C125.837 13.9468 124.72 13.0908 123.353 12.2227C120.686 10.5299 116.741 8.58153 112.313 8.40519C109.082 8.27653 103.216 8.60743 97.6905 9.01065C97.3346 8.63234 96.9001 8.2942 96.3825 8.013L89.6407 4.35054C88.9194 3.95872 88.112 3.75391 87.2922 3.75391L76.5461 3.75391C71.4892 3.75391 69.6885 10.525 74.1976 12.9746L78.8181 15.4846L78.8181 21.622L78.8181 27.7594L74.1976 30.2695C69.6885 32.7191 71.4892 39.4902 76.5461 39.4902L87.2922 39.4902C88.112 39.4902 88.9194 39.2853 89.6407 38.8935L96.3825 35.2311C96.9001 34.9499 97.3346 34.6117 97.6905 34.2334C103.216 34.6366 109.082 34.9675 112.313 34.8389C116.741 34.6625 120.686 32.7142 123.353 31.0214C124.72 30.1532 125.837 29.2972 126.617 28.6543C127.009 28.3316 127.319 28.0592 127.538 27.8614C127.648 27.7624 127.735 27.6818 127.798 27.6225C127.815 27.6069 127.83 27.5928 127.843 27.5802C127.855 27.5688 127.866 27.5587 127.875 27.5499L127.899 27.5262L127.908 27.5177L127.912 27.5142L127.913 27.5127C127.914 27.512 127.915 27.5114 125.59 25.122Z" stroke="black" stroke-width="7"/>
</svg>
