<svg width="336" height="270" viewBox="0 0 336 270" fill="none" xmlns="http://www.w3.org/2000/svg">
<path d="M-15.5 270V-7.5H359.5V270H-15.5Z" fill="#FFE920"/>
<path d="M162.089 140.128H97.9534M211.359 173.045L161.24 140.553L211.359 108.06" stroke="black" stroke-width="4.7161" stroke-linecap="round" stroke-linejoin="round"/>
<g clip-path="url(#clip0)">
<path d="M211.359 85.0212C211.359 83.9049 212.264 83 213.381 83H347.453C348.569 83 349.474 83.9049 349.474 85.0212V134.203C349.474 135.32 348.569 136.225 347.453 136.225H213.381C212.264 136.225 211.359 135.32 211.359 134.203V85.0212Z" fill="black"/>
<rect x="215.93" y="92.769" width="40.3505" height="33.9794" rx="2.12371" fill="white"/>
<rect x="260.527" y="92.769" width="40.3505" height="33.9794" rx="2.12371" fill="white"/>
<rect x="305.125" y="92.769" width="40.3505" height="33.9794" rx="2.12371" fill="white"/>
<rect x="215.93" y="128.872" width="5.0969" height="6.37113" rx="0.849484" fill="white"/>
<rect x="229.522" y="128.872" width="5.0969" height="6.37113" rx="0.849484" fill="white"/>
<rect x="243.114" y="128.872" width="5.0969" height="6.37113" rx="0.849484" fill="white"/>
<rect x="256.705" y="128.872" width="5.0969" height="6.37113" rx="0.849484" fill="white"/>
<rect x="270.297" y="128.872" width="5.0969" height="6.37113" rx="0.849484" fill="white"/>
<rect x="283.889" y="128.872" width="5.0969" height="6.37113" rx="0.849484" fill="white"/>
<rect x="297.48" y="128.872" width="5.0969" height="6.37113" rx="0.849484" fill="white"/>
<rect x="311.072" y="128.872" width="5.0969" height="6.37113" rx="0.849484" fill="white"/>
<rect x="324.664" y="128.872" width="5.0969" height="6.37113" rx="0.849484" fill="white"/>
<rect x="215.93" y="84.699" width="5.0969" height="6.37113" rx="0.849484" fill="white"/>
<rect x="229.522" y="84.699" width="5.0969" height="6.37113" rx="0.849484" fill="white"/>
<rect x="243.114" y="84.699" width="5.0969" height="6.37113" rx="0.849484" fill="white"/>
<rect x="256.705" y="84.699" width="5.0969" height="6.37113" rx="0.849484" fill="white"/>
<rect x="270.297" y="84.699" width="5.0969" height="6.37113" rx="0.849484" fill="white"/>
<rect x="283.889" y="84.699" width="5.0969" height="6.37113" rx="0.849484" fill="white"/>
<rect x="297.48" y="84.699" width="5.0969" height="6.37113" rx="0.849484" fill="white"/>
<rect x="311.072" y="84.699" width="5.0969" height="6.37113" rx="0.849484" fill="white"/>
<rect x="324.664" y="84.699" width="5.0969" height="6.37113" rx="0.849484" fill="white"/>
<g clip-path="url(#clip1)">
<path d="M234.398 117.317C238.603 118.443 242.925 115.948 244.051 111.744C245.178 107.539 242.683 103.217 238.478 102.09C234.274 100.964 229.952 103.459 228.825 107.664C227.699 111.868 230.194 116.19 234.398 117.317Z" fill="#DF3A1F"/>
<mask id="mask0" mask-type="alpha" maskUnits="userSpaceOnUse" x="228" y="101" width="17" height="17">
<path d="M234.398 117.317C238.603 118.443 242.925 115.948 244.051 111.744C245.178 107.539 242.683 103.217 238.478 102.09C234.274 100.964 229.952 103.459 228.825 107.664C227.699 111.868 230.194 116.19 234.398 117.317Z" fill="#DF3A1F"/>
</mask>
<g mask="url(#mask0)">
<rect x="226.834" y="107.35" width="2.97319" height="10.6186" rx="1.4866" transform="rotate(-75 226.834 107.35)" fill="#FF8874"/>
<rect x="229.245" y="104.918" width="2.54845" height="5.0969" rx="1.27423" transform="rotate(-75 229.245 104.918)" fill="#FF8874"/>
<rect x="234.071" y="116.448" width="2.66754" height="9.29471" rx="1.33377" transform="rotate(-75 234.071 116.448)" fill="#FF8874"/>
</g>
<path fill-rule="evenodd" clip-rule="evenodd" d="M244.083 111.623C244.712 111.56 245.303 111.488 245.849 111.41C247.078 111.235 248.118 111.02 248.868 110.767C249.237 110.642 249.587 110.491 249.862 110.3C250.105 110.13 250.497 109.779 250.497 109.218C250.497 108.656 250.105 108.306 249.862 108.136C249.587 107.944 249.237 107.794 248.868 107.669C248.118 107.416 247.078 107.201 245.849 107.025C245.21 106.934 244.51 106.852 243.759 106.781C243.984 107.342 244.145 107.931 244.236 108.537C244.721 108.589 245.18 108.646 245.608 108.707C246.681 108.86 247.534 109.036 248.134 109.218C247.534 109.4 246.681 109.575 245.608 109.728C245.205 109.786 244.775 109.84 244.32 109.89C244.306 110.464 244.229 111.044 244.083 111.623ZM228.802 111.657C228.658 111.097 228.575 110.516 228.558 109.926C227.976 109.867 227.431 109.8 226.927 109.728C225.855 109.575 225.002 109.4 224.402 109.218C225.002 109.036 225.855 108.86 226.927 108.707C227.457 108.632 228.033 108.562 228.649 108.5C228.692 108.221 228.751 107.942 228.826 107.664C228.91 107.349 229.012 107.043 229.131 106.748C228.245 106.827 227.425 106.92 226.687 107.025C225.457 107.201 224.418 107.416 223.668 107.669C223.299 107.794 222.948 107.944 222.674 108.136C222.43 108.306 222.039 108.656 222.039 109.218C222.039 109.779 222.43 110.13 222.674 110.3C222.948 110.491 223.299 110.642 223.668 110.767C224.418 111.02 225.457 111.235 226.687 111.41C227.333 111.503 228.041 111.585 228.802 111.657ZM223.613 109.556C223.612 109.556 223.615 109.553 223.623 109.546C223.617 109.553 223.613 109.556 223.613 109.556ZM248.923 109.556C248.923 109.556 248.919 109.553 248.912 109.546C248.92 109.553 248.923 109.556 248.923 109.556ZM248.912 108.889C248.919 108.883 248.923 108.88 248.923 108.88C248.923 108.88 248.92 108.883 248.912 108.889ZM223.623 108.889C223.615 108.883 223.612 108.88 223.613 108.88C223.613 108.88 223.617 108.883 223.623 108.889Z" fill="#304967"/>
<path d="M249.647 109.218C249.647 110.273 243.657 111.129 236.267 111.129C228.878 111.129 222.888 110.273 222.888 109.218" stroke="#304967" stroke-width="1.69897"/>
</g>
<mask id="path-32-outside-1" maskUnits="userSpaceOnUse" x="217.038" y="96.717" width="39" height="26" fill="black">
<rect fill="white" x="217.038" y="96.717" width="39" height="26"/>
<path fill-rule="evenodd" clip-rule="evenodd" d="M244.04 111.628C242.896 115.784 238.589 118.246 234.398 117.129C231.607 116.385 229.57 114.242 228.844 111.662C228.844 111.661 228.844 111.661 228.844 111.661L228.844 111.662C228.067 111.589 227.344 111.504 226.686 111.41C225.456 111.235 224.417 111.02 223.667 110.767C223.297 110.642 222.947 110.491 222.673 110.3C222.429 110.13 222.038 109.779 222.038 109.218C222.038 108.657 222.429 108.306 222.673 108.136C222.947 107.945 223.297 107.794 223.667 107.669C224.417 107.416 225.456 107.201 226.686 107.025C227.409 106.922 228.211 106.83 229.077 106.753C228.981 107.004 228.896 107.263 228.825 107.529C228.737 107.853 228.672 108.178 228.627 108.502C228.019 108.564 227.45 108.633 226.926 108.707C225.854 108.861 225.001 109.036 224.401 109.218C225.001 109.4 225.854 109.575 226.927 109.728C227.432 109.8 227.979 109.867 228.563 109.927C228.526 109.139 228.609 108.332 228.825 107.529C229.952 103.347 234.273 100.866 238.478 101.986C241.024 102.665 242.943 104.508 243.811 106.786C244.542 106.856 245.224 106.936 245.847 107.025C247.077 107.201 248.116 107.416 248.866 107.669C249.236 107.794 249.586 107.945 249.861 108.136C250.104 108.306 250.496 108.656 250.496 109.218H250.496C250.496 109.779 250.104 110.129 249.861 110.3C249.587 110.491 249.236 110.642 248.867 110.767C248.586 110.862 248.263 110.951 247.906 111.035C247.623 111.102 247.318 111.165 246.993 111.225C246.634 111.291 246.251 111.353 245.847 111.41C245.289 111.49 244.685 111.563 244.04 111.628ZM244.314 109.89C244.771 109.84 245.203 109.786 245.608 109.728C246.01 109.671 246.381 109.61 246.719 109.548C247.054 109.486 247.356 109.421 247.625 109.356C247.81 109.31 247.98 109.264 248.133 109.218C247.532 109.036 246.68 108.861 245.607 108.707C245.185 108.647 244.733 108.591 244.255 108.539C244.314 108.982 244.334 109.434 244.314 109.89ZM248.922 108.88L248.922 108.88C248.921 108.881 248.918 108.883 248.913 108.888L248.911 108.889C248.917 108.883 248.922 108.88 248.922 108.88ZM223.611 108.88L223.612 108.88C223.613 108.881 223.615 108.883 223.62 108.887L223.622 108.889C223.614 108.883 223.611 108.88 223.611 108.88Z"/>
</mask>
<path d="M234.398 117.129L233.184 121.686L233.184 121.686L234.398 117.129ZM244.04 111.628L243.569 106.935C241.63 107.13 240.01 108.497 239.493 110.376L244.04 111.628ZM228.844 111.662L233.384 110.385C232.857 108.508 231.229 107.15 229.288 106.966L228.844 111.662ZM228.844 111.661L229.288 106.966C227.739 106.82 226.219 107.446 225.222 108.641C224.226 109.835 223.883 111.443 224.305 112.94L228.844 111.661ZM228.844 111.662L228.403 116.357C229.951 116.502 231.471 115.876 232.466 114.682C233.462 113.487 233.805 111.879 233.383 110.383L228.844 111.662ZM226.686 111.41L227.353 106.742L227.353 106.742L226.686 111.41ZM223.667 110.767L222.158 115.235L222.158 115.235L223.667 110.767ZM222.673 110.3L225.373 106.433L225.373 106.433L222.673 110.3ZM222.038 109.218L217.322 109.218L217.322 109.218L222.038 109.218ZM222.673 108.136L225.373 112.003L225.373 112.003L222.673 108.136ZM223.667 107.669L225.176 112.137L225.176 112.137L223.667 107.669ZM226.686 107.025L227.353 111.694L227.353 111.694L226.686 107.025ZM229.077 106.753L233.48 108.443C234.064 106.923 233.822 105.209 232.84 103.91C231.859 102.611 230.277 101.91 228.655 102.056L229.077 106.753ZM228.825 107.529L224.271 106.302L224.271 106.302L228.825 107.529ZM228.627 108.502L229.102 113.194C231.267 112.975 233.002 111.303 233.299 109.146L228.627 108.502ZM226.926 108.707L226.259 104.039L226.259 104.039L226.926 108.707ZM224.401 109.218L223.031 104.705C221.044 105.308 219.685 107.141 219.685 109.218C219.685 111.294 221.043 113.127 223.031 113.73L224.401 109.218ZM226.927 109.728L227.594 105.06L227.594 105.06L226.927 109.728ZM228.563 109.927L228.082 114.618C229.448 114.758 230.808 114.296 231.805 113.352C232.802 112.408 233.339 111.076 233.274 109.705L228.563 109.927ZM228.825 107.529L224.271 106.302L224.271 106.302L228.825 107.529ZM238.478 101.986L237.264 106.543L237.264 106.543L238.478 101.986ZM243.811 106.786L239.404 108.465C240.043 110.14 241.575 111.309 243.36 111.48L243.811 106.786ZM245.847 107.025L246.514 102.357L246.514 102.357L245.847 107.025ZM248.866 107.669L250.376 103.201L250.376 103.201L248.866 107.669ZM249.861 108.136L247.161 112.003L247.161 112.003L249.861 108.136ZM250.496 109.218L245.779 109.218C245.78 111.823 247.891 113.934 250.496 113.934V109.218ZM250.496 109.218H255.212C255.212 106.613 253.101 104.502 250.496 104.502V109.218ZM249.861 110.3L252.561 114.166L249.861 110.3ZM248.867 110.767L247.358 106.298L247.358 106.298L248.867 110.767ZM247.906 111.035L246.826 106.445L246.826 106.445L247.906 111.035ZM246.993 111.225L246.14 106.586L246.14 106.586L246.993 111.225ZM245.847 111.41L246.514 116.079L246.514 116.079L245.847 111.41ZM244.314 109.89L239.603 109.685C239.543 111.059 240.086 112.392 241.091 113.333C242.095 114.273 243.461 114.728 244.829 114.578L244.314 109.89ZM245.608 109.728L244.941 105.06L244.941 105.06L245.608 109.728ZM246.719 109.548L247.58 114.185L247.58 114.185L246.719 109.548ZM247.625 109.356L246.505 104.774L246.505 104.774L247.625 109.356ZM248.133 109.218L249.503 113.73C251.49 113.127 252.849 111.295 252.849 109.218C252.849 107.141 251.49 105.309 249.503 104.705L248.133 109.218ZM245.607 108.707L246.274 104.039L246.274 104.039L245.607 108.707ZM244.255 108.539L244.763 103.85C243.324 103.694 241.893 104.208 240.881 105.243C239.87 106.279 239.39 107.722 239.58 109.157L244.255 108.539ZM248.922 108.88L251.439 112.868C253.076 111.835 253.915 109.907 253.556 108.005L248.922 108.88ZM248.922 108.88L253.556 108.005C253.158 105.893 251.381 104.317 249.236 104.174L248.922 108.88ZM248.913 108.888L251.86 112.57C251.997 112.461 252.127 112.343 252.251 112.219L248.913 108.888ZM248.911 108.889L245.542 105.589C243.797 107.371 243.74 110.204 245.414 112.053C247.087 113.903 249.911 114.13 251.858 112.572L248.911 108.889ZM223.612 108.88L227.232 105.857C226.851 105.401 226.388 105.021 225.866 104.737L223.612 108.88ZM223.611 108.88L225.865 104.737C225.084 104.312 224.198 104.116 223.31 104.173L223.611 108.88ZM223.62 108.887L226.961 105.559C226.847 105.444 226.727 105.335 226.601 105.233L223.62 108.887ZM223.622 108.889L220.69 112.583C222.647 114.136 225.475 113.894 227.139 112.031C228.804 110.169 228.727 107.331 226.964 105.561L223.622 108.889ZM233.184 121.686C239.858 123.465 246.751 119.551 248.587 112.879L239.493 110.376C239.041 112.017 237.32 113.027 235.613 112.572L233.184 121.686ZM224.304 112.938C225.465 117.066 228.726 120.498 233.184 121.686L235.613 112.572C234.489 112.272 233.675 111.418 233.384 110.385L224.304 112.938ZM229.288 106.966L229.288 106.966L228.4 116.357L228.401 116.357L229.288 106.966ZM224.305 112.94L224.305 112.94L233.383 110.383L233.383 110.383L224.305 112.94ZM229.285 106.966C228.572 106.899 227.925 106.823 227.353 106.742L226.019 116.079C226.763 116.185 227.563 116.278 228.403 116.357L229.285 106.966ZM227.353 106.742C226.229 106.581 225.521 106.415 225.176 106.299L222.158 115.235C223.313 115.625 224.684 115.888 226.019 116.079L227.353 106.742ZM225.176 106.299C225.103 106.274 225.084 106.264 225.104 106.273C225.115 106.278 225.145 106.292 225.188 106.316C225.231 106.34 225.294 106.378 225.373 106.433L219.973 114.167C220.781 114.731 221.615 115.052 222.158 115.235L225.176 106.299ZM225.373 106.433C225.497 106.52 225.802 106.746 226.097 107.158C226.425 107.616 226.754 108.329 226.754 109.218L217.322 109.218C217.322 112.183 219.396 113.763 219.973 114.167L225.373 106.433ZM226.754 109.218C226.754 110.107 226.425 110.82 226.097 111.278C225.802 111.69 225.497 111.916 225.373 112.003L219.973 104.269C219.396 104.672 217.322 106.253 217.322 109.218L226.754 109.218ZM225.373 112.003C225.294 112.058 225.231 112.096 225.188 112.119C225.145 112.143 225.115 112.157 225.104 112.163C225.084 112.172 225.103 112.162 225.176 112.137L222.158 103.201C221.615 103.384 220.781 103.705 219.973 104.269L225.373 112.003ZM225.176 112.137C225.521 112.021 226.229 111.855 227.353 111.694L226.019 102.357C224.684 102.547 223.313 102.811 222.158 103.201L225.176 112.137ZM227.353 111.694C227.982 111.604 228.701 111.522 229.499 111.45L228.655 102.056C227.722 102.139 226.837 102.24 226.019 102.357L227.353 111.694ZM224.674 105.063C224.52 105.465 224.385 105.879 224.271 106.302L233.378 108.756C233.408 108.647 233.442 108.543 233.48 108.443L224.674 105.063ZM224.271 106.302C224.132 106.818 224.027 107.338 223.955 107.858L233.299 109.146C233.317 109.018 233.343 108.888 233.378 108.756L224.271 106.302ZM228.152 103.81C227.489 103.877 226.855 103.953 226.259 104.039L227.593 113.376C228.044 113.312 228.549 113.25 229.102 113.194L228.152 103.81ZM226.259 104.039C225.075 104.208 223.957 104.424 223.031 104.705L225.771 113.73C226.045 113.647 226.632 113.513 227.593 113.376L226.259 104.039ZM223.031 113.73C223.957 114.012 225.075 114.228 226.26 114.397L227.594 105.06C226.632 104.922 226.045 104.788 225.772 104.705L223.031 113.73ZM226.26 114.397C226.834 114.479 227.444 114.553 228.082 114.618L229.044 105.235C228.513 105.181 228.029 105.122 227.594 105.06L226.26 114.397ZM224.271 106.302C223.926 107.582 223.792 108.878 223.852 110.149L233.274 109.705C233.26 109.399 233.291 109.081 233.379 108.756L224.271 106.302ZM239.692 97.4289C232.996 95.6445 226.08 99.5899 224.271 106.302L233.379 108.756C233.824 107.104 235.551 106.087 237.264 106.543L239.692 97.4289ZM248.218 105.106C246.831 101.466 243.758 98.5123 239.692 97.4289L237.264 106.543C238.291 106.817 239.056 107.551 239.404 108.465L248.218 105.106ZM243.36 111.48C244.03 111.545 244.639 111.617 245.181 111.694L246.514 102.357C245.809 102.256 245.055 102.167 244.263 102.091L243.36 111.48ZM245.181 111.694C246.304 111.855 247.012 112.021 247.357 112.137L250.376 103.201C249.221 102.811 247.85 102.547 246.514 102.357L245.181 111.694ZM247.357 112.137C247.431 112.162 247.45 112.172 247.43 112.163C247.418 112.157 247.389 112.143 247.346 112.119C247.303 112.096 247.239 112.058 247.161 112.003L252.56 104.269C251.752 103.705 250.918 103.384 250.376 103.201L247.357 112.137ZM247.161 112.003C247.036 111.916 246.732 111.69 246.436 111.278C246.108 110.82 245.78 110.107 245.779 109.218L255.212 109.217C255.211 106.252 253.138 104.672 252.56 104.269L247.161 112.003ZM250.496 113.934H250.496V104.502H250.496V113.934ZM245.78 109.218C245.78 108.328 246.108 107.616 246.437 107.158C246.732 106.746 247.037 106.519 247.161 106.433L252.561 114.166C253.138 113.763 255.212 112.183 255.212 109.218H245.78ZM247.161 106.433C247.24 106.378 247.303 106.34 247.346 106.316C247.389 106.292 247.418 106.278 247.43 106.273C247.45 106.264 247.431 106.274 247.358 106.298L250.376 115.235C250.919 115.051 251.753 114.73 252.561 114.166L247.161 106.433ZM247.358 106.298C247.251 106.334 247.078 106.385 246.826 106.445L248.986 115.626C249.449 115.517 249.92 115.389 250.376 115.235L247.358 106.298ZM246.826 106.445C246.63 106.491 246.401 106.538 246.14 106.586L247.847 115.863C248.235 115.792 248.616 115.713 248.986 115.626L246.826 106.445ZM246.14 106.586C245.852 106.64 245.531 106.692 245.181 106.742L246.514 116.079C246.971 116.014 247.417 115.942 247.847 115.863L246.14 106.586ZM245.181 106.742C244.696 106.811 244.157 106.876 243.569 106.935L244.512 116.32C245.212 116.25 245.883 116.169 246.514 116.079L245.181 106.742ZM244.829 114.578C245.33 114.523 245.813 114.463 246.275 114.397L244.941 105.06C244.592 105.109 244.211 105.157 243.8 105.202L244.829 114.578ZM246.275 114.397C246.732 114.332 247.169 114.261 247.58 114.185L245.859 104.911C245.593 104.96 245.287 105.01 244.941 105.06L246.275 114.397ZM247.58 114.185C247.984 114.109 248.375 114.027 248.745 113.937L246.505 104.774C246.337 104.815 246.123 104.862 245.859 104.911L247.58 114.185ZM248.745 113.937C249 113.875 249.254 113.806 249.503 113.73L246.762 104.705C246.705 104.723 246.621 104.746 246.505 104.774L248.745 113.937ZM249.503 104.705C248.576 104.424 247.459 104.208 246.274 104.039L244.94 113.376C245.901 113.513 246.489 113.647 246.762 113.73L249.503 104.705ZM246.274 104.039C245.793 103.97 245.288 103.907 244.763 103.85L243.747 113.227C244.178 113.274 244.577 113.324 244.94 113.376L246.274 104.039ZM249.026 110.096C249.058 109.362 249.025 108.635 248.931 107.921L239.58 109.157C239.603 109.33 239.611 109.506 239.603 109.685L249.026 110.096ZM253.556 108.005L253.556 108.005L244.288 109.754L244.288 109.754L253.556 108.005ZM252.251 112.219C252.194 112.276 252.123 112.345 252.038 112.419C251.997 112.456 251.938 112.507 251.865 112.565C251.829 112.594 251.779 112.633 251.719 112.677C251.665 112.717 251.567 112.787 251.439 112.868L246.405 104.892C246.057 105.111 245.811 105.335 245.799 105.345C245.711 105.423 245.636 105.495 245.574 105.557L252.251 112.219ZM251.858 112.572L251.86 112.57L245.966 105.206L245.964 105.207L251.858 112.572ZM249.236 104.174C248.004 104.092 247.082 104.537 247.044 104.554C246.781 104.668 246.586 104.781 246.499 104.834C246.309 104.947 246.169 105.05 246.113 105.091C245.981 105.189 245.882 105.274 245.83 105.318C245.714 105.419 245.617 105.512 245.542 105.589L252.28 112.19C252.211 112.26 252.12 112.349 252.007 112.446C251.958 112.489 251.86 112.573 251.729 112.67C251.673 112.711 251.534 112.813 251.345 112.926C251.257 112.978 251.062 113.092 250.799 113.206C250.667 113.263 250.442 113.354 250.152 113.433C249.907 113.499 249.34 113.634 248.608 113.585L249.236 104.174ZM225.866 104.737L225.865 104.737L221.358 113.023L221.359 113.023L225.866 104.737ZM226.601 105.233C226.645 105.268 226.706 105.32 226.778 105.384C226.813 105.416 226.864 105.464 226.924 105.523C226.954 105.553 226.994 105.593 227.04 105.641C227.083 105.686 227.152 105.761 227.232 105.857L219.992 111.903C220.221 112.177 220.436 112.367 220.452 112.381C220.526 112.448 220.591 112.502 220.639 112.542L226.601 105.233ZM226.964 105.561L226.961 105.559L220.279 112.216L220.281 112.218L226.964 105.561ZM223.31 104.173C222.567 104.221 221.143 104.508 220.025 105.818C218.918 107.114 218.854 108.544 218.91 109.253C219.005 110.442 219.543 111.266 219.569 111.309C219.812 111.714 220.067 111.991 220.096 112.024C220.246 112.191 220.375 112.311 220.415 112.348C220.53 112.454 220.629 112.535 220.69 112.583L226.554 105.196C226.608 105.238 226.701 105.314 226.812 105.416C226.851 105.452 226.979 105.57 227.128 105.737C227.157 105.77 227.411 106.046 227.654 106.451C227.68 106.494 228.218 107.317 228.313 108.506C228.369 109.215 228.305 110.645 227.198 111.942C226.08 113.252 224.656 113.539 223.913 113.586L223.31 104.173Z" fill="black" mask="url(#path-32-outside-1)"/>
<path d="M280.79 117.428C285.142 117.428 288.671 113.899 288.671 109.546C288.671 105.193 285.142 101.665 280.79 101.665C276.437 101.665 272.908 105.193 272.908 109.546C272.908 113.899 276.437 117.428 280.79 117.428Z" fill="#DF3A1F"/>
<mask id="mask1" mask-type="alpha" maskUnits="userSpaceOnUse" x="272" y="101" width="17" height="17">
<path d="M280.79 117.428C285.142 117.428 288.671 113.899 288.671 109.546C288.671 105.193 285.142 101.665 280.79 101.665C276.437 101.665 272.908 105.193 272.908 109.546C272.908 113.899 276.437 117.428 280.79 117.428Z" fill="#DF3A1F"/>
</mask>
<g mask="url(#mask1)">
<rect x="270.902" y="109.759" width="2.97319" height="10.6186" rx="1.4866" transform="rotate(-90 270.902 109.759)" fill="#FF8874"/>
<rect x="272.601" y="106.786" width="2.54845" height="5.0969" rx="1.27423" transform="rotate(-90 272.601 106.786)" fill="#FF8874"/>
<rect x="280.247" y="116.674" width="2.66754" height="9.29471" rx="1.33377" transform="rotate(-90 280.247 116.674)" fill="#FF8874"/>
</g>
<path fill-rule="evenodd" clip-rule="evenodd" d="M288.67 109.422C289.261 109.198 289.812 108.976 290.319 108.76C291.461 108.272 292.41 107.795 293.069 107.356C293.393 107.14 293.692 106.904 293.908 106.648C294.099 106.421 294.387 105.981 294.241 105.439C294.096 104.897 293.627 104.659 293.348 104.558C293.033 104.444 292.656 104.389 292.267 104.364C291.477 104.314 290.417 104.376 289.184 104.524C288.544 104.601 287.847 104.703 287.103 104.828C287.466 105.312 287.774 105.84 288.018 106.401C288.501 106.326 288.958 106.263 289.387 106.211C290.463 106.081 291.332 106.03 291.959 106.05C291.426 106.382 290.648 106.772 289.652 107.197C289.277 107.357 288.876 107.52 288.45 107.686C288.585 108.244 288.661 108.825 288.67 109.422ZM273.918 113.41C273.634 112.906 273.403 112.367 273.235 111.801C272.657 111.894 272.112 111.971 271.607 112.032C270.531 112.162 269.662 112.213 269.036 112.193C269.568 111.861 270.346 111.472 271.343 111.046C271.835 110.836 272.374 110.619 272.953 110.4C272.923 110.119 272.908 109.835 272.908 109.546C272.908 109.22 272.927 108.898 272.966 108.582C272.13 108.888 271.362 109.19 270.675 109.483C269.533 109.971 268.585 110.448 267.926 110.887C267.601 111.103 267.302 111.339 267.087 111.595C266.895 111.822 266.608 112.262 266.753 112.804C266.898 113.346 267.367 113.584 267.647 113.685C267.961 113.799 268.338 113.854 268.728 113.879C269.518 113.929 270.577 113.868 271.81 113.719C272.458 113.641 273.164 113.538 273.918 113.41ZM268.361 112.724C268.36 112.724 268.363 112.72 268.369 112.711C268.364 112.719 268.361 112.723 268.361 112.724ZM292.809 106.173C292.808 106.173 292.804 106.171 292.796 106.166C292.805 106.17 292.809 106.173 292.809 106.173ZM292.626 105.532C292.63 105.524 292.633 105.52 292.634 105.52C292.634 105.519 292.632 105.523 292.626 105.532ZM268.199 112.077C268.189 112.073 268.185 112.07 268.186 112.07C268.186 112.07 268.191 112.072 268.199 112.077Z" fill="#304967"/>
<path d="M293.421 105.659C293.695 106.678 288.13 109.055 280.993 110.968C273.855 112.88 267.848 113.604 267.574 112.584" stroke="#304967" stroke-width="1.69897"/>
<mask id="path-41-outside-2" maskUnits="userSpaceOnUse" x="258.769" y="91.9142" width="44.4004" height="35.208" fill="black">
<rect fill="white" x="258.769" y="91.9142" width="44.4004" height="35.208"/>
<path fill-rule="evenodd" clip-rule="evenodd" d="M288.751 109.403C288.74 113.723 285.216 117.221 280.87 117.221C277.983 117.221 275.46 115.679 274.086 113.377C273.791 113.427 273.503 113.474 273.223 113.517C273.109 113.534 272.996 113.551 272.884 113.568C272.54 113.618 272.208 113.662 271.891 113.701C270.657 113.849 269.598 113.911 268.808 113.86C268.419 113.835 268.041 113.78 267.727 113.666C267.447 113.565 266.979 113.328 266.833 112.786C266.688 112.244 266.976 111.804 267.167 111.577C267.382 111.321 267.682 111.084 268.006 110.868C268.665 110.429 269.613 109.953 270.756 109.465C271.437 109.174 272.2 108.874 273.03 108.57C273.002 108.837 272.988 109.108 272.988 109.383C272.988 109.719 273.009 110.05 273.05 110.375C272.464 110.597 271.92 110.815 271.423 111.027C270.427 111.453 269.649 111.843 269.116 112.174C269.743 112.195 270.612 112.143 271.689 112.014C272.013 111.975 272.352 111.929 272.707 111.877C272.819 111.86 272.933 111.843 273.048 111.825C273.151 111.809 273.256 111.792 273.362 111.775L273.362 111.775C273.362 111.775 273.362 111.775 273.362 111.775C273.119 111.021 272.988 110.217 272.988 109.383C272.988 105.054 276.517 101.544 280.87 101.544C283.501 101.544 285.831 102.826 287.262 104.797C287.976 104.678 288.647 104.58 289.264 104.506C290.497 104.357 291.557 104.295 292.347 104.346C292.736 104.371 293.113 104.426 293.428 104.54C293.707 104.641 294.176 104.878 294.321 105.42L294.321 105.421L294.323 105.42C294.468 105.962 294.181 106.402 293.989 106.629C293.774 106.886 293.475 107.122 293.15 107.338C292.491 107.777 291.543 108.253 290.401 108.741C289.894 108.958 289.342 109.179 288.751 109.403ZM288.559 107.656C288.974 107.495 289.366 107.335 289.732 107.179C290.728 106.753 291.506 106.363 292.039 106.032C291.412 106.011 290.543 106.063 289.467 106.192C289.054 106.242 288.613 106.303 288.15 106.375C288.322 106.785 288.459 107.214 288.559 107.656ZM292.706 105.513C292.71 105.505 292.714 105.501 292.714 105.501C292.714 105.501 292.714 105.502 292.712 105.504C292.711 105.506 292.709 105.509 292.706 105.513ZM268.279 112.059C268.269 112.054 268.265 112.052 268.266 112.052C268.266 112.052 268.271 112.054 268.279 112.059Z"/>
</mask>
<path d="M280.87 117.221L280.87 112.505L280.87 112.505L280.87 117.221ZM288.751 109.403L287.078 104.994C285.25 105.688 284.04 107.437 284.035 109.391L288.751 109.403ZM274.086 113.377L278.136 110.961C277.138 109.288 275.214 108.4 273.294 108.728L274.086 113.377ZM273.223 113.517L272.508 108.855L272.508 108.855L273.223 113.517ZM272.884 113.568L272.202 108.901L272.202 108.901L272.884 113.568ZM271.891 113.701L272.455 118.383L272.455 118.383L271.891 113.701ZM268.808 113.86L269.109 109.154L269.109 109.154L268.808 113.86ZM267.727 113.666L269.334 109.232L269.334 109.232L267.727 113.666ZM266.833 112.786L262.278 114.006L262.278 114.006L266.833 112.786ZM267.167 111.577L263.558 108.54L263.558 108.54L267.167 111.577ZM268.006 110.868L270.62 114.793L270.62 114.793L268.006 110.868ZM270.756 109.465L268.903 105.128L268.903 105.128L270.756 109.465ZM273.03 108.57L277.721 109.056C277.888 107.438 277.21 105.848 275.927 104.849C274.644 103.85 272.936 103.582 271.409 104.141L273.03 108.57ZM272.988 109.383L277.704 109.383L277.704 109.383L272.988 109.383ZM273.05 110.375L274.72 114.786C276.759 114.014 278.004 111.944 277.729 109.781L273.05 110.375ZM271.423 111.027L273.276 115.364L273.276 115.364L271.423 111.027ZM269.116 112.174L266.625 108.17C264.861 109.267 264.023 111.388 264.561 113.394C265.098 115.4 266.884 116.819 268.96 116.888L269.116 112.174ZM271.689 112.014L272.253 116.696L272.253 116.696L271.689 112.014ZM272.707 111.877L273.395 116.542L273.396 116.542L272.707 111.877ZM273.048 111.825L273.771 116.485L273.771 116.485L273.048 111.825ZM273.362 111.775L277.837 110.289C277.108 108.093 274.893 106.75 272.608 107.12L273.362 111.775ZM273.362 111.775L268.886 113.261C269.616 115.461 271.836 116.803 274.123 116.429L273.362 111.775ZM273.362 111.775L274.123 116.429C275.478 116.208 276.669 115.406 277.386 114.235C278.102 113.063 278.272 111.637 277.851 110.33L273.362 111.775ZM272.988 109.383L268.272 109.383L268.272 109.383L272.988 109.383ZM280.87 101.544L280.87 96.8282L280.87 96.8282L280.87 101.544ZM287.262 104.797L283.447 107.569C284.498 109.015 286.276 109.743 288.039 109.448L287.262 104.797ZM289.264 104.506L288.7 99.8235L288.7 99.8235L289.264 104.506ZM292.347 104.346L292.046 109.053L292.046 109.053L292.347 104.346ZM293.428 104.54L291.821 108.974L291.821 108.974L293.428 104.54ZM294.321 105.421L289.766 106.641C290.09 107.849 290.88 108.879 291.963 109.505C293.047 110.13 294.334 110.3 295.542 109.976L294.321 105.421ZM294.323 105.42L298.878 104.2C298.555 102.991 297.764 101.961 296.681 101.336C295.598 100.711 294.31 100.541 293.102 100.865L294.323 105.42ZM293.989 106.629L297.598 109.666L293.989 106.629ZM293.15 107.338L295.764 111.263L295.764 111.263L293.15 107.338ZM290.401 108.741L288.548 104.404L288.548 104.404L290.401 108.741ZM289.732 107.179L291.584 111.516L291.584 111.516L289.732 107.179ZM288.559 107.656L283.959 108.696C284.262 110.036 285.134 111.177 286.347 111.821C287.56 112.466 288.993 112.549 290.273 112.05L288.559 107.656ZM292.039 106.032L294.531 110.036C296.294 108.939 297.132 106.817 296.594 104.811C296.057 102.805 294.27 101.387 292.195 101.318L292.039 106.032ZM289.467 106.192L288.903 101.51L288.903 101.51L289.467 106.192ZM288.15 106.375L287.431 101.714C285.997 101.935 284.745 102.804 284.036 104.069C283.327 105.335 283.239 106.856 283.799 108.194L288.15 106.375ZM292.714 105.501L291.8 100.874L291.798 100.875L292.714 105.501ZM292.706 105.513L288.598 103.197C287.375 105.367 288.049 108.113 290.138 109.469C292.227 110.825 295.011 110.323 296.494 108.323L292.706 105.513ZM292.712 105.504L296.696 108.028L296.696 108.028L292.712 105.504ZM268.279 112.059L266.403 116.386C268.688 117.376 271.349 116.419 272.481 114.2C273.612 111.982 272.822 109.266 270.678 107.999L268.279 112.059ZM268.266 112.052L266.757 107.584L266.757 107.584L268.266 112.052ZM280.87 121.938C287.792 121.938 293.449 116.359 293.467 109.415L284.035 109.391C284.031 111.087 282.639 112.505 280.87 112.505L280.87 121.938ZM270.036 115.793C272.229 119.469 276.263 121.938 280.87 121.938L280.87 112.505C279.704 112.505 278.69 111.888 278.136 110.961L270.036 115.793ZM273.939 118.178C274.246 118.131 274.56 118.08 274.879 118.026L273.294 108.728C273.023 108.774 272.761 108.817 272.508 108.855L273.939 118.178ZM273.565 118.234C273.689 118.216 273.813 118.198 273.939 118.178L272.508 108.855C272.404 108.871 272.303 108.887 272.202 108.901L273.565 118.234ZM272.455 118.383C272.814 118.339 273.185 118.29 273.565 118.234L272.202 108.901C271.894 108.946 271.602 108.985 271.326 109.018L272.455 118.383ZM268.507 118.567C269.723 118.645 271.115 118.544 272.455 118.383L271.326 109.018C270.199 109.154 269.473 109.177 269.109 109.154L268.507 118.567ZM266.12 118.1C267.046 118.436 267.935 118.53 268.507 118.567L269.109 109.154C269.032 109.149 269.011 109.144 269.032 109.148C269.045 109.15 269.077 109.156 269.125 109.168C269.173 109.18 269.244 109.2 269.334 109.232L266.12 118.1ZM262.278 114.006C263.045 116.871 265.458 117.86 266.12 118.1L269.334 109.232C269.476 109.284 269.829 109.424 270.221 109.745C270.657 110.103 271.159 110.706 271.389 111.565L262.278 114.006ZM263.558 108.54C263.105 109.079 261.51 111.142 262.278 114.006L271.389 111.565C271.619 112.424 271.486 113.198 271.287 113.725C271.109 114.2 270.873 114.497 270.775 114.613L263.558 108.54ZM265.392 106.943C264.915 107.26 264.193 107.786 263.558 108.54L270.775 114.613C270.714 114.686 270.662 114.739 270.627 114.773C270.592 114.808 270.567 114.829 270.557 114.837C270.54 114.851 270.556 114.836 270.62 114.793L265.392 106.943ZM268.903 105.128C267.662 105.658 266.407 106.267 265.392 106.943L270.62 114.793C270.923 114.592 271.564 114.248 272.608 113.802L268.903 105.128ZM271.409 104.141C270.515 104.468 269.674 104.799 268.903 105.128L272.608 113.802C273.201 113.549 273.885 113.279 274.65 112.999L271.409 104.141ZM277.704 109.383C277.704 109.271 277.71 109.162 277.721 109.056L268.339 108.084C268.294 108.512 268.272 108.946 268.272 109.383L277.704 109.383ZM277.729 109.781C277.713 109.652 277.704 109.52 277.704 109.383L268.272 109.383C268.272 109.918 268.306 110.448 268.372 110.969L277.729 109.781ZM273.276 115.364C273.704 115.182 274.187 114.988 274.72 114.786L271.381 105.964C270.742 106.206 270.136 106.449 269.57 106.69L273.276 115.364ZM271.608 116.178C271.85 116.027 272.383 115.746 273.276 115.364L269.57 106.69C268.47 107.16 267.447 107.658 266.625 108.17L271.608 116.178ZM271.125 107.331C270.16 107.448 269.558 107.47 269.273 107.461L268.96 116.888C269.928 116.92 271.064 116.839 272.253 116.696L271.125 107.331ZM272.018 107.211C271.702 107.258 271.403 107.298 271.125 107.331L272.253 116.696C272.622 116.651 273.003 116.6 273.395 116.542L272.018 107.211ZM272.324 107.165C272.22 107.181 272.118 107.196 272.018 107.211L273.396 116.542C273.52 116.524 273.645 116.505 273.771 116.485L272.324 107.165ZM272.608 107.12C272.512 107.135 272.417 107.15 272.324 107.165L273.771 116.485C273.885 116.468 274 116.449 274.115 116.431L272.608 107.12ZM277.837 110.289L277.837 110.289L268.886 113.261L268.886 113.261L277.837 110.289ZM272.6 107.121C272.606 107.12 272.611 107.119 272.614 107.119C272.616 107.118 272.619 107.118 272.618 107.118C272.618 107.118 272.618 107.118 272.618 107.118C272.618 107.118 272.618 107.118 272.618 107.118C272.618 107.118 272.618 107.118 272.618 107.118C272.618 107.118 272.618 107.118 272.618 107.118C272.618 107.118 272.618 107.118 272.618 107.118C272.618 107.118 272.618 107.118 272.618 107.118C272.618 107.118 272.618 107.118 272.617 107.118C272.616 107.118 272.615 107.118 272.614 107.119C272.611 107.119 272.606 107.12 272.6 107.121L274.123 116.429C274.117 116.43 274.113 116.431 274.11 116.432C274.107 116.432 274.105 116.432 274.105 116.432C274.105 116.432 274.105 116.432 274.105 116.432C274.105 116.432 274.105 116.432 274.105 116.432C274.105 116.432 274.105 116.432 274.105 116.432C274.105 116.432 274.105 116.432 274.105 116.432C274.105 116.432 274.105 116.432 274.105 116.432C274.105 116.432 274.105 116.432 274.105 116.432C274.105 116.432 274.106 116.432 274.106 116.432C274.107 116.432 274.108 116.432 274.11 116.432C274.113 116.431 274.117 116.43 274.123 116.429L272.6 107.121ZM268.272 109.383C268.272 110.714 268.481 112.005 268.872 113.22L277.851 110.33C277.757 110.037 277.704 109.721 277.704 109.383L268.272 109.383ZM280.87 96.8282C273.936 96.8282 268.272 102.425 268.272 109.383L277.704 109.383C277.704 107.683 279.097 106.26 280.87 106.26L280.87 96.8282ZM291.078 102.025C288.793 98.8801 285.068 96.8282 280.87 96.8282L280.87 106.26C281.934 106.26 282.868 106.773 283.447 107.569L291.078 102.025ZM288.7 99.8235C288.001 99.9077 287.259 100.016 286.486 100.145L288.039 109.448C288.693 109.339 289.292 109.253 289.828 109.188L288.7 99.8235ZM292.648 99.6396C291.432 99.5617 290.039 99.6621 288.7 99.8235L289.828 109.188C290.955 109.052 291.682 109.029 292.046 109.053L292.648 99.6396ZM295.035 100.106C294.109 99.7703 293.22 99.6762 292.648 99.6396L292.046 109.053C292.123 109.057 292.144 109.062 292.122 109.059C292.109 109.056 292.077 109.05 292.03 109.038C291.982 109.026 291.911 109.006 291.821 108.974L295.035 100.106ZM298.877 104.2C298.109 101.336 295.697 100.346 295.035 100.106L291.821 108.974C291.678 108.922 291.326 108.783 290.934 108.461C290.498 108.103 289.996 107.5 289.766 106.641L298.877 104.2ZM298.877 104.2L298.877 104.2L289.766 106.641L289.766 106.641L298.877 104.2ZM293.102 100.865L293.101 100.865L295.542 109.976L295.543 109.976L293.102 100.865ZM297.598 109.666C298.051 109.127 299.646 107.064 298.878 104.2L289.767 106.641C289.537 105.782 289.67 105.008 289.869 104.481C290.048 104.006 290.283 103.709 290.381 103.593L297.598 109.666ZM295.764 111.263C296.241 110.946 296.964 110.42 297.598 109.666L290.381 103.593C290.442 103.52 290.494 103.467 290.529 103.433C290.565 103.399 290.589 103.377 290.599 103.369C290.616 103.355 290.6 103.37 290.536 103.413L295.764 111.263ZM292.253 113.078C293.494 112.548 294.75 111.939 295.764 111.263L290.536 103.413C290.233 103.615 289.592 103.958 288.548 104.404L292.253 113.078ZM290.425 113.813C291.067 113.569 291.679 113.323 292.253 113.078L288.548 104.404C288.108 104.592 287.617 104.79 287.078 104.994L290.425 113.813ZM287.879 102.842C287.564 102.976 287.219 103.117 286.846 103.263L290.273 112.05C290.729 111.872 291.168 111.694 291.584 111.516L287.879 102.842ZM289.547 102.028C289.305 102.179 288.772 102.46 287.879 102.842L291.584 111.516C292.685 111.046 293.708 110.548 294.531 110.036L289.547 102.028ZM290.032 110.875C290.995 110.759 291.597 110.736 291.883 110.746L292.195 101.318C291.227 101.287 290.091 101.367 288.903 101.51L290.032 110.875ZM288.869 111.036C289.287 110.971 289.675 110.918 290.032 110.875L288.903 101.51C288.432 101.567 287.94 101.635 287.431 101.714L288.869 111.036ZM293.16 106.617C292.999 105.905 292.777 105.216 292.501 104.555L283.799 108.194C283.866 108.355 283.92 108.523 283.959 108.696L293.16 106.617ZM291.798 100.875C290.59 101.114 289.817 101.779 289.783 101.807C289.558 101.985 289.398 102.146 289.327 102.219C289.173 102.378 289.064 102.514 289.02 102.568C288.918 102.697 288.843 102.805 288.806 102.861C288.719 102.989 288.65 103.104 288.598 103.197L296.814 107.83C296.766 107.915 296.701 108.024 296.617 108.147C296.581 108.201 296.507 108.308 296.406 108.435C296.363 108.489 296.254 108.625 296.1 108.784C296.029 108.857 295.87 109.017 295.645 109.196C295.532 109.286 295.338 109.432 295.078 109.582C294.858 109.709 294.347 109.985 293.63 110.127L291.798 100.875ZM296.696 108.028C296.726 107.981 296.819 107.834 296.92 107.635C296.94 107.595 297.112 107.266 297.242 106.818C297.257 106.77 297.562 105.85 297.36 104.691C297.241 104.008 296.831 102.636 295.435 101.65C294.012 100.644 292.543 100.728 291.8 100.874L293.627 110.128C292.885 110.275 291.415 110.358 289.992 109.353C288.597 108.367 288.187 106.994 288.068 106.311C287.866 105.152 288.171 104.233 288.185 104.184C288.316 103.737 288.488 103.408 288.508 103.369C288.608 103.171 288.7 103.025 288.728 102.98L296.696 108.028ZM296.494 108.323C296.541 108.26 296.614 108.158 296.696 108.028L288.729 102.98C288.772 102.912 288.81 102.856 288.838 102.816C288.867 102.773 288.894 102.736 288.918 102.704L296.494 108.323ZM270.155 107.732C270.217 107.759 270.327 107.808 270.461 107.878C270.507 107.903 270.662 107.984 270.849 108.106C270.885 108.13 271.202 108.331 271.541 108.659C271.578 108.694 272.311 109.35 272.71 110.474C272.948 111.143 273.257 112.541 272.523 114.08C271.782 115.636 270.481 116.282 269.775 116.52L266.757 107.584C266.051 107.822 264.749 108.468 264.008 110.024C263.275 111.563 263.584 112.961 263.822 113.63C264.221 114.754 264.954 115.41 264.99 115.445C265.33 115.773 265.647 115.975 265.684 115.999C265.872 116.122 266.028 116.204 266.077 116.23C266.215 116.302 266.331 116.354 266.403 116.386L270.155 107.732ZM269.775 116.52C269.086 116.753 268.508 116.769 268.256 116.768C267.956 116.767 267.716 116.738 267.573 116.717C267.29 116.675 267.072 116.616 266.974 116.588C266.761 116.527 266.6 116.464 266.536 116.439C266.384 116.379 266.267 116.324 266.208 116.295C266.074 116.23 265.963 116.168 265.879 116.119L270.678 107.999C270.586 107.944 270.469 107.879 270.331 107.812C270.27 107.782 270.151 107.726 269.998 107.665C269.933 107.64 269.771 107.577 269.558 107.516C269.46 107.488 269.242 107.429 268.959 107.387C268.913 107.38 267.918 107.192 266.757 107.584L269.775 116.52Z" fill="black" mask="url(#path-41-outside-2)"/>
<g clip-path="url(#clip2)">
<path d="M327.187 117.191C331.392 116.064 333.887 111.742 332.76 107.538C331.634 103.333 327.312 100.838 323.107 101.965C318.903 103.091 316.407 107.413 317.534 111.618C318.661 115.822 322.983 118.318 327.187 117.191Z" fill="#DF3A1F"/>
<mask id="mask2" mask-type="alpha" maskUnits="userSpaceOnUse" x="317" y="101" width="17" height="17">
<path d="M327.187 117.191C331.392 116.064 333.887 111.742 332.76 107.538C331.634 103.333 327.312 100.838 323.107 101.965C318.903 103.091 316.407 107.413 317.534 111.618C318.661 115.822 322.983 118.318 327.187 117.191Z" fill="#DF3A1F"/>
</mask>
<g mask="url(#mask2)">
<rect x="315.652" y="112.342" width="2.97319" height="10.6186" rx="1.4866" transform="rotate(-105 315.652 112.342)" fill="#FF8874"/>
<rect x="316.523" y="109.03" width="2.54845" height="5.0969" rx="1.27423" transform="rotate(-105 316.523 109.03)" fill="#FF8874"/>
<rect x="326.467" y="116.603" width="2.66754" height="9.29471" rx="1.33377" transform="rotate(-105 326.467 116.603)" fill="#FF8874"/>
</g>
<path fill-rule="evenodd" clip-rule="evenodd" d="M332.727 107.418C333.24 107.048 333.716 106.692 334.149 106.351C335.126 105.584 335.919 104.879 336.442 104.284C336.7 103.992 336.928 103.686 337.069 103.383C337.195 103.114 337.359 102.615 337.079 102.128C336.798 101.642 336.284 101.535 335.988 101.509C335.654 101.48 335.276 101.525 334.893 101.602C334.117 101.757 333.11 102.091 331.957 102.554C331.358 102.794 330.711 103.073 330.025 103.386C330.501 103.76 330.935 104.19 331.316 104.669C331.763 104.471 332.188 104.292 332.59 104.13C333.595 103.727 334.421 103.452 335.032 103.31C334.604 103.768 333.953 104.346 333.1 105.015C332.78 105.266 332.434 105.528 332.066 105.798C332.341 106.302 332.564 106.844 332.727 107.418ZM319.51 115.089C319.105 114.675 318.743 114.214 318.434 113.711C317.9 113.95 317.394 114.166 316.922 114.355C315.916 114.759 315.091 115.034 314.48 115.176C314.908 114.718 315.559 114.14 316.412 113.471C316.832 113.141 317.297 112.792 317.799 112.431C317.698 112.167 317.609 111.896 317.534 111.618C317.45 111.303 317.386 110.987 317.341 110.672C316.613 111.183 315.949 111.674 315.363 112.135C314.385 112.901 313.593 113.607 313.07 114.201C312.812 114.494 312.584 114.8 312.442 115.103C312.317 115.372 312.153 115.871 312.433 116.357C312.714 116.843 313.228 116.951 313.524 116.977C313.858 117.005 314.236 116.961 314.619 116.884C315.395 116.728 316.402 116.395 317.555 115.932C318.161 115.689 318.816 115.406 319.51 115.089ZM313.965 115.863C313.965 115.864 313.966 115.859 313.97 115.849C313.968 115.858 313.966 115.863 313.965 115.863ZM335.885 103.208C335.884 103.208 335.879 103.208 335.87 103.205C335.881 103.207 335.885 103.208 335.885 103.208ZM335.542 102.636C335.544 102.627 335.546 102.623 335.547 102.622C335.547 102.622 335.546 102.627 335.542 102.636ZM313.641 115.281C313.631 115.279 313.627 115.278 313.627 115.278C313.627 115.277 313.633 115.278 313.641 115.281Z" fill="#304967"/>
<path d="M336.343 102.553C336.87 103.467 332.111 107.204 325.711 110.898C319.312 114.593 313.697 116.847 313.169 115.933" stroke="#304967" stroke-width="1.69897"/>
</g>
<mask id="path-50-outside-3" maskUnits="userSpaceOnUse" x="301.646" y="88.56" width="46.775" height="42.0167" fill="black">
<rect fill="white" x="301.646" y="88.56" width="46.775" height="42.0167"/>
<path fill-rule="evenodd" clip-rule="evenodd" d="M332.549 107.424C333.676 111.606 331.181 115.904 326.976 117.025C324.187 117.768 321.346 116.926 319.42 115.054C318.681 115.394 317.985 115.695 317.344 115.952C317.2 116.01 317.058 116.066 316.919 116.12C316.774 116.176 316.633 116.229 316.494 116.28C315.694 116.574 314.986 116.789 314.407 116.905C314.025 116.981 313.647 117.026 313.313 116.997C313.017 116.972 312.503 116.864 312.222 116.378C311.942 115.892 312.105 115.393 312.231 115.124C312.373 114.821 312.601 114.515 312.859 114.222C313.382 113.628 314.174 112.922 315.151 112.155C315.744 111.69 316.414 111.195 317.151 110.678C316.523 106.763 318.961 102.93 322.896 101.882C326.516 100.917 330.223 102.622 331.903 105.784C331.903 105.784 331.903 105.784 331.903 105.784L331.903 105.784C332.254 105.526 332.583 105.276 332.889 105.036C333.742 104.366 334.392 103.789 334.821 103.331C334.21 103.473 333.384 103.748 332.379 104.151C331.998 104.304 331.596 104.473 331.175 104.659C330.8 104.177 330.373 103.744 329.904 103.366C330.556 103.069 331.173 102.804 331.746 102.574C332.898 102.112 333.906 101.778 334.682 101.622C335.064 101.546 335.443 101.501 335.777 101.53C336.072 101.555 336.587 101.663 336.867 102.149L336.867 102.149L336.868 102.149C337.149 102.635 336.985 103.134 336.859 103.403C336.717 103.706 336.489 104.012 336.232 104.305C335.709 104.899 334.916 105.605 333.939 106.372C333.514 106.705 333.048 107.055 332.547 107.417C332.548 107.419 332.549 107.422 332.549 107.424ZM317.638 112.415C317.116 112.79 316.635 113.15 316.2 113.492C315.348 114.161 314.697 114.739 314.269 115.196C314.762 115.082 315.395 114.881 316.149 114.595C316.329 114.527 316.517 114.454 316.711 114.376C317.207 114.177 317.741 113.949 318.305 113.695C318.047 113.295 317.823 112.867 317.638 112.415ZM313.416 115.298L313.417 115.298C313.418 115.299 313.421 115.3 313.427 115.301L313.43 115.301C313.42 115.3 313.416 115.299 313.416 115.298ZM335.331 102.657C335.333 102.648 335.335 102.643 335.336 102.643C335.336 102.643 335.336 102.644 335.335 102.645C335.335 102.646 335.334 102.648 335.333 102.652L335.331 102.657Z"/>
</mask>
<path d="M326.976 117.025L325.762 112.467L326.976 117.025ZM332.549 107.424L337.103 106.197L337.103 106.197L332.549 107.424ZM319.42 115.054L322.708 111.672C321.31 110.313 319.219 109.954 317.448 110.77L319.42 115.054ZM317.344 115.952L319.101 120.329L319.101 120.329L317.344 115.952ZM316.919 116.12L315.223 111.719L315.223 111.719L316.919 116.12ZM316.494 116.28L314.869 111.853L314.869 111.853L316.494 116.28ZM314.407 116.905L315.335 121.529L315.335 121.529L314.407 116.905ZM313.313 116.997L312.909 121.696L312.909 121.696L313.313 116.997ZM312.222 116.378L308.138 118.736L308.138 118.736L312.222 116.378ZM312.231 115.124L307.96 113.125L307.96 113.125L312.231 115.124ZM312.859 114.222L316.4 117.337L316.4 117.337L312.859 114.222ZM315.151 112.155L312.239 108.446L312.239 108.446L315.151 112.155ZM317.151 110.678L319.86 114.538C321.337 113.502 322.093 111.713 321.807 109.931L317.151 110.678ZM322.896 101.882L321.682 97.3245L322.896 101.882ZM331.903 105.784L327.738 107.997C328.381 109.206 329.517 110.076 330.851 110.381C332.186 110.687 333.587 110.397 334.691 109.588L331.903 105.784ZM331.903 105.784L334.691 109.587C336.574 108.207 337.164 105.657 336.078 103.59L331.903 105.784ZM331.903 105.784L329.108 101.985C327.23 103.366 326.644 105.913 327.728 107.977L331.903 105.784ZM332.889 105.036L329.977 101.326L329.977 101.326L332.889 105.036ZM334.821 103.331L338.264 106.553C339.683 105.037 339.944 102.771 338.905 100.973C337.867 99.1741 335.774 98.2665 333.752 98.7374L334.821 103.331ZM332.379 104.151L334.135 108.528L334.135 108.528L332.379 104.151ZM331.175 104.659L327.452 107.554C328.779 109.26 331.095 109.846 333.074 108.976L331.175 104.659ZM329.904 103.366L327.951 99.0734C326.462 99.7509 325.43 101.152 325.225 102.775C325.02 104.398 325.67 106.012 326.944 107.039L329.904 103.366ZM331.746 102.574L329.989 98.1978L329.989 98.1978L331.746 102.574ZM334.682 101.622L335.609 106.246L335.609 106.246L334.682 101.622ZM335.777 101.53L335.372 106.229L335.372 106.229L335.777 101.53ZM336.867 102.149L332.783 104.507C334.085 106.763 336.97 107.536 339.225 106.234L336.867 102.149ZM336.868 102.149L340.952 99.7909C339.65 97.5352 336.766 96.7624 334.51 98.0647L336.868 102.149ZM336.859 103.403L341.13 105.402L336.859 103.403ZM336.232 104.305L339.773 107.42L339.773 107.42L336.232 104.305ZM333.939 106.372L336.851 110.081L336.851 110.081L333.939 106.372ZM332.547 107.417L329.787 103.593C328.196 104.741 327.483 106.754 327.994 108.647L332.547 107.417ZM316.2 113.492L319.112 117.201L319.112 117.201L316.2 113.492ZM317.638 112.415L322.003 110.63C321.457 109.294 320.328 108.282 318.941 107.883C317.553 107.484 316.06 107.743 314.887 108.585L317.638 112.415ZM314.269 115.196L310.826 111.974C309.406 113.49 309.146 115.756 310.184 117.554C311.223 119.353 313.315 120.261 315.338 119.79L314.269 115.196ZM316.149 114.595L317.818 119.006L317.818 119.006L316.149 114.595ZM316.711 114.376L318.468 118.753L318.468 118.753L316.711 114.376ZM318.305 113.695L320.242 117.995C321.495 117.43 322.44 116.347 322.829 115.029C323.218 113.711 323.012 112.289 322.266 111.134L318.305 113.695ZM313.417 115.298L315.084 110.887C314.564 110.69 314.013 110.587 313.457 110.583L313.417 115.298ZM313.416 115.298L313.455 110.583C312.514 110.575 311.591 110.849 310.806 111.37L313.416 115.298ZM313.427 115.301L314.655 110.747C314.502 110.706 314.347 110.672 314.19 110.647L313.427 115.301ZM313.43 115.301L312.739 119.967C315.21 120.333 317.538 118.709 318.047 116.263C318.557 113.817 317.07 111.398 314.658 110.748L313.43 115.301ZM335.336 102.643L333.261 98.408L333.259 98.4086L335.336 102.643ZM335.331 102.657L330.763 101.484C330.141 103.906 331.518 106.394 333.902 107.151C336.286 107.909 338.847 106.674 339.738 104.337L335.331 102.657ZM335.335 102.645L339.722 104.375C339.791 104.201 339.85 104.022 339.897 103.84L335.335 102.645ZM335.333 102.652L339.74 104.331C339.785 104.213 339.825 104.093 339.861 103.971L335.333 102.652ZM328.19 121.582C334.896 119.795 338.914 112.919 337.103 106.197L327.996 108.651C328.438 110.292 327.465 112.014 325.762 112.467L328.19 121.582ZM316.133 118.435C319.202 121.419 323.737 122.768 328.19 121.582L325.762 112.467C324.636 112.767 323.489 112.433 322.708 111.672L316.133 118.435ZM319.101 120.329C319.825 120.039 320.594 119.705 321.392 119.338L317.448 110.77C316.768 111.083 316.144 111.352 315.588 111.576L319.101 120.329ZM318.614 120.521C318.775 120.459 318.938 120.395 319.101 120.329L315.588 111.576C315.463 111.626 315.341 111.674 315.223 111.719L318.614 120.521ZM318.119 120.707C318.283 120.647 318.448 120.585 318.614 120.521L315.223 111.719C315.101 111.766 314.983 111.811 314.869 111.853L318.119 120.707ZM315.335 121.529C316.245 121.346 317.205 121.043 318.119 120.707L314.869 111.853C314.182 112.105 313.727 112.231 313.48 112.281L315.335 121.529ZM312.909 121.696C313.89 121.781 314.773 121.641 315.335 121.529L313.48 112.281C313.405 112.296 313.383 112.297 313.405 112.295C313.418 112.294 313.45 112.291 313.499 112.29C313.548 112.289 313.623 112.29 313.718 112.299L312.909 121.696ZM308.138 118.736C309.621 121.304 312.207 121.636 312.909 121.696L313.718 112.299C313.869 112.312 314.246 112.355 314.708 112.564C315.221 112.797 315.862 113.25 316.307 114.02L308.138 118.736ZM307.96 113.125C307.661 113.762 306.655 116.168 308.138 118.736L316.307 114.02C316.751 114.79 316.823 115.572 316.768 116.132C316.718 116.637 316.567 116.985 316.503 117.123L307.96 113.125ZM309.318 111.107C308.939 111.537 308.377 112.232 307.96 113.125L316.503 117.123C316.462 117.209 316.426 117.274 316.401 117.316C316.376 117.358 316.357 117.385 316.35 117.396C316.337 117.413 316.349 117.395 316.4 117.337L309.318 111.107ZM312.239 108.446C311.178 109.278 310.123 110.192 309.318 111.107L316.4 117.337C316.64 117.064 317.17 116.566 318.063 115.865L312.239 108.446ZM314.442 106.817C313.649 107.374 312.909 107.92 312.239 108.446L318.063 115.865C318.579 115.461 319.18 115.015 319.86 114.538L314.442 106.817ZM321.682 97.3245C315.402 98.9979 311.484 105.126 312.494 111.425L321.807 109.931C321.562 108.399 322.519 106.863 324.111 106.439L321.682 97.3245ZM336.068 103.571C333.375 98.5034 327.456 95.7858 321.682 97.3245L324.111 106.439C325.576 106.048 327.071 106.741 327.738 107.997L336.068 103.571ZM329.115 101.98C329.111 101.983 329.107 101.986 329.105 101.987C329.104 101.988 329.103 101.989 329.103 101.989C329.102 101.99 329.102 101.99 329.102 101.99C329.102 101.99 329.102 101.99 329.102 101.99C329.102 101.99 329.102 101.99 329.102 101.99C329.102 101.99 329.102 101.99 329.102 101.99C329.102 101.99 329.102 101.99 329.102 101.99C329.101 101.99 329.103 101.989 329.105 101.987C329.107 101.986 329.111 101.983 329.115 101.98L334.691 109.588C334.695 109.584 334.699 109.582 334.701 109.58C334.702 109.58 334.703 109.579 334.704 109.578C334.704 109.578 334.704 109.578 334.704 109.578C334.704 109.578 334.704 109.578 334.704 109.578C334.704 109.578 334.704 109.578 334.704 109.578C334.704 109.578 334.704 109.578 334.704 109.578C334.704 109.578 334.704 109.578 334.704 109.578C334.705 109.578 334.703 109.579 334.701 109.58C334.699 109.582 334.696 109.584 334.691 109.587L329.115 101.98ZM327.728 107.977L327.728 107.978L336.078 103.59L336.078 103.59L327.728 107.977ZM329.977 101.326C329.714 101.533 329.424 101.753 329.108 101.985L334.698 109.583C335.083 109.299 335.452 109.019 335.801 108.745L329.977 101.326ZM331.378 100.108C331.182 100.317 330.741 100.726 329.977 101.326L335.801 108.745C336.742 108.007 337.602 107.261 338.264 106.553L331.378 100.108ZM334.135 108.528C335.036 108.166 335.612 107.989 335.89 107.924L333.752 98.7374C332.808 98.957 331.732 99.3288 330.622 99.7745L334.135 108.528ZM333.074 108.976C333.453 108.809 333.808 108.659 334.135 108.528L330.622 99.7745C330.189 99.9484 329.739 100.138 329.276 100.342L333.074 108.976ZM326.944 107.039C327.134 107.191 327.304 107.364 327.452 107.554L334.897 101.764C334.297 100.991 333.612 100.298 332.863 99.6941L326.944 107.039ZM329.989 98.1978C329.341 98.4578 328.659 98.7515 327.951 99.0734L331.856 107.659C332.454 107.387 333.005 107.151 333.503 106.951L329.989 98.1978ZM333.755 96.9984C332.56 97.238 331.241 97.6953 329.989 98.1978L333.503 106.951C334.556 106.528 335.252 106.318 335.609 106.246L333.755 96.9984ZM336.181 96.8312C335.199 96.7467 334.317 96.8858 333.755 96.9984L335.609 106.246C335.685 106.231 335.706 106.23 335.685 106.232C335.672 106.234 335.639 106.236 335.59 106.237C335.541 106.238 335.467 106.237 335.372 106.229L336.181 96.8312ZM340.952 99.7911C339.469 97.2231 336.883 96.8916 336.181 96.8312L335.372 106.229C335.221 106.216 334.844 106.172 334.382 105.963C333.869 105.73 333.228 105.277 332.783 104.507L340.952 99.7911ZM340.952 99.7912L340.952 99.7911L332.783 104.507L332.783 104.507L340.952 99.7912ZM334.51 98.0647L334.509 98.065L339.225 106.234L339.226 106.233L334.51 98.0647ZM341.13 105.402C341.429 104.764 342.435 102.359 340.952 99.7909L332.784 104.507C332.339 103.737 332.267 102.955 332.323 102.395C332.372 101.89 332.523 101.542 332.587 101.404L341.13 105.402ZM339.773 107.42C340.151 106.99 340.713 106.295 341.13 105.402L332.587 101.404C332.628 101.318 332.664 101.253 332.689 101.211C332.715 101.169 332.733 101.142 332.741 101.131C332.753 101.114 332.742 101.132 332.691 101.19L339.773 107.42ZM336.851 110.081C337.912 109.249 338.967 108.335 339.773 107.42L332.691 101.19C332.45 101.463 331.92 101.961 331.027 102.662L336.851 110.081ZM335.308 111.241C335.853 110.847 336.37 110.459 336.851 110.081L331.027 102.662C330.658 102.952 330.244 103.263 329.787 103.593L335.308 111.241ZM337.103 106.197C337.102 106.193 337.101 106.188 337.1 106.186L327.994 108.647C327.995 108.65 327.996 108.651 327.996 108.652L337.103 106.197ZM319.112 117.201C319.487 116.907 319.914 116.587 320.389 116.246L314.887 108.585C314.319 108.993 313.783 109.394 313.288 109.782L319.112 117.201ZM317.712 118.419C317.907 118.211 318.349 117.801 319.112 117.201L313.288 109.782C312.347 110.521 311.487 111.267 310.826 111.974L317.712 118.419ZM314.48 110.184C313.832 110.43 313.413 110.553 313.2 110.603L315.338 119.79C316.11 119.61 316.957 119.332 317.818 119.006L314.48 110.184ZM314.954 109.999C314.787 110.066 314.629 110.128 314.48 110.184L317.818 119.006C318.03 118.926 318.246 118.842 318.468 118.753L314.954 109.999ZM316.369 109.394C315.855 109.626 315.382 109.828 314.954 109.999L318.468 118.753C319.033 118.526 319.626 118.272 320.242 117.995L316.369 109.394ZM313.273 114.2C313.569 114.926 313.929 115.612 314.345 116.255L322.266 111.134C322.165 110.978 322.077 110.809 322.003 110.63L313.273 114.2ZM313.457 110.583L313.455 110.583L313.376 120.014L313.377 120.014L313.457 110.583ZM314.19 110.647C314.246 110.656 314.326 110.67 314.423 110.691C314.47 110.701 314.54 110.717 314.624 110.74C314.667 110.751 314.724 110.767 314.792 110.787C314.854 110.806 314.958 110.839 315.084 110.887L311.75 119.71C312.105 119.844 312.405 119.905 312.418 119.908C312.517 119.929 312.602 119.944 312.664 119.955L314.19 110.647ZM314.658 110.748L314.655 110.747L312.199 119.854L312.202 119.855L314.658 110.748ZM310.806 111.37C310.187 111.782 309.095 112.741 308.779 114.436C308.467 116.114 309.128 117.387 309.531 117.973C310.208 118.956 311.086 119.399 311.13 119.424C311.543 119.652 311.901 119.765 311.943 119.779C312.157 119.849 312.328 119.888 312.382 119.9C312.535 119.934 312.66 119.955 312.739 119.967L314.122 110.636C314.19 110.646 314.308 110.665 314.456 110.699C314.507 110.71 314.677 110.749 314.89 110.819C314.931 110.832 315.289 110.945 315.702 111.173C315.746 111.198 316.624 111.642 317.301 112.624C317.704 113.21 318.365 114.483 318.052 116.161C317.737 117.856 316.645 118.815 316.026 119.227L310.806 111.37ZM333.259 98.4086C332.149 98.9532 331.572 99.8005 331.547 99.8342C331.376 100.065 331.264 100.261 331.214 100.351C331.106 100.544 331.036 100.703 331.009 100.767C330.943 100.918 330.899 101.041 330.877 101.105C330.827 101.251 330.79 101.38 330.763 101.484L339.899 103.83C339.874 103.925 339.84 104.048 339.791 104.189C339.77 104.25 339.726 104.372 339.661 104.521C339.634 104.585 339.564 104.743 339.457 104.936C339.407 105.025 339.295 105.222 339.124 105.452C339.038 105.568 338.888 105.76 338.675 105.973C338.496 106.153 338.071 106.554 337.412 106.878L333.259 98.4086ZM339.897 103.84C339.909 103.794 339.975 103.55 340.015 103.231C340.02 103.194 340.114 102.576 339.979 101.817C339.936 101.579 339.704 100.18 338.411 99.0681C337.635 98.3997 336.626 97.9755 335.526 97.9309C334.518 97.8901 333.73 98.1783 333.261 98.408L337.41 106.878C336.941 107.108 336.153 107.396 335.145 107.355C334.045 107.311 333.037 106.887 332.26 106.218C330.967 105.106 330.735 103.707 330.692 103.469C330.557 102.71 330.652 102.093 330.656 102.056C330.696 101.738 330.761 101.494 330.773 101.449L339.897 103.84ZM339.861 103.971C339.847 104.018 339.831 104.072 339.811 104.132C339.792 104.188 339.763 104.273 339.722 104.375L330.948 100.914C330.875 101.1 330.829 101.252 330.805 101.332L339.861 103.971ZM339.738 104.337L339.74 104.331L330.926 100.972L330.924 100.977L339.738 104.337Z" fill="black" mask="url(#path-50-outside-3)"/>
</g>
<g clip-path="url(#clip3)">
<path d="M211.359 148.732C211.359 147.616 212.264 146.711 213.381 146.711H347.453C348.569 146.711 349.474 147.616 349.474 148.732V197.915C349.474 199.031 348.569 199.936 347.453 199.936H213.381C212.264 199.936 211.359 199.031 211.359 197.915V148.732Z" fill="black"/>
<rect x="215.93" y="156.48" width="40.3505" height="33.9794" rx="2.12371" fill="white"/>
<mask id="path-54-outside-4" maskUnits="userSpaceOnUse" x="223.672" y="159.817" width="26" height="29" fill="black">
<rect fill="white" x="223.672" y="159.817" width="26" height="29"/>
<path fill-rule="evenodd" clip-rule="evenodd" d="M242.668 164.826C242.666 164.827 242.665 164.828 242.663 164.828L240.86 165.095C238.898 165.385 237.279 166.695 236.555 168.473L235.437 165.814C235.211 165.278 234.595 165.027 234.059 165.252C233.524 165.477 233.272 166.094 233.498 166.629L234.823 169.781C234.685 169.769 234.546 169.763 234.406 169.763C231.24 169.763 228.672 172.941 228.672 176.862C228.672 180.783 231.24 183.961 234.406 183.961C235.077 183.961 235.72 183.819 236.318 183.557C236.916 183.818 237.559 183.961 238.229 183.961C241.396 183.961 243.963 180.782 243.963 176.862C243.963 173.841 242.439 171.26 240.29 170.235C241.412 169.382 242.196 168.11 242.412 166.647L242.679 164.844C242.679 164.842 242.68 164.84 242.681 164.839L242.689 164.831C242.692 164.828 242.69 164.824 242.686 164.825C242.684 164.825 242.682 164.823 242.682 164.821C242.683 164.817 242.678 164.815 242.676 164.818L242.668 164.826Z"/>
</mask>
<path d="M242.663 164.828L241.973 160.163L241.973 160.163L242.663 164.828ZM242.668 164.826L239.333 161.491L239.333 161.491L242.668 164.826ZM240.86 165.095L241.55 169.76L241.55 169.76L240.86 165.095ZM236.555 168.473L232.207 170.301L236.624 180.804L240.922 170.252L236.555 168.473ZM235.437 165.814L231.089 167.642L231.089 167.642L235.437 165.814ZM234.059 165.252L232.231 160.905L232.231 160.905L234.059 165.252ZM233.498 166.629L237.845 164.801L237.845 164.801L233.498 166.629ZM234.823 169.781L234.405 174.479L242.206 175.173L239.17 167.953L234.823 169.781ZM236.318 183.557L238.208 179.236L236.318 178.409L234.427 179.236L236.318 183.557ZM240.29 170.235L237.436 166.481L231.28 171.161L238.259 174.492L240.29 170.235ZM242.412 166.647L247.077 167.337L247.077 167.337L242.412 166.647ZM242.679 164.844L247.344 165.534L247.344 165.533L242.679 164.844ZM242.681 164.839L239.346 161.504L239.346 161.504L242.681 164.839ZM242.689 164.831L246.024 168.166L246.025 168.165L242.689 164.831ZM242.686 164.825L243.376 169.49L243.376 169.49L242.686 164.825ZM242.682 164.821L238.017 164.13L238.017 164.13L242.682 164.821ZM242.676 164.818L246.011 168.153L246.011 168.152L242.676 164.818ZM243.353 169.494C244.357 169.345 245.285 168.878 246.002 168.161L239.333 161.491C240.047 160.777 240.973 160.311 241.973 160.163L243.353 169.494ZM241.55 169.76L243.353 169.493L241.973 160.163L240.17 160.429L241.55 169.76ZM240.922 170.252C241.028 169.992 241.266 169.802 241.55 169.76L240.17 160.429C236.529 160.968 233.53 163.398 232.187 166.694L240.922 170.252ZM231.089 167.642L232.207 170.301L240.902 166.645L239.784 163.986L231.089 167.642ZM235.887 169.599C234.022 170.384 231.874 169.507 231.089 167.642L239.784 163.986C238.549 161.049 235.168 159.67 232.231 160.905L235.887 169.599ZM237.845 164.801C238.629 166.667 237.753 168.815 235.887 169.599L232.231 160.905C229.295 162.139 227.915 165.521 229.15 168.457L237.845 164.801ZM239.17 167.953L237.845 164.801L229.15 168.457L230.476 171.609L239.17 167.953ZM235.241 165.084C234.965 165.059 234.686 165.047 234.406 165.047V174.479C234.407 174.479 234.406 174.479 234.405 174.479L235.241 165.084ZM234.406 165.047C227.744 165.047 223.956 171.327 223.956 176.862H233.389C233.389 175.909 233.704 175.197 234.021 174.805C234.174 174.616 234.302 174.53 234.362 174.499C234.392 174.483 234.407 174.479 234.409 174.479C234.41 174.478 234.41 174.479 234.408 174.479C234.407 174.479 234.406 174.479 234.406 174.479V165.047ZM223.956 176.862C223.956 182.397 227.744 188.677 234.406 188.677V179.245C234.406 179.245 234.407 179.245 234.408 179.245C234.41 179.245 234.41 179.245 234.409 179.245C234.407 179.245 234.392 179.241 234.362 179.225C234.302 179.193 234.174 179.108 234.021 178.918C233.704 178.526 233.389 177.815 233.389 176.862H223.956ZM234.406 188.677C235.756 188.677 237.041 188.388 238.209 187.877L234.427 179.236C234.418 179.24 234.412 179.242 234.408 179.244C234.405 179.245 234.403 179.245 234.403 179.245C234.403 179.245 234.404 179.245 234.405 179.245C234.406 179.245 234.407 179.245 234.406 179.245V188.677ZM234.428 187.877C235.595 188.388 236.88 188.677 238.229 188.677V179.245C238.229 179.245 238.229 179.245 238.231 179.245C238.232 179.245 238.233 179.245 238.232 179.245C238.232 179.245 238.231 179.245 238.227 179.243C238.223 179.242 238.217 179.24 238.208 179.236L234.428 187.877ZM238.229 188.677C244.891 188.677 248.679 182.396 248.679 176.862H239.247C239.247 177.815 238.931 178.526 238.615 178.918C238.461 179.108 238.334 179.193 238.273 179.225C238.244 179.24 238.228 179.244 238.226 179.245C238.225 179.245 238.225 179.245 238.227 179.245C238.228 179.245 238.229 179.245 238.229 179.245V188.677ZM248.679 176.862C248.679 172.401 246.426 167.937 242.322 165.979L238.259 174.492C238.338 174.529 238.582 174.687 238.825 175.118C239.063 175.539 239.247 176.137 239.247 176.862H248.679ZM237.747 165.957C237.715 166.169 237.604 166.354 237.436 166.481L243.145 173.99C245.221 172.411 246.676 170.051 247.077 167.337L237.747 165.957ZM238.013 164.154L237.747 165.957L247.077 167.337L247.344 165.534L238.013 164.154ZM239.346 161.504C238.629 162.222 238.162 163.151 238.013 164.154L247.344 165.533C247.196 166.533 246.73 167.459 246.016 168.174L239.346 161.504ZM239.355 161.496L239.346 161.504L246.016 168.174L246.024 168.166L239.355 161.496ZM243.376 169.49C238.884 170.155 236.145 164.707 239.354 161.497L246.025 168.165C249.239 164.95 246.495 159.494 241.996 160.159L243.376 169.49ZM238.017 164.13C237.553 167.263 240.245 169.953 243.376 169.49L241.996 160.159C245.123 159.697 247.81 162.383 247.347 165.511L238.017 164.13ZM246.011 168.152C242.8 171.363 237.352 168.622 238.017 164.13L247.347 165.511C248.013 161.012 242.557 158.267 239.341 161.483L246.011 168.152ZM246.002 168.161L246.011 168.153L239.341 161.483L239.333 161.491L246.002 168.161Z" fill="black" mask="url(#path-54-outside-4)"/>
<path fill-rule="evenodd" clip-rule="evenodd" d="M242.668 164.826C242.666 164.827 242.665 164.828 242.663 164.828L240.86 165.095C238.453 165.451 236.562 167.341 236.206 169.749L235.94 171.552C235.939 171.553 235.939 171.555 235.937 171.556L235.929 171.564C235.927 171.567 235.929 171.571 235.932 171.57V171.57C235.935 171.57 235.937 171.572 235.936 171.575V171.575C235.936 171.578 235.94 171.58 235.942 171.578L235.951 171.569C235.952 171.568 235.953 171.567 235.955 171.567L237.758 171.3C240.166 170.944 242.056 169.054 242.412 166.646L242.679 164.843C242.679 164.842 242.68 164.84 242.681 164.839L242.689 164.831C242.692 164.828 242.69 164.824 242.686 164.825V164.825C242.684 164.825 242.682 164.823 242.682 164.82V164.82C242.683 164.817 242.678 164.815 242.676 164.817L242.668 164.826Z" fill="#1CC64B"/>
<path fill-rule="evenodd" clip-rule="evenodd" d="M238.229 183.961C241.396 183.961 243.963 180.782 243.963 176.861C243.963 172.941 241.396 169.762 238.229 169.762C237.559 169.762 236.915 169.905 236.317 170.167C235.72 169.905 235.076 169.763 234.406 169.763C231.24 169.763 228.672 172.941 228.672 176.862C228.672 180.783 231.24 183.961 234.406 183.961C235.077 183.961 235.72 183.819 236.318 183.557C236.916 183.818 237.559 183.961 238.229 183.961Z" fill="#FF0000"/>
<rect x="232.92" y="165.4" width="2.12371" height="6.37113" rx="1.06186" transform="rotate(-22.8057 232.92 165.4)" fill="#984900"/>
<rect x="215.93" y="192.583" width="5.0969" height="6.37113" rx="0.849484" fill="white"/>
<rect x="229.522" y="192.583" width="5.0969" height="6.37113" rx="0.849484" fill="white"/>
<rect x="243.114" y="192.583" width="5.0969" height="6.37113" rx="0.849484" fill="white"/>
<rect x="256.705" y="192.583" width="5.0969" height="6.37113" rx="0.849484" fill="white"/>
<rect x="270.297" y="192.583" width="5.0969" height="6.37113" rx="0.849484" fill="white"/>
<rect x="283.889" y="192.583" width="5.0969" height="6.37113" rx="0.849484" fill="white"/>
<rect x="297.48" y="192.583" width="5.0969" height="6.37113" rx="0.849484" fill="white"/>
<rect x="311.072" y="192.583" width="5.0969" height="6.37113" rx="0.849484" fill="white"/>
<rect x="324.664" y="192.583" width="5.0969" height="6.37113" rx="0.849484" fill="white"/>
<rect x="215.93" y="148.41" width="5.0969" height="6.37113" rx="0.849484" fill="white"/>
<rect x="229.522" y="148.41" width="5.0969" height="6.37113" rx="0.849484" fill="white"/>
<rect x="243.114" y="148.41" width="5.0969" height="6.37113" rx="0.849484" fill="white"/>
<rect x="256.705" y="148.41" width="5.0969" height="6.37113" rx="0.849484" fill="white"/>
<rect x="270.297" y="148.41" width="5.0969" height="6.37113" rx="0.849484" fill="white"/>
<rect x="283.889" y="148.41" width="5.0969" height="6.37113" rx="0.849484" fill="white"/>
<rect x="297.48" y="148.41" width="5.0969" height="6.37113" rx="0.849484" fill="white"/>
<rect x="311.072" y="148.41" width="5.0969" height="6.37113" rx="0.849484" fill="white"/>
<rect x="324.664" y="148.41" width="5.0969" height="6.37113" rx="0.849484" fill="white"/>
<rect x="305.125" y="156.48" width="40.3505" height="33.9794" rx="2.12371" fill="white"/>
<mask id="mask3" mask-type="alpha" maskUnits="userSpaceOnUse" x="305" y="156" width="41" height="35">
<rect x="305.125" y="156.48" width="40.3505" height="33.9794" rx="2.12371" fill="white"/>
</mask>
<g mask="url(#mask3)">
<mask id="path-79-outside-5" maskUnits="userSpaceOnUse" x="312.868" y="142.402" width="26" height="29" fill="black">
<rect fill="white" x="312.868" y="142.402" width="26" height="29"/>
<path fill-rule="evenodd" clip-rule="evenodd" d="M331.863 147.412C331.862 147.413 331.86 147.413 331.859 147.414L330.056 147.68C328.093 147.971 326.474 149.28 325.75 151.058L324.632 148.399C324.407 147.864 323.79 147.612 323.255 147.838C322.719 148.063 322.468 148.679 322.693 149.215L324.018 152.367C323.881 152.355 323.742 152.348 323.602 152.348C320.435 152.348 317.868 155.527 317.868 159.447C317.868 163.368 320.435 166.546 323.602 166.546C324.272 166.546 324.915 166.404 325.513 166.142C326.111 166.404 326.754 166.546 327.424 166.546C330.591 166.546 333.158 163.368 333.158 159.447C333.158 156.426 331.634 153.846 329.486 152.821C330.608 151.968 331.391 150.696 331.607 149.232L331.874 147.429C331.874 147.427 331.875 147.426 331.876 147.425L331.885 147.416C331.887 147.414 331.885 147.41 331.882 147.41C331.879 147.411 331.877 147.409 331.877 147.406C331.878 147.403 331.874 147.401 331.871 147.403L331.863 147.412Z"/>
</mask>
<path d="M331.859 147.414L331.169 142.748L331.169 142.748L331.859 147.414ZM331.863 147.412L335.198 150.746L335.198 150.746L331.863 147.412ZM330.056 147.68L329.366 143.015L329.366 143.015L330.056 147.68ZM325.75 151.058L321.403 152.886L325.819 163.39L330.118 152.838L325.75 151.058ZM324.632 148.399L320.284 150.227L320.284 150.227L324.632 148.399ZM323.255 147.838L321.427 143.49L321.427 143.49L323.255 147.838ZM322.693 149.215L327.04 147.387L327.04 147.387L322.693 149.215ZM324.018 152.367L323.601 157.064L331.401 157.758L328.366 150.539L324.018 152.367ZM325.513 166.142L327.404 161.822L325.513 160.994L323.622 161.822L325.513 166.142ZM329.486 152.821L326.632 149.066L320.475 153.747L327.455 157.077L329.486 152.821ZM331.607 149.232L326.942 148.542L326.942 148.542L331.607 149.232ZM331.874 147.429L336.539 148.119L336.54 148.118L331.874 147.429ZM331.876 147.425L335.211 150.76L335.211 150.76L331.876 147.425ZM331.885 147.416L328.55 144.082L328.55 144.082L331.885 147.416ZM331.882 147.41L332.572 152.076L332.572 152.076L331.882 147.41ZM331.877 147.406L327.212 146.716L327.212 146.716L331.877 147.406ZM331.871 147.403L328.537 144.068L328.536 144.068L331.871 147.403ZM332.549 152.079C333.552 151.931 334.481 151.463 335.198 150.746L328.528 144.077C329.243 143.362 330.168 142.896 331.169 142.748L332.549 152.079ZM330.746 152.346L332.549 152.079L331.169 142.748L329.366 143.015L330.746 152.346ZM330.118 152.838C330.224 152.577 330.462 152.388 330.746 152.346L329.366 143.015C325.725 143.554 322.725 145.983 321.382 149.279L330.118 152.838ZM320.284 150.227L321.403 152.886L330.097 149.23L328.979 146.571L320.284 150.227ZM325.083 152.185C323.217 152.969 321.069 152.093 320.284 150.227L328.979 146.571C327.745 143.635 324.363 142.255 321.427 143.49L325.083 152.185ZM327.04 147.387C327.825 149.252 326.948 151.401 325.083 152.185L321.427 143.49C318.49 144.725 317.111 148.106 318.346 151.043L327.04 147.387ZM328.366 150.539L327.04 147.387L318.346 151.043L319.671 154.195L328.366 150.539ZM324.436 147.669C324.16 147.645 323.882 147.632 323.602 147.632V157.065C323.602 157.065 323.602 157.065 323.601 157.064L324.436 147.669ZM323.602 147.632C316.939 147.632 313.152 153.913 313.152 159.447H322.584C322.584 158.494 322.899 157.783 323.216 157.391C323.369 157.201 323.497 157.116 323.558 157.084C323.587 157.069 323.603 157.065 323.604 157.064C323.606 157.064 323.605 157.064 323.604 157.064C323.602 157.065 323.601 157.065 323.602 157.065V147.632ZM313.152 159.447C313.152 164.982 316.939 171.263 323.602 171.263V161.83C323.601 161.83 323.602 161.83 323.604 161.831C323.605 161.831 323.606 161.831 323.604 161.831C323.603 161.83 323.587 161.826 323.558 161.811C323.497 161.779 323.369 161.694 323.216 161.504C322.899 161.112 322.584 160.401 322.584 159.447H313.152ZM323.602 171.263C324.951 171.263 326.236 170.974 327.404 170.463L323.622 161.822C323.614 161.826 323.607 161.828 323.604 161.829C323.6 161.83 323.598 161.831 323.598 161.831C323.598 161.831 323.599 161.831 323.6 161.831C323.601 161.83 323.602 161.83 323.602 161.83V171.263ZM323.623 170.463C324.79 170.974 326.075 171.262 327.424 171.262V161.83C327.424 161.83 327.425 161.83 327.426 161.83C327.427 161.83 327.428 161.831 327.428 161.831C327.428 161.831 327.426 161.83 327.422 161.829C327.419 161.828 327.412 161.826 327.404 161.822L323.623 170.463ZM327.424 171.262C334.087 171.262 337.874 164.982 337.874 159.447H328.442C328.442 160.4 328.127 161.112 327.81 161.504C327.657 161.694 327.529 161.779 327.468 161.81C327.439 161.826 327.423 161.83 327.422 161.83C327.42 161.831 327.421 161.83 327.422 161.83C327.424 161.83 327.425 161.83 327.424 161.83V171.262ZM337.874 159.447C337.874 154.986 335.621 150.523 331.517 148.564L327.455 157.077C327.534 157.115 327.777 157.272 328.021 157.704C328.258 158.125 328.442 158.723 328.442 159.447H337.874ZM326.942 148.542C326.911 148.754 326.799 148.939 326.632 149.066L332.34 156.575C334.416 154.997 335.871 152.637 336.273 149.922L326.942 148.542ZM327.209 146.739L326.942 148.542L336.273 149.922L336.539 148.119L327.209 146.739ZM328.541 144.09C327.824 144.807 327.357 145.736 327.209 146.74L336.54 148.118C336.392 149.119 335.926 150.045 335.211 150.76L328.541 144.09ZM328.55 144.082L328.541 144.09L335.211 150.76L335.219 150.751L328.55 144.082ZM332.572 152.076C328.079 152.74 325.339 147.292 328.55 144.082L335.219 150.751C338.435 147.536 335.691 142.08 331.191 142.745L332.572 152.076ZM327.212 146.716C326.749 149.848 329.44 152.539 332.572 152.076L331.191 142.745C334.318 142.282 337.006 144.969 336.543 148.097L327.212 146.716ZM335.206 150.738C331.996 153.948 326.547 151.209 327.212 146.716L336.543 148.097C337.209 143.596 331.751 140.854 328.537 144.068L335.206 150.738ZM335.198 150.746L335.206 150.738L328.536 144.068L328.528 144.077L335.198 150.746Z" fill="black" mask="url(#path-79-outside-5)"/>
<path fill-rule="evenodd" clip-rule="evenodd" d="M327.424 166.546C330.591 166.546 333.158 163.368 333.158 159.447C333.158 155.526 330.591 152.348 327.424 152.348C326.754 152.348 326.11 152.49 325.512 152.752C324.915 152.491 324.272 152.348 323.602 152.348C320.435 152.348 317.868 155.527 317.868 159.447C317.868 163.368 320.435 166.547 323.602 166.547C324.272 166.547 324.916 166.404 325.513 166.142C326.111 166.404 326.754 166.546 327.424 166.546Z" fill="#FF0000"/>
</g>
<mask id="mask4" mask-type="alpha" maskUnits="userSpaceOnUse" x="260" y="156" width="41" height="35">
<rect x="260.527" y="156.48" width="40.3505" height="33.9794" rx="2.12371" fill="white"/>
</mask>
<g mask="url(#mask4)">
<rect x="260.527" y="156.48" width="40.3505" height="33.9794" rx="2.12371" fill="white"/>
<mask id="path-84-outside-6" maskUnits="userSpaceOnUse" x="267.845" y="150.897" width="26" height="29" fill="black">
<rect fill="white" x="267.845" y="150.897" width="26" height="29"/>
<path fill-rule="evenodd" clip-rule="evenodd" d="M286.84 155.906C286.839 155.908 286.838 155.908 286.836 155.909L285.033 156.175C283.07 156.465 281.452 157.775 280.727 159.553L279.609 156.894C279.384 156.359 278.768 156.107 278.232 156.332C277.697 156.557 277.445 157.174 277.67 157.709L278.996 160.862C278.858 160.849 278.719 160.843 278.579 160.843C275.412 160.843 272.845 164.022 272.845 167.942C272.845 171.863 275.412 175.041 278.579 175.041C279.249 175.041 279.893 174.899 280.491 174.637C281.088 174.899 281.732 175.041 282.402 175.041C285.568 175.041 288.136 171.863 288.136 167.942C288.136 164.921 286.611 162.341 284.463 161.316C285.585 160.463 286.368 159.19 286.585 157.727L286.851 155.924C286.852 155.922 286.852 155.921 286.853 155.92L286.862 155.911C286.864 155.909 286.862 155.905 286.859 155.905C286.856 155.905 286.854 155.903 286.855 155.901C286.855 155.898 286.851 155.896 286.849 155.898L286.84 155.906Z"/>
</mask>
<path d="M286.836 155.909L286.146 151.243L286.146 151.243L286.836 155.909ZM286.84 155.906L283.506 152.571L283.505 152.572L286.84 155.906ZM285.033 156.175L285.723 160.841L285.723 160.841L285.033 156.175ZM280.727 159.553L276.38 161.381L280.796 171.885L285.095 161.332L280.727 159.553ZM279.609 156.894L275.262 158.722L275.262 158.722L279.609 156.894ZM278.232 156.332L276.404 151.985L276.404 151.985L278.232 156.332ZM277.67 157.709L282.018 155.882L282.018 155.881L277.67 157.709ZM278.996 160.862L278.578 165.559L286.379 166.253L283.343 159.034L278.996 160.862ZM280.491 174.637L282.381 170.317L280.49 169.489L278.6 170.317L280.491 174.637ZM284.463 161.316L281.609 157.561L275.453 162.241L282.432 165.572L284.463 161.316ZM286.585 157.727L291.25 158.417L291.25 158.417L286.585 157.727ZM286.851 155.924L291.517 156.614L291.517 156.613L286.851 155.924ZM286.853 155.92L283.519 152.585L283.519 152.585L286.853 155.92ZM286.862 155.911L290.197 159.246L290.197 159.246L286.862 155.911ZM286.859 155.905L286.169 151.24L286.168 151.24L286.859 155.905ZM286.855 155.901L282.189 155.211L282.189 155.212L286.855 155.901ZM286.849 155.898L290.183 159.233L290.183 159.233L286.849 155.898ZM287.526 160.574C288.529 160.425 289.458 159.958 290.175 159.241L283.505 152.572C284.22 151.857 285.146 151.391 286.146 151.243L287.526 160.574ZM285.723 160.841L287.526 160.574L286.146 151.243L284.343 151.51L285.723 160.841ZM285.095 161.332C285.201 161.072 285.439 160.883 285.723 160.841L284.343 151.51C280.702 152.048 277.702 154.478 276.36 157.774L285.095 161.332ZM275.262 158.722L276.38 161.381L285.075 157.725L283.957 155.066L275.262 158.722ZM280.06 160.68C278.194 161.464 276.046 160.588 275.262 158.722L283.957 155.066C282.722 152.13 279.341 150.75 276.404 151.985L280.06 160.68ZM282.018 155.881C282.802 157.747 281.926 159.895 280.06 160.68L276.404 151.985C273.468 153.22 272.088 156.601 273.323 159.537L282.018 155.881ZM283.343 159.034L282.018 155.882L273.323 159.537L274.648 162.69L283.343 159.034ZM279.413 156.164C279.137 156.14 278.859 156.127 278.579 156.127V165.559C278.579 165.559 278.579 165.559 278.578 165.559L279.413 156.164ZM278.579 156.127C271.917 156.127 268.129 162.408 268.129 167.942H277.561C277.561 166.989 277.877 166.278 278.193 165.886C278.347 165.696 278.474 165.611 278.535 165.579C278.564 165.564 278.58 165.56 278.582 165.559C278.583 165.559 278.583 165.559 278.581 165.559C278.579 165.559 278.579 165.559 278.579 165.559V156.127ZM268.129 167.942C268.129 173.477 271.917 179.757 278.579 179.757V170.325C278.579 170.325 278.579 170.325 278.581 170.325C278.583 170.326 278.583 170.326 278.582 170.325C278.58 170.325 278.564 170.321 278.535 170.305C278.474 170.274 278.347 170.189 278.193 169.999C277.877 169.607 277.561 168.895 277.561 167.942H268.129ZM278.579 179.757C279.928 179.757 281.214 179.469 282.382 178.958L278.6 170.317C278.591 170.321 278.585 170.323 278.581 170.324C278.577 170.325 278.576 170.326 278.575 170.326C278.575 170.326 278.576 170.325 278.577 170.325C278.579 170.325 278.579 170.325 278.579 170.325V179.757ZM278.6 178.958C279.768 179.469 281.053 179.757 282.402 179.757V170.325C282.401 170.325 282.402 170.325 282.403 170.325C282.404 170.325 282.405 170.325 282.405 170.325C282.405 170.325 282.403 170.325 282.4 170.324C282.396 170.323 282.39 170.32 282.381 170.317L278.6 178.958ZM282.402 179.757C289.064 179.757 292.852 173.477 292.852 167.942H283.419C283.419 168.895 283.104 169.606 282.787 169.998C282.634 170.188 282.506 170.273 282.446 170.305C282.416 170.321 282.401 170.325 282.399 170.325C282.398 170.325 282.398 170.325 282.4 170.325C282.401 170.325 282.402 170.325 282.402 170.325V179.757ZM292.852 167.942C292.852 163.481 290.598 159.018 286.494 157.059L282.432 165.572C282.511 165.61 282.755 165.767 282.998 166.198C283.235 166.619 283.419 167.217 283.419 167.942H292.852ZM281.919 157.037C281.888 157.249 281.776 157.434 281.609 157.561L287.317 165.07C289.394 163.491 290.849 161.132 291.25 158.417L281.919 157.037ZM282.186 155.234L281.919 157.037L291.25 158.417L291.517 156.614L282.186 155.234ZM283.519 152.585C282.802 153.302 282.334 154.231 282.186 155.235L291.517 156.613C291.369 157.614 290.903 158.54 290.188 159.255L283.519 152.585ZM283.527 152.576L283.519 152.585L290.188 159.255L290.197 159.246L283.527 152.576ZM287.549 160.57C283.06 161.235 280.315 155.789 283.527 152.576L290.197 159.246C293.414 156.029 290.665 150.575 286.169 151.24L287.549 160.57ZM282.189 155.212C281.727 158.342 284.416 161.034 287.549 160.57L286.168 151.24C289.297 150.777 291.981 153.465 291.52 156.59L282.189 155.212ZM290.183 159.233C286.973 162.443 281.525 159.703 282.189 155.211L291.52 156.592C292.186 152.093 286.729 149.348 283.514 152.563L290.183 159.233ZM290.175 159.241L290.183 159.233L283.514 152.563L283.506 152.571L290.175 159.241Z" fill="black" mask="url(#path-84-outside-6)"/>
<path fill-rule="evenodd" clip-rule="evenodd" d="M286.84 155.906C286.839 155.907 286.838 155.908 286.836 155.908L285.033 156.175C282.625 156.531 280.735 158.421 280.379 160.829L280.112 162.632C280.112 162.634 280.111 162.635 280.11 162.636L280.102 162.645C280.099 162.647 280.101 162.651 280.105 162.651V162.651C280.107 162.651 280.109 162.653 280.109 162.655V162.655C280.108 162.658 280.112 162.66 280.115 162.658L280.123 162.65C280.124 162.648 280.126 162.648 280.128 162.647L281.931 162.381C284.338 162.025 286.229 160.134 286.585 157.727L286.851 155.924C286.852 155.922 286.852 155.921 286.853 155.919L286.862 155.911C286.864 155.909 286.862 155.904 286.859 155.905V155.905C286.856 155.905 286.854 155.903 286.855 155.901V155.901C286.855 155.897 286.851 155.895 286.849 155.898L286.84 155.906Z" fill="#1CC64B"/>
<path fill-rule="evenodd" clip-rule="evenodd" d="M282.402 175.041C285.568 175.041 288.136 171.863 288.136 167.942C288.136 164.021 285.568 160.843 282.402 160.843C281.731 160.843 281.088 160.985 280.49 161.247C279.892 160.986 279.249 160.843 278.579 160.843C275.412 160.843 272.845 164.022 272.845 167.942C272.845 171.863 275.412 175.041 278.579 175.041C279.249 175.041 279.893 174.899 280.491 174.637C281.088 174.899 281.732 175.041 282.402 175.041Z" fill="#FF0000"/>
<rect x="277.093" y="156.48" width="2.12371" height="6.37113" rx="1.06186" transform="rotate(-22.8057 277.093 156.48)" fill="#984900"/>
</g>
</g>
<path d="M107.452 157.825C109.387 158.876 108.64 161.815 106.438 161.815L90.3599 161.815C90.0058 161.815 89.6573 161.726 89.3461 161.557L79.2766 156.087C77.3415 155.036 78.0882 152.097 80.2903 152.097L96.3684 152.097C96.7225 152.097 97.071 152.186 97.3822 152.355L107.452 157.825Z" fill="#FF0000"/>
<path d="M107.452 122.709C109.387 121.658 108.64 118.719 106.438 118.719L90.36 118.719C90.0059 118.719 89.6574 118.808 89.3462 118.977L79.2767 124.447C77.3417 125.498 78.0883 128.437 80.2904 128.437L96.3685 128.437C96.7226 128.437 97.0711 128.348 97.3823 128.179L107.452 122.709Z" fill="#FF0000"/>
<path d="M97.8215 140.267L28.674 140.267C29.6307 141.562 31.0976 143.201 33.1005 145.337C33.1005 145.337 42.4372 154.421 53.0471 154.843C63.657 155.266 96.1239 152.097 96.1239 152.097C97.0615 152.097 97.8215 151.34 97.8215 150.407L97.8215 140.267Z" fill="white"/>
<path d="M97.8215 140.267L28.674 140.267C29.6307 138.971 31.0976 137.333 33.1005 135.197C33.1005 135.197 42.4372 126.113 53.0471 125.69C63.657 125.268 96.1239 128.437 96.1239 128.437C97.0615 128.437 97.8215 129.193 97.8215 130.127L97.8215 140.267Z" fill="white"/>
<path d="M100.179 150.407C100.179 150.662 100.155 150.912 100.11 151.153L108.619 155.776C112.72 158.004 111.095 164.173 106.477 164.173L90.3614 164.173C89.6135 164.173 88.877 163.986 88.2193 163.629L78.1086 158.136C77.1965 157.641 76.5677 156.95 76.192 156.176C67.4348 156.834 57.9356 157.398 52.9527 157.2C47.0475 156.965 41.6432 154.343 37.8307 151.923C35.9014 150.698 34.3235 149.488 33.2247 148.583C32.6742 148.129 32.2413 147.749 31.9416 147.478C31.7917 147.343 31.675 147.235 31.5934 147.158C31.5525 147.12 31.5205 147.089 31.4975 147.067L31.4697 147.041L31.4609 147.032L31.4578 147.029L31.4566 147.028C31.4561 147.028 31.4556 147.027 33.0999 145.337L31.4556 147.027L31.4167 146.989L31.3797 146.95C29.3828 144.82 27.8261 143.089 26.7766 141.668L25.7419 140.267L26.7766 138.866C27.826 137.445 29.3828 135.714 31.3797 133.584L31.4167 133.545L31.4556 133.507L33.0999 135.197C31.4556 133.507 31.4561 133.506 31.4566 133.506L31.4578 133.505L31.4609 133.502L31.4697 133.493L31.4975 133.466C31.5086 133.456 31.5219 133.443 31.5373 133.429C31.5536 133.413 31.5723 133.395 31.5934 133.376C31.675 133.299 31.7917 133.191 31.9416 133.056C32.2413 132.785 32.6742 132.405 33.2247 131.951C34.3235 131.046 35.9014 129.836 37.8307 128.611C41.6432 126.191 47.0475 123.569 52.9527 123.334C57.9356 123.136 67.4348 123.7 76.192 124.358C76.5677 123.584 77.1965 122.893 78.1086 122.398L88.2193 116.905C88.877 116.548 89.6135 116.361 90.3614 116.361L106.477 116.361C111.095 116.361 112.72 122.53 108.619 124.758L100.11 129.38C100.155 129.622 100.179 129.872 100.179 130.127L100.179 140.267L100.179 150.407Z" stroke="black" stroke-width="4.7161"/>
<rect x="53.4863" y="136.225" width="4.7161" height="6.73729" rx="2.02119" fill="black"/>
<path d="M35.969 148.809C37.5499 146.069 41.0514 145.13 43.7897 146.712" stroke="black" stroke-width="3.36864" stroke-linecap="round"/>
<path fill-rule="evenodd" clip-rule="evenodd" d="M69.5768 140.998L73.3624 133.53L77.1487 141C77.5257 141.656 77.7416 142.419 77.7416 143.234C77.7416 145.688 75.7809 147.678 73.3623 147.678C70.9438 147.678 68.9831 145.688 68.9831 143.234C68.9831 142.419 69.1994 141.655 69.5768 140.998Z" fill="#00E0FF"/>
<path fill-rule="evenodd" clip-rule="evenodd" d="M76.5409 142.82C76.5319 142.461 76.2744 142.168 75.9387 142.044V142.044C75.32 141.817 74.6596 142.249 74.417 142.861C74.2273 143.34 73.9512 143.793 73.5878 144.196V144.196C73.1081 144.727 73.1725 145.841 73.8468 146.089L73.9873 146.14C74.1737 146.209 74.3797 146.211 74.5573 146.124C74.9481 145.933 75.31 145.665 75.6205 145.321C76.2596 144.613 76.5633 143.713 76.5409 142.82Z" fill="white"/>
<mask id="path-97-outside-7" maskUnits="userSpaceOnUse" x="63.7416" y="128.53" width="19" height="24" fill="black">
<rect fill="white" x="63.7416" y="128.53" width="19" height="24"/>
<path fill-rule="evenodd" clip-rule="evenodd" d="M73.3624 133.53L69.5768 140.998C69.1994 141.655 68.9831 142.419 68.9831 143.234C68.9831 145.688 70.9438 147.678 73.3623 147.678C75.7809 147.678 77.7416 145.688 77.7416 143.234C77.7416 142.419 77.5257 141.656 77.1487 141L73.3624 133.53Z"/>
</mask>
<path d="M69.5768 140.998L73.7834 143.13C73.7461 143.204 73.7068 143.277 73.6657 143.348L69.5768 140.998ZM73.3624 133.53L69.1558 131.397C69.9592 129.812 71.5854 128.814 73.3624 128.814C75.1394 128.814 76.7656 129.812 77.569 131.397L73.3624 133.53ZM77.1487 141L73.0589 143.348C73.0181 143.277 72.9792 143.205 72.9421 143.132L77.1487 141ZM65.3702 138.866L69.1558 131.397L77.569 135.662L73.7834 143.13L65.3702 138.866ZM64.267 143.234C64.267 141.575 64.709 140.003 65.488 138.648L73.6657 143.348C73.6768 143.329 73.6856 143.308 73.6914 143.286C73.6975 143.264 73.6992 143.245 73.6992 143.234L64.267 143.234ZM73.3623 152.394C68.2741 152.394 64.267 148.227 64.267 143.234L73.6992 143.234C73.6992 143.183 73.6737 143.116 73.6249 143.066C73.5749 143.015 73.477 142.962 73.3623 142.962L73.3623 152.394ZM82.4577 143.234C82.4577 148.227 78.4506 152.394 73.3623 152.394L73.3623 142.962C73.2477 142.962 73.1497 143.015 73.0997 143.066C73.051 143.116 73.0255 143.183 73.0255 143.234L82.4577 143.234ZM81.2385 138.651C82.0163 140.006 82.4577 141.576 82.4577 143.234L73.0255 143.234C73.0255 143.245 73.0271 143.264 73.0332 143.286C73.0391 143.308 73.0479 143.329 73.0589 143.348L81.2385 138.651ZM77.569 131.397L81.3553 138.868L72.9421 143.132L69.1558 135.662L77.569 131.397Z" fill="black" mask="url(#path-97-outside-7)"/>
<defs>
<clipPath id="clip0">
<path d="M211.359 85.0212C211.359 83.9049 212.264 83 213.381 83H347.453C348.569 83 349.474 83.9049 349.474 85.0212V134.203C349.474 135.32 348.569 136.225 347.453 136.225H213.381C212.264 136.225 211.359 135.32 211.359 134.203V85.0212Z" fill="white"/>
</clipPath>
<clipPath id="clip1">
<rect width="31.8557" height="31.8557" fill="white" transform="translate(225.267 90.2206) rotate(15)"/>
</clipPath>
<clipPath id="clip2">
<rect width="31.8557" height="31.8557" fill="white" transform="translate(305.732 98.2907) rotate(-15)"/>
</clipPath>
<clipPath id="clip3">
<path d="M211.359 148.732C211.359 147.616 212.264 146.711 213.381 146.711H347.453C348.569 146.711 349.474 147.616 349.474 148.732V197.915C349.474 199.031 348.569 199.936 347.453 199.936H213.381C212.264 199.936 211.359 199.031 211.359 197.915V148.732Z" fill="white"/>
</clipPath>
</defs>
</svg>
