<svg width="45" height="31" viewBox="0 0 45 31" fill="none" xmlns="http://www.w3.org/2000/svg">
<path fill-rule="evenodd" clip-rule="evenodd" d="M14.865 23.9823C14.3134 23.4834 13.5962 23.2072 12.8525 23.2072H3.6958C2.03895 23.2072 0.695801 21.8641 0.695801 20.2072V11.4131C0.695801 9.7562 2.03895 8.41306 3.6958 8.41306H11.8303C12.574 8.41306 13.2912 8.13682 13.8427 7.63794L21.1108 1.06385C23.0397 -0.680832 26.1232 0.68788 26.1232 3.28873L26.1232 27.4069C26.1232 30.0078 23.0397 31.3765 21.1108 29.6318L14.865 23.9823Z" fill="white"/>
<path d="M32.6289 11.7571C33.0582 12.1864 33.3987 12.6961 33.6311 13.257C33.8634 13.8179 33.983 14.4191 33.983 15.0262C33.983 15.6333 33.8634 16.2345 33.6311 16.7954C33.3987 17.3563 33.0582 17.866 32.6289 18.2953" stroke="white" stroke-width="5" stroke-linecap="round"/>
<path d="M37.7002 3.9114C39.1598 5.37102 40.3177 7.10384 41.1076 9.01094C41.8975 10.918 42.3041 12.962 42.3041 15.0263C42.3041 17.0905 41.8975 19.1345 41.1076 21.0416C40.3177 22.9487 39.1598 24.6815 37.7002 26.1411" stroke="white" stroke-width="5" stroke-linecap="round"/>
</svg>
