<svg width="65" height="50" viewBox="0 0 65 50" fill="none" xmlns="http://www.w3.org/2000/svg">
<rect width="65" height="50" rx="20" fill="#DF3A1F"/>
<path fill-rule="evenodd" clip-rule="evenodd" d="M24.8645 33.9822C24.3129 33.4833 23.5958 33.2071 22.8521 33.2071H13.6953C12.0385 33.2071 10.6953 31.8639 10.6953 30.2071V21.4129C10.6953 19.7561 12.0385 18.4129 13.6953 18.4129H21.8298C22.5735 18.4129 23.2907 18.1367 23.8422 17.6378L31.1103 11.0637C33.0392 9.31905 36.1228 10.6878 36.1228 13.2886L36.1228 37.4068C36.1228 40.0076 33.0392 41.3763 31.1103 39.6317L24.8645 33.9822Z" fill="white"/>
<path d="M42.6289 21.7573C43.0582 22.1866 43.3987 22.6962 43.6311 23.2571C43.8634 23.818 43.983 24.4192 43.983 25.0263C43.983 25.6335 43.8634 26.2346 43.6311 26.7955C43.3987 27.3565 43.0582 27.8661 42.6289 28.2954" stroke="white" stroke-width="5" stroke-linecap="round"/>
<path d="M47.6992 13.9114C49.1588 15.371 50.3167 17.1038 51.1066 19.0109C51.8966 20.918 52.3031 22.962 52.3031 25.0263C52.3031 27.0905 51.8966 29.1345 51.1066 31.0416C50.3167 32.9487 49.1588 34.6815 47.6992 36.1411" stroke="white" stroke-width="5" stroke-linecap="round"/>
</svg>
