<svg width="254" height="122" viewBox="0 0 254 122" fill="none" xmlns="http://www.w3.org/2000/svg">
<path d="M17.2063 102.611C12.6596 105.092 14.4218 112 19.6013 112H57.575C58.4118 112 59.2353 111.79 59.97 111.389L83.7937 98.3892C88.3404 95.9082 86.5782 89.0001 81.3987 89.0001H43.425C42.5881 89.0001 41.7646 89.2102 41.03 89.6111L17.2063 102.611Z" fill="#FF0000"/>
<path d="M17.2063 19.3891C12.6596 16.908 14.4218 10 19.6013 10H57.575C58.4118 10 59.2353 10.2101 59.97 10.6109L83.7937 23.6109C88.3404 26.092 86.5782 33 81.3987 33H43.425C42.5881 33 41.7646 32.7899 41.03 32.3891L17.2063 19.3891Z" fill="#FF0000"/>
<path d="M39.998 61.0001H202.93C200.675 64.0663 197.219 67.9435 192.5 73C192.5 73 170.5 94.5001 145.5 95.5001C120.5 96.5001 43.998 89.0001 43.998 89.0001C41.7889 89.0001 39.998 87.2092 39.998 85.0001L39.998 61.0001Z" fill="white"/>
<path d="M39.998 61.0001H202.93C200.675 57.9339 197.219 54.0565 192.5 49.0001C192.5 49.0001 170.5 27.5 145.5 26.5C120.5 25.5 43.998 33 43.998 33C41.7889 33 39.998 34.7909 39.998 37L39.998 61.0001Z" fill="white"/>
<path d="M34.9976 85.0001C34.9976 85.7143 35.0808 86.4091 35.238 87.0753L14.8108 98.2219C5.71737 103.184 9.24173 117 19.6008 117H57.5745C59.2482 117 60.8952 116.58 62.3645 115.778L86.1882 102.778C88.3493 101.599 89.7978 99.9195 90.6112 98.0444C111.356 99.6151 133.918 100.967 145.699 100.496C159.477 99.9449 172.115 93.7961 181.062 88.0908C185.585 85.2067 189.284 82.3587 191.86 80.2262C193.15 79.1581 194.163 78.2647 194.864 77.6295C195.214 77.3118 195.487 77.0582 195.676 76.8793C195.771 76.7898 195.845 76.7189 195.899 76.6679L195.962 76.6065L195.982 76.5873L195.989 76.5807L195.992 76.5781C195.993 76.577 195.994 76.576 192.499 73L195.994 76.576L196.076 76.4956L196.154 76.4116C200.861 71.3688 204.507 67.2944 206.958 63.962L209.135 61.0001L206.958 58.0382C204.507 54.7057 200.861 50.6313 196.154 45.5885L196.076 45.5045L195.994 45.4241L192.499 49.0001C195.994 45.4241 195.993 45.4231 195.992 45.422L195.989 45.4194L195.982 45.4127L195.962 45.3935L195.899 45.3321C195.845 45.2812 195.771 45.2103 195.676 45.1208C195.487 44.9418 195.214 44.6883 194.864 44.3706C194.163 43.7354 193.15 42.842 191.86 41.7739C189.284 39.6413 185.585 36.7934 181.062 33.9092C172.115 28.204 159.477 22.0551 145.699 21.504C133.918 21.0328 111.356 22.385 90.6112 23.9557C89.7978 22.0805 88.3494 20.4012 86.1882 19.2219L62.3645 6.22186C60.8952 5.42012 59.2482 5 57.5745 5H19.6009C9.24174 5 5.71738 18.8161 14.8108 23.7781L35.238 34.9247C35.0808 35.591 34.9976 36.2858 34.9976 37V61.0001V85.0001Z" stroke="black" stroke-width="10"/>
</svg>
