<svg width="254" height="122" viewBox="0 0 254 122" fill="none" xmlns="http://www.w3.org/2000/svg">
<path d="M17.2068 102.611C12.6601 105.092 14.4223 112 19.6018 112H57.5755C58.4123 112 59.2358 111.79 59.9705 111.389L83.7942 98.3891C88.3409 95.908 86.5787 89 81.3992 89H43.4255C42.5886 89 41.7651 89.2101 41.0305 89.6109L17.2068 102.611Z" fill="#FF0000"/>
<path d="M17.2068 19.3891C12.6601 16.908 14.4223 10 19.6018 10H57.5755C58.4123 10 59.2358 10.2101 59.9705 10.6109L83.7942 23.6109C88.3409 26.092 86.5787 33 81.3992 33H43.4255C42.5886 33 41.7651 32.7899 41.0305 32.3891L17.2068 19.3891Z" fill="#FF0000"/>
<path d="M39.998 61H202.93C200.675 64.0662 197.219 67.9434 192.5 72.9999C192.5 72.9999 170.5 94.5 145.5 95.5C120.5 96.5 43.998 89 43.998 89C41.7889 89 39.998 87.2091 39.998 85V61Z" fill="white"/>
<path d="M39.998 61.0001H202.93C200.675 57.9339 197.219 54.0565 192.5 49.0001C192.5 49.0001 170.5 27.5 145.5 26.5C120.5 25.5 43.998 33 43.998 33C41.7889 33 39.998 34.7909 39.998 37V61.0001Z" fill="white"/>
<path d="M34.9979 85.0001C34.9979 85.7143 35.0811 86.4091 35.2383 87.0753L14.8111 98.2219C5.71764 103.184 9.242 117 19.6011 117H57.5748C59.2485 117 60.8955 116.58 62.3648 115.778L86.1885 102.778C88.3496 101.599 89.7981 99.9195 90.6115 98.0444C111.356 99.6151 133.918 100.967 145.699 100.496C159.477 99.9449 172.115 93.7961 181.062 88.0908C185.585 85.2067 189.284 82.3587 191.86 80.2262C193.15 79.1581 194.163 78.2647 194.864 77.6295C195.214 77.3118 195.487 77.0582 195.676 76.8793C195.771 76.7898 195.845 76.7189 195.899 76.6679L195.962 76.6065L195.982 76.5873L195.989 76.5807L195.992 76.5781C195.993 76.577 195.994 76.576 192.499 73L195.994 76.576L196.076 76.4956L196.154 76.4116C200.861 71.3688 204.507 67.2944 206.958 63.962L209.135 61.0001L206.958 58.0382C204.507 54.7057 200.861 50.6313 196.154 45.5885L196.076 45.5045L195.994 45.4241L192.499 49.0001C195.994 45.4241 195.993 45.4231 195.992 45.422L195.989 45.4194L195.982 45.4127L195.962 45.3935L195.899 45.3321C195.845 45.2812 195.771 45.2103 195.676 45.1208C195.487 44.9418 195.214 44.6883 194.864 44.3706C194.163 43.7354 193.15 42.842 191.86 41.7739C189.284 39.6413 185.585 36.7934 181.062 33.9092C172.115 28.204 159.477 22.0551 145.699 21.504C133.918 21.0328 111.356 22.385 90.6115 23.9557C89.7981 22.0805 88.3497 20.4012 86.1885 19.2219L62.3648 6.22186C60.8955 5.42012 59.2485 5 57.5748 5H19.6012C9.24201 5 5.71765 18.8161 14.8111 23.7781L35.2383 34.9247C35.0811 35.591 34.9979 36.2858 34.9979 37V61.0001V85.0001Z" stroke="black" stroke-width="10"/>
<path d="M82.336 56.0079C82.6 55.4319 83.02 55.1439 83.596 55.1439C83.956 55.1439 84.28 55.2639 84.568 55.5039C84.856 55.7439 85 56.0439 85 56.4039C85 56.6199 84.952 56.8119 84.856 56.9799L77.836 72.0999C77.692 72.4119 77.476 72.6639 77.188 72.8559C76.9 73.0239 76.588 73.1079 76.252 73.1079C75.94 73.1079 75.64 73.0239 75.352 72.8559C75.064 72.6639 74.836 72.4119 74.668 72.0999L67.684 56.9799C67.588 56.8119 67.54 56.6319 67.54 56.4399C67.54 56.0799 67.696 55.7679 68.008 55.5039C68.344 55.2399 68.704 55.1079 69.088 55.1079C69.328 55.1079 69.556 55.1799 69.772 55.3239C70.012 55.4679 70.192 55.6719 70.312 55.9359L76.324 69.4359L82.336 56.0079ZM89.5852 73.1799C89.1532 73.1799 88.7932 73.0599 88.5052 72.8199C88.2412 72.5559 88.1092 72.1959 88.1092 71.7399V56.5479C88.1092 56.0919 88.2412 55.7439 88.5052 55.5039C88.7932 55.2399 89.1532 55.1079 89.5852 55.1079C90.0172 55.1079 90.3652 55.2399 90.6292 55.5039C90.8932 55.7439 91.0252 56.0919 91.0252 56.5479V71.7399C91.0252 72.2199 90.8932 72.5799 90.6292 72.8199C90.3652 73.0599 90.0172 73.1799 89.5852 73.1799ZM89.5852 51.3279C89.0092 51.3279 88.5412 51.1599 88.1812 50.8239C87.8212 50.4879 87.6412 50.0439 87.6412 49.4919C87.6412 48.9639 87.8212 48.5319 88.1812 48.1959C88.5412 47.8599 89.0092 47.6919 89.5852 47.6919C90.1612 47.6919 90.6292 47.8599 90.9892 48.1959C91.3492 48.5319 91.5292 48.9639 91.5292 49.4919C91.5292 50.0439 91.3492 50.4879 90.9892 50.8239C90.6292 51.1599 90.1612 51.3279 89.5852 51.3279ZM104.756 55.0359C106.292 55.0359 107.648 55.4079 108.824 56.1519C110 56.8959 110.912 57.9519 111.56 59.3199C112.208 60.6879 112.532 62.2719 112.532 64.0719C112.532 65.8959 112.208 67.5039 111.56 68.8959C110.912 70.2639 110 71.3319 108.824 72.0999C107.648 72.8679 106.292 73.2519 104.756 73.2519C103.388 73.2519 102.188 72.9519 101.156 72.3519C100.148 71.7519 99.3804 70.8999 98.8524 69.7959V71.7399C98.8524 72.1719 98.7204 72.5199 98.4564 72.7839C98.2164 73.0479 97.8684 73.1799 97.4124 73.1799C96.9564 73.1799 96.5964 73.0479 96.3324 72.7839C96.0684 72.5199 95.9364 72.1719 95.9364 71.7399V48.8439C95.9364 48.4359 96.0684 48.0999 96.3324 47.8359C96.5964 47.5719 96.9564 47.4399 97.4124 47.4399C97.8684 47.4399 98.2164 47.5719 98.4564 47.8359C98.7204 48.0759 98.8524 48.4119 98.8524 48.8439V58.4919C99.3804 57.3879 100.148 56.5359 101.156 55.9359C102.188 55.3359 103.388 55.0359 104.756 55.0359ZM104.18 70.8399C105.884 70.8399 107.204 70.2519 108.14 69.0759C109.076 67.8759 109.544 66.2079 109.544 64.0719C109.544 61.9839 109.076 60.3639 108.14 59.2119C107.204 58.0599 105.884 57.4839 104.18 57.4839C102.476 57.4839 101.156 58.0599 100.22 59.2119C99.3084 60.3639 98.8524 62.0079 98.8524 64.1439C98.8524 66.2799 99.3084 67.9359 100.22 69.1119C101.156 70.2639 102.476 70.8399 104.18 70.8399ZM117.826 73.1799C117.394 73.1799 117.034 73.0599 116.746 72.8199C116.482 72.5559 116.35 72.1959 116.35 71.7399V56.5479C116.35 56.0919 116.482 55.7439 116.746 55.5039C117.034 55.2399 117.394 55.1079 117.826 55.1079C118.258 55.1079 118.606 55.2399 118.87 55.5039C119.134 55.7439 119.266 56.0919 119.266 56.5479V71.7399C119.266 72.2199 119.134 72.5799 118.87 72.8199C118.606 73.0599 118.258 73.1799 117.826 73.1799ZM117.826 51.3279C117.25 51.3279 116.782 51.1599 116.422 50.8239C116.062 50.4879 115.882 50.0439 115.882 49.4919C115.882 48.9639 116.062 48.5319 116.422 48.1959C116.782 47.8599 117.25 47.6919 117.826 47.6919C118.402 47.6919 118.87 47.8599 119.23 48.1959C119.59 48.5319 119.77 48.9639 119.77 49.4919C119.77 50.0439 119.59 50.4879 119.23 50.8239C118.87 51.1599 118.402 51.3279 117.826 51.3279ZM132.997 55.0359C137.197 55.0359 139.297 57.3519 139.297 61.9839V71.7399C139.297 72.1959 139.165 72.5559 138.901 72.8199C138.661 73.0599 138.313 73.1799 137.857 73.1799C137.401 73.1799 137.041 73.0599 136.777 72.8199C136.513 72.5559 136.381 72.1959 136.381 71.7399V62.1639C136.381 60.5319 136.057 59.3439 135.409 58.5999C134.785 57.8559 133.777 57.4839 132.385 57.4839C130.777 57.4839 129.493 57.9759 128.533 58.9599C127.573 59.9439 127.093 61.2759 127.093 62.9559V71.7399C127.093 72.1959 126.961 72.5559 126.697 72.8199C126.457 73.0599 126.109 73.1799 125.653 73.1799C125.197 73.1799 124.837 73.0599 124.573 72.8199C124.309 72.5559 124.177 72.1959 124.177 71.7399V56.5479C124.177 56.1159 124.309 55.7679 124.573 55.5039C124.837 55.2399 125.197 55.1079 125.653 55.1079C126.085 55.1079 126.421 55.2399 126.661 55.5039C126.925 55.7679 127.057 56.1039 127.057 56.5119V58.3479C127.633 57.2679 128.437 56.4519 129.469 55.8999C130.501 55.3239 131.677 55.0359 132.997 55.0359ZM158.318 55.1079C158.774 55.1079 159.134 55.2399 159.398 55.5039C159.662 55.7679 159.794 56.1159 159.794 56.5479V71.8119C159.794 74.4279 159.122 76.3959 157.778 77.7159C156.434 79.0599 154.442 79.7319 151.802 79.7319C149.234 79.7319 147.098 79.2279 145.394 78.2199C144.53 77.7399 144.098 77.1879 144.098 76.5639C144.098 76.2279 144.182 75.9519 144.35 75.7359C144.542 75.5199 144.782 75.4119 145.07 75.4119C145.31 75.4119 145.742 75.5799 146.366 75.9159C147.206 76.3479 148.034 76.6959 148.85 76.9599C149.666 77.2239 150.638 77.3559 151.766 77.3559C153.47 77.3559 154.754 76.8999 155.618 75.9879C156.482 75.0999 156.914 73.7919 156.914 72.0639V68.9679C156.41 70.0959 155.63 70.9599 154.574 71.5599C153.542 72.1599 152.318 72.4599 150.902 72.4599C149.366 72.4599 147.998 72.0999 146.798 71.3799C145.622 70.6599 144.698 69.6399 144.026 68.3199C143.378 66.9999 143.054 65.4759 143.054 63.7479C143.054 62.0199 143.378 60.4959 144.026 59.1759C144.698 57.8559 145.622 56.8359 146.798 56.1159C147.998 55.3959 149.366 55.0359 150.902 55.0359C152.294 55.0359 153.506 55.3359 154.538 55.9359C155.57 56.5359 156.35 57.3879 156.878 58.4919V56.5479C156.878 56.1159 156.998 55.7679 157.238 55.5039C157.502 55.2399 157.862 55.1079 158.318 55.1079ZM151.478 70.0479C153.158 70.0479 154.478 69.4959 155.438 68.3919C156.398 67.2639 156.878 65.7159 156.878 63.7479C156.878 61.8039 156.398 60.2799 155.438 59.1759C154.502 58.0479 153.182 57.4839 151.478 57.4839C149.774 57.4839 148.43 58.0479 147.446 59.1759C146.486 60.2799 146.006 61.8039 146.006 63.7479C146.006 65.7159 146.486 67.2639 147.446 68.3919C148.43 69.4959 149.774 70.0479 151.478 70.0479Z" fill="black"/>
</svg>
