<svg width="281" height="234" viewBox="0 0 281 234" fill="none" xmlns="http://www.w3.org/2000/svg">
<path d="M6.64568 100.686C6.45778 97.756 6.74419 94.7963 7.50832 91.938C7.94046 85.8212 11.158 79.8756 17.1609 76.3068L130.077 9.17483C136.327 5.45909 144.109 5.45909 150.359 9.17483L263.275 76.3068C269.278 79.8756 272.496 85.8212 272.928 91.9379C273.692 94.7963 273.978 97.756 273.79 100.686C273.865 101.849 273.865 103.016 273.79 104.18C273.865 105.337 273.865 106.5 273.79 107.661C273.865 108.824 273.865 109.99 273.79 111.152C273.865 112.314 273.865 113.479 273.791 114.64C273.865 115.8 273.866 116.965 273.791 118.127C273.866 119.289 273.866 120.455 273.791 121.617C273.866 122.778 273.866 123.942 273.791 125.103C273.866 126.265 273.866 127.431 273.791 128.593C273.866 129.756 273.865 130.92 273.791 132.078C273.866 133.241 273.866 134.409 273.791 135.573C274.396 145.03 270.036 154.858 260.689 160.391L6.64568 100.686ZM6.64568 100.686C6.57095 101.849 6.57095 103.016 6.64567 104.179C6.60152 104.867 6.58364 105.556 6.59136 106.242L6.59144 106.249C6.59726 106.719 6.61513 107.19 6.64557 107.662C6.57096 108.824 6.57099 109.99 6.64563 111.152C6.57097 112.314 6.57096 113.479 6.64561 114.64C6.57094 115.8 6.57032 116.965 6.64495 118.127C6.57029 119.289 6.57028 120.455 6.64494 121.617C6.57029 122.778 6.57029 123.942 6.64494 125.103C6.57028 126.265 6.57029 127.431 6.64495 128.593C6.5703 129.756 6.57092 130.92 6.64504 132.078C6.57026 133.241 6.57025 134.409 6.64503 135.573C6.04034 145.03 10.4 154.858 19.7471 160.391C19.7471 160.391 19.7472 160.391 19.7472 160.391L126.556 223.62L129.539 218.58L126.556 223.62C134.981 228.608 145.455 228.608 153.88 223.62C153.88 223.62 153.88 223.62 153.88 223.62L260.689 160.391L6.64568 100.686Z" stroke="black" stroke-width="11.783"/>
<path fill-rule="evenodd" clip-rule="evenodd" d="M13.3549 92.9036C12.6047 95.4291 12.3367 98.0749 12.5507 100.686C12.4554 101.848 12.4554 103.017 12.5507 104.179C12.4962 104.843 12.4731 105.51 12.4806 106.176C12.4867 106.672 12.5099 107.167 12.5507 107.661C12.4554 108.823 12.4554 109.991 12.5507 111.152C12.4554 112.313 12.4554 113.48 12.5507 114.641C12.4554 115.8 12.4547 116.967 12.55 118.127C12.4547 119.288 12.4547 120.456 12.55 121.617C12.4547 122.777 12.4547 123.943 12.55 125.103C12.4547 126.264 12.4547 127.432 12.55 128.593C12.4547 129.753 12.4554 130.919 12.55 132.079C12.4547 133.241 12.4547 134.41 12.55 135.572C11.9328 143.109 15.3316 150.932 22.7464 155.322L129.555 218.551C136.13 222.443 144.303 222.443 150.877 218.551L257.686 155.322C265.101 150.932 268.499 143.109 267.882 135.572C267.978 134.41 267.978 133.241 267.882 132.079C267.977 130.919 267.978 129.753 267.882 128.593C267.978 127.432 267.978 126.264 267.882 125.103C267.978 123.943 267.978 122.777 267.882 121.617C267.978 120.456 267.978 119.288 267.882 118.127C267.978 116.967 267.977 115.8 267.881 114.641C267.977 113.48 267.977 112.313 267.881 111.152C267.977 109.991 267.977 108.823 267.881 107.661C267.977 106.503 267.976 105.337 267.881 104.179C267.977 103.017 267.977 101.848 267.881 100.686C268.096 98.0744 267.827 95.428 267.077 92.9021C267.233 97.6981 264.961 102.563 260.262 105.356L147.346 172.488C142.952 175.101 137.48 175.101 133.086 172.488L20.1695 105.356C15.4713 102.563 13.1997 97.6991 13.3549 92.9036Z" fill="#A5A5A5"/>
<path d="M133.088 14.239C137.482 11.6264 142.954 11.6264 147.348 14.239L260.265 81.3709C269.361 86.7788 269.361 99.9483 260.265 105.356L147.348 172.488C142.954 175.101 137.483 175.101 133.088 172.488L20.1717 105.356C11.0756 99.9483 11.0756 86.7788 20.1717 81.3709L133.088 14.239Z" fill="#6B6E70"/>
<path d="M126.964 191.028C126.964 196.614 121.738 199.748 116.151 197.655C110.565 195.562 106.733 189.638 106.733 184.052C106.733 178.465 111.262 175.332 116.849 177.425C122.435 179.518 126.964 185.442 126.964 191.028Z" fill="#00E0FF"/>
<path fill-rule="evenodd" clip-rule="evenodd" d="M33.8428 128.615V149.384L40.8188 153.514V132.745L33.8428 128.615ZM51.2828 138.94V159.709L58.2589 163.84V143.071L51.2828 138.94ZM68.7229 149.266V170.035L75.6989 174.165V153.396L68.7229 149.266Z" fill="#6B6E70"/>
<path fill-rule="evenodd" clip-rule="evenodd" d="M251.594 124.295V145.064L244.618 149.195V128.426L251.594 124.295ZM234.154 134.621V155.39L227.178 159.52V138.751L234.154 134.621ZM216.714 144.947V165.716L209.738 169.846V149.077L216.714 144.947Z" fill="#6B6E70"/>
<path fill-rule="evenodd" clip-rule="evenodd" d="M199.749 153.753V174.522L192.773 178.652V157.883L199.749 153.753ZM182.309 164.079V184.847L175.333 188.978V168.209L182.309 164.079ZM164.869 174.404V195.173L157.893 199.303V178.535L164.869 174.404Z" fill="#6B6E70"/>
<path d="M23.5654 143.148C23.5654 158.466 48.3098 193.815 98.9768 183.211" stroke="#EB03FF" stroke-width="8.24813" stroke-linecap="round"/>
<path d="M22.9125 124.726C11.783 137.846 28.805 174.804 99.5033 172.447" stroke="#7F00FF" stroke-width="8.24813" stroke-linecap="round"/>
</svg>
