<svg width="66" height="51" viewBox="0 0 66 51" fill="none" xmlns="http://www.w3.org/2000/svg">
<rect x="0.388672" y="0.205078" width="65" height="50" rx="20" fill="#DF3A1F"/>
<path d="M26.9421 38.8949C25.9676 38.8949 25.1463 38.6603 24.4781 38.1913C23.8378 37.7222 23.5176 37.1307 23.5176 36.4169V13.9931C23.5176 13.2793 23.8378 12.6878 24.4781 12.2187C25.1185 11.7497 25.9398 11.5151 26.9421 11.5151C27.9166 11.5151 28.724 11.7497 29.3643 12.2187C30.0047 12.6878 30.3249 13.2793 30.3249 13.9931V36.4169C30.3249 37.1307 30.0047 37.7222 29.3643 38.1913C28.724 38.6603 27.9166 38.8949 26.9421 38.8949Z" fill="white"/>
<path d="M38.877 38.8949C37.9026 38.8949 37.0813 38.6603 36.4131 38.1913C35.7727 37.7222 35.4525 37.1307 35.4525 36.4169V13.9931C35.4525 13.2793 35.7727 12.6878 36.4131 12.2187C37.0534 11.7497 37.8747 11.5151 38.877 11.5151C39.8515 11.5151 40.6589 11.7497 41.2993 12.2187C41.9396 12.6878 42.2598 13.2793 42.2598 13.9931V36.4169C42.2598 37.1307 41.9396 37.7222 41.2993 38.1913C40.6589 38.6603 39.8515 38.8949 38.877 38.8949Z" fill="white"/>
</svg>
