<svg width="216" height="126" viewBox="0 0 216 126" fill="none" xmlns="http://www.w3.org/2000/svg">
<mask id="path-1-outside-1" maskUnits="userSpaceOnUse" x="0" y="0" width="216" height="126" fill="black">
<rect fill="white" width="216" height="126"/>
<path fill-rule="evenodd" clip-rule="evenodd" d="M209 12C209 9.23858 206.761 7 204 7H12C9.23858 7 7 9.23858 7 12V92C7 94.7614 9.23857 97 12 97H138.694C141.456 97 143.694 99.2386 143.694 102V113.346C143.694 117.581 148.631 119.898 151.889 117.192L174.805 98.154C175.703 97.4083 176.833 97 178 97H204C206.761 97 209 94.7614 209 92V12Z"/>
</mask>
<path fill-rule="evenodd" clip-rule="evenodd" d="M209 12C209 9.23858 206.761 7 204 7H12C9.23858 7 7 9.23858 7 12V92C7 94.7614 9.23857 97 12 97H138.694C141.456 97 143.694 99.2386 143.694 102V113.346C143.694 117.581 148.631 119.898 151.889 117.192L174.805 98.154C175.703 97.4083 176.833 97 178 97H204C206.761 97 209 94.7614 209 92V12Z" fill="white"/>
<path d="M174.805 98.154L179.278 103.538L174.805 98.154ZM12 14H204V0H12V14ZM14 92V12H0V92H14ZM138.694 90H12V104H138.694V90ZM150.694 113.346V102H136.694V113.346H150.694ZM170.332 92.7697L147.416 111.807L156.363 122.576L179.278 103.538L170.332 92.7697ZM204 90H178V104H204V90ZM202 12V92H216V12H202ZM204 104C210.627 104 216 98.6274 216 92H202C202 90.8954 202.895 90 204 90V104ZM179.278 103.538C178.919 103.837 178.467 104 178 104V90C175.199 90 172.487 90.9798 170.332 92.7697L179.278 103.538ZM136.694 113.346C136.694 123.511 148.543 129.072 156.363 122.576L147.416 111.807C148.719 110.725 150.694 111.652 150.694 113.346H136.694ZM138.694 104C137.59 104 136.694 103.105 136.694 102H150.694C150.694 95.3726 145.322 90 138.694 90V104ZM0 92C0 98.6274 5.37258 104 12 104V90C13.1046 90 14 90.8954 14 92H0ZM204 14C202.895 14 202 13.1046 202 12H216C216 5.37257 210.627 0 204 0V14ZM12 0C5.37258 0 0 5.37259 0 12H14C14 13.1046 13.1046 14 12 14V0Z" fill="black" mask="url(#path-1-outside-1)"/>
<path d="M34.2264 63.144C33.7624 63.144 33.3864 63 33.0984 62.712C32.8264 62.424 32.6904 62.048 32.6904 61.584V47.496C32.6904 47.032 32.8264 46.664 33.0984 46.392C33.3864 46.104 33.7624 45.96 34.2264 45.96C34.7064 45.96 35.0824 46.104 35.3544 46.392C35.6424 46.664 35.7864 47.032 35.7864 47.496V61.584C35.7864 62.048 35.6424 62.424 35.3544 62.712C35.0824 63 34.7064 63.144 34.2264 63.144ZM49.22 63.192C47.476 63.192 46.068 62.848 44.996 62.16C44.484 61.856 44.228 61.424 44.228 60.864C44.228 60.544 44.316 60.288 44.492 60.096C44.668 59.888 44.884 59.784 45.14 59.784C45.412 59.784 45.788 59.912 46.268 60.168C46.78 60.408 47.244 60.592 47.66 60.72C48.092 60.848 48.636 60.912 49.292 60.912C49.964 60.912 50.484 60.8 50.852 60.576C51.236 60.352 51.428 60.04 51.428 59.64C51.428 59.368 51.348 59.152 51.188 58.992C51.044 58.832 50.772 58.688 50.372 58.56C49.988 58.416 49.396 58.256 48.596 58.08C47.172 57.792 46.148 57.384 45.524 56.856C44.916 56.328 44.612 55.6 44.612 54.672C44.612 53.968 44.82 53.336 45.236 52.776C45.652 52.2 46.22 51.76 46.94 51.456C47.676 51.136 48.508 50.976 49.436 50.976C50.108 50.976 50.756 51.064 51.38 51.24C52.004 51.4 52.564 51.64 53.06 51.96C53.572 52.28 53.828 52.704 53.828 53.232C53.828 53.552 53.74 53.824 53.564 54.048C53.388 54.256 53.172 54.36 52.916 54.36C52.74 54.36 52.564 54.328 52.388 54.264C52.228 54.184 52.02 54.072 51.764 53.928C51.3 53.688 50.9 53.512 50.564 53.4C50.228 53.272 49.812 53.208 49.316 53.208C48.724 53.208 48.252 53.328 47.9 53.568C47.564 53.808 47.396 54.136 47.396 54.552C47.396 54.952 47.572 55.256 47.924 55.464C48.276 55.672 48.956 55.88 49.964 56.088C51.036 56.312 51.876 56.568 52.484 56.856C53.092 57.144 53.524 57.504 53.78 57.936C54.052 58.368 54.188 58.92 54.188 59.592C54.188 60.68 53.732 61.552 52.82 62.208C51.924 62.864 50.724 63.192 49.22 63.192ZM61.3484 50.976C62.9804 50.976 64.1884 51.384 64.9724 52.2C65.7724 53 66.1724 54.224 66.1724 55.872V61.728C66.1724 62.16 66.0444 62.504 65.7884 62.76C65.5324 63 65.1804 63.12 64.7324 63.12C64.3164 63.12 63.9724 62.992 63.7004 62.736C63.4444 62.48 63.3164 62.144 63.3164 61.728V61.2C63.0444 61.824 62.6124 62.312 62.0204 62.664C61.4444 63.016 60.7724 63.192 60.0044 63.192C59.2204 63.192 58.5084 63.032 57.8684 62.712C57.2284 62.392 56.7244 61.952 56.3564 61.392C55.9884 60.832 55.8044 60.208 55.8044 59.52C55.8044 58.656 56.0204 57.976 56.4524 57.48C56.9004 56.984 57.6204 56.624 58.6124 56.4C59.6044 56.176 60.9724 56.064 62.7164 56.064H63.3164V55.512C63.3164 54.728 63.1484 54.16 62.8124 53.808C62.4764 53.44 61.9324 53.256 61.1804 53.256C60.7164 53.256 60.2444 53.328 59.7644 53.472C59.2844 53.6 58.7164 53.792 58.0604 54.048C57.6444 54.256 57.3404 54.36 57.1484 54.36C56.8604 54.36 56.6204 54.256 56.4284 54.048C56.2524 53.84 56.1644 53.568 56.1644 53.232C56.1644 52.96 56.2284 52.728 56.3564 52.536C56.5004 52.328 56.7324 52.136 57.0524 51.96C57.6124 51.656 58.2764 51.416 59.0444 51.24C59.8284 51.064 60.5964 50.976 61.3484 50.976ZM60.6044 61.032C61.4044 61.032 62.0524 60.768 62.5484 60.24C63.0604 59.696 63.3164 59 63.3164 58.152V57.648H62.8844C61.8124 57.648 60.9804 57.696 60.3884 57.792C59.7964 57.888 59.3724 58.056 59.1164 58.296C58.8604 58.536 58.7324 58.864 58.7324 59.28C58.7324 59.792 58.9084 60.216 59.2604 60.552C59.6284 60.872 60.0764 61.032 60.6044 61.032ZM84.7254 51.912C84.8374 51.624 84.9974 51.408 85.2054 51.264C85.4294 51.12 85.6694 51.048 85.9254 51.048C86.2934 51.048 86.6214 51.176 86.9094 51.432C87.2134 51.672 87.3654 51.976 87.3654 52.344C87.3654 52.552 87.3254 52.736 87.2454 52.896L83.2854 62.184C83.1574 62.488 82.9574 62.72 82.6854 62.88C82.4294 63.04 82.1414 63.12 81.8214 63.12C81.5174 63.12 81.2294 63.04 80.9574 62.88C80.7014 62.72 80.5094 62.488 80.3814 62.184L77.5254 55.32L74.7654 62.184C74.6374 62.488 74.4374 62.72 74.1654 62.88C73.9094 63.04 73.6214 63.12 73.3014 63.12C72.9974 63.12 72.7094 63.04 72.4374 62.88C72.1654 62.72 71.9654 62.488 71.8374 62.184L67.9014 52.896C67.8214 52.688 67.7814 52.512 67.7814 52.368C67.7814 52 67.9414 51.688 68.2614 51.432C68.5814 51.16 68.9334 51.024 69.3174 51.024C69.5894 51.024 69.8374 51.096 70.0614 51.24C70.2854 51.384 70.4534 51.6 70.5654 51.888L73.3974 59.208L76.3014 51.96C76.4294 51.656 76.6134 51.432 76.8534 51.288C77.0934 51.128 77.3574 51.048 77.6454 51.048C77.9334 51.048 78.1974 51.128 78.4374 51.288C78.6774 51.432 78.8614 51.656 78.9894 51.96L81.9174 59.232L84.7254 51.912ZM102.076 50.976C104.828 50.976 106.204 52.584 106.204 55.8V61.704C106.204 62.152 106.068 62.504 105.796 62.76C105.54 63.016 105.18 63.144 104.716 63.144C104.252 63.144 103.884 63.016 103.612 62.76C103.34 62.504 103.204 62.152 103.204 61.704V55.8C103.204 54.952 103.028 54.336 102.676 53.952C102.34 53.552 101.804 53.352 101.068 53.352C100.204 53.352 99.5077 53.624 98.9797 54.168C98.4677 54.712 98.2117 55.44 98.2117 56.352V61.704C98.2117 62.152 98.0757 62.504 97.8037 62.76C97.5317 63.016 97.1637 63.144 96.6997 63.144C96.2357 63.144 95.8677 63.016 95.5957 62.76C95.3397 62.504 95.2117 62.152 95.2117 61.704V47.352C95.2117 46.936 95.3477 46.6 95.6197 46.344C95.9077 46.088 96.2757 45.96 96.7237 45.96C97.1717 45.96 97.5317 46.08 97.8037 46.32C98.0757 46.56 98.2117 46.888 98.2117 47.304V52.896C98.6117 52.272 99.1397 51.8 99.7957 51.48C100.468 51.144 101.228 50.976 102.076 50.976ZM118.179 59.784C118.451 59.784 118.667 59.888 118.827 60.096C119.003 60.304 119.091 60.584 119.091 60.936C119.091 61.432 118.795 61.848 118.203 62.184C117.659 62.488 117.043 62.736 116.355 62.928C115.667 63.104 115.011 63.192 114.387 63.192C112.499 63.192 111.003 62.648 109.899 61.56C108.795 60.472 108.243 58.984 108.243 57.096C108.243 55.896 108.483 54.832 108.963 53.904C109.443 52.976 110.115 52.256 110.979 51.744C111.859 51.232 112.851 50.976 113.955 50.976C115.011 50.976 115.931 51.208 116.715 51.672C117.499 52.136 118.107 52.792 118.539 53.64C118.971 54.488 119.187 55.488 119.187 56.64C119.187 57.328 118.883 57.672 118.275 57.672H111.195C111.291 58.776 111.603 59.592 112.131 60.12C112.659 60.632 113.427 60.888 114.435 60.888C114.947 60.888 115.395 60.824 115.779 60.696C116.179 60.568 116.627 60.392 117.123 60.168C117.603 59.912 117.955 59.784 118.179 59.784ZM114.027 53.088C113.211 53.088 112.555 53.344 112.059 53.856C111.579 54.368 111.291 55.104 111.195 56.064H116.619C116.587 55.088 116.347 54.352 115.899 53.856C115.451 53.344 114.827 53.088 114.027 53.088ZM127.833 51.024C128.249 50.992 128.577 51.08 128.817 51.288C129.057 51.496 129.177 51.808 129.177 52.224C129.177 52.656 129.073 52.976 128.865 53.184C128.657 53.392 128.281 53.528 127.737 53.592L127.017 53.664C126.073 53.76 125.377 54.08 124.929 54.624C124.497 55.168 124.281 55.848 124.281 56.664V61.704C124.281 62.168 124.137 62.528 123.849 62.784C123.561 63.024 123.201 63.144 122.769 63.144C122.337 63.144 121.977 63.024 121.689 62.784C121.417 62.528 121.281 62.168 121.281 61.704V52.416C121.281 51.968 121.417 51.624 121.689 51.384C121.977 51.144 122.329 51.024 122.745 51.024C123.161 51.024 123.497 51.144 123.753 51.384C124.009 51.608 124.137 51.936 124.137 52.368V53.328C124.441 52.624 124.889 52.08 125.481 51.696C126.089 51.312 126.761 51.096 127.497 51.048L127.833 51.024ZM146.056 45.96C146.504 45.96 146.872 46.088 147.16 46.344C147.448 46.6 147.592 46.936 147.592 47.352V61.704C147.592 62.136 147.456 62.48 147.184 62.736C146.912 62.992 146.552 63.12 146.104 63.12C145.656 63.12 145.296 62.992 145.024 62.736C144.752 62.48 144.616 62.136 144.616 61.704V61.104C144.264 61.76 143.752 62.272 143.08 62.64C142.424 63.008 141.672 63.192 140.824 63.192C139.816 63.192 138.912 62.936 138.112 62.424C137.328 61.912 136.712 61.192 136.264 60.264C135.832 59.32 135.616 58.24 135.616 57.024C135.616 55.808 135.832 54.744 136.264 53.832C136.712 52.92 137.328 52.216 138.112 51.72C138.896 51.224 139.8 50.976 140.824 50.976C141.672 50.976 142.424 51.152 143.08 51.504C143.736 51.856 144.24 52.352 144.592 52.992V47.304C144.592 46.904 144.72 46.584 144.976 46.344C145.248 46.088 145.608 45.96 146.056 45.96ZM141.616 60.864C142.576 60.864 143.312 60.536 143.824 59.88C144.352 59.224 144.616 58.288 144.616 57.072C144.616 55.856 144.352 54.928 143.824 54.288C143.312 53.632 142.584 53.304 141.64 53.304C140.68 53.304 139.936 53.624 139.408 54.264C138.88 54.904 138.616 55.824 138.616 57.024C138.616 58.24 138.88 59.184 139.408 59.856C139.936 60.528 140.672 60.864 141.616 60.864ZM159.582 51.024C160.046 51.024 160.414 51.152 160.686 51.408C160.958 51.664 161.094 52.008 161.094 52.44V61.752C161.094 62.168 160.95 62.504 160.662 62.76C160.39 63.016 160.03 63.144 159.582 63.144C159.15 63.144 158.806 63.024 158.55 62.784C158.294 62.544 158.166 62.216 158.166 61.8V61.2C157.798 61.84 157.302 62.336 156.678 62.688C156.054 63.024 155.35 63.192 154.566 63.192C151.686 63.192 150.246 61.576 150.246 58.344V52.44C150.246 52.008 150.382 51.664 150.654 51.408C150.926 51.152 151.286 51.024 151.734 51.024C152.198 51.024 152.566 51.152 152.838 51.408C153.11 51.664 153.246 52.008 153.246 52.44V58.368C153.246 59.2 153.414 59.816 153.75 60.216C154.086 60.616 154.614 60.816 155.334 60.816C156.166 60.816 156.83 60.544 157.326 60C157.838 59.44 158.094 58.704 158.094 57.792V52.44C158.094 52.008 158.23 51.664 158.502 51.408C158.774 51.152 159.134 51.024 159.582 51.024ZM169.064 63.192C167.896 63.192 166.864 62.944 165.968 62.448C165.088 61.952 164.408 61.248 163.928 60.336C163.448 59.424 163.208 58.36 163.208 57.144C163.208 55.928 163.456 54.856 163.952 53.928C164.464 52.984 165.176 52.256 166.088 51.744C167 51.232 168.048 50.976 169.232 50.976C169.856 50.976 170.48 51.064 171.104 51.24C171.744 51.416 172.304 51.656 172.784 51.96C173.296 52.296 173.552 52.72 173.552 53.232C173.552 53.584 173.464 53.872 173.288 54.096C173.128 54.304 172.912 54.408 172.64 54.408C172.464 54.408 172.28 54.368 172.088 54.288C171.896 54.208 171.704 54.112 171.512 54C171.16 53.792 170.824 53.632 170.504 53.52C170.184 53.392 169.816 53.328 169.4 53.328C168.408 53.328 167.64 53.656 167.096 54.312C166.568 54.952 166.304 55.88 166.304 57.096C166.304 58.296 166.568 59.224 167.096 59.88C167.64 60.52 168.408 60.84 169.4 60.84C169.8 60.84 170.152 60.784 170.456 60.672C170.776 60.544 171.128 60.376 171.512 60.168C171.752 60.024 171.96 59.92 172.136 59.856C172.312 59.776 172.488 59.736 172.664 59.736C172.92 59.736 173.136 59.848 173.312 60.072C173.488 60.296 173.576 60.576 173.576 60.912C173.576 61.184 173.512 61.424 173.384 61.632C173.272 61.824 173.08 62 172.808 62.16C172.312 62.48 171.736 62.736 171.08 62.928C170.424 63.104 169.752 63.192 169.064 63.192ZM185.655 60.672C185.975 60.976 186.135 61.32 186.135 61.704C186.135 62.072 185.999 62.4 185.727 62.688C185.471 62.976 185.167 63.12 184.815 63.12C184.463 63.12 184.135 62.976 183.831 62.688L178.215 57.6V61.704C178.215 62.168 178.071 62.52 177.783 62.76C177.495 63 177.135 63.12 176.703 63.12C176.271 63.12 175.911 63 175.623 62.76C175.351 62.52 175.215 62.168 175.215 61.704V47.376C175.215 46.912 175.351 46.56 175.623 46.32C175.911 46.08 176.271 45.96 176.703 45.96C177.135 45.96 177.495 46.08 177.783 46.32C178.071 46.56 178.215 46.912 178.215 47.376V56.4L183.351 51.48C183.639 51.192 183.967 51.048 184.335 51.048C184.703 51.048 185.023 51.184 185.295 51.456C185.567 51.728 185.703 52.048 185.703 52.416C185.703 52.784 185.551 53.12 185.247 53.424L181.479 56.928L185.655 60.672Z" fill="black"/>
</svg>
