<svg width="116" height="130" viewBox="0 0 116 130" fill="none" xmlns="http://www.w3.org/2000/svg">
<rect x="-4.01693" y="96.0389" width="116" height="77" rx="23.5" transform="rotate(-60 -4.01693 96.0389)" fill="#304967" stroke="black" stroke-width="7"/>
<ellipse cx="69.8731" cy="45.5278" rx="22.4549" ry="22.5503" transform="rotate(-60 69.8731 45.5278)" fill="#D3D3D3"/>
<ellipse cx="33.4943" cy="88.8063" rx="7.01717" ry="7.04698" transform="rotate(-60 33.4943 88.8063)" fill="#FF0000"/>
<ellipse cx="50.9891" cy="98.9069" rx="7.01717" ry="7.04698" transform="rotate(-60 50.9891 98.9069)" fill="#1CC64B"/>
<mask id="mask0" mask-type="alpha" maskUnits="userSpaceOnUse" x="47" y="23" width="46" height="46">
<ellipse cx="69.8731" cy="45.5278" rx="22.4549" ry="22.5503" transform="rotate(-60 69.8731 45.5278)" fill="#9F9F9F" fill-opacity="0.9"/>
</mask>
<g mask="url(#mask0)">
<line x1="46.575" y1="44.8413" x2="81.71" y2="65.1265" stroke="black" stroke-width="5" stroke-linecap="round"/>
<line x1="52.4683" y1="34.6338" x2="87.6033" y2="54.919" stroke="black" stroke-width="5" stroke-linecap="round"/>
<line x1="58.3614" y1="24.4267" x2="93.4964" y2="44.712" stroke="black" stroke-width="5" stroke-linecap="round"/>
<line x1="74.4348" y1="71.4736" x2="94.6236" y2="36.5055" stroke="black" stroke-width="5" stroke-linecap="round"/>
<line x1="50.0232" y1="57.3799" x2="70.212" y2="22.4118" stroke="black" stroke-width="5" stroke-linecap="round"/>
<line x1="62.229" y1="64.4267" x2="82.4178" y2="29.4586" stroke="black" stroke-width="5" stroke-linecap="round"/>
<line x1="68.332" y1="67.9502" x2="88.5208" y2="32.9821" stroke="black" stroke-width="5" stroke-linecap="round"/>
<line x1="43.9201" y1="53.8559" x2="64.109" y2="18.8878" stroke="black" stroke-width="5" stroke-linecap="round"/>
<line x1="56.1262" y1="60.9033" x2="76.315" y2="25.9352" stroke="black" stroke-width="5" stroke-linecap="round"/>
</g>
</svg>
