<svg width="45" height="34" viewBox="0 0 45 34" fill="none" xmlns="http://www.w3.org/2000/svg">
<path fill-rule="evenodd" clip-rule="evenodd" d="M14.8647 26.9822C14.3132 26.4833 13.596 26.2071 12.8523 26.2071H3.69556C2.0387 26.2071 0.695557 24.8639 0.695557 23.2071V14.4129C0.695557 12.7561 2.0387 11.4129 3.69556 11.4129H11.8301C12.5738 11.4129 13.2909 11.1367 13.8425 10.6378L21.1106 4.06373C23.0394 2.31905 26.123 3.68776 26.123 6.28861L26.123 30.4068C26.123 33.0076 23.0394 34.3763 21.1106 32.6317L14.8647 26.9822Z" fill="white"/>
<path d="M32.6284 14.7573C33.0577 15.1866 33.3983 15.6962 33.6306 16.2571C33.8629 16.818 33.9825 17.4192 33.9825 18.0263C33.9825 18.6335 33.8629 19.2346 33.6306 19.7955C33.3983 20.3565 33.0577 20.8661 32.6284 21.2954" stroke="white" stroke-width="5" stroke-linecap="round"/>
<path d="M37.7 6.9114C39.1596 8.37102 40.3174 10.1038 41.1074 12.0109C41.8973 13.918 42.3039 15.962 42.3039 18.0263C42.3039 20.0905 41.8973 22.1345 41.1074 24.0416C40.3174 25.9487 39.1596 27.6815 37.7 29.1411" stroke="white" stroke-width="5" stroke-linecap="round"/>
<line x1="40.5869" y1="3.51132" x2="6.51132" y2="30.4131" stroke="black" stroke-width="5" stroke-linecap="round"/>
</svg>
