<svg width="65" height="50" viewBox="0 0 65 50" fill="none" xmlns="http://www.w3.org/2000/svg">
<rect width="65" height="50" rx="20" fill="#DF3A1F"/>
<path fill-rule="evenodd" clip-rule="evenodd" d="M24.8645 33.9822C24.3129 33.4833 23.5958 33.2071 22.8521 33.2071H13.6953C12.0385 33.2071 10.6953 31.8639 10.6953 30.2071V21.4129C10.6953 19.7561 12.0385 18.4129 13.6953 18.4129H21.8298C22.5735 18.4129 23.2907 18.1367 23.8422 17.6378L31.1103 11.0637C33.0392 9.31905 36.1228 10.6878 36.1228 13.2886L36.1228 37.4068C36.1228 40.0076 33.0392 41.3763 31.1103 39.6317L24.8645 33.9822Z" fill="white"/>
<path d="M52.289 32.1932H52.2961L52.3033 32.193C52.9272 32.1752 53.4725 31.9381 53.9153 31.4952C54.3585 31.0521 54.5921 30.5093 54.5921 29.8901C54.5921 29.2708 54.3585 28.7281 53.9153 28.2849L51.596 25.9656L53.9153 23.6463C54.3585 23.2032 54.5921 22.6604 54.5921 22.0412C54.5921 21.422 54.3585 20.8792 53.9153 20.4361C53.4722 19.9929 52.9294 19.7593 52.3102 19.7593C51.691 19.7593 51.1482 19.9929 50.7051 20.4361L51.0586 20.7896L50.7051 20.4361L48.3858 22.7554L46.0665 20.4361C45.6233 19.9929 45.0805 19.7593 44.4613 19.7593C43.8421 19.7593 43.2993 19.9929 42.8562 20.4361C42.4133 20.8789 42.1762 21.4242 42.1584 22.0481L42.1582 22.0553V22.0624C42.1582 22.6816 42.3918 23.2244 42.835 23.6675L45.1543 25.9868L42.8562 28.2849L43.2073 28.636L42.8562 28.2849C42.413 28.7281 42.1794 29.2708 42.1794 29.8901C42.1794 30.5093 42.413 31.0521 42.8562 31.4952C43.3073 31.9463 43.8511 32.1886 44.4688 32.172C45.0849 32.1701 45.6251 31.9366 46.0665 31.4952L48.3646 29.1971L50.6839 31.5164C51.127 31.9596 51.6698 32.1932 52.289 32.1932Z" fill="white" stroke="white"/>
</svg>
