<svg width="65" height="50" viewBox="0 0 65 50" fill="none" xmlns="http://www.w3.org/2000/svg">
<rect width="65" height="50" rx="20" fill="#DF3A1F"/>
<path fill-rule="evenodd" clip-rule="evenodd" d="M22 12C16.4772 12 12 16.4772 12 22V27C12 32.5228 16.4772 37 22 37H23.8589C24.6015 37 25.3176 37.2754 25.8689 37.7729L29.6963 41.227C30.7626 42.1893 32.3614 42.2608 33.5094 41.3975L38.5557 37.6024C39.0755 37.2114 39.7084 37 40.3588 37H43C48.5228 37 53 32.5228 53 27V22C53 16.4772 48.5228 12 43 12H22Z" fill="#DF3A1F"/>
<path d="M38.5557 37.6024L36.7525 35.2047L38.5557 37.6024ZM25.8689 37.7729L23.8589 40L25.8689 37.7729ZM15 22C15 18.134 18.134 15 22 15V9C14.8203 9 9 14.8203 9 22H15ZM15 27V22H9V27H15ZM22 34C18.134 34 15 30.866 15 27H9C9 34.1797 14.8203 40 22 40V34ZM23.8589 34H22V40H23.8589V34ZM31.7062 38.9999L27.8788 35.5457L23.8589 40L27.6864 43.4542L31.7062 38.9999ZM36.7525 35.2047L31.7062 38.9999L35.3125 43.7951L40.3588 40L36.7525 35.2047ZM43 34H40.3588V40H43V34ZM50 27C50 30.866 46.866 34 43 34V40C50.1797 40 56 34.1797 56 27H50ZM50 22V27H56V22H50ZM43 15C46.866 15 50 18.134 50 22H56C56 14.8203 50.1797 9 43 9V15ZM22 15H43V9H22V15ZM40.3588 40V34C39.0579 34 37.7922 34.4228 36.7525 35.2047L40.3588 40ZM27.6864 43.4542C29.819 45.3788 33.0166 45.5218 35.3125 43.7951L31.7062 38.9999L27.6864 43.4542ZM23.8589 40H23.8589L27.8788 35.5457C26.7763 34.5508 25.344 34 23.8589 34V40Z" fill="white"/>
<path d="M23.0126 28C22.1441 28 21.4249 27.72 20.8549 27.16C20.285 26.5733 20 25.8533 20 25C20 24.1467 20.285 23.44 20.8549 22.88C21.4249 22.2933 22.1441 22 23.0126 22C23.8811 22 24.6003 22.2933 25.1702 22.88C25.7402 23.44 26.0251 24.1467 26.0251 25C26.0251 25.8533 25.7402 26.5733 25.1702 27.16C24.6003 27.72 23.8811 28 23.0126 28Z" fill="white"/>
<path d="M32.5 28C31.6315 28 30.9123 27.72 30.3423 27.16C29.7724 26.5733 29.4874 25.8533 29.4874 25C29.4874 24.1467 29.7724 23.44 30.3423 22.88C30.9123 22.2933 31.6315 22 32.5 22C33.3685 22 34.0877 22.2933 34.6577 22.88C35.2276 23.44 35.5126 24.1467 35.5126 25C35.5126 25.8533 35.2276 26.5733 34.6577 27.16C34.0877 27.72 33.3685 28 32.5 28Z" fill="white"/>
<path d="M41.9874 28C41.1189 28 40.3997 27.72 39.8298 27.16C39.2598 26.5733 38.9749 25.8533 38.9749 25C38.9749 24.1467 39.2598 23.44 39.8298 22.88C40.3997 22.2933 41.1189 22 41.9874 22C42.8559 22 43.5751 22.2933 44.1451 22.88C44.715 23.44 45 24.1467 45 25C45 25.8533 44.715 26.5733 44.1451 27.16C43.5751 27.72 42.8559 28 41.9874 28Z" fill="white"/>
</svg>
