<svg width="466" height="373" viewBox="0 0 466 373" fill="none" xmlns="http://www.w3.org/2000/svg">
<path d="M331.889 76.1373L444.343 181.438L301.69 324.489L331.889 76.1373Z" fill="#D3D3D3" stroke="black" stroke-width="8.61436"/>
<circle cx="186.07" cy="186.07" r="181.763" fill="white" stroke="black" stroke-width="8.61436"/>
<mask id="mask0" mask-type="alpha" maskUnits="userSpaceOnUse" x="0" y="0" width="373" height="373">
<circle cx="186.07" cy="186.07" r="181.763" fill="white" stroke="black" stroke-width="8.61436"/>
</mask>
<g mask="url(#mask0)">
<path d="M301.072 136.538L292.888 138.261C294.611 141.706 294.18 141.276 295.472 142.999C300.641 141.965 301.359 138.261 301.072 136.538Z" fill="white" stroke="black" stroke-width="0.861436"/>
<ellipse cx="80.1137" cy="302.795" rx="124.047" ry="17.6594" fill="#D3D3D3"/>
<path d="M141.381 258.768C144.994 265.391 155.057 262.824 155.057 255.28L155.057 199.968C155.057 198.749 154.751 197.549 154.167 196.479L135.231 161.778C131.617 155.155 121.555 157.722 121.555 165.266L121.555 220.578C121.555 221.797 121.861 222.997 122.445 224.067L141.381 258.768Z" fill="#FF0000"/>
<path d="M20.1604 258.768C16.5466 265.391 6.48437 262.824 6.48437 255.28L6.48437 199.968C6.48437 198.749 6.79035 197.549 7.37425 196.479L26.31 161.778C29.9238 155.155 39.986 157.722 39.986 165.266L39.986 220.578C39.986 221.797 39.68 222.997 39.0961 224.067L20.1604 258.768Z" fill="#FF0000"/>
<path d="M80.7706 225.57L80.7705 -11.755C85.2367 -8.47119 90.8843 -3.43668 98.2496 3.43754C98.2496 3.43754 129.566 35.4826 131.023 71.8974C132.48 108.312 121.555 219.744 121.555 219.744C121.555 222.962 118.947 225.57 115.729 225.57H80.7706Z" fill="white"/>
<path d="M80.7706 225.57L80.7705 -11.755C76.3044 -8.47119 70.6566 -3.43668 63.2914 3.43754C63.2914 3.43754 31.9746 35.4826 30.518 71.8974C29.0614 108.312 39.9858 219.744 39.9858 219.744C39.9858 222.962 42.5944 225.57 45.8122 225.57L80.7706 225.57Z" fill="white"/>
<path d="M85.0779 -13.8944L85.0779 -20.2681L80.7707 -17.1012L76.4635 -20.2681L76.4635 -13.8944C72.0924 -10.4895 66.8158 -5.7435 60.3527 0.288755L60.2803 0.35629L60.2111 0.427091L63.2916 3.43753C60.2111 0.427091 60.2102 0.428037 60.2092 0.429105L60.2065 0.431852L60.199 0.439542L60.1755 0.463743L60.0952 0.547056C60.027 0.618009 59.93 0.719663 59.806 0.851163C59.558 1.11416 59.2018 1.49673 58.7526 1.99206C57.8543 2.98251 56.5826 4.42541 55.058 6.26657C52.0121 9.94516 47.9406 15.2333 43.8195 21.6961C35.6314 34.5365 26.9868 52.4166 26.2144 71.7252C25.5182 89.1304 27.5929 123.082 29.9568 153.951C27.021 154.626 24.2926 156.483 22.5291 159.714L3.59334 194.416C2.66412 196.119 2.17719 198.028 2.17719 199.968L2.17719 255.28C2.17719 267.286 18.1902 271.371 23.9413 260.831L41.3862 228.862C42.7236 229.512 44.2254 229.877 45.8124 229.877L76.4635 229.877L80.7707 229.877L85.0779 229.877L115.729 229.877C117.316 229.877 118.818 229.512 120.155 228.862L137.6 260.831C143.351 271.371 159.364 267.286 159.364 255.28L159.364 199.968C159.364 198.028 158.877 196.119 157.948 194.416L139.012 159.714C137.249 156.483 134.52 154.626 131.584 153.951C133.948 123.082 136.023 89.1304 135.327 71.7252C134.555 52.4166 125.91 34.5364 117.722 21.6961C113.601 15.2333 109.529 9.94516 106.483 6.26657C104.959 4.42541 103.687 2.98251 102.789 1.99206C102.34 1.49673 101.983 1.11416 101.735 0.851162C101.611 0.719661 101.514 0.618007 101.446 0.547054L101.366 0.463741L101.342 0.439541L101.335 0.43185L101.332 0.429104C101.331 0.428035 101.33 0.427089 98.2497 3.43753L101.33 0.427089L101.261 0.356289L101.189 0.288753C94.7255 -5.7435 89.449 -10.4895 85.0779 -13.8944Z" stroke="black" stroke-width="8.61436"/>
<mask id="path-10-outside-1" maskUnits="userSpaceOnUse" x="213.527" y="95.6289" width="179" height="221" fill="black">
<rect fill="white" x="213.527" y="95.6289" width="179" height="221"/>
<path fill-rule="evenodd" clip-rule="evenodd" d="M318.956 146.485L318.785 142.893C320.872 141.86 322.833 140.471 324.577 138.727C332.98 130.324 333.146 116.867 324.949 108.67C318.276 101.997 308.119 100.866 300.04 105.208C296.791 105.541 293.69 106.775 291.121 108.945C291.414 110.306 291.883 111.631 292.513 112.889C290.523 116.33 289.442 121.015 289.442 126.858C289.442 140.621 292.135 146.438 300.092 147.214C300.149 148.384 300.472 149.485 301.002 150.455C296.54 150.532 292.625 153.209 290.863 157.15C286.538 159.576 282.238 163.856 281.328 166.91C280.7 169.017 279.807 171.085 278.635 173.067C276.601 176.511 273.936 179.347 270.884 181.509C270.788 181.198 270.671 180.889 270.532 180.585L257.364 151.746C255.632 147.954 251.154 146.283 247.362 148.015L225.046 158.204C221.254 159.936 219.583 164.414 221.315 168.206L234.483 197.046C236.214 200.838 240.692 202.508 244.485 200.777L251.07 197.77L254.208 197.723C256.647 197.686 258.703 196.111 259.466 193.936L262.657 192.479C262.754 192.735 262.872 192.986 263.011 193.233C263.864 194.745 265.381 195.805 267.117 195.821C272.972 195.875 279.071 193.808 284.491 189.971L283.137 197.318C282.549 200.515 283.393 203.789 285.755 205.788L284.93 218.805H237.756H229.142C224.384 218.805 220.527 222.662 220.527 227.419V237.757C220.527 242.514 224.384 246.371 229.141 246.371V301.503C229.141 306.261 232.998 310.117 237.756 310.117H377.309C382.066 310.117 385.923 306.261 385.923 301.503V227.419C385.923 222.662 382.066 218.805 377.309 218.805H368.694H337.741L337.691 209.792C337.685 208.664 337.435 207.613 336.994 206.682C337.217 206.522 337.429 206.364 337.628 206.209C339.721 204.577 340.213 201.837 339.746 199.225L339.173 196.021C342.711 188.009 342.82 177.624 338.683 167.713C336.835 163.286 334.325 159.396 331.383 156.167C329.415 152.717 325.707 150.454 321.546 150.454H318.047C318.687 149.281 319.024 147.922 318.956 146.485Z"/>
</mask>
<path d="M318.785 142.893L316.109 137.489C313.962 138.552 312.648 140.786 312.762 143.179L318.785 142.893ZM318.956 146.485L324.979 146.198L324.979 146.198L318.956 146.485ZM324.577 138.727L320.313 134.463L320.313 134.463L324.577 138.727ZM324.949 108.67L320.685 112.934L320.685 112.934L324.949 108.67ZM300.04 105.208L300.656 111.206C301.44 111.126 302.2 110.892 302.894 110.519L300.04 105.208ZM291.121 108.945L287.23 104.338C285.527 105.776 284.756 108.037 285.226 110.217L291.121 108.945ZM292.513 112.889L297.733 115.907C298.747 114.152 298.812 112.005 297.906 110.192L292.513 112.889ZM300.092 147.214L306.115 146.923C305.971 143.934 303.656 141.504 300.678 141.213L300.092 147.214ZM301.002 150.455L301.105 156.485C303.215 156.448 305.153 155.312 306.214 153.488C307.275 151.664 307.306 149.418 306.295 147.566L301.002 150.455ZM290.863 157.15L293.813 162.409C294.943 161.775 295.838 160.795 296.367 159.612L290.863 157.15ZM281.328 166.91L275.549 165.188L275.549 165.188L281.328 166.91ZM278.635 173.067L283.827 176.134L283.827 176.134L278.635 173.067ZM270.884 181.509L265.12 183.283C265.689 185.131 267.11 186.594 268.941 187.217C270.772 187.84 272.791 187.547 274.369 186.43L270.884 181.509ZM270.532 180.585L265.047 183.09L265.047 183.09L270.532 180.585ZM257.364 151.746L262.849 149.241L262.849 149.241L257.364 151.746ZM247.362 148.015L244.858 142.529L244.858 142.529L247.362 148.015ZM225.046 158.204L227.551 163.69L227.551 163.69L225.046 158.204ZM221.315 168.206L215.829 170.711L215.829 170.711L221.315 168.206ZM234.483 197.046L239.968 194.541L239.968 194.541L234.483 197.046ZM244.485 200.777L246.989 206.262L246.989 206.262L244.485 200.777ZM251.07 197.77L250.978 191.741C250.145 191.753 249.323 191.939 248.565 192.285L251.07 197.77ZM254.208 197.723L254.299 203.752L254.299 203.752L254.208 197.723ZM259.466 193.936L256.961 188.451C255.469 189.132 254.319 190.392 253.776 191.94L259.466 193.936ZM262.657 192.479L268.294 190.337C267.701 188.778 266.49 187.535 264.948 186.901C263.405 186.268 261.669 186.301 260.152 186.994L262.657 192.479ZM263.011 193.233L257.759 196.196L257.759 196.196L263.011 193.233ZM267.117 195.821L267.062 201.851L267.062 201.851L267.117 195.821ZM284.491 189.971L290.421 191.064C290.866 188.652 289.804 186.21 287.737 184.89C285.67 183.569 283.009 183.632 281.007 185.05L284.491 189.971ZM283.137 197.318L277.207 196.226L277.207 196.226L283.137 197.318ZM285.755 205.788L291.773 206.169C291.893 204.266 291.106 202.418 289.651 201.185L285.755 205.788ZM284.93 218.805V224.835C288.112 224.835 290.747 222.362 290.948 219.186L284.93 218.805ZM229.141 246.371H235.172C235.172 243.041 232.472 240.341 229.142 240.341L229.141 246.371ZM337.741 218.805L331.711 218.838C331.729 222.156 334.423 224.835 337.741 224.835V218.805ZM337.691 209.792L343.721 209.759L343.721 209.759L337.691 209.792ZM336.994 206.682L333.485 201.778C331.112 203.476 330.295 206.629 331.544 209.265L336.994 206.682ZM337.628 206.209L341.335 210.965L341.335 210.965L337.628 206.209ZM339.746 199.225L333.81 200.286L333.81 200.286L339.746 199.225ZM339.173 196.021L333.657 193.586C333.172 194.684 333.026 195.901 333.237 197.083L339.173 196.021ZM338.683 167.713L333.118 170.036L333.118 170.036L338.683 167.713ZM331.383 156.167L326.145 159.155C326.365 159.54 326.627 159.9 326.926 160.228L331.383 156.167ZM318.047 150.454L312.754 147.565C311.734 149.433 311.775 151.701 312.861 153.531C313.947 155.362 315.918 156.484 318.047 156.484V150.454ZM312.762 143.179L312.933 146.771L324.979 146.198L324.808 142.606L312.762 143.179ZM320.313 134.463C319.038 135.738 317.615 136.743 316.109 137.489L321.46 148.297C324.129 146.976 326.628 145.203 328.841 142.991L320.313 134.463ZM320.685 112.934C326.428 118.677 326.461 128.315 320.313 134.463L328.841 142.991C339.498 132.333 339.864 115.057 329.212 104.406L320.685 112.934ZM302.894 110.519C308.772 107.361 316.006 108.255 320.685 112.934L329.212 104.406C320.547 95.7405 307.467 94.3713 297.186 99.8957L302.894 110.519ZM295.011 113.552C296.593 112.216 298.531 111.424 300.656 111.206L299.424 99.209C295.051 99.6582 290.788 101.333 287.23 104.338L295.011 113.552ZM297.906 110.192C297.498 109.376 297.2 108.529 297.015 107.673L285.226 110.217C285.629 112.083 286.269 113.886 287.119 115.586L297.906 110.192ZM295.472 126.858C295.472 121.688 296.439 118.146 297.733 115.907L287.292 109.871C284.608 114.515 283.412 120.342 283.412 126.858H295.472ZM300.678 141.213C299.375 141.086 298.683 140.792 298.3 140.549C297.955 140.33 297.564 139.969 297.155 139.167C296.184 137.262 295.472 133.622 295.472 126.858H283.412C283.412 133.858 284.046 140.007 286.411 144.645C287.67 147.115 289.444 149.214 291.842 150.734C294.202 152.231 296.831 152.955 299.507 153.216L300.678 141.213ZM306.295 147.566C306.191 147.376 306.127 147.161 306.115 146.923L294.069 147.506C294.171 149.607 294.753 151.593 295.709 153.345L306.295 147.566ZM296.367 159.612C297.192 157.769 299.026 156.52 301.105 156.485L300.899 144.426C294.055 144.544 288.059 148.649 285.358 154.688L296.367 159.612ZM287.107 168.632C287.093 168.678 287.173 168.418 287.559 167.86C287.92 167.336 288.439 166.707 289.11 166.027C290.467 164.65 292.176 163.327 293.813 162.409L287.912 151.891C285.225 153.399 282.621 155.43 280.52 157.562C278.559 159.552 276.428 162.24 275.549 165.188L287.107 168.632ZM283.827 176.134C285.25 173.726 286.34 171.206 287.107 168.632L275.549 165.188C275.061 166.828 274.363 168.444 273.444 170L283.827 176.134ZM274.369 186.43C278.103 183.785 281.354 180.321 283.827 176.134L273.444 170C271.848 172.701 269.769 174.909 267.398 176.588L274.369 186.43ZM265.047 183.09C265.077 183.156 265.101 183.22 265.12 183.283L276.647 179.735C276.475 179.175 276.265 178.623 276.018 178.081L265.047 183.09ZM251.879 154.251L265.047 183.09L276.018 178.081L262.849 149.241L251.879 154.251ZM249.867 153.5C250.63 153.152 251.53 153.488 251.879 154.251L262.849 149.241C259.734 142.42 251.679 139.415 244.858 142.529L249.867 153.5ZM227.551 163.69L249.867 153.5L244.858 142.529L222.541 152.719L227.551 163.69ZM226.8 165.702C226.452 164.939 226.788 164.038 227.551 163.69L222.541 152.719C215.72 155.834 212.715 163.889 215.829 170.711L226.8 165.702ZM239.968 194.541L226.8 165.702L215.829 170.711L228.998 199.55L239.968 194.541ZM241.98 195.292C241.217 195.64 240.317 195.304 239.968 194.541L228.998 199.55C232.112 206.372 240.168 209.377 246.989 206.262L241.98 195.292ZM248.565 192.285L241.98 195.292L246.989 206.262L253.574 203.255L248.565 192.285ZM254.117 191.693L250.978 191.741L251.161 203.8L254.299 203.752L254.117 191.693ZM253.776 191.94C253.804 191.861 253.849 191.806 253.901 191.768C253.962 191.723 254.045 191.694 254.117 191.693L254.299 203.752C259.346 203.676 263.583 200.416 265.156 195.933L253.776 191.94ZM260.152 186.994L256.961 188.451L261.971 199.422L265.162 197.965L260.152 186.994ZM268.263 190.271C268.272 190.287 268.283 190.31 268.294 190.337L257.02 194.622C257.225 195.16 257.471 195.686 257.759 196.196L268.263 190.271ZM267.172 189.791C267.544 189.795 267.838 189.915 268.015 190.03C268.177 190.135 268.241 190.232 268.263 190.271L257.759 196.196C259.471 199.231 262.792 201.812 267.062 201.851L267.172 189.791ZM281.007 185.05C276.465 188.265 271.582 189.832 267.172 189.791L267.062 201.851C274.362 201.918 281.676 199.352 287.975 194.893L281.007 185.05ZM289.068 198.411L290.421 191.064L278.561 188.879L277.207 196.226L289.068 198.411ZM289.651 201.185C289.32 200.905 288.771 200.022 289.068 198.411L277.207 196.226C276.326 201.007 277.467 206.673 281.859 210.391L289.651 201.185ZM290.948 219.186L291.773 206.169L279.737 205.407L278.912 218.424L290.948 219.186ZM237.756 224.835H284.93V212.775H237.756V224.835ZM229.142 224.835H237.756V212.775H229.142V224.835ZM226.557 227.419C226.557 225.992 227.714 224.835 229.142 224.835V212.775C221.054 212.775 214.497 219.332 214.497 227.419H226.557ZM226.557 237.757V227.419H214.497V237.757H226.557ZM229.142 240.341C227.714 240.341 226.557 239.184 226.557 237.757H214.497C214.497 245.844 221.054 252.401 229.141 252.401L229.142 240.341ZM235.172 301.503V246.371H223.111V301.503H235.172ZM237.756 304.087C236.329 304.087 235.172 302.93 235.172 301.503H223.111C223.111 309.591 229.668 316.147 237.756 316.147V304.087ZM377.309 304.087H237.756V316.147H377.309V304.087ZM379.893 301.503C379.893 302.93 378.736 304.087 377.309 304.087V316.147C385.396 316.147 391.953 309.591 391.953 301.503H379.893ZM379.893 227.419V301.503H391.953V227.419H379.893ZM377.309 224.835C378.736 224.835 379.893 225.992 379.893 227.419H391.953C391.953 219.332 385.396 212.775 377.309 212.775V224.835ZM368.694 224.835H377.309V212.775H368.694V224.835ZM337.741 224.835H368.694V212.775H337.741V224.835ZM331.661 209.825L331.711 218.838L343.771 218.772L343.721 209.759L331.661 209.825ZM331.544 209.265C331.608 209.398 331.66 209.579 331.661 209.825L343.721 209.759C343.71 207.75 343.262 205.829 342.443 204.1L331.544 209.265ZM333.92 201.453C333.786 201.558 333.641 201.667 333.485 201.778L340.502 211.587C340.794 211.378 341.071 211.17 341.335 210.965L333.92 201.453ZM333.81 200.286C333.921 200.911 333.874 201.331 333.823 201.521C333.801 201.603 333.787 201.611 333.81 201.575C333.837 201.533 333.878 201.486 333.92 201.453L341.335 210.965C345.893 207.411 346.357 201.94 345.681 198.163L333.81 200.286ZM333.237 197.083L333.81 200.286L345.681 198.163L345.109 194.96L333.237 197.083ZM333.118 170.036C336.687 178.586 336.457 187.242 333.657 193.586L344.689 198.457C348.964 188.776 348.952 176.661 344.248 165.39L333.118 170.036ZM326.926 160.228C329.396 162.939 331.534 166.24 333.118 170.036L344.248 165.39C342.137 160.333 339.254 155.852 335.84 152.105L326.926 160.228ZM321.546 156.484C323.486 156.484 325.222 157.537 326.145 159.155L336.621 153.179C333.607 147.897 327.928 144.424 321.546 144.424V156.484ZM318.047 156.484H321.546V144.424H318.047V156.484ZM312.933 146.771C312.947 147.072 312.879 147.336 312.754 147.565L323.339 153.343C324.495 151.226 325.101 148.772 324.979 146.198L312.933 146.771Z" fill="black" mask="url(#path-10-outside-1)"/>
<path d="M312.875 209.029C313.588 204.932 310.833 200.873 306.729 199.976L294.636 197.331C290.237 196.369 286.158 199.426 285.875 203.899L281.386 274.722C281.123 278.883 284.268 282.631 288.411 283.093L293.032 283.608C296.861 284.035 300.259 281.499 300.916 277.724L312.875 209.029Z" fill="#EB03FF"/>
<path d="M310.517 213.643C310.051 209.578 312.927 205.73 316.988 204.985L329.151 202.752C333.654 201.925 337.666 205.233 337.691 209.792L338.082 280.665C338.104 284.774 334.851 288.305 330.757 288.613L326.109 288.962C322.204 289.256 318.866 286.507 318.422 282.633L310.517 213.643Z" fill="#EB03FF"/>
<path d="M312.067 296.079C309.149 296.422 306.95 298.895 306.95 301.833V301.833C306.95 305.032 309.544 307.626 312.744 307.626L332.103 307.626C335.929 307.626 339.031 304.524 339.031 300.698V300.698C339.031 296.55 335.412 293.332 331.293 293.817L312.067 296.079Z" fill="#A5A5A5"/>
<path d="M272.075 289.786C269.159 290.143 266.971 292.626 266.985 295.563V295.563C266.999 298.763 269.605 301.345 272.805 301.33L292.164 301.241C295.99 301.224 299.078 298.108 299.06 294.281V294.281C299.041 290.134 295.407 286.933 291.291 287.436L272.075 289.786Z" fill="#A5A5A5"/>
<rect width="32.5714" height="32.5294" rx="7.54846" transform="matrix(-0.998446 -0.0557333 -0.0557333 0.998446 327.753 200.956)" fill="#EB03FF"/>
<path fill-rule="evenodd" clip-rule="evenodd" d="M301.069 159.859C301.145 158.185 300.212 156.653 298.769 155.801V155.801C294.124 153.057 282.868 161.74 281.328 166.91C280.7 169.017 279.806 171.085 278.635 173.067C275.725 177.994 271.525 181.675 266.744 183.922C263.241 185.568 261.109 189.862 263.011 193.233V193.233C263.864 194.745 265.381 195.805 267.117 195.821C277.577 195.917 288.813 189.247 295.573 177.803C299.004 171.996 300.802 165.772 301.069 159.859Z" fill="#0094FF"/>
<path d="M332.691 159.783C331.726 154.384 327.03 150.454 321.545 150.454H301.198C295.736 150.454 291.052 154.353 290.063 159.725L283.137 197.318C282.452 201.036 283.706 204.86 287.032 206.659C291.91 209.298 300.497 212.515 313.367 212.515C326.978 212.515 334.154 208.916 337.627 206.209C339.72 204.577 340.212 201.837 339.745 199.224L332.691 159.783Z" fill="#00E0FF"/>
<rect width="11.3227" height="18.8712" rx="5.66135" transform="matrix(0.0151471 0.999885 0.999885 -0.0151471 240.828 186.601)" fill="#C17A38"/>
<rect width="11.3227" height="18.8712" rx="5.66135" transform="matrix(0.610909 0.791701 0.791701 -0.610909 302.204 216.518)" fill="#C17A38"/>
<path fill-rule="evenodd" clip-rule="evenodd" d="M327.25 152.286C326.159 151.414 324.674 151.271 323.385 151.809V151.809C318.954 153.658 318.409 173.488 320.531 177.795C320.755 178.25 320.966 178.715 321.164 179.189C323.912 185.771 323.546 192.905 320.737 199.06C319.646 201.448 319.671 204.297 321.28 206.372L321.507 206.664C322.825 208.363 325.039 209.194 327.022 208.366V208.366C340.488 202.746 345.708 184.545 338.683 167.713C336.019 161.331 331.977 156.062 327.25 152.286Z" fill="#0094FF"/>
<rect x="218.18" y="161.34" width="39.6294" height="46.8005" rx="7.54846" transform="rotate(-24.5416 218.18 161.34)" fill="#6B6E70"/>
<path d="M318.618 139.368C318.399 134.759 314.132 131.424 309.606 132.324L306.161 133.009C302.628 133.711 300.084 136.811 300.084 140.412V146.844C300.084 151.013 303.464 154.392 307.633 154.392H311.417C315.727 154.392 319.162 150.79 318.957 146.485L318.618 139.368Z" fill="#C17A38"/>
<rect width="18.8712" height="27.5519" rx="9.43558" transform="matrix(-1 0 0 1 309.993 112.121)" fill="#7F00FF"/>
<path fill-rule="evenodd" clip-rule="evenodd" d="M328.163 128.947C330.01 119.64 324.577 110.626 315.864 108.683C312.832 108.008 309.797 108.276 307.031 109.3C305.185 118.607 310.617 127.622 319.33 129.564C322.362 130.239 325.397 129.971 328.163 128.947Z" fill="#7F00FF"/>
<path d="M289.442 126.858C289.442 141.707 292.577 147.306 302.074 147.306C311.572 147.306 326.438 140.594 326.438 130.039C326.438 119.484 314.279 105.957 304.781 105.957C295.284 105.957 289.442 113.279 289.442 126.858Z" fill="#C17A38"/>
<path fill-rule="evenodd" clip-rule="evenodd" d="M291.12 108.945C292.321 114.509 296.454 119.475 302.459 121.711C309.121 124.193 316.239 122.627 320.812 118.265C319.893 116.012 318.549 113.854 316.78 111.92C309.663 104.136 298.312 102.871 291.12 108.945Z" fill="#7F00FF"/>
<path fill-rule="evenodd" clip-rule="evenodd" d="M318.181 143.181C319.236 136.381 316.532 128.397 310.413 122.279C304.729 116.595 297.435 113.857 290.976 114.343C291.98 112.439 293.285 110.648 294.892 109.042C303.294 100.639 316.751 100.473 324.949 108.67C333.146 116.868 332.98 130.324 324.577 138.727C322.666 140.638 320.493 142.123 318.181 143.181Z" fill="#7F00FF"/>
<path fill-rule="evenodd" clip-rule="evenodd" d="M313.482 134.088C314.07 136.285 316.877 136.931 318.504 135.341C320.213 133.671 321.006 131.25 320.375 128.895V128.895C319.786 126.698 316.979 126.052 315.353 127.641C313.644 129.311 312.851 131.733 313.482 134.088V134.088Z" fill="#C17A38"/>
<path d="M286.433 131.064L289.776 126.509C290.761 125.167 292.888 125.863 292.888 127.528V133.471C292.888 134.699 291.639 135.533 290.504 135.062L287.162 133.675C286.13 133.246 285.772 131.965 286.433 131.064Z" fill="#C17A38"/>
<rect x="298.919" y="123.449" width="4.30718" height="6.46077" rx="2.15359" fill="black"/>
<rect width="2.81537" height="7.44881" rx="1.40769" transform="matrix(0.5 -0.866025 0.859129 0.511759 299.726 118.732)" fill="black"/>
<path d="M298.486 138.955C296.986 141.217 293.318 141.108 291.354 141.217L290.923 140.786C294.179 141.539 298.486 138.955 298.486 138.955Z" stroke="black" stroke-width="2.84274" stroke-linecap="round" stroke-linejoin="round"/>
<rect x="229.142" y="218.805" width="156.781" height="91.3123" rx="8.61436" fill="#A5A5A5"/>
<rect x="220.528" y="218.805" width="156.781" height="27.566" rx="8.61436" fill="#6B6E70"/>
<mask id="path-36-outside-2" maskUnits="userSpaceOnUse" x="87.8784" y="100.47" width="120" height="218" fill="black">
<rect fill="white" x="87.8784" y="100.47" width="120" height="218"/>
<path fill-rule="evenodd" clip-rule="evenodd" d="M117.229 111.867C112.498 113.41 108.794 117.227 107.409 122.027C104.22 127.763 104.007 134.583 106.851 140.107C107.302 146.954 112.318 152.555 118.884 153.893C118.92 154.525 119.035 155.137 119.217 155.719H117.739C114.526 155.719 111.625 157.057 109.564 159.207C109.421 159.297 109.283 159.396 109.15 159.504C104.546 163.263 100.613 168.448 98.003 174.701C91.2079 190.981 95.869 208.541 108.366 214.761C108.325 215.078 108.304 215.401 108.304 215.729V287.817C108.304 291.986 111.684 295.365 115.853 295.365H119.627C123.796 295.365 127.175 291.986 127.175 287.817V236.913L130.509 236.279L139.12 287.82C139.807 291.932 143.666 294.55 147.741 293.667L151.525 292.847C155.599 291.965 158.345 287.916 157.658 283.804L145.826 212.984C145.603 211.647 145.044 210.469 144.252 209.517C145.155 207.891 145.669 206.02 145.669 204.029V181.897C155.024 190.693 167.194 194.018 177.01 191.297C178.543 190.872 179.648 189.587 180.059 188.051C181.134 184.041 176.979 180.208 172.829 180.213C165.89 180.221 158.898 177.541 153.547 172.191C151.11 169.754 149.227 166.976 147.9 164.018C146.997 162.006 145.012 160.358 142.833 159.546C140.765 157.206 137.744 155.728 134.378 155.719C134.589 155.046 134.709 154.333 134.722 153.595C135.372 153.405 136.003 153.173 136.613 152.902C140.251 152.11 142.584 149.964 143.949 146.085L144.1 145.934L144.048 145.945C144.03 145.949 144.012 145.953 143.993 145.957C144.031 145.848 144.068 145.737 144.104 145.625C144.785 144.205 145.251 142.662 145.459 141.039L148.724 139.684C149.756 139.256 150.113 137.974 149.452 137.073L146.11 132.518C145.957 132.31 145.778 132.152 145.583 132.038V126.222C145.583 124.006 145.105 121.902 144.248 120.006C141.477 111.059 132.578 105.71 124.035 107.999C121.396 108.706 119.092 110.062 117.229 111.867ZM134.513 300.867C137.431 301.211 139.63 303.683 139.63 306.621C139.63 309.821 137.036 312.415 133.836 312.415H114.477C110.651 312.415 107.549 309.313 107.549 305.486C107.549 301.339 111.168 298.121 115.287 298.605L134.513 300.867ZM175.138 300.732C174.581 297.848 171.952 295.837 169.022 296.054L149.716 297.484C145.58 297.791 142.638 301.637 143.426 305.709C144.152 309.466 147.787 311.922 151.543 311.196L170.55 307.52C173.692 306.913 175.746 303.873 175.138 300.732ZM201.112 181.644C200.302 178.623 197.198 176.831 194.178 177.64L186.887 179.594C183.867 180.403 182.074 183.508 182.884 186.528C183.693 189.548 186.797 191.34 189.817 190.531L197.109 188.577C200.129 187.768 201.921 184.664 201.112 181.644Z"/>
</mask>
<path d="M107.409 122.027L112.679 124.957C112.9 124.559 113.076 124.137 113.202 123.699L107.409 122.027ZM117.229 111.867L119.099 117.599C119.971 117.315 120.766 116.836 121.425 116.198L117.229 111.867ZM106.851 140.107L112.868 139.711C112.814 138.886 112.591 138.081 112.212 137.347L106.851 140.107ZM118.884 153.893L124.904 153.548C124.748 150.815 122.77 148.531 120.088 147.984L118.884 153.893ZM119.217 155.719V161.749C121.137 161.749 122.942 160.835 124.078 159.287C125.214 157.739 125.545 155.743 124.97 153.912L119.217 155.719ZM109.564 159.207L112.765 164.318C113.186 164.054 113.573 163.739 113.917 163.38L109.564 159.207ZM109.15 159.504L112.963 164.175L112.963 164.175L109.15 159.504ZM98.003 174.701L92.4382 172.378H92.4382L98.003 174.701ZM108.366 214.761L114.347 215.527C114.673 212.98 113.351 210.506 111.052 209.362L108.366 214.761ZM127.175 236.913L126.048 230.99C123.204 231.531 121.145 234.018 121.145 236.913H127.175ZM130.509 236.279L136.456 235.286C136.189 233.685 135.288 232.26 133.956 231.332C132.625 230.404 130.976 230.052 129.381 230.355L130.509 236.279ZM139.12 287.82L145.067 286.827V286.827L139.12 287.82ZM147.741 293.667L146.464 287.774H146.464L147.741 293.667ZM151.525 292.847L152.802 298.741H152.802L151.525 292.847ZM157.658 283.804L163.606 282.81V282.81L157.658 283.804ZM145.826 212.984L139.879 213.977L145.826 212.984ZM144.252 209.517L138.98 206.59C137.772 208.766 138.025 211.461 139.617 213.374L144.252 209.517ZM145.669 181.897L149.799 177.504C148.047 175.857 145.483 175.408 143.276 176.363C141.068 177.317 139.639 179.492 139.639 181.897H145.669ZM177.01 191.297L178.621 197.107L178.621 197.107L177.01 191.297ZM180.059 188.051L174.235 186.49L174.235 186.49L180.059 188.051ZM172.829 180.213L172.821 174.183H172.821L172.829 180.213ZM153.547 172.191L149.283 176.454H149.283L153.547 172.191ZM147.9 164.018L142.398 166.487V166.487L147.9 164.018ZM142.833 159.546L138.314 163.539C138.971 164.282 139.8 164.851 140.728 165.197L142.833 159.546ZM134.378 155.719L128.625 153.912C128.051 155.741 128.38 157.733 129.512 159.28C130.644 160.827 132.444 161.743 134.361 161.749L134.378 155.719ZM134.722 153.595L133.033 147.806C130.5 148.545 128.741 150.846 128.693 153.485L134.722 153.595ZM136.613 152.902L135.33 147.01C134.929 147.097 134.538 147.225 134.163 147.392L136.613 152.902ZM143.949 146.085L139.687 141.819C139.048 142.458 138.56 143.232 138.261 144.084L143.949 146.085ZM144.1 145.934L148.363 150.199C150.262 148.301 150.677 145.376 149.382 143.025C148.087 140.673 145.392 139.461 142.773 140.052L144.1 145.934ZM144.048 145.945L145.343 151.835C145.354 151.833 145.365 151.83 145.375 151.828L144.048 145.945ZM143.993 145.957L138.289 144.001C137.586 146.051 138.037 148.32 139.47 149.945C140.904 151.571 143.099 152.302 145.22 151.861L143.993 145.957ZM144.104 145.625L138.667 143.015C138.549 143.263 138.447 143.519 138.363 143.78L144.104 145.625ZM145.459 141.039L143.148 135.469C141.153 136.297 139.753 138.129 139.478 140.272L145.459 141.039ZM148.724 139.684L151.035 145.253L151.035 145.253L148.724 139.684ZM149.452 137.073L154.314 133.506L154.314 133.506L149.452 137.073ZM146.11 132.518L141.248 136.086L141.248 136.086L146.11 132.518ZM145.583 132.038H139.553C139.553 134.18 140.689 136.161 142.538 137.243L145.583 132.038ZM144.248 120.006L138.487 121.789C138.561 122.029 138.65 122.263 138.754 122.491L144.248 120.006ZM124.035 107.999L122.474 102.174L124.035 107.999ZM134.513 300.867L133.809 306.856H133.809L134.513 300.867ZM115.287 298.605L114.582 304.594H114.582L115.287 298.605ZM169.022 296.054L168.577 290.041H168.577L169.022 296.054ZM175.138 300.732L169.218 301.877L169.218 301.877L175.138 300.732ZM149.716 297.484L150.162 303.498H150.162L149.716 297.484ZM143.426 305.709L149.346 304.564L143.426 305.709ZM151.543 311.196L150.398 305.276H150.398L151.543 311.196ZM170.55 307.52L169.405 301.6H169.405L170.55 307.52ZM194.178 177.64L192.617 171.816H192.617L194.178 177.64ZM201.112 181.644L195.287 183.204V183.204L201.112 181.644ZM186.887 179.594L188.447 185.419L186.887 179.594ZM182.884 186.528L177.059 188.089V188.089L182.884 186.528ZM189.817 190.531L188.257 184.706L189.817 190.531ZM197.109 188.577L198.669 194.402L198.669 194.402L197.109 188.577ZM113.202 123.699C114.032 120.825 116.262 118.525 119.099 117.599L115.358 106.134C108.734 108.295 103.557 113.629 101.615 120.354L113.202 123.699ZM112.212 137.347C110.353 133.735 110.403 129.052 112.679 124.957L102.138 119.097C98.0369 126.475 97.6618 135.431 101.49 142.867L112.212 137.347ZM120.088 147.984C116.15 147.181 113.138 143.81 112.868 139.711L100.834 140.503C101.466 150.099 108.486 157.928 117.68 159.801L120.088 147.984ZM124.97 153.912C124.935 153.8 124.912 153.679 124.904 153.548L112.864 154.238C112.929 155.372 113.134 156.475 113.464 157.525L124.97 153.912ZM117.739 161.749H119.217V149.689H117.739V161.749ZM113.917 163.38C114.888 162.367 116.236 161.749 117.739 161.749V149.689C112.815 149.689 108.362 151.747 105.211 155.034L113.917 163.38ZM112.963 164.175C112.9 164.227 112.834 164.275 112.765 164.318L106.364 154.096C106.009 154.319 105.666 154.564 105.336 154.833L112.963 164.175ZM103.568 177.024C105.808 171.656 109.152 167.287 112.963 164.175L105.336 154.833C99.941 159.238 95.4181 165.239 92.4382 172.378L103.568 177.024ZM111.052 209.362C102.345 205.029 97.5415 191.462 103.568 177.024L92.4382 172.378C84.8744 190.5 89.3931 212.054 105.679 220.159L111.052 209.362ZM114.334 215.729C114.334 215.658 114.339 215.59 114.347 215.527L102.385 213.995C102.312 214.565 102.274 215.144 102.274 215.729H114.334ZM114.334 287.817V215.729H102.274V287.817H114.334ZM115.853 289.335C115.014 289.335 114.334 288.655 114.334 287.817H102.274C102.274 295.316 108.354 301.395 115.853 301.395V289.335ZM119.627 289.335H115.853V301.395H119.627V289.335ZM121.145 287.817C121.145 288.655 120.466 289.335 119.627 289.335V301.395C127.126 301.395 133.205 295.316 133.205 287.817H121.145ZM121.145 236.913V287.817H133.205V236.913H121.145ZM129.381 230.355L126.048 230.99L128.302 242.837L131.636 242.203L129.381 230.355ZM145.067 286.827L136.456 235.286L124.561 237.273L133.172 288.814L145.067 286.827ZM146.464 287.774C146.06 287.861 145.758 287.771 145.545 287.626C145.332 287.482 145.135 287.235 145.067 286.827L133.172 288.814C134.426 296.322 141.578 301.172 149.018 299.561L146.464 287.774ZM150.248 286.954L146.464 287.774L149.018 299.561L152.802 298.741L150.248 286.954ZM151.711 284.797C151.867 285.735 151.177 286.753 150.248 286.954L152.802 298.741C160.021 297.177 164.823 290.096 163.606 282.81L151.711 284.797ZM139.879 213.977L151.711 284.797L163.606 282.81L151.774 211.99L139.879 213.977ZM139.617 213.374C139.729 213.508 139.832 213.699 139.879 213.977L151.774 211.99C151.374 209.595 150.36 207.429 148.887 205.659L139.617 213.374ZM139.639 204.029C139.639 204.97 139.398 205.837 138.98 206.59L149.524 212.443C150.911 209.945 151.699 207.07 151.699 204.029H139.639ZM139.639 181.897V204.029H151.699V181.897H139.639ZM175.399 185.486C167.976 187.544 157.915 185.135 149.799 177.504L141.538 186.291C152.132 196.252 166.412 200.492 178.621 197.107L175.399 185.486ZM174.235 186.49C174.279 186.324 174.538 185.724 175.399 185.486L178.621 197.107C182.547 196.019 185.016 192.851 185.884 189.611L174.235 186.49ZM172.836 186.243C172.953 186.243 173.164 186.273 173.43 186.39C173.697 186.508 173.927 186.674 174.087 186.837C174.249 187.003 174.26 187.084 174.238 187.016C174.204 186.913 174.177 186.706 174.235 186.49L185.884 189.611C187.112 185.03 185.208 180.967 182.72 178.416C180.264 175.898 176.667 174.179 172.821 174.183L172.836 186.243ZM149.283 176.454C155.799 182.97 164.342 186.253 172.836 186.243L172.821 174.183C167.439 174.19 161.997 172.113 157.811 167.927L149.283 176.454ZM142.398 166.487C144.022 170.105 146.322 173.493 149.283 176.454L157.811 167.927C155.899 166.015 154.433 163.847 153.401 161.549L142.398 166.487ZM140.728 165.197C141.719 165.566 142.285 166.235 142.398 166.487L153.401 161.549C151.709 157.777 148.306 155.149 144.937 153.895L140.728 165.197ZM134.361 161.749C135.933 161.753 137.339 162.436 138.314 163.539L147.351 155.553C144.19 151.977 139.555 149.703 134.395 149.689L134.361 161.749ZM128.693 153.485C128.69 153.641 128.665 153.783 128.625 153.912L140.131 157.525C140.513 156.31 140.727 155.026 140.751 153.704L128.693 153.485ZM134.163 147.392C133.798 147.554 133.421 147.693 133.033 147.806L136.411 159.383C137.322 159.117 138.208 158.792 139.063 158.412L134.163 147.392ZM138.261 144.084C137.82 145.337 137.36 145.927 137.034 146.229C136.735 146.506 136.266 146.806 135.33 147.01L137.895 158.794C140.598 158.206 143.115 157.037 145.233 155.074C147.324 153.135 148.714 150.712 149.637 148.086L138.261 144.084ZM139.838 141.668L139.687 141.819L148.211 150.35L148.363 150.199L139.838 141.668ZM145.375 151.828L145.427 151.816L142.773 140.052L142.721 140.063L145.375 151.828ZM145.22 151.861C145.261 151.853 145.302 151.844 145.343 151.835L142.754 140.056C142.758 140.055 142.762 140.054 142.766 140.053L145.22 151.861ZM138.363 143.78C138.338 143.856 138.314 143.929 138.289 144.001L149.697 147.914C149.748 147.766 149.797 147.618 149.845 147.47L138.363 143.78ZM139.478 140.272C139.353 141.245 139.075 142.167 138.667 143.015L149.54 148.234C150.495 146.244 151.149 144.08 151.44 141.805L139.478 140.272ZM146.412 134.114L143.148 135.469L147.771 146.608L151.035 145.253L146.412 134.114ZM144.591 140.641C142.939 138.389 143.833 135.185 146.412 134.114L151.035 145.253C155.678 143.326 157.288 137.558 154.314 133.506L144.591 140.641ZM141.248 136.086L144.591 140.641L154.314 133.506L150.971 128.951L141.248 136.086ZM142.538 137.243C142.008 136.933 141.574 136.529 141.248 136.086L150.971 128.951C150.341 128.091 149.547 127.37 148.627 126.832L142.538 137.243ZM139.553 126.222V132.038H151.613V126.222H139.553ZM138.754 122.491C139.265 123.622 139.553 124.88 139.553 126.222H151.613C151.613 123.132 150.945 120.182 149.741 117.52L138.754 122.491ZM125.596 113.824C130.657 112.467 136.564 115.577 138.487 121.789L150.008 118.223C146.391 106.54 134.499 98.9525 122.474 102.174L125.596 113.824ZM121.425 116.198C122.58 115.078 123.987 114.255 125.596 113.824L122.474 102.174C118.805 103.158 115.604 105.045 113.033 107.536L121.425 116.198ZM145.66 306.621C145.66 300.626 141.172 295.579 135.218 294.879L133.809 306.856C133.689 306.842 133.6 306.741 133.6 306.621H145.66ZM133.836 318.445C140.366 318.445 145.66 313.151 145.66 306.621H133.6C133.6 306.49 133.706 306.385 133.836 306.385V318.445ZM114.477 318.445H133.836V306.385H114.477V318.445ZM101.519 305.486C101.519 312.643 107.32 318.445 114.477 318.445V306.385C113.981 306.385 113.579 305.982 113.579 305.486H101.519ZM115.991 292.617C108.287 291.71 101.519 297.729 101.519 305.486H113.579C113.579 304.949 114.048 304.531 114.582 304.594L115.991 292.617ZM135.218 294.879L115.991 292.617L114.582 304.594L133.809 306.856L135.218 294.879ZM169.468 302.068C169.348 302.077 169.241 301.995 169.218 301.877L181.059 299.587C179.92 293.701 174.556 289.598 168.577 290.041L169.468 302.068ZM150.162 303.498L169.468 302.068L168.577 290.041L149.271 291.471L150.162 303.498ZM149.346 304.564C149.244 304.036 149.625 303.538 150.162 303.498L149.271 291.471C141.535 292.044 136.032 299.238 137.505 306.854L149.346 304.564ZM150.398 305.276C149.911 305.37 149.44 305.051 149.346 304.564L137.505 306.854C138.864 313.881 145.662 318.475 152.688 317.116L150.398 305.276ZM169.405 301.6L150.398 305.276L152.688 317.116L171.695 313.44L169.405 301.6ZM169.218 301.877C169.193 301.749 169.277 301.625 169.405 301.6L171.695 313.44C178.107 312.201 182.299 305.998 181.059 299.587L169.218 301.877ZM195.739 183.465C195.542 183.518 195.34 183.401 195.287 183.204L206.936 180.083C205.265 173.846 198.854 170.145 192.617 171.816L195.739 183.465ZM188.447 185.419L195.739 183.465L192.617 171.816L185.326 173.77L188.447 185.419ZM188.708 184.967C188.761 185.164 188.644 185.366 188.447 185.419L185.326 173.77C179.089 175.441 175.388 181.852 177.059 188.089L188.708 184.967ZM188.257 184.706C188.453 184.654 188.655 184.77 188.708 184.967L177.059 188.089C178.73 194.325 185.141 198.027 191.378 196.356L188.257 184.706ZM195.548 182.753L188.257 184.706L191.378 196.356L198.669 194.402L195.548 182.753ZM195.287 183.204C195.234 183.008 195.351 182.805 195.548 182.753L198.669 194.402C204.906 192.731 208.607 186.32 206.936 180.083L195.287 183.204Z" fill="black" mask="url(#path-36-outside-2)"/>
<rect x="108.304" y="208.181" width="18.8712" height="87.1848" rx="7.54846" fill="white"/>
<rect width="18.9687" height="86.8985" rx="7.54846" transform="matrix(0.977326 -0.211742 0.164789 0.986329 126.043 209.555)" fill="white"/>
<rect x="114.472" y="211.267" width="25.4103" height="27.5688" rx="7.54846" transform="rotate(-10.7721 114.472 211.267)" fill="white"/>
<rect x="199.647" y="176.175" width="11.3227" height="18.8712" rx="5.66135" transform="rotate(75 199.647 176.175)" fill="#984900"/>
<path fill-rule="evenodd" clip-rule="evenodd" d="M134.956 165.02C134.458 163.398 134.987 161.661 136.187 160.461C139.437 157.21 146.018 159.825 147.9 164.018C149.227 166.976 151.11 169.754 153.547 172.191C158.898 177.541 165.891 180.222 172.829 180.213C176.98 180.208 181.134 184.042 180.059 188.051C179.648 189.587 178.543 190.872 177.01 191.297C166.866 194.109 154.208 190.465 144.74 180.997C139.98 176.237 136.691 170.669 134.956 165.02Z" fill="#A5A5A5"/>
<rect x="106.417" y="155.719" width="39.252" height="59.6329" rx="11.3227" fill="white"/>
<rect x="134.384" y="223.112" width="12.9215" height="19.813" rx="6.46077" transform="rotate(127.655 134.384 223.112)" fill="#984900"/>
<path fill-rule="evenodd" clip-rule="evenodd" d="M109.15 159.504C110.409 158.477 112.14 158.312 113.64 158.938C117.819 160.683 117.772 167.969 114.656 171.256C112.669 173.351 111.031 175.824 109.86 178.628C106.067 187.717 108.208 197.858 114.524 205.019C116.638 207.416 117.21 211.032 115.251 213.559L115.178 213.652C113.861 215.35 111.647 216.182 109.664 215.354C96.1984 209.733 90.9779 191.533 98.0032 174.701C100.613 168.448 104.547 163.263 109.15 159.504Z" fill="#A5A5A5"/>
<rect x="99.0649" y="105.957" width="51.6862" height="49.9633" rx="15.0969" fill="black"/>
<rect x="125.665" y="118.354" width="18.8712" height="27.5519" rx="9.43558" fill="black"/>
<path d="M145.537 132.812C145.537 147.66 142.402 153.26 132.904 153.26C123.407 153.26 112.849 146.548 112.849 135.993C112.849 125.438 120.7 111.911 130.197 111.911C139.695 111.911 145.537 119.233 145.537 132.812Z" fill="#984900"/>
<path d="M118.872 147.038C118.872 142.87 122.252 139.49 126.421 139.49H127.175C131.344 139.49 134.724 142.87 134.724 147.038V153.455C134.724 157.624 131.344 161.003 127.175 161.003H126.421C122.252 161.003 118.872 157.624 118.872 153.455V147.038Z" fill="#984900"/>
<path fill-rule="evenodd" clip-rule="evenodd" d="M110.079 136.041C108.233 126.734 113.665 117.72 122.378 115.778C125.41 115.102 128.446 115.37 131.211 116.395C133.058 125.702 127.626 134.716 118.912 136.658C115.881 137.334 112.845 137.066 110.079 136.041Z" fill="black"/>
<path fill-rule="evenodd" clip-rule="evenodd" d="M144.259 120.045C141.503 111.074 132.59 105.707 124.035 107.999C120.882 108.844 118.208 110.614 116.192 112.97C118.949 121.94 127.862 127.307 136.416 125.015C139.569 124.17 142.243 122.401 144.259 120.045Z" fill="black"/>
<path fill-rule="evenodd" clip-rule="evenodd" d="M108.468 117.011C99.4973 119.768 94.1302 128.681 96.4225 137.236C97.2672 140.388 99.037 143.063 101.393 145.078C110.364 142.322 115.731 133.409 113.438 124.854C112.594 121.702 110.824 119.027 108.468 117.011Z" fill="black"/>
<path fill-rule="evenodd" clip-rule="evenodd" d="M119.005 148.911C118.421 142.224 121.075 134.824 126.759 129.139C133.89 122.008 143.721 119.646 151.457 122.463C150.319 120.009 148.728 117.698 146.69 115.66C137.786 106.756 123.697 106.41 115.22 114.886C106.744 123.363 107.09 137.452 115.993 146.356C116.943 147.305 117.951 148.157 119.005 148.911Z" fill="black"/>
<path fill-rule="evenodd" clip-rule="evenodd" d="M127.558 136.875C126.97 139.072 124.163 139.718 122.536 138.128C120.827 136.459 120.034 134.037 120.665 131.682C121.254 129.485 124.061 128.839 125.687 130.429C127.396 132.099 128.189 134.52 127.558 136.875Z" fill="#984900"/>
<path d="M149.453 137.074L146.11 132.518C145.125 131.176 142.999 131.873 142.999 133.538V139.48C142.999 140.709 144.247 141.542 145.382 141.072L148.725 139.684C149.756 139.256 150.114 137.974 149.453 137.074Z" fill="#984900"/>
<rect width="4.30718" height="6.46077" rx="2.15359" transform="matrix(-1 0 0 1 140.414 129.458)" fill="black"/>
<rect width="2.81537" height="7.44881" rx="1.40769" transform="matrix(-0.5 -0.866025 -0.859129 0.511759 137.885 124.742)" fill="black"/>
<path d="M138.26 144.965C139.761 147.226 143.429 147.118 145.392 147.226L145.823 146.796C142.568 147.549 138.26 144.965 138.26 144.965Z" stroke="black" stroke-width="2.84274" stroke-linecap="round" stroke-linejoin="round"/>
<path d="M134.514 300.868C137.431 301.211 139.63 303.684 139.63 306.621C139.63 309.821 137.037 312.415 133.837 312.415L114.478 312.415C110.651 312.415 107.549 309.313 107.549 305.487C107.549 301.339 111.168 298.121 115.287 298.606L134.514 300.868Z" fill="#A5A5A5"/>
<path d="M169.023 296.055C171.953 295.838 174.581 297.848 175.139 300.732C175.747 303.874 173.693 306.913 170.551 307.52L151.544 311.196C147.787 311.923 144.153 309.466 143.426 305.709C142.639 301.638 145.581 297.791 149.717 297.484L169.023 296.055Z" fill="#A5A5A5"/>
<circle cx="127.493" cy="132.585" r="35.7496" stroke="black" stroke-width="6.03006"/>
</g>
<circle cx="186.07" cy="186.07" r="181.763" stroke="black" stroke-width="8.61436"/>
</svg>
