<svg width="476" height="306" viewBox="0 0 476 306" fill="none" xmlns="http://www.w3.org/2000/svg">
<path d="M351.073 7.34C351.246 6.96667 351.533 6.78 351.933 6.78C352.199 6.78 352.439 6.87333 352.653 7.06C352.866 7.23333 352.973 7.44667 352.973 7.7C352.973 7.79333 352.939 7.92 352.873 8.08L347.233 20.44C347.139 20.6533 346.993 20.82 346.793 20.94C346.593 21.06 346.379 21.12 346.153 21.12C345.926 21.12 345.706 21.06 345.493 20.94C345.293 20.82 345.146 20.6533 345.053 20.44L339.433 8.08C339.366 7.92 339.333 7.79333 339.333 7.7C339.333 7.43333 339.439 7.21333 339.653 7.04C339.879 6.86667 340.126 6.78 340.393 6.78C340.806 6.78 341.099 6.96667 341.273 7.34L346.173 18.32L351.073 7.34ZM360.763 18.54C360.95 18.54 361.103 18.6133 361.223 18.76C361.343 18.9067 361.403 19.0933 361.403 19.32C361.403 19.7067 361.163 20.0333 360.683 20.3C360.217 20.5667 359.703 20.7733 359.143 20.92C358.597 21.0667 358.07 21.14 357.563 21.14C356.017 21.14 354.797 20.6933 353.903 19.8C353.01 18.8933 352.563 17.66 352.563 16.1C352.563 15.1 352.757 14.2133 353.143 13.44C353.543 12.6667 354.097 12.0667 354.803 11.64C355.523 11.2133 356.337 11 357.243 11C358.55 11 359.583 11.42 360.343 12.26C361.103 13.1 361.483 14.2333 361.483 15.66C361.483 16.1933 361.243 16.46 360.763 16.46H354.583C354.717 18.5267 355.71 19.56 357.563 19.56C358.057 19.56 358.483 19.4933 358.843 19.36C359.203 19.2267 359.583 19.0533 359.983 18.84C360.023 18.8133 360.13 18.76 360.303 18.68C360.49 18.5867 360.643 18.54 360.763 18.54ZM357.283 12.48C356.51 12.48 355.89 12.7267 355.423 13.22C354.957 13.7133 354.677 14.4067 354.583 15.3H359.743C359.703 14.3933 359.47 13.7 359.043 13.22C358.63 12.7267 358.043 12.48 357.283 12.48ZM368.529 11.04C369.169 11 369.489 11.2733 369.489 11.86C369.489 12.1533 369.416 12.3733 369.269 12.52C369.123 12.6667 368.869 12.7533 368.509 12.78L367.909 12.84C367.069 12.92 366.443 13.2133 366.029 13.72C365.629 14.2267 365.429 14.84 365.429 15.56V20.14C365.429 20.46 365.336 20.7 365.149 20.86C364.963 21.02 364.723 21.1 364.429 21.1C364.136 21.1 363.889 21.02 363.689 20.86C363.503 20.7 363.409 20.46 363.409 20.14V12C363.409 11.6933 363.503 11.46 363.689 11.3C363.889 11.1267 364.136 11.04 364.429 11.04C364.696 11.04 364.916 11.1267 365.089 11.3C365.276 11.46 365.369 11.6867 365.369 11.98V12.94C365.636 12.3533 366.023 11.9067 366.529 11.6C367.036 11.2933 367.609 11.1133 368.249 11.06L368.529 11.04ZM373.736 21.14C372.376 21.14 371.263 20.86 370.396 20.3C370.156 20.1533 369.983 20 369.876 19.84C369.783 19.68 369.736 19.5 369.736 19.3C369.736 19.0867 369.796 18.9067 369.916 18.76C370.036 18.6133 370.189 18.54 370.376 18.54C370.549 18.54 370.823 18.6467 371.196 18.86C371.596 19.0733 371.983 19.2467 372.356 19.38C372.743 19.5133 373.223 19.58 373.796 19.58C374.436 19.58 374.936 19.4667 375.296 19.24C375.656 19.0133 375.836 18.6933 375.836 18.28C375.836 18.0133 375.763 17.8 375.616 17.64C375.483 17.48 375.243 17.34 374.896 17.22C374.549 17.0867 374.036 16.9467 373.356 16.8C372.183 16.5467 371.336 16.2067 370.816 15.78C370.309 15.34 370.056 14.7467 370.056 14C370.056 13.4267 370.223 12.9133 370.556 12.46C370.889 11.9933 371.349 11.6333 371.936 11.38C372.523 11.1267 373.189 11 373.936 11C374.469 11 374.989 11.0733 375.496 11.22C376.003 11.3533 376.449 11.5533 376.836 11.82C377.276 12.1133 377.496 12.4533 377.496 12.84C377.496 13.0533 377.429 13.2333 377.296 13.38C377.176 13.5267 377.029 13.6 376.856 13.6C376.736 13.6 376.616 13.5733 376.496 13.52C376.376 13.4667 376.216 13.38 376.016 13.26C375.656 13.0467 375.316 12.88 374.996 12.76C374.689 12.64 374.303 12.58 373.836 12.58C373.276 12.58 372.823 12.7 372.476 12.94C372.143 13.18 371.976 13.5067 371.976 13.92C371.976 14.2933 372.129 14.5867 372.436 14.8C372.756 15 373.349 15.1933 374.216 15.38C375.109 15.5667 375.809 15.78 376.316 16.02C376.823 16.26 377.183 16.56 377.396 16.92C377.623 17.2667 377.736 17.7133 377.736 18.26C377.736 19.1267 377.369 19.8267 376.636 20.36C375.916 20.88 374.949 21.14 373.736 21.14ZM380.704 21.1C380.411 21.1 380.164 21.02 379.964 20.86C379.778 20.7 379.684 20.46 379.684 20.14V12.02C379.684 11.7 379.778 11.46 379.964 11.3C380.164 11.1267 380.411 11.04 380.704 11.04C380.998 11.04 381.238 11.1267 381.424 11.3C381.611 11.46 381.704 11.7 381.704 12.02V20.14C381.704 20.46 381.611 20.7 381.424 20.86C381.238 21.02 380.998 21.1 380.704 21.1ZM380.704 9.08C380.318 9.08 380.011 8.97333 379.784 8.76C379.558 8.54667 379.444 8.26667 379.444 7.92C379.444 7.57333 379.558 7.3 379.784 7.1C380.011 6.88667 380.318 6.78 380.704 6.78C381.078 6.78 381.378 6.88667 381.604 7.1C381.844 7.3 381.964 7.57333 381.964 7.92C381.964 8.26667 381.851 8.54667 381.624 8.76C381.398 8.97333 381.091 9.08 380.704 9.08ZM388.468 21.14C387.508 21.14 386.661 20.9333 385.928 20.52C385.208 20.1067 384.648 19.52 384.248 18.76C383.861 17.9867 383.668 17.0933 383.668 16.08C383.668 15.0533 383.861 14.16 384.248 13.4C384.648 12.6267 385.208 12.0333 385.928 11.62C386.661 11.2067 387.508 11 388.468 11C389.428 11 390.268 11.2067 390.988 11.62C391.721 12.0333 392.281 12.6267 392.668 13.4C393.068 14.16 393.268 15.0533 393.268 16.08C393.268 17.0933 393.068 17.9867 392.668 18.76C392.281 19.52 391.721 20.1067 390.988 20.52C390.268 20.9333 389.428 21.14 388.468 21.14ZM388.468 19.54C389.361 19.54 390.041 19.2467 390.508 18.66C390.988 18.0733 391.228 17.2133 391.228 16.08C391.228 14.96 390.988 14.1067 390.508 13.52C390.028 12.92 389.348 12.62 388.468 12.62C387.588 12.62 386.908 12.92 386.428 13.52C385.948 14.1067 385.708 14.96 385.708 16.08C385.708 17.2133 385.941 18.0733 386.408 18.66C386.888 19.2467 387.575 19.54 388.468 19.54ZM400.477 11C402.811 11 403.977 12.3133 403.977 14.94V20.14C403.977 20.4467 403.884 20.6867 403.697 20.86C403.524 21.02 403.277 21.1 402.957 21.1C402.651 21.1 402.404 21.0133 402.217 20.84C402.044 20.6667 401.957 20.4333 401.957 20.14V15.04C401.957 14.2133 401.791 13.6067 401.457 13.22C401.137 12.8333 400.631 12.64 399.937 12.64C399.124 12.64 398.471 12.8933 397.977 13.4C397.484 13.9067 397.237 14.5867 397.237 15.44V20.14C397.237 20.4333 397.144 20.6667 396.957 20.84C396.784 21.0133 396.544 21.1 396.237 21.1C395.931 21.1 395.684 21.0133 395.497 20.84C395.311 20.6667 395.217 20.4333 395.217 20.14V12C395.217 11.72 395.311 11.4933 395.497 11.32C395.697 11.1333 395.944 11.04 396.237 11.04C396.531 11.04 396.764 11.1267 396.937 11.3C397.111 11.4733 397.197 11.7 397.197 11.98V12.8C397.517 12.2133 397.964 11.7667 398.537 11.46C399.111 11.1533 399.757 11 400.477 11ZM424.094 19.8C424.161 19.96 424.194 20.0933 424.194 20.2C424.194 20.4533 424.087 20.6667 423.874 20.84C423.674 21.0133 423.447 21.1 423.194 21.1C423.021 21.1 422.854 21.0533 422.694 20.96C422.547 20.8533 422.434 20.7067 422.354 20.52L421.034 17.52H413.714L412.394 20.52C412.314 20.7067 412.194 20.8533 412.034 20.96C411.874 21.0533 411.707 21.1 411.534 21.1C411.267 21.1 411.027 21.0133 410.814 20.84C410.614 20.6667 410.514 20.4533 410.514 20.2C410.514 20.0933 410.547 19.96 410.614 19.8L416.254 7.46C416.347 7.24667 416.494 7.08 416.694 6.96C416.907 6.84 417.127 6.78 417.354 6.78C417.581 6.78 417.794 6.84 417.994 6.96C418.207 7.08 418.361 7.24667 418.454 7.46L424.094 19.8ZM414.454 15.88H420.314L417.374 9.26L414.454 15.88ZM426.782 13.62C426.422 13.62 426.115 13.5 425.862 13.26C425.622 13.02 425.502 12.7133 425.502 12.34C425.502 11.9667 425.622 11.66 425.862 11.42C426.115 11.1667 426.422 11.04 426.782 11.04C427.142 11.04 427.442 11.1667 427.682 11.42C427.922 11.66 428.042 11.9667 428.042 12.34C428.042 12.7133 427.922 13.02 427.682 13.26C427.442 13.5 427.142 13.62 426.782 13.62ZM426.782 21.1C426.422 21.1 426.115 20.98 425.862 20.74C425.622 20.5 425.502 20.1933 425.502 19.82C425.502 19.4467 425.622 19.14 425.862 18.9C426.115 18.6467 426.422 18.52 426.782 18.52C427.142 18.52 427.442 18.6467 427.682 18.9C427.922 19.14 428.042 19.4467 428.042 19.82C428.042 20.1933 427.922 20.5 427.682 20.74C427.442 20.98 427.142 21.1 426.782 21.1ZM344.401 47.3C344.721 47.3 344.961 47.3733 345.121 47.52C345.281 47.6667 345.361 47.8733 345.361 48.14C345.361 48.7133 345.041 49 344.401 49H337.721C337.068 49 336.741 48.7133 336.741 48.14C336.741 47.8733 336.821 47.6667 336.981 47.52C337.154 47.3733 337.401 47.3 337.721 47.3H340.021V37.32L337.961 38.62C337.828 38.7 337.694 38.74 337.561 38.74C337.334 38.74 337.134 38.64 336.961 38.44C336.801 38.24 336.721 38.0133 336.721 37.76C336.721 37.4533 336.854 37.2133 337.121 37.04L340.201 35.08C340.508 34.8933 340.801 34.8 341.081 34.8C341.374 34.8 341.614 34.8933 341.801 35.08C341.988 35.2667 342.081 35.52 342.081 35.84V47.3H344.401ZM352.173 49.16C350.533 49.16 349.28 48.5467 348.413 47.32C347.56 46.0933 347.133 44.3067 347.133 41.96C347.133 39.6 347.56 37.8067 348.413 36.58C349.28 35.3533 350.533 34.74 352.173 34.74C353.813 34.74 355.06 35.3533 355.913 36.58C356.78 37.7933 357.213 39.58 357.213 41.94C357.213 44.3 356.78 46.0933 355.913 47.32C355.06 48.5467 353.813 49.16 352.173 49.16ZM352.173 47.5C353.2 47.5 353.953 47.0533 354.433 46.16C354.913 45.2667 355.153 43.86 355.153 41.94C355.153 40.02 354.913 38.62 354.433 37.74C353.953 36.8467 353.2 36.4 352.173 36.4C351.146 36.4 350.393 36.8467 349.913 37.74C349.433 38.62 349.193 40.02 349.193 41.94C349.193 43.8467 349.433 45.2533 349.913 46.16C350.393 47.0533 351.146 47.5 352.173 47.5ZM363.865 49.16C362.225 49.16 360.972 48.5467 360.105 47.32C359.252 46.0933 358.825 44.3067 358.825 41.96C358.825 39.6 359.252 37.8067 360.105 36.58C360.972 35.3533 362.225 34.74 363.865 34.74C365.505 34.74 366.752 35.3533 367.605 36.58C368.472 37.7933 368.905 39.58 368.905 41.94C368.905 44.3 368.472 46.0933 367.605 47.32C366.752 48.5467 365.505 49.16 363.865 49.16ZM363.865 47.5C364.892 47.5 365.645 47.0533 366.125 46.16C366.605 45.2667 366.845 43.86 366.845 41.94C366.845 40.02 366.605 38.62 366.125 37.74C365.645 36.8467 364.892 36.4 363.865 36.4C362.839 36.4 362.085 36.8467 361.605 37.74C361.125 38.62 360.885 40.02 360.885 41.94C360.885 43.8467 361.125 45.2533 361.605 46.16C362.085 47.0533 362.839 47.5 363.865 47.5ZM375.557 49.16C373.917 49.16 372.664 48.5467 371.797 47.32C370.944 46.0933 370.517 44.3067 370.517 41.96C370.517 39.6 370.944 37.8067 371.797 36.58C372.664 35.3533 373.917 34.74 375.557 34.74C377.197 34.74 378.444 35.3533 379.297 36.58C380.164 37.7933 380.597 39.58 380.597 41.94C380.597 44.3 380.164 46.0933 379.297 47.32C378.444 48.5467 377.197 49.16 375.557 49.16ZM375.557 47.5C376.584 47.5 377.337 47.0533 377.817 46.16C378.297 45.2667 378.537 43.86 378.537 41.94C378.537 40.02 378.297 38.62 377.817 37.74C377.337 36.8467 376.584 36.4 375.557 36.4C374.531 36.4 373.777 36.8467 373.297 37.74C372.817 38.62 372.577 40.02 372.577 41.94C372.577 43.8467 372.817 45.2533 373.297 46.16C373.777 47.0533 374.531 47.5 375.557 47.5ZM395.183 39.04C395.49 39.04 395.73 39.1267 395.903 39.3C396.09 39.4733 396.183 39.7133 396.183 40.02V48.16C396.183 48.44 396.09 48.6667 395.903 48.84C395.716 49.0133 395.47 49.1 395.163 49.1C394.883 49.1 394.656 49.02 394.483 48.86C394.31 48.6867 394.223 48.46 394.223 48.18V47.42C393.916 47.98 393.49 48.4067 392.943 48.7C392.41 48.9933 391.81 49.14 391.143 49.14C388.77 49.14 387.583 47.8333 387.583 45.22V40.02C387.583 39.7133 387.67 39.4733 387.843 39.3C388.03 39.1267 388.283 39.04 388.603 39.04C388.91 39.04 389.15 39.1267 389.323 39.3C389.51 39.4733 389.603 39.7133 389.603 40.02V45.2C389.603 45.9867 389.763 46.5667 390.083 46.94C390.403 47.3133 390.896 47.5 391.563 47.5C392.35 47.5 392.976 47.2467 393.443 46.74C393.923 46.2333 394.163 45.56 394.163 44.72V40.02C394.163 39.7267 394.256 39.4933 394.443 39.32C394.63 39.1333 394.876 39.04 395.183 39.04ZM402.11 49.14C400.75 49.14 399.636 48.86 398.77 48.3C398.53 48.1533 398.356 48 398.25 47.84C398.156 47.68 398.11 47.5 398.11 47.3C398.11 47.0867 398.17 46.9067 398.29 46.76C398.41 46.6133 398.563 46.54 398.75 46.54C398.923 46.54 399.196 46.6467 399.57 46.86C399.97 47.0733 400.356 47.2467 400.73 47.38C401.116 47.5133 401.596 47.58 402.17 47.58C402.81 47.58 403.31 47.4667 403.67 47.24C404.03 47.0133 404.21 46.6933 404.21 46.28C404.21 46.0133 404.136 45.8 403.99 45.64C403.856 45.48 403.616 45.34 403.27 45.22C402.923 45.0867 402.41 44.9467 401.73 44.8C400.556 44.5467 399.71 44.2067 399.19 43.78C398.683 43.34 398.43 42.7467 398.43 42C398.43 41.4267 398.596 40.9133 398.93 40.46C399.263 39.9933 399.723 39.6333 400.31 39.38C400.896 39.1267 401.563 39 402.31 39C402.843 39 403.363 39.0733 403.87 39.22C404.376 39.3533 404.823 39.5533 405.21 39.82C405.65 40.1133 405.87 40.4533 405.87 40.84C405.87 41.0533 405.803 41.2333 405.67 41.38C405.55 41.5267 405.403 41.6 405.23 41.6C405.11 41.6 404.99 41.5733 404.87 41.52C404.75 41.4667 404.59 41.38 404.39 41.26C404.03 41.0467 403.69 40.88 403.37 40.76C403.063 40.64 402.676 40.58 402.21 40.58C401.65 40.58 401.196 40.7 400.85 40.94C400.516 41.18 400.35 41.5067 400.35 41.92C400.35 42.2933 400.503 42.5867 400.81 42.8C401.13 43 401.723 43.1933 402.59 43.38C403.483 43.5667 404.183 43.78 404.69 44.02C405.196 44.26 405.556 44.56 405.77 44.92C405.996 45.2667 406.11 45.7133 406.11 46.26C406.11 47.1267 405.743 47.8267 405.01 48.36C404.29 48.88 403.323 49.14 402.11 49.14ZM415.698 46.54C415.885 46.54 416.038 46.6133 416.158 46.76C416.278 46.9067 416.338 47.0933 416.338 47.32C416.338 47.7067 416.098 48.0333 415.618 48.3C415.152 48.5667 414.638 48.7733 414.078 48.92C413.532 49.0667 413.005 49.14 412.498 49.14C410.952 49.14 409.732 48.6933 408.838 47.8C407.945 46.8933 407.498 45.66 407.498 44.1C407.498 43.1 407.692 42.2133 408.078 41.44C408.478 40.6667 409.032 40.0667 409.738 39.64C410.458 39.2133 411.272 39 412.178 39C413.485 39 414.518 39.42 415.278 40.26C416.038 41.1 416.418 42.2333 416.418 43.66C416.418 44.1933 416.178 44.46 415.698 44.46H409.518C409.652 46.5267 410.645 47.56 412.498 47.56C412.992 47.56 413.418 47.4933 413.778 47.36C414.138 47.2267 414.518 47.0533 414.918 46.84C414.958 46.8133 415.065 46.76 415.238 46.68C415.425 46.5867 415.578 46.54 415.698 46.54ZM412.218 40.48C411.445 40.48 410.825 40.7267 410.358 41.22C409.892 41.7133 409.612 42.4067 409.518 43.3H414.678C414.638 42.3933 414.405 41.7 413.978 41.22C413.565 40.7267 412.978 40.48 412.218 40.48ZM423.464 39.04C424.104 39 424.424 39.2733 424.424 39.86C424.424 40.1533 424.351 40.3733 424.204 40.52C424.057 40.6667 423.804 40.7533 423.444 40.78L422.844 40.84C422.004 40.92 421.377 41.2133 420.964 41.72C420.564 42.2267 420.364 42.84 420.364 43.56V48.14C420.364 48.46 420.271 48.7 420.084 48.86C419.897 49.02 419.657 49.1 419.364 49.1C419.071 49.1 418.824 49.02 418.624 48.86C418.437 48.7 418.344 48.46 418.344 48.14V40C418.344 39.6933 418.437 39.46 418.624 39.3C418.824 39.1267 419.071 39.04 419.364 39.04C419.631 39.04 419.851 39.1267 420.024 39.3C420.211 39.46 420.304 39.6867 420.304 39.98V40.94C420.571 40.3533 420.957 39.9067 421.464 39.6C421.971 39.2933 422.544 39.1133 423.184 39.06L423.464 39.04ZM428.671 49.14C427.311 49.14 426.197 48.86 425.331 48.3C425.091 48.1533 424.917 48 424.811 47.84C424.717 47.68 424.671 47.5 424.671 47.3C424.671 47.0867 424.731 46.9067 424.851 46.76C424.971 46.6133 425.124 46.54 425.311 46.54C425.484 46.54 425.757 46.6467 426.131 46.86C426.531 47.0733 426.917 47.2467 427.291 47.38C427.677 47.5133 428.157 47.58 428.731 47.58C429.371 47.58 429.871 47.4667 430.231 47.24C430.591 47.0133 430.771 46.6933 430.771 46.28C430.771 46.0133 430.697 45.8 430.551 45.64C430.417 45.48 430.177 45.34 429.831 45.22C429.484 45.0867 428.971 44.9467 428.291 44.8C427.117 44.5467 426.271 44.2067 425.751 43.78C425.244 43.34 424.991 42.7467 424.991 42C424.991 41.4267 425.157 40.9133 425.491 40.46C425.824 39.9933 426.284 39.6333 426.871 39.38C427.457 39.1267 428.124 39 428.871 39C429.404 39 429.924 39.0733 430.431 39.22C430.937 39.3533 431.384 39.5533 431.771 39.82C432.211 40.1133 432.431 40.4533 432.431 40.84C432.431 41.0533 432.364 41.2333 432.231 41.38C432.111 41.5267 431.964 41.6 431.791 41.6C431.671 41.6 431.551 41.5733 431.431 41.52C431.311 41.4667 431.151 41.38 430.951 41.26C430.591 41.0467 430.251 40.88 429.931 40.76C429.624 40.64 429.237 40.58 428.771 40.58C428.211 40.58 427.757 40.7 427.411 40.94C427.077 41.18 426.911 41.5067 426.911 41.92C426.911 42.2933 427.064 42.5867 427.371 42.8C427.691 43 428.284 43.1933 429.151 43.38C430.044 43.5667 430.744 43.78 431.251 44.02C431.757 44.26 432.117 44.56 432.331 44.92C432.557 45.2667 432.671 45.7133 432.671 46.26C432.671 47.1267 432.304 47.8267 431.571 48.36C430.851 48.88 429.884 49.14 428.671 49.14Z" fill="black"/>
<path d="M351.139 214.34C351.313 213.967 351.599 213.78 351.999 213.78C352.266 213.78 352.506 213.873 352.719 214.06C352.933 214.233 353.039 214.447 353.039 214.7C353.039 214.793 353.006 214.92 352.939 215.08L347.299 227.44C347.206 227.653 347.059 227.82 346.859 227.94C346.659 228.06 346.446 228.12 346.219 228.12C345.993 228.12 345.773 228.06 345.559 227.94C345.359 227.82 345.213 227.653 345.119 227.44L339.499 215.08C339.433 214.92 339.399 214.793 339.399 214.7C339.399 214.433 339.506 214.213 339.719 214.04C339.946 213.867 340.193 213.78 340.459 213.78C340.873 213.78 341.166 213.967 341.339 214.34L346.239 225.32L351.139 214.34ZM360.83 225.54C361.017 225.54 361.17 225.613 361.29 225.76C361.41 225.907 361.47 226.093 361.47 226.32C361.47 226.707 361.23 227.033 360.75 227.3C360.283 227.567 359.77 227.773 359.21 227.92C358.663 228.067 358.137 228.14 357.63 228.14C356.083 228.14 354.863 227.693 353.97 226.8C353.077 225.893 352.63 224.66 352.63 223.1C352.63 222.1 352.823 221.213 353.21 220.44C353.61 219.667 354.163 219.067 354.87 218.64C355.59 218.213 356.403 218 357.31 218C358.617 218 359.65 218.42 360.41 219.26C361.17 220.1 361.55 221.233 361.55 222.66C361.55 223.193 361.31 223.46 360.83 223.46H354.65C354.783 225.527 355.777 226.56 357.63 226.56C358.123 226.56 358.55 226.493 358.91 226.36C359.27 226.227 359.65 226.053 360.05 225.84C360.09 225.813 360.197 225.76 360.37 225.68C360.557 225.587 360.71 225.54 360.83 225.54ZM357.35 219.48C356.577 219.48 355.957 219.727 355.49 220.22C355.023 220.713 354.743 221.407 354.65 222.3H359.81C359.77 221.393 359.537 220.7 359.11 220.22C358.697 219.727 358.11 219.48 357.35 219.48ZM368.596 218.04C369.236 218 369.556 218.273 369.556 218.86C369.556 219.153 369.482 219.373 369.336 219.52C369.189 219.667 368.936 219.753 368.576 219.78L367.976 219.84C367.136 219.92 366.509 220.213 366.096 220.72C365.696 221.227 365.496 221.84 365.496 222.56V227.14C365.496 227.46 365.402 227.7 365.216 227.86C365.029 228.02 364.789 228.1 364.496 228.1C364.202 228.1 363.956 228.02 363.756 227.86C363.569 227.7 363.476 227.46 363.476 227.14V219C363.476 218.693 363.569 218.46 363.756 218.3C363.956 218.127 364.202 218.04 364.496 218.04C364.762 218.04 364.982 218.127 365.156 218.3C365.342 218.46 365.436 218.687 365.436 218.98V219.94C365.702 219.353 366.089 218.907 366.596 218.6C367.102 218.293 367.676 218.113 368.316 218.06L368.596 218.04ZM373.802 228.14C372.442 228.14 371.329 227.86 370.462 227.3C370.222 227.153 370.049 227 369.942 226.84C369.849 226.68 369.802 226.5 369.802 226.3C369.802 226.087 369.862 225.907 369.982 225.76C370.102 225.613 370.256 225.54 370.442 225.54C370.616 225.54 370.889 225.647 371.262 225.86C371.662 226.073 372.049 226.247 372.422 226.38C372.809 226.513 373.289 226.58 373.862 226.58C374.502 226.58 375.002 226.467 375.362 226.24C375.722 226.013 375.902 225.693 375.902 225.28C375.902 225.013 375.829 224.8 375.682 224.64C375.549 224.48 375.309 224.34 374.962 224.22C374.616 224.087 374.102 223.947 373.422 223.8C372.249 223.547 371.402 223.207 370.882 222.78C370.376 222.34 370.122 221.747 370.122 221C370.122 220.427 370.289 219.913 370.622 219.46C370.956 218.993 371.416 218.633 372.002 218.38C372.589 218.127 373.256 218 374.002 218C374.536 218 375.056 218.073 375.562 218.22C376.069 218.353 376.516 218.553 376.902 218.82C377.342 219.113 377.562 219.453 377.562 219.84C377.562 220.053 377.496 220.233 377.362 220.38C377.242 220.527 377.096 220.6 376.922 220.6C376.802 220.6 376.682 220.573 376.562 220.52C376.442 220.467 376.282 220.38 376.082 220.26C375.722 220.047 375.382 219.88 375.062 219.76C374.756 219.64 374.369 219.58 373.902 219.58C373.342 219.58 372.889 219.7 372.542 219.94C372.209 220.18 372.042 220.507 372.042 220.92C372.042 221.293 372.196 221.587 372.502 221.8C372.822 222 373.416 222.193 374.282 222.38C375.176 222.567 375.876 222.78 376.382 223.02C376.889 223.26 377.249 223.56 377.462 223.92C377.689 224.267 377.802 224.713 377.802 225.26C377.802 226.127 377.436 226.827 376.702 227.36C375.982 227.88 375.016 228.14 373.802 228.14ZM380.771 228.1C380.477 228.1 380.231 228.02 380.031 227.86C379.844 227.7 379.751 227.46 379.751 227.14V219.02C379.751 218.7 379.844 218.46 380.031 218.3C380.231 218.127 380.477 218.04 380.771 218.04C381.064 218.04 381.304 218.127 381.491 218.3C381.677 218.46 381.771 218.7 381.771 219.02V227.14C381.771 227.46 381.677 227.7 381.491 227.86C381.304 228.02 381.064 228.1 380.771 228.1ZM380.771 216.08C380.384 216.08 380.077 215.973 379.851 215.76C379.624 215.547 379.511 215.267 379.511 214.92C379.511 214.573 379.624 214.3 379.851 214.1C380.077 213.887 380.384 213.78 380.771 213.78C381.144 213.78 381.444 213.887 381.671 214.1C381.911 214.3 382.031 214.573 382.031 214.92C382.031 215.267 381.917 215.547 381.691 215.76C381.464 215.973 381.157 216.08 380.771 216.08ZM388.535 228.14C387.575 228.14 386.728 227.933 385.995 227.52C385.275 227.107 384.715 226.52 384.315 225.76C383.928 224.987 383.735 224.093 383.735 223.08C383.735 222.053 383.928 221.16 384.315 220.4C384.715 219.627 385.275 219.033 385.995 218.62C386.728 218.207 387.575 218 388.535 218C389.495 218 390.335 218.207 391.055 218.62C391.788 219.033 392.348 219.627 392.735 220.4C393.135 221.16 393.335 222.053 393.335 223.08C393.335 224.093 393.135 224.987 392.735 225.76C392.348 226.52 391.788 227.107 391.055 227.52C390.335 227.933 389.495 228.14 388.535 228.14ZM388.535 226.54C389.428 226.54 390.108 226.247 390.575 225.66C391.055 225.073 391.295 224.213 391.295 223.08C391.295 221.96 391.055 221.107 390.575 220.52C390.095 219.92 389.415 219.62 388.535 219.62C387.655 219.62 386.975 219.92 386.495 220.52C386.015 221.107 385.775 221.96 385.775 223.08C385.775 224.213 386.008 225.073 386.475 225.66C386.955 226.247 387.641 226.54 388.535 226.54ZM400.544 218C402.877 218 404.044 219.313 404.044 221.94V227.14C404.044 227.447 403.95 227.687 403.764 227.86C403.59 228.02 403.344 228.1 403.024 228.1C402.717 228.1 402.47 228.013 402.284 227.84C402.11 227.667 402.024 227.433 402.024 227.14V222.04C402.024 221.213 401.857 220.607 401.524 220.22C401.204 219.833 400.697 219.64 400.004 219.64C399.19 219.64 398.537 219.893 398.044 220.4C397.55 220.907 397.304 221.587 397.304 222.44V227.14C397.304 227.433 397.21 227.667 397.024 227.84C396.85 228.013 396.61 228.1 396.304 228.1C395.997 228.1 395.75 228.013 395.564 227.84C395.377 227.667 395.284 227.433 395.284 227.14V219C395.284 218.72 395.377 218.493 395.564 218.32C395.764 218.133 396.01 218.04 396.304 218.04C396.597 218.04 396.83 218.127 397.004 218.3C397.177 218.473 397.264 218.7 397.264 218.98V219.8C397.584 219.213 398.03 218.767 398.604 218.46C399.177 218.153 399.824 218 400.544 218ZM420.02 220.74C420.834 220.967 421.46 221.373 421.9 221.96C422.354 222.547 422.58 223.28 422.58 224.16C422.58 225.373 422.16 226.32 421.32 227C420.494 227.667 419.334 228 417.84 228H412.74C412.42 228 412.167 227.913 411.98 227.74C411.807 227.553 411.72 227.307 411.72 227V214.9C411.72 214.593 411.807 214.353 411.98 214.18C412.167 213.993 412.42 213.9 412.74 213.9H417.62C419.074 213.9 420.207 214.227 421.02 214.88C421.847 215.52 422.26 216.42 422.26 217.58C422.26 218.327 422.06 218.973 421.66 219.52C421.274 220.067 420.727 220.473 420.02 220.74ZM413.74 220H417.3C419.274 220 420.26 219.253 420.26 217.76C420.26 217.013 420.014 216.46 419.52 216.1C419.04 215.74 418.3 215.56 417.3 215.56H413.74V220ZM417.62 226.34C418.647 226.34 419.4 226.153 419.88 225.78C420.36 225.407 420.6 224.827 420.6 224.04C420.6 223.24 420.354 222.647 419.86 222.26C419.38 221.86 418.634 221.66 417.62 221.66H413.74V226.34H417.62ZM425.715 220.62C425.355 220.62 425.048 220.5 424.795 220.26C424.555 220.02 424.435 219.713 424.435 219.34C424.435 218.967 424.555 218.66 424.795 218.42C425.048 218.167 425.355 218.04 425.715 218.04C426.075 218.04 426.375 218.167 426.615 218.42C426.855 218.66 426.975 218.967 426.975 219.34C426.975 219.713 426.855 220.02 426.615 220.26C426.375 220.5 426.075 220.62 425.715 220.62ZM425.715 228.1C425.355 228.1 425.048 227.98 424.795 227.74C424.555 227.5 424.435 227.193 424.435 226.82C424.435 226.447 424.555 226.14 424.795 225.9C425.048 225.647 425.355 225.52 425.715 225.52C426.075 225.52 426.375 225.647 426.615 225.9C426.855 226.14 426.975 226.447 426.975 226.82C426.975 227.193 426.855 227.5 426.615 227.74C426.375 227.98 426.075 228.1 425.715 228.1ZM349.747 254.3C350.067 254.3 350.307 254.373 350.467 254.52C350.627 254.667 350.707 254.873 350.707 255.14C350.707 255.713 350.387 256 349.747 256H343.067C342.414 256 342.087 255.713 342.087 255.14C342.087 254.873 342.167 254.667 342.327 254.52C342.5 254.373 342.747 254.3 343.067 254.3H345.367V244.32L343.307 245.62C343.174 245.7 343.04 245.74 342.907 245.74C342.68 245.74 342.48 245.64 342.307 245.44C342.147 245.24 342.067 245.013 342.067 244.76C342.067 244.453 342.2 244.213 342.467 244.04L345.547 242.08C345.854 241.893 346.147 241.8 346.427 241.8C346.72 241.8 346.96 241.893 347.147 242.08C347.334 242.267 347.427 242.52 347.427 242.84V254.3H349.747ZM357.519 256.16C355.879 256.16 354.626 255.547 353.759 254.32C352.906 253.093 352.479 251.307 352.479 248.96C352.479 246.6 352.906 244.807 353.759 243.58C354.626 242.353 355.879 241.74 357.519 241.74C359.159 241.74 360.406 242.353 361.259 243.58C362.126 244.793 362.559 246.58 362.559 248.94C362.559 251.3 362.126 253.093 361.259 254.32C360.406 255.547 359.159 256.16 357.519 256.16ZM357.519 254.5C358.546 254.5 359.299 254.053 359.779 253.16C360.259 252.267 360.499 250.86 360.499 248.94C360.499 247.02 360.259 245.62 359.779 244.74C359.299 243.847 358.546 243.4 357.519 243.4C356.492 243.4 355.739 243.847 355.259 244.74C354.779 245.62 354.539 247.02 354.539 248.94C354.539 250.847 354.779 252.253 355.259 253.16C355.739 254.053 356.492 254.5 357.519 254.5ZM369.211 256.16C367.571 256.16 366.318 255.547 365.451 254.32C364.598 253.093 364.171 251.307 364.171 248.96C364.171 246.6 364.598 244.807 365.451 243.58C366.318 242.353 367.571 241.74 369.211 241.74C370.851 241.74 372.098 242.353 372.951 243.58C373.818 244.793 374.251 246.58 374.251 248.94C374.251 251.3 373.818 253.093 372.951 254.32C372.098 255.547 370.851 256.16 369.211 256.16ZM369.211 254.5C370.238 254.5 370.991 254.053 371.471 253.16C371.951 252.267 372.191 250.86 372.191 248.94C372.191 247.02 371.951 245.62 371.471 244.74C370.991 243.847 370.238 243.4 369.211 243.4C368.185 243.4 367.431 243.847 366.951 244.74C366.471 245.62 366.231 247.02 366.231 248.94C366.231 250.847 366.471 252.253 366.951 253.16C367.431 254.053 368.185 254.5 369.211 254.5ZM388.837 246.04C389.144 246.04 389.384 246.127 389.557 246.3C389.744 246.473 389.837 246.713 389.837 247.02V255.16C389.837 255.44 389.744 255.667 389.557 255.84C389.37 256.013 389.124 256.1 388.817 256.1C388.537 256.1 388.31 256.02 388.137 255.86C387.964 255.687 387.877 255.46 387.877 255.18V254.42C387.57 254.98 387.144 255.407 386.597 255.7C386.064 255.993 385.464 256.14 384.797 256.14C382.424 256.14 381.237 254.833 381.237 252.22V247.02C381.237 246.713 381.324 246.473 381.497 246.3C381.684 246.127 381.937 246.04 382.257 246.04C382.564 246.04 382.804 246.127 382.977 246.3C383.164 246.473 383.257 246.713 383.257 247.02V252.2C383.257 252.987 383.417 253.567 383.737 253.94C384.057 254.313 384.55 254.5 385.217 254.5C386.004 254.5 386.63 254.247 387.097 253.74C387.577 253.233 387.817 252.56 387.817 251.72V247.02C387.817 246.727 387.91 246.493 388.097 246.32C388.284 246.133 388.53 246.04 388.837 246.04ZM395.764 256.14C394.404 256.14 393.29 255.86 392.424 255.3C392.184 255.153 392.01 255 391.904 254.84C391.81 254.68 391.764 254.5 391.764 254.3C391.764 254.087 391.824 253.907 391.944 253.76C392.064 253.613 392.217 253.54 392.404 253.54C392.577 253.54 392.85 253.647 393.224 253.86C393.624 254.073 394.01 254.247 394.384 254.38C394.77 254.513 395.25 254.58 395.824 254.58C396.464 254.58 396.964 254.467 397.324 254.24C397.684 254.013 397.864 253.693 397.864 253.28C397.864 253.013 397.79 252.8 397.644 252.64C397.51 252.48 397.27 252.34 396.924 252.22C396.577 252.087 396.064 251.947 395.384 251.8C394.21 251.547 393.364 251.207 392.844 250.78C392.337 250.34 392.084 249.747 392.084 249C392.084 248.427 392.25 247.913 392.584 247.46C392.917 246.993 393.377 246.633 393.964 246.38C394.55 246.127 395.217 246 395.964 246C396.497 246 397.017 246.073 397.524 246.22C398.03 246.353 398.477 246.553 398.864 246.82C399.304 247.113 399.524 247.453 399.524 247.84C399.524 248.053 399.457 248.233 399.324 248.38C399.204 248.527 399.057 248.6 398.884 248.6C398.764 248.6 398.644 248.573 398.524 248.52C398.404 248.467 398.244 248.38 398.044 248.26C397.684 248.047 397.344 247.88 397.024 247.76C396.717 247.64 396.33 247.58 395.864 247.58C395.304 247.58 394.85 247.7 394.504 247.94C394.17 248.18 394.004 248.507 394.004 248.92C394.004 249.293 394.157 249.587 394.464 249.8C394.784 250 395.377 250.193 396.244 250.38C397.137 250.567 397.837 250.78 398.344 251.02C398.85 251.26 399.21 251.56 399.424 251.92C399.65 252.267 399.764 252.713 399.764 253.26C399.764 254.127 399.397 254.827 398.664 255.36C397.944 255.88 396.977 256.14 395.764 256.14ZM409.352 253.54C409.539 253.54 409.692 253.613 409.812 253.76C409.932 253.907 409.992 254.093 409.992 254.32C409.992 254.707 409.752 255.033 409.272 255.3C408.805 255.567 408.292 255.773 407.732 255.92C407.185 256.067 406.659 256.14 406.152 256.14C404.605 256.14 403.385 255.693 402.492 254.8C401.599 253.893 401.152 252.66 401.152 251.1C401.152 250.1 401.345 249.213 401.732 248.44C402.132 247.667 402.685 247.067 403.392 246.64C404.112 246.213 404.925 246 405.832 246C407.139 246 408.172 246.42 408.932 247.26C409.692 248.1 410.072 249.233 410.072 250.66C410.072 251.193 409.832 251.46 409.352 251.46H403.172C403.305 253.527 404.299 254.56 406.152 254.56C406.645 254.56 407.072 254.493 407.432 254.36C407.792 254.227 408.172 254.053 408.572 253.84C408.612 253.813 408.719 253.76 408.892 253.68C409.079 253.587 409.232 253.54 409.352 253.54ZM405.872 247.48C405.099 247.48 404.479 247.727 404.012 248.22C403.545 248.713 403.265 249.407 403.172 250.3H408.332C408.292 249.393 408.059 248.7 407.632 248.22C407.219 247.727 406.632 247.48 405.872 247.48ZM417.118 246.04C417.758 246 418.078 246.273 418.078 246.86C418.078 247.153 418.005 247.373 417.858 247.52C417.711 247.667 417.458 247.753 417.098 247.78L416.498 247.84C415.658 247.92 415.031 248.213 414.618 248.72C414.218 249.227 414.018 249.84 414.018 250.56V255.14C414.018 255.46 413.925 255.7 413.738 255.86C413.551 256.02 413.311 256.1 413.018 256.1C412.725 256.1 412.478 256.02 412.278 255.86C412.091 255.7 411.998 255.46 411.998 255.14V247C411.998 246.693 412.091 246.46 412.278 246.3C412.478 246.127 412.725 246.04 413.018 246.04C413.285 246.04 413.505 246.127 413.678 246.3C413.865 246.46 413.958 246.687 413.958 246.98V247.94C414.225 247.353 414.611 246.907 415.118 246.6C415.625 246.293 416.198 246.113 416.838 246.06L417.118 246.04ZM422.325 256.14C420.965 256.14 419.851 255.86 418.985 255.3C418.745 255.153 418.571 255 418.465 254.84C418.371 254.68 418.325 254.5 418.325 254.3C418.325 254.087 418.385 253.907 418.505 253.76C418.625 253.613 418.778 253.54 418.965 253.54C419.138 253.54 419.411 253.647 419.785 253.86C420.185 254.073 420.571 254.247 420.945 254.38C421.331 254.513 421.811 254.58 422.385 254.58C423.025 254.58 423.525 254.467 423.885 254.24C424.245 254.013 424.425 253.693 424.425 253.28C424.425 253.013 424.351 252.8 424.205 252.64C424.071 252.48 423.831 252.34 423.485 252.22C423.138 252.087 422.625 251.947 421.945 251.8C420.771 251.547 419.925 251.207 419.405 250.78C418.898 250.34 418.645 249.747 418.645 249C418.645 248.427 418.811 247.913 419.145 247.46C419.478 246.993 419.938 246.633 420.525 246.38C421.111 246.127 421.778 246 422.525 246C423.058 246 423.578 246.073 424.085 246.22C424.591 246.353 425.038 246.553 425.425 246.82C425.865 247.113 426.085 247.453 426.085 247.84C426.085 248.053 426.018 248.233 425.885 248.38C425.765 248.527 425.618 248.6 425.445 248.6C425.325 248.6 425.205 248.573 425.085 248.52C424.965 248.467 424.805 248.38 424.605 248.26C424.245 248.047 423.905 247.88 423.585 247.76C423.278 247.64 422.891 247.58 422.425 247.58C421.865 247.58 421.411 247.7 421.065 247.94C420.731 248.18 420.565 248.507 420.565 248.92C420.565 249.293 420.718 249.587 421.025 249.8C421.345 250 421.938 250.193 422.805 250.38C423.698 250.567 424.398 250.78 424.905 251.02C425.411 251.26 425.771 251.56 425.985 251.92C426.211 252.267 426.325 252.713 426.325 253.26C426.325 254.127 425.958 254.827 425.225 255.36C424.505 255.88 423.538 256.14 422.325 256.14Z" fill="black"/>
<path d="M26 150.5L137.5 74L192.5 109.5L312.5 27.5" stroke="#FF0000" stroke-width="7" stroke-linecap="round" stroke-linejoin="round"/>
<path d="M26 235L137.5 202.5H192.5L312.5 235" stroke="#0094FF" stroke-width="7" stroke-linecap="round" stroke-linejoin="round"/>
<circle cx="312.5" cy="27.5" r="10.5" fill="#FF0000"/>
<circle cx="312.5" cy="234.5" r="10.5" fill="#0094FF"/>
<path d="M474.475 282.475C475.842 281.108 475.842 278.892 474.475 277.525L452.201 255.251C450.834 253.884 448.618 253.884 447.251 255.251C445.884 256.618 445.884 258.834 447.251 260.201L467.05 280L447.251 299.799C445.884 301.166 445.884 303.382 447.251 304.749C448.618 306.116 450.834 306.116 452.201 304.749L474.475 282.475ZM26 280H22.5C22.5 281.933 24.067 283.5 26 283.5V280ZM28.4749 4.52513C27.108 3.15829 24.892 3.15829 23.5251 4.52513L1.25126 26.799C-0.115572 28.1658 -0.115572 30.3819 1.25126 31.7487C2.6181 33.1156 4.83418 33.1156 6.20101 31.7487L26 11.9497L45.799 31.7487C47.1658 33.1156 49.3819 33.1156 50.7487 31.7487C52.1156 30.3819 52.1156 28.1658 50.7487 26.799L28.4749 4.52513ZM472 276.5H26V283.5H472V276.5ZM29.5 280V7H22.5V280H29.5Z" fill="black"/>
</svg>
