<svg width="36" height="163" viewBox="0 0 36 163" fill="none" xmlns="http://www.w3.org/2000/svg">
<rect x="7" y="43" width="22" height="113" rx="11" fill="#FFE2C7"/>
<rect x="7" y="7" width="22" height="29" rx="11" fill="#FFE2C7"/>
<mask id="path-3-outside-1" maskUnits="userSpaceOnUse" x="0" y="0" width="36" height="163" fill="black">
<rect fill="white" width="36" height="163"/>
<path fill-rule="evenodd" clip-rule="evenodd" d="M18 7C11.9249 7 7 11.9249 7 18V25C7 31.0751 11.9249 36 18 36C24.0751 36 29 31.0751 29 25V18C29 11.9249 24.0751 7 18 7ZM18 43C11.9249 43 7 47.9249 7 54V145C7 151.075 11.9249 156 18 156C24.0751 156 29 151.075 29 145V54C29 47.9249 24.0751 43 18 43Z"/>
</mask>
<path fill-rule="evenodd" clip-rule="evenodd" d="M18 7C11.9249 7 7 11.9249 7 18V25C7 31.0751 11.9249 36 18 36C24.0751 36 29 31.0751 29 25V18C29 11.9249 24.0751 7 18 7ZM18 43C11.9249 43 7 47.9249 7 54V145C7 151.075 11.9249 156 18 156C24.0751 156 29 151.075 29 145V54C29 47.9249 24.0751 43 18 43Z" fill="#FFE2C7"/>
<path d="M14 18C14 15.7909 15.7909 14 18 14V0C8.05887 0 0 8.05888 0 18H14ZM14 25V18H0V25H14ZM18 29C15.7909 29 14 27.2091 14 25H0C0 34.9411 8.05888 43 18 43V29ZM22 25C22 27.2091 20.2091 29 18 29V43C27.9411 43 36 34.9411 36 25H22ZM22 18V25H36V18H22ZM18 14C20.2091 14 22 15.7909 22 18H36C36 8.05887 27.9411 0 18 0V14ZM14 54C14 51.7909 15.7909 50 18 50V36C8.05888 36 0 44.0589 0 54H14ZM14 145V54H0V145H14ZM18 149C15.7909 149 14 147.209 14 145H0C0 154.941 8.05888 163 18 163V149ZM22 145C22 147.209 20.2091 149 18 149V163C27.9411 163 36 154.941 36 145H22ZM22 54V145H36V54H22ZM18 50C20.2091 50 22 51.7909 22 54H36C36 44.0589 27.9411 36 18 36V50Z" fill="black" mask="url(#path-3-outside-1)"/>
</svg>
