<svg width="749" height="211" viewBox="0 0 749 211" fill="none" xmlns="http://www.w3.org/2000/svg">
<rect x="25" y="17" width="58" height="96" rx="29" fill="black"/>
<rect x="7" y="96" width="93" height="108" rx="6" fill="#304967"/>
<mask id="path-3-outside-1" maskUnits="userSpaceOnUse" x="0" y="10" width="107" height="201" fill="black">
<rect fill="white" y="10" width="107" height="201"/>
<path fill-rule="evenodd" clip-rule="evenodd" d="M54 17C37.9837 17 25 29.9837 25 46V84C25 88.2798 25.9271 92.3431 27.5914 96H13C9.68629 96 7 98.6863 7 102V198C7 201.314 9.68629 204 13 204H94C97.3137 204 100 201.314 100 198V102C100 98.6863 97.3137 96 94 96H80.4085C82.0729 92.3431 83 88.2798 83 84V46C83 29.9837 70.0163 17 54 17Z"/>
</mask>
<path d="M27.5914 96V103H38.4682L33.9626 93.1003L27.5914 96ZM80.4085 96L74.0374 93.1003L69.5318 103H80.4085V96ZM32 46C32 33.8497 41.8497 24 54 24V10C34.1178 10 18 26.1177 18 46H32ZM32 84V46H18V84H32ZM33.9626 93.1003C32.7044 90.3358 32 87.2596 32 84H18C18 89.3 19.1498 94.3505 21.2203 98.8997L33.9626 93.1003ZM13 103H27.5914V89H13V103ZM14 102C14 102.552 13.5523 103 13 103V89C5.8203 89 0 94.8203 0 102H14ZM14 198V102H0V198H14ZM13 197C13.5523 197 14 197.448 14 198H0C0 205.18 5.8203 211 13 211V197ZM94 197H13V211H94V197ZM93 198C93 197.448 93.4477 197 94 197V211C101.18 211 107 205.18 107 198H93ZM93 102V198H107V102H93ZM94 103C93.4477 103 93 102.552 93 102H107C107 94.8203 101.18 89 94 89V103ZM80.4085 103H94V89H80.4085V103ZM76 84C76 87.2596 75.2956 90.3358 74.0374 93.1003L86.7797 98.8997C88.8502 94.3505 90 89.3 90 84H76ZM76 46V84H90V46H76ZM54 24C66.1503 24 76 33.8497 76 46H90C90 26.1178 73.8823 10 54 10V24Z" fill="black" mask="url(#path-3-outside-1)"/>
<rect x="239" y="17" width="58" height="96" rx="29" fill="#A5A5A5"/>
<rect x="221" y="96" width="93" height="108" rx="6" fill="#304967"/>
<circle cx="256.5" cy="27.5" r="20.5" fill="#A5A5A5"/>
<circle cx="277.5" cy="27.5" r="20.5" fill="#A5A5A5"/>
<circle cx="236.5" cy="44.5" r="20.5" fill="#A5A5A5"/>
<circle cx="297.5" cy="44.5" r="20.5" fill="#A5A5A5"/>
<circle cx="241.5" cy="68.5" r="20.5" fill="#A5A5A5"/>
<circle cx="293.5" cy="68.5" r="20.5" fill="#A5A5A5"/>
<mask id="path-13-outside-2" maskUnits="userSpaceOnUse" x="209" y="0" width="116" height="211" fill="black">
<rect fill="white" x="209" width="116" height="211"/>
<path fill-rule="evenodd" clip-rule="evenodd" d="M267 9.88952C270.071 8.05449 273.662 7 277.5 7C287.629 7 296.042 14.346 297.703 24.001C308.931 24.1097 318 33.2458 318 44.5C318 50.2704 315.616 55.484 311.779 59.2094C313.199 61.9984 314 65.1557 314 68.5C314 78.7645 306.456 87.2669 296.61 88.7656C296.191 91.3034 295.442 93.73 294.409 96H308C311.314 96 314 98.6863 314 102V198C314 201.314 311.314 204 308 204H227C223.686 204 221 201.314 221 198V102C221 98.6863 223.686 96 227 96H241.591C240.576 93.7686 239.835 91.3858 239.411 88.8949C229.071 87.8485 221 79.1167 221 68.5C221 65.4085 221.684 62.4768 222.91 59.8481C218.671 56.0925 216 50.6082 216 44.5C216 33.2458 225.069 24.1097 236.297 24.001C237.958 14.346 246.371 7 256.5 7C260.338 7 263.929 8.05449 267 9.88952Z"/>
</mask>
<path d="M267 9.88952L263.409 15.8985L267 18.0439L270.591 15.8985L267 9.88952ZM297.703 24.001L290.804 25.1874L291.794 30.9441L297.635 31.0007L297.703 24.001ZM311.779 59.2094L306.903 54.1871L303.198 57.7844L305.541 62.3861L311.779 59.2094ZM296.61 88.7656L295.557 81.8453L290.533 82.61L289.704 87.6238L296.61 88.7656ZM294.409 96L288.037 93.1003L283.532 103H294.409V96ZM241.591 96V103H252.468L247.963 93.1003L241.591 96ZM239.411 88.8949L246.312 87.7218L245.419 82.4671L240.116 81.9305L239.411 88.8949ZM222.91 59.8481L229.254 62.8059L231.461 58.0726L227.552 54.6091L222.91 59.8481ZM236.297 24.001L236.365 31.0007L242.206 30.9441L243.196 25.1874L236.297 24.001ZM277.5 0C272.363 0 267.536 1.41498 263.409 3.88051L270.591 15.8985C272.606 14.694 274.961 14 277.5 14V0ZM304.601 22.8146C302.373 9.85773 291.095 0 277.5 0V14C284.163 14 289.711 18.8343 290.804 25.1874L304.601 22.8146ZM325 44.5C325 29.4025 312.835 17.1471 297.77 17.0013L297.635 31.0007C305.028 31.0722 311 37.0891 311 44.5H325ZM316.655 64.2317C321.794 59.2426 325 52.2396 325 44.5H311C311 48.3013 309.438 51.7255 306.903 54.1871L316.655 64.2317ZM305.541 62.3861C306.472 64.2139 307 66.2851 307 68.5H321C321 64.0262 319.926 59.7828 318.016 56.0327L305.541 62.3861ZM307 68.5C307 75.2531 302.035 80.8593 295.557 81.8453L297.664 95.6859C310.878 93.6746 321 82.2758 321 68.5H307ZM300.78 98.8997C302.064 96.078 302.995 93.061 303.517 89.9073L289.704 87.6238C289.386 89.5458 288.819 91.3819 288.037 93.1003L300.78 98.8997ZM308 89H294.409V103H308V89ZM321 102C321 94.8203 315.18 89 308 89V103C307.448 103 307 102.552 307 102H321ZM321 198V102H307V198H321ZM308 211C315.18 211 321 205.18 321 198H307C307 197.448 307.448 197 308 197V211ZM227 211H308V197H227V211ZM214 198C214 205.18 219.82 211 227 211V197C227.552 197 228 197.448 228 198H214ZM214 102V198H228V102H214ZM227 89C219.82 89 214 94.8203 214 102H228C228 102.552 227.552 103 227 103V89ZM241.591 89H227V103H241.591V89ZM232.51 90.068C233.037 93.1635 233.958 96.126 235.22 98.8997L247.963 93.1003C247.194 91.4111 246.633 89.6081 246.312 87.7218L232.51 90.068ZM214 68.5C214 82.7463 224.827 94.4549 238.707 95.8593L240.116 81.9305C233.314 81.2421 228 75.4872 228 68.5H214ZM216.565 56.8904C214.917 60.4262 214 64.3657 214 68.5H228C228 66.4513 228.452 64.5274 229.254 62.8059L216.565 56.8904ZM209 44.5C209 52.6949 212.593 60.0593 218.267 65.0872L227.552 54.6091C224.75 52.1257 223 48.5216 223 44.5H209ZM236.23 17.0013C221.165 17.1471 209 29.4025 209 44.5H223C223 37.0891 228.972 31.0722 236.365 31.0007L236.23 17.0013ZM256.5 0C242.905 0 231.627 9.85772 229.399 22.8146L243.196 25.1874C244.289 18.8343 249.837 14 256.5 14V0ZM270.591 3.88051C266.464 1.41498 261.637 0 256.5 0V14C259.039 14 261.394 14.694 263.409 15.8985L270.591 3.88051Z" fill="black" mask="url(#path-13-outside-2)"/>
<rect x="125" y="48" width="13" height="20" rx="6.5" fill="#C17A38"/>
<rect x="184" y="48" width="13" height="20" rx="6.5" fill="#C17A38"/>
<rect x="140" y="47" width="42" height="70" rx="21" fill="#C17A38"/>
<rect x="132" y="17" width="58" height="70" rx="29" fill="#984900"/>
<rect x="114" y="96" width="93" height="108" rx="6" fill="#304967"/>
<mask id="path-20-outside-3" maskUnits="userSpaceOnUse" x="107" y="10" width="107" height="201" fill="black">
<rect fill="white" x="107" y="10" width="107" height="201"/>
<path fill-rule="evenodd" clip-rule="evenodd" d="M132 46C132 29.9837 144.984 17 161 17C177.016 17 190 29.9837 190 46V48.0189C190.165 48.0064 190.332 48 190.5 48C194.09 48 197 50.9101 197 54.5V61.5C197 65.0899 194.09 68 190.5 68C189.75 68 189.03 67.873 188.359 67.6393C186.984 71.5434 184.797 75.0645 182 78.0001V96H201C204.314 96 207 98.6863 207 102V198C207 201.314 204.314 204 201 204H120C116.686 204 114 201.314 114 198V102C114 98.6863 116.686 96 120 96H140V78.0001C137.203 75.0645 135.016 71.5434 133.641 67.6393C132.97 67.873 132.25 68 131.5 68C127.91 68 125 65.0899 125 61.5V54.5C125 50.9101 127.91 48 131.5 48C131.668 48 131.835 48.0064 132 48.0189V46Z"/>
</mask>
<path d="M190 48.0189H183V55.5717L190.531 54.9988L190 48.0189ZM188.359 67.6393L190.664 61.0295L184.076 58.7327L181.757 65.3132L188.359 67.6393ZM182 78.0001L176.932 73.1717L175 75.1995V78.0001H182ZM182 96H175V103H182V96ZM140 96V103H147V96H140ZM140 78.0001H147V75.1995L145.068 73.1717L140 78.0001ZM133.641 67.6393L140.243 65.3132L137.924 58.7327L131.336 61.0295L133.641 67.6393ZM132 48.0189L131.469 54.9988L139 55.5717V48.0189H132ZM161 10C141.118 10 125 26.1177 125 46H139C139 33.8497 148.85 24 161 24V10ZM197 46C197 26.1177 180.882 10 161 10V24C173.15 24 183 33.8497 183 46H197ZM197 48.0189V46H183V48.0189H197ZM190.531 54.9988C190.52 54.9997 190.509 55 190.5 55V41C190.154 41 189.811 41.0131 189.469 41.0391L190.531 54.9988ZM190.5 55C190.224 55 190 54.7761 190 54.5H204C204 47.0442 197.956 41 190.5 41V55ZM190 54.5V61.5H204V54.5H190ZM190 61.5C190 61.2239 190.224 61 190.5 61V75C197.956 75 204 68.9558 204 61.5H190ZM190.5 61C190.545 61 190.603 61.0084 190.664 61.0295L186.055 74.2492C187.456 74.7376 188.955 75 190.5 75V61ZM187.068 82.8284C190.535 79.1899 193.251 74.8198 194.962 69.9654L181.757 65.3132C180.717 68.2669 179.059 70.9391 176.932 73.1717L187.068 82.8284ZM189 96V78.0001H175V96H189ZM201 89H182V103H201V89ZM214 102C214 94.8203 208.18 89 201 89V103C200.448 103 200 102.552 200 102H214ZM214 198V102H200V198H214ZM201 211C208.18 211 214 205.18 214 198H200C200 197.448 200.448 197 201 197V211ZM120 211H201V197H120V211ZM107 198C107 205.18 112.82 211 120 211V197C120.552 197 121 197.448 121 198H107ZM107 102V198H121V102H107ZM120 89C112.82 89 107 94.8203 107 102H121C121 102.552 120.552 103 120 103V89ZM140 89H120V103H140V89ZM133 78.0001V96H147V78.0001H133ZM127.038 69.9654C128.749 74.8198 131.465 79.1899 134.932 82.8284L145.068 73.1717C142.941 70.9391 141.283 68.2669 140.243 65.3132L127.038 69.9654ZM131.5 75C133.045 75 134.544 74.7376 135.945 74.2492L131.336 61.0295C131.397 61.0084 131.455 61 131.5 61V75ZM118 61.5C118 68.9558 124.044 75 131.5 75V61C131.776 61 132 61.2239 132 61.5H118ZM118 54.5V61.5H132V54.5H118ZM131.5 41C124.044 41 118 47.0442 118 54.5H132C132 54.7761 131.776 55 131.5 55V41ZM132.531 41.0391C132.189 41.0131 131.846 41 131.5 41V55C131.491 55 131.48 54.9997 131.469 54.9988L132.531 41.0391ZM125 46V48.0189H139V46H125Z" fill="black" mask="url(#path-20-outside-3)"/>
<rect x="446" y="48" width="13" height="20" rx="6.5" fill="#F4C498"/>
<rect x="505" y="48" width="13" height="20" rx="6.5" fill="#F4C498"/>
<rect x="461" y="47" width="42" height="70" rx="21" fill="#F4C498"/>
<rect x="453" y="17" width="58" height="70" rx="29" fill="#DF3A1F"/>
<rect x="435" y="96" width="93" height="108" rx="6" fill="#304967"/>
<mask id="path-27-outside-4" maskUnits="userSpaceOnUse" x="428" y="10" width="107" height="201" fill="black">
<rect fill="white" x="428" y="10" width="107" height="201"/>
<path fill-rule="evenodd" clip-rule="evenodd" d="M453 46C453 29.9837 465.984 17 482 17C498.016 17 511 29.9837 511 46V48.0189C511.165 48.0064 511.332 48 511.5 48C515.09 48 518 50.9101 518 54.5V61.5C518 65.0899 515.09 68 511.5 68C510.75 68 510.03 67.873 509.359 67.6393C507.984 71.5434 505.797 75.0645 503 78.0001V96H522C525.314 96 528 98.6863 528 102V198C528 201.314 525.314 204 522 204H441C437.686 204 435 201.314 435 198V102C435 98.6863 437.686 96 441 96H461V78.0001C458.203 75.0645 456.016 71.5434 454.641 67.6393C453.97 67.873 453.25 68 452.5 68C448.91 68 446 65.0899 446 61.5V54.5C446 50.9101 448.91 48 452.5 48C452.668 48 452.835 48.0064 453 48.0189V46Z"/>
</mask>
<path d="M511 48.0189H504V55.5717L511.531 54.9988L511 48.0189ZM509.359 67.6393L511.664 61.0295L505.076 58.7327L502.757 65.3132L509.359 67.6393ZM503 78.0001L497.932 73.1717L496 75.1995V78.0001H503ZM503 96H496V103H503V96ZM461 96V103H468V96H461ZM461 78.0001H468V75.1995L466.068 73.1717L461 78.0001ZM454.641 67.6393L461.243 65.3132L458.924 58.7327L452.336 61.0295L454.641 67.6393ZM453 48.0189L452.469 54.9988L460 55.5717V48.0189H453ZM482 10C462.118 10 446 26.1177 446 46H460C460 33.8497 469.85 24 482 24V10ZM518 46C518 26.1177 501.882 10 482 10V24C494.15 24 504 33.8497 504 46H518ZM518 48.0189V46H504V48.0189H518ZM511.531 54.9988C511.52 54.9997 511.509 55 511.5 55V41C511.154 41 510.811 41.0131 510.469 41.0391L511.531 54.9988ZM511.5 55C511.224 55 511 54.7761 511 54.5H525C525 47.0442 518.956 41 511.5 41V55ZM511 54.5V61.5H525V54.5H511ZM511 61.5C511 61.2239 511.224 61 511.5 61V75C518.956 75 525 68.9558 525 61.5H511ZM511.5 61C511.545 61 511.603 61.0084 511.664 61.0295L507.055 74.2492C508.456 74.7376 509.955 75 511.5 75V61ZM508.068 82.8284C511.535 79.1899 514.251 74.8198 515.962 69.9654L502.757 65.3132C501.717 68.2669 500.059 70.9391 497.932 73.1717L508.068 82.8284ZM510 96V78.0001H496V96H510ZM522 89H503V103H522V89ZM535 102C535 94.8203 529.18 89 522 89V103C521.448 103 521 102.552 521 102H535ZM535 198V102H521V198H535ZM522 211C529.18 211 535 205.18 535 198H521C521 197.448 521.448 197 522 197V211ZM441 211H522V197H441V211ZM428 198C428 205.18 433.82 211 441 211V197C441.552 197 442 197.448 442 198H428ZM428 102V198H442V102H428ZM441 89C433.82 89 428 94.8203 428 102H442C442 102.552 441.552 103 441 103V89ZM461 89H441V103H461V89ZM454 78.0001V96H468V78.0001H454ZM448.038 69.9654C449.749 74.8198 452.465 79.1899 455.932 82.8284L466.068 73.1717C463.941 70.9391 462.283 68.2669 461.243 65.3132L448.038 69.9654ZM452.5 75C454.045 75 455.544 74.7376 456.945 74.2492L452.336 61.0295C452.397 61.0084 452.455 61 452.5 61V75ZM439 61.5C439 68.9558 445.044 75 452.5 75V61C452.776 61 453 61.2239 453 61.5H439ZM439 54.5V61.5H453V54.5H439ZM452.5 41C445.044 41 439 47.0442 439 54.5H453C453 54.7761 452.776 55 452.5 55V41ZM453.531 41.0391C453.189 41.0131 452.846 41 452.5 41V55C452.491 55 452.48 54.9997 452.469 54.9988L453.531 41.0391ZM446 46V48.0189H460V46H446Z" fill="black" mask="url(#path-27-outside-4)"/>
<rect x="346" y="17" width="58" height="96" rx="29" fill="black"/>
<rect x="328" y="96" width="93" height="108" rx="6" fill="#304967"/>
<circle cx="363.5" cy="27.5" r="20.5" fill="black"/>
<circle cx="384.5" cy="27.5" r="20.5" fill="black"/>
<circle cx="343.5" cy="44.5" r="20.5" fill="black"/>
<circle cx="404.5" cy="44.5" r="20.5" fill="black"/>
<circle cx="348.5" cy="68.5" r="20.5" fill="black"/>
<circle cx="400.5" cy="68.5" r="20.5" fill="black"/>
<mask id="path-37-outside-5" maskUnits="userSpaceOnUse" x="316" y="0" width="116" height="211" fill="black">
<rect fill="white" x="316" width="116" height="211"/>
<path fill-rule="evenodd" clip-rule="evenodd" d="M374 9.88952C377.071 8.05449 380.662 7 384.5 7C394.629 7 403.042 14.346 404.703 24.001C415.931 24.1097 425 33.2458 425 44.5C425 50.2704 422.616 55.484 418.779 59.2094C420.199 61.9984 421 65.1557 421 68.5C421 78.7645 413.456 87.2669 403.61 88.7656C403.191 91.3034 402.442 93.73 401.409 96H415C418.314 96 421 98.6863 421 102V198C421 201.314 418.314 204 415 204H334C330.686 204 328 201.314 328 198V102C328 98.6863 330.686 96 334 96H348.591C347.576 93.7686 346.835 91.3858 346.411 88.8949C336.071 87.8485 328 79.1167 328 68.5C328 65.4085 328.684 62.4768 329.91 59.8481C325.671 56.0925 323 50.6082 323 44.5C323 33.2458 332.069 24.1097 343.297 24.001C344.958 14.346 353.371 7 363.5 7C367.338 7 370.929 8.05449 374 9.88952Z"/>
</mask>
<path d="M374 9.88952L370.409 15.8985L374 18.0439L377.591 15.8985L374 9.88952ZM404.703 24.001L397.804 25.1874L398.794 30.9441L404.635 31.0007L404.703 24.001ZM418.779 59.2094L413.903 54.1871L410.198 57.7844L412.541 62.3861L418.779 59.2094ZM403.61 88.7656L402.557 81.8453L397.533 82.61L396.704 87.6238L403.61 88.7656ZM401.409 96L395.037 93.1003L390.532 103H401.409V96ZM348.591 96V103H359.468L354.963 93.1003L348.591 96ZM346.411 88.8949L353.312 87.7218L352.419 82.4671L347.116 81.9305L346.411 88.8949ZM329.91 59.8481L336.254 62.8059L338.461 58.0726L334.552 54.6091L329.91 59.8481ZM343.297 24.001L343.365 31.0007L349.206 30.9441L350.196 25.1874L343.297 24.001ZM384.5 0C379.363 0 374.536 1.41498 370.409 3.88051L377.591 15.8985C379.606 14.694 381.961 14 384.5 14V0ZM411.601 22.8146C409.373 9.85773 398.095 0 384.5 0V14C391.163 14 396.711 18.8343 397.804 25.1874L411.601 22.8146ZM432 44.5C432 29.4025 419.835 17.1471 404.77 17.0013L404.635 31.0007C412.028 31.0722 418 37.0891 418 44.5H432ZM423.655 64.2317C428.794 59.2426 432 52.2396 432 44.5H418C418 48.3013 416.438 51.7255 413.903 54.1871L423.655 64.2317ZM412.541 62.3861C413.472 64.2139 414 66.2851 414 68.5H428C428 64.0262 426.926 59.7828 425.016 56.0327L412.541 62.3861ZM414 68.5C414 75.2531 409.035 80.8593 402.557 81.8453L404.664 95.6859C417.878 93.6746 428 82.2758 428 68.5H414ZM407.78 98.8997C409.064 96.078 409.995 93.061 410.517 89.9073L396.704 87.6238C396.386 89.5458 395.819 91.3819 395.037 93.1003L407.78 98.8997ZM415 89H401.409V103H415V89ZM428 102C428 94.8203 422.18 89 415 89V103C414.448 103 414 102.552 414 102H428ZM428 198V102H414V198H428ZM415 211C422.18 211 428 205.18 428 198H414C414 197.448 414.448 197 415 197V211ZM334 211H415V197H334V211ZM321 198C321 205.18 326.82 211 334 211V197C334.552 197 335 197.448 335 198H321ZM321 102V198H335V102H321ZM334 89C326.82 89 321 94.8203 321 102H335C335 102.552 334.552 103 334 103V89ZM348.591 89H334V103H348.591V89ZM339.51 90.068C340.037 93.1635 340.958 96.126 342.22 98.8997L354.963 93.1003C354.194 91.4111 353.633 89.6081 353.312 87.7218L339.51 90.068ZM321 68.5C321 82.7463 331.827 94.4549 345.707 95.8593L347.116 81.9305C340.314 81.2421 335 75.4872 335 68.5H321ZM323.565 56.8904C321.917 60.4262 321 64.3657 321 68.5H335C335 66.4513 335.452 64.5274 336.254 62.8059L323.565 56.8904ZM316 44.5C316 52.6949 319.593 60.0593 325.267 65.0872L334.552 54.6091C331.75 52.1257 330 48.5216 330 44.5H316ZM343.23 17.0013C328.165 17.1471 316 29.4025 316 44.5H330C330 37.0891 335.972 31.0722 343.365 31.0007L343.23 17.0013ZM363.5 0C349.905 0 338.627 9.85772 336.399 22.8146L350.196 25.1874C351.289 18.8343 356.837 14 363.5 14V0ZM377.591 3.88051C373.464 1.41498 368.637 0 363.5 0V14C366.039 14 368.394 14.694 370.409 15.8985L377.591 3.88051Z" fill="black" mask="url(#path-37-outside-5)"/>
<rect x="553" y="48" width="13" height="20" rx="6.5" fill="#984900"/>
<rect x="612" y="48" width="13" height="20" rx="6.5" fill="#984900"/>
<rect x="568" y="47" width="42" height="70" rx="21" fill="#984900"/>
<rect x="560" y="17" width="58" height="70" rx="29" fill="#FFBA09"/>
<rect x="542" y="96" width="93" height="108" rx="6" fill="#304967"/>
<mask id="path-44-outside-6" maskUnits="userSpaceOnUse" x="535" y="10" width="107" height="201" fill="black">
<rect fill="white" x="535" y="10" width="107" height="201"/>
<path fill-rule="evenodd" clip-rule="evenodd" d="M560 46C560 29.9837 572.984 17 589 17C605.016 17 618 29.9837 618 46V48.0189C618.165 48.0064 618.332 48 618.5 48C622.09 48 625 50.9101 625 54.5V61.5C625 65.0899 622.09 68 618.5 68C617.75 68 617.03 67.873 616.359 67.6393C614.984 71.5434 612.797 75.0645 610 78.0001V96H629C632.314 96 635 98.6863 635 102V198C635 201.314 632.314 204 629 204H548C544.686 204 542 201.314 542 198V102C542 98.6863 544.686 96 548 96H568V78.0001C565.203 75.0645 563.016 71.5434 561.641 67.6393C560.97 67.873 560.25 68 559.5 68C555.91 68 553 65.0899 553 61.5V54.5C553 50.9101 555.91 48 559.5 48C559.668 48 559.835 48.0064 560 48.0189V46Z"/>
</mask>
<path d="M618 48.0189H611V55.5717L618.531 54.9988L618 48.0189ZM616.359 67.6393L618.664 61.0295L612.076 58.7327L609.757 65.3132L616.359 67.6393ZM610 78.0001L604.932 73.1717L603 75.1995V78.0001H610ZM610 96H603V103H610V96ZM568 96V103H575V96H568ZM568 78.0001H575V75.1995L573.068 73.1717L568 78.0001ZM561.641 67.6393L568.243 65.3132L565.924 58.7327L559.336 61.0295L561.641 67.6393ZM560 48.0189L559.469 54.9988L567 55.5717V48.0189H560ZM589 10C569.118 10 553 26.1177 553 46H567C567 33.8497 576.85 24 589 24V10ZM625 46C625 26.1177 608.882 10 589 10V24C601.15 24 611 33.8497 611 46H625ZM625 48.0189V46H611V48.0189H625ZM618.531 54.9988C618.52 54.9997 618.509 55 618.5 55V41C618.154 41 617.811 41.0131 617.469 41.0391L618.531 54.9988ZM618.5 55C618.224 55 618 54.7761 618 54.5H632C632 47.0442 625.956 41 618.5 41V55ZM618 54.5V61.5H632V54.5H618ZM618 61.5C618 61.2239 618.224 61 618.5 61V75C625.956 75 632 68.9558 632 61.5H618ZM618.5 61C618.545 61 618.603 61.0084 618.664 61.0295L614.055 74.2492C615.456 74.7376 616.955 75 618.5 75V61ZM615.068 82.8284C618.535 79.1899 621.251 74.8198 622.962 69.9654L609.757 65.3132C608.717 68.2669 607.059 70.9391 604.932 73.1717L615.068 82.8284ZM617 96V78.0001H603V96H617ZM629 89H610V103H629V89ZM642 102C642 94.8203 636.18 89 629 89V103C628.448 103 628 102.552 628 102H642ZM642 198V102H628V198H642ZM629 211C636.18 211 642 205.18 642 198H628C628 197.448 628.448 197 629 197V211ZM548 211H629V197H548V211ZM535 198C535 205.18 540.82 211 548 211V197C548.552 197 549 197.448 549 198H535ZM535 102V198H549V102H535ZM548 89C540.82 89 535 94.8203 535 102H549C549 102.552 548.552 103 548 103V89ZM568 89H548V103H568V89ZM561 78.0001V96H575V78.0001H561ZM555.038 69.9654C556.749 74.8198 559.465 79.1899 562.932 82.8284L573.068 73.1717C570.941 70.9391 569.283 68.2669 568.243 65.3132L555.038 69.9654ZM559.5 75C561.045 75 562.544 74.7376 563.945 74.2492L559.336 61.0295C559.397 61.0084 559.455 61 559.5 61V75ZM546 61.5C546 68.9558 552.044 75 559.5 75V61C559.776 61 560 61.2239 560 61.5H546ZM546 54.5V61.5H560V54.5H546ZM559.5 41C552.044 41 546 47.0442 546 54.5H560C560 54.7761 559.776 55 559.5 55V41ZM560.531 41.0391C560.189 41.0131 559.846 41 559.5 41V55C559.491 55 559.48 54.9997 559.469 54.9988L560.531 41.0391ZM553 46V48.0189H567V46H553Z" fill="black" mask="url(#path-44-outside-6)"/>
<path d="M578.383 87.307C578.735 84.2818 581.297 82 584.343 82H592.657C595.703 82 598.265 84.2818 598.617 87.307L607.222 161.307C607.636 164.871 604.85 168 601.262 168H575.738C572.15 168 569.364 164.871 569.778 161.307L578.383 87.307Z" fill="#FFBA09"/>
<rect x="667" y="17" width="58" height="96" rx="29" fill="#C17A38"/>
<rect x="649" y="96" width="93" height="108" rx="6" fill="#304967"/>
<mask id="path-49-outside-7" maskUnits="userSpaceOnUse" x="642" y="10" width="107" height="201" fill="black">
<rect fill="white" x="642" y="10" width="107" height="201"/>
<path fill-rule="evenodd" clip-rule="evenodd" d="M696 17C679.984 17 667 29.9837 667 46V84C667 88.2798 667.927 92.3431 669.591 96H655C651.686 96 649 98.6863 649 102V198C649 201.314 651.686 204 655 204H736C739.314 204 742 201.314 742 198V102C742 98.6863 739.314 96 736 96H722.409C724.073 92.3431 725 88.2798 725 84V46C725 29.9837 712.016 17 696 17Z"/>
</mask>
<path d="M669.591 96V103H680.468L675.963 93.1003L669.591 96ZM722.409 96L716.037 93.1003L711.532 103H722.409V96ZM674 46C674 33.8497 683.85 24 696 24V10C676.118 10 660 26.1177 660 46H674ZM674 84V46H660V84H674ZM675.963 93.1003C674.704 90.3358 674 87.2596 674 84H660C660 89.3 661.15 94.3505 663.22 98.8997L675.963 93.1003ZM655 103H669.591V89H655V103ZM656 102C656 102.552 655.552 103 655 103V89C647.82 89 642 94.8203 642 102H656ZM656 198V102H642V198H656ZM655 197C655.552 197 656 197.448 656 198H642C642 205.18 647.82 211 655 211V197ZM736 197H655V211H736V197ZM735 198C735 197.448 735.448 197 736 197V211C743.18 211 749 205.18 749 198H735ZM735 102V198H749V102H735ZM736 103C735.448 103 735 102.552 735 102H749C749 94.8203 743.18 89 736 89V103ZM722.409 103H736V89H722.409V103ZM718 84C718 87.2596 717.296 90.3358 716.037 93.1003L728.78 98.8997C730.85 94.3505 732 89.3 732 84H718ZM718 46V84H732V46H718ZM696 24C708.15 24 718 33.8497 718 46H732C732 26.1178 715.882 10 696 10V24Z" fill="black" mask="url(#path-49-outside-7)"/>
</svg>
