<svg width="115" height="88" viewBox="0 0 115 88" fill="none" xmlns="http://www.w3.org/2000/svg">
<mask id="path-1-outside-1" maskUnits="userSpaceOnUse" x="0" y="0" width="115" height="88" fill="black">
<rect fill="white" width="115" height="88"/>
<path fill-rule="evenodd" clip-rule="evenodd" d="M7 12C7 9.23858 9.23857 7 12 7H103C105.761 7 108 9.23858 108 12V54C108 56.7614 105.761 59 103 59H82C79.2386 59 77 61.2386 77 64V75.9555C77 80.0839 72.2798 82.4336 68.9858 79.9449L42.6023 60.0107C41.7343 59.3548 40.6761 59 39.5882 59H12C9.23858 59 7 56.7614 7 54V12Z"/>
</mask>
<path fill-rule="evenodd" clip-rule="evenodd" d="M7 12C7 9.23858 9.23857 7 12 7H103C105.761 7 108 9.23858 108 12V54C108 56.7614 105.761 59 103 59H82C79.2386 59 77 61.2386 77 64V75.9555C77 80.0839 72.2798 82.4336 68.9858 79.9449L42.6023 60.0107C41.7343 59.3548 40.6761 59 39.5882 59H12C9.23858 59 7 56.7614 7 54V12Z" fill="white"/>
<path d="M42.6023 60.0107L38.3825 65.5957L42.6023 60.0107ZM103 0H12V14H103V0ZM115 54V12H101V54H115ZM82 66H103V52H82V66ZM84 75.9555V64H70V75.9555H84ZM38.3825 65.5957L64.766 85.5299L73.2057 74.3598L46.8222 54.4256L38.3825 65.5957ZM12 66H39.5882V52H12V66ZM0 12V54H14V12H0ZM12 52C13.1046 52 14 52.8954 14 54H0C0 60.6274 5.37258 66 12 66V52ZM46.8222 54.4256C44.7389 52.8516 42.1992 52 39.5882 52V66C39.153 66 38.7297 65.8581 38.3825 65.5957L46.8222 54.4256ZM70 75.9555C70 74.3042 71.8881 73.3643 73.2057 74.3598L64.766 85.5299C72.6714 91.5029 84 85.8636 84 75.9555H70ZM82 52C75.3726 52 70 57.3726 70 64H84C84 65.1046 83.1046 66 82 66V52ZM101 54C101 52.8954 101.895 52 103 52V66C109.627 66 115 60.6274 115 54H101ZM12 0C5.37258 0 0 5.37259 0 12H14C14 13.1046 13.1046 14 12 14V0ZM103 14C101.895 14 101 13.1046 101 12H115C115 5.37258 109.627 0 103 0V14Z" fill="black" mask="url(#path-1-outside-1)"/>
<path d="M52.0463 38.856C51.5343 38.856 51.1103 39.024 50.7743 39.36C50.4383 39.712 50.2703 40.144 50.2703 40.656C50.2703 41.168 50.4383 41.592 50.7743 41.928C51.1103 42.28 51.5343 42.456 52.0463 42.456C52.5583 42.456 52.9823 42.28 53.3183 41.928C53.6543 41.592 53.8223 41.168 53.8223 40.656C53.8223 40.144 53.6543 39.712 53.3183 39.36C52.9823 39.024 52.5583 38.856 52.0463 38.856ZM57.9994 38.856C57.4874 38.856 57.0634 39.024 56.7274 39.36C56.3914 39.712 56.2234 40.144 56.2234 40.656C56.2234 41.168 56.3914 41.592 56.7274 41.928C57.0634 42.28 57.4874 42.456 57.9994 42.456C58.5114 42.456 58.9354 42.28 59.2714 41.928C59.6074 41.592 59.7754 41.168 59.7754 40.656C59.7754 40.144 59.6074 39.712 59.2714 39.36C58.9354 39.024 58.5114 38.856 57.9994 38.856ZM63.9526 38.856C63.4406 38.856 63.0166 39.024 62.6806 39.36C62.3446 39.712 62.1766 40.144 62.1766 40.656C62.1766 41.168 62.3446 41.592 62.6806 41.928C63.0166 42.28 63.4406 42.456 63.9526 42.456C64.4646 42.456 64.8886 42.28 65.2246 41.928C65.5606 41.592 65.7286 41.168 65.7286 40.656C65.7286 40.144 65.5606 39.712 65.2246 39.36C64.8886 39.024 64.4646 38.856 63.9526 38.856Z" fill="black"/>
</svg>
