<svg width="189" height="89" viewBox="0 0 189 89" fill="none" xmlns="http://www.w3.org/2000/svg">
<mask id="path-1-outside-1" maskUnits="userSpaceOnUse" x="0" y="0" width="189" height="89" fill="black">
<rect fill="white" width="189" height="89"/>
<path fill-rule="evenodd" clip-rule="evenodd" d="M7 12C7 9.23858 9.23858 7 12 7H177C179.761 7 182 9.23858 182 12V54C182 56.7614 179.761 59 177 59H155.5C152.739 59 150.5 61.2386 150.5 64V76.0705C150.5 80.1777 145.822 82.5331 142.523 80.0874L115.398 59.9831C114.536 59.3446 113.493 59 112.42 59H76.0795C75.0073 59 73.9636 59.3446 73.1022 59.9831L45.9773 80.0874C42.6776 82.5331 38 80.1777 38 76.0705V64C38 61.2386 35.7614 59 33 59H12C9.23858 59 7 56.7614 7 54V12Z"/>
</mask>
<path fill-rule="evenodd" clip-rule="evenodd" d="M7 12C7 9.23858 9.23858 7 12 7H177C179.761 7 182 9.23858 182 12V54C182 56.7614 179.761 59 177 59H155.5C152.739 59 150.5 61.2386 150.5 64V76.0705C150.5 80.1777 145.822 82.5331 142.523 80.0874L115.398 59.9831C114.536 59.3446 113.493 59 112.42 59H76.0795C75.0073 59 73.9636 59.3446 73.1022 59.9831L45.9773 80.0874C42.6776 82.5331 38 80.1777 38 76.0705V64C38 61.2386 35.7614 59 33 59H12C9.23858 59 7 56.7614 7 54V12Z" fill="white"/>
<path d="M45.9773 80.0874L41.8091 74.4637L45.9773 80.0874ZM73.1022 59.9831L68.9341 54.3593L73.1022 59.9831ZM115.398 59.9831L119.566 54.3593L115.398 59.9831ZM142.523 80.0874L146.691 74.4637L142.523 80.0874ZM177 0H12V14H177V0ZM189 54V12H175V54H189ZM155.5 66H177V52H155.5V66ZM157.5 76.0705V64H143.5V76.0705H157.5ZM111.23 65.6068L138.355 85.7112L146.691 74.4637L119.566 54.3593L111.23 65.6068ZM76.0795 66H112.42V52H76.0795V66ZM50.1454 85.7112L77.2704 65.6068L68.9341 54.3593L41.8091 74.4637L50.1454 85.7112ZM31 64V76.0705H45V64H31ZM12 66H33V52H12V66ZM0 12V54H14V12H0ZM12 52C13.1046 52 14 52.8954 14 54H0C0 60.6274 5.37258 66 12 66V52ZM45 64C45 57.3726 39.6274 52 33 52V66C31.8954 66 31 65.1046 31 64H45ZM41.8091 74.4637C43.129 73.4855 45 74.4276 45 76.0705H31C31 85.9277 42.2262 91.5807 50.1454 85.7112L41.8091 74.4637ZM76.0795 52C73.5063 52 71.0013 52.8271 68.9341 54.3593L77.2704 65.6068C76.9259 65.8621 76.5084 66 76.0795 66V52ZM119.566 54.3593C117.499 52.8271 114.994 52 112.42 52V66C111.992 66 111.574 65.8621 111.23 65.6068L119.566 54.3593ZM143.5 76.0705C143.5 74.4276 145.371 73.4855 146.691 74.4637L138.355 85.7112C146.274 91.5807 157.5 85.9277 157.5 76.0705H143.5ZM155.5 52C148.873 52 143.5 57.3726 143.5 64H157.5C157.5 65.1046 156.605 66 155.5 66V52ZM175 54C175 52.8954 175.895 52 177 52V66C183.627 66 189 60.6274 189 54H175ZM12 0C5.37258 0 0 5.37258 0 12H14C14 13.1046 13.1046 14 12 14V0ZM177 14C175.895 14 175 13.1046 175 12H189C189 5.37258 183.627 0 177 0V14Z" fill="black" mask="url(#path-1-outside-1)"/>
<path d="M94.7482 38.104C94.4762 38.104 94.2522 38.008 94.0762 37.816C93.9162 37.624 93.8362 37.36 93.8362 37.024C93.8362 36.144 93.9962 35.4 94.3162 34.792C94.6362 34.184 95.1002 33.52 95.7082 32.8C96.1882 32.224 96.5402 31.744 96.7642 31.36C96.9882 30.976 97.1002 30.544 97.1002 30.064C97.1002 29.536 96.9002 29.12 96.5002 28.816C96.1162 28.496 95.5882 28.336 94.9162 28.336C94.3402 28.336 93.7882 28.464 93.2602 28.72C92.7322 28.96 92.1162 29.312 91.4122 29.776C91.0122 30 90.6842 30.112 90.4282 30.112C90.1562 30.112 89.9162 29.992 89.7082 29.752C89.5162 29.496 89.4202 29.2 89.4202 28.864C89.4202 28.4 89.6122 28.024 89.9962 27.736C90.6682 27.16 91.4602 26.712 92.3722 26.392C93.2842 26.056 94.2042 25.888 95.1322 25.888C96.1082 25.888 96.9722 26.056 97.7242 26.392C98.4922 26.728 99.0842 27.192 99.5002 27.784C99.9322 28.376 100.148 29.056 100.148 29.824C100.148 30.656 99.9482 31.384 99.5482 32.008C99.1482 32.616 98.5642 33.304 97.7962 34.072C97.1402 34.744 96.6442 35.312 96.3082 35.776C95.9882 36.224 95.7882 36.736 95.7082 37.312C95.6602 37.568 95.5482 37.768 95.3722 37.912C95.2122 38.04 95.0042 38.104 94.7482 38.104ZM94.7962 43.144C94.2842 43.144 93.8602 42.976 93.5242 42.64C93.1882 42.288 93.0202 41.856 93.0202 41.344C93.0202 40.832 93.1882 40.408 93.5242 40.072C93.8602 39.72 94.2842 39.544 94.7962 39.544C95.3082 39.544 95.7322 39.72 96.0682 40.072C96.4042 40.408 96.5722 40.832 96.5722 41.344C96.5722 41.856 96.3962 42.288 96.0442 42.64C95.7082 42.976 95.2922 43.144 94.7962 43.144Z" fill="black"/>
</svg>
