<svg width="119" height="89" viewBox="0 0 119 89" fill="none" xmlns="http://www.w3.org/2000/svg">
<mask id="path-1-outside-1" maskUnits="userSpaceOnUse" x="0" y="0" width="119" height="89" fill="black">
<rect fill="white" width="119" height="89"/>
<path fill-rule="evenodd" clip-rule="evenodd" d="M112 12C112 9.23858 109.761 7 107 7H12C9.23858 7 7 9.23858 7 12V54C7 56.7614 9.23858 59 12 59H33C35.7614 59 38 61.2386 38 64V76.0705C38 80.1777 42.6776 82.5331 45.9773 80.0874L73.1022 59.9831C73.9636 59.3446 75.0073 59 76.0795 59H107C109.761 59 112 56.7614 112 54V12Z"/>
</mask>
<path fill-rule="evenodd" clip-rule="evenodd" d="M112 12C112 9.23858 109.761 7 107 7H12C9.23858 7 7 9.23858 7 12V54C7 56.7614 9.23858 59 12 59H33C35.7614 59 38 61.2386 38 64V76.0705C38 80.1777 42.6776 82.5331 45.9773 80.0874L73.1022 59.9831C73.9636 59.3446 75.0073 59 76.0795 59H107C109.761 59 112 56.7614 112 54V12Z" fill="white"/>
<path d="M73.1022 59.9831L68.9341 54.3593L73.1022 59.9831ZM45.9773 80.0874L41.8091 74.4637L45.9773 80.0874ZM12 14H107V0H12V14ZM14 54V12H0V54H14ZM33 52H12V66H33V52ZM45 76.0705V64H31V76.0705H45ZM68.9341 54.3593L41.8091 74.4637L50.1454 85.7112L77.2704 65.6068L68.9341 54.3593ZM107 52H76.0795V66H107V52ZM105 12V54H119V12H105ZM107 66C113.627 66 119 60.6274 119 54H105C105 52.8954 105.895 52 107 52V66ZM77.2704 65.6068C76.9259 65.8621 76.5084 66 76.0795 66V52C73.5063 52 71.0013 52.8271 68.9341 54.3593L77.2704 65.6068ZM31 76.0705C31 85.9277 42.2262 91.5807 50.1454 85.7112L41.8091 74.4637C43.129 73.4855 45 74.4276 45 76.0705H31ZM33 66C31.8954 66 31 65.1046 31 64H45C45 57.3726 39.6274 52 33 52V66ZM0 54C0 60.6274 5.37259 66 12 66V52C13.1046 52 14 52.8954 14 54H0ZM107 14C105.895 14 105 13.1046 105 12H119C119 5.37258 113.627 0 107 0V14ZM12 0C5.37258 0 0 5.37258 0 12H14C14 13.1046 13.1046 14 12 14V0Z" fill="black" mask="url(#path-1-outside-1)"/>
<path d="M54.0463 38.856C53.5343 38.856 53.1103 39.024 52.7743 39.36C52.4383 39.712 52.2703 40.144 52.2703 40.656C52.2703 41.168 52.4383 41.592 52.7743 41.928C53.1103 42.28 53.5343 42.456 54.0463 42.456C54.5583 42.456 54.9823 42.28 55.3183 41.928C55.6543 41.592 55.8223 41.168 55.8223 40.656C55.8223 40.144 55.6543 39.712 55.3183 39.36C54.9823 39.024 54.5583 38.856 54.0463 38.856ZM59.9994 38.856C59.4874 38.856 59.0634 39.024 58.7274 39.36C58.3914 39.712 58.2234 40.144 58.2234 40.656C58.2234 41.168 58.3914 41.592 58.7274 41.928C59.0634 42.28 59.4874 42.456 59.9994 42.456C60.5114 42.456 60.9354 42.28 61.2714 41.928C61.6074 41.592 61.7754 41.168 61.7754 40.656C61.7754 40.144 61.6074 39.712 61.2714 39.36C60.9354 39.024 60.5114 38.856 59.9994 38.856ZM65.9526 38.856C65.4406 38.856 65.0166 39.024 64.6806 39.36C64.3446 39.712 64.1766 40.144 64.1766 40.656C64.1766 41.168 64.3446 41.592 64.6806 41.928C65.0166 42.28 65.4406 42.456 65.9526 42.456C66.4646 42.456 66.8886 42.28 67.2246 41.928C67.5606 41.592 67.7286 41.168 67.7286 40.656C67.7286 40.144 67.5606 39.712 67.2246 39.36C66.8886 39.024 66.4646 38.856 65.9526 38.856Z" fill="black"/>
</svg>
