<svg width="498" height="333" viewBox="0 0 498 333" fill="none" xmlns="http://www.w3.org/2000/svg">
<mask id="path-1-outside-1" maskUnits="userSpaceOnUse" x="0" y="0" width="498" height="333" fill="black">
<rect fill="white" width="498" height="333"/>
<path fill-rule="evenodd" clip-rule="evenodd" d="M8 19.3679C8 13.0896 13.0896 8 19.3679 8H478.632C484.91 8 490 13.0896 490 19.3679V265.673C490 271.951 484.91 277.041 478.632 277.041H19.3679C13.0896 277.041 8 271.951 8 265.673V19.3679ZM229.687 289.167C225.092 289.167 220.948 291.934 219.187 296.178L213.842 309.062C210.736 316.548 216.237 324.786 224.342 324.786H272.113C280.606 324.786 286.1 315.812 282.238 308.248L275.659 295.365C273.716 291.561 269.806 289.167 265.534 289.167H249H229.687Z"/>
</mask>
<path d="M219.187 296.178L212.187 293.274L212.187 293.274L219.187 296.178ZM213.842 309.062L220.842 311.966L220.842 311.966L213.842 309.062ZM282.238 308.248L288.987 304.802L288.987 304.802L282.238 308.248ZM275.659 295.365L268.909 298.811L268.909 298.811L275.659 295.365ZM19.3679 0.421384C8.90405 0.421384 0.421384 8.90403 0.421384 19.3679H15.5786C15.5786 17.2751 17.2751 15.5786 19.3679 15.5786V0.421384ZM478.632 0.421384H19.3679V15.5786H478.632V0.421384ZM497.579 19.3679C497.579 8.90404 489.096 0.421384 478.632 0.421384V15.5786C480.725 15.5786 482.421 17.2751 482.421 19.3679H497.579ZM497.579 265.673V19.3679H482.421V265.673H497.579ZM478.632 284.619C489.096 284.619 497.579 276.137 497.579 265.673H482.421C482.421 267.766 480.725 269.462 478.632 269.462V284.619ZM19.3679 284.619H478.632V269.462H19.3679V284.619ZM0.421384 265.673C0.421384 276.137 8.90404 284.619 19.3679 284.619V269.462C17.2751 269.462 15.5786 267.766 15.5786 265.673H0.421384ZM0.421384 19.3679V265.673H15.5786V19.3679H0.421384ZM226.187 299.082C226.774 297.668 228.155 296.745 229.687 296.745V281.588C222.028 281.588 215.122 286.199 212.187 293.274L226.187 299.082ZM220.842 311.966L226.187 299.082L212.187 293.274L206.842 306.158L220.842 311.966ZM224.342 317.208C221.64 317.208 219.806 314.461 220.842 311.966L206.842 306.158C201.665 318.634 210.834 332.365 224.342 332.365V317.208ZM272.113 317.208H224.342V332.365H272.113V317.208ZM275.488 311.695C276.776 314.216 274.944 317.208 272.113 317.208V332.365C286.268 332.365 295.424 317.408 288.987 304.802L275.488 311.695ZM268.909 298.811L275.488 311.695L288.987 304.802L282.408 291.918L268.909 298.811ZM265.534 296.745C266.958 296.745 268.262 297.543 268.909 298.811L282.408 291.918C279.171 285.578 272.653 281.588 265.534 281.588V296.745ZM249 296.745H265.534V281.588H249V296.745ZM229.687 296.745H249V281.588H229.687V296.745Z" fill="black" mask="url(#path-1-outside-1)"/>
<path d="M8 19.3679C8 13.0896 13.0896 8 19.3679 8H478.632C484.91 8 490 13.0896 490 19.3679V265.673C490 271.951 484.91 277.041 478.632 277.041H19.3679C13.0896 277.041 8 271.951 8 265.673V19.3679Z" fill="white"/>
<path d="M37.7531 254.417C37.381 254.417 37.0817 254.304 36.8551 254.077C36.6286 253.851 36.5154 253.543 36.5154 253.155V238.4C36.5154 238.028 36.6206 237.737 36.8309 237.526C37.0574 237.3 37.3648 237.186 37.7531 237.186H43.6017C45.4138 237.186 46.8213 237.631 47.8244 238.521C48.8275 239.411 49.3291 240.673 49.3291 242.307C49.3291 243.925 48.8275 245.187 47.8244 246.093C46.8213 246.999 45.4138 247.452 43.6017 247.452H39.015V253.155C39.015 253.543 38.9018 253.851 38.6753 254.077C38.4649 254.304 38.1575 254.417 37.7531 254.417ZM43.3348 245.438C45.7293 245.438 46.9265 244.394 46.9265 242.307C46.9265 240.236 45.7293 239.201 43.3348 239.201H39.015V245.438H43.3348ZM52.9291 254.417C52.5732 254.417 52.2739 254.32 52.0312 254.126C51.8047 253.932 51.6914 253.64 51.6914 253.252V238.254C51.6914 237.866 51.8047 237.575 52.0312 237.381C52.2739 237.17 52.5732 237.065 52.9291 237.065C53.2851 237.065 53.5763 237.17 53.8028 237.381C54.0293 237.575 54.1425 237.866 54.1425 238.254V253.252C54.1425 253.64 54.0293 253.932 53.8028 254.126C53.5763 254.32 53.2851 254.417 52.9291 254.417ZM62.1799 242.161C63.7493 242.161 64.9141 242.558 65.6745 243.351C66.4511 244.143 66.8394 245.349 66.8394 246.967V253.252C66.8394 253.624 66.7343 253.915 66.5239 254.126C66.3136 254.32 66.0224 254.417 65.6503 254.417C65.2943 254.417 65.0112 254.312 64.8009 254.102C64.5906 253.891 64.4854 253.608 64.4854 253.252V252.354C64.178 253.034 63.7169 253.56 63.1021 253.932C62.5035 254.288 61.7997 254.466 60.9908 254.466C60.2142 254.466 59.5023 254.312 58.8551 254.004C58.2242 253.681 57.7226 253.244 57.3505 252.694C56.9784 252.144 56.7923 251.521 56.7923 250.825C56.7762 249.952 56.9946 249.272 57.4476 248.787C57.9006 248.285 58.6367 247.929 59.656 247.719C60.6753 247.492 62.0909 247.379 63.903 247.379H64.4611V246.675C64.4611 245.769 64.2751 245.114 63.903 244.71C63.5308 244.305 62.9322 244.103 62.1071 244.103C61.5408 244.103 61.0069 244.176 60.5054 244.321C60.0038 244.467 59.4538 244.677 58.8551 244.952C58.4183 245.195 58.1109 245.316 57.9329 245.316C57.6903 245.316 57.488 245.227 57.3262 245.049C57.1806 244.871 57.1078 244.645 57.1078 244.37C57.1078 244.127 57.1725 243.917 57.302 243.739C57.4476 243.545 57.6741 243.359 57.9815 243.181C58.5477 242.873 59.2111 242.631 59.9715 242.453C60.7319 242.259 61.468 242.161 62.1799 242.161ZM61.4276 252.645C62.3174 252.645 63.0455 252.346 63.6117 251.747C64.178 251.133 64.4611 250.348 64.4611 249.393V248.762H64.0243C62.7623 248.762 61.7916 248.819 61.1121 248.932C60.4326 249.046 59.9472 249.24 59.656 249.515C59.3648 249.774 59.2192 250.154 59.2192 250.655C59.2192 251.238 59.4295 251.715 59.8501 252.087C60.2708 252.459 60.7966 252.645 61.4276 252.645ZM78.2493 242.938C78.3464 242.695 78.4839 242.517 78.6619 242.404C78.856 242.291 79.0583 242.234 79.2686 242.234C79.576 242.234 79.8429 242.339 80.0694 242.55C80.3121 242.76 80.4335 243.011 80.4335 243.302C80.4335 243.464 80.4011 243.618 80.3364 243.763L73.5898 258.082C73.4927 258.308 73.3471 258.478 73.153 258.591C72.975 258.721 72.7809 258.785 72.5705 258.785C72.2793 258.785 72.0124 258.688 71.7697 258.494C71.5432 258.3 71.4299 258.057 71.4299 257.766C71.4299 257.637 71.4704 257.475 71.5513 257.281L73.2258 253.713L68.542 243.763C68.4773 243.634 68.4449 243.488 68.4449 243.326C68.4449 243.019 68.5743 242.76 68.8332 242.55C69.0921 242.339 69.3833 242.234 69.7069 242.234C70.1922 242.234 70.5401 242.461 70.7504 242.914L74.512 251.262L78.2493 242.938ZM88.4549 242.161C91.2862 242.161 92.7019 243.755 92.7019 246.942V253.252C92.7019 253.624 92.5886 253.915 92.3621 254.126C92.1518 254.32 91.8525 254.417 91.4642 254.417C91.0921 254.417 90.7928 254.312 90.5662 254.102C90.3559 253.891 90.2508 253.608 90.2508 253.252V247.064C90.2508 246.061 90.0485 245.324 89.6441 244.855C89.2558 244.386 88.641 244.151 87.7997 244.151C86.8127 244.151 86.02 244.459 85.4214 245.074C84.8227 245.688 84.5234 246.514 84.5234 247.549V253.252C84.5234 253.608 84.4102 253.891 84.1837 254.102C83.9734 254.312 83.6821 254.417 83.31 254.417C82.9379 254.417 82.6386 254.312 82.4121 254.102C82.1856 253.891 82.0723 253.608 82.0723 253.252V243.375C82.0723 243.035 82.1856 242.76 82.4121 242.55C82.6548 242.323 82.9541 242.21 83.31 242.21C83.666 242.21 83.9491 242.315 84.1594 242.526C84.3697 242.736 84.4749 243.011 84.4749 243.351V244.346C84.8632 243.634 85.4052 243.092 86.1009 242.72C86.7966 242.348 87.5812 242.161 88.4549 242.161ZM104.962 251.311C105.188 251.311 105.374 251.4 105.52 251.578C105.665 251.756 105.738 251.982 105.738 252.257C105.738 252.726 105.447 253.123 104.864 253.446C104.298 253.77 103.675 254.021 102.996 254.199C102.332 254.377 101.693 254.466 101.079 254.466C99.2019 254.466 97.7215 253.924 96.6375 252.84C95.5535 251.739 95.0115 250.243 95.0115 248.35C95.0115 247.136 95.2461 246.061 95.7153 245.122C96.2007 244.184 96.8721 243.456 97.7296 242.938C98.6032 242.42 99.5901 242.161 100.69 242.161C102.276 242.161 103.53 242.671 104.452 243.69C105.374 244.71 105.835 246.085 105.835 247.816C105.835 248.463 105.544 248.787 104.962 248.787H97.4626C97.6244 251.294 98.8297 252.548 101.079 252.548C101.677 252.548 102.195 252.467 102.632 252.306C103.069 252.144 103.53 251.934 104.015 251.675C104.064 251.642 104.193 251.578 104.403 251.481C104.63 251.367 104.816 251.311 104.962 251.311ZM100.739 243.957C99.8005 243.957 99.0482 244.257 98.4819 244.855C97.9156 245.454 97.5759 246.295 97.4626 247.379H103.724C103.675 246.279 103.392 245.438 102.874 244.855C102.373 244.257 101.661 243.957 100.739 243.957ZM113.854 252.548C114.21 252.581 114.461 252.678 114.606 252.84C114.768 252.985 114.849 253.195 114.849 253.471C114.849 253.794 114.719 254.045 114.461 254.223C114.218 254.385 113.854 254.449 113.368 254.417L112.713 254.368C111.403 254.271 110.424 253.875 109.777 253.179C109.13 252.467 108.806 251.424 108.806 250.049V244.346H107.35C106.638 244.346 106.282 244.03 106.282 243.399C106.282 243.108 106.371 242.881 106.549 242.72C106.743 242.542 107.01 242.453 107.35 242.453H108.806V239.953C108.806 239.581 108.911 239.29 109.121 239.079C109.348 238.869 109.647 238.764 110.019 238.764C110.392 238.764 110.691 238.869 110.917 239.079C111.144 239.29 111.257 239.581 111.257 239.953V242.453H113.66C113.999 242.453 114.258 242.542 114.436 242.72C114.63 242.881 114.727 243.108 114.727 243.399C114.727 243.707 114.63 243.941 114.436 244.103C114.258 244.265 113.999 244.346 113.66 244.346H111.257V250.219C111.257 250.979 111.411 251.537 111.718 251.893C112.042 252.249 112.527 252.451 113.174 252.5L113.854 252.548Z" fill="black"/>
<path fill-rule="evenodd" clip-rule="evenodd" d="M478.632 19.3679L19.3679 19.3679L19.3679 265.673H478.632V19.3679ZM19.3679 8C13.0896 8 8 13.0896 8 19.3679V265.673C8 271.951 13.0896 277.041 19.3679 277.041H478.632C484.91 277.041 490 271.951 490 265.673V19.3679C490 13.0896 484.91 8 478.632 8H19.3679Z" fill="#A5A5A5"/>
<path d="M219.187 296.178C220.948 291.934 225.091 289.167 229.687 289.167H249H265.534C269.805 289.167 273.716 291.561 275.659 295.365L282.237 308.248C286.1 315.812 280.606 324.786 272.113 324.786H224.341C216.237 324.786 210.736 316.548 213.841 309.062L219.187 296.178Z" fill="#A5A5A5"/>
<rect x="38.3147" y="38.3145" width="303.902" height="182.645" rx="3.78931" stroke="black" stroke-width="7.57862" stroke-linejoin="round"/>
<rect x="38.3147" y="38.3145" width="303.902" height="182.645" rx="3.78931" fill="#3A71B3" stroke="black" stroke-width="7.57862" stroke-linejoin="round"/>
<path d="M191.539 169.025C213.319 169.025 230.975 151.369 230.975 129.589C230.975 107.809 213.319 90.1523 191.539 90.1523C169.759 90.1523 152.103 107.809 152.103 129.589C152.103 151.369 169.759 169.025 191.539 169.025Z" fill="#FF8874"/>
<path d="M208.395 165.25C203.283 167.67 197.568 169.024 191.537 169.024C170.113 169.024 152.679 151.94 152.115 130.651L187.76 130.651C191.868 130.651 195.198 127.321 195.198 123.213C195.198 119.105 191.868 115.775 187.76 115.775H154.588C154.637 115.644 154.687 115.513 154.737 115.382C155.425 115.636 156.169 115.775 156.945 115.775H169.696C173.217 115.775 176.071 112.92 176.071 109.399C176.071 105.878 173.217 103.023 169.696 103.023H162.39C169.603 95.1146 179.99 90.1519 191.537 90.1519C213.317 90.1519 230.974 107.808 230.974 129.588C230.974 137.871 228.42 145.557 224.057 151.903H195.496C191.81 151.903 188.823 154.891 188.823 158.577C188.823 162.262 191.81 165.25 195.496 165.25H208.395Z" fill="#DF3A1F"/>
<path fill-rule="evenodd" clip-rule="evenodd" d="M258.601 121.215C259.253 119.921 259.68 118.187 259.031 116.16C258.037 113.051 255.26 111.597 253.681 110.977C251.914 110.284 249.871 109.915 247.859 109.703C243.763 109.272 238.371 109.357 232.193 109.83C230.239 109.979 228.183 110.17 226.036 110.4C227.795 113.531 229.138 116.928 229.988 120.515C231.329 120.384 232.625 120.27 233.873 120.174C237.312 119.911 240.306 119.791 242.816 119.8C240.648 120.859 237.983 122.01 234.848 123.222C233.548 123.725 232.179 124.234 230.747 124.746C230.747 124.746 230.747 124.746 230.747 124.746C227.648 125.856 224.251 126.984 220.601 128.113C217.732 129.001 216.108 132.047 217.031 134.901C217.915 137.636 220.817 139.181 223.57 138.341C229.544 136.517 234.937 134.676 239.568 132.885C245.2 130.707 249.921 128.522 253.211 126.433C254.827 125.406 256.376 124.231 257.492 122.89C257.825 122.491 258.217 121.956 258.556 121.304C258.571 121.275 258.586 121.245 258.601 121.215ZM248.853 115.979C248.853 115.979 248.838 115.996 248.817 116.03C248.818 116.028 248.82 116.026 248.822 116.024C248.837 116 248.849 115.983 248.853 115.979Z" fill="#304967"/>
<path fill-rule="evenodd" clip-rule="evenodd" d="M131.969 153.647C131.227 153.569 130.481 153.47 129.747 153.341C128.488 153.119 127.262 152.811 126.147 152.373C124.568 151.754 121.791 150.3 120.797 147.19C119.802 144.08 121.339 141.658 122.336 140.46C123.453 139.119 125.002 137.944 126.618 136.918C129.907 134.829 134.628 132.644 140.261 130.466C143.904 129.057 148.018 127.617 152.516 126.179C152.419 127.304 152.37 128.443 152.37 129.593C152.37 132.198 152.624 134.745 153.108 137.208C150.172 138.195 147.453 139.172 144.98 140.128C141.845 141.341 139.18 142.491 137.012 143.55C139.522 143.559 142.516 143.439 145.955 143.176C148.594 142.974 151.447 142.691 154.484 142.33C154.484 142.33 154.484 142.33 154.484 142.33C158.847 141.811 163.587 141.131 168.61 140.294C171.216 139.86 173.761 141.38 174.572 143.891C175.553 146.926 173.631 150.132 170.479 150.65C161.989 152.046 154.23 153.016 147.636 153.521C141.458 153.994 136.064 154.079 131.969 153.647C131.968 153.647 131.969 153.647 131.969 153.647ZM129.502 142.769C129.502 142.769 129.502 142.769 129.502 142.769ZM129.528 142.782C129.537 142.786 129.549 142.792 129.565 142.798C129.564 142.798 129.563 142.798 129.562 142.797C129.548 142.791 129.537 142.786 129.528 142.782Z" fill="#304967"/>
<path d="M184.267 118.634L207.547 132.082L184.267 145.53L184.267 118.634Z" fill="white"/>
<mask id="path-13-outside-2" maskUnits="userSpaceOnUse" x="112.475" y="83.1021" width="154" height="93" fill="black">
<rect fill="white" x="112.475" y="83.1021" width="154" height="93"/>
<path fill-rule="evenodd" clip-rule="evenodd" d="M230.427 136.129C227.29 154.772 211.073 168.975 191.539 168.975C178.225 168.975 166.451 162.376 159.31 152.271C155.123 152.811 151.209 153.221 147.636 153.495C141.458 153.968 136.064 154.053 131.969 153.622C131.227 153.543 130.481 153.444 129.747 153.315C128.488 153.094 127.262 152.785 126.147 152.347C124.568 151.728 121.791 150.274 120.797 147.164C119.802 144.054 121.339 141.632 122.336 140.434C123.453 139.094 125.002 137.918 126.618 136.892C129.907 134.803 134.628 132.618 140.261 130.44C143.829 129.06 147.849 127.651 152.239 126.242C153.913 106.004 170.869 90.1021 191.539 90.1021C206.511 90.1021 219.534 98.4452 226.213 110.736C226.162 110.614 226.103 110.493 226.036 110.374C228.183 110.144 230.239 109.953 232.193 109.804C238.371 109.331 243.763 109.246 247.859 109.677C249.871 109.889 251.914 110.258 253.681 110.951C255.26 111.571 258.037 113.025 259.031 116.135C259.679 118.161 259.253 119.895 258.601 121.189C258.597 121.197 258.594 121.204 258.59 121.211C258.586 121.219 258.583 121.226 258.579 121.233C258.571 121.248 258.564 121.263 258.556 121.278C258.217 121.93 257.825 122.465 257.492 122.864C256.376 124.205 254.827 125.38 253.211 126.407C249.921 128.496 245.2 130.681 239.568 132.859C236.783 133.936 233.723 135.031 230.427 136.129ZM230.687 124.742C230.707 124.735 230.727 124.728 230.747 124.72C232.179 124.208 233.548 123.699 234.848 123.196C237.983 121.984 240.648 120.834 242.816 119.774C240.306 119.765 237.312 119.885 233.873 120.149C233.311 120.192 231.69 120.38 229.955 120.586C230.27 121.946 230.516 123.332 230.687 124.742ZM152.86 137.266C150.019 138.224 147.383 139.173 144.98 140.102C141.845 141.315 139.18 142.465 137.012 143.524C139.522 143.533 142.516 143.413 145.955 143.15C148.519 142.954 151.285 142.681 154.225 142.335C153.662 140.692 153.204 138.999 152.86 137.266ZM248.817 116.004C248.832 115.98 248.844 115.964 248.85 115.957C248.847 115.961 248.842 115.967 248.837 115.975C248.832 115.982 248.827 115.989 248.821 115.998L248.817 116.004ZM129.565 142.772C129.549 142.766 129.537 142.761 129.528 142.756C129.537 142.76 129.548 142.765 129.562 142.771L129.565 142.772Z"/>
</mask>
<path d="M230.427 136.129L228.214 129.488C225.757 130.307 223.954 132.414 223.524 134.968L230.427 136.129ZM159.31 152.271L165.027 148.231C163.531 146.114 160.986 144.997 158.415 145.329L159.31 152.271ZM147.636 153.495L147.102 146.515L147.102 146.515L147.636 153.495ZM131.969 153.622L132.702 146.66L132.702 146.66L131.969 153.622ZM129.747 153.315L128.535 160.209L128.535 160.209L129.747 153.315ZM126.147 152.347L128.704 145.831L128.704 145.831L126.147 152.347ZM120.797 147.164L127.464 145.032L127.464 145.032L120.797 147.164ZM122.336 140.434L127.715 144.914L127.715 144.914L122.336 140.434ZM126.618 136.892L130.371 142.801L130.371 142.801L126.618 136.892ZM140.261 130.44L137.737 123.911L137.737 123.911L140.261 130.44ZM152.239 126.242L154.377 132.907C157.072 132.043 158.981 129.64 159.215 126.819L152.239 126.242ZM226.213 110.736L220.062 114.078C221.844 117.356 225.883 118.661 229.246 117.045C232.608 115.429 234.112 111.459 232.665 108.02L226.213 110.736ZM226.036 110.374L225.289 103.414C222.95 103.665 220.892 105.075 219.814 107.166C218.736 109.258 218.78 111.752 219.933 113.803L226.036 110.374ZM232.193 109.804L231.658 102.824L231.658 102.824L232.193 109.804ZM247.859 109.677L248.592 102.716L248.592 102.716L247.859 109.677ZM253.681 110.951L251.124 117.468L251.124 117.468L253.681 110.951ZM259.031 116.135L265.699 114.002L265.699 114.002L259.031 116.135ZM258.601 121.189L252.35 118.039C252.333 118.073 252.316 118.106 252.3 118.14L258.601 121.189ZM258.59 121.211L252.318 118.102L252.313 118.112L258.59 121.211ZM258.579 121.233L264.837 124.37L264.837 124.37L258.579 121.233ZM258.556 121.278L252.346 118.048L252.345 118.05L258.556 121.278ZM257.492 122.864L252.113 118.385L252.113 118.385L257.492 122.864ZM253.211 126.407L249.458 120.498L249.458 120.498L253.211 126.407ZM239.568 132.859L237.043 126.33L237.043 126.33L239.568 132.859ZM230.747 124.72L228.388 118.13L228.388 118.13L230.747 124.72ZM230.687 124.742L223.737 125.585C223.994 127.697 225.197 129.579 227.008 130.697C228.818 131.816 231.04 132.05 233.044 131.333L230.687 124.742ZM234.848 123.196L237.372 129.725L237.372 129.725L234.848 123.196ZM242.816 119.774L245.889 126.064C248.812 124.636 250.366 121.381 249.639 118.21C248.912 115.039 246.095 112.786 242.842 112.774L242.816 119.774ZM233.873 120.149L233.338 113.169L233.338 113.169L233.873 120.149ZM229.955 120.586L229.129 113.635C227.153 113.87 225.37 114.935 224.226 116.563C223.083 118.192 222.686 120.23 223.136 122.169L229.955 120.586ZM152.86 137.266L159.726 135.902C159.333 133.927 158.109 132.217 156.367 131.208C154.624 130.199 152.531 129.99 150.623 130.633L152.86 137.266ZM144.98 140.102L142.456 133.573L142.456 133.573L144.98 140.102ZM137.012 143.524L133.939 137.235C131.016 138.663 129.462 141.917 130.189 145.089C130.916 148.26 133.733 150.512 136.986 150.524L137.012 143.524ZM145.955 143.15L146.489 150.13L146.489 150.13L145.955 143.15ZM154.225 142.335L155.045 149.287C157.146 149.039 159.023 147.854 160.15 146.063C161.277 144.271 161.533 142.067 160.847 140.065L154.225 142.335ZM248.85 115.957L254.362 120.272C256.734 117.242 256.215 112.865 253.201 110.473C250.186 108.082 245.806 108.572 243.395 111.571L248.85 115.957ZM248.817 116.004L242.914 112.241C240.908 115.388 241.724 119.555 244.768 121.714C247.812 123.873 252.014 123.264 254.32 120.33L248.817 116.004ZM248.837 115.975L254.589 119.965L254.592 119.96L248.837 115.975ZM248.821 115.998L254.325 120.324C254.456 120.157 254.58 119.984 254.695 119.806L248.821 115.998ZM129.528 142.756L132.422 136.383C128.915 134.79 124.78 136.33 123.169 139.828C121.558 143.327 123.077 147.47 126.567 149.099L129.528 142.756ZM129.565 142.772L126.879 149.237C130.342 150.675 134.324 149.129 135.909 145.731C137.494 142.332 136.119 138.289 132.791 136.56L129.565 142.772ZM129.562 142.771L132.789 136.559C132.616 136.469 132.439 136.387 132.259 136.312L129.562 142.771ZM191.539 175.975C214.548 175.975 233.636 159.247 237.33 137.291L223.524 134.968C220.945 150.296 207.599 161.975 191.539 161.975V175.975ZM153.594 156.311C161.99 168.193 175.855 175.975 191.539 175.975V161.975C180.594 161.975 170.912 156.56 165.027 148.231L153.594 156.311ZM158.415 145.329C154.328 145.856 150.535 146.252 147.102 146.515L148.171 160.475C151.882 160.19 155.918 159.767 160.206 159.214L158.415 145.329ZM147.102 146.515C141.089 146.976 136.18 147.026 132.702 146.66L131.236 160.583C135.949 161.079 141.828 160.96 148.171 160.475L147.102 146.515ZM132.702 146.66C132.087 146.595 131.504 146.516 130.959 146.421L128.535 160.209C129.458 160.371 130.368 160.492 131.236 160.583L132.702 146.66ZM130.959 146.421C130.006 146.253 129.26 146.049 128.704 145.831L123.589 158.863C125.265 159.521 126.97 159.934 128.535 160.209L130.959 146.421ZM128.704 145.831C128.309 145.676 127.939 145.479 127.68 145.268C127.566 145.174 127.51 145.108 127.488 145.077C127.472 145.055 127.469 145.046 127.464 145.032L114.129 149.297C116.124 155.532 121.503 158.045 123.589 158.863L128.704 145.831ZM127.464 145.032C127.46 145.02 127.464 145.031 127.469 145.062C127.473 145.092 127.476 145.13 127.474 145.172C127.472 145.258 127.455 145.31 127.454 145.313C127.454 145.313 127.455 145.312 127.455 145.311C127.456 145.309 127.457 145.307 127.458 145.303C127.461 145.297 127.465 145.288 127.47 145.276C127.482 145.252 127.499 145.219 127.523 145.179C127.574 145.095 127.64 145.005 127.715 144.914L116.957 135.955C115.432 137.786 112.03 142.734 114.129 149.297L127.464 145.032ZM127.715 144.914C128.153 144.389 128.999 143.672 130.371 142.801L122.865 130.983C121.005 132.165 118.753 133.798 116.957 135.955L127.715 144.914ZM130.371 142.801C133.083 141.078 137.305 139.088 142.786 136.969L137.737 123.911C131.952 126.148 126.731 128.528 122.865 130.983L130.371 142.801ZM142.786 136.969C146.204 135.647 150.093 134.282 154.377 132.907L150.1 119.577C145.604 121.019 141.453 122.474 137.737 123.911L142.786 136.969ZM191.539 83.1021C167.197 83.1021 147.235 101.828 145.262 125.665L159.215 126.819C160.592 110.181 174.542 97.1021 191.539 97.1021V83.1021ZM232.364 107.394C224.509 92.9393 209.178 83.1021 191.539 83.1021V97.1021C203.844 97.1021 214.559 103.951 220.062 114.078L232.364 107.394ZM219.933 113.803C219.87 113.691 219.812 113.573 219.761 113.451L232.665 108.02C232.511 107.655 232.336 107.296 232.138 106.945L219.933 113.803ZM231.658 102.824C229.627 102.98 227.5 103.177 225.289 103.414L226.782 117.334C228.866 117.111 230.851 116.927 232.727 116.783L231.658 102.824ZM248.592 102.716C243.879 102.219 238.001 102.339 231.658 102.824L232.727 116.783C238.74 116.323 243.648 116.272 247.126 116.639L248.592 102.716ZM256.239 104.435C253.629 103.411 250.877 102.956 248.592 102.716L247.126 116.639C248.865 116.822 250.199 117.105 251.124 117.468L256.239 104.435ZM265.699 114.002C263.704 107.767 258.325 105.254 256.239 104.435L251.124 117.468C251.519 117.623 251.889 117.82 252.148 118.031C252.262 118.124 252.318 118.191 252.34 118.221C252.356 118.244 252.359 118.252 252.364 118.267L265.699 114.002ZM264.852 124.339C266.104 121.855 267.042 118.201 265.699 114.002L252.364 118.267C252.368 118.281 252.36 118.259 252.356 118.208C252.351 118.158 252.353 118.106 252.359 118.059C252.37 117.97 252.389 117.96 252.35 118.039L264.852 124.339ZM264.861 124.321C264.875 124.293 264.888 124.266 264.902 124.239L252.3 118.14C252.306 118.127 252.312 118.115 252.318 118.102L264.861 124.321ZM264.837 124.37C264.847 124.35 264.857 124.33 264.867 124.31L252.313 118.112C252.316 118.107 252.319 118.102 252.321 118.096L264.837 124.37ZM264.766 124.509C264.79 124.463 264.813 124.417 264.837 124.37L252.321 118.096C252.33 118.08 252.338 118.063 252.346 118.048L264.766 124.509ZM262.872 127.344C263.432 126.671 264.138 125.718 264.767 124.507L252.345 118.05C252.297 118.142 252.218 118.259 252.113 118.385L262.872 127.344ZM256.964 132.316C258.824 131.134 261.076 129.501 262.872 127.344L252.113 118.385C251.676 118.91 250.829 119.627 249.458 120.498L256.964 132.316ZM242.092 139.388C247.877 137.151 253.097 134.771 256.964 132.316L249.458 120.498C246.745 122.22 242.524 124.211 237.043 126.33L242.092 139.388ZM232.64 142.77C236.025 141.642 239.19 140.51 242.092 139.388L237.043 126.33C234.376 127.361 231.422 128.419 228.214 129.488L232.64 142.77ZM228.388 118.13C228.369 118.137 228.349 118.144 228.33 118.151L233.044 131.333C233.064 131.326 233.085 131.318 233.106 131.311L228.388 118.13ZM232.323 116.668C231.083 117.147 229.77 117.635 228.388 118.13L233.106 131.311C234.589 130.78 236.013 130.251 237.372 129.725L232.323 116.668ZM239.743 113.485C237.799 114.435 235.325 115.507 232.323 116.668L237.372 129.725C240.642 128.461 243.498 127.232 245.889 126.064L239.743 113.485ZM234.407 127.128C237.709 126.875 240.511 126.766 242.791 126.774L242.842 112.774C240.101 112.764 236.915 112.895 233.338 113.169L234.407 127.128ZM230.781 127.537C232.611 127.32 234.033 127.157 234.407 127.128L233.338 113.169C232.59 113.226 230.77 113.44 229.129 113.635L230.781 127.537ZM237.636 123.9C237.434 122.24 237.146 120.606 236.774 119.003L223.136 122.169C223.395 123.285 223.597 124.425 223.737 125.585L237.636 123.9ZM150.623 130.633C147.7 131.619 144.966 132.603 142.456 133.573L147.505 146.631C149.799 145.744 152.338 144.829 155.096 143.899L150.623 130.633ZM142.456 133.573C139.186 134.838 136.33 136.067 133.939 137.235L140.084 149.814C142.029 148.864 144.503 147.792 147.505 146.631L142.456 133.573ZM136.986 150.524C139.726 150.534 142.913 150.404 146.489 150.13L145.421 136.171C142.119 136.423 139.317 136.533 137.037 136.524L136.986 150.524ZM146.489 150.13C149.16 149.925 152.023 149.643 155.045 149.287L153.406 135.383C150.548 135.72 147.877 135.982 145.42 136.171L146.489 150.13ZM145.994 138.63C146.4 140.673 146.94 142.668 147.604 144.605L160.847 140.065C160.384 138.715 160.008 137.326 159.726 135.902L145.994 138.63ZM243.395 111.571C243.246 111.755 243.081 111.979 242.914 112.241L254.72 119.767C254.583 119.981 254.442 120.173 254.305 120.344L243.395 111.571ZM254.592 119.96C254.566 119.997 254.536 120.04 254.501 120.087C254.469 120.132 254.421 120.196 254.362 120.272L243.338 111.642C243.224 111.788 243.135 111.913 243.081 111.991L254.592 119.96ZM254.695 119.806C254.661 119.858 254.626 119.911 254.589 119.965L243.085 111.986C243.038 112.053 242.993 112.121 242.948 112.19L254.695 119.806ZM254.32 120.33L254.325 120.324L243.318 111.672L243.313 111.678L254.32 120.33ZM126.567 149.099C126.672 149.148 126.777 149.194 126.879 149.237L132.25 136.308C132.322 136.338 132.402 136.373 132.489 136.413L126.567 149.099ZM132.259 136.312C132.3 136.328 132.355 136.352 132.422 136.383L126.633 149.13C126.718 149.168 126.797 149.202 126.865 149.231L132.259 136.312ZM132.791 136.56L132.789 136.559L126.336 148.983L126.338 148.985L132.791 136.56Z" fill="black" mask="url(#path-13-outside-2)"/>
</svg>
