<svg width="86" height="86" viewBox="0 0 86 86" fill="none" xmlns="http://www.w3.org/2000/svg">
<mask id="path-1-outside-1" maskUnits="userSpaceOnUse" x="0.424805" y="0.407227" width="86" height="86" fill="black">
<rect fill="white" x="0.424805" y="0.407227" width="86" height="86"/>
<path fill-rule="evenodd" clip-rule="evenodd" d="M43.4076 77.3727C62.1757 77.3727 77.3903 62.1581 77.3903 43.39C77.3903 24.6218 62.1757 9.40723 43.4076 9.40723C24.6394 9.40723 9.4248 24.6218 9.4248 43.39C9.4248 62.1581 24.6394 77.3727 43.4076 77.3727ZM57.3324 63.0269C53.4017 65.8193 48.5963 67.4611 43.4076 67.4611C30.1135 67.4611 19.3364 56.6841 19.3364 43.39C19.3364 38.2012 20.9782 33.3959 23.7706 29.4651L57.3324 63.0269ZM64.0693 55.7467L31.0509 22.7282C34.663 20.5634 38.89 19.3189 43.4076 19.3189C56.7017 19.3189 67.4787 30.0959 67.4787 43.39C67.4787 47.9076 66.2342 52.1345 64.0693 55.7467Z"/>
</mask>
<path fill-rule="evenodd" clip-rule="evenodd" d="M43.4076 77.3727C62.1757 77.3727 77.3903 62.1581 77.3903 43.39C77.3903 24.6218 62.1757 9.40723 43.4076 9.40723C24.6394 9.40723 9.4248 24.6218 9.4248 43.39C9.4248 62.1581 24.6394 77.3727 43.4076 77.3727ZM57.3324 63.0269C53.4017 65.8193 48.5963 67.4611 43.4076 67.4611C30.1135 67.4611 19.3364 56.6841 19.3364 43.39C19.3364 38.2012 20.9782 33.3959 23.7706 29.4651L57.3324 63.0269ZM64.0693 55.7467L31.0509 22.7282C34.663 20.5634 38.89 19.3189 43.4076 19.3189C56.7017 19.3189 67.4787 30.0959 67.4787 43.39C67.4787 47.9076 66.2342 52.1345 64.0693 55.7467Z" fill="#FF0000"/>
<path d="M57.3324 63.0269L62.2526 69.9529C64.2916 68.5044 65.5887 66.231 65.7983 63.7386C66.0078 61.2462 65.1084 58.7882 63.3398 57.0196L57.3324 63.0269ZM23.7706 29.4651L29.778 23.4578C28.0094 21.6892 25.5513 20.7898 23.059 20.9993C20.5666 21.2088 18.2932 22.5059 16.8447 24.5449L23.7706 29.4651ZM31.0509 22.7282L26.6835 15.4411C24.4389 16.7864 22.9395 19.091 22.6191 21.6881C22.2987 24.2853 23.1931 26.8852 25.0435 28.7356L31.0509 22.7282ZM64.0693 55.7467L58.062 61.754C59.9123 63.6044 62.5122 64.4988 65.1094 64.1784C67.7066 63.8581 70.0112 62.3587 71.3564 60.1141L64.0693 55.7467ZM68.8946 43.39C68.8946 57.4661 57.4837 68.8771 43.4076 68.8771V85.8684C66.8678 85.8684 85.886 66.8502 85.886 43.39H68.8946ZM43.4076 17.9029C57.4837 17.9029 68.8946 29.3139 68.8946 43.39H85.886C85.886 19.9298 66.8678 0.911537 43.4076 0.911537V17.9029ZM17.9205 43.39C17.9205 29.3139 29.3314 17.9029 43.4076 17.9029V0.911537C19.9474 0.911537 0.929115 19.9298 0.929115 43.39H17.9205ZM43.4076 68.8771C29.3314 68.8771 17.9205 57.4661 17.9205 43.39H0.929115C0.929115 66.8502 19.9474 85.8684 43.4076 85.8684V68.8771ZM43.4076 75.9568C50.4167 75.9568 56.9318 73.7328 62.2526 69.9529L52.4122 56.101C49.8716 57.9059 46.7759 58.9654 43.4076 58.9654V75.9568ZM10.8408 43.39C10.8408 61.3761 25.4214 75.9568 43.4076 75.9568V58.9654C34.8055 58.9654 27.8321 51.9921 27.8321 43.39H10.8408ZM16.8447 24.5449C13.0647 29.8658 10.8408 36.3808 10.8408 43.39H27.8321C27.8321 40.0216 28.8917 36.926 30.6965 34.3853L16.8447 24.5449ZM63.3398 57.0196L29.778 23.4578L17.7632 35.4725L51.3251 69.0343L63.3398 57.0196ZM25.0435 28.7356L58.062 61.754L70.0767 49.7393L37.0582 16.7209L25.0435 28.7356ZM43.4076 10.8232C37.3092 10.8232 31.5783 12.5075 26.6835 15.4411L35.4183 30.0154C37.7477 28.6193 40.4707 27.8146 43.4076 27.8146V10.8232ZM75.9744 43.39C75.9744 25.4038 61.3937 10.8232 43.4076 10.8232V27.8146C52.0096 27.8146 58.983 34.7879 58.983 43.39H75.9744ZM71.3564 60.1141C74.2901 55.2192 75.9744 49.4883 75.9744 43.39H58.983C58.983 46.3268 58.1783 49.0498 56.7822 51.3792L71.3564 60.1141Z" fill="black" mask="url(#path-1-outside-1)"/>
</svg>
