<svg width="422" height="282" viewBox="0 0 422 282" fill="none" xmlns="http://www.w3.org/2000/svg">
<mask id="path-1-outside-1" maskUnits="userSpaceOnUse" x="0" y="0" width="422" height="282" fill="black">
<rect fill="white" width="422" height="282"/>
<path fill-rule="evenodd" clip-rule="evenodd" d="M7 16.633C7 11.3129 11.3129 7 16.633 7H405.807C411.128 7 415.44 11.3129 415.44 16.633V225.349C415.44 230.669 411.128 234.982 405.807 234.982H16.633C11.3129 234.982 7 230.669 7 225.349V16.633ZM194.855 245.257C190.96 245.257 187.449 247.602 185.957 251.198L181.427 262.116C178.796 268.459 183.457 275.44 190.325 275.44H230.806C238.003 275.44 242.658 267.836 239.385 261.427L233.811 250.509C232.165 247.286 228.851 245.257 225.231 245.257H211.22H194.855Z"/>
</mask>
<path d="M185.957 251.198L180.025 248.737L180.025 248.737L185.957 251.198ZM181.427 262.116L187.359 264.577L187.359 264.577L181.427 262.116ZM239.385 261.427L233.666 264.347L233.666 264.347L239.385 261.427ZM233.811 250.509L239.53 247.588L239.53 247.588L233.811 250.509ZM16.633 0.577981C7.76606 0.577981 0.577981 7.76609 0.577981 16.633H13.422C13.422 14.8596 14.8596 13.422 16.633 13.422V0.577981ZM405.807 0.577981H16.633V13.422H405.807V0.577981ZM421.862 16.633C421.862 7.76607 414.674 0.577981 405.807 0.577981V13.422C407.581 13.422 409.018 14.8596 409.018 16.633H421.862ZM421.862 225.349V16.633H409.018V225.349H421.862ZM405.807 241.404C414.674 241.404 421.862 234.216 421.862 225.349H409.018C409.018 227.122 407.581 228.56 405.807 228.56V241.404ZM16.633 241.404H405.807V228.56H16.633V241.404ZM0.577981 225.349C0.577981 234.216 7.76607 241.404 16.633 241.404V228.56C14.8596 228.56 13.422 227.122 13.422 225.349H0.577981ZM0.577981 16.633V225.349H13.422V16.633H0.577981ZM191.889 253.659C192.386 252.46 193.557 251.679 194.855 251.679V238.835C188.364 238.835 182.513 242.743 180.025 248.737L191.889 253.659ZM187.359 264.577L191.889 253.659L180.025 248.737L175.496 259.655L187.359 264.577ZM190.325 269.018C188.036 269.018 186.482 266.691 187.359 264.577L175.496 259.655C171.109 270.227 178.879 281.862 190.325 281.862V269.018ZM230.806 269.018H190.325V281.862H230.806V269.018ZM233.666 264.347C234.757 266.484 233.205 269.018 230.806 269.018V281.862C242.801 281.862 250.56 269.188 245.105 258.506L233.666 264.347ZM228.091 253.43L233.666 264.347L245.105 258.506L239.53 247.588L228.091 253.43ZM225.231 251.679C226.438 251.679 227.542 252.355 228.091 253.43L239.53 247.588C236.787 242.216 231.263 238.835 225.231 238.835V251.679ZM211.22 251.679H225.231V238.835H211.22V251.679ZM194.855 251.679H211.22V238.835H194.855V251.679Z" fill="black" mask="url(#path-1-outside-1)"/>
<rect x="11.8165" y="11.8165" width="398.807" height="218.349" rx="4.81651" fill="white" stroke="#A5A5A5" stroke-width="9.63303"/>
<path d="M185.957 251.198C187.45 247.601 190.961 245.257 194.855 245.257H211.221H225.232C228.851 245.257 232.165 247.286 233.811 250.509L239.386 261.426C242.659 267.836 238.003 275.44 230.806 275.44H190.325C183.458 275.44 178.796 268.459 181.428 262.116L185.957 251.198Z" fill="#A5A5A5"/>
</svg>
