<svg width="202" height="368" viewBox="0 0 202 368" fill="none" xmlns="http://www.w3.org/2000/svg">
<rect width="75.5998" height="68.1881" rx="27.2576" transform="matrix(-1 0 0 1 166.143 16.3057)" fill="#FFBA09"/>
<path d="M168.959 188.547C169.31 180.787 163.113 174.304 155.345 174.304L142.21 174.304C134.683 174.304 128.581 180.406 128.581 187.933L128.581 315.295C128.581 322.615 134.364 328.627 141.678 328.913L149.049 329.201C156.538 329.493 162.858 323.684 163.196 316.197L168.959 188.547Z" fill="#0094FF"/>
<path d="M138.896 182.143C140.75 173.43 133.924 164.913 125.085 164.913L111.219 164.912C104.859 164.911 99.5618 169.436 98.5045 175.772L76.0975 310.054C74.8586 317.479 79.8174 324.791 87.1733 326.387L94.5415 327.985C101.668 329.531 108.477 325.141 109.992 318.023L138.896 182.143Z" fill="#0094FF"/>
<rect width="45.8234" height="49.7735" rx="13.6288" transform="matrix(-0.982336 -0.187128 -0.186679 0.982421 152.663 194.409)" fill="#0094FF"/>
<rect width="20.4415" height="34.0325" rx="10.2207" transform="matrix(0.258819 0.965926 0.966087 -0.258218 24.9053 184.003)" fill="#FFE2C7"/>
<path fill-rule="evenodd" clip-rule="evenodd" d="M107.425 112.401C106.662 108.861 103.82 106.217 100.324 105.28C90.5975 102.674 80.2831 115.851 80.4396 125.922C80.5091 130.399 79.9683 134.966 78.7555 139.515C76.5294 147.864 72.3104 155.135 66.7653 160.933C60.9866 166.975 59.2392 177.11 65.1591 183.026C68.6188 186.484 73.8778 187.649 78.054 185.114C90.9861 177.263 101.658 163.099 106.395 145.332C109.438 133.921 109.619 122.575 107.425 112.401Z" fill="#FFE2C7"/>
<path d="M165.563 117.043C165.563 105.262 155.632 95.9193 143.874 96.6378L113.551 98.4904C102.891 99.1418 94.5284 107.89 94.3575 118.569L93.5734 167.578C93.3963 178.646 102.06 187.844 113.119 188.329L144.225 189.692C155.856 190.202 165.563 180.911 165.563 169.269V117.043Z" fill="#304967"/>
<rect width="23.3299" height="35.7726" rx="11.665" transform="matrix(0.610433 0.792068 0.791333 -0.611386 116.582 213.396)" fill="#FFE2C7"/>
<path fill-rule="evenodd" clip-rule="evenodd" d="M159.406 102.686C156.987 100.691 153.647 100.378 150.754 101.587C141.955 105.265 142.492 124.773 148.499 132.177C151.091 135.372 153.267 138.976 154.923 142.95C160.126 155.436 159.127 169.026 153.328 180.507C150.933 185.248 150.796 191.054 154.047 195.25C157.39 199.565 163.417 201.113 167.663 197.678C184.74 183.86 190.129 155.981 179.272 129.925C174.612 118.741 167.608 109.452 159.406 102.686Z" fill="#FFE2C7"/>
<rect width="68.7398" height="61.3296" rx="27.2576" transform="matrix(-1 0 0 1 160.905 27.2871)" fill="#FFBA09"/>
<rect width="34.0296" height="49.7451" rx="17.0148" transform="matrix(-1 0 0 1 124.715 28.21)" fill="#FFBA09"/>
<path d="M91.9033 52.7566C91.9033 79.5651 97.5632 89.6743 114.712 89.6743C131.86 89.6743 158.699 77.5567 158.699 58.4994C158.699 39.4421 136.748 15.0186 119.599 15.0186C102.451 15.0186 91.9033 28.2392 91.9033 52.7566Z" fill="#FFE2C7"/>
<path d="M140.071 79.9989C140.071 72.4719 133.969 66.3701 126.442 66.3701H125.115C117.588 66.3701 111.486 72.4719 111.486 79.9989V91.5834C111.486 99.1104 117.588 105.212 125.115 105.212H126.443C133.969 105.212 140.071 99.1104 140.071 91.5834V79.9989Z" fill="#FFE2C7"/>
<path fill-rule="evenodd" clip-rule="evenodd" d="M157.484 58.5874C160.806 41.7894 151.005 25.5181 135.291 22.0089C129.825 20.7882 124.352 21.2701 119.365 23.1174C116.043 39.9154 125.844 56.1867 141.558 59.6959C147.024 60.9166 152.497 60.4347 157.484 58.5874Z" fill="#FFBA09"/>
<path fill-rule="evenodd" clip-rule="evenodd" d="M101.57 21.6953C110.447 13.6121 122.671 10.0287 134.579 13.2256C150.593 17.5246 160.981 32.7278 160.802 49.5733C152.512 55.2588 140.955 57.3033 129.356 54.1895C112.601 49.6918 101.295 35.9176 101.57 21.6953Z" fill="#FFBA09"/>
<path fill-rule="evenodd" clip-rule="evenodd" d="M139.989 87.0646C148.002 72.4437 144.488 53.0745 130.62 40.8812C119.497 31.1013 104.662 28.5312 92.2886 32.9769C93.4539 30.8504 94.8631 28.8244 96.5197 26.9356C109.567 12.0593 133.021 11.3219 148.906 25.2885C164.79 39.2552 167.091 62.6369 154.044 77.5132C150.133 81.9725 145.286 85.1614 139.989 87.0646Z" fill="#FFBA09"/>
<path fill-rule="evenodd" clip-rule="evenodd" d="M132.172 67.8759C133.231 71.8351 138.286 73.0008 141.219 70.137C144.307 67.1219 145.744 62.7456 144.606 58.4903C143.547 54.531 138.492 53.3654 135.559 56.2291C132.47 59.2443 131.034 63.6206 132.172 67.8759Z" fill="#FFE2C7"/>
<path d="M86.3841 65.4774L91.4869 48.59C92.4676 45.3447 97.1951 45.7865 97.5575 49.1573L99.6675 68.7852C99.9156 71.0932 97.6398 72.85 95.4698 72.0255L88.257 69.285C86.7295 68.7046 85.9115 67.0415 86.3841 65.4774Z" fill="#FFE2C7"/>
<rect x="103.672" y="52.7197" width="7.77664" height="11.665" rx="3.88832" transform="rotate(-15 103.672 52.7197)" fill="black"/>
<rect width="5.08317" height="13.4489" rx="2.54159" transform="matrix(4.37114e-08 -1 0.999907 0.0136318 101.318 42.8604)" fill="black"/>
<path d="M97.2137 83.0125C100.758 82.8172 106.363 81.9075 109.072 77.824C109.072 77.824 103.092 84.3727 97.2137 83.0125Z" stroke="black" stroke-width="5.13258" stroke-linecap="round" stroke-linejoin="round"/>
<path d="M116.482 339.178C111.215 339.799 107.245 344.264 107.245 349.567C107.245 355.345 111.929 360.028 117.706 360.028L152.587 360.028C159.495 360.028 165.095 354.428 165.095 347.52C165.095 340.032 158.561 334.222 151.124 335.098L116.482 339.178Z" fill="#C08CF4"/>
<path d="M54.2519 330.492C48.9629 330.1 44.2193 333.729 43.2134 338.936C42.1178 344.609 45.8275 350.097 51.4992 351.195L85.748 357.827C92.5298 359.14 99.0896 354.707 100.4 347.924C101.82 340.573 96.5062 333.626 89.0394 333.072L54.2519 330.492Z" fill="#C08CF4"/>
<circle r="12.9585" transform="matrix(-1 0 0 1 168.007 63.3579)" fill="#FFBA09"/>
<circle r="11.3068" transform="matrix(-1 0 0 1 110.457 57.3419)" stroke="black" stroke-width="4.84579"/>
<line y1="-2.42289" x2="11.3068" y2="-2.42289" transform="matrix(-1 8.74227e-08 8.74227e-08 1 98.3418 59.7637)" stroke="black" stroke-width="4.84579"/>
<mask id="path-27-outside-1" maskUnits="userSpaceOnUse" x="19.8965" y="4.06348" width="172" height="363" fill="black">
<rect fill="white" x="19.8965" y="4.06348" width="172" height="363"/>
<path fill-rule="evenodd" clip-rule="evenodd" d="M142.675 16.5676C155.935 18.4125 166.142 29.7961 166.142 43.5637V50.5333C166.751 50.4455 167.374 50.4001 168.007 50.4001C175.164 50.4001 180.965 56.2018 180.965 63.3586C180.965 70.5154 175.164 76.3171 168.007 76.3171C165.192 76.3171 162.586 75.4194 160.461 73.8946C158.407 76.5517 155.873 78.8188 152.988 80.5662C149.495 84.0835 145.049 86.6533 140.07 87.8561V91.5837C140.07 93.4844 139.681 95.2943 138.978 96.938L143.873 96.6389C150.534 96.232 156.608 99.0534 160.623 103.718C168.3 110.384 174.844 119.3 179.272 129.926C189.931 155.508 184.93 182.849 168.582 196.912L163.196 316.198C162.858 323.685 156.538 329.494 149.049 329.202L141.678 328.914C134.363 328.628 128.581 322.615 128.581 315.295V240.491L126.566 240.107L109.991 318.023C108.477 325.141 101.668 329.532 94.5409 327.986L87.1728 326.387C79.8169 324.792 74.858 317.48 76.0969 310.055L97.7496 180.294C95.7053 177.613 94.3112 174.416 93.7936 170.942C89.2267 176.779 83.8686 181.585 78.0537 185.116C73.8775 187.651 68.6185 186.486 65.1587 183.028C59.2389 177.112 60.9863 166.976 66.7649 160.935C72.3101 155.137 76.5291 147.866 78.7551 139.517C79.968 134.968 80.5088 130.4 80.4392 125.924C80.2862 116.073 90.1492 103.252 99.6821 105.132C103.112 101.367 107.937 98.8828 113.37 98.5034C112.173 96.4752 111.485 94.1097 111.485 91.5837V89.5422C101.148 88.6492 95.6457 83.1672 93.3042 71.2033L88.2564 69.2854C86.729 68.705 85.9109 67.0419 86.3836 65.4778L90.5421 51.7156V43.5637C90.5421 39.7477 91.3262 36.1148 92.7422 32.8175C92.5904 32.8696 92.439 32.9228 92.288 32.9771C92.8846 31.8884 93.5452 30.8261 94.2701 29.7949C96.1735 26.5493 98.7292 23.7325 101.757 21.5246C110.619 13.5619 122.754 10.0515 134.578 13.2258C137.47 14.0022 140.179 15.1343 142.675 16.5676ZM27.5498 193.877C26.0888 188.424 29.3253 182.823 34.7786 181.365L47.9086 177.856C53.362 176.398 58.9671 179.636 60.4281 185.089C61.8891 190.541 58.6526 196.143 53.1993 197.601L40.0692 201.11C34.6159 202.568 29.0108 199.329 27.5498 193.877ZM107.245 349.568C107.245 344.264 111.215 339.799 116.482 339.179L151.124 335.098C158.561 334.222 165.095 340.033 165.095 347.521C165.095 354.429 159.495 360.029 152.587 360.029H117.706C111.929 360.029 107.245 355.345 107.245 349.568ZM54.2513 330.493C48.9624 330.101 44.2187 333.73 43.2129 338.937C42.1173 344.609 45.827 350.098 51.4987 351.196L85.7475 357.828C92.5293 359.141 99.0891 354.707 100.399 347.925C101.819 340.573 96.5057 333.626 89.0389 333.073L54.2513 330.493Z"/>
</mask>
<path d="M142.675 16.5676L141.71 23.5008C140.823 23.3773 139.967 23.0844 139.19 22.6381L142.675 16.5676ZM166.142 50.5333L167.141 57.4617C165.131 57.7514 163.094 57.154 161.559 55.8244C160.024 54.4948 159.142 52.5641 159.142 50.5333H166.142ZM160.461 73.8946L154.923 69.613C157.228 66.6317 161.48 66.0102 164.542 68.2071L160.461 73.8946ZM152.988 80.5662L148.021 75.6337C148.423 75.2289 148.873 74.8748 149.361 74.5793L152.988 80.5662ZM140.07 87.8561H133.07C133.07 84.6232 135.284 81.8108 138.427 81.0518L140.07 87.8561ZM138.978 96.938L139.405 103.925C136.982 104.073 134.655 102.955 133.256 100.97C131.858 98.9855 131.587 96.418 132.542 94.1856L138.978 96.938ZM143.873 96.6389L144.3 103.626H144.3L143.873 96.6389ZM160.623 103.718L156.033 109.003C155.778 108.781 155.539 108.541 155.318 108.284L160.623 103.718ZM179.272 129.926L185.733 127.234H185.733L179.272 129.926ZM168.582 196.912L161.589 196.596C161.676 194.669 162.554 192.863 164.017 191.605L168.582 196.912ZM163.196 316.198L170.189 316.514L163.196 316.198ZM149.049 329.202L149.322 322.207L149.049 329.202ZM141.678 328.914L141.405 335.908H141.405L141.678 328.914ZM128.581 240.491L129.891 233.615C133.193 234.244 135.581 237.13 135.581 240.491H128.581ZM126.566 240.107L119.719 238.651C120.511 234.926 124.135 232.518 127.876 233.231L126.566 240.107ZM109.991 318.023L116.838 319.48H116.838L109.991 318.023ZM94.5409 327.986L96.0249 321.145L96.0249 321.145L94.5409 327.986ZM87.1728 326.387L85.6888 333.228H85.6888L87.1728 326.387ZM76.0969 310.055L69.1924 308.903L76.0969 310.055ZM97.7496 180.294L103.316 176.049C104.488 177.586 104.972 179.539 104.654 181.446L97.7496 180.294ZM93.7936 170.942L88.2807 166.628C90.0047 164.425 92.8749 163.46 95.5798 164.174C98.2847 164.888 100.305 167.143 100.717 169.91L93.7936 170.942ZM78.0537 185.116L74.421 179.132V179.132L78.0537 185.116ZM65.1587 183.028L70.1069 178.077L70.1069 178.077L65.1587 183.028ZM66.7649 160.935L71.8236 165.773L66.7649 160.935ZM78.7551 139.517L71.9914 137.714H71.9914L78.7551 139.517ZM80.4392 125.924L87.4384 125.815V125.815L80.4392 125.924ZM99.6821 105.132L104.857 109.846C103.208 111.657 100.731 112.474 98.3278 112L99.6821 105.132ZM113.37 98.5034L119.398 94.9442C120.631 97.0333 120.695 99.6121 119.567 101.76C118.438 103.907 116.278 105.317 113.858 105.486L113.37 98.5034ZM111.485 89.5422L112.088 82.5682C115.707 82.8809 118.485 85.9098 118.485 89.5422H111.485ZM93.3042 71.2033L95.7905 64.6597C98.0518 65.5189 99.7093 67.4848 100.174 69.8588L93.3042 71.2033ZM88.2564 69.2854L85.7702 75.829L85.7701 75.829L88.2564 69.2854ZM86.3836 65.4778L93.0843 67.5025V67.5026L86.3836 65.4778ZM90.5421 51.7156H97.5421C97.5421 52.4015 97.4412 53.0838 97.2428 53.7404L90.5421 51.7156ZM92.7422 32.8175L90.4664 26.1977C93.0854 25.2974 95.9889 26.0257 97.8728 28.0554C99.7568 30.0852 100.267 33.0349 99.1742 35.5795L92.7422 32.8175ZM92.288 32.9771L94.6548 39.5649C91.9172 40.5484 88.8566 39.7364 86.9666 37.525C85.0767 35.3137 84.7514 32.1639 86.1494 29.613L92.288 32.9771ZM94.2701 29.7949L100.308 33.336C100.211 33.5019 100.107 33.6637 99.9965 33.821L94.2701 29.7949ZM101.757 21.5246L106.436 26.7314C106.259 26.8905 106.074 27.0404 105.881 27.1806L101.757 21.5246ZM134.578 13.2258L132.763 19.9864H132.763L134.578 13.2258ZM34.7786 181.365L32.9711 174.602L34.7786 181.365ZM47.9086 177.856L49.7162 184.618L47.9086 177.856ZM60.4281 185.089L53.6666 186.901V186.901L60.4281 185.089ZM53.1993 197.601L51.3918 190.838H51.3918L53.1993 197.601ZM40.0692 201.11L41.8768 207.873L40.0692 201.11ZM116.482 339.179L115.663 332.227L116.482 339.179ZM151.124 335.098L150.305 328.146H150.305L151.124 335.098ZM43.2129 338.937L50.0859 340.265L43.2129 338.937ZM54.2513 330.493L54.769 323.512H54.769L54.2513 330.493ZM51.4987 351.196L52.8294 344.324H52.8294L51.4987 351.196ZM85.7475 357.828L84.4168 364.7H84.4167L85.7475 357.828ZM100.399 347.925L107.272 349.252L100.399 347.925ZM89.0389 333.073L88.5213 340.054H88.5212L89.0389 333.073ZM159.142 43.5637C159.142 33.3376 151.558 24.871 141.71 23.5008L143.64 9.63436C160.311 11.954 173.142 26.2546 173.142 43.5637H159.142ZM159.142 50.5333V43.5637H173.142V50.5333H159.142ZM168.007 57.4001C167.709 57.4001 167.42 57.4215 167.141 57.4617L165.143 43.6049C166.082 43.4696 167.038 43.4001 168.007 43.4001V57.4001ZM173.965 63.3586C173.965 60.0678 171.298 57.4001 168.007 57.4001V43.4001C179.03 43.4001 187.965 52.3358 187.965 63.3586H173.965ZM168.007 69.3171C171.298 69.3171 173.965 66.6494 173.965 63.3586H187.965C187.965 74.3814 179.03 83.3171 168.007 83.3171V69.3171ZM164.542 68.2071C165.517 68.9067 166.704 69.3171 168.007 69.3171V83.3171C163.68 83.3171 159.656 81.932 156.38 79.5822L164.542 68.2071ZM149.361 74.5793C151.506 73.28 153.393 71.5919 154.923 69.613L165.999 78.1763C163.42 81.5114 160.239 84.3577 156.616 86.5531L149.361 74.5793ZM138.427 81.0518C142.114 80.1612 145.418 78.2556 148.021 75.6337L157.955 85.4987C153.573 89.9114 147.985 93.1455 141.714 94.6604L138.427 81.0518ZM133.07 91.5837V87.8561H147.07V91.5837H133.07ZM132.542 94.1856C132.88 93.3959 133.07 92.5211 133.07 91.5837H147.07C147.07 94.4478 146.483 97.1927 145.414 99.6904L132.542 94.1856ZM144.3 103.626L139.405 103.925L138.551 89.951L143.446 89.652L144.3 103.626ZM155.318 108.284C152.663 105.201 148.676 103.358 144.3 103.626L143.446 89.652C152.391 89.1054 160.553 92.906 165.928 99.1508L155.318 108.284ZM172.81 132.619C168.787 122.962 162.873 114.942 156.033 109.003L165.213 98.4322C173.728 105.826 180.901 115.638 185.733 127.234L172.81 132.619ZM164.017 191.605C177.503 180.004 182.62 156.161 172.81 132.619L185.733 127.234C197.243 154.855 192.357 185.694 173.146 202.218L164.017 191.605ZM156.203 315.882L161.589 196.596L175.574 197.227L170.189 316.514L156.203 315.882ZM149.322 322.207C152.965 322.349 156.039 319.524 156.203 315.882L170.189 316.514C169.677 327.846 160.111 336.639 148.776 336.196L149.322 322.207ZM141.951 321.919L149.322 322.207L148.776 336.196L141.405 335.908L141.951 321.919ZM135.581 315.295C135.581 318.856 138.394 321.78 141.951 321.919L141.405 335.908C130.333 335.476 121.581 326.375 121.581 315.295H135.581ZM135.581 240.491V315.295H121.581V240.491H135.581ZM127.876 233.231L129.891 233.615L127.271 247.367L125.256 246.984L127.876 233.231ZM103.144 316.567L119.719 238.651L133.412 241.564L116.838 319.48L103.144 316.567ZM96.0249 321.145C99.3768 321.872 102.44 319.879 103.144 316.567L116.838 319.48C114.514 330.404 103.959 337.192 93.057 334.827L96.0249 321.145ZM88.6567 319.547L96.0249 321.145L93.057 334.827L85.6888 333.228L88.6567 319.547ZM83.0014 311.207C82.3773 314.948 84.9506 318.743 88.6567 319.547L85.6888 333.228C74.6831 330.841 67.3388 320.011 69.1924 308.903L83.0014 311.207ZM104.654 181.446L83.0014 311.207L69.1924 308.903L90.8451 179.142L104.654 181.446ZM100.717 169.91C101.056 172.184 101.969 174.282 103.316 176.049L92.1833 184.538C89.4421 180.944 87.5664 176.647 86.8701 171.974L100.717 169.91ZM74.421 179.132C79.4628 176.071 84.1966 171.848 88.2807 166.628L99.3065 175.256C94.2567 181.71 88.2745 187.1 81.6864 191.099L74.421 179.132ZM70.1069 178.077C71.7864 179.755 73.5636 179.653 74.421 179.132L81.6864 191.099C74.1913 195.65 65.4506 193.216 60.2105 187.979L70.1069 178.077ZM71.8236 165.773C69.9829 167.697 68.7921 170.304 68.5373 172.753C68.2895 175.134 68.9334 176.904 70.1069 178.077L60.2105 187.979C55.4642 183.236 54.0219 176.98 54.6125 171.304C55.196 165.696 57.7683 160.213 61.7063 156.096L71.8236 165.773ZM85.5189 141.32C82.9831 150.831 78.1673 159.141 71.8236 165.773L61.7063 156.096C66.4529 151.134 70.0751 144.901 71.9914 137.714L85.5189 141.32ZM87.4384 125.815C87.5179 130.931 86.8994 136.142 85.5189 141.32L71.9914 137.714C73.0366 133.794 73.4997 129.87 73.4401 126.032L87.4384 125.815ZM98.3278 112C97.1478 111.767 94.632 112.349 91.7202 115.711C88.9247 118.94 87.3946 122.999 87.4384 125.815L73.4401 126.032C73.3308 118.998 76.6558 111.722 81.1367 106.547C85.5014 101.506 92.6835 96.6174 101.036 98.2647L98.3278 112ZM113.858 105.486C110.286 105.736 107.12 107.362 104.857 109.846L94.5071 100.419C99.105 95.3708 105.588 92.0298 112.883 91.5204L113.858 105.486ZM118.485 91.5837C118.485 92.8237 118.819 93.9644 119.398 94.9442L107.343 102.063C105.526 98.9859 104.485 95.3957 104.485 91.5837H118.485ZM118.485 89.5422V91.5837H104.485V89.5422H118.485ZM100.174 69.8588C101.203 75.1184 102.751 77.9701 104.36 79.5889C105.849 81.0861 108.079 82.2219 112.088 82.5682L110.883 96.5163C104.554 95.9695 98.8646 93.9177 94.4323 89.4597C90.1209 85.1233 87.7467 79.252 86.4345 72.5478L100.174 69.8588ZM90.7426 62.7418L95.7905 64.6597L90.818 77.7469L85.7702 75.829L90.7426 62.7418ZM93.0843 67.5026C93.6753 65.5469 92.6524 63.4674 90.7427 62.7418L85.7701 75.829C80.8056 73.9427 78.1466 68.5368 79.6828 63.453L93.0843 67.5026ZM97.2428 53.7404L93.0843 67.5025L79.6828 63.453L83.8413 49.6908L97.2428 53.7404ZM97.5421 43.5637V51.7156H83.5421V43.5637H97.5421ZM99.1742 35.5795C98.1261 38.0204 97.5421 40.7147 97.5421 43.5637H83.5421C83.5421 38.7806 84.5264 34.2093 86.3102 30.0554L99.1742 35.5795ZM89.9212 26.3894C90.1025 26.3242 90.2842 26.2604 90.4664 26.1977L95.0179 39.4372C94.8966 39.4789 94.7756 39.5215 94.6548 39.5649L89.9212 26.3894ZM99.9965 33.821C99.4221 34.6379 98.899 35.4792 98.4266 36.3413L86.1494 29.613C86.8702 28.2976 87.6683 27.0142 88.5438 25.7689L99.9965 33.821ZM105.881 27.1806C103.626 28.8249 101.724 30.9228 100.308 33.336L88.2318 26.2539C90.6234 22.1757 93.832 18.6401 97.6331 15.8685L105.881 27.1806ZM132.763 19.9864C123.448 17.4858 113.713 20.1927 106.436 26.7314L97.0788 16.3177C107.525 6.93117 122.059 2.61733 136.393 6.46512L132.763 19.9864ZM139.19 22.6381C137.212 21.5024 135.064 20.604 132.763 19.9864L136.393 6.46512C139.877 7.40037 143.146 8.76627 146.161 10.4971L139.19 22.6381ZM36.5861 188.128C34.8693 188.587 33.8513 190.348 34.3113 192.065L20.7883 195.688C18.3263 186.5 23.7812 177.059 32.9711 174.602L36.5861 188.128ZM49.7162 184.618L36.5861 188.128L32.9711 174.602L46.1011 171.093L49.7162 184.618ZM53.6666 186.901C53.2058 185.181 51.4363 184.158 49.7162 184.618L46.1011 171.093C55.2877 168.638 64.7284 174.092 67.1896 183.277L53.6666 186.901ZM51.3918 190.838C53.1086 190.379 54.1266 188.617 53.6666 186.901L67.1896 183.277C69.6516 192.465 64.1967 201.907 55.0068 204.363L51.3918 190.838ZM38.2617 194.347L51.3918 190.838L55.0068 204.363L41.8768 207.873L38.2617 194.347ZM34.3113 192.065C34.7721 193.785 36.5416 194.807 38.2617 194.347L41.8768 207.873C32.6902 210.328 23.2494 204.873 20.7883 195.688L34.3113 192.065ZM117.301 346.131C115.558 346.336 114.245 347.813 114.245 349.568H100.245C100.245 340.715 106.871 333.263 115.663 332.227L117.301 346.131ZM151.943 342.05L117.301 346.131L115.663 332.227L150.305 328.146L151.943 342.05ZM158.095 347.521C158.095 344.223 155.218 341.665 151.943 342.05L150.305 328.146C161.904 326.78 172.095 335.842 172.095 347.521H158.095ZM152.587 353.029C155.629 353.029 158.095 350.563 158.095 347.521H172.095C172.095 358.295 163.361 367.029 152.587 367.029V353.029ZM117.706 353.029H152.587V367.029H117.706V353.029ZM114.245 349.568C114.245 351.479 115.795 353.029 117.706 353.029V367.029C108.063 367.029 100.245 359.211 100.245 349.568H114.245ZM36.3399 337.61C38.0191 328.916 45.939 322.857 54.769 323.512L53.7337 337.474C51.9858 337.344 50.4184 338.543 50.0859 340.265L36.3399 337.61ZM50.1679 358.068C40.702 356.236 34.5114 347.076 36.3399 337.61L50.0859 340.265C49.7232 342.142 50.9519 343.96 52.8294 344.324L50.1679 358.068ZM84.4167 364.7L50.1679 358.068L52.8294 344.324L87.0782 350.956L84.4167 364.7ZM107.272 349.252C105.229 359.832 94.9953 366.749 84.4168 364.7L87.0782 350.956C90.0633 351.534 92.9495 349.583 93.5261 346.597L107.272 349.252ZM89.5566 326.092C101.202 326.955 109.486 337.788 107.272 349.252L93.5261 346.597C94.1518 343.358 91.8098 340.297 88.5213 340.054L89.5566 326.092ZM54.769 323.512L89.5566 326.092L88.5212 340.054L53.7337 337.474L54.769 323.512Z" fill="black" mask="url(#path-27-outside-1)"/>
</svg>
