<svg width="197" height="126" viewBox="0 0 197 126" fill="none" xmlns="http://www.w3.org/2000/svg">
<mask id="path-1-outside-1" maskUnits="userSpaceOnUse" x="0" y="0" width="197" height="126" fill="black">
<rect fill="white" width="197" height="126"/>
<path fill-rule="evenodd" clip-rule="evenodd" d="M7 12C7 9.23858 9.23858 7 12 7H185C187.761 7 190 9.23858 190 12V92C190 94.7614 187.761 97 185 97H164C161.239 97 159 99.2386 159 102V113.956C159 118.084 154.28 120.434 150.986 117.945L124.602 98.0107C123.734 97.3548 122.676 97 121.588 97H12C9.23858 97 7 94.7614 7 92V12Z"/>
</mask>
<path fill-rule="evenodd" clip-rule="evenodd" d="M7 12C7 9.23858 9.23858 7 12 7H185C187.761 7 190 9.23858 190 12V92C190 94.7614 187.761 97 185 97H164C161.239 97 159 99.2386 159 102V113.956C159 118.084 154.28 120.434 150.986 117.945L124.602 98.0107C123.734 97.3548 122.676 97 121.588 97H12C9.23858 97 7 94.7614 7 92V12Z" fill="white"/>
<path d="M124.602 98.0107L120.383 103.596L124.602 98.0107ZM150.986 117.945L146.766 123.53L150.986 117.945ZM185 0H12V14H185V0ZM197 92V12H183V92H197ZM164 104H185V90H164V104ZM166 113.956V102H152V113.956H166ZM120.383 103.596L146.766 123.53L155.206 112.36L128.822 92.4256L120.383 103.596ZM12 104H121.588V90H12V104ZM0 12V92H14V12H0ZM12 90C13.1046 90 14 90.8954 14 92H0C0 98.6274 5.37258 104 12 104V90ZM128.822 92.4256C126.739 90.8516 124.199 90 121.588 90V104C121.153 104 120.73 103.858 120.383 103.596L128.822 92.4256ZM152 113.956C152 112.304 153.888 111.364 155.206 112.36L146.766 123.53C154.671 129.503 166 123.864 166 113.956H152ZM164 90C157.373 90 152 95.3726 152 102H166C166 103.105 165.105 104 164 104V90ZM183 92C183 90.8954 183.895 90 185 90V104C191.627 104 197 98.6274 197 92H183ZM12 0C5.37259 0 0 5.37258 0 12H14C14 13.1046 13.1046 14 12 14V0ZM185 14C183.895 14 183 13.1046 183 12H197C197 5.37259 191.627 0 185 0V14Z" fill="black" mask="url(#path-1-outside-1)"/>
<path d="M33.9464 50.144C33.4824 50.144 33.1064 50 32.8184 49.712C32.5464 49.424 32.4104 49.048 32.4104 48.584V34.496C32.4104 34.032 32.5464 33.664 32.8184 33.392C33.1064 33.104 33.4824 32.96 33.9464 32.96C34.4264 32.96 34.8024 33.104 35.0744 33.392C35.3624 33.664 35.5064 34.032 35.5064 34.496V48.584C35.5064 49.048 35.3624 49.424 35.0744 49.712C34.8024 50 34.4264 50.144 33.9464 50.144ZM51.244 38.024C51.66 37.992 51.988 38.08 52.228 38.288C52.468 38.496 52.588 38.808 52.588 39.224C52.588 39.656 52.484 39.976 52.276 40.184C52.068 40.392 51.692 40.528 51.148 40.592L50.428 40.664C49.484 40.76 48.788 41.08 48.34 41.624C47.908 42.168 47.692 42.848 47.692 43.664V48.704C47.692 49.168 47.548 49.528 47.26 49.784C46.972 50.024 46.612 50.144 46.18 50.144C45.748 50.144 45.388 50.024 45.1 49.784C44.828 49.528 44.692 49.168 44.692 48.704V39.416C44.692 38.968 44.828 38.624 45.1 38.384C45.388 38.144 45.74 38.024 46.156 38.024C46.572 38.024 46.908 38.144 47.164 38.384C47.42 38.608 47.548 38.936 47.548 39.368V40.328C47.852 39.624 48.3 39.08 48.892 38.696C49.5 38.312 50.172 38.096 50.908 38.048L51.244 38.024ZM62.5732 46.784C62.8452 46.784 63.0612 46.888 63.2212 47.096C63.3972 47.304 63.4852 47.584 63.4852 47.936C63.4852 48.432 63.1892 48.848 62.5972 49.184C62.0532 49.488 61.4372 49.736 60.7492 49.928C60.0612 50.104 59.4052 50.192 58.7812 50.192C56.8932 50.192 55.3972 49.648 54.2932 48.56C53.1892 47.472 52.6372 45.984 52.6372 44.096C52.6372 42.896 52.8772 41.832 53.3572 40.904C53.8372 39.976 54.5092 39.256 55.3732 38.744C56.2532 38.232 57.2452 37.976 58.3492 37.976C59.4052 37.976 60.3252 38.208 61.1092 38.672C61.8932 39.136 62.5012 39.792 62.9332 40.64C63.3652 41.488 63.5812 42.488 63.5812 43.64C63.5812 44.328 63.2772 44.672 62.6692 44.672H55.5892C55.6852 45.776 55.9972 46.592 56.5252 47.12C57.0532 47.632 57.8212 47.888 58.8292 47.888C59.3412 47.888 59.7892 47.824 60.1732 47.696C60.5732 47.568 61.0212 47.392 61.5172 47.168C61.9972 46.912 62.3492 46.784 62.5732 46.784ZM58.4212 40.088C57.6052 40.088 56.9492 40.344 56.4532 40.856C55.9732 41.368 55.6852 42.104 55.5892 43.064H61.0132C60.9812 42.088 60.7412 41.352 60.2932 40.856C59.8452 40.344 59.2212 40.088 58.4212 40.088ZM69.9232 50.192C68.1792 50.192 66.7712 49.848 65.6992 49.16C65.1872 48.856 64.9312 48.424 64.9312 47.864C64.9312 47.544 65.0192 47.288 65.1952 47.096C65.3712 46.888 65.5872 46.784 65.8432 46.784C66.1152 46.784 66.4912 46.912 66.9712 47.168C67.4832 47.408 67.9472 47.592 68.3632 47.72C68.7952 47.848 69.3392 47.912 69.9952 47.912C70.6672 47.912 71.1872 47.8 71.5552 47.576C71.9392 47.352 72.1312 47.04 72.1312 46.64C72.1312 46.368 72.0512 46.152 71.8912 45.992C71.7472 45.832 71.4752 45.688 71.0752 45.56C70.6912 45.416 70.0992 45.256 69.2992 45.08C67.8752 44.792 66.8512 44.384 66.2272 43.856C65.6192 43.328 65.3152 42.6 65.3152 41.672C65.3152 40.968 65.5232 40.336 65.9392 39.776C66.3552 39.2 66.9232 38.76 67.6432 38.456C68.3792 38.136 69.2112 37.976 70.1392 37.976C70.8112 37.976 71.4592 38.064 72.0832 38.24C72.7072 38.4 73.2672 38.64 73.7632 38.96C74.2752 39.28 74.5312 39.704 74.5312 40.232C74.5312 40.552 74.4432 40.824 74.2672 41.048C74.0912 41.256 73.8752 41.36 73.6192 41.36C73.4432 41.36 73.2672 41.328 73.0912 41.264C72.9312 41.184 72.7232 41.072 72.4672 40.928C72.0032 40.688 71.6032 40.512 71.2672 40.4C70.9312 40.272 70.5152 40.208 70.0192 40.208C69.4272 40.208 68.9552 40.328 68.6032 40.568C68.2672 40.808 68.0992 41.136 68.0992 41.552C68.0992 41.952 68.2752 42.256 68.6272 42.464C68.9792 42.672 69.6592 42.88 70.6672 43.088C71.7392 43.312 72.5792 43.568 73.1872 43.856C73.7952 44.144 74.2272 44.504 74.4832 44.936C74.7552 45.368 74.8912 45.92 74.8912 46.592C74.8912 47.68 74.4352 48.552 73.5232 49.208C72.6272 49.864 71.4272 50.192 69.9232 50.192ZM83.7076 37.976C84.7156 37.976 85.6116 38.232 86.3956 38.744C87.1956 39.256 87.8116 39.984 88.2436 40.928C88.6916 41.856 88.9156 42.928 88.9156 44.144C88.9156 45.36 88.6916 46.424 88.2436 47.336C87.8116 48.248 87.2036 48.952 86.4196 49.448C85.6356 49.944 84.7316 50.192 83.7076 50.192C82.8756 50.192 82.1316 50.016 81.4756 49.664C80.8196 49.312 80.3156 48.824 79.9636 48.2V53.096C79.9636 53.512 79.8276 53.84 79.5556 54.08C79.2836 54.32 78.9236 54.44 78.4756 54.44C78.0276 54.44 77.6596 54.312 77.3716 54.056C77.0996 53.8 76.9636 53.464 76.9636 53.048V39.44C76.9636 39.008 77.0916 38.664 77.3476 38.408C77.6196 38.152 77.9796 38.024 78.4276 38.024C78.8756 38.024 79.2356 38.152 79.5076 38.408C79.7796 38.664 79.9156 39.008 79.9156 39.44V40.04C80.2676 39.384 80.7716 38.88 81.4276 38.528C82.0996 38.16 82.8596 37.976 83.7076 37.976ZM82.9156 47.864C83.8596 47.864 84.5956 47.544 85.1236 46.904C85.6516 46.248 85.9156 45.328 85.9156 44.144C85.9156 42.928 85.6516 41.984 85.1236 41.312C84.5956 40.64 83.8596 40.304 82.9156 40.304C81.9556 40.304 81.2116 40.632 80.6836 41.288C80.1716 41.944 79.9156 42.88 79.9156 44.096C79.9156 45.296 80.1716 46.224 80.6836 46.88C81.2116 47.536 81.9556 47.864 82.9156 47.864ZM100.306 46.784C100.578 46.784 100.794 46.888 100.954 47.096C101.13 47.304 101.218 47.584 101.218 47.936C101.218 48.432 100.922 48.848 100.33 49.184C99.7857 49.488 99.1697 49.736 98.4817 49.928C97.7937 50.104 97.1377 50.192 96.5137 50.192C94.6257 50.192 93.1297 49.648 92.0257 48.56C90.9217 47.472 90.3697 45.984 90.3697 44.096C90.3697 42.896 90.6097 41.832 91.0897 40.904C91.5697 39.976 92.2417 39.256 93.1057 38.744C93.9857 38.232 94.9777 37.976 96.0817 37.976C97.1377 37.976 98.0577 38.208 98.8417 38.672C99.6257 39.136 100.234 39.792 100.666 40.64C101.098 41.488 101.314 42.488 101.314 43.64C101.314 44.328 101.01 44.672 100.402 44.672H93.3217C93.4177 45.776 93.7297 46.592 94.2577 47.12C94.7857 47.632 95.5537 47.888 96.5617 47.888C97.0737 47.888 97.5217 47.824 97.9057 47.696C98.3057 47.568 98.7537 47.392 99.2497 47.168C99.7297 46.912 100.082 46.784 100.306 46.784ZM96.1537 40.088C95.3377 40.088 94.6817 40.344 94.1857 40.856C93.7057 41.368 93.4177 42.104 93.3217 43.064H98.7457C98.7137 42.088 98.4737 41.352 98.0257 40.856C97.5777 40.344 96.9537 40.088 96.1537 40.088ZM108.616 50.192C107.448 50.192 106.416 49.944 105.52 49.448C104.64 48.952 103.96 48.248 103.48 47.336C103 46.424 102.76 45.36 102.76 44.144C102.76 42.928 103.008 41.856 103.504 40.928C104.016 39.984 104.728 39.256 105.64 38.744C106.552 38.232 107.6 37.976 108.784 37.976C109.408 37.976 110.032 38.064 110.656 38.24C111.296 38.416 111.856 38.656 112.336 38.96C112.848 39.296 113.104 39.72 113.104 40.232C113.104 40.584 113.016 40.872 112.84 41.096C112.68 41.304 112.464 41.408 112.192 41.408C112.016 41.408 111.832 41.368 111.64 41.288C111.448 41.208 111.256 41.112 111.064 41C110.712 40.792 110.376 40.632 110.056 40.52C109.736 40.392 109.368 40.328 108.952 40.328C107.96 40.328 107.192 40.656 106.648 41.312C106.12 41.952 105.856 42.88 105.856 44.096C105.856 45.296 106.12 46.224 106.648 46.88C107.192 47.52 107.96 47.84 108.952 47.84C109.352 47.84 109.704 47.784 110.008 47.672C110.328 47.544 110.68 47.376 111.064 47.168C111.304 47.024 111.512 46.92 111.688 46.856C111.864 46.776 112.04 46.736 112.216 46.736C112.472 46.736 112.688 46.848 112.864 47.072C113.04 47.296 113.128 47.576 113.128 47.912C113.128 48.184 113.064 48.424 112.936 48.632C112.824 48.824 112.632 49 112.36 49.16C111.864 49.48 111.288 49.736 110.632 49.928C109.976 50.104 109.304 50.192 108.616 50.192ZM120.933 47.912C121.733 47.96 122.133 48.32 122.133 48.992C122.133 49.376 121.973 49.672 121.653 49.88C121.349 50.072 120.909 50.152 120.333 50.12L119.685 50.072C116.997 49.88 115.653 48.44 115.653 45.752V40.52H114.453C114.021 40.52 113.685 40.424 113.445 40.232C113.221 40.04 113.109 39.76 113.109 39.392C113.109 39.024 113.221 38.744 113.445 38.552C113.685 38.36 114.021 38.264 114.453 38.264H115.653V36.056C115.653 35.624 115.789 35.28 116.061 35.024C116.333 34.768 116.701 34.64 117.165 34.64C117.613 34.64 117.973 34.768 118.245 35.024C118.517 35.28 118.653 35.624 118.653 36.056V38.264H120.693C121.125 38.264 121.453 38.36 121.677 38.552C121.917 38.744 122.037 39.024 122.037 39.392C122.037 39.76 121.917 40.04 121.677 40.232C121.453 40.424 121.125 40.52 120.693 40.52H118.653V45.968C118.653 47.152 119.197 47.784 120.285 47.864L120.933 47.912ZM129.381 35.312C128.645 35.36 128.109 35.584 127.773 35.984C127.437 36.384 127.269 36.96 127.269 37.712V38.264H129.309C130.205 38.264 130.653 38.64 130.653 39.392C130.653 40.144 130.205 40.52 129.309 40.52H127.269V48.704C127.269 49.168 127.125 49.52 126.837 49.76C126.565 50 126.213 50.12 125.781 50.12C125.349 50.12 124.989 50 124.701 49.76C124.413 49.52 124.269 49.168 124.269 48.704V40.52H123.069C122.173 40.52 121.725 40.144 121.725 39.392C121.725 38.64 122.173 38.264 123.069 38.264H124.269V38.096C124.269 36.592 124.661 35.416 125.445 34.568C126.245 33.704 127.365 33.216 128.805 33.104L129.429 33.056C130.069 33.008 130.517 33.08 130.773 33.272C131.045 33.448 131.181 33.728 131.181 34.112C131.181 34.8 130.789 35.184 130.005 35.264L129.381 35.312ZM140.959 38.024C141.423 38.024 141.791 38.152 142.063 38.408C142.335 38.664 142.471 39.008 142.471 39.44V48.752C142.471 49.168 142.327 49.504 142.039 49.76C141.767 50.016 141.407 50.144 140.959 50.144C140.527 50.144 140.183 50.024 139.927 49.784C139.671 49.544 139.543 49.216 139.543 48.8V48.2C139.175 48.84 138.679 49.336 138.055 49.688C137.431 50.024 136.727 50.192 135.943 50.192C133.063 50.192 131.623 48.576 131.623 45.344V39.44C131.623 39.008 131.759 38.664 132.031 38.408C132.303 38.152 132.663 38.024 133.111 38.024C133.575 38.024 133.943 38.152 134.215 38.408C134.487 38.664 134.623 39.008 134.623 39.44V45.368C134.623 46.2 134.791 46.816 135.127 47.216C135.463 47.616 135.991 47.816 136.711 47.816C137.543 47.816 138.207 47.544 138.703 47C139.215 46.44 139.471 45.704 139.471 44.792V39.44C139.471 39.008 139.607 38.664 139.879 38.408C140.151 38.152 140.511 38.024 140.959 38.024ZM146.721 50.144C146.289 50.144 145.929 50.024 145.641 49.784C145.369 49.528 145.233 49.168 145.233 48.704V34.376C145.233 33.912 145.369 33.56 145.641 33.32C145.929 33.08 146.289 32.96 146.721 32.96C147.153 32.96 147.513 33.08 147.801 33.32C148.089 33.56 148.233 33.912 148.233 34.376V48.704C148.233 49.168 148.089 49.528 147.801 49.784C147.513 50.024 147.153 50.144 146.721 50.144ZM152.455 50.144C152.023 50.144 151.663 50.024 151.375 49.784C151.103 49.528 150.967 49.168 150.967 48.704V34.376C150.967 33.912 151.103 33.56 151.375 33.32C151.663 33.08 152.023 32.96 152.455 32.96C152.887 32.96 153.247 33.08 153.535 33.32C153.823 33.56 153.967 33.912 153.967 34.376V48.704C153.967 49.168 153.823 49.528 153.535 49.784C153.247 50.024 152.887 50.144 152.455 50.144ZM164.885 38.888C165.013 38.6 165.181 38.392 165.389 38.264C165.613 38.12 165.853 38.048 166.109 38.048C166.477 38.048 166.805 38.176 167.093 38.432C167.397 38.672 167.549 38.976 167.549 39.344C167.549 39.52 167.501 39.704 167.405 39.896L160.853 53.624C160.581 54.168 160.157 54.44 159.581 54.44C159.213 54.44 158.885 54.32 158.597 54.08C158.325 53.856 158.189 53.568 158.189 53.216C158.189 53.04 158.237 52.84 158.333 52.616L159.965 49.184L155.501 39.896C155.421 39.736 155.381 39.552 155.381 39.344C155.381 38.976 155.533 38.664 155.837 38.408C156.157 38.152 156.517 38.024 156.917 38.024C157.189 38.024 157.437 38.096 157.661 38.24C157.885 38.368 158.061 38.576 158.189 38.864L161.549 46.28L164.885 38.888ZM64.5612 58.96C65.0092 58.96 65.3772 59.088 65.6652 59.344C65.9532 59.6 66.0972 59.936 66.0972 60.352V74.704C66.0972 75.136 65.9612 75.48 65.6892 75.736C65.4172 75.992 65.0572 76.12 64.6092 76.12C64.1612 76.12 63.8012 75.992 63.5292 75.736C63.2572 75.48 63.1212 75.136 63.1212 74.704V74.104C62.7692 74.76 62.2572 75.272 61.5852 75.64C60.9292 76.008 60.1772 76.192 59.3292 76.192C58.3212 76.192 57.4172 75.936 56.6172 75.424C55.8332 74.912 55.2172 74.192 54.7692 73.264C54.3372 72.32 54.1212 71.24 54.1212 70.024C54.1212 68.808 54.3372 67.744 54.7692 66.832C55.2172 65.92 55.8332 65.216 56.6172 64.72C57.4012 64.224 58.3052 63.976 59.3292 63.976C60.1772 63.976 60.9292 64.152 61.5852 64.504C62.2412 64.856 62.7452 65.352 63.0972 65.992V60.304C63.0972 59.904 63.2252 59.584 63.4812 59.344C63.7532 59.088 64.1132 58.96 64.5612 58.96ZM60.1212 73.864C61.0812 73.864 61.8172 73.536 62.3292 72.88C62.8572 72.224 63.1212 71.288 63.1212 70.072C63.1212 68.856 62.8572 67.928 62.3292 67.288C61.8172 66.632 61.0892 66.304 60.1452 66.304C59.1852 66.304 58.4412 66.624 57.9132 67.264C57.3852 67.904 57.1212 68.824 57.1212 70.024C57.1212 71.24 57.3852 72.184 57.9132 72.856C58.4412 73.528 59.1772 73.864 60.1212 73.864ZM70.3113 76.144C69.8793 76.144 69.5193 76.024 69.2313 75.784C68.9593 75.528 68.8233 75.168 68.8233 74.704V65.44C68.8233 64.976 68.9593 64.624 69.2313 64.384C69.5193 64.144 69.8793 64.024 70.3113 64.024C70.7433 64.024 71.1033 64.144 71.3913 64.384C71.6793 64.624 71.8233 64.976 71.8233 65.44V74.704C71.8233 75.168 71.6793 75.528 71.3913 75.784C71.1033 76.024 70.7433 76.144 70.3113 76.144ZM70.3113 61.888C69.7673 61.888 69.3353 61.744 69.0153 61.456C68.6953 61.152 68.5353 60.76 68.5353 60.28C68.5353 59.8 68.6953 59.416 69.0153 59.128C69.3353 58.84 69.7673 58.696 70.3113 58.696C70.8393 58.696 71.2633 58.84 71.5833 59.128C71.9193 59.416 72.0873 59.8 72.0873 60.28C72.0873 60.76 71.9273 61.152 71.6073 61.456C71.2873 61.744 70.8553 61.888 70.3113 61.888ZM78.805 76.192C77.061 76.192 75.653 75.848 74.581 75.16C74.069 74.856 73.813 74.424 73.813 73.864C73.813 73.544 73.901 73.288 74.077 73.096C74.253 72.888 74.469 72.784 74.725 72.784C74.997 72.784 75.373 72.912 75.853 73.168C76.365 73.408 76.829 73.592 77.245 73.72C77.677 73.848 78.221 73.912 78.877 73.912C79.549 73.912 80.069 73.8 80.437 73.576C80.821 73.352 81.013 73.04 81.013 72.64C81.013 72.368 80.933 72.152 80.773 71.992C80.629 71.832 80.357 71.688 79.957 71.56C79.573 71.416 78.981 71.256 78.181 71.08C76.757 70.792 75.733 70.384 75.109 69.856C74.501 69.328 74.197 68.6 74.197 67.672C74.197 66.968 74.405 66.336 74.821 65.776C75.237 65.2 75.805 64.76 76.525 64.456C77.261 64.136 78.093 63.976 79.021 63.976C79.693 63.976 80.341 64.064 80.965 64.24C81.589 64.4 82.149 64.64 82.645 64.96C83.157 65.28 83.413 65.704 83.413 66.232C83.413 66.552 83.325 66.824 83.149 67.048C82.973 67.256 82.757 67.36 82.501 67.36C82.325 67.36 82.149 67.328 81.973 67.264C81.813 67.184 81.605 67.072 81.349 66.928C80.885 66.688 80.485 66.512 80.149 66.4C79.813 66.272 79.397 66.208 78.901 66.208C78.309 66.208 77.837 66.328 77.485 66.568C77.149 66.808 76.981 67.136 76.981 67.552C76.981 67.952 77.157 68.256 77.509 68.464C77.861 68.672 78.541 68.88 79.549 69.088C80.621 69.312 81.461 69.568 82.069 69.856C82.677 70.144 83.109 70.504 83.365 70.936C83.637 71.368 83.773 71.92 83.773 72.592C83.773 73.68 83.317 74.552 82.405 75.208C81.509 75.864 80.309 76.192 78.805 76.192ZM90.9335 63.976C92.5655 63.976 93.7735 64.384 94.5575 65.2C95.3575 66 95.7575 67.224 95.7575 68.872V74.728C95.7575 75.16 95.6295 75.504 95.3735 75.76C95.1175 76 94.7655 76.12 94.3175 76.12C93.9015 76.12 93.5575 75.992 93.2855 75.736C93.0295 75.48 92.9015 75.144 92.9015 74.728V74.2C92.6295 74.824 92.1975 75.312 91.6055 75.664C91.0295 76.016 90.3575 76.192 89.5895 76.192C88.8055 76.192 88.0935 76.032 87.4535 75.712C86.8135 75.392 86.3095 74.952 85.9415 74.392C85.5735 73.832 85.3895 73.208 85.3895 72.52C85.3895 71.656 85.6055 70.976 86.0375 70.48C86.4855 69.984 87.2055 69.624 88.1975 69.4C89.1895 69.176 90.5575 69.064 92.3015 69.064H92.9015V68.512C92.9015 67.728 92.7335 67.16 92.3975 66.808C92.0615 66.44 91.5175 66.256 90.7655 66.256C90.3015 66.256 89.8295 66.328 89.3495 66.472C88.8695 66.6 88.3015 66.792 87.6455 67.048C87.2295 67.256 86.9255 67.36 86.7335 67.36C86.4455 67.36 86.2055 67.256 86.0135 67.048C85.8375 66.84 85.7495 66.568 85.7495 66.232C85.7495 65.96 85.8135 65.728 85.9415 65.536C86.0855 65.328 86.3175 65.136 86.6375 64.96C87.1975 64.656 87.8615 64.416 88.6295 64.24C89.4135 64.064 90.1815 63.976 90.9335 63.976ZM90.1895 74.032C90.9895 74.032 91.6375 73.768 92.1335 73.24C92.6455 72.696 92.9015 72 92.9015 71.152V70.648H92.4695C91.3975 70.648 90.5655 70.696 89.9735 70.792C89.3815 70.888 88.9575 71.056 88.7015 71.296C88.4455 71.536 88.3175 71.864 88.3175 72.28C88.3175 72.792 88.4935 73.216 88.8455 73.552C89.2135 73.872 89.6615 74.032 90.1895 74.032ZM108.382 64.024C108.83 64.024 109.19 64.152 109.462 64.408C109.734 64.664 109.87 65.008 109.87 65.44V74.92C109.87 76.76 109.358 78.152 108.334 79.096C107.31 80.04 105.798 80.512 103.798 80.512C102.054 80.512 100.598 80.184 99.4304 79.528C98.8384 79.176 98.5424 78.752 98.5424 78.256C98.5424 77.904 98.6224 77.624 98.7824 77.416C98.9584 77.208 99.1824 77.104 99.4544 77.104C99.5984 77.104 99.7744 77.136 99.9824 77.2C100.19 77.28 100.406 77.368 100.63 77.464C101.206 77.704 101.718 77.888 102.166 78.016C102.63 78.144 103.158 78.208 103.75 78.208C105.846 78.208 106.894 77.184 106.894 75.136V73.6C106.542 74.256 106.03 74.768 105.358 75.136C104.686 75.488 103.918 75.664 103.054 75.664C102.03 75.664 101.118 75.424 100.318 74.944C99.5344 74.448 98.9184 73.76 98.4704 72.88C98.0224 72 97.7984 70.984 97.7984 69.832C97.7984 68.68 98.0144 67.664 98.4464 66.784C98.8944 65.888 99.5184 65.2 100.318 64.72C101.118 64.224 102.03 63.976 103.054 63.976C103.918 63.976 104.686 64.16 105.358 64.528C106.03 64.88 106.542 65.384 106.894 66.04V65.416C106.894 65 107.03 64.664 107.302 64.408C107.574 64.152 107.934 64.024 108.382 64.024ZM103.846 73.336C104.806 73.336 105.55 73.024 106.078 72.4C106.622 71.776 106.894 70.92 106.894 69.832C106.894 68.728 106.622 67.864 106.078 67.24C105.55 66.616 104.806 66.304 103.846 66.304C102.902 66.304 102.158 66.616 101.614 67.24C101.07 67.864 100.798 68.728 100.798 69.832C100.798 70.92 101.07 71.776 101.614 72.4C102.158 73.024 102.902 73.336 103.846 73.336ZM119.17 64.024C119.586 63.992 119.914 64.08 120.154 64.288C120.394 64.496 120.514 64.808 120.514 65.224C120.514 65.656 120.41 65.976 120.202 66.184C119.994 66.392 119.618 66.528 119.074 66.592L118.354 66.664C117.41 66.76 116.714 67.08 116.266 67.624C115.834 68.168 115.618 68.848 115.618 69.664V74.704C115.618 75.168 115.474 75.528 115.186 75.784C114.898 76.024 114.538 76.144 114.106 76.144C113.674 76.144 113.314 76.024 113.026 75.784C112.754 75.528 112.618 75.168 112.618 74.704V65.416C112.618 64.968 112.754 64.624 113.026 64.384C113.314 64.144 113.666 64.024 114.082 64.024C114.498 64.024 114.834 64.144 115.09 64.384C115.346 64.608 115.474 64.936 115.474 65.368V66.328C115.778 65.624 116.226 65.08 116.818 64.696C117.426 64.312 118.098 64.096 118.834 64.048L119.17 64.024ZM130.499 72.784C130.771 72.784 130.987 72.888 131.147 73.096C131.323 73.304 131.411 73.584 131.411 73.936C131.411 74.432 131.115 74.848 130.523 75.184C129.979 75.488 129.363 75.736 128.675 75.928C127.987 76.104 127.331 76.192 126.707 76.192C124.819 76.192 123.323 75.648 122.219 74.56C121.115 73.472 120.563 71.984 120.563 70.096C120.563 68.896 120.803 67.832 121.283 66.904C121.763 65.976 122.435 65.256 123.299 64.744C124.179 64.232 125.171 63.976 126.275 63.976C127.331 63.976 128.251 64.208 129.035 64.672C129.819 65.136 130.427 65.792 130.859 66.64C131.291 67.488 131.507 68.488 131.507 69.64C131.507 70.328 131.203 70.672 130.595 70.672H123.515C123.611 71.776 123.923 72.592 124.451 73.12C124.979 73.632 125.747 73.888 126.755 73.888C127.267 73.888 127.715 73.824 128.099 73.696C128.499 73.568 128.947 73.392 129.443 73.168C129.923 72.912 130.275 72.784 130.499 72.784ZM126.347 66.088C125.531 66.088 124.875 66.344 124.379 66.856C123.899 67.368 123.611 68.104 123.515 69.064H128.939C128.907 68.088 128.667 67.352 128.219 66.856C127.771 66.344 127.147 66.088 126.347 66.088ZM142.889 72.784C143.161 72.784 143.377 72.888 143.537 73.096C143.713 73.304 143.801 73.584 143.801 73.936C143.801 74.432 143.505 74.848 142.913 75.184C142.369 75.488 141.753 75.736 141.065 75.928C140.377 76.104 139.721 76.192 139.097 76.192C137.209 76.192 135.713 75.648 134.609 74.56C133.505 73.472 132.953 71.984 132.953 70.096C132.953 68.896 133.193 67.832 133.673 66.904C134.153 65.976 134.825 65.256 135.689 64.744C136.569 64.232 137.561 63.976 138.665 63.976C139.721 63.976 140.641 64.208 141.425 64.672C142.209 65.136 142.817 65.792 143.249 66.64C143.681 67.488 143.897 68.488 143.897 69.64C143.897 70.328 143.593 70.672 142.985 70.672H135.905C136.001 71.776 136.313 72.592 136.841 73.12C137.369 73.632 138.137 73.888 139.145 73.888C139.657 73.888 140.105 73.824 140.489 73.696C140.889 73.568 141.337 73.392 141.833 73.168C142.313 72.912 142.665 72.784 142.889 72.784ZM138.737 66.088C137.921 66.088 137.265 66.344 136.769 66.856C136.289 67.368 136.001 68.104 135.905 69.064H141.329C141.297 68.088 141.057 67.352 140.609 66.856C140.161 66.344 139.537 66.088 138.737 66.088Z" fill="black"/>
</svg>
