<svg width="124" height="127" viewBox="0 0 124 127" fill="none" xmlns="http://www.w3.org/2000/svg">
<mask id="path-1-outside-1" maskUnits="userSpaceOnUse" x="0" y="0" width="124" height="127" fill="black">
<rect fill="white" width="124" height="127"/>
<path fill-rule="evenodd" clip-rule="evenodd" d="M117 12C117 9.23858 114.761 7 112 7H12C9.23858 7 7 9.23858 7 12V92C7 94.7614 9.23858 97 12 97H33C35.7614 97 38 99.2386 38 102V114.07C38 118.178 42.6776 120.533 45.9773 118.087L73.1022 97.983C73.9636 97.3446 75.0073 97 76.0795 97H112C114.761 97 117 94.7614 117 92V12Z"/>
</mask>
<path fill-rule="evenodd" clip-rule="evenodd" d="M117 12C117 9.23858 114.761 7 112 7H12C9.23858 7 7 9.23858 7 12V92C7 94.7614 9.23858 97 12 97H33C35.7614 97 38 99.2386 38 102V114.07C38 118.178 42.6776 120.533 45.9773 118.087L73.1022 97.983C73.9636 97.3446 75.0073 97 76.0795 97H112C114.761 97 117 94.7614 117 92V12Z" fill="white"/>
<path d="M73.1022 97.983L68.9341 92.3593L73.1022 97.983ZM45.9773 118.087L41.8091 112.464L45.9773 118.087ZM12 14H112V0H12V14ZM14 92V12H0V92H14ZM33 90H12V104H33V90ZM45 114.07V102H31V114.07H45ZM68.9341 92.3593L41.8091 112.464L50.1454 123.711L77.2704 103.607L68.9341 92.3593ZM112 90H76.0795V104H112V90ZM110 12V92H124V12H110ZM112 104C118.627 104 124 98.6274 124 92H110C110 90.8954 110.895 90 112 90V104ZM77.2704 103.607C76.9259 103.862 76.5084 104 76.0795 104V90C73.5063 90 71.0013 90.8271 68.9341 92.3593L77.2704 103.607ZM31 114.07C31 123.928 42.2262 129.581 50.1454 123.711L41.8091 112.464C43.129 111.485 45 112.428 45 114.07H31ZM33 104C31.8954 104 31 103.105 31 102H45C45 95.3726 39.6274 90 33 90V104ZM0 92C0 98.6274 5.37259 104 12 104V90C13.1046 90 14 90.8954 14 92H0ZM112 14C110.895 14 110 13.1046 110 12H124C124 5.37258 118.627 0 112 0V14ZM12 0C5.37258 0 0 5.37259 0 12H14C14 13.1046 13.1046 14 12 14V0Z" fill="black" mask="url(#path-1-outside-1)"/>
<mask id="path-3-outside-2" maskUnits="userSpaceOnUse" x="31" y="21" width="60" height="60" fill="black">
<rect fill="white" x="31" y="21" width="60" height="60"/>
<path fill-rule="evenodd" clip-rule="evenodd" d="M61 75C74.2548 75 85 64.2548 85 51C85 37.7452 74.2548 27 61 27C47.7452 27 37 37.7452 37 51C37 64.2548 47.7452 75 61 75ZM70.8345 64.8683C68.0584 66.8405 64.6646 68 61 68C51.6112 68 44 60.3888 44 51C44 47.3354 45.1595 43.9416 47.1317 41.1655L70.8345 64.8683ZM75.5923 59.7266L52.2734 36.4077C54.8244 34.8789 57.8096 34 61 34C70.3888 34 78 41.6112 78 51C78 54.1904 77.1211 57.1756 75.5923 59.7266Z"/>
</mask>
<path fill-rule="evenodd" clip-rule="evenodd" d="M61 75C74.2548 75 85 64.2548 85 51C85 37.7452 74.2548 27 61 27C47.7452 27 37 37.7452 37 51C37 64.2548 47.7452 75 61 75ZM70.8345 64.8683C68.0584 66.8405 64.6646 68 61 68C51.6112 68 44 60.3888 44 51C44 47.3354 45.1595 43.9416 47.1317 41.1655L70.8345 64.8683ZM75.5923 59.7266L52.2734 36.4077C54.8244 34.8789 57.8096 34 61 34C70.3888 34 78 41.6112 78 51C78 54.1904 77.1211 57.1756 75.5923 59.7266Z" fill="#FF0000"/>
<path d="M70.8345 64.8683L74.3094 69.7596C75.7494 68.7366 76.6655 67.131 76.8134 65.3708C76.9614 63.6106 76.3262 61.8747 75.0771 60.6256L70.8345 64.8683ZM47.1317 41.1655L51.3744 36.9229C50.1253 35.6738 48.3894 35.0386 46.6292 35.1866C44.869 35.3345 43.2634 36.2506 42.2404 37.6906L47.1317 41.1655ZM52.2734 36.4077L49.1891 31.2612C47.6038 32.2113 46.5448 33.8389 46.3186 35.6731C46.0923 37.5073 46.724 39.3435 48.0308 40.6504L52.2734 36.4077ZM75.5923 59.7266L71.3496 63.9692C72.6565 65.276 74.4927 65.9077 76.3269 65.6814C78.1611 65.4552 79.7887 64.3962 80.7388 62.8109L75.5923 59.7266ZM79 51C79 60.9411 70.9411 69 61 69V81C77.5685 81 91 67.5685 91 51H79ZM61 33C70.9411 33 79 41.0589 79 51H91C91 34.4315 77.5685 21 61 21V33ZM43 51C43 41.0589 51.0589 33 61 33V21C44.4315 21 31 34.4315 31 51H43ZM61 69C51.0589 69 43 60.9411 43 51H31C31 67.5685 44.4315 81 61 81V69ZM61 74C65.9503 74 70.5516 72.4292 74.3094 69.7596L67.3596 59.9769C65.5653 61.2517 63.3789 62 61 62V74ZM38 51C38 63.7025 48.2975 74 61 74V62C54.9249 62 50 57.0751 50 51H38ZM42.2404 37.6906C39.5708 41.4484 38 46.0497 38 51H50C50 48.6211 50.7483 46.4347 52.0231 44.6404L42.2404 37.6906ZM75.0771 60.6256L51.3744 36.9229L42.8891 45.4081L66.5919 69.1109L75.0771 60.6256ZM48.0308 40.6504L71.3496 63.9692L79.8349 55.4839L56.5161 32.1651L48.0308 40.6504ZM61 28C56.6932 28 52.6459 29.1894 49.1891 31.2612L55.3578 41.5542C57.0029 40.5683 58.9259 40 61 40V28ZM84 51C84 38.2975 73.7025 28 61 28V40C67.0751 40 72 44.9249 72 51H84ZM80.7388 62.8109C82.8106 59.3541 84 55.3068 84 51H72C72 53.0741 71.4317 54.9971 70.4458 56.6422L80.7388 62.8109Z" fill="black" mask="url(#path-3-outside-2)"/>
</svg>
