<svg width="362" height="273" viewBox="0 0 362 273" fill="none" xmlns="http://www.w3.org/2000/svg">
<path fill-rule="evenodd" clip-rule="evenodd" d="M26.1974 187.844C26.3467 187.227 26.7568 186.694 27.456 186.41C28.4813 185.993 29.5802 185.778 30.6899 185.778C31.7997 185.778 32.8986 185.993 33.9239 186.41C34.9492 186.827 35.8808 187.439 36.6655 188.21C37.4502 188.981 38.0727 189.896 38.4974 190.904C38.922 191.911 39.1406 192.991 39.1406 194.081C39.1406 195.172 38.922 196.252 38.4974 197.259C38.2072 197.947 37.6638 198.351 37.0346 198.497C36.6255 199.599 35.9709 200.633 35.0709 201.518L27.1344 209.316L27.1038 209.346C26.3608 210.076 25.514 210.642 24.6101 211.043C21.4984 212.425 17.7097 211.859 15.1524 209.346L15.1026 209.297L7.18525 201.517C6.28551 200.633 5.63107 199.599 5.22193 198.498C4.59354 198.351 4.05096 197.948 3.76111 197.261C3.33642 196.253 3.11784 195.173 3.11784 194.083C3.11784 192.992 3.33642 191.913 3.76111 190.905C4.18579 189.898 4.80827 188.982 5.59299 188.211C6.37771 187.44 7.30931 186.829 8.3346 186.411C9.35988 185.994 10.4588 185.779 11.5685 185.779C12.6783 185.779 13.7772 185.994 14.8025 186.411C15.5014 186.696 15.9114 187.228 16.0609 187.844C17.1831 188.246 18.236 188.89 19.1363 189.774L21.1281 191.731L23.1198 189.774C24.0207 188.889 25.0743 188.246 26.1974 187.844Z" fill="#FF0000"/>
<path d="M26.1974 187.844L27.2082 190.668L28.7324 190.123L29.1132 188.549L26.1974 187.844ZM27.456 186.41L28.5869 189.189L28.5869 189.189L27.456 186.41ZM30.6899 185.778L30.6899 188.778L30.6899 185.778ZM33.9239 186.41L32.7929 189.189L32.7929 189.189L33.9239 186.41ZM36.6655 188.21L38.7681 186.07L36.6655 188.21ZM38.4974 197.259L41.2618 198.424L41.2618 198.424L38.4974 197.259ZM37.0346 198.497L36.3565 195.574L34.7838 195.939L34.2221 197.453L37.0346 198.497ZM35.0709 201.518L37.1735 203.657L37.1735 203.657L35.0709 201.518ZM27.1344 209.316L25.0317 207.176L25.0264 207.181L27.1344 209.316ZM27.1038 209.346L29.2064 211.486L29.2117 211.481L27.1038 209.346ZM24.6101 211.043L23.3928 208.301L23.3927 208.301L24.6101 211.043ZM15.1524 209.346L13.041 211.477L13.0498 211.486L15.1524 209.346ZM15.1026 209.297L17.214 207.166L17.2053 207.157L15.1026 209.297ZM7.18525 201.517L5.08264 203.657L7.18525 201.517ZM5.22193 198.498L8.03432 197.453L7.47303 195.942L5.90254 195.576L5.22193 198.498ZM3.76111 197.261L6.52552 196.095L6.52552 196.095L3.76111 197.261ZM3.76111 190.905L6.52552 192.071L6.52552 192.071L3.76111 190.905ZM5.59299 188.211L7.6956 190.351L7.6956 190.351L5.59299 188.211ZM8.3346 186.411L9.46552 189.19L9.46552 189.19L8.3346 186.411ZM11.5685 185.779L11.5685 182.779L11.5685 185.779ZM14.8025 186.411L13.6716 189.19L13.6716 189.19L14.8025 186.411ZM16.0609 187.844L13.1453 188.551L13.5264 190.123L15.0493 190.669L16.0609 187.844ZM19.1363 189.774L17.0337 191.914L17.0337 191.914L19.1363 189.774ZM21.1281 191.731L19.0255 193.871L21.1281 195.937L23.2307 193.871L21.1281 191.731ZM23.1198 189.774L21.0172 187.635L21.0172 187.635L23.1198 189.774ZM29.1132 188.549C29.0855 188.664 29.0232 188.807 28.9079 188.943C28.7894 189.083 28.6632 189.158 28.5869 189.189L26.3251 183.631C24.7024 184.292 23.6502 185.615 23.2816 187.138L29.1132 188.549ZM28.5869 189.189C29.2521 188.918 29.9669 188.778 30.6899 188.778L30.6899 182.778C29.1934 182.778 27.7104 183.067 26.3251 183.631L28.5869 189.189ZM30.6899 188.778C31.413 188.778 32.1277 188.918 32.7929 189.189L35.0548 183.631C33.6694 183.067 32.1864 182.778 30.6899 182.778L30.6899 188.778ZM32.7929 189.189C33.4581 189.459 34.059 189.855 34.5629 190.35L38.7681 186.07C37.7025 185.023 36.4402 184.195 35.0548 183.631L32.7929 189.189ZM34.5629 190.35C35.0666 190.845 35.4633 191.429 35.7329 192.069L41.2618 189.738C40.6821 188.363 39.8338 187.117 38.7681 186.07L34.5629 190.35ZM35.7329 192.069C36.0026 192.709 36.1406 193.392 36.1406 194.081L42.1406 194.081C42.1406 192.59 41.8415 191.114 41.2618 189.738L35.7329 192.069ZM36.1406 194.081C36.1406 194.77 36.0026 195.454 35.7329 196.094L41.2618 198.424C41.8415 197.049 42.1406 195.573 42.1406 194.081L36.1406 194.081ZM35.7329 196.094C35.7718 196.001 35.8547 195.873 35.9939 195.759C36.1279 195.649 36.2615 195.596 36.3565 195.574L37.7128 201.419C39.2148 201.07 40.5732 200.058 41.2618 198.424L35.7329 196.094ZM34.2221 197.453C33.9642 198.148 33.5498 198.806 32.9683 199.378L37.1735 203.657C38.392 202.46 39.2868 201.05 39.8472 199.54L34.2221 197.453ZM32.9683 199.378L25.0317 207.176L29.237 211.456L37.1735 203.657L32.9683 199.378ZM25.0264 207.181L24.9958 207.211L29.2117 211.481L29.2423 211.45L25.0264 207.181ZM25.0011 207.206C24.5203 207.679 23.9749 208.043 23.3928 208.301L25.8274 213.785C27.0532 213.241 28.2014 212.473 29.2064 211.486L25.0011 207.206ZM23.3927 208.301C21.3609 209.203 18.8991 208.822 17.255 207.206L13.0498 211.486C16.5204 214.896 21.636 215.646 25.8275 213.785L23.3927 208.301ZM17.2637 207.215L17.214 207.166L12.9913 211.428L13.041 211.477L17.2637 207.215ZM17.2053 207.157L9.28786 199.378L5.08264 203.657L13 211.437L17.2053 207.157ZM9.28786 199.378C8.70649 198.806 8.29223 198.148 8.03432 197.453L2.40953 199.542C2.96991 201.051 3.86454 202.46 5.08264 203.657L9.28786 199.378ZM5.90254 195.576C5.99756 195.598 6.13109 195.651 6.26492 195.761C6.40391 195.874 6.48671 196.003 6.52552 196.095L0.996694 198.426C1.68447 200.057 3.04076 201.07 4.54132 201.419L5.90254 195.576ZM6.52552 196.095C6.2559 195.456 6.11784 194.772 6.11784 194.083L0.117836 194.083C0.117836 195.575 0.416938 197.051 0.996699 198.426L6.52552 196.095ZM6.11784 194.083C6.11784 193.394 6.2559 192.71 6.52552 192.071L0.9967 189.74C0.416938 191.115 0.117836 192.591 0.117836 194.083L6.11784 194.083ZM6.52552 192.071C6.79519 191.431 7.19189 190.846 7.6956 190.351L3.49038 186.072C2.42465 187.119 1.5764 188.365 0.996696 189.74L6.52552 192.071ZM7.6956 190.351C8.19942 189.856 8.80039 189.461 9.46552 189.19L7.20367 183.633C5.81823 184.197 4.556 185.024 3.49038 186.072L7.6956 190.351ZM9.46552 189.19C10.1307 188.919 10.8455 188.779 11.5685 188.779L11.5685 182.779C10.0721 182.779 8.58902 183.069 7.20367 183.633L9.46552 189.19ZM11.5685 188.779C12.2916 188.779 13.0063 188.919 13.6716 189.19L15.9334 183.633C14.5481 183.069 13.065 182.779 11.5685 182.779L11.5685 188.779ZM13.6716 189.19C13.5953 189.159 13.4692 189.085 13.3508 188.945C13.2354 188.809 13.173 188.666 13.1453 188.551L18.9764 187.138C18.6073 185.615 17.5552 184.293 15.9334 183.633L13.6716 189.19ZM15.0493 190.669C15.7739 190.928 16.4517 191.342 17.0337 191.914L21.239 187.634C20.0204 186.437 18.5924 185.565 17.0725 185.02L15.0493 190.669ZM17.0337 191.914L19.0255 193.871L23.2307 189.592L21.239 187.634L17.0337 191.914ZM23.2307 193.871L25.2224 191.914L21.0172 187.635L19.0255 189.592L23.2307 193.871ZM25.2224 191.914C25.8048 191.342 26.4831 190.928 27.2082 190.668L25.1865 185.019C23.6656 185.564 22.2365 186.436 21.0172 187.635L25.2224 191.914Z" fill="black"/>
<path fill-rule="evenodd" clip-rule="evenodd" d="M85.8279 207.844C85.9809 207.227 86.4013 206.694 87.118 206.41C88.1689 205.993 89.2952 205.778 90.4328 205.778C91.5703 205.778 92.6966 205.993 93.7475 206.41C94.7985 206.827 95.7534 207.439 96.5577 208.21C97.362 208.981 98.0001 209.896 98.4354 210.904C98.8707 211.911 99.0947 212.991 99.0947 214.081C99.0947 215.172 98.8707 216.252 98.4354 217.259C98.138 217.947 97.581 218.351 96.9361 218.497C96.5167 219.599 95.8458 220.633 94.9232 221.518L86.7866 229.317L86.7569 229.346C86.1226 229.954 85.4143 230.448 84.6599 230.828C84.5342 230.892 84.4072 230.952 84.279 231.009C81.0751 232.434 77.1495 231.88 74.5068 229.346L74.4568 229.298L66.3404 221.517C65.4182 220.633 64.7474 219.599 64.328 218.498C63.684 218.351 63.1278 217.948 62.8307 217.261C62.3954 216.253 62.1713 215.173 62.1713 214.083C62.1713 212.992 62.3954 211.913 62.8307 210.905C63.266 209.898 63.904 208.982 64.7084 208.211C65.5127 207.44 66.4676 206.829 67.5185 206.411C68.5694 205.994 69.6958 205.779 70.8333 205.779C71.9708 205.779 73.0972 205.994 74.1481 206.411C74.8645 206.696 75.2848 207.228 75.4379 207.844C76.5883 208.246 77.6675 208.89 78.5903 209.774L80.6319 211.731L82.6734 209.774C83.5968 208.889 84.6768 208.246 85.8279 207.844Z" fill="#FF0000"/>
<path d="M85.8279 207.844L86.8168 210.676L88.3489 210.141L88.7397 208.566L85.8279 207.844ZM87.118 206.41L86.0108 203.622L87.118 206.41ZM90.4328 205.778L90.4328 202.778L90.4328 205.778ZM96.5577 208.21L94.4817 210.376L94.4817 210.376L96.5577 208.21ZM98.4354 210.904L95.6815 212.094L95.6815 212.094L98.4354 210.904ZM98.4354 217.259L95.6815 216.069L95.6815 216.069L98.4354 217.259ZM96.9361 218.497L96.2736 215.571L94.7042 215.926L94.1321 217.43L96.9361 218.497ZM94.9232 221.518L92.8472 219.352L92.8472 219.352L94.9232 221.518ZM86.7866 229.317L84.7105 227.152L84.7054 227.157L86.7866 229.317ZM86.7569 229.346L88.833 231.512L88.8381 231.507L86.7569 229.346ZM84.6599 230.828L83.3103 228.149L83.3102 228.149L84.6599 230.828ZM84.279 231.009L83.0599 228.268L83.0599 228.268L84.279 231.009ZM74.5068 229.346L72.4221 231.504L72.4307 231.512L74.5068 229.346ZM74.4568 229.298L76.5415 227.141L76.5329 227.132L74.4568 229.298ZM66.3404 221.517L64.2644 223.683L64.2644 223.683L66.3404 221.517ZM64.328 218.498L67.1319 217.43L66.5602 215.928L64.9929 215.572L64.328 218.498ZM62.8307 217.261L65.5846 216.071L65.5846 216.071L62.8307 217.261ZM62.8307 210.905L65.5846 212.095L65.5846 212.095L62.8307 210.905ZM64.7084 208.211L62.6323 206.046L62.6323 206.046L64.7084 208.211ZM67.5185 206.411L66.4114 203.623L66.4114 203.623L67.5185 206.411ZM70.8333 205.779L70.8333 202.779H70.8333L70.8333 205.779ZM74.1481 206.411L73.041 209.2L73.041 209.2L74.1481 206.411ZM75.4379 207.844L72.5265 208.568L72.9175 210.142L74.4483 210.677L75.4379 207.844ZM78.5903 209.774L80.6664 207.609L80.6664 207.609L78.5903 209.774ZM80.6319 211.731L78.5559 213.897L80.6319 215.887L82.708 213.897L80.6319 211.731ZM82.6734 209.774L80.5973 207.609L80.5973 207.609L82.6734 209.774ZM88.7397 208.566C88.7089 208.69 88.6417 208.837 88.5251 208.971C88.4063 209.108 88.2857 209.174 88.2251 209.198L86.0108 203.622C84.3858 204.267 83.2999 205.574 82.9162 207.122L88.7397 208.566ZM88.2251 209.198C88.9215 208.922 89.672 208.778 90.4328 208.778L90.4328 202.778C88.9185 202.778 87.4163 203.064 86.0108 203.622L88.2251 209.198ZM90.4328 208.778C91.1935 208.778 91.944 208.922 92.6404 209.198L94.8547 203.622C93.4493 203.064 91.947 202.778 90.4328 202.778L90.4328 208.778ZM92.6404 209.198C93.3367 209.475 93.9613 209.877 94.4817 210.376L98.6337 206.044C97.5455 205.001 96.2603 204.18 94.8547 203.622L92.6404 209.198ZM94.4817 210.376C95.0018 210.874 95.4073 211.459 95.6815 212.094L101.189 209.714C100.593 208.333 99.7223 207.088 98.6337 206.044L94.4817 210.376ZM95.6815 212.094C95.9555 212.728 96.0947 213.403 96.0947 214.081L102.095 214.081C102.095 212.579 101.786 211.094 101.189 209.714L95.6815 212.094ZM96.0947 214.081C96.0947 214.76 95.9555 215.435 95.6815 216.069L101.189 218.449C101.786 217.068 102.095 215.584 102.095 214.081L96.0947 214.081ZM95.6815 216.069C95.7241 215.97 95.8101 215.844 95.945 215.736C96.0737 215.633 96.1961 215.588 96.2736 215.571L97.5985 221.422C99.0915 221.084 100.478 220.095 101.189 218.449L95.6815 216.069ZM94.1321 217.43C93.8704 218.118 93.4475 218.776 92.8472 219.352L96.9993 223.683C98.2441 222.49 99.1631 221.08 99.7401 219.563L94.1321 217.43ZM92.8472 219.352L84.7105 227.152L88.8626 231.483L96.9993 223.683L92.8472 219.352ZM84.7054 227.157L84.6757 227.185L88.8381 231.507L88.8678 231.478L84.7054 227.157ZM84.6809 227.18C84.2668 227.577 83.8047 227.9 83.3103 228.149L86.0095 233.507C87.024 232.996 87.9783 232.331 88.833 231.512L84.6809 227.18ZM83.3102 228.149C83.2277 228.191 83.1442 228.23 83.0599 228.268L85.4982 233.75C85.6701 233.673 85.8407 233.593 86.0096 233.507L83.3102 228.149ZM83.0599 228.268C80.9139 229.222 78.303 228.83 76.5828 227.181L72.4307 231.512C75.996 234.93 81.2362 235.645 85.4982 233.75L83.0599 228.268ZM76.5914 227.189L76.5415 227.141L72.3721 231.455L72.4221 231.504L76.5914 227.189ZM76.5329 227.132L68.4165 219.352L64.2644 223.683L72.3808 231.464L76.5329 227.132ZM68.4165 219.352C67.8164 218.776 67.3936 218.118 67.1319 217.43L61.5242 219.565C62.1012 221.081 63.0201 222.49 64.2644 223.683L68.4165 219.352ZM64.9929 215.572C65.0705 215.59 65.1929 215.635 65.3214 215.738C65.4562 215.845 65.542 215.972 65.5846 216.071L60.0768 218.45C60.7872 220.095 62.1717 221.084 63.6632 221.423L64.9929 215.572ZM65.5846 216.071C65.3106 215.436 65.1713 214.761 65.1713 214.083L59.1713 214.083C59.1713 215.585 59.4802 217.07 60.0768 218.45L65.5846 216.071ZM65.1713 214.083C65.1713 213.404 65.3106 212.729 65.5846 212.095L60.0768 209.715C59.4802 211.096 59.1713 212.58 59.1713 214.083L65.1713 214.083ZM65.5846 212.095C65.8588 211.461 66.2643 210.876 66.7844 210.377L62.6323 206.046C61.5438 207.089 60.6732 208.335 60.0768 209.715L65.5846 212.095ZM66.7844 210.377C67.3048 209.878 67.9294 209.476 68.6257 209.2L66.4114 203.623C65.0058 204.181 63.7206 205.002 62.6323 206.046L66.7844 210.377ZM68.6257 209.2C69.3221 208.923 70.0726 208.779 70.8333 208.779L70.8333 202.779C69.319 202.779 67.8168 203.065 66.4114 203.623L68.6257 209.2ZM70.8333 208.779C71.594 208.779 72.3446 208.923 73.041 209.2L75.2553 203.623C73.8498 203.065 72.3476 202.779 70.8333 202.779L70.8333 208.779ZM73.041 209.2C72.9804 209.176 72.8599 209.109 72.7411 208.973C72.6246 208.839 72.5573 208.692 72.5265 208.568L78.3494 207.121C77.9652 205.575 76.8795 204.268 75.2553 203.623L73.041 209.2ZM74.4483 210.677C75.2081 210.942 75.913 211.364 76.5143 211.94L80.6664 207.609C79.422 206.416 77.9685 205.551 76.4276 205.012L74.4483 210.677ZM76.5143 211.94L78.5559 213.897L82.708 209.566L80.6664 207.609L76.5143 211.94ZM82.708 213.897L84.7494 211.94L80.5973 207.609L78.5559 209.566L82.708 213.897ZM84.7494 211.94C85.351 211.363 86.0565 210.942 86.8168 210.676L84.839 205.011C83.297 205.55 81.8425 206.415 80.5973 207.609L84.7494 211.94Z" fill="black"/>
<path fill-rule="evenodd" clip-rule="evenodd" d="M46.5678 246.72C46.7134 246.123 47.1132 245.607 47.795 245.332C48.7946 244.928 49.866 244.72 50.9481 244.72C52.0301 244.72 53.1015 244.928 54.1012 245.332C55.1008 245.736 56.0091 246.328 56.7742 247.074C57.5393 247.82 58.1462 248.706 58.5603 249.681C58.9744 250.656 59.1875 251.701 59.1875 252.756C59.1875 253.811 58.9744 254.856 58.5603 255.831C58.2774 256.497 57.7476 256.887 57.1342 257.029C56.7353 258.095 56.097 259.096 55.2195 259.952L47.4831 267.497L47.4516 267.528C46.6769 268.284 45.7865 268.857 44.8359 269.249C41.8379 270.485 38.2421 269.911 35.7989 267.528L35.7494 267.48L28.031 259.952C27.1538 259.096 26.5157 258.096 26.1168 257.03C25.5041 256.888 24.9751 256.498 24.6925 255.833C24.2784 254.858 24.0653 253.813 24.0653 252.757C24.0653 251.702 24.2784 250.657 24.6925 249.682C25.1066 248.707 25.7135 247.821 26.4786 247.075C27.2437 246.329 28.152 245.737 29.1516 245.333C30.1513 244.93 31.2227 244.722 32.3047 244.722C33.3868 244.722 34.4582 244.93 35.4578 245.333C36.1392 245.609 36.539 246.124 36.6847 246.72C37.7789 247.109 38.8055 247.732 39.6833 248.588L41.6253 250.482L43.5672 248.588C44.4455 247.731 45.4729 247.109 46.5678 246.72Z" fill="#FF0000"/>
<path d="M46.5678 246.72L47.572 249.546L49.0987 249.004L49.4825 247.43L46.5678 246.72ZM47.795 245.332L46.6713 242.55L46.6713 242.55L47.795 245.332ZM50.9481 244.72L50.9481 247.72L50.9481 244.72ZM54.1012 245.332L55.2248 242.55L55.2248 242.55L54.1012 245.332ZM56.7742 247.074L54.6796 249.222L54.6796 249.222L56.7742 247.074ZM58.5603 249.681L55.799 250.854L55.799 250.854L58.5603 249.681ZM58.5603 255.831L61.3216 257.004L61.3216 257.004L58.5603 255.831ZM57.1342 257.029L56.4608 254.105L54.889 254.467L54.3242 255.978L57.1342 257.029ZM55.2195 259.952L53.1249 257.804L53.1249 257.804L55.2195 259.952ZM47.4831 267.497L45.3885 265.35L45.3828 265.355L47.4831 267.497ZM47.4516 267.528L49.5462 269.676L49.5518 269.67L47.4516 267.528ZM44.8359 269.249L43.6929 266.475L43.6928 266.475L44.8359 269.249ZM35.7989 267.528L33.6953 269.667L33.7043 269.676L35.7989 267.528ZM35.7494 267.48L37.853 265.341L37.844 265.332L35.7494 267.48ZM28.031 259.952L25.9364 262.1L25.9364 262.1L28.031 259.952ZM26.1168 257.03L28.9266 255.979L28.3622 254.47L26.7926 254.107L26.1168 257.03ZM24.6925 255.833L21.9312 257.005L21.9312 257.005L24.6925 255.833ZM24.6925 249.682L27.4538 250.855L27.4538 250.855L24.6925 249.682ZM26.4786 247.075L28.5732 249.223L28.5732 249.223L26.4786 247.075ZM29.1516 245.333L30.2753 248.115L30.2753 248.115L29.1516 245.333ZM32.3047 244.722L32.3047 247.722L32.3047 244.722ZM35.4578 245.333L36.5815 242.552L36.5815 242.552L35.4578 245.333ZM36.6847 246.72L33.7704 247.432L34.1545 249.005L35.6798 249.547L36.6847 246.72ZM39.6833 248.588L37.5887 250.736L37.5887 250.736L39.6833 248.588ZM41.6253 250.482L39.5307 252.629L41.6253 254.672L43.7199 252.629L41.6253 250.482ZM43.5672 248.588L45.6618 250.736L45.6618 250.736L43.5672 248.588ZM49.4825 247.43C49.4514 247.557 49.3831 247.711 49.2606 247.855C49.1352 248.001 49.0016 248.08 48.9187 248.114L46.6713 242.55C45.0706 243.197 44.0215 244.498 43.6532 246.009L49.4825 247.43ZM48.9187 248.114C49.5599 247.854 50.2497 247.72 50.9481 247.72L50.9481 241.72C49.4824 241.72 48.0293 242.002 46.6713 242.55L48.9187 248.114ZM50.9481 247.72C51.6464 247.72 52.3362 247.854 52.9775 248.114L55.2248 242.55C53.8668 242.002 52.4138 241.72 50.9481 241.72L50.9481 247.72ZM52.9775 248.114C53.6186 248.373 54.1964 248.75 54.6796 249.222L58.8688 244.926C57.8219 243.905 56.583 243.099 55.2248 242.55L52.9775 248.114ZM54.6796 249.222C55.1627 249.693 55.5418 250.248 55.799 250.854L61.3216 248.508C60.7507 247.164 59.9159 245.947 58.8688 244.926L54.6796 249.222ZM55.799 250.854C56.0562 251.459 56.1875 252.105 56.1875 252.756L62.1875 252.756C62.1875 251.296 61.8926 249.852 61.3216 248.508L55.799 250.854ZM56.1875 252.756C56.1875 253.407 56.0562 254.053 55.799 254.658L61.3216 257.004C61.8926 255.659 62.1875 254.216 62.1875 252.756L56.1875 252.756ZM55.799 254.658C55.8438 254.553 55.9344 254.416 56.0805 254.297C56.2211 254.183 56.3609 254.128 56.4608 254.105L57.8075 259.952C59.2864 259.611 60.6357 258.619 61.3216 257.004L55.799 254.658ZM54.3242 255.978C54.0784 256.635 53.6828 257.26 53.1249 257.804L57.3141 262.1C58.5113 260.932 59.3921 259.556 59.9441 258.079L54.3242 255.978ZM53.1249 257.804L45.3885 265.35L49.5777 269.645L57.3141 262.1L53.1249 257.804ZM45.3828 265.355L45.3513 265.386L49.5518 269.67L49.5833 269.639L45.3828 265.355ZM45.357 265.38C44.8637 265.862 44.2984 266.226 43.6929 266.475L45.979 272.023C47.2746 271.489 48.4902 270.706 49.5462 269.676L45.357 265.38ZM43.6928 266.475C41.7516 267.275 39.4407 266.89 37.8936 265.381L33.7043 269.676C37.0435 272.933 41.9241 273.694 45.9791 272.023L43.6928 266.475ZM37.9026 265.389L37.853 265.341L33.6457 269.618L33.6953 269.667L37.9026 265.389ZM37.844 265.332L30.1256 257.804L25.9364 262.1L33.6547 269.627L37.844 265.332ZM30.1256 257.804C29.5679 257.26 29.1724 256.636 28.9266 255.979L23.307 258.081C23.859 259.557 24.7396 260.933 25.9364 262.1L30.1256 257.804ZM26.7926 254.107C26.8926 254.13 27.0323 254.185 27.1727 254.299C27.3186 254.418 27.4091 254.555 27.4538 254.66L21.9312 257.005C22.6164 258.619 23.9636 259.611 25.441 259.953L26.7926 254.107ZM27.4538 254.66C27.1966 254.054 27.0653 253.408 27.0653 252.757L21.0653 252.757C21.0653 254.217 21.3602 255.661 21.9312 257.005L27.4538 254.66ZM27.0653 252.757C27.0653 252.107 27.1966 251.46 27.4538 250.855L21.9312 248.509C21.3602 249.854 21.0653 251.298 21.0653 252.757L27.0653 252.757ZM27.4538 250.855C27.711 250.249 28.0901 249.694 28.5732 249.223L24.384 244.928C23.3369 245.949 22.5021 247.165 21.9312 248.509L27.4538 250.855ZM28.5732 249.223C29.0564 248.752 29.6342 248.374 30.2753 248.115L28.0279 242.552C26.6698 243.1 25.4309 243.906 24.384 244.928L28.5732 249.223ZM30.2753 248.115C30.9166 247.856 31.6064 247.722 32.3047 247.722L32.3047 241.722C30.839 241.722 29.386 242.003 28.0279 242.552L30.2753 248.115ZM32.3047 247.722C33.0031 247.722 33.6929 247.856 34.3341 248.115L36.5815 242.552C35.2235 242.003 33.7704 241.722 32.3047 241.722L32.3047 247.722ZM34.3341 248.115C34.2512 248.081 34.1177 248.003 33.9924 247.856C33.8699 247.713 33.8015 247.559 33.7704 247.432L39.5991 246.008C39.2303 244.499 38.1814 243.198 36.5815 242.552L34.3341 248.115ZM35.6798 249.547C36.3785 249.795 37.0302 250.191 37.5887 250.736L41.778 246.44C40.5808 245.273 39.1794 244.423 37.6897 243.893L35.6798 249.547ZM37.5887 250.736L39.5307 252.629L43.7199 248.334L41.778 246.44L37.5887 250.736ZM43.7199 252.629L45.6618 250.736L41.4726 246.44L39.5307 248.334L43.7199 252.629ZM45.6618 250.736C46.2206 250.191 46.8728 249.795 47.572 249.546L45.5637 243.893C44.0729 244.422 42.6704 245.272 41.4726 246.44L45.6618 250.736Z" fill="black"/>
<path fill-rule="evenodd" clip-rule="evenodd" d="M285.197 5.84381C285.347 5.22699 285.757 4.69449 286.456 4.4099C287.481 3.99261 288.58 3.77783 289.69 3.77783C290.8 3.77783 291.899 3.99261 292.924 4.4099C293.949 4.8272 294.881 5.43883 295.665 6.20989C296.45 6.98095 297.073 7.89633 297.497 8.90377C297.922 9.9112 298.141 10.991 298.141 12.0814C298.141 13.1718 297.922 14.2516 297.497 15.259C297.207 15.9473 296.664 16.3505 296.035 16.4965C295.626 17.5989 294.971 18.6331 294.071 19.5175L286.134 27.3158L286.104 27.3461C285.361 28.076 284.514 28.6417 283.61 29.043C280.498 30.4246 276.71 29.859 274.152 27.3462L274.103 27.2969L266.185 19.5174C265.286 18.6333 264.631 17.5995 264.222 16.4976C263.594 16.3512 263.051 15.9481 262.761 15.2605C262.336 14.2531 262.118 13.1733 262.118 12.0829C262.118 10.9925 262.336 9.9127 262.761 8.90527C263.186 7.89783 263.808 6.98245 264.593 6.21139C265.378 5.44033 266.309 4.8287 267.335 4.41141C268.36 3.99411 269.459 3.77933 270.569 3.77933C271.678 3.77933 272.777 3.99411 273.802 4.41141C274.501 4.69586 274.911 5.22799 275.061 5.84444C276.183 6.24641 277.236 6.88972 278.136 7.77436L280.128 9.73145L282.12 7.77448C283.021 6.88928 284.074 6.24573 285.197 5.84381Z" fill="#FF0000"/>
<path d="M285.197 5.84381L286.208 8.66837L287.732 8.12289L288.113 6.54945L285.197 5.84381ZM286.456 4.4099L287.587 7.18857L287.587 7.18857L286.456 4.4099ZM289.69 3.77783L289.69 6.77783L289.69 3.77783ZM292.924 4.4099L291.793 7.18857L291.793 7.18857L292.924 4.4099ZM295.665 6.20989L297.768 4.07003L295.665 6.20989ZM297.497 15.259L300.262 16.4244L300.262 16.4244L297.497 15.259ZM296.035 16.4965L295.356 13.5742L293.784 13.9391L293.222 15.4527L296.035 16.4965ZM294.071 19.5175L296.173 21.6574L296.173 21.6574L294.071 19.5175ZM286.134 27.3158L284.032 25.176L284.026 25.1813L286.134 27.3158ZM286.104 27.3461L288.206 29.4859L288.212 29.4806L286.104 27.3461ZM283.61 29.043L282.393 26.3011L282.393 26.3011L283.61 29.043ZM274.152 27.3462L272.041 29.4775L272.05 29.4861L274.152 27.3462ZM274.103 27.2969L276.214 25.1656L276.205 25.1571L274.103 27.2969ZM266.185 19.5174L264.083 21.6572L266.185 19.5174ZM264.222 16.4976L267.034 15.4533L266.473 13.9416L264.903 13.5758L264.222 16.4976ZM262.761 15.2605L265.526 14.0952L265.526 14.0952L262.761 15.2605ZM262.761 8.90527L265.526 10.0706L265.526 10.0706L262.761 8.90527ZM264.593 6.21139L266.696 8.35126L266.696 8.35126L264.593 6.21139ZM267.335 4.41141L268.466 7.19008L268.466 7.19008L267.335 4.41141ZM270.569 3.77933L270.569 0.779334L270.569 3.77933ZM273.802 4.41141L272.672 7.19008L272.672 7.19008L273.802 4.41141ZM275.061 5.84444L272.145 6.55126L272.526 8.12329L274.049 8.66874L275.061 5.84444ZM278.136 7.77436L276.034 9.91422L276.034 9.91422L278.136 7.77436ZM280.128 9.73145L278.026 11.8713L280.128 13.9373L282.231 11.8713L280.128 9.73145ZM282.12 7.77448L280.017 5.63462L280.017 5.63462L282.12 7.77448ZM288.113 6.54945C288.086 6.66378 288.023 6.8074 287.908 6.94335C287.789 7.08294 287.663 7.15751 287.587 7.18857L285.325 1.63123C283.702 2.29164 282.65 3.61507 282.282 5.13816L288.113 6.54945ZM287.587 7.18857C288.252 6.91783 288.967 6.77783 289.69 6.77783L289.69 0.777832C288.193 0.777831 286.71 1.06739 285.325 1.63123L287.587 7.18857ZM289.69 6.77783C290.413 6.77783 291.128 6.91783 291.793 7.18857L294.055 1.63123C292.669 1.06739 291.186 0.777832 289.69 0.777832L289.69 6.77783ZM291.793 7.18857C292.458 7.45929 293.059 7.85471 293.563 8.34976L297.768 4.07003C296.702 3.02296 295.44 2.19511 294.055 1.63123L291.793 7.18857ZM293.563 8.34976C294.067 8.8447 294.463 9.42941 294.733 10.0691L300.262 7.73842C299.682 6.36325 298.834 5.1172 297.768 4.07003L293.563 8.34976ZM294.733 10.0691C295.003 10.7087 295.141 11.3923 295.141 12.0814L301.141 12.0814C301.141 10.5896 300.842 9.11371 300.262 7.73842L294.733 10.0691ZM295.141 12.0814C295.141 12.7705 295.003 13.4541 294.733 14.0937L300.262 16.4244C300.842 15.0491 301.141 13.5732 301.141 12.0814L295.141 12.0814ZM294.733 14.0937C294.772 14.0015 294.855 13.8727 294.994 13.7589C295.128 13.6493 295.262 13.5962 295.356 13.5742L296.713 19.4189C298.215 19.0703 299.573 18.0577 300.262 16.4244L294.733 14.0937ZM293.222 15.4527C292.964 16.1476 292.55 16.8062 291.968 17.3776L296.173 21.6574C297.392 20.46 298.287 19.0501 298.847 17.5403L293.222 15.4527ZM291.968 17.3776L284.032 25.176L288.237 29.4557L296.173 21.6574L291.968 17.3776ZM284.026 25.1813L283.996 25.2115L288.212 29.4806L288.242 29.4504L284.026 25.1813ZM284.001 25.2062C283.52 25.6787 282.975 26.0426 282.393 26.3011L284.827 31.7849C286.053 31.2407 287.201 30.4734 288.206 29.4859L284.001 25.2062ZM282.393 26.3011C280.361 27.2033 277.899 26.8218 276.255 25.2063L272.05 29.4861C275.52 32.8962 280.636 33.646 284.828 31.7849L282.393 26.3011ZM276.264 25.2149L276.214 25.1657L271.991 29.4282L272.041 29.4775L276.264 25.2149ZM276.205 25.1571L268.288 17.3775L264.083 21.6572L272 29.4368L276.205 25.1571ZM268.288 17.3775C267.706 16.8063 267.292 16.1479 267.034 15.4533L261.41 17.5418C261.97 19.051 262.865 20.4604 264.083 21.6572L268.288 17.3775ZM264.903 13.5758C264.998 13.5979 265.131 13.6511 265.265 13.7607C265.404 13.8744 265.487 14.0031 265.526 14.0952L259.997 16.4259C260.684 18.0574 262.041 19.0698 263.541 19.4193L264.903 13.5758ZM265.526 14.0952C265.256 13.4556 265.118 12.772 265.118 12.0829L259.118 12.0829C259.118 13.5747 259.417 15.0506 259.997 16.4259L265.526 14.0952ZM265.118 12.0829C265.118 11.3938 265.256 10.7102 265.526 10.0706L259.997 7.73991C259.417 9.1152 259.118 10.5911 259.118 12.0829L265.118 12.0829ZM265.526 10.0706C265.795 9.43091 266.192 8.8462 266.696 8.35126L262.49 4.07152C261.425 5.1187 260.576 6.36475 259.997 7.73992L265.526 10.0706ZM266.696 8.35126C267.199 7.85621 267.8 7.46079 268.466 7.19008L266.204 1.63273C264.818 2.19661 263.556 3.02446 262.49 4.07152L266.696 8.35126ZM268.466 7.19008C269.131 6.91933 269.846 6.77933 270.569 6.77933L270.569 0.779334C269.072 0.779333 267.589 1.06889 266.204 1.63273L268.466 7.19008ZM270.569 6.77933C271.292 6.77933 272.006 6.91933 272.672 7.19008L274.933 1.63274C273.548 1.06889 272.065 0.779334 270.569 0.779334L270.569 6.77933ZM272.672 7.19008C272.595 7.15903 272.469 7.08452 272.351 6.94502C272.235 6.80916 272.173 6.66561 272.145 6.55126L277.976 5.13762C277.607 3.61528 276.555 2.2928 274.933 1.63273L272.672 7.19008ZM274.049 8.66874C274.774 8.92828 275.452 9.34231 276.034 9.91422L280.239 5.63449C279.02 4.43712 277.592 3.56454 276.072 3.02014L274.049 8.66874ZM276.034 9.91422L278.026 11.8713L282.231 7.59159L280.239 5.63449L276.034 9.91422ZM282.231 11.8713L284.222 9.91435L280.017 5.63462L278.026 7.59159L282.231 11.8713ZM284.222 9.91435C284.805 9.34208 285.483 8.92788 286.208 8.66837L284.187 3.01924C282.666 3.56357 281.237 4.43649 280.017 5.63462L284.222 9.91435Z" fill="black"/>
<path fill-rule="evenodd" clip-rule="evenodd" d="M344.828 25.8438C344.981 25.227 345.401 24.6945 346.118 24.4099C347.169 23.9926 348.295 23.7778 349.433 23.7778C350.57 23.7778 351.697 23.9926 352.748 24.4099C353.798 24.8272 354.753 25.4388 355.558 26.2099C356.362 26.9809 357 27.8963 357.435 28.9038C357.871 29.9112 358.095 30.991 358.095 32.0814C358.095 33.1718 357.871 34.2516 357.435 35.259C357.138 35.9473 356.581 36.3505 355.936 36.4965C355.517 37.5989 354.846 38.6331 353.923 39.5175L345.787 47.3175L345.757 47.3461C345.123 47.9541 344.414 48.4482 343.66 48.8282C343.534 48.8916 343.407 48.9517 343.279 49.0087C340.075 50.4338 336.15 49.8796 333.507 47.3462L333.457 47.2979L325.34 39.5174C324.418 38.6333 323.747 37.5995 323.328 36.4976C322.684 36.3512 322.128 35.9481 321.831 35.2605C321.395 34.2531 321.171 33.1733 321.171 32.0829C321.171 30.9925 321.395 29.9127 321.831 28.9053C322.266 27.8978 322.904 26.9824 323.708 26.2114C324.513 25.4403 325.468 24.8287 326.519 24.4114C327.569 23.9941 328.696 23.7793 329.833 23.7793C330.971 23.7793 332.097 23.9941 333.148 24.4114C333.864 24.6959 334.285 25.228 334.438 25.8444C335.588 26.2464 336.668 26.8897 337.59 27.7744L339.632 29.7315L341.673 27.7745C342.597 26.8893 343.677 26.2457 344.828 25.8438Z" fill="#FF0000"/>
<path d="M344.828 25.8438L345.817 28.6761L347.349 28.1412L347.74 26.5661L344.828 25.8438ZM346.118 24.4099L345.011 21.6217L346.118 24.4099ZM349.433 23.7778L349.433 20.7778L349.433 23.7778ZM355.558 26.2099L353.482 28.3755L353.482 28.3755L355.558 26.2099ZM357.435 28.9038L354.681 30.0937L354.681 30.0937L357.435 28.9038ZM357.435 35.259L354.681 34.0691L354.681 34.0691L357.435 35.259ZM355.936 36.4965L355.274 33.5706L353.704 33.9259L353.132 35.4299L355.936 36.4965ZM353.923 39.5175L351.847 37.3519L351.847 37.3519L353.923 39.5175ZM345.787 47.3175L343.711 45.1518L343.705 45.1568L345.787 47.3175ZM345.757 47.3461L347.833 49.5117L347.838 49.5068L345.757 47.3461ZM343.66 48.8282L342.31 46.149L342.31 46.149L343.66 48.8282ZM343.279 49.0087L342.06 46.2676L342.06 46.2676L343.279 49.0087ZM333.507 47.3462L331.422 49.5035L331.431 49.5118L333.507 47.3462ZM333.457 47.2979L335.542 45.1406L335.533 45.1323L333.457 47.2979ZM325.34 39.5174L323.264 41.683L323.264 41.683L325.34 39.5174ZM323.328 36.4976L326.132 35.4305L325.56 33.9283L323.993 33.5722L323.328 36.4976ZM321.831 35.2605L324.585 34.0706L324.585 34.0706L321.831 35.2605ZM321.831 28.9053L324.585 30.0952L324.585 30.0952L321.831 28.9053ZM323.708 26.2114L321.632 24.0457L321.632 24.0457L323.708 26.2114ZM326.519 24.4114L325.411 21.6232L325.411 21.6232L326.519 24.4114ZM329.833 23.7793L329.833 20.7793L329.833 20.7793L329.833 23.7793ZM333.148 24.4114L332.041 27.1996L332.041 27.1996L333.148 24.4114ZM334.438 25.8444L331.526 26.5679L331.918 28.1416L333.448 28.6765L334.438 25.8444ZM337.59 27.7744L339.666 25.6087L339.666 25.6087L337.59 27.7744ZM339.632 29.7315L337.556 31.8971L339.632 33.8873L341.708 31.8971L339.632 29.7315ZM341.673 27.7745L339.597 25.6088L339.597 25.6088L341.673 27.7745ZM347.74 26.5661C347.709 26.6902 347.642 26.8371 347.525 26.9711C347.406 27.1077 347.286 27.1741 347.225 27.1981L345.011 21.6217C343.386 22.2669 342.3 23.5744 341.916 25.1215L347.74 26.5661ZM347.225 27.1981C347.922 26.9216 348.672 26.7778 349.433 26.7778L349.433 20.7778C347.918 20.7778 346.416 21.0636 345.011 21.6217L347.225 27.1981ZM349.433 26.7778C350.193 26.7778 350.944 26.9216 351.64 27.1981L353.855 21.6217C352.449 21.0636 350.947 20.7778 349.433 20.7778L349.433 26.7778ZM351.64 27.1981C352.337 27.4746 352.961 27.8767 353.482 28.3755L357.634 24.0442C356.545 23.001 355.26 22.1798 353.855 21.6217L351.64 27.1981ZM353.482 28.3755C354.002 28.8741 354.407 29.4592 354.681 30.0937L360.189 27.7138C359.593 26.3335 358.722 25.0878 357.634 24.0442L353.482 28.3755ZM354.681 30.0937C354.956 30.7279 355.095 31.4029 355.095 32.0814L361.095 32.0814C361.095 30.579 360.786 29.0945 360.189 27.7138L354.681 30.0937ZM355.095 32.0814C355.095 32.7599 354.956 33.4349 354.681 34.0691L360.189 36.449C360.786 35.0683 361.095 33.5838 361.095 32.0814L355.095 32.0814ZM354.681 34.0691C354.724 33.9704 354.81 33.8437 354.945 33.7361C355.074 33.6334 355.196 33.5881 355.274 33.5706L356.599 39.4225C358.092 39.0844 359.478 38.0948 360.189 36.449L354.681 34.0691ZM353.132 35.4299C352.87 36.1179 352.448 36.7764 351.847 37.3519L355.999 41.6832C357.244 40.4899 358.163 39.0798 358.74 37.5632L353.132 35.4299ZM351.847 37.3519L343.711 45.1518L347.863 49.4831L355.999 41.6832L351.847 37.3519ZM343.705 45.1568L343.676 45.1853L347.838 49.5068L347.868 49.4782L343.705 45.1568ZM343.681 45.1804C343.267 45.5773 342.805 45.8999 342.31 46.149L345.01 51.5075C346.024 50.9965 346.978 50.331 347.833 49.5117L343.681 45.1804ZM342.31 46.149C342.228 46.1906 342.144 46.2301 342.06 46.2676L344.498 51.7498C344.67 51.6734 344.841 51.5926 345.01 51.5074L342.31 46.149ZM342.06 46.2676C339.914 47.2221 337.303 46.8296 335.583 45.1805L331.431 49.5118C334.996 52.9296 340.236 53.6454 344.498 51.7498L342.06 46.2676ZM335.591 45.1888L335.541 45.1406L331.372 49.4553L331.422 49.5035L335.591 45.1888ZM335.533 45.1323L327.416 37.3517L323.264 41.683L331.381 49.4636L335.533 45.1323ZM327.416 37.3517C326.816 36.7764 326.394 36.1182 326.132 35.4305L320.524 37.5646C321.101 39.0807 322.02 40.4902 323.264 41.683L327.416 37.3517ZM323.993 33.5722C324.07 33.5898 324.193 33.6352 324.321 33.7379C324.456 33.8455 324.542 33.972 324.585 34.0706L319.077 36.4505C319.787 38.0945 321.172 39.084 322.663 39.423L323.993 33.5722ZM324.585 34.0706C324.311 33.4364 324.171 32.7614 324.171 32.0829L318.171 32.0829C318.171 33.5853 318.48 35.0698 319.077 36.4505L324.585 34.0706ZM324.171 32.0829C324.171 31.4045 324.311 30.7294 324.585 30.0952L319.077 27.7153C318.48 29.096 318.171 30.5805 318.171 32.0829L324.171 32.0829ZM324.585 30.0952C324.859 29.4607 325.264 28.8756 325.784 28.377L321.632 24.0457C320.544 25.0893 319.673 26.335 319.077 27.7153L324.585 30.0952ZM325.784 28.377C326.305 27.8782 326.929 27.4761 327.626 27.1996L325.411 21.6232C324.006 22.1813 322.721 23.0025 321.632 24.0457L325.784 28.377ZM327.626 27.1996C328.322 26.9231 329.073 26.7793 329.833 26.7793L329.833 20.7793C328.319 20.7793 326.817 21.0651 325.411 21.6232L327.626 27.1996ZM329.833 26.7793C330.594 26.7793 331.345 26.9231 332.041 27.1996L334.255 21.6232C332.85 21.0651 331.348 20.7793 329.833 20.7793L329.833 26.7793ZM332.041 27.1996C331.98 27.1756 331.86 27.1093 331.741 26.9728C331.625 26.8389 331.557 26.6921 331.526 26.5679L337.349 25.121C336.965 23.5747 335.879 22.2681 334.255 21.6232L332.041 27.1996ZM333.448 28.6765C334.208 28.942 334.913 29.3636 335.514 29.94L339.666 25.6087C338.422 24.4158 336.968 23.5508 335.428 23.0124L333.448 28.6765ZM335.514 29.94L337.556 31.8971L341.708 27.5658L339.666 25.6087L335.514 29.94ZM341.708 31.8971L343.749 29.9401L339.597 25.6088L337.556 27.5658L341.708 31.8971ZM343.749 29.9401C344.351 29.3634 345.057 28.9416 345.817 28.6761L343.839 23.0115C342.297 23.5499 340.843 24.4152 339.597 25.6088L343.749 29.9401Z" fill="black"/>
<path fill-rule="evenodd" clip-rule="evenodd" d="M305.568 64.7196C305.713 64.1226 306.113 63.6073 306.795 63.3319C307.795 62.9281 308.866 62.7202 309.948 62.7202C311.03 62.7202 312.102 62.9281 313.101 63.3319C314.101 63.7357 315.009 64.3276 315.774 65.0738C316.539 65.82 317.146 66.7059 317.56 67.6808C317.974 68.6557 318.187 69.7007 318.187 70.7559C318.187 71.8112 317.974 72.8561 317.56 73.8311C317.277 74.4971 316.748 74.8873 316.134 75.0286C315.735 76.0954 315.097 77.0963 314.219 77.9522L306.483 85.4973L306.452 85.5282C305.677 86.2836 304.786 86.8572 303.836 87.249C300.838 88.4846 297.242 87.9111 294.799 85.5283L294.749 85.4795L287.031 77.952C286.154 77.0965 285.516 76.096 285.117 75.0296C284.504 74.888 283.975 74.4979 283.692 73.8325C283.278 72.8576 283.065 71.8126 283.065 70.7574C283.065 69.7021 283.278 68.6572 283.692 67.6822C284.107 66.7073 284.713 65.8215 285.479 65.0753C286.244 64.3291 287.152 63.7372 288.152 63.3333C289.151 62.9295 290.223 62.7217 291.305 62.7217C292.387 62.7217 293.458 62.9295 294.458 63.3333C295.139 63.6086 295.539 64.1236 295.685 64.7202C296.779 65.1092 297.806 65.7317 298.683 66.5878L300.625 68.4818L302.567 66.5879C303.446 65.7313 304.473 65.1085 305.568 64.7196Z" fill="#FF0000"/>
<path d="M305.568 64.7196L306.572 67.5465L308.099 67.0042L308.482 65.4302L305.568 64.7196ZM306.795 63.3319L305.671 60.5503L305.671 60.5503L306.795 63.3319ZM309.948 62.7202L309.948 65.7202L309.948 62.7202ZM313.101 63.3319L314.225 60.5503L314.225 60.5503L313.101 63.3319ZM315.774 65.0738L313.68 67.2215L313.68 67.2215L315.774 65.0738ZM317.56 67.6808L314.799 68.8535L314.799 68.8535L317.56 67.6808ZM317.56 73.8311L320.322 75.0038L320.322 75.0038L317.56 73.8311ZM316.134 75.0286L315.461 72.1052L313.889 72.4672L313.324 73.9779L316.134 75.0286ZM314.219 77.9522L312.125 75.8045L312.125 75.8045L314.219 77.9522ZM306.483 85.4973L304.388 83.3496L304.383 83.3551L306.483 85.4973ZM306.452 85.5282L308.546 87.6759L308.552 87.6704L306.452 85.5282ZM303.836 87.249L302.693 84.4753L302.693 84.4753L303.836 87.249ZM294.799 85.5283L292.695 87.6672L292.704 87.676L294.799 85.5283ZM294.749 85.4795L296.853 83.3406L296.844 83.3318L294.749 85.4795ZM287.031 77.952L284.936 80.0997L284.936 80.0997L287.031 77.952ZM285.117 75.0296L287.927 73.9785L287.362 72.4696L285.793 72.1067L285.117 75.0296ZM283.692 73.8325L280.931 75.0053L280.931 75.0053L283.692 73.8325ZM283.692 67.6822L286.454 68.855L286.454 68.855L283.692 67.6822ZM285.479 65.0753L287.573 67.223L287.573 67.223L285.479 65.0753ZM288.152 63.3333L289.275 66.115L289.275 66.115L288.152 63.3333ZM291.305 62.7217L291.305 65.7217L291.305 62.7217ZM294.458 63.3333L295.582 60.5517L295.582 60.5517L294.458 63.3333ZM295.685 64.7202L292.77 65.432L293.155 67.0046L294.68 67.5468L295.685 64.7202ZM298.683 66.5878L296.589 68.7355L296.589 68.7355L298.683 66.5878ZM300.625 68.4818L298.531 70.6295L300.625 72.6723L302.72 70.6295L300.625 68.4818ZM302.567 66.5879L304.662 68.7357L304.662 68.7357L302.567 66.5879ZM308.482 65.4302C308.451 65.5574 308.383 65.7113 308.261 65.8547C308.135 66.0013 308.002 66.08 307.919 66.1135L305.671 60.5503C304.071 61.1969 303.022 62.4984 302.653 64.0089L308.482 65.4302ZM307.919 66.1135C308.56 65.8544 309.25 65.7202 309.948 65.7202L309.948 59.7202C308.482 59.7202 307.029 60.0017 305.671 60.5503L307.919 66.1135ZM309.948 65.7202C310.646 65.7202 311.336 65.8544 311.977 66.1135L314.225 60.5503C312.867 60.0017 311.414 59.7202 309.948 59.7202L309.948 65.7202ZM311.977 66.1135C312.619 66.3725 313.196 66.7502 313.68 67.2215L317.869 62.9261C316.822 61.905 315.583 61.099 314.225 60.5503L311.977 66.1135ZM313.68 67.2215C314.163 67.6927 314.542 68.2479 314.799 68.8535L320.322 66.508C319.751 65.1638 318.916 63.9473 317.869 62.9261L313.68 67.2215ZM314.799 68.8535C315.056 69.459 315.187 70.1052 315.187 70.7559L321.187 70.7559C321.187 69.2961 320.893 67.8525 320.322 66.508L314.799 68.8535ZM315.187 70.7559C315.187 71.4067 315.056 72.0529 314.799 72.6583L320.322 75.0038C320.893 73.6594 321.187 72.2157 321.187 70.7559L315.187 70.7559ZM314.799 72.6583C314.844 72.553 314.934 72.416 315.08 72.2974C315.221 72.1833 315.361 72.1282 315.461 72.1052L316.808 77.9521C318.286 77.6114 319.636 76.6189 320.322 75.0038L314.799 72.6583ZM313.324 73.9779C313.078 74.6352 312.683 75.2603 312.125 75.8045L316.314 80.0999C317.511 78.9323 318.392 77.5557 318.944 76.0793L313.324 73.9779ZM312.125 75.8045L304.388 83.3496L308.578 87.645L316.314 80.0999L312.125 75.8045ZM304.383 83.3551L304.351 83.386L308.552 87.6704L308.583 87.6395L304.383 83.3551ZM304.357 83.3805C303.864 83.8615 303.298 84.2257 302.693 84.4753L304.979 90.0227C306.275 89.4888 307.49 88.7057 308.546 87.6759L304.357 83.3805ZM302.693 84.4753C300.752 85.2754 298.441 84.8895 296.894 83.3806L292.704 87.676C296.043 90.9326 300.924 91.6939 304.979 90.0226L302.693 84.4753ZM296.903 83.3894L296.853 83.3406L292.646 87.6184L292.695 87.6672L296.903 83.3894ZM296.844 83.3318L289.126 75.8043L284.936 80.0997L292.655 87.6272L296.844 83.3318ZM289.126 75.8043C288.568 75.2604 288.172 74.6355 287.927 73.9785L282.307 76.0808C282.859 77.5565 283.74 78.9326 284.936 80.0997L289.126 75.8043ZM285.793 72.1067C285.893 72.1299 286.032 72.1851 286.173 72.2992C286.319 72.4177 286.409 72.5546 286.454 72.6598L280.931 75.0053C281.616 76.6185 282.964 77.6109 284.441 77.9525L285.793 72.1067ZM286.454 72.6598C286.197 72.0543 286.065 71.4081 286.065 70.7574L280.065 70.7574C280.065 72.2172 280.36 73.6608 280.931 75.0053L286.454 72.6598ZM286.065 70.7574C286.065 70.1067 286.197 69.4605 286.454 68.855L280.931 66.5095C280.36 67.8539 280.065 69.2976 280.065 70.7574L286.065 70.7574ZM286.454 68.855C286.711 68.2494 287.09 67.6941 287.573 67.223L283.384 62.9276C282.337 63.9488 281.502 65.1652 280.931 66.5095L286.454 68.855ZM287.573 67.223C288.056 66.7517 288.634 66.374 289.275 66.115L287.028 60.5517C285.67 61.1004 284.431 61.9065 283.384 62.9276L287.573 67.223ZM289.275 66.115C289.917 65.8559 290.606 65.7217 291.305 65.7217L291.305 59.7217C289.839 59.7217 288.386 60.0031 287.028 60.5517L289.275 66.115ZM291.305 65.7217C292.003 65.7217 292.693 65.8559 293.334 66.115L295.582 60.5517C294.223 60.0031 292.77 59.7217 291.305 59.7217L291.305 65.7217ZM293.334 66.115C293.251 66.0815 293.118 66.0028 292.992 65.8563C292.87 65.7131 292.801 65.5592 292.77 65.432L298.599 64.0084C298.23 62.4986 297.181 61.198 295.582 60.5517L293.334 66.115ZM294.68 67.5468C295.379 67.7952 296.03 68.1908 296.589 68.7355L300.778 64.4401C299.581 63.2726 298.179 62.4231 296.69 61.8935L294.68 67.5468ZM296.589 68.7355L298.531 70.6295L302.72 66.3341L300.778 64.4401L296.589 68.7355ZM302.72 70.6295L304.662 68.7357L300.473 64.4402L298.531 66.3341L302.72 70.6295ZM304.662 68.7357C305.221 68.1906 305.873 67.7949 306.572 67.5465L304.564 61.8926C303.073 62.4221 301.67 63.272 300.473 64.4402L304.662 68.7357Z" fill="black"/>
</svg>
