<svg width="197" height="257" viewBox="0 0 197 257" fill="none" xmlns="http://www.w3.org/2000/svg">
<line x1="120" y1="115.05" x2="192.05" y2="43" stroke="black" stroke-width="7" stroke-linecap="round"/>
<path d="M44.7259 134.651C43.8979 129.896 47.0967 125.184 51.8607 124.142L65.8983 121.072C71.0056 119.956 75.7403 123.505 76.0693 128.696L81.2795 210.912C81.5856 215.742 77.9348 220.092 73.1251 220.629L67.7601 221.227C63.3159 221.723 59.3717 218.779 58.6087 214.396L44.7259 134.651Z" fill="#C08CF4"/>
<path d="M47.4624 140.008C48.0031 135.29 44.6644 130.823 39.9499 129.957L25.8306 127.365C20.6042 126.405 15.9465 130.245 15.9174 135.538L15.4639 217.811C15.4376 222.581 19.2146 226.679 23.9664 227.037L29.3622 227.442C33.8951 227.783 37.77 224.593 38.2854 220.095L47.4624 140.008Z" fill="#C08CF4"/>
<path d="M45.664 235.703C49.0509 236.102 51.6035 238.972 51.6035 242.382V242.382C51.6035 246.097 48.5925 249.108 44.8782 249.108L22.405 249.108C17.9631 249.108 14.3623 245.507 14.3623 241.065V241.065C14.3623 236.251 18.5634 232.515 23.3447 233.077L45.664 235.703Z" fill="white"/>
<path d="M92.0885 228.398C95.4736 228.812 98.013 231.695 97.9974 235.105V235.105C97.9803 238.819 94.9555 241.816 91.2412 241.799L68.7683 241.696C64.3265 241.676 60.7422 238.058 60.7626 233.617V233.617C60.7847 228.802 65.0029 225.086 69.7816 225.67L92.0885 228.398Z" fill="white"/>
<rect x="27.4551" y="125.279" width="37.8105" height="37.7618" rx="8.76265" transform="rotate(-3.19494 27.4551 125.279)" fill="#C08CF4"/>
<path fill-rule="evenodd" clip-rule="evenodd" d="M58.4306 77.5725C58.3426 75.6288 59.4263 73.8511 61.1015 72.8615V72.8615C66.4931 69.6764 79.5595 79.756 81.3477 85.7573C82.0765 88.2034 83.1141 90.604 84.4735 92.9052C87.8518 98.6239 92.7269 102.898 98.2769 105.505C102.344 107.417 104.819 112.401 102.611 116.315V116.315C101.621 118.07 99.8592 119.301 97.8441 119.319C85.7016 119.43 72.6586 111.688 64.8109 98.4034C60.8283 91.6617 58.7415 84.4369 58.4306 77.5725Z" fill="#304967"/>
<path d="M21.7214 77.4843C22.8422 71.2171 28.2934 66.6543 34.66 66.6543H58.2803C64.6211 66.6543 70.0579 71.181 71.2068 77.4168L79.2466 121.057C80.0418 125.373 78.5854 129.812 74.7251 131.9C69.0619 134.964 59.094 138.699 44.1542 138.699C28.3534 138.699 20.0229 134.521 15.9916 131.378C13.5617 129.483 12.9905 126.303 13.5329 123.27L21.7214 77.4843Z" fill="white"/>
<path d="M21.9265 74.1019L13.4901 123.317C12.975 126.321 13.5499 129.465 15.9495 131.345C18.7175 133.514 23.5377 136.187 31.4598 137.639C38.4461 138.919 44.3269 133.056 44.5443 125.957L46.0576 76.5277C46.2675 69.6717 40.7667 64 33.9075 64C27.9866 64 22.9269 68.2661 21.9265 74.1019Z" fill="#304967"/>
<rect x="128.361" y="108.616" width="13.144" height="21.9066" rx="6.57199" transform="rotate(90.8679 128.361 108.616)" fill="#C17A38"/>
<rect x="57.1133" y="143.345" width="13.144" height="21.9066" rx="6.57199" transform="rotate(127.655 57.1133 143.345)" fill="#C17A38"/>
<path fill-rule="evenodd" clip-rule="evenodd" d="M28.0379 68.7812C29.3045 67.7692 31.0288 67.6031 32.5249 68.2276V68.2276C37.6687 70.3746 38.3007 93.3934 35.8378 98.3936C35.5777 98.9217 35.3325 99.461 35.1028 100.011C31.9133 107.653 32.3378 115.935 35.5993 123.079C36.8651 125.852 36.8365 129.158 34.9683 131.567L34.7053 131.906C33.1758 133.878 30.6053 134.843 28.3024 133.882V133.882C12.6712 127.358 6.61085 106.229 14.7663 86.6902C17.8588 79.2811 22.5512 73.1645 28.0379 68.7812Z" fill="#304967"/>
<path d="M38.0586 53.786C38.3132 48.4354 43.2666 44.5635 48.5204 45.6082L52.5197 46.4035C56.62 47.2189 59.5733 50.8173 59.5733 54.9979V62.4637C59.5733 67.3032 55.6501 71.2264 50.8106 71.2264H46.4181C41.4151 71.2264 37.4275 67.0445 37.6654 62.0471L38.0586 53.786Z" fill="#C17A38"/>
<rect x="48.0703" y="22.1562" width="21.9066" height="31.9837" rx="10.9533" fill="#7F00FF"/>
<path fill-rule="evenodd" clip-rule="evenodd" d="M26.9783 41.689C24.8342 30.8848 31.1403 20.4203 41.2556 18.1658C44.7742 17.3815 48.2974 17.6924 51.5077 18.8815C53.6517 29.6857 47.3457 40.1503 37.2304 42.4048C33.7117 43.189 30.1885 42.8781 26.9783 41.689Z" fill="#7F00FF"/>
<path d="M71.926 39.2637C71.926 56.5002 68.2869 63 57.2613 63C46.2358 63 28.9795 55.209 28.9795 42.956C28.9795 30.7031 43.0933 15 54.1189 15C65.1445 15 71.926 23.5002 71.926 39.2637Z" fill="#C17A38"/>
<path fill-rule="evenodd" clip-rule="evenodd" d="M69.9774 18.4691C68.5836 24.9282 63.7857 30.6922 56.8151 33.2887C49.0807 36.1698 40.8182 34.3517 35.5092 29.288C36.5762 26.6723 38.1367 24.167 40.1895 21.9221C48.4518 12.8868 61.6287 11.4183 69.9774 18.4691Z" fill="#7F00FF"/>
<path fill-rule="evenodd" clip-rule="evenodd" d="M38.565 58.2118C37.34 50.3185 40.4794 41.0504 47.5819 33.9479C54.1802 27.3496 62.6475 24.1717 70.1452 24.7359C68.9803 22.5257 67.4649 20.4463 65.6 18.5814C55.8458 8.82724 40.2243 8.63414 30.7083 18.1501C21.1923 27.6661 21.3854 43.2876 31.1396 53.0418C33.3581 55.2603 35.8802 56.9843 38.565 58.2118Z" fill="#7F00FF"/>
<path fill-rule="evenodd" clip-rule="evenodd" d="M44.0208 47.6559C43.3374 50.2063 40.0788 50.9561 38.1905 49.1106C36.2073 47.1725 35.2862 44.3614 36.0187 41.6276V41.6276C36.7021 39.0772 39.9607 38.3274 41.8491 40.1729C43.8322 42.111 44.7533 44.9221 44.0208 47.6559V47.6559Z" fill="#C17A38"/>
<path d="M75.4196 44.1461L71.5392 38.8582C70.3958 37.3001 67.9268 38.1089 67.9268 40.0415V46.94C67.9268 48.366 69.3764 49.3338 70.6935 48.7872L74.5739 47.1765C75.7715 46.6794 76.1868 45.1915 75.4196 44.1461Z" fill="#C17A38"/>
<rect width="5" height="7.5" rx="2.5" transform="matrix(-1 0 0 1 60.9238 35.3057)" fill="black"/>
<rect width="3.26823" height="8.64696" rx="1.63411" transform="matrix(-0.5 -0.866025 -0.859129 0.511759 59.9883 29.8301)" fill="black"/>
<path d="M61.4277 53.3062C63.1697 55.9317 67.4278 55.8061 69.7066 55.9317L70.207 55.4316C66.4277 56.3062 61.4277 53.3062 61.4277 53.3062Z" stroke="black" stroke-width="3.3" stroke-linecap="round" stroke-linejoin="round"/>
<mask id="path-24-outside-1" maskUnits="userSpaceOnUse" x="3.26172" y="4.1377" width="132" height="252" fill="black">
<rect fill="white" x="3.26172" y="4.1377" width="132" height="252"/>
<path fill-rule="evenodd" clip-rule="evenodd" d="M37.8637 57.8779L37.6652 62.0477C37.5859 63.7158 37.9773 65.2931 38.7201 66.6543H34.6597C29.8294 66.6543 25.526 69.2807 23.2409 73.2852C19.8252 77.0336 16.9105 81.5509 14.7654 86.6899C9.96327 98.1951 10.09 110.251 14.1974 119.553L13.5326 123.27C12.9902 126.303 13.5614 129.483 15.9912 131.378C16.2222 131.558 16.4672 131.741 16.7269 131.927C16.2147 133.008 15.9242 134.228 15.917 135.537L15.4635 217.811C15.4372 222.581 19.2143 226.679 23.966 227.036L29.3619 227.442C33.8948 227.783 37.7697 224.592 38.285 220.095L44.9277 162.125L49.4638 161.871L58.6079 214.396C59.3709 218.779 63.3151 221.723 67.7593 221.227L73.1243 220.628C77.9339 220.092 81.5848 215.742 81.2787 210.912L76.2075 130.89C78.9492 128.569 79.9299 124.768 79.2462 121.057L77.6752 112.529C83.9671 116.983 91.046 119.381 97.8428 119.319C99.8579 119.301 101.619 118.07 102.609 116.315C104.817 112.401 102.343 107.417 98.2756 105.505C92.7256 102.898 87.8505 98.6239 84.4722 92.9052C83.1127 90.604 82.0752 88.2034 81.3463 85.7573C80.2901 82.2125 75.2989 77.2447 70.2787 74.4282C68.2326 69.8529 63.6873 66.7447 58.5072 66.6562C59.1223 65.5294 59.497 64.2526 59.5627 62.8948C66.7757 62.1907 70.2628 57.9197 71.4449 48.4754L74.574 47.1765C75.7717 46.6794 76.1869 45.1915 75.4197 44.1461L71.9268 39.3862L71.9268 39.2643C71.9268 33.3662 70.9774 28.4849 69.2115 24.6852C69.5244 24.6958 69.8359 24.7127 70.1457 24.736C69.7131 23.9152 69.2321 23.1124 68.7029 22.332C69.2639 21.0879 69.6926 19.7933 69.9783 18.4695C66.9951 15.95 63.3954 14.5183 59.6238 14.131C50.2447 9.09162 38.4543 10.4048 30.7088 18.1502C21.1929 27.6662 21.386 43.2877 31.1401 53.0419C33.1643 55.0661 35.4412 56.6785 37.8637 57.8779ZM128.261 115.188C128.316 111.558 125.418 108.572 121.789 108.517L113.028 108.384C109.398 108.329 106.412 111.227 106.357 114.856C106.302 118.485 109.199 121.472 112.829 121.527L121.59 121.659C125.219 121.714 128.206 118.817 128.261 115.188ZM51.6027 242.383C51.6027 238.972 49.0501 236.102 45.6631 235.703L23.3439 233.078C18.5625 232.515 14.3614 236.251 14.3614 241.065C14.3614 245.507 17.9623 249.108 22.4042 249.108H44.8773C48.5917 249.108 51.6027 246.097 51.6027 242.383ZM92.0877 228.399C95.4728 228.813 98.0122 231.695 97.9965 235.105C97.9795 238.819 94.9547 241.817 91.2404 241.8L68.7675 241.696C64.3256 241.676 60.7413 238.059 60.7617 233.617C60.7838 228.803 65.002 225.086 69.7808 225.671L92.0877 228.399Z"/>
</mask>
<path d="M37.6652 62.0477L30.6732 61.7149L30.6732 61.7149L37.6652 62.0477ZM37.8637 57.8779L40.9695 51.6046C43.4625 52.8389 44.988 55.4321 44.8558 58.2107L37.8637 57.8779ZM38.7201 66.6543L44.8647 63.301C46.0483 65.4699 46.0008 68.1021 44.7398 70.2269C43.4788 72.3517 41.1909 73.6543 38.7201 73.6543V66.6543ZM23.2409 73.2852L29.3207 76.7546C29.0655 77.2018 28.7617 77.6195 28.4149 78L23.2409 73.2852ZM14.7654 86.6899L8.30557 83.9936L8.30557 83.9936L14.7654 86.6899ZM14.1974 119.553L20.6008 116.725C21.1637 118 21.3334 119.413 21.0881 120.785L14.1974 119.553ZM13.5326 123.27L6.64193 122.038L6.64193 122.038L13.5326 123.27ZM15.9912 131.378L11.6874 136.898L11.6873 136.898L15.9912 131.378ZM16.7269 131.927L20.8002 126.234C23.5544 128.205 24.5029 131.865 23.0524 134.925L16.7269 131.927ZM15.917 135.537L8.91714 135.499L8.91714 135.499L15.917 135.537ZM15.4635 217.811L8.46361 217.772L8.46361 217.772L15.4635 217.811ZM23.966 227.036L24.4908 220.056L24.4909 220.056L23.966 227.036ZM29.3619 227.442L28.8371 234.422L28.837 234.422L29.3619 227.442ZM38.285 220.095L45.2395 220.892L45.2395 220.892L38.285 220.095ZM44.9277 162.125L37.9733 161.328C38.3614 157.94 41.1335 155.325 44.5376 155.135L44.9277 162.125ZM49.4638 161.871L49.0737 154.882C52.6192 154.684 55.7511 157.172 56.3601 160.671L49.4638 161.871ZM58.6079 214.396L51.7116 215.596L51.7116 215.596L58.6079 214.396ZM67.7593 221.227L68.5354 228.184L68.5354 228.184L67.7593 221.227ZM73.1243 220.628L72.3482 213.672L72.3482 213.672L73.1243 220.628ZM81.2787 210.912L88.2647 210.469L88.2647 210.469L81.2787 210.912ZM76.2075 130.89L69.2215 131.332C69.0814 129.122 69.9952 126.977 71.6854 125.546L76.2075 130.89ZM79.2462 121.057L72.3621 122.325L72.3621 122.325L79.2462 121.057ZM77.6752 112.529L70.791 113.797C70.2751 110.997 71.5069 108.163 73.9066 106.63C76.3062 105.097 79.3953 105.17 81.7195 106.816L77.6752 112.529ZM97.8428 119.319L97.7789 112.32L97.7789 112.32L97.8428 119.319ZM102.609 116.315L108.706 119.754L108.706 119.754L102.609 116.315ZM98.2756 105.505L95.2986 111.841L95.2986 111.841L98.2756 105.505ZM84.4722 92.9052L78.4453 96.4656L78.4453 96.4656L84.4722 92.9052ZM81.3463 85.7573L88.0549 83.7584L88.0549 83.7584L81.3463 85.7573ZM70.2787 74.4282L66.8537 80.5331C65.5421 79.7973 64.5024 78.6587 63.8885 77.2859L70.2787 74.4282ZM58.5072 66.6562L58.3877 73.6552C55.9385 73.6134 53.6893 72.2943 52.4572 70.1772C51.2251 68.06 51.1893 65.4528 52.3629 63.3027L58.5072 66.6562ZM59.5627 62.8948L52.5709 62.5565C52.7387 59.087 55.4255 56.2653 58.8827 55.9279L59.5627 62.8948ZM71.4449 48.4754L64.4991 47.606C64.8114 45.1105 66.4385 42.9743 68.7613 42.0102L71.4449 48.4754ZM74.574 47.1765L71.8905 40.7113L71.8905 40.7113L74.574 47.1765ZM75.4197 44.1461L81.0632 40.0047L81.0632 40.0047L75.4197 44.1461ZM71.9268 39.3862L66.2833 43.5276C65.4013 42.3257 64.926 40.8735 64.9268 39.3827L71.9268 39.3862ZM71.9268 39.2643L78.9268 39.2643L78.9268 39.2678L71.9268 39.2643ZM69.2115 24.6852L62.8636 27.6354C61.8384 25.4296 62.0319 22.8497 63.3745 20.8214C64.7172 18.7931 67.0165 17.6072 69.4476 17.6892L69.2115 24.6852ZM70.1457 24.736L76.3382 21.4722C77.5256 23.7251 77.3958 26.4451 75.9993 28.5746C74.6028 30.7042 72.1599 31.9074 69.6205 31.7163L70.1457 24.736ZM68.7029 22.332L62.9094 26.2608C61.5445 24.2481 61.322 21.6712 62.3217 19.4544L68.7029 22.332ZM69.9783 18.4695L74.4948 13.1215C76.4721 14.7914 77.3667 17.4161 76.8208 19.946L69.9783 18.4695ZM59.6238 14.131L58.9086 21.0943C57.9989 21.0009 57.1163 20.7301 56.3107 20.2973L59.6238 14.131ZM30.7088 18.1502L35.6586 23.1L35.6586 23.1L30.7088 18.1502ZM121.789 108.517L121.683 115.516L121.683 115.516L121.789 108.517ZM128.261 115.188L135.26 115.294L135.26 115.294L128.261 115.188ZM113.028 108.384L113.134 101.385L113.134 101.385L113.028 108.384ZM112.829 121.527L112.935 114.527L112.935 114.527L112.829 121.527ZM121.59 121.659L121.484 128.658L121.484 128.658L121.59 121.659ZM45.6631 235.703L46.481 228.751L46.481 228.751L45.6631 235.703ZM23.3439 233.078L22.526 240.03L22.526 240.03L23.3439 233.078ZM44.8773 249.108L44.8774 256.108H44.8773V249.108ZM97.9965 235.105L90.9966 235.073L90.9966 235.073L97.9965 235.105ZM92.0877 228.399L91.2379 235.347L91.2379 235.347L92.0877 228.399ZM91.2404 241.8L91.2725 234.8L91.2725 234.8L91.2404 241.8ZM68.7675 241.696L68.7354 248.696L68.7354 248.696L68.7675 241.696ZM60.7617 233.617L67.7617 233.649L67.7617 233.649L60.7617 233.617ZM69.7808 225.671L70.6305 218.722L70.6305 218.722L69.7808 225.671ZM30.6732 61.7149L30.8716 57.5451L44.8558 58.2107L44.6573 62.3805L30.6732 61.7149ZM32.5756 70.0076C31.2349 67.5509 30.531 64.7023 30.6732 61.7149L44.6573 62.3805C44.6407 62.7294 44.7197 63.0353 44.8647 63.301L32.5756 70.0076ZM34.6597 59.6543H38.7201V73.6543H34.6597V59.6543ZM17.1611 69.8159C20.6596 63.6851 27.2512 59.6543 34.6597 59.6543V73.6543C32.4076 73.6543 30.3925 74.8764 29.3207 76.7546L17.1611 69.8159ZM8.30557 83.9936C10.7563 78.1221 14.1032 72.9202 18.0669 68.5704L28.4149 78C25.5473 81.147 23.0646 84.9796 21.2253 89.3862L8.30557 83.9936ZM7.79394 122.38C2.83096 111.142 2.84434 97.0778 8.30557 83.9936L21.2253 89.3862C17.0822 99.3124 17.3491 109.361 20.6008 116.725L7.79394 122.38ZM6.64193 122.038L7.30672 118.32L21.0881 120.785L20.4233 124.502L6.64193 122.038ZM11.6873 136.898C6.39666 132.774 5.8578 126.422 6.64193 122.038L20.4233 124.502C20.2936 125.228 20.3488 125.716 20.408 125.936C20.4335 126.031 20.4494 126.04 20.423 125.999C20.392 125.95 20.3436 125.895 20.2952 125.857L11.6873 136.898ZM12.6536 137.62C12.3155 137.378 11.9936 137.137 11.6874 136.898L20.2951 125.857C20.4507 125.979 20.6189 126.105 20.8002 126.234L12.6536 137.62ZM8.91714 135.499C8.92999 133.166 9.45031 130.936 10.4014 128.929L23.0524 134.925C22.9791 135.08 22.9185 135.29 22.9169 135.576L8.91714 135.499ZM8.46361 217.772L8.91714 135.499L22.9169 135.576L22.4634 217.849L8.46361 217.772ZM23.4412 234.017C15.0164 233.383 8.41709 226.213 8.46361 217.772L22.4634 217.849C22.4573 218.948 23.4122 219.975 24.4908 220.056L23.4412 234.017ZM28.837 234.422L23.4412 234.017L24.4909 220.056L29.8867 220.462L28.837 234.422ZM45.2395 220.892C44.2932 229.15 37.0934 235.043 28.8371 234.422L29.8867 220.462C30.3378 220.496 30.6613 220.359 30.8805 220.179C31.0989 219.999 31.2822 219.72 31.3306 219.298L45.2395 220.892ZM51.8822 162.921L45.2395 220.892L31.3306 219.298L37.9733 161.328L51.8822 162.921ZM49.854 168.86L45.3179 169.114L44.5376 155.135L49.0737 154.882L49.854 168.86ZM51.7116 215.596L42.5676 163.072L56.3601 160.671L65.5042 213.195L51.7116 215.596ZM68.5354 228.184C60.4455 229.086 53.1145 223.655 51.7116 215.596L65.5042 213.195C65.5748 213.601 65.7667 213.864 65.9904 214.031C66.2151 214.199 66.5405 214.319 66.9832 214.27L68.5354 228.184ZM73.9004 227.585L68.5354 228.184L66.9831 214.27L72.3482 213.672L73.9004 227.585ZM88.2647 210.469C88.8071 219.027 82.4229 226.634 73.9004 227.585L72.3482 213.672C73.4449 213.549 74.3625 212.456 74.2927 211.354L88.2647 210.469ZM83.1934 130.447L88.2647 210.469L74.2927 211.354L69.2215 131.332L83.1934 130.447ZM86.1304 119.789C87.1531 125.34 85.8288 131.917 80.7295 136.233L71.6854 125.546C72.0697 125.221 72.7067 124.196 72.3621 122.325L86.1304 119.789ZM84.5593 111.261L86.1304 119.789L72.3621 122.325L70.791 113.797L84.5593 111.261ZM97.9067 126.319C89.4324 126.396 80.9423 123.418 73.6309 118.243L81.7195 106.816C86.9919 110.548 92.6597 112.366 97.7789 112.32L97.9067 126.319ZM108.706 119.754C106.719 123.278 102.864 126.274 97.9067 126.319L97.7789 112.32C97.3478 112.324 97.0065 112.463 96.8008 112.596C96.6123 112.718 96.5381 112.831 96.5127 112.876L108.706 119.754ZM101.253 99.1701C104.847 100.859 107.702 103.859 109.224 107.388C110.773 110.983 111.077 115.553 108.706 119.754L96.5126 112.876C96.4605 112.968 96.4373 113.08 96.4364 113.144C96.4358 113.184 96.4448 113.11 96.3675 112.93C96.2897 112.75 96.1503 112.527 95.9423 112.312C95.7358 112.098 95.5088 111.94 95.2986 111.841L101.253 99.1701ZM90.4991 89.3449C93.1449 93.8236 96.9432 97.1451 101.253 99.1701L95.2986 111.841C88.5081 108.65 82.5561 103.424 78.4453 96.4656L90.4991 89.3449ZM88.0549 83.7584C88.6221 85.662 89.4316 87.5378 90.4991 89.3449L78.4453 96.4656C76.7939 93.6702 75.5283 90.7448 74.6378 87.7563L88.0549 83.7584ZM73.7037 68.3234C76.8237 70.0738 79.8459 72.4312 82.285 74.9064C84.5608 77.216 87.0352 80.3364 88.0549 83.7584L74.6378 87.7563C74.654 87.8106 74.5608 87.5089 74.1137 86.8602C73.6946 86.2521 73.0914 85.5228 72.313 84.7328C70.7373 83.1338 68.7538 81.5991 66.8537 80.5331L73.7037 68.3234ZM58.6268 59.6573C66.5724 59.793 73.5335 64.5596 76.6688 71.5706L63.8885 77.2859C62.9317 75.1462 60.8022 73.6965 58.3877 73.6552L58.6268 59.6573ZM66.5545 63.233C66.4366 65.6721 65.7612 67.977 64.6516 70.0098L52.3629 63.3027C52.4834 63.0819 52.5575 62.8332 52.5709 62.5565L66.5545 63.233ZM78.3907 49.3447C77.7316 54.6103 76.3193 59.5814 73.1721 63.4087C69.7943 67.5165 65.2106 69.3768 60.2427 69.8616L58.8827 55.9279C61.1278 55.7087 61.8942 55.0815 62.3586 54.5167C63.0537 53.6713 63.976 51.7848 64.4991 47.606L78.3907 49.3447ZM77.2575 53.6417L74.1284 54.9406L68.7613 42.0102L71.8905 40.7113L77.2575 53.6417ZM81.0632 40.0047C84.5155 44.7092 82.6471 51.4047 77.2575 53.6417L71.8905 40.7113C68.8963 41.9541 67.8583 45.6739 69.7762 48.2875L81.0632 40.0047ZM77.5703 35.2448L81.0632 40.0047L69.7762 48.2875L66.2833 43.5276L77.5703 35.2448ZM78.9268 39.2678L78.9268 39.3897L64.9268 39.3827L64.9268 39.2608L78.9268 39.2678ZM75.5595 21.735C77.8724 26.7116 78.9268 32.6683 78.9268 39.2643H64.9268C64.9268 34.064 64.0825 30.2581 62.8636 27.6354L75.5595 21.735ZM69.6205 31.7163C69.4079 31.7003 69.1929 31.6886 68.9755 31.6812L69.4476 17.6892C69.856 17.703 70.2638 17.7251 70.6709 17.7557L69.6205 31.7163ZM74.4964 18.4032C75.1715 19.3988 75.7856 20.4236 76.3382 21.4722L63.9531 27.9998C63.6406 27.4068 63.2927 26.8261 62.9094 26.2608L74.4964 18.4032ZM76.8208 19.946C76.429 21.7612 75.8438 23.5249 75.084 25.2096L62.3217 19.4544C62.6841 18.6508 62.9561 17.8253 63.1357 16.9929L76.8208 19.946ZM60.339 7.16759C65.4153 7.68898 70.3643 9.63312 74.4948 13.1215L65.4617 23.8174C63.6258 22.2669 61.3755 21.3477 58.9086 21.0943L60.339 7.16759ZM25.7591 13.2005C35.8183 3.14132 51.0017 1.5519 62.9369 7.96466L56.3107 20.2973C49.4878 16.6313 41.0903 17.6682 35.6586 23.1L25.7591 13.2005ZM26.1904 57.9917C13.8186 45.6199 13.3948 25.5648 25.7591 13.2005L35.6586 23.1C28.9909 29.7676 28.9533 40.9556 36.0899 48.0922L26.1904 57.9917ZM34.7579 64.1512C31.6602 62.6175 28.7589 60.5602 26.1904 57.9917L36.0899 48.0922C37.5697 49.572 39.2222 50.7395 40.9695 51.6046L34.7579 64.1512ZM121.895 101.518C129.39 101.631 135.374 107.799 135.26 115.294L121.262 115.082C121.258 115.318 121.447 115.512 121.683 115.516L121.895 101.518ZM113.134 101.385L121.895 101.518L121.683 115.516L112.922 115.383L113.134 101.385ZM99.3576 114.75C99.4712 107.255 105.639 101.271 113.134 101.385L112.922 115.383C113.158 115.387 113.352 115.198 113.356 114.962L99.3576 114.75ZM112.723 128.526C105.228 128.412 99.2441 122.244 99.3576 114.75L113.356 114.962C113.36 114.725 113.171 114.531 112.935 114.527L112.723 128.526ZM121.484 128.658L112.723 128.526L112.935 114.527L121.696 114.66L121.484 128.658ZM135.26 115.294C135.147 122.788 128.979 128.772 121.484 128.658L121.696 114.66C121.46 114.656 121.265 114.845 121.262 115.082L135.26 115.294ZM46.481 228.751C53.3933 229.565 58.6027 235.423 58.6027 242.383H44.6027C44.6027 242.522 44.7069 242.639 44.8452 242.655L46.481 228.751ZM24.1618 226.126L46.481 228.751L44.8453 242.655L22.526 240.03L24.1618 226.126ZM7.36143 241.065C7.36143 232.061 15.219 225.073 24.1618 226.126L22.526 240.03C21.9061 239.957 21.3614 240.441 21.3614 241.065H7.36143ZM22.4042 256.108C14.0963 256.108 7.36143 249.373 7.36143 241.065H21.3614C21.3614 241.641 21.8283 242.108 22.4042 242.108V256.108ZM44.8773 256.108H22.4042V242.108H44.8773V256.108ZM58.6027 242.383C58.6027 249.963 52.4576 256.108 44.8774 256.108L44.8773 242.108C44.7257 242.108 44.6027 242.231 44.6027 242.383H58.6027ZM90.9966 235.073C90.996 235.212 91.0997 235.33 91.2379 235.347L92.9375 221.451C99.8459 222.295 105.028 228.177 104.996 235.137L90.9966 235.073ZM91.2725 234.8C91.1208 234.799 90.9973 234.921 90.9966 235.073L104.996 235.137C104.962 242.718 98.7885 248.834 91.2083 248.8L91.2725 234.8ZM68.7996 234.697L91.2725 234.8L91.2083 248.8L68.7354 248.696L68.7996 234.697ZM67.7617 233.649C67.759 234.225 68.2237 234.694 68.7996 234.697L68.7354 248.696C60.4276 248.658 53.7237 241.893 53.7618 233.585L67.7617 233.649ZM68.931 232.619C68.3114 232.543 67.7645 233.025 67.7617 233.649L53.7618 233.585C53.8031 224.58 61.6927 217.629 70.6305 218.722L68.931 232.619ZM91.2379 235.347L68.931 232.619L70.6305 218.722L92.9375 221.451L91.2379 235.347Z" fill="black" mask="url(#path-24-outside-1)"/>
</svg>
