<svg width="124" height="127" viewBox="0 0 124 127" fill="none" xmlns="http://www.w3.org/2000/svg">
<mask id="path-1-outside-1" maskUnits="userSpaceOnUse" x="0" y="0" width="124" height="127" fill="black">
<rect fill="white" width="124" height="127"/>
<path fill-rule="evenodd" clip-rule="evenodd" d="M117 12C117 9.23858 114.761 7 112 7H12C9.23858 7 7 9.23858 7 12V92C7 94.7614 9.23858 97 12 97H33C35.7614 97 38 99.2386 38 102V114.07C38 118.178 42.6776 120.533 45.9773 118.087L73.1022 97.983C73.9636 97.3446 75.0073 97 76.0795 97H112C114.761 97 117 94.7614 117 92V12Z"/>
</mask>
<path fill-rule="evenodd" clip-rule="evenodd" d="M117 12C117 9.23858 114.761 7 112 7H12C9.23858 7 7 9.23858 7 12V92C7 94.7614 9.23858 97 12 97H33C35.7614 97 38 99.2386 38 102V114.07C38 118.178 42.6776 120.533 45.9773 118.087L73.1022 97.983C73.9636 97.3446 75.0073 97 76.0795 97H112C114.761 97 117 94.7614 117 92V12Z" fill="white"/>
<path d="M73.1022 97.983L68.9341 92.3593L73.1022 97.983ZM45.9773 118.087L41.8091 112.464L45.9773 118.087ZM12 14H112V0H12V14ZM14 92V12H0V92H14ZM33 90H12V104H33V90ZM45 114.07V102H31V114.07H45ZM68.9341 92.3593L41.8091 112.464L50.1454 123.711L77.2704 103.607L68.9341 92.3593ZM112 90H76.0795V104H112V90ZM110 12V92H124V12H110ZM112 104C118.627 104 124 98.6274 124 92H110C110 90.8954 110.895 90 112 90V104ZM77.2704 103.607C76.9259 103.862 76.5084 104 76.0795 104V90C73.5063 90 71.0013 90.8271 68.9341 92.3593L77.2704 103.607ZM31 114.07C31 123.928 42.2262 129.581 50.1454 123.711L41.8091 112.464C43.129 111.485 45 112.428 45 114.07H31ZM33 104C31.8954 104 31 103.105 31 102H45C45 95.3726 39.6274 90 33 90V104ZM0 92C0 98.6274 5.37259 104 12 104V90C13.1046 90 14 90.8954 14 92H0ZM112 14C110.895 14 110 13.1046 110 12H124C124 5.37258 118.627 0 112 0V14ZM12 0C5.37258 0 0 5.37259 0 12H14C14 13.1046 13.1046 14 12 14V0Z" fill="black" mask="url(#path-1-outside-1)"/>
<path fill-rule="evenodd" clip-rule="evenodd" d="M73.1478 28.9973C73.2483 28.9459 73.3526 28.8976 73.4609 28.8527C75.2808 28.0989 77.2313 27.7109 79.2012 27.7109C81.171 27.7109 83.1215 28.0989 84.9414 28.8527C86.7613 29.6066 88.4149 30.7115 89.8078 32.1043C91.2007 33.4972 92.3055 35.1508 93.0594 36.9707C93.8132 38.7906 94.2012 40.7411 94.2012 42.7109C94.2012 44.6808 93.8132 46.6313 93.0594 48.4512C93.0097 48.571 92.9559 48.6861 92.8982 48.7964C92.4194 50.189 91.6243 51.4968 90.5129 52.6082L69.2997 73.8214C65.3945 77.7266 59.0628 77.7266 55.1576 73.8214L48.0865 66.7503L48.0459 66.7095L33.9444 52.608C32.8292 51.4929 32.0325 50.1799 31.5542 48.782C31.4999 48.6769 31.449 48.5676 31.402 48.4539C30.6482 46.634 30.2602 44.6835 30.2602 42.7137C30.2602 40.7438 30.6482 38.7933 31.402 36.9734C32.1558 35.1535 33.2607 33.4999 34.6536 32.1071C36.0464 30.7142 37.7 29.6093 39.5199 28.8555C41.3398 28.1017 43.2903 27.7137 45.2602 27.7137C47.23 27.7137 49.1805 28.1017 51.0004 28.8555C51.1054 28.899 51.2067 28.9457 51.3044 28.9954C52.7124 29.4726 54.0352 30.2724 55.1576 31.3948L62.2287 38.4659L69.2997 31.395C70.4207 30.274 71.7417 29.4748 73.1478 28.9973Z" fill="#FF0000"/>
<path d="M73.1478 28.9973L74.1123 31.838L74.3201 31.7675L74.5153 31.6675L73.1478 28.9973ZM73.4609 28.8527L72.3129 26.0811L72.3129 26.0811L73.4609 28.8527ZM84.9414 28.8527L83.7934 31.6244L83.7934 31.6244L84.9414 28.8527ZM89.8078 32.1043L87.6865 34.2257L87.6865 34.2257L89.8078 32.1043ZM93.0594 36.9707L90.2877 38.1187L90.2877 38.1187L93.0594 36.9707ZM93.0594 48.4512L90.2877 47.3031L90.2877 47.3031L93.0594 48.4512ZM92.8982 48.7964L90.2401 47.4055L90.1349 47.6065L90.0612 47.8209L92.8982 48.7964ZM90.5129 52.6082L88.3916 50.4869L90.5129 52.6082ZM69.2997 73.8214L67.1784 71.7001L69.2997 73.8214ZM55.1576 73.8214L53.0362 75.9427L53.0362 75.9427L55.1576 73.8214ZM48.0865 66.7503L45.9591 68.8656L45.9652 68.8716L48.0865 66.7503ZM48.0459 66.7095L50.1733 64.5942L50.1672 64.5882L48.0459 66.7095ZM33.9444 52.608L36.0657 50.4867L36.0657 50.4867L33.9444 52.608ZM31.5542 48.782L34.3927 47.8108L34.3208 47.6008L34.2188 47.4036L31.5542 48.782ZM31.402 48.4539L34.1736 47.3059L34.1736 47.3059L31.402 48.4539ZM31.402 36.9734L34.1736 38.1215L34.1736 38.1215L31.402 36.9734ZM34.6536 32.1071L32.5322 29.9857L32.5322 29.9857L34.6536 32.1071ZM39.5199 28.8555L38.3719 26.0838L38.3719 26.0838L39.5199 28.8555ZM45.2602 27.7137L45.2602 30.7137L45.2602 27.7137ZM51.0004 28.8555L52.1485 26.0838L52.1485 26.0838L51.0004 28.8555ZM51.3044 28.9954L49.9435 31.6689L50.1364 31.7671L50.3414 31.8366L51.3044 28.9954ZM55.1576 31.3948L53.0363 33.5161L53.0363 33.5161L55.1576 31.3948ZM62.2287 38.4659L60.1074 40.5873L62.2287 42.7086L64.3501 40.5873L62.2287 38.4659ZM69.2997 31.395L67.1784 29.2737L67.1784 29.2737L69.2997 31.395ZM74.5153 31.6675C74.5429 31.6534 74.574 31.6389 74.609 31.6244L72.3129 26.0811C72.1313 26.1563 71.9537 26.2383 71.7802 26.3272L74.5153 31.6675ZM74.609 31.6244C76.0649 31.0213 77.6253 30.7109 79.2012 30.7109L79.2012 24.7109C76.8374 24.7109 74.4967 25.1765 72.3129 26.0811L74.609 31.6244ZM79.2012 30.7109C80.777 30.7109 82.3375 31.0213 83.7934 31.6244L86.0895 26.0811C83.9056 25.1765 81.565 24.7109 79.2012 24.7109L79.2012 30.7109ZM83.7934 31.6244C85.2493 32.2274 86.5722 33.1114 87.6865 34.2257L91.9291 29.983C90.2576 28.3116 88.2733 26.9857 86.0895 26.0811L83.7934 31.6244ZM87.6865 34.2257C88.8008 35.34 89.6847 36.6628 90.2877 38.1187L95.831 35.8226C94.9264 33.6388 93.6005 31.6545 91.9291 29.983L87.6865 34.2257ZM90.2877 38.1187C90.8908 39.5746 91.2012 41.1351 91.2012 42.7109L97.2012 42.7109C97.2012 40.3471 96.7356 38.0065 95.831 35.8226L90.2877 38.1187ZM91.2012 42.7109C91.2012 44.2868 90.8908 45.8472 90.2877 47.3031L95.831 49.5992C96.7356 47.4154 97.2012 45.0747 97.2012 42.7109L91.2012 42.7109ZM90.2877 47.3031C90.2717 47.3419 90.2556 47.3758 90.2401 47.4055L95.5563 50.1873C95.6562 49.9964 95.7478 49.8002 95.831 49.5992L90.2877 47.3031ZM90.0612 47.8209C89.7275 48.7915 89.1734 49.7051 88.3916 50.4869L92.6342 54.7295C94.0752 53.2886 95.1113 51.5864 95.7352 49.7719L90.0612 47.8209ZM88.3916 50.4869L67.1784 71.7001L71.421 75.9427L92.6342 54.7295L88.3916 50.4869ZM67.1784 71.7001C64.4447 74.4338 60.0126 74.4338 57.2789 71.7001L53.0362 75.9427C58.1131 81.0195 66.3442 81.0195 71.421 75.9427L67.1784 71.7001ZM57.2789 71.7001L50.2078 64.629L45.9652 68.8716L53.0362 75.9427L57.2789 71.7001ZM50.2139 64.6351L50.1733 64.5942L45.9185 68.8247L45.9591 68.8656L50.2139 64.6351ZM50.1672 64.5882L36.0657 50.4867L31.8231 54.7293L45.9246 68.8308L50.1672 64.5882ZM36.0657 50.4867C35.2813 49.7022 34.7261 48.7851 34.3927 47.8108L28.7158 49.7532C29.339 51.5746 30.3772 53.2835 31.8231 54.7293L36.0657 50.4867ZM34.2188 47.4036C34.204 47.375 34.1888 47.3426 34.1736 47.3059L28.6303 49.602C28.7093 49.7925 28.7957 49.9788 28.8897 50.1604L34.2188 47.4036ZM34.1736 47.3059C33.5706 45.85 33.2602 44.2895 33.2602 42.7137L27.2602 42.7137C27.2602 45.0775 27.7258 47.4181 28.6303 49.602L34.1736 47.3059ZM33.2602 42.7137C33.2602 41.1378 33.5706 39.5774 34.1736 38.1215L28.6303 35.8254C27.7258 38.0092 27.2602 40.3499 27.2602 42.7137L33.2602 42.7137ZM34.1736 38.1215C34.7767 36.6656 35.6606 35.3427 36.7749 34.2284L32.5322 29.9857C30.8608 31.6572 29.5349 33.6415 28.6303 35.8254L34.1736 38.1215ZM36.7749 34.2284C37.8892 33.1141 39.2121 32.2302 40.668 31.6271L38.3719 26.0838C36.188 26.9884 34.2037 28.3143 32.5322 29.9857L36.7749 34.2284ZM40.668 31.6271C42.1239 31.0241 43.6843 30.7137 45.2602 30.7137L45.2602 24.7137C42.8964 24.7137 40.5557 25.1793 38.3719 26.0838L40.668 31.6271ZM45.2602 30.7137C46.836 30.7137 48.3965 31.0241 49.8524 31.6271L52.1485 26.0838C49.9646 25.1793 47.624 24.7137 45.2602 24.7137L45.2602 30.7137ZM49.8524 31.6271C49.8863 31.6412 49.9166 31.6552 49.9435 31.6689L52.6654 26.3219C52.4969 26.2361 52.3246 26.1568 52.1485 26.0838L49.8524 31.6271ZM50.3414 31.8366C51.3229 32.1693 52.2468 32.7266 53.0363 33.5161L57.2789 29.2735C55.8237 27.8182 54.102 26.776 52.2675 26.1542L50.3414 31.8366ZM53.0363 33.5161L60.1074 40.5873L64.3501 36.3446L57.2789 29.2735L53.0363 33.5161ZM64.3501 40.5873L71.421 33.5163L67.1784 29.2737L60.1074 36.3446L64.3501 40.5873ZM71.421 33.5163C72.2096 32.7278 73.1322 32.1708 74.1123 31.838L72.1832 26.1566C70.3511 26.7787 68.6319 27.8202 67.1784 29.2737L71.421 33.5163Z" fill="black"/>
</svg>
