<svg width="197" height="126" viewBox="0 0 197 126" fill="none" xmlns="http://www.w3.org/2000/svg">
<mask id="path-1-outside-1" maskUnits="userSpaceOnUse" x="0" y="0" width="197" height="126" fill="black">
<rect fill="white" width="197" height="126"/>
<path fill-rule="evenodd" clip-rule="evenodd" d="M7 12C7 9.23858 9.23858 7 12 7H185C187.761 7 190 9.23858 190 12V92C190 94.7614 187.761 97 185 97H164C161.239 97 159 99.2386 159 102V113.956C159 118.084 154.28 120.434 150.986 117.945L124.602 98.0107C123.734 97.3548 122.676 97 121.588 97H12C9.23858 97 7 94.7614 7 92V12Z"/>
</mask>
<path fill-rule="evenodd" clip-rule="evenodd" d="M7 12C7 9.23858 9.23858 7 12 7H185C187.761 7 190 9.23858 190 12V92C190 94.7614 187.761 97 185 97H164C161.239 97 159 99.2386 159 102V113.956C159 118.084 154.28 120.434 150.986 117.945L124.602 98.0107C123.734 97.3548 122.676 97 121.588 97H12C9.23858 97 7 94.7614 7 92V12Z" fill="white"/>
<path d="M124.602 98.0107L120.383 103.596L124.602 98.0107ZM150.986 117.945L146.766 123.53L150.986 117.945ZM185 0H12V14H185V0ZM197 92V12H183V92H197ZM164 104H185V90H164V104ZM166 113.956V102H152V113.956H166ZM120.383 103.596L146.766 123.53L155.206 112.36L128.822 92.4256L120.383 103.596ZM12 104H121.588V90H12V104ZM0 12V92H14V12H0ZM12 90C13.1046 90 14 90.8954 14 92H0C0 98.6274 5.37258 104 12 104V90ZM128.822 92.4256C126.739 90.8516 124.199 90 121.588 90V104C121.153 104 120.73 103.858 120.383 103.596L128.822 92.4256ZM152 113.956C152 112.304 153.888 111.364 155.206 112.36L146.766 123.53C154.671 129.503 166 123.864 166 113.956H152ZM164 90C157.373 90 152 95.3726 152 102H166C166 103.105 165.105 104 164 104V90ZM183 92C183 90.8954 183.895 90 185 90V104C191.627 104 197 98.6274 197 92H183ZM12 0C5.37259 0 0 5.37258 0 12H14C14 13.1046 13.1046 14 12 14V0ZM185 14C183.895 14 183 13.1046 183 12H197C197 5.37259 191.627 0 185 0V14Z" fill="black" mask="url(#path-1-outside-1)"/>
<path d="M67.9608 33.896C68.0728 33.576 68.2488 33.336 68.4888 33.176C68.7448 33.016 69.0248 32.936 69.3288 32.936C69.7128 32.936 70.0408 33.056 70.3128 33.296C70.6008 33.536 70.7448 33.856 70.7448 34.256C70.7448 34.4 70.7048 34.608 70.6248 34.88L65.4648 49.16C65.3368 49.48 65.1208 49.728 64.8168 49.904C64.5288 50.08 64.2088 50.168 63.8568 50.168C63.5048 50.168 63.1768 50.08 62.8728 49.904C62.5688 49.728 62.3608 49.48 62.2488 49.16L58.2648 37.856L54.2088 49.16C54.0808 49.48 53.8648 49.728 53.5608 49.904C53.2728 50.08 52.9528 50.168 52.6008 50.168C52.2488 50.168 51.9208 50.08 51.6168 49.904C51.3288 49.728 51.1288 49.48 51.0168 49.16L45.8568 34.88C45.7768 34.64 45.7368 34.432 45.7368 34.256C45.7368 33.856 45.8808 33.536 46.1688 33.296C46.4728 33.056 46.8248 32.936 47.2248 32.936C47.5448 32.936 47.8328 33.016 48.0888 33.176C48.3448 33.336 48.5288 33.576 48.6408 33.896L52.7208 45.632L56.9208 33.968C57.0328 33.648 57.2168 33.4 57.4728 33.224C57.7288 33.032 58.0088 32.936 58.3128 32.936C58.6168 32.936 58.8968 33.032 59.1528 33.224C59.4248 33.4 59.6168 33.656 59.7288 33.992L63.8088 45.776L67.9608 33.896ZM80.7348 37.976C83.4868 37.976 84.8628 39.584 84.8628 42.8V48.704C84.8628 49.152 84.7268 49.504 84.4548 49.76C84.1988 50.016 83.8388 50.144 83.3748 50.144C82.9108 50.144 82.5428 50.016 82.2708 49.76C81.9988 49.504 81.8628 49.152 81.8628 48.704V42.8C81.8628 41.952 81.6868 41.336 81.3348 40.952C80.9988 40.552 80.4628 40.352 79.7268 40.352C78.8628 40.352 78.1668 40.624 77.6388 41.168C77.1268 41.712 76.8708 42.44 76.8708 43.352V48.704C76.8708 49.152 76.7348 49.504 76.4628 49.76C76.1908 50.016 75.8228 50.144 75.3588 50.144C74.8948 50.144 74.5268 50.016 74.2548 49.76C73.9988 49.504 73.8708 49.152 73.8708 48.704V34.352C73.8708 33.936 74.0068 33.6 74.2788 33.344C74.5668 33.088 74.9348 32.96 75.3828 32.96C75.8308 32.96 76.1908 33.08 76.4628 33.32C76.7348 33.56 76.8708 33.888 76.8708 34.304V39.896C77.2708 39.272 77.7988 38.8 78.4548 38.48C79.1268 38.144 79.8868 37.976 80.7348 37.976ZM92.9018 50.192C91.7018 50.192 90.6458 49.944 89.7338 49.448C88.8378 48.952 88.1418 48.24 87.6458 47.312C87.1498 46.384 86.9018 45.304 86.9018 44.072C86.9018 42.84 87.1498 41.768 87.6458 40.856C88.1418 39.928 88.8378 39.216 89.7338 38.72C90.6458 38.224 91.7018 37.976 92.9018 37.976C94.1018 37.976 95.1498 38.224 96.0458 38.72C96.9578 39.216 97.6538 39.928 98.1338 40.856C98.6298 41.768 98.8778 42.84 98.8778 44.072C98.8778 45.304 98.6298 46.384 98.1338 47.312C97.6538 48.24 96.9578 48.952 96.0458 49.448C95.1498 49.944 94.1018 50.192 92.9018 50.192ZM92.8778 47.864C93.8538 47.864 94.5978 47.544 95.1098 46.904C95.6218 46.264 95.8778 45.32 95.8778 44.072C95.8778 42.84 95.6218 41.904 95.1098 41.264C94.5978 40.608 93.8618 40.28 92.9018 40.28C91.9418 40.28 91.1978 40.608 90.6698 41.264C90.1578 41.904 89.9018 42.84 89.9018 44.072C89.9018 45.32 90.1578 46.264 90.6698 46.904C91.1818 47.544 91.9178 47.864 92.8778 47.864ZM108.638 50.144C108.206 50.144 107.846 50.024 107.558 49.784C107.286 49.528 107.15 49.168 107.15 48.704V34.376C107.15 33.912 107.286 33.56 107.558 33.32C107.846 33.08 108.206 32.96 108.638 32.96C109.07 32.96 109.43 33.08 109.718 33.32C110.006 33.56 110.15 33.912 110.15 34.376V48.704C110.15 49.168 110.006 49.528 109.718 49.784C109.43 50.024 109.07 50.144 108.638 50.144ZM114.372 50.144C113.94 50.144 113.58 50.024 113.292 49.784C113.02 49.528 112.884 49.168 112.884 48.704V39.44C112.884 38.976 113.02 38.624 113.292 38.384C113.58 38.144 113.94 38.024 114.372 38.024C114.804 38.024 115.164 38.144 115.452 38.384C115.74 38.624 115.884 38.976 115.884 39.44V48.704C115.884 49.168 115.74 49.528 115.452 49.784C115.164 50.024 114.804 50.144 114.372 50.144ZM114.372 35.888C113.828 35.888 113.396 35.744 113.076 35.456C112.756 35.152 112.596 34.76 112.596 34.28C112.596 33.8 112.756 33.416 113.076 33.128C113.396 32.84 113.828 32.696 114.372 32.696C114.9 32.696 115.324 32.84 115.644 33.128C115.98 33.416 116.148 33.8 116.148 34.28C116.148 34.76 115.988 35.152 115.668 35.456C115.348 35.744 114.916 35.888 114.372 35.888ZM129.058 47.672C129.378 47.976 129.538 48.32 129.538 48.704C129.538 49.072 129.402 49.4 129.13 49.688C128.874 49.976 128.57 50.12 128.218 50.12C127.866 50.12 127.538 49.976 127.234 49.688L121.618 44.6V48.704C121.618 49.168 121.474 49.52 121.186 49.76C120.898 50 120.538 50.12 120.106 50.12C119.674 50.12 119.314 50 119.026 49.76C118.754 49.52 118.618 49.168 118.618 48.704V34.376C118.618 33.912 118.754 33.56 119.026 33.32C119.314 33.08 119.674 32.96 120.106 32.96C120.538 32.96 120.898 33.08 121.186 33.32C121.474 33.56 121.618 33.912 121.618 34.376V43.4L126.754 38.48C127.042 38.192 127.37 38.048 127.738 38.048C128.106 38.048 128.426 38.184 128.698 38.456C128.97 38.728 129.106 39.048 129.106 39.416C129.106 39.784 128.954 40.12 128.65 40.424L124.882 43.928L129.058 47.672ZM140.249 46.784C140.521 46.784 140.737 46.888 140.897 47.096C141.073 47.304 141.161 47.584 141.161 47.936C141.161 48.432 140.865 48.848 140.273 49.184C139.729 49.488 139.113 49.736 138.425 49.928C137.737 50.104 137.081 50.192 136.457 50.192C134.569 50.192 133.073 49.648 131.969 48.56C130.865 47.472 130.313 45.984 130.313 44.096C130.313 42.896 130.553 41.832 131.033 40.904C131.513 39.976 132.185 39.256 133.049 38.744C133.929 38.232 134.921 37.976 136.025 37.976C137.081 37.976 138.001 38.208 138.785 38.672C139.569 39.136 140.177 39.792 140.609 40.64C141.041 41.488 141.257 42.488 141.257 43.64C141.257 44.328 140.953 44.672 140.345 44.672H133.265C133.361 45.776 133.673 46.592 134.201 47.12C134.729 47.632 135.497 47.888 136.505 47.888C137.017 47.888 137.465 47.824 137.849 47.696C138.249 47.568 138.697 47.392 139.193 47.168C139.673 46.912 140.025 46.784 140.249 46.784ZM136.097 40.088C135.281 40.088 134.625 40.344 134.129 40.856C133.649 41.368 133.361 42.104 133.265 43.064H138.689C138.657 42.088 138.417 41.352 137.969 40.856C137.521 40.344 136.897 40.088 136.097 40.088ZM147.599 50.192C145.855 50.192 144.447 49.848 143.375 49.16C142.863 48.856 142.607 48.424 142.607 47.864C142.607 47.544 142.695 47.288 142.871 47.096C143.047 46.888 143.263 46.784 143.519 46.784C143.791 46.784 144.167 46.912 144.647 47.168C145.159 47.408 145.623 47.592 146.039 47.72C146.471 47.848 147.015 47.912 147.671 47.912C148.343 47.912 148.863 47.8 149.231 47.576C149.615 47.352 149.807 47.04 149.807 46.64C149.807 46.368 149.727 46.152 149.567 45.992C149.423 45.832 149.151 45.688 148.751 45.56C148.367 45.416 147.775 45.256 146.975 45.08C145.551 44.792 144.527 44.384 143.903 43.856C143.295 43.328 142.991 42.6 142.991 41.672C142.991 40.968 143.199 40.336 143.615 39.776C144.031 39.2 144.599 38.76 145.319 38.456C146.055 38.136 146.887 37.976 147.815 37.976C148.487 37.976 149.135 38.064 149.759 38.24C150.383 38.4 150.943 38.64 151.439 38.96C151.951 39.28 152.207 39.704 152.207 40.232C152.207 40.552 152.119 40.824 151.943 41.048C151.767 41.256 151.551 41.36 151.295 41.36C151.119 41.36 150.943 41.328 150.767 41.264C150.607 41.184 150.399 41.072 150.143 40.928C149.679 40.688 149.279 40.512 148.943 40.4C148.607 40.272 148.191 40.208 147.695 40.208C147.103 40.208 146.631 40.328 146.279 40.568C145.943 40.808 145.775 41.136 145.775 41.552C145.775 41.952 145.951 42.256 146.303 42.464C146.655 42.672 147.335 42.88 148.343 43.088C149.415 43.312 150.255 43.568 150.863 43.856C151.471 44.144 151.903 44.504 152.159 44.936C152.431 45.368 152.567 45.92 152.567 46.592C152.567 47.68 152.111 48.552 151.199 49.208C150.303 49.864 149.103 50.192 147.599 50.192ZM81.6651 73.912C82.4651 73.96 82.8651 74.32 82.8651 74.992C82.8651 75.376 82.7051 75.672 82.3851 75.88C82.0811 76.072 81.6411 76.152 81.0651 76.12L80.4171 76.072C77.7291 75.88 76.3851 74.44 76.3851 71.752V66.52H75.1851C74.7531 66.52 74.4171 66.424 74.1771 66.232C73.9531 66.04 73.8411 65.76 73.8411 65.392C73.8411 65.024 73.9531 64.744 74.1771 64.552C74.4171 64.36 74.7531 64.264 75.1851 64.264H76.3851V62.056C76.3851 61.624 76.5211 61.28 76.7931 61.024C77.0651 60.768 77.4331 60.64 77.8971 60.64C78.3451 60.64 78.7051 60.768 78.9771 61.024C79.2491 61.28 79.3851 61.624 79.3851 62.056V64.264H81.4251C81.8571 64.264 82.1851 64.36 82.4091 64.552C82.6491 64.744 82.7691 65.024 82.7691 65.392C82.7691 65.76 82.6491 66.04 82.4091 66.232C82.1851 66.424 81.8571 66.52 81.4251 66.52H79.3851V71.968C79.3851 73.152 79.9291 73.784 81.0171 73.864L81.6651 73.912ZM90.9324 63.976C93.6844 63.976 95.0604 65.584 95.0604 68.8V74.704C95.0604 75.152 94.9244 75.504 94.6524 75.76C94.3964 76.016 94.0364 76.144 93.5724 76.144C93.1084 76.144 92.7404 76.016 92.4684 75.76C92.1964 75.504 92.0604 75.152 92.0604 74.704V68.8C92.0604 67.952 91.8844 67.336 91.5324 66.952C91.1964 66.552 90.6604 66.352 89.9244 66.352C89.0604 66.352 88.3644 66.624 87.8364 67.168C87.3244 67.712 87.0684 68.44 87.0684 69.352V74.704C87.0684 75.152 86.9324 75.504 86.6604 75.76C86.3884 76.016 86.0204 76.144 85.5564 76.144C85.0924 76.144 84.7244 76.016 84.4524 75.76C84.1964 75.504 84.0684 75.152 84.0684 74.704V60.352C84.0684 59.936 84.2044 59.6 84.4764 59.344C84.7644 59.088 85.1324 58.96 85.5804 58.96C86.0284 58.96 86.3884 59.08 86.6604 59.32C86.9324 59.56 87.0684 59.888 87.0684 60.304V65.896C87.4684 65.272 87.9964 64.8 88.6524 64.48C89.3244 64.144 90.0844 63.976 90.9324 63.976ZM99.2355 76.144C98.8035 76.144 98.4435 76.024 98.1555 75.784C97.8835 75.528 97.7475 75.168 97.7475 74.704V65.44C97.7475 64.976 97.8835 64.624 98.1555 64.384C98.4435 64.144 98.8035 64.024 99.2355 64.024C99.6675 64.024 100.028 64.144 100.316 64.384C100.604 64.624 100.748 64.976 100.748 65.44V74.704C100.748 75.168 100.604 75.528 100.316 75.784C100.028 76.024 99.6675 76.144 99.2355 76.144ZM99.2355 61.888C98.6915 61.888 98.2595 61.744 97.9395 61.456C97.6195 61.152 97.4595 60.76 97.4595 60.28C97.4595 59.8 97.6195 59.416 97.9395 59.128C98.2595 58.84 98.6915 58.696 99.2355 58.696C99.7635 58.696 100.188 58.84 100.508 59.128C100.844 59.416 101.012 59.8 101.012 60.28C101.012 60.76 100.852 61.152 100.532 61.456C100.212 61.744 99.7795 61.888 99.2355 61.888ZM107.729 76.192C105.985 76.192 104.577 75.848 103.505 75.16C102.993 74.856 102.737 74.424 102.737 73.864C102.737 73.544 102.825 73.288 103.001 73.096C103.177 72.888 103.393 72.784 103.649 72.784C103.921 72.784 104.297 72.912 104.777 73.168C105.289 73.408 105.753 73.592 106.169 73.72C106.601 73.848 107.145 73.912 107.801 73.912C108.473 73.912 108.993 73.8 109.361 73.576C109.745 73.352 109.937 73.04 109.937 72.64C109.937 72.368 109.857 72.152 109.697 71.992C109.553 71.832 109.281 71.688 108.881 71.56C108.497 71.416 107.905 71.256 107.105 71.08C105.681 70.792 104.657 70.384 104.033 69.856C103.425 69.328 103.121 68.6 103.121 67.672C103.121 66.968 103.329 66.336 103.745 65.776C104.161 65.2 104.729 64.76 105.449 64.456C106.185 64.136 107.017 63.976 107.945 63.976C108.617 63.976 109.265 64.064 109.889 64.24C110.513 64.4 111.073 64.64 111.569 64.96C112.081 65.28 112.337 65.704 112.337 66.232C112.337 66.552 112.249 66.824 112.073 67.048C111.897 67.256 111.681 67.36 111.425 67.36C111.249 67.36 111.073 67.328 110.897 67.264C110.737 67.184 110.529 67.072 110.273 66.928C109.809 66.688 109.409 66.512 109.073 66.4C108.737 66.272 108.321 66.208 107.825 66.208C107.233 66.208 106.761 66.328 106.409 66.568C106.073 66.808 105.905 67.136 105.905 67.552C105.905 67.952 106.081 68.256 106.433 68.464C106.785 68.672 107.465 68.88 108.473 69.088C109.545 69.312 110.385 69.568 110.993 69.856C111.601 70.144 112.033 70.504 112.289 70.936C112.561 71.368 112.697 71.92 112.697 72.592C112.697 73.68 112.241 74.552 111.329 75.208C110.433 75.864 109.233 76.192 107.729 76.192ZM118.231 71.104C117.959 71.104 117.735 71.008 117.559 70.816C117.399 70.624 117.319 70.36 117.319 70.024C117.319 69.144 117.479 68.4 117.799 67.792C118.119 67.184 118.583 66.52 119.191 65.8C119.671 65.224 120.023 64.744 120.247 64.36C120.471 63.976 120.583 63.544 120.583 63.064C120.583 62.536 120.383 62.12 119.983 61.816C119.599 61.496 119.071 61.336 118.399 61.336C117.823 61.336 117.271 61.464 116.743 61.72C116.215 61.96 115.599 62.312 114.895 62.776C114.495 63 114.167 63.112 113.911 63.112C113.639 63.112 113.399 62.992 113.191 62.752C112.999 62.496 112.903 62.2 112.903 61.864C112.903 61.4 113.095 61.024 113.479 60.736C114.151 60.16 114.943 59.712 115.855 59.392C116.767 59.056 117.687 58.888 118.615 58.888C119.591 58.888 120.455 59.056 121.207 59.392C121.975 59.728 122.567 60.192 122.983 60.784C123.415 61.376 123.631 62.056 123.631 62.824C123.631 63.656 123.431 64.384 123.031 65.008C122.631 65.616 122.047 66.304 121.279 67.072C120.623 67.744 120.127 68.312 119.791 68.776C119.471 69.224 119.271 69.736 119.191 70.312C119.143 70.568 119.031 70.768 118.855 70.912C118.695 71.04 118.487 71.104 118.231 71.104ZM118.279 76.144C117.767 76.144 117.343 75.976 117.007 75.64C116.671 75.288 116.503 74.856 116.503 74.344C116.503 73.832 116.671 73.408 117.007 73.072C117.343 72.72 117.767 72.544 118.279 72.544C118.791 72.544 119.215 72.72 119.551 73.072C119.887 73.408 120.055 73.832 120.055 74.344C120.055 74.856 119.879 75.288 119.527 75.64C119.191 75.976 118.775 76.144 118.279 76.144Z" fill="black"/>
</svg>
