<svg width="375" height="36" viewBox="0 0 375 36" fill="none" xmlns="http://www.w3.org/2000/svg">
<rect x="2.58725" y="2.72397" width="369.468" height="30.1835" rx="5.45872" fill="white" stroke="#D3D3D3" stroke-width="4.49541"/>
<rect x="338.019" y="2.72397" width="34.0367" height="30.1835" rx="5.45872" fill="white" stroke="#D3D3D3" stroke-width="4.49541"/>
<path d="M353.432 20.7059C354.384 20.7059 355.271 20.4072 356.001 19.8971V20.0637V20.1968L356.095 20.2909L359.306 23.4955L359.533 23.7221L359.76 23.4953L360.717 22.5384L360.944 22.3116L360.717 22.0845L357.513 18.8735L357.285 19.1004V18.7793H357.119C357.629 18.0495 357.928 17.1628 357.928 16.2104C357.928 13.7276 355.915 11.715 353.432 11.715C350.949 11.715 348.937 13.7276 348.937 16.2104C348.937 18.6933 350.949 20.7059 353.432 20.7059ZM353.432 18.7793C352.01 18.7793 350.863 17.6322 350.863 16.2104C350.863 14.7887 352.01 13.6416 353.432 13.6416C354.854 13.6416 356.001 14.7887 356.001 16.2104C356.001 17.6322 354.854 18.7793 353.432 18.7793Z" fill="black" stroke="black" stroke-width="0.642202"/>
</svg>
