<svg width="1008" height="154" viewBox="0 0 1008 154" fill="none" xmlns="http://www.w3.org/2000/svg">
<rect x="-42" width="1102" height="154" fill="#984900"/>
<path d="M116 52.5C114.067 52.5 112.5 54.067 112.5 56V75C112.5 87.4264 122.574 97.5 135 97.5C147.426 97.5 157.5 87.4264 157.5 75C157.5 62.5736 147.426 52.5 135 52.5H116Z" fill="#C17A38" stroke="black" stroke-width="7" stroke-linejoin="round"/>
<path d="M304 111.5C302.067 111.5 300.5 109.933 300.5 108V89C300.5 76.5736 310.574 66.5 323 66.5C335.426 66.5 345.5 76.5736 345.5 89C345.5 101.426 335.426 111.5 323 111.5H304Z" fill="#C17A38" stroke="black" stroke-width="7" stroke-linejoin="round"/>
<path d="M523 52.5C524.933 52.5 526.5 54.067 526.5 56V75C526.5 87.4264 516.426 97.5 504 97.5C491.574 97.5 481.5 87.4264 481.5 75C481.5 62.5736 491.574 52.5 504 52.5H523Z" fill="#C17A38" stroke="black" stroke-width="7" stroke-linejoin="round"/>
<path d="M680 111.5C678.067 111.5 676.5 109.933 676.5 108V89C676.5 76.5736 686.574 66.5 699 66.5C711.426 66.5 721.5 76.5736 721.5 89C721.5 101.426 711.426 111.5 699 111.5H680Z" fill="#C17A38" stroke="black" stroke-width="7" stroke-linejoin="round"/>
<path d="M892 52.5C893.933 52.5 895.5 54.067 895.5 56V75C895.5 87.4264 885.426 97.5 873 97.5C860.574 97.5 850.5 87.4264 850.5 75C850.5 62.5736 860.574 52.5 873 52.5H892Z" fill="#C17A38" stroke="black" stroke-width="7" stroke-linejoin="round"/>
</svg>
