<svg width="165" height="126" viewBox="0 0 165 126" fill="none" xmlns="http://www.w3.org/2000/svg">
<mask id="path-1-outside-1" maskUnits="userSpaceOnUse" x="0" y="0" width="165" height="126" fill="black">
<rect fill="white" width="165" height="126"/>
<path fill-rule="evenodd" clip-rule="evenodd" d="M7 12C7 9.23858 9.23858 7 12 7H153C155.761 7 158 9.23858 158 12V92C158 94.7614 155.761 97 153 97H132C129.239 97 127 99.2386 127 102V113.956C127 118.084 122.28 120.434 118.986 117.945L92.6024 98.0107C91.7343 97.3548 90.6761 97 89.5882 97H12C9.23858 97 7 94.7614 7 92V12Z"/>
</mask>
<path fill-rule="evenodd" clip-rule="evenodd" d="M7 12C7 9.23858 9.23858 7 12 7H153C155.761 7 158 9.23858 158 12V92C158 94.7614 155.761 97 153 97H132C129.239 97 127 99.2386 127 102V113.956C127 118.084 122.28 120.434 118.986 117.945L92.6024 98.0107C91.7343 97.3548 90.6761 97 89.5882 97H12C9.23858 97 7 94.7614 7 92V12Z" fill="white"/>
<path d="M92.6024 98.0107L88.3825 103.596L92.6024 98.0107ZM118.986 117.945L114.766 123.53L118.986 117.945ZM153 0H12V14H153V0ZM165 92V12H151V92H165ZM132 104H153V90H132V104ZM134 113.956V102H120V113.956H134ZM88.3825 103.596L114.766 123.53L123.206 112.36L96.8222 92.4256L88.3825 103.596ZM12 104H89.5882V90H12V104ZM0 12V92H14V12H0ZM12 90C13.1046 90 14 90.8954 14 92H0C0 98.6274 5.37258 104 12 104V90ZM96.8222 92.4256C94.739 90.8516 92.1992 90 89.5882 90V104C89.153 104 88.7297 103.858 88.3825 103.596L96.8222 92.4256ZM120 113.956C120 112.304 121.888 111.364 123.206 112.36L114.766 123.53C122.671 129.503 134 123.864 134 113.956H120ZM132 90C125.373 90 120 95.3726 120 102H134C134 103.105 133.105 104 132 104V90ZM151 92C151 90.8954 151.895 90 153 90V104C159.627 104 165 98.6274 165 92H151ZM12 0C5.37258 0 0 5.37258 0 12H14C14 13.1046 13.1046 14 12 14V0ZM153 14C151.895 14 151 13.1046 151 12H165C165 5.37259 159.627 0 153 0V14Z" fill="black" mask="url(#path-1-outside-1)"/>
<path d="M75.3172 61.152C75.4132 61.36 75.4612 61.568 75.4612 61.776C75.4612 62.144 75.3092 62.456 75.0052 62.712C74.7172 62.968 74.3812 63.096 73.9972 63.096C73.7412 63.096 73.5012 63.032 73.2772 62.904C73.0532 62.76 72.8772 62.544 72.7492 62.256L71.3092 59.04H62.8612L61.4212 62.256C61.2932 62.544 61.1172 62.76 60.8932 62.904C60.6692 63.032 60.4212 63.096 60.1492 63.096C59.7812 63.096 59.4452 62.968 59.1412 62.712C58.8372 62.456 58.6852 62.144 58.6852 61.776C58.6852 61.568 58.7332 61.36 58.8292 61.152L65.4532 46.92C65.5972 46.6 65.8132 46.36 66.1012 46.2C66.4052 46.024 66.7252 45.936 67.0612 45.936C67.3972 45.936 67.7092 46.024 67.9972 46.2C68.3012 46.36 68.5252 46.6 68.6692 46.92L75.3172 61.152ZM63.9172 56.64H70.2532L67.0852 49.512L63.9172 56.64ZM84.0337 50.976C86.7857 50.976 88.1617 52.584 88.1617 55.8V61.704C88.1617 62.152 88.0257 62.504 87.7537 62.76C87.4977 63.016 87.1377 63.144 86.6737 63.144C86.2097 63.144 85.8417 63.016 85.5697 62.76C85.2977 62.504 85.1617 62.152 85.1617 61.704V55.8C85.1617 54.952 84.9857 54.336 84.6337 53.952C84.2977 53.552 83.7617 53.352 83.0257 53.352C82.1617 53.352 81.4657 53.624 80.9377 54.168C80.4257 54.712 80.1697 55.44 80.1697 56.352V61.704C80.1697 62.152 80.0337 62.504 79.7617 62.76C79.4897 63.016 79.1217 63.144 78.6577 63.144C78.1937 63.144 77.8257 63.016 77.5537 62.76C77.2977 62.504 77.1697 62.152 77.1697 61.704V47.352C77.1697 46.936 77.3057 46.6 77.5777 46.344C77.8657 46.088 78.2337 45.96 78.6817 45.96C79.1297 45.96 79.4897 46.08 79.7617 46.32C80.0337 46.56 80.1697 46.888 80.1697 47.304V52.896C80.5697 52.272 81.0977 51.8 81.7537 51.48C82.4257 51.144 83.1857 50.976 84.0337 50.976ZM95.9367 50.976C97.5687 50.976 98.7768 51.384 99.5608 52.2C100.361 53 100.761 54.224 100.761 55.872V61.728C100.761 62.16 100.633 62.504 100.377 62.76C100.121 63 99.7687 63.12 99.3207 63.12C98.9048 63.12 98.5608 62.992 98.2888 62.736C98.0328 62.48 97.9048 62.144 97.9048 61.728V61.2C97.6328 61.824 97.2007 62.312 96.6087 62.664C96.0328 63.016 95.3608 63.192 94.5928 63.192C93.8087 63.192 93.0967 63.032 92.4567 62.712C91.8167 62.392 91.3127 61.952 90.9447 61.392C90.5767 60.832 90.3927 60.208 90.3927 59.52C90.3927 58.656 90.6087 57.976 91.0407 57.48C91.4887 56.984 92.2087 56.624 93.2007 56.4C94.1927 56.176 95.5608 56.064 97.3048 56.064H97.9048V55.512C97.9048 54.728 97.7368 54.16 97.4008 53.808C97.0647 53.44 96.5207 53.256 95.7687 53.256C95.3047 53.256 94.8327 53.328 94.3527 53.472C93.8727 53.6 93.3047 53.792 92.6487 54.048C92.2327 54.256 91.9287 54.36 91.7367 54.36C91.4487 54.36 91.2087 54.256 91.0167 54.048C90.8407 53.84 90.7527 53.568 90.7527 53.232C90.7527 52.96 90.8167 52.728 90.9447 52.536C91.0887 52.328 91.3207 52.136 91.6407 51.96C92.2007 51.656 92.8647 51.416 93.6327 51.24C94.4167 51.064 95.1847 50.976 95.9367 50.976ZM95.1927 61.032C95.9927 61.032 96.6407 60.768 97.1368 60.24C97.6488 59.696 97.9048 59 97.9048 58.152V57.648H97.4728C96.4008 57.648 95.5688 57.696 94.9768 57.792C94.3847 57.888 93.9607 58.056 93.7048 58.296C93.4488 58.536 93.3207 58.864 93.3207 59.28C93.3207 59.792 93.4967 60.216 93.8487 60.552C94.2168 60.872 94.6647 61.032 95.1927 61.032ZM104.866 58.104C104.626 58.104 104.418 58.024 104.242 57.864C104.082 57.704 103.986 57.472 103.954 57.168L103.066 47.832L103.042 47.592C103.042 47.096 103.21 46.704 103.546 46.416C103.898 46.112 104.338 45.96 104.866 45.96C105.426 45.96 105.882 46.136 106.234 46.488C106.586 46.824 106.73 47.28 106.666 47.856L105.778 57.168C105.746 57.472 105.642 57.704 105.466 57.864C105.306 58.024 105.106 58.104 104.866 58.104ZM104.866 63.144C104.354 63.144 103.93 62.976 103.594 62.64C103.258 62.288 103.09 61.856 103.09 61.344C103.09 60.832 103.258 60.408 103.594 60.072C103.93 59.72 104.354 59.544 104.866 59.544C105.378 59.544 105.802 59.72 106.138 60.072C106.474 60.408 106.642 60.832 106.642 61.344C106.642 61.856 106.474 62.288 106.138 62.64C105.802 62.976 105.378 63.144 104.866 63.144Z" fill="black"/>
</svg>
