<svg width="165" height="126" viewBox="0 0 165 126" fill="none" xmlns="http://www.w3.org/2000/svg">
<mask id="path-1-outside-1" maskUnits="userSpaceOnUse" x="0" y="0" width="165" height="126" fill="black">
<rect fill="white" width="165" height="126"/>
<path fill-rule="evenodd" clip-rule="evenodd" d="M7 12C7 9.23858 9.23858 7 12 7H153C155.761 7 158 9.23858 158 12V92C158 94.7614 155.761 97 153 97H132C129.239 97 127 99.2386 127 102V113.956C127 118.084 122.28 120.434 118.986 117.945L92.6024 98.0107C91.7343 97.3548 90.6761 97 89.5882 97H12C9.23858 97 7 94.7614 7 92V12Z"/>
</mask>
<path fill-rule="evenodd" clip-rule="evenodd" d="M7 12C7 9.23858 9.23858 7 12 7H153C155.761 7 158 9.23858 158 12V92C158 94.7614 155.761 97 153 97H132C129.239 97 127 99.2386 127 102V113.956C127 118.084 122.28 120.434 118.986 117.945L92.6024 98.0107C91.7343 97.3548 90.6761 97 89.5882 97H12C9.23858 97 7 94.7614 7 92V12Z" fill="white"/>
<path d="M92.6024 98.0107L88.3825 103.596L92.6024 98.0107ZM118.986 117.945L114.766 123.53L118.986 117.945ZM153 0H12V14H153V0ZM165 92V12H151V92H165ZM132 104H153V90H132V104ZM134 113.956V102H120V113.956H134ZM88.3825 103.596L114.766 123.53L123.206 112.36L96.8222 92.4256L88.3825 103.596ZM12 104H89.5882V90H12V104ZM0 12V92H14V12H0ZM12 90C13.1046 90 14 90.8954 14 92H0C0 98.6274 5.37258 104 12 104V90ZM96.8222 92.4256C94.739 90.8516 92.1992 90 89.5882 90V104C89.153 104 88.7297 103.858 88.3825 103.596L96.8222 92.4256ZM120 113.956C120 112.304 121.888 111.364 123.206 112.36L114.766 123.53C122.671 129.503 134 123.864 134 113.956H120ZM132 90C125.373 90 120 95.3726 120 102H134C134 103.105 133.105 104 132 104V90ZM151 92C151 90.8954 151.895 90 153 90V104C159.627 104 165 98.6274 165 92H151ZM12 0C5.37258 0 0 5.37258 0 12H14C14 13.1046 13.1046 14 12 14V0ZM153 14C151.895 14 151 13.1046 151 12H165C165 5.37259 159.627 0 153 0V14Z" fill="black" mask="url(#path-1-outside-1)"/>
<path d="M70.1743 45.96C70.6383 45.96 71.0063 46.104 71.2783 46.392C71.5503 46.664 71.6863 47.032 71.6863 47.496V61.584C71.6863 62.048 71.5423 62.424 71.2543 62.712C70.9823 63 70.6223 63.144 70.1743 63.144C69.7103 63.144 69.3423 63 69.0703 62.712C68.7983 62.424 68.6623 62.048 68.6623 61.584V55.656H59.9983V61.584C59.9983 62.048 59.8543 62.424 59.5663 62.712C59.2943 63 58.9263 63.144 58.4623 63.144C58.0143 63.144 57.6463 63 57.3583 62.712C57.0863 62.424 56.9503 62.048 56.9503 61.584V47.496C56.9503 47.032 57.0863 46.664 57.3583 46.392C57.6303 46.104 57.9983 45.96 58.4623 45.96C58.9263 45.96 59.2943 46.104 59.5663 46.392C59.8543 46.664 59.9983 47.032 59.9983 47.496V53.16H68.6623V47.496C68.6623 47.032 68.7983 46.664 69.0703 46.392C69.3423 46.104 69.7103 45.96 70.1743 45.96ZM88.6453 50.976C89.9253 50.976 90.9013 51.36 91.5733 52.128C92.2613 52.88 92.6053 54.104 92.6053 55.8V61.704C92.6053 62.168 92.4613 62.528 92.1733 62.784C91.9013 63.024 91.5413 63.144 91.0933 63.144C90.6613 63.144 90.3013 63.024 90.0133 62.784C89.7413 62.528 89.6053 62.168 89.6053 61.704V55.8C89.6053 54.92 89.4453 54.296 89.1253 53.928C88.8213 53.544 88.3493 53.352 87.7093 53.352C86.9253 53.352 86.3013 53.624 85.8373 54.168C85.3733 54.696 85.1413 55.424 85.1413 56.352V61.704C85.1413 62.168 84.9973 62.528 84.7093 62.784C84.4373 63.024 84.0853 63.144 83.6533 63.144C83.2213 63.144 82.8613 63.024 82.5733 62.784C82.2853 62.528 82.1413 62.168 82.1413 61.704V55.8C82.1413 54.92 81.9813 54.296 81.6613 53.928C81.3573 53.544 80.8853 53.352 80.2453 53.352C79.4613 53.352 78.8373 53.624 78.3733 54.168C77.9253 54.696 77.7013 55.424 77.7013 56.352V61.704C77.7013 62.168 77.5573 62.528 77.2693 62.784C76.9813 63.024 76.6213 63.144 76.1893 63.144C75.7573 63.144 75.3973 63.024 75.1093 62.784C74.8373 62.528 74.7013 62.168 74.7013 61.704V52.416C74.7013 51.968 74.8453 51.624 75.1333 51.384C75.4213 51.144 75.7813 51.024 76.2133 51.024C76.6293 51.024 76.9653 51.144 77.2213 51.384C77.4933 51.608 77.6293 51.936 77.6293 52.368V52.944C77.9973 52.304 78.4853 51.816 79.0933 51.48C79.7173 51.144 80.4293 50.976 81.2293 50.976C82.9893 50.976 84.1653 51.712 84.7573 53.184C85.1093 52.512 85.6293 51.976 86.3173 51.576C87.0053 51.176 87.7813 50.976 88.6453 50.976ZM96.7104 63.144C96.1984 63.144 95.7744 62.976 95.4384 62.64C95.1024 62.288 94.9344 61.856 94.9344 61.344C94.9344 60.832 95.1024 60.408 95.4384 60.072C95.7744 59.72 96.1984 59.544 96.7104 59.544C97.2224 59.544 97.6464 59.72 97.9824 60.072C98.3184 60.408 98.4864 60.832 98.4864 61.344C98.4864 61.856 98.3184 62.288 97.9824 62.64C97.6464 62.976 97.2224 63.144 96.7104 63.144ZM102.303 63.144C101.791 63.144 101.367 62.976 101.031 62.64C100.695 62.288 100.527 61.856 100.527 61.344C100.527 60.832 100.695 60.408 101.031 60.072C101.367 59.72 101.791 59.544 102.303 59.544C102.815 59.544 103.239 59.72 103.575 60.072C103.911 60.408 104.079 60.832 104.079 61.344C104.079 61.856 103.911 62.288 103.575 62.64C103.239 62.976 102.815 63.144 102.303 63.144ZM107.897 63.144C107.385 63.144 106.961 62.976 106.625 62.64C106.289 62.288 106.121 61.856 106.121 61.344C106.121 60.832 106.289 60.408 106.625 60.072C106.961 59.72 107.385 59.544 107.897 59.544C108.409 59.544 108.833 59.72 109.169 60.072C109.505 60.408 109.673 60.832 109.673 61.344C109.673 61.856 109.505 62.288 109.169 62.64C108.833 62.976 108.409 63.144 107.897 63.144Z" fill="black"/>
</svg>
