<svg width="387" height="257" viewBox="0 0 387 257" fill="none" xmlns="http://www.w3.org/2000/svg">
<path d="M44.7259 134.651C43.8979 129.895 47.0967 125.184 51.8607 124.142L65.8983 121.072C71.0056 119.955 75.7403 123.504 76.0693 128.696L81.2795 210.912C81.5856 215.742 77.9348 220.092 73.1251 220.628L67.7601 221.227C63.3159 221.723 59.3717 218.779 58.6087 214.396L44.7259 134.651Z" fill="#C08CF4"/>
<path d="M47.4624 140.008C48.0031 135.289 44.6644 130.823 39.9499 129.957L25.8306 127.365C20.6042 126.405 15.9465 130.245 15.9174 135.537L15.4639 217.811C15.4376 222.581 19.2146 226.679 23.9664 227.036L29.3622 227.442C33.8951 227.783 37.77 224.592 38.2854 220.095L47.4624 140.008Z" fill="#C08CF4"/>
<path d="M45.664 235.703C49.0509 236.102 51.6035 238.972 51.6035 242.383C51.6035 246.097 48.5925 249.108 44.8782 249.108L22.405 249.108C17.9631 249.108 14.3623 245.507 14.3623 241.065C14.3623 236.251 18.5634 232.515 23.3447 233.078L45.664 235.703Z" fill="white"/>
<path d="M92.0885 228.399C95.4736 228.813 98.013 231.695 97.9974 235.105C97.9803 238.82 94.9555 241.817 91.2412 241.8L68.7683 241.697C64.3265 241.676 60.7422 238.059 60.7626 233.617C60.7847 228.803 65.0029 225.086 69.7816 225.671L92.0885 228.399Z" fill="white"/>
<rect x="27.4551" y="125.279" width="37.8105" height="37.7618" rx="8.76265" transform="rotate(-3.19494 27.4551 125.279)" fill="#C08CF4"/>
<path fill-rule="evenodd" clip-rule="evenodd" d="M58.4306 77.5727C58.3426 75.629 59.4263 73.8512 61.1015 72.8616C66.4931 69.6766 79.5595 79.7561 81.3477 85.7574C82.0765 88.2035 83.1141 90.6041 84.4735 92.9054C87.8518 98.6241 92.7269 102.898 98.2769 105.506C102.344 107.417 104.819 112.401 102.611 116.315C101.621 118.07 99.8592 119.301 97.8441 119.32C85.7016 119.43 72.6586 111.688 64.8109 98.4035C60.8283 91.6618 58.7415 84.437 58.4306 77.5727Z" fill="#304967"/>
<path d="M21.7214 77.4844C22.8422 71.2172 28.2934 66.6544 34.66 66.6544H58.2803C64.6211 66.6544 70.0579 71.1812 71.2068 77.4169L79.2466 121.057C80.0418 125.373 78.5854 129.812 74.7251 131.9C69.0619 134.964 59.094 138.699 44.1542 138.699C28.3534 138.699 20.0229 134.521 15.9916 131.378C13.5617 129.484 12.9905 126.303 13.5329 123.27L21.7214 77.4844Z" fill="white"/>
<path d="M21.9265 74.1022L13.4901 123.317C12.975 126.322 13.5499 129.465 15.9495 131.345C18.7175 133.514 23.5377 136.188 31.4598 137.639C38.4461 138.919 44.3269 133.056 44.5443 125.957L46.0576 76.528C46.2675 69.672 40.7667 64.0002 33.9075 64.0002C27.9866 64.0002 22.9269 68.2663 21.9265 74.1022Z" fill="#304967"/>
<rect x="128.361" y="108.616" width="13.144" height="21.9066" rx="6.57199" transform="rotate(90.8679 128.361 108.616)" fill="#C17A38"/>
<rect x="57.1133" y="143.345" width="13.144" height="21.9066" rx="6.57199" transform="rotate(127.655 57.1133 143.345)" fill="#C17A38"/>
<path fill-rule="evenodd" clip-rule="evenodd" d="M28.0379 68.7811C29.3045 67.7691 31.0288 67.603 32.5249 68.2275C37.6687 70.3745 38.3007 93.3933 35.8378 98.3935C35.5777 98.9215 35.3325 99.4609 35.1028 100.011C31.9133 107.653 32.3378 115.935 35.5993 123.079C36.8651 125.852 36.8365 129.158 34.9683 131.567L34.7053 131.906C33.1758 133.878 30.6053 134.843 28.3024 133.882C12.6712 127.358 6.61085 106.229 14.7663 86.69C17.8588 79.281 22.5512 73.1644 28.0379 68.7811Z" fill="#304967"/>
<path d="M38.0596 53.786C38.3142 48.4354 43.2675 44.5635 48.5213 45.6082L52.5206 46.4035C56.621 47.2189 59.5742 50.8173 59.5742 54.9979V62.4637C59.5742 67.3032 55.6511 71.2264 50.8116 71.2264H46.4191C41.4161 71.2264 37.4285 67.0445 37.6664 62.0471L38.0596 53.786Z" fill="#C17A38"/>
<rect x="48.0713" y="22.1554" width="21.9066" height="31.9837" rx="10.9533" fill="#7F00FF"/>
<path fill-rule="evenodd" clip-rule="evenodd" d="M26.9792 41.6882C24.8352 30.884 31.1413 20.4194 41.2565 18.1649C44.7752 17.3807 48.2984 17.6916 51.5087 18.8807C53.6527 29.6849 47.3466 40.1494 37.2314 42.4039C33.7127 43.1882 30.1895 42.8773 26.9792 41.6882Z" fill="#7F00FF"/>
<path d="M71.927 39.2637C71.927 56.5002 68.2879 63 57.2623 63C46.2367 63 28.9805 55.209 28.9805 42.956C28.9805 30.7031 43.0943 15 54.1199 15C65.1455 15 71.927 23.5002 71.927 39.2637Z" fill="#C17A38"/>
<path fill-rule="evenodd" clip-rule="evenodd" d="M69.9784 18.4689C68.5846 24.928 63.7867 30.6919 56.816 33.2885C49.0816 36.1695 40.8192 34.3514 35.5102 29.2878C36.5772 26.6721 38.1377 24.1667 40.1905 21.9219C48.4528 12.8866 61.6297 11.418 69.9784 18.4689Z" fill="#7F00FF"/>
<path fill-rule="evenodd" clip-rule="evenodd" d="M38.5659 58.2114C37.341 50.3181 40.4804 41.0499 47.5829 33.9474C54.1811 27.3492 62.6484 24.1713 70.1461 24.7354C68.9812 22.5253 67.4658 20.4459 65.6009 18.581C55.8468 8.82681 40.2252 8.63371 30.7093 18.1497C21.1933 27.6656 21.3864 43.2872 31.1406 53.0413C33.3591 55.2599 35.8812 56.9838 38.5659 58.2114Z" fill="#7F00FF"/>
<path fill-rule="evenodd" clip-rule="evenodd" d="M44.0218 47.6559C43.3384 50.2063 40.0798 50.9561 38.1914 49.1106C36.2083 47.1725 35.2871 44.3614 36.0197 41.6276C36.703 39.0772 39.9617 38.3274 41.85 40.1729C43.8332 42.111 44.7543 44.9221 44.0218 47.6559Z" fill="#C17A38"/>
<path d="M75.4206 44.1455L71.5402 38.8577C70.3968 37.2996 67.9277 38.1083 67.9277 40.0409V46.9394C67.9277 48.3654 69.3774 49.3333 70.6945 48.7866L74.5749 47.176C75.7725 46.6789 76.1877 45.191 75.4206 44.1455Z" fill="#C17A38"/>
<rect width="5" height="7.5" rx="2.5" transform="matrix(-1 0 0 1 60.9248 35.3055)" fill="black"/>
<rect width="3.26823" height="8.64696" rx="1.63411" transform="matrix(-0.5 -0.866025 -0.859129 0.511759 59.9893 29.83)" fill="black"/>
<path d="M61.4287 53.3059C63.1707 55.9314 67.4287 55.8058 69.7076 55.9314L70.208 55.4313C66.4287 56.3058 61.4287 53.3059 61.4287 53.3059Z" stroke="black" stroke-width="3.3" stroke-linecap="round" stroke-linejoin="round"/>
<mask id="path-23-outside-1" maskUnits="userSpaceOnUse" x="3.2627" y="4.13757" width="132" height="252" fill="black">
<rect fill="white" x="3.2627" y="4.13757" width="132" height="252"/>
<path fill-rule="evenodd" clip-rule="evenodd" d="M37.8647 57.8778L37.6662 62.0476C37.5868 63.7157 37.9782 65.293 38.7211 66.6542H34.6607C29.8304 66.6542 25.527 69.2806 23.2419 73.2851C19.8262 77.0335 16.9114 81.5507 14.7664 86.6898C9.96425 98.195 10.091 110.251 14.1984 119.553L13.5336 123.27C12.9912 126.303 13.5623 129.483 15.9922 131.378C16.2231 131.558 16.4682 131.741 16.7279 131.927C16.2157 133.008 15.9252 134.228 15.918 135.537L15.4645 217.811C15.4382 222.581 19.2153 226.679 23.967 227.036L29.3628 227.442C33.8958 227.783 37.7707 224.592 38.286 220.095L44.9287 162.124L49.4648 161.871L58.6089 214.396C59.3719 218.778 63.316 221.723 67.7603 221.227L73.1253 220.628C77.9349 220.092 81.5858 215.741 81.2797 210.912L76.2084 130.889C78.9502 128.569 79.9309 124.768 79.2472 121.057L77.6761 112.529C83.9681 116.983 91.047 119.381 97.8438 119.319C99.8589 119.301 101.62 118.07 102.61 116.315C104.818 112.401 102.344 107.416 98.2766 105.505C92.7266 102.898 87.8514 98.6238 84.4732 92.9051C83.1137 90.6039 82.0762 88.2033 81.3473 85.7572C80.2911 82.2123 75.2998 77.2446 70.2796 74.4281C68.2336 69.8528 63.6882 66.7446 58.5082 66.6561C59.1232 65.5293 59.498 64.2525 59.5637 62.8946C66.7766 62.1906 70.2638 57.9196 71.4458 48.4752L74.575 47.1764C75.7727 46.6793 76.1879 45.1914 75.4207 44.146L71.9278 39.3861L71.9278 39.2642C71.9278 33.366 70.9784 28.4847 69.2125 24.6851C69.5254 24.6957 69.8369 24.7126 70.1467 24.7359C69.7141 23.9151 69.2331 23.1123 68.7039 22.3319C69.2649 21.0877 69.6936 19.7931 69.9792 18.4693C66.996 15.9499 63.3964 14.5182 59.6248 14.1308C50.2457 9.09149 38.4553 10.4047 30.7098 18.1501C21.1938 27.6661 21.3869 43.2876 31.1411 53.0418C33.1653 55.066 35.4421 56.6784 37.8647 57.8778ZM128.262 115.187C128.317 111.558 125.419 108.572 121.79 108.517L113.029 108.384C109.399 108.329 106.413 111.226 106.358 114.856C106.303 118.485 109.2 121.471 112.83 121.526L121.591 121.659C125.22 121.714 128.207 118.817 128.262 115.187ZM51.6037 242.383C51.6037 238.972 49.0511 236.102 45.6641 235.703L23.3449 233.077C18.5635 232.515 14.3624 236.251 14.3624 241.065C14.3624 245.507 17.9633 249.108 22.4052 249.108H44.8783C48.5926 249.108 51.6037 246.097 51.6037 242.383ZM92.0887 228.399C95.4738 228.813 98.0132 231.695 97.9975 235.105C97.9805 238.819 94.9557 241.817 91.2414 241.799L68.7685 241.696C64.3266 241.676 60.7423 238.059 60.7627 233.617C60.7848 228.803 65.003 225.086 69.7817 225.67L92.0887 228.399Z"/>
</mask>
<path d="M37.6662 62.0476L30.6741 61.7148V61.7148L37.6662 62.0476ZM37.8647 57.8778L40.9705 51.6045C43.4635 52.8388 44.989 55.432 44.8568 58.2106L37.8647 57.8778ZM38.7211 66.6542L44.8656 63.3009C46.0493 65.4698 46.0018 68.102 44.7408 70.2268C43.4797 72.3516 41.1919 73.6542 38.7211 73.6542V66.6542ZM23.2419 73.2851L29.3217 76.7544C29.0665 77.2016 28.7627 77.6193 28.4159 77.9999L23.2419 73.2851ZM14.7664 86.6898L8.30654 83.9935L8.30655 83.9935L14.7664 86.6898ZM14.1984 119.553L20.6018 116.725C21.1647 118 21.3344 119.413 21.089 120.785L14.1984 119.553ZM13.5336 123.27L6.64291 122.037V122.037L13.5336 123.27ZM15.9922 131.378L11.6884 136.898L11.6883 136.898L15.9922 131.378ZM16.7279 131.927L20.8012 126.234C23.5554 128.205 24.5039 131.865 23.0534 134.925L16.7279 131.927ZM15.918 135.537L8.91811 135.499V135.499L15.918 135.537ZM15.4645 217.811L8.46459 217.772V217.772L15.4645 217.811ZM23.967 227.036L24.4918 220.056H24.4918L23.967 227.036ZM29.3628 227.442L28.838 234.422L29.3628 227.442ZM38.286 220.095L45.2405 220.892L38.286 220.095ZM44.9287 162.124L37.9742 161.328C38.3624 157.94 41.1345 155.325 44.5386 155.135L44.9287 162.124ZM49.4648 161.871L49.0747 154.882C52.6201 154.684 55.7521 157.172 56.3611 160.671L49.4648 161.871ZM58.6089 214.396L51.7126 215.596H51.7126L58.6089 214.396ZM67.7603 221.227L68.5364 228.184L68.5363 228.184L67.7603 221.227ZM73.1253 220.628L72.3491 213.671L72.3492 213.671L73.1253 220.628ZM81.2797 210.912L88.2657 210.469L81.2797 210.912ZM76.2084 130.889L69.2224 131.332C69.0824 129.122 69.9962 126.977 71.6864 125.546L76.2084 130.889ZM79.2472 121.057L72.3631 122.325V122.325L79.2472 121.057ZM77.6761 112.529L70.792 113.797C70.2761 110.997 71.5079 108.163 73.9075 106.63C76.3072 105.097 79.3963 105.17 81.7204 106.816L77.6761 112.529ZM97.8438 119.319L97.7799 112.32H97.7799L97.8438 119.319ZM102.61 116.315L96.5136 112.876L102.61 116.315ZM98.2766 105.505L95.2996 111.841L95.2996 111.841L98.2766 105.505ZM84.4732 92.9051L78.4462 96.4655L84.4732 92.9051ZM81.3473 85.7572L88.0558 83.7583L88.0558 83.7583L81.3473 85.7572ZM70.2796 74.4281L66.8546 80.533C65.5431 79.7972 64.5034 78.6585 63.8895 77.2857L70.2796 74.4281ZM58.5082 66.6561L58.3887 73.6551C55.9394 73.6133 53.6903 72.2942 52.4582 70.177C51.2261 68.0599 51.1903 65.4527 52.3638 63.3025L58.5082 66.6561ZM59.5637 62.8946L52.5719 62.5564C52.7397 59.0868 55.4265 56.2652 58.8837 55.9277L59.5637 62.8946ZM71.4458 48.4752L64.5 47.6059C64.8124 45.1104 66.4395 42.9742 68.7623 42.01L71.4458 48.4752ZM74.575 47.1764L71.8915 40.7112L71.8915 40.7112L74.575 47.1764ZM75.4207 44.146L81.0642 40.0046L81.0642 40.0046L75.4207 44.146ZM71.9278 39.3861L66.2843 43.5275C65.4023 42.3256 64.927 40.8734 64.9278 39.3826L71.9278 39.3861ZM71.9278 39.2642H78.9278V39.2677L71.9278 39.2642ZM69.2125 24.6851L62.8646 27.6353C61.8394 25.4295 62.0329 22.8496 63.3755 20.8213C64.7181 18.793 67.0175 17.6071 69.4485 17.6891L69.2125 24.6851ZM70.1467 24.7359L76.3392 21.4721C77.5266 23.725 77.3968 26.445 76.0003 28.5745C74.6038 30.7041 72.1609 31.9072 69.6214 31.7162L70.1467 24.7359ZM68.7039 22.3319L62.9104 26.2606C61.5455 24.248 61.323 21.6711 62.3227 19.4542L68.7039 22.3319ZM69.9792 18.4693L74.4958 13.1214C76.4731 14.7913 77.3677 17.416 76.8217 19.9459L69.9792 18.4693ZM59.6248 14.1308L58.9096 21.0942C57.9999 21.0008 57.1173 20.73 56.3117 20.2971L59.6248 14.1308ZM30.7098 18.1501L35.6596 23.0999L35.6596 23.0999L30.7098 18.1501ZM121.79 108.517L121.684 115.516H121.684L121.79 108.517ZM128.262 115.187L135.261 115.293L128.262 115.187ZM113.029 108.384L113.135 101.385H113.135L113.029 108.384ZM112.83 121.526L112.936 114.527H112.936L112.83 121.526ZM121.591 121.659L121.485 128.658H121.485L121.591 121.659ZM45.6641 235.703L46.482 228.751H46.482L45.6641 235.703ZM23.3449 233.077L22.527 240.03H22.527L23.3449 233.077ZM97.9975 235.105L90.9976 235.073L97.9975 235.105ZM92.0887 228.399L91.2389 235.347H91.2389L92.0887 228.399ZM91.2414 241.799L91.2735 234.8L91.2414 241.799ZM68.7685 241.696L68.7363 248.696H68.7363L68.7685 241.696ZM60.7627 233.617L67.7626 233.649L60.7627 233.617ZM69.7817 225.67L70.6315 218.722H70.6315L69.7817 225.67ZM30.6741 61.7148L30.8726 57.545L44.8568 58.2106L44.6583 62.3804L30.6741 61.7148ZM32.5766 70.0075C31.2358 67.5507 30.532 64.7022 30.6741 61.7148L44.6583 62.3803C44.6417 62.7292 44.7207 63.0352 44.8656 63.3009L32.5766 70.0075ZM34.6607 59.6542H38.7211V73.6542H34.6607V59.6542ZM17.1621 69.8158C20.6606 63.685 27.2522 59.6542 34.6607 59.6542V73.6542C32.4086 73.6542 30.3934 74.8762 29.3217 76.7544L17.1621 69.8158ZM8.30655 83.9935C10.7573 78.122 14.1042 72.92 18.0678 68.5703L28.4159 77.9999C25.5483 81.1469 23.0656 84.9795 21.2263 89.3861L8.30655 83.9935ZM7.79492 122.38C2.83193 111.141 2.84531 97.0777 8.30654 83.9935L21.2263 89.3861C17.0832 99.3123 17.3501 109.361 20.6018 116.725L7.79492 122.38ZM6.64291 122.037L7.30769 118.32L21.089 120.785L20.4242 124.502L6.64291 122.037ZM11.6883 136.898C6.39764 132.774 5.85878 126.422 6.64291 122.037L20.4242 124.502C20.2945 125.227 20.3498 125.716 20.409 125.936C20.4345 126.031 20.4504 126.04 20.4239 125.998C20.393 125.949 20.3446 125.895 20.2961 125.857L11.6883 136.898ZM12.6546 137.62C12.3164 137.378 11.9946 137.137 11.6884 136.898L20.2961 125.857C20.4517 125.978 20.6199 126.104 20.8012 126.234L12.6546 137.62ZM8.91811 135.499C8.93097 133.166 9.45129 130.936 10.4024 128.929L23.0534 134.925C22.9801 135.08 22.9195 135.29 22.9179 135.576L8.91811 135.499ZM8.46459 217.772L8.91811 135.499L22.9179 135.576L22.4644 217.849L8.46459 217.772ZM23.4422 234.017C15.0174 233.383 8.41807 226.213 8.46459 217.772L22.4644 217.849C22.4583 218.948 23.4132 219.975 24.4918 220.056L23.4422 234.017ZM28.838 234.422L23.4422 234.017L24.4918 220.056L29.8876 220.462L28.838 234.422ZM45.2405 220.892C44.2942 229.15 37.0943 235.043 28.838 234.422L29.8876 220.462C30.3388 220.496 30.6623 220.359 30.8815 220.179C31.0999 219.999 31.2831 219.72 31.3315 219.298L45.2405 220.892ZM51.8832 162.921L45.2405 220.892L31.3315 219.298L37.9742 161.328L51.8832 162.921ZM49.8549 168.86L45.3188 169.114L44.5386 155.135L49.0747 154.882L49.8549 168.86ZM51.7126 215.596L42.5685 163.072L56.3611 160.671L65.5051 213.195L51.7126 215.596ZM68.5363 228.184C60.4464 229.086 53.1154 223.654 51.7126 215.596L65.5051 213.195C65.5757 213.601 65.7677 213.864 65.9914 214.031C66.2161 214.199 66.5415 214.319 66.9842 214.27L68.5363 228.184ZM73.9014 227.585L68.5364 228.184L66.9841 214.27L72.3491 213.671L73.9014 227.585ZM88.2657 210.469C88.808 219.027 82.4239 226.634 73.9014 227.585L72.3492 213.671C73.4459 213.549 74.3635 212.456 74.2937 211.354L88.2657 210.469ZM83.1944 130.447L88.2657 210.469L74.2937 211.354L69.2224 131.332L83.1944 130.447ZM86.1314 119.788C87.1541 125.34 85.8297 131.917 80.7305 136.233L71.6864 125.546C72.0707 125.221 72.7077 124.196 72.3631 122.325L86.1314 119.788ZM84.5603 111.261L86.1314 119.788L72.3631 122.325L70.792 113.797L84.5603 111.261ZM97.9077 126.319C89.4334 126.396 80.9433 123.418 73.6318 118.242L81.7204 106.816C86.9929 110.548 92.6606 112.366 97.7799 112.32L97.9077 126.319ZM108.707 119.754C106.72 123.278 102.865 126.274 97.9076 126.319L97.7799 112.32C97.3488 112.324 97.0075 112.463 96.8018 112.596C96.6133 112.718 96.5391 112.831 96.5136 112.876L108.707 119.754ZM101.254 99.1699C104.848 100.859 107.703 103.859 109.225 107.388C110.774 110.982 111.078 115.552 108.707 119.754L96.5136 112.876C96.4615 112.968 96.4383 113.08 96.4374 113.144C96.4368 113.184 96.4457 113.109 96.3684 112.93C96.2907 112.75 96.1513 112.527 95.9433 112.311C95.7368 112.097 95.5098 111.94 95.2996 111.841L101.254 99.1699ZM90.5001 89.3447C93.1458 93.8234 96.9441 97.145 101.254 99.1699L95.2996 111.841C88.509 108.65 82.5571 103.424 78.4462 96.4655L90.5001 89.3447ZM88.0558 83.7583C88.6231 85.6619 89.4326 87.5377 90.5001 89.3447L78.4462 96.4655C76.7949 93.6701 75.5293 90.7447 74.6388 87.7561L88.0558 83.7583ZM73.7047 68.3232C76.8247 70.0737 79.8469 72.4311 82.286 74.9063C84.5618 77.2159 87.0362 80.3363 88.0558 83.7583L74.6388 87.7561C74.655 87.8105 74.5618 87.5088 74.1147 86.8601C73.6956 86.252 73.0923 85.5226 72.3139 84.7327C70.7383 83.1337 68.7548 81.599 66.8546 80.533L73.7047 68.3232ZM58.6278 59.6571C66.5733 59.7929 73.5345 64.5594 76.6698 71.5705L63.8895 77.2857C62.9327 75.1461 60.8032 73.6964 58.3887 73.6551L58.6278 59.6571ZM66.5555 63.2329C66.4375 65.6719 65.7621 67.9769 64.6526 70.0097L52.3638 63.3025C52.4844 63.0817 52.5585 62.8331 52.5719 62.5564L66.5555 63.2329ZM78.3916 49.3446C77.7326 54.6102 76.3203 59.5813 73.1731 63.4086C69.7952 67.5164 65.2116 69.3766 60.2437 69.8615L58.8837 55.9277C61.1288 55.7086 61.8951 55.0814 62.3596 54.5166C63.0547 53.6712 63.977 51.7847 64.5 47.6059L78.3916 49.3446ZM77.2585 53.6416L74.1293 54.9404L68.7623 42.01L71.8915 40.7112L77.2585 53.6416ZM81.0642 40.0046C84.5165 44.7091 82.648 51.4046 77.2585 53.6416L71.8915 40.7112C68.8973 41.954 67.8593 45.6737 69.7772 48.2873L81.0642 40.0046ZM77.5712 35.2447L81.0642 40.0046L69.7772 48.2873L66.2843 43.5275L77.5712 35.2447ZM78.9278 39.2677L78.9278 39.3896L64.9278 39.3826L64.9278 39.2607L78.9278 39.2677ZM75.5604 21.7349C77.8733 26.7115 78.9278 32.6682 78.9278 39.2642H64.9278C64.9278 34.0639 64.0835 30.258 62.8646 27.6353L75.5604 21.7349ZM69.6214 31.7162C69.4089 31.7002 69.1939 31.6885 68.9765 31.6811L69.4485 17.6891C69.8569 17.7029 70.2648 17.725 70.6719 17.7556L69.6214 31.7162ZM74.4974 18.4031C75.1725 19.3986 75.7865 20.4235 76.3392 21.4721L63.9541 27.9997C63.6416 27.4067 63.2937 26.826 62.9104 26.2606L74.4974 18.4031ZM76.8217 19.9459C76.43 21.7611 75.8447 23.5248 75.085 25.2095L62.3227 19.4542C62.6851 18.6507 62.9571 17.8252 63.1367 16.9928L76.8217 19.9459ZM60.34 7.16747C65.4163 7.68886 70.3653 9.633 74.4958 13.1214L65.4626 23.8173C63.6268 22.2668 61.3765 21.3476 58.9096 21.0942L60.34 7.16747ZM25.7601 13.2004C35.8192 3.14119 51.0027 1.55178 62.9379 7.96454L56.3117 20.2971C49.4888 16.6312 41.0913 17.6681 35.6596 23.0999L25.7601 13.2004ZM26.1914 57.9915C13.8196 45.6198 13.3958 25.5647 25.7601 13.2004L35.6596 23.0999C28.9919 29.7675 28.9543 40.9555 36.0909 48.092L26.1914 57.9915ZM34.7589 64.151C31.6611 62.6174 28.7599 60.5601 26.1914 57.9915L36.0909 48.092C37.5707 49.5719 39.2231 50.7394 40.9705 51.6045L34.7589 64.151ZM121.896 101.517C129.391 101.631 135.375 107.799 135.261 115.293L121.263 115.081C121.259 115.318 121.448 115.512 121.684 115.516L121.896 101.517ZM113.135 101.385L121.896 101.517L121.684 115.516L112.923 115.383L113.135 101.385ZM99.3586 114.75C99.4722 107.255 105.64 101.271 113.135 101.385L112.923 115.383C113.159 115.387 113.353 115.198 113.357 114.962L99.3586 114.75ZM112.723 128.526C105.229 128.412 99.2451 122.244 99.3586 114.75L113.357 114.962C113.361 114.725 113.172 114.531 112.936 114.527L112.723 128.526ZM121.485 128.658L112.723 128.526L112.936 114.527L121.697 114.66L121.485 128.658ZM135.261 115.293C135.148 122.788 128.98 128.772 121.485 128.658L121.697 114.66C121.461 114.656 121.266 114.845 121.263 115.081L135.261 115.293ZM46.482 228.751C53.3942 229.564 58.6037 235.423 58.6037 242.383H44.6037C44.6037 242.522 44.7079 242.639 44.8462 242.655L46.482 228.751ZM24.1628 226.125L46.482 228.751L44.8462 242.655L22.527 240.03L24.1628 226.125ZM7.36241 241.065C7.36241 232.061 15.22 225.073 24.1628 226.125L22.527 240.03C21.9071 239.957 21.3624 240.441 21.3624 241.065H7.36241ZM22.4052 256.108C14.0973 256.108 7.36241 249.373 7.36241 241.065H21.3624C21.3624 241.641 21.8293 242.108 22.4052 242.108V256.108ZM44.8783 256.108H22.4052V242.108H44.8783V256.108ZM58.6037 242.383C58.6037 249.963 52.4586 256.108 44.8783 256.108V242.108C44.7266 242.108 44.6037 242.231 44.6037 242.383H58.6037ZM90.9976 235.073C90.997 235.212 91.1007 235.33 91.2389 235.347L92.9385 221.45C99.8469 222.295 105.029 228.177 104.997 235.137L90.9976 235.073ZM91.2735 234.8C91.1218 234.799 90.9983 234.921 90.9976 235.073L104.997 235.137C104.963 242.717 98.7895 248.834 91.2093 248.799L91.2735 234.8ZM68.8006 234.696L91.2735 234.8L91.2093 248.799L68.7363 248.696L68.8006 234.696ZM67.7626 233.649C67.76 234.225 68.2247 234.694 68.8006 234.696L68.7363 248.696C60.4286 248.658 53.7247 241.892 53.7628 233.585L67.7626 233.649ZM68.932 232.619C68.3124 232.543 67.7655 233.025 67.7626 233.649L53.7628 233.585C53.8041 224.58 61.6936 217.629 70.6315 218.722L68.932 232.619ZM91.2389 235.347L68.932 232.619L70.6315 218.722L92.9385 221.45L91.2389 235.347Z" fill="black" mask="url(#path-23-outside-1)"/>
<rect width="47" height="109" rx="17.5253" transform="matrix(-1 0 0 1 362.652 27.6567)" fill="black"/>
<path d="M365.603 138.897C365.823 134.033 362.036 129.923 357.171 129.745L341.949 129.185C336.728 128.993 332.501 133.383 332.889 138.592L339.047 221.346C339.378 225.79 342.991 229.278 347.443 229.452L352.787 229.66C357.602 229.849 361.666 226.113 361.883 221.3L365.603 138.897Z" fill="#3A71B3"/>
<path d="M343.973 136.492C345.348 131.3 341.773 125.879 336.453 125.09L323.2 123.124C318.65 122.449 314.523 125.462 313.764 130.013L299.542 215.244C298.745 220.018 301.934 224.719 306.663 225.745L311.793 226.858C316.214 227.817 320.475 225.222 321.627 220.869L343.973 136.492Z" fill="#3A71B3"/>
<rect width="29.4622" height="32.0019" rx="8.76265" transform="matrix(-0.982336 -0.187128 -0.186679 0.982421 355.111 142.995)" fill="#3A71B3"/>
<rect width="13.1429" height="21.8812" rx="6.57144" transform="matrix(0.258819 0.965926 0.966087 -0.258218 270.111 136.307)" fill="#F4C498"/>
<path fill-rule="evenodd" clip-rule="evenodd" d="M323.042 89.7066C322.599 87.7873 321.059 86.3488 319.157 85.8393C314.006 84.4591 308.92 90.9052 309.468 96.2119C309.854 99.9546 309.578 103.839 308.548 107.702C306.774 114.356 303.03 119.946 298.134 123.986C294.455 127.021 293.207 132.895 296.585 136.27C298.449 138.134 301.277 138.755 303.561 137.445C312.199 132.494 319.371 123.194 322.505 111.441C324.517 103.894 324.582 96.3908 323.042 89.7066Z" fill="#F4C498"/>
<path fill-rule="evenodd" clip-rule="evenodd" d="M322.116 88.5145C321.562 86.7113 319.997 85.4371 318.147 85.0745C312.99 84.0639 308.349 91.1253 309.244 96.3051C309.814 99.6073 309.805 103.05 309.132 106.51C308.938 107.503 309.352 108.531 310.221 109.05L316.762 112.964C319.277 114.469 322.542 113.239 323.102 110.363C324.604 102.646 324.142 95.1084 322.116 88.5145Z" fill="#DF3A1F"/>
<path d="M362.454 93.3884C362.454 85.8494 356.126 79.8554 348.598 80.2637L324.261 81.5837C317.38 81.9569 311.955 87.5813 311.831 94.4715L311.284 124.787C311.155 131.938 316.768 137.879 323.915 138.157L348.799 139.126C356.253 139.416 362.454 133.451 362.454 125.992V93.3884Z" fill="#DF3A1F"/>
<rect width="13.1379" height="21.8895" rx="6.56894" transform="matrix(0.610433 0.792068 0.791333 -0.611386 332.912 155.203)" fill="#F4C498"/>
<path fill-rule="evenodd" clip-rule="evenodd" d="M359.283 83.8904C357.825 82.6999 355.819 82.5105 354.082 83.2369C349.235 85.2627 349.289 93.7221 352.903 97.5324C355.21 99.9655 357.113 102.838 358.471 106.097C362.214 115.081 360.964 124.953 355.984 132.82C353.918 136.083 353.55 140.371 355.913 143.422C358.115 146.264 362.088 147.285 364.871 145.006C375.759 136.09 379.176 118.232 372.22 101.538C369.193 94.2732 364.627 88.2521 359.283 83.8904Z" fill="#F4C498"/>
<path fill-rule="evenodd" clip-rule="evenodd" d="M359.284 83.8903C357.826 82.6998 355.82 82.5104 354.083 83.2368C349.236 85.2626 349.29 93.722 352.904 97.5323C355.211 99.9654 357.114 102.838 358.472 106.097C358.869 107.05 359.801 107.689 360.832 107.638L368.365 107.26C371.308 107.113 373.354 104.258 372.221 101.538C369.194 94.2731 364.628 88.252 359.284 83.8903Z" fill="#DF3A1F"/>
<rect width="44.1963" height="39.4319" rx="17.5253" transform="matrix(-1 0 0 1 359.456 37.4514)" fill="black"/>
<rect width="21.8794" height="31.9837" rx="10.9397" transform="matrix(-1 0 0 1 337.14 36.1369)" fill="black"/>
<path d="M316.045 51.9203C316.045 69.1568 319.684 75.6566 330.709 75.6566C341.735 75.6566 358.991 67.8655 358.991 55.6126C358.991 43.3597 344.877 27.6566 333.852 27.6566C322.826 27.6566 316.045 36.1568 316.045 51.9203Z" fill="#F4C498"/>
<path d="M347.014 69.4348C347.014 64.5953 343.091 60.6722 338.251 60.6722H337.398C332.558 60.6722 328.635 64.5954 328.635 69.4348V76.8831C328.635 81.7226 332.558 85.6457 337.398 85.6457H338.251C343.091 85.6457 347.014 81.7226 347.014 76.8831V69.4348Z" fill="#F4C498"/>
<path fill-rule="evenodd" clip-rule="evenodd" d="M358.21 55.6681C360.346 44.8678 354.045 34.4062 343.942 32.15C340.427 31.365 336.907 31.6751 333.701 32.8633C331.565 43.6635 337.866 54.1251 347.969 56.3813C351.484 57.1663 355.004 56.8563 358.21 55.6681Z" fill="black"/>
<path fill-rule="evenodd" clip-rule="evenodd" d="M322.261 31.9485C327.969 26.7518 335.827 24.448 343.484 26.5034C353.78 29.2675 360.459 39.0424 360.344 49.8732C355.014 53.5284 347.583 54.8428 340.126 52.8408C329.354 49.949 322.084 41.0928 322.261 31.9485Z" fill="black"/>
<path fill-rule="evenodd" clip-rule="evenodd" d="M346.96 73.979C352.113 64.5783 349.854 52.1238 340.937 44.2837C333.786 37.9962 324.249 36.3435 316.294 39.2009C317.043 37.8343 317.948 36.5322 319.013 35.3182C327.402 25.7535 342.482 25.2794 352.695 34.2593C362.908 43.2391 364.387 58.2725 355.998 67.8372C353.483 70.7049 350.367 72.7554 346.96 73.979Z" fill="black"/>
<path fill-rule="evenodd" clip-rule="evenodd" d="M341.933 61.6391C342.615 64.1869 345.868 64.9362 347.755 63.0924C349.738 61.1539 350.66 58.3417 349.929 55.6072C349.248 53.0595 345.994 52.3101 344.108 54.1539C342.124 56.0924 341.202 58.9047 341.933 61.6391Z" fill="#F4C498"/>
<path d="M313.05 59.8729L317.629 51.4367C318.618 49.6138 321.387 50.3166 321.387 52.3908V62.5669C321.387 63.967 319.985 64.9338 318.676 64.4365L314.097 62.6966C312.965 62.2665 312.472 60.9371 313.05 59.8729Z" fill="#F4C498"/>
<rect x="325.958" y="49.657" width="5" height="7.5" rx="2.5" fill="black"/>
<rect width="3.26823" height="8.64696" rx="1.63411" transform="matrix(4.37114e-08 -1 0.999907 0.0136318 322.099 45.5541)" fill="black"/>
<path d="M327.458 66.6568C325.716 69.2823 322.458 70.1567 320.179 70.2823L319.679 69.7822C323.458 70.6567 327.458 66.6568 327.458 66.6568Z" stroke="black" stroke-width="3.3" stroke-linecap="round" stroke-linejoin="round"/>
<path d="M329.734 236.075C326.347 236.474 323.795 239.345 323.795 242.755C323.795 246.469 326.806 249.481 330.521 249.481L352.948 249.481C357.389 249.481 360.99 245.88 360.99 241.438C360.99 236.624 356.788 232.888 352.007 233.452L329.734 236.075Z" fill="#FFBA09"/>
<path d="M289.724 230.489C286.324 230.237 283.274 232.57 282.627 235.919C281.922 239.565 284.308 243.094 287.954 243.8L309.975 248.064C314.335 248.909 318.553 246.058 319.395 241.697C320.308 236.97 316.892 232.504 312.091 232.148L289.724 230.489Z" fill="#FFBA09"/>
<mask id="path-50-outside-2" maskUnits="userSpaceOnUse" x="263.836" y="17.7559" width="119" height="239" fill="black">
<rect fill="white" x="263.836" y="17.7559" width="119" height="239"/>
<path fill-rule="evenodd" clip-rule="evenodd" d="M347.894 28.2171C356.258 29.544 362.652 36.7879 362.652 45.525V58.4745C362.652 67.5161 355.805 74.9585 347.013 75.8994V76.8829C347.013 78.1295 346.753 79.3153 346.283 80.389L348.598 80.2635C351.848 80.0872 354.874 81.1041 357.264 82.9234C357.992 83.0804 358.684 83.4006 359.283 83.8901C364.627 88.2517 369.193 94.2729 372.22 101.538C372.228 101.557 372.235 101.575 372.243 101.594C379.066 118.026 375.845 135.576 365.345 144.607L361.882 221.299C361.665 226.113 357.602 229.848 352.787 229.66L347.443 229.451C342.99 229.278 339.377 225.79 339.046 221.346L335.36 171.81L334.655 171.675L321.627 220.869C320.474 225.222 316.213 227.817 311.793 226.858L306.662 225.745C301.933 224.719 298.745 220.018 299.541 215.244L313.401 132.183C313.013 131.585 312.671 130.955 312.382 130.296C309.727 133.206 306.743 135.621 303.561 137.445C301.276 138.754 298.449 138.133 296.584 136.27C293.207 132.894 294.455 127.021 298.133 123.985C303.029 119.946 306.773 114.356 308.547 107.701C309.24 105.104 309.591 102.498 309.63 99.9308C309.579 98.7078 309.449 97.4972 309.243 96.3049C308.475 91.8589 311.786 86.0266 316 85.1025C318.182 83.0629 321.064 81.7568 324.26 81.5834L329.817 81.282C329.065 79.9892 328.634 78.4863 328.634 76.8829V75.5714C325.072 75.2636 322.403 74.1081 320.461 71.9176C320.396 71.9221 320.332 71.9261 320.269 71.9296C319.801 71.9554 319.344 71.7807 319.012 71.4492L318.512 70.9491C317.991 70.4286 317.878 69.626 318.235 68.982C318.292 68.8797 318.358 68.7854 318.432 68.6998C318.142 68.0515 317.881 67.3536 317.648 66.6043C317.143 65.6432 316.726 64.6295 316.405 63.5736L314.096 62.6964C312.964 62.2663 312.471 60.9369 313.049 59.8727L315.26 55.8002V47.0764C315.26 45.9746 315.422 44.9109 315.725 43.908C315.883 42.1839 316.291 40.5319 316.911 38.9887C316.704 39.0563 316.498 39.127 316.293 39.2006C316.936 38.0285 317.693 36.9039 318.568 35.8416C319.832 33.9375 321.459 32.2947 323.35 31.0119C328.946 26.4816 336.303 24.5757 343.483 26.5031C345.04 26.9211 346.514 27.4992 347.894 28.2171ZM318.235 68.982L318.682 69.2297C318.623 69.1097 318.564 68.9878 318.507 68.864L318.235 68.982ZM319.481 70.6325C319.687 70.9457 319.903 71.2429 320.129 71.5247C319.857 71.4977 319.582 71.4534 319.306 71.3895L319.377 71.0844L319.481 70.6325ZM271.812 142.654C270.872 139.149 272.953 135.547 276.459 134.61L284.901 132.354C288.408 131.416 292.011 133.499 292.951 137.004C293.89 140.51 291.809 144.112 288.303 145.049L279.861 147.305C276.355 148.242 272.751 146.16 271.812 142.654ZM329.734 236.075C326.347 236.474 323.795 239.344 323.795 242.755C323.795 246.469 326.806 249.48 330.521 249.48H352.948C357.389 249.48 360.99 245.88 360.99 241.438C360.99 236.624 356.788 232.888 352.007 233.451L329.734 236.075ZM282.626 235.918C283.273 232.57 286.323 230.237 289.723 230.489L312.09 232.148C316.891 232.504 320.307 236.97 319.394 241.697C318.552 246.058 314.334 248.908 309.974 248.064L287.953 243.8C284.307 243.094 281.921 239.565 282.626 235.918Z"/>
</mask>
<path d="M316.843 65.7708L317.115 65.6528L319.899 72.0752L319.627 72.1932L316.843 65.7708ZM347.894 28.2171L346.797 35.1306C346.053 35.0125 345.333 34.7751 344.665 34.4275L347.894 28.2171ZM347.013 75.8994H340.013C340.013 72.3218 342.711 69.3199 346.268 68.9392L347.013 75.8994ZM346.283 80.389L346.663 87.3787C344.237 87.5103 341.916 86.3748 340.532 84.3787C339.147 82.3827 338.896 79.8115 339.869 77.5855L346.283 80.389ZM348.598 80.2635L348.219 73.2737L348.598 80.2635ZM357.264 82.9234L355.788 89.7662C354.784 89.5497 353.841 89.1152 353.024 88.4933L357.264 82.9234ZM359.283 83.8901L363.709 78.467L363.709 78.467L359.283 83.8901ZM372.22 101.538L378.681 98.8454L378.681 98.8455L372.22 101.538ZM372.243 101.594L365.778 104.278C365.767 104.251 365.755 104.223 365.744 104.195L372.243 101.594ZM365.345 144.607L358.352 144.292C358.439 142.364 359.318 140.558 360.78 139.3L365.345 144.607ZM361.882 221.299L354.889 220.984L361.882 221.299ZM352.787 229.66L353.06 222.666H353.06L352.787 229.66ZM347.443 229.451L347.17 236.446H347.17L347.443 229.451ZM339.046 221.346L346.027 220.826L339.046 221.346ZM335.36 171.81L336.67 164.933C339.78 165.526 342.106 168.133 342.341 171.29L335.36 171.81ZM334.655 171.675L327.888 169.883C328.829 166.332 332.355 164.111 335.965 164.799L334.655 171.675ZM321.627 220.869L314.86 219.077L321.627 220.869ZM311.793 226.858L313.277 220.017H313.277L311.793 226.858ZM306.662 225.745L305.179 232.586H305.179L306.662 225.745ZM299.541 215.244L292.637 214.092L299.541 215.244ZM313.401 132.183L319.269 128.365C320.224 129.834 320.594 131.607 320.306 133.335L313.401 132.183ZM312.382 130.296L307.212 125.577C308.809 123.828 311.183 123.004 313.52 123.389C315.857 123.774 317.842 125.315 318.793 127.485L312.382 130.296ZM303.561 137.445L307.042 143.518L307.042 143.518L303.561 137.445ZM296.584 136.27L291.636 141.221L296.584 136.27ZM298.133 123.985L302.589 129.385H302.589L298.133 123.985ZM308.547 107.701L315.311 109.505L308.547 107.701ZM309.63 99.9308L316.624 99.6397C316.63 99.7719 316.631 99.9043 316.629 100.037L309.63 99.9308ZM309.243 96.3049L316.141 95.1139L309.243 96.3049ZM316 85.1025L320.779 90.2168C319.861 91.0754 318.728 91.6706 317.499 91.94L316 85.1025ZM324.26 81.5834L324.639 88.5732H324.639L324.26 81.5834ZM329.817 81.282L335.868 77.7627C337.093 79.8695 337.135 82.4619 335.977 84.6067C334.82 86.7515 332.63 88.1398 330.196 88.2718L329.817 81.282ZM328.634 75.5714L329.237 68.5973C332.856 68.91 335.634 71.9389 335.634 75.5714H328.634ZM320.461 71.9176L319.971 64.9347C322.14 64.7825 324.256 65.6469 325.699 67.2739L320.461 71.9176ZM320.269 71.9296L320.655 78.9189L320.655 78.9189L320.269 71.9296ZM319.012 71.4492L314.064 76.4008L314.064 76.4007L319.012 71.4492ZM318.512 70.9491L323.46 65.9976L323.46 65.9976L318.512 70.9491ZM318.235 68.982L312.113 65.5879L312.113 65.5878L318.235 68.982ZM318.432 68.6998L324.82 65.8368C325.935 68.3238 325.505 71.2316 323.718 73.2894L318.432 68.6998ZM317.648 66.6043L323.846 63.3525C324.043 63.7275 324.205 64.1196 324.331 64.524L317.648 66.6043ZM316.405 63.5736L318.891 57.03C320.918 57.8 322.473 59.4655 323.103 61.5399L316.405 63.5736ZM314.096 62.6964L316.583 56.1528L316.583 56.1528L314.096 62.6964ZM313.049 59.8727L306.897 56.5333V56.5333L313.049 59.8727ZM315.26 55.8002H322.26C322.26 56.9666 321.968 58.1145 321.412 59.1396L315.26 55.8002ZM315.725 43.908L322.696 44.5457C322.653 45.0159 322.563 45.4804 322.426 45.9323L315.725 43.908ZM316.911 38.9887L314.738 32.3348C317.324 31.4899 320.165 32.2199 322.023 34.2066C323.882 36.1933 324.421 39.0769 323.406 41.6009L316.911 38.9887ZM316.293 39.2006L318.659 45.7886C315.922 46.7719 312.861 45.9595 310.971 43.748C309.082 41.5365 308.757 38.3868 310.155 35.8359L316.293 39.2006ZM318.568 35.8416L324.399 39.7144C324.267 39.9135 324.124 40.1057 323.972 40.2903L318.568 35.8416ZM323.35 31.0119L327.755 36.4522C327.602 36.5764 327.443 36.6939 327.28 36.8046L323.35 31.0119ZM343.483 26.5031L345.298 19.7425H345.298L343.483 26.5031ZM318.682 69.2297L324.956 66.1262C326.314 68.8711 325.73 72.18 323.514 74.2941C321.299 76.4082 317.966 76.8367 315.288 75.3519L318.682 69.2297ZM318.507 68.864L315.723 62.4416C319.211 60.9295 323.268 62.4774 324.862 65.9286L318.507 68.864ZM320.129 71.5247L325.585 67.1394C327.351 69.3368 327.627 72.3791 326.284 74.858C324.942 77.337 322.243 78.7687 319.438 78.4905L320.129 71.5247ZM319.481 70.6325L312.662 69.0544C313.293 66.324 315.493 64.2337 318.252 63.7414C321.011 63.2491 323.797 64.4497 325.334 66.7931L319.481 70.6325ZM319.306 71.3895L317.728 78.2093C313.962 77.3378 311.615 73.578 312.486 69.8115L319.306 71.3895ZM319.377 71.0844L312.557 69.5064L312.557 69.5064L319.377 71.0844ZM276.459 134.61L274.652 127.847H274.652L276.459 134.61ZM271.812 142.654L265.05 144.466L265.05 144.466L271.812 142.654ZM284.901 132.354L283.094 125.591L283.094 125.591L284.901 132.354ZM292.951 137.004L286.189 138.816V138.816L292.951 137.004ZM288.303 145.049L286.495 138.286L286.495 138.286L288.303 145.049ZM279.861 147.305L281.669 154.068H281.668L279.861 147.305ZM329.734 236.075L328.915 229.123H328.915L329.734 236.075ZM360.99 241.438H367.99H360.99ZM352.007 233.451L352.826 240.403H352.826L352.007 233.451ZM289.723 230.489L289.205 237.47H289.205L289.723 230.489ZM282.626 235.918L275.753 234.591L282.626 235.918ZM312.09 232.148L311.572 239.129H311.572L312.09 232.148ZM319.394 241.697L312.521 240.369L312.521 240.369L319.394 241.697ZM309.974 248.064L308.643 254.936H308.643L309.974 248.064ZM287.953 243.8L286.622 250.673L287.953 243.8ZM355.652 45.525C355.652 40.2843 351.815 35.9266 346.797 35.1306L348.991 21.3035C360.702 23.1614 369.652 33.2914 369.652 45.525H355.652ZM355.652 58.4745V45.525H369.652V58.4745H355.652ZM346.268 68.9392C351.541 68.3749 355.652 63.9001 355.652 58.4745H369.652C369.652 71.1321 360.069 81.5421 347.758 82.8597L346.268 68.9392ZM340.013 76.8829V75.8994H354.013V76.8829H340.013ZM339.869 77.5855C339.959 77.3793 340.013 77.1465 340.013 76.8829H354.013C354.013 79.1125 353.546 81.2514 352.698 83.1924L339.869 77.5855ZM348.977 87.2532L346.663 87.3787L345.904 73.3992L348.219 73.2737L348.977 87.2532ZM353.024 88.4933C351.905 87.6413 350.504 87.1704 348.977 87.2532L348.219 73.2737C353.191 73.004 357.843 74.5669 361.504 77.3536L353.024 88.4933ZM354.857 89.3131C355.154 89.5557 355.485 89.7008 355.788 89.7662L358.739 76.0807C360.498 76.46 362.213 77.2456 363.709 78.467L354.857 89.3131ZM365.758 104.23C363.16 97.9949 359.28 92.9229 354.857 89.3131L363.709 78.467C369.975 83.5806 375.225 90.5508 378.681 98.8454L365.758 104.23ZM365.744 104.195C365.749 104.208 365.754 104.219 365.758 104.23L378.681 98.8455C378.702 98.8939 378.722 98.9428 378.741 98.9924L365.744 104.195ZM360.78 139.3C368.421 132.728 371.755 118.672 365.778 104.278L378.708 98.9095C386.377 117.38 383.269 138.424 369.91 149.914L360.78 139.3ZM354.889 220.984L358.352 144.292L372.338 144.923L368.875 221.615L354.889 220.984ZM353.06 222.666C354.028 222.703 354.846 221.952 354.889 220.984L368.875 221.615C368.484 230.274 361.175 236.993 352.513 236.655L353.06 222.666ZM347.716 222.457L353.06 222.666L352.513 236.655L347.17 236.446L347.716 222.457ZM346.027 220.826C346.094 221.72 346.82 222.422 347.716 222.457L347.17 236.446C339.16 236.133 332.66 229.859 332.066 221.865L346.027 220.826ZM342.341 171.29L346.027 220.826L332.066 221.865L328.379 172.329L342.341 171.29ZM335.965 164.799L336.67 164.933L334.05 178.686L333.345 178.552L335.965 164.799ZM314.86 219.077L327.888 169.883L341.421 173.467L328.394 222.661L314.86 219.077ZM313.277 220.017C313.717 220.112 314.054 220.023 314.294 219.877C314.534 219.731 314.753 219.483 314.86 219.077L328.394 222.661C326.276 230.659 318.36 235.445 310.309 233.699L313.277 220.017ZM308.146 218.904L313.277 220.017L310.309 233.699L305.179 232.586L308.146 218.904ZM306.446 216.396C306.264 217.486 307.067 218.67 308.146 218.904L305.179 232.586C296.799 230.768 291.225 222.549 292.637 214.092L306.446 216.396ZM320.306 133.335L306.446 216.396L292.637 214.092L306.497 131.031L320.306 133.335ZM318.793 127.485C318.927 127.791 319.087 128.085 319.269 128.365L307.534 136C306.939 135.085 306.415 134.119 305.972 133.108L318.793 127.485ZM300.08 131.372C302.591 129.932 305.013 127.987 307.212 125.577L317.553 135.015C314.441 138.425 310.895 141.309 307.042 143.518L300.08 131.372ZM301.532 131.318C301.504 131.29 301.407 131.204 301.177 131.162C300.91 131.113 300.488 131.138 300.08 131.372L307.042 143.518C301.534 146.675 295.316 144.899 291.636 141.221L301.532 131.318ZM302.589 129.385C302.368 129.567 302.143 129.828 301.96 130.152C301.776 130.478 301.672 130.801 301.631 131.066C301.59 131.331 301.623 131.46 301.625 131.465C301.625 131.466 301.623 131.46 301.618 131.448C301.614 131.437 301.606 131.422 301.596 131.404C301.574 131.365 301.549 131.335 301.532 131.318L291.636 141.221C288.062 137.649 287.177 132.942 287.794 128.934C288.401 124.996 290.491 121.216 293.678 118.586L302.589 129.385ZM315.311 109.505C313.151 117.604 308.582 124.439 302.589 129.385L293.678 118.586C297.477 115.452 300.394 111.108 301.783 105.898L315.311 109.505ZM316.629 100.037C316.582 103.173 316.152 106.349 315.311 109.505L301.783 105.898C302.327 103.859 302.601 101.823 302.631 99.8251L316.629 100.037ZM316.141 95.1139C316.398 96.6007 316.561 98.1118 316.624 99.6397L302.636 100.222C302.598 99.3037 302.5 98.3937 302.345 97.4959L316.141 95.1139ZM317.499 91.94C317.762 91.8824 317.764 91.8075 317.553 91.984C317.346 92.1577 317.057 92.4754 316.78 92.9445C316.505 93.409 316.311 93.9059 316.21 94.3526C316.107 94.8092 316.133 95.0655 316.141 95.1139L302.345 97.4959C301.613 93.2565 302.842 89.0112 304.727 85.8215C306.578 82.689 309.849 79.285 314.5 78.265L317.499 91.94ZM324.639 88.5732C323.142 88.6544 321.803 89.26 320.779 90.2168L311.22 79.9882C314.561 76.8657 318.986 74.8592 323.881 74.5937L324.639 88.5732ZM330.196 88.2718L324.639 88.5732L323.881 74.5937L329.438 74.2923L330.196 88.2718ZM335.634 76.8829C335.634 77.217 335.721 77.5097 335.868 77.7627L323.766 84.8014C322.409 82.4687 321.634 79.7556 321.634 76.8829H335.634ZM335.634 75.5714V76.8829H321.634V75.5714H335.634ZM325.699 67.2739C326.148 67.7811 326.948 68.3996 329.237 68.5973L328.032 82.5454C323.196 82.1276 318.657 80.4351 315.223 76.5612L325.699 67.2739ZM319.884 64.9402C319.912 64.9386 319.941 64.9368 319.971 64.9347L320.951 78.9004C320.851 78.9074 320.752 78.9136 320.655 78.9189L319.884 64.9402ZM323.96 66.4976C322.885 65.4228 321.402 64.8565 319.884 64.9402L320.655 78.9189C318.2 79.0542 315.803 78.1385 314.064 76.4008L323.96 66.4976ZM323.46 65.9976L323.96 66.4977L314.064 76.4007L313.564 75.9007L323.46 65.9976ZM324.357 72.376C325.515 70.2879 325.149 67.6853 323.46 65.9976L313.564 75.9007C310.833 73.172 310.241 68.9641 312.113 65.5879L324.357 72.376ZM323.718 73.2894C323.961 73.0099 324.175 72.704 324.357 72.3761L312.113 65.5878C312.408 65.0554 312.756 64.561 313.147 64.1102L323.718 73.2894ZM324.331 64.524C324.491 65.0367 324.656 65.4704 324.82 65.8368L312.045 71.5627C311.628 70.6326 311.271 69.6705 310.964 68.6845L324.331 64.524ZM323.103 61.5399C323.295 62.1703 323.544 62.7765 323.846 63.3525L311.449 69.8561C310.743 68.5098 310.157 67.0887 309.707 65.6074L323.103 61.5399ZM316.583 56.1528L318.891 57.03L313.919 70.1172L311.61 69.24L316.583 56.1528ZM319.201 63.2121C320.645 60.5515 319.413 57.228 316.583 56.1528L311.61 69.24C306.516 67.3046 304.297 61.3223 306.897 56.5333L319.201 63.2121ZM321.412 59.1396L319.201 63.2121L306.897 56.5333L309.108 52.4608L321.412 59.1396ZM322.26 47.0764V55.8002H308.26V47.0764H322.26ZM322.426 45.9323C322.32 46.2859 322.26 46.6678 322.26 47.0764H308.26C308.26 45.2814 308.525 43.5359 309.025 41.8837L322.426 45.9323ZM323.406 41.6009C323.035 42.5219 322.791 43.5093 322.696 44.5457L308.755 43.2703C308.975 40.8584 309.546 38.5419 310.417 36.3765L323.406 41.6009ZM313.927 32.6127C314.196 32.516 314.466 32.4234 314.738 32.3348L319.085 45.6426C318.942 45.6893 318.8 45.7379 318.659 45.7886L313.927 32.6127ZM323.972 40.2903C323.378 41.012 322.866 41.7733 322.432 42.5653L310.155 35.8359C311.006 34.2838 312.008 32.7958 313.163 31.393L323.972 40.2903ZM327.28 36.8046C326.141 37.5773 325.16 38.5679 324.399 39.7144L312.737 31.9689C314.505 29.307 316.777 27.0122 319.42 25.2191L327.28 36.8046ZM341.668 33.2638C336.853 31.971 331.775 33.1977 327.755 36.4522L318.946 25.5715C326.116 19.7656 335.754 17.1805 345.298 19.7425L341.668 33.2638ZM344.665 34.4275C343.73 33.9417 342.73 33.5489 341.668 33.2638L345.298 19.7425C347.349 20.2932 349.297 21.0568 351.124 22.0066L344.665 34.4275ZM315.288 75.3519L314.841 75.1041L321.629 62.8599L322.076 63.1076L315.288 75.3519ZM324.862 65.9286C324.894 65.9969 324.925 66.0627 324.956 66.1262L312.408 72.3333C312.32 72.1566 312.235 71.9786 312.152 71.7994L324.862 65.9286ZM315.451 62.5596L315.723 62.4416L321.292 75.2864L321.019 75.4043L315.451 62.5596ZM314.673 75.9099C314.3 75.4464 313.953 74.9663 313.628 74.4719L325.334 66.7931C325.421 66.925 325.505 67.0395 325.585 67.1394L314.673 75.9099ZM320.884 64.5697C320.858 64.5637 320.836 64.5605 320.82 64.5588L319.438 78.4905C318.877 78.4348 318.306 78.343 317.728 78.2093L320.884 64.5697ZM326.197 72.6625L326.126 72.9675L312.486 69.8115L312.557 69.5064L326.197 72.6625ZM326.301 72.2106L326.197 72.6625L312.557 69.5064L312.662 69.0544L326.301 72.2106ZM278.267 141.373C278.497 141.311 278.635 141.073 278.573 140.843L265.05 144.466C263.11 137.225 267.409 129.783 274.652 127.847L278.267 141.373ZM286.709 139.116L278.267 141.373L274.652 127.847L283.094 125.591L286.709 139.116ZM286.189 138.816C286.25 139.043 286.482 139.177 286.709 139.116L283.094 125.591C290.333 123.656 297.773 127.954 299.712 135.193L286.189 138.816ZM286.495 138.286C286.265 138.348 286.128 138.586 286.189 138.816L299.712 135.193C301.653 142.434 297.353 149.875 290.11 151.811L286.495 138.286ZM278.053 140.542L286.495 138.286L290.11 151.811L281.669 154.068L278.053 140.542ZM278.573 140.843C278.512 140.616 278.28 140.482 278.053 140.542L281.668 154.068C274.429 156.003 266.99 151.704 265.05 144.466L278.573 140.843ZM316.795 242.755C316.795 235.795 322.003 229.937 328.915 229.123L330.553 243.027C330.691 243.011 330.795 242.894 330.795 242.755H316.795ZM330.521 256.48C322.94 256.48 316.795 250.335 316.795 242.755H330.795C330.795 242.603 330.672 242.48 330.521 242.48V256.48ZM352.948 256.48H330.521V242.48H352.948V256.48ZM367.99 241.438C367.99 249.746 361.255 256.48 352.948 256.48V242.48C353.523 242.48 353.99 242.014 353.99 241.438H367.99ZM351.188 226.499C360.131 225.446 367.99 232.433 367.99 241.438H353.99C353.99 240.814 353.445 240.33 352.826 240.403L351.188 226.499ZM328.915 229.123L351.188 226.499L352.826 240.403L330.553 243.027L328.915 229.123ZM289.205 237.47C289.346 237.48 289.472 237.383 289.499 237.246L275.753 234.591C277.073 227.757 283.299 222.994 290.241 223.508L289.205 237.47ZM311.572 239.129L289.205 237.47L290.241 223.508L312.607 225.167L311.572 239.129ZM312.521 240.369C312.639 239.755 312.195 239.175 311.572 239.129L312.607 225.167C321.586 225.833 327.974 234.185 326.267 243.025L312.521 240.369ZM311.304 241.192C311.868 241.301 312.412 240.933 312.521 240.369L326.267 243.025C324.691 251.182 316.8 256.516 308.643 254.936L311.304 241.192ZM289.284 236.928L311.304 241.192L308.643 254.936L286.622 250.673L289.284 236.928ZM289.499 237.246C289.527 237.098 289.432 236.956 289.284 236.928L286.622 250.673C279.182 249.232 274.316 242.032 275.753 234.591L289.499 237.246Z" fill="black" mask="url(#path-50-outside-2)"/>
</svg>
