<svg width="88" height="88" viewBox="0 0 88 88" fill="none" xmlns="http://www.w3.org/2000/svg">
<path d="M46.0951 81.4597C67.7611 81.4597 85.3249 63.8959 85.3249 42.2298C85.3249 20.5638 67.7611 3 46.0951 3C24.429 3 6.86523 20.5638 6.86523 42.2298C6.86523 63.8959 24.429 81.4597 46.0951 81.4597Z" fill="#DF3A1F"/>
<path d="M10.3993 43.6196C6.31277 43.6196 3 40.3069 3 36.2203V36.2203C3 32.1338 6.31277 28.8211 10.3993 28.8211L48.4527 28.8211C52.5392 28.8211 55.852 32.1338 55.852 36.2203V36.2203C55.852 40.3069 52.5392 43.6196 48.4527 43.6196L10.3993 43.6196Z" fill="#FF8874"/>
<path d="M14.3002 30.3213C10.7975 30.3213 7.95801 27.4818 7.95801 23.979V23.979C7.95801 20.4763 10.7975 17.6368 14.3002 17.6368L26.9847 17.6368C30.4874 17.6368 33.327 20.4763 33.327 23.979V23.979C33.327 27.4818 30.4874 30.3213 26.9847 30.3213L14.3002 30.3213Z" fill="#FF8874"/>
<path d="M39.5331 71.2002C35.8667 71.2002 32.8945 68.228 32.8945 64.5616V64.5616C32.8945 60.8952 35.8667 57.923 39.5331 57.923L72.5187 57.923C76.1851 57.923 79.1573 60.8952 79.1573 64.5616V64.5616C79.1573 68.228 76.1851 71.2002 72.5187 71.2002L39.5331 71.2002Z" fill="#FF8874"/>
<circle cx="44.25" cy="43.8838" r="40.25" stroke="black" stroke-width="7"/>
</svg>
