<svg width="65" height="50" viewBox="0 0 65 50" fill="none" xmlns="http://www.w3.org/2000/svg">
<rect width="65" height="50" rx="20" fill="#DF3A1F"/>
<path fill-rule="evenodd" clip-rule="evenodd" d="M22 12C16.4772 12 12 16.4772 12 22V27C12 32.5228 16.4772 37 22 37H23.8589C24.6015 37 25.3176 37.2754 25.8689 37.7729L29.6963 41.227C30.7626 42.1893 32.3614 42.2608 33.5094 41.3975L38.5557 37.6024C39.0755 37.2114 39.7084 37 40.3588 37H43C48.5228 37 53 32.5228 53 27V22C53 16.4772 48.5228 12 43 12H22Z" fill="#DF3A1F"/>
<path d="M38.5557 37.6024L36.7525 35.2047L38.5557 37.6024ZM25.8689 37.7729L23.8589 40L25.8689 37.7729ZM15 22C15 18.134 18.134 15 22 15V9C14.8203 9 9 14.8203 9 22H15ZM15 27V22H9V27H15ZM22 34C18.134 34 15 30.866 15 27H9C9 34.1797 14.8203 40 22 40V34ZM23.8589 34H22V40H23.8589V34ZM31.7062 38.9999L27.8788 35.5457L23.8589 40L27.6864 43.4542L31.7062 38.9999ZM36.7525 35.2047L31.7062 38.9999L35.3125 43.7951L40.3588 40L36.7525 35.2047ZM43 34H40.3588V40H43V34ZM50 27C50 30.866 46.866 34 43 34V40C50.1797 40 56 34.1797 56 27H50ZM50 22V27H56V22H50ZM43 15C46.866 15 50 18.134 50 22H56C56 14.8203 50.1797 9 43 9V15ZM22 15H43V9H22V15ZM40.3588 40V34C39.0579 34 37.7922 34.4228 36.7525 35.2047L40.3588 40ZM27.6864 43.4542C29.819 45.3788 33.0166 45.5218 35.3125 43.7951L31.7062 38.9999L27.6864 43.4542ZM23.8589 40H23.8589L27.8788 35.5457C26.7763 34.5508 25.344 34 23.8589 34V40Z" fill="white"/>
<path d="M47.8257 9.23936L19.239 42.1745" stroke="white" stroke-width="6" stroke-linecap="round"/>
</svg>
