<svg width="85" height="62" viewBox="0 0 85 62" fill="none" xmlns="http://www.w3.org/2000/svg">
<path fill-rule="evenodd" clip-rule="evenodd" d="M17.7018 23.5697C17.4112 24.2713 16.7389 24.75 15.9795 24.75H11.3293C8.93828 24.75 7 26.6883 7 29.0793V40.7683C7 43.1593 8.93828 45.0976 11.3293 45.0976H73.6707C76.0617 45.0976 78 43.1593 78 40.7683V29.0793C78 26.6883 76.0617 24.75 73.6707 24.75H69.0206C68.2613 24.75 67.589 24.2713 67.2983 23.5697C65.9494 20.3131 63.9723 17.3541 61.4798 14.8617C58.9874 12.3692 56.0284 10.3921 52.7719 9.04318C49.5153 7.69427 46.0249 7 42.5001 7C38.9752 7 35.4848 7.69428 32.2283 9.04319C28.9717 10.3921 26.0127 12.3692 23.5203 14.8617C21.0278 17.3541 19.0507 20.3131 17.7018 23.5697Z" fill="#FF0000"/>
<path d="M63 32.5C63 29.8079 62.4698 27.1422 61.4395 24.655C60.4093 22.1678 58.8993 19.9079 56.9957 18.0043C55.0921 16.1007 52.8322 14.5907 50.345 13.5605C47.8578 12.5302 45.1921 12 42.5 12C39.8079 12 37.1422 12.5302 34.655 13.5605C32.1678 14.5907 29.9079 16.1007 28.0043 18.0043C26.1007 19.9079 24.5907 22.1678 23.5605 24.655C22.5302 27.1422 22 29.8079 22 32.5L42.5 32.5H63Z" fill="#00E0FF"/>
<rect x="7" y="24.75" width="71" height="20.3476" fill="#FF0000"/>
<circle cx="26.0485" cy="45.0983" r="9.09146" fill="#A5A5A5"/>
<circle cx="59.817" cy="45.0983" r="9.09146" fill="#A5A5A5"/>
<mask id="path-6-outside-1" maskUnits="userSpaceOnUse" x="0" y="0" width="85" height="62" fill="black">
<rect fill="white" width="85" height="62"/>
<path fill-rule="evenodd" clip-rule="evenodd" d="M17.7018 23.5697C17.4111 24.2713 16.7388 24.7501 15.9794 24.7501H11.3293C8.93828 24.7501 7 26.6883 7 29.0793V40.7684C7 43.1593 8.93828 45.0976 11.3293 45.0976H16.957V45.0983C16.957 50.1194 21.0274 54.1898 26.0485 54.1898C31.0696 54.1898 35.14 50.1194 35.14 45.0983V45.0976H50.7256C50.7256 45.0979 50.7256 45.0981 50.7256 45.0983C50.7256 50.1194 54.796 54.1898 59.817 54.1898C64.8381 54.1898 68.9085 50.1194 68.9085 45.0983C68.9085 45.0981 68.9085 45.0979 68.9085 45.0976H73.6707C76.0617 45.0976 78 43.1593 78 40.7684V29.0793C78 26.6883 76.0617 24.7501 73.6707 24.7501H69.0207C68.2613 24.7501 67.5889 24.2713 67.2983 23.5697C65.9494 20.3131 63.9723 17.3541 61.4798 14.8617C58.9874 12.3692 56.0284 10.3921 52.7718 9.04319C49.5153 7.69427 46.0249 7 42.5 7C38.9752 7 35.4848 7.69427 32.2282 9.04319C28.9717 10.3921 26.0127 12.3692 23.5203 14.8617C21.0278 17.3541 19.0507 20.3131 17.7018 23.5697Z"/>
</mask>
<path d="M17.7018 23.5697L24.1689 26.2485V26.2485L17.7018 23.5697ZM16.957 45.0976H23.957C23.957 41.2316 20.823 38.0976 16.957 38.0976V45.0976ZM35.14 45.0976V38.0976C31.274 38.0976 28.14 41.2316 28.14 45.0976H35.14ZM50.7256 45.0976H57.7256C57.7256 41.2316 54.5916 38.0976 50.7256 38.0976V45.0976ZM68.9085 45.0976V38.0976C65.0425 38.0976 61.9085 41.2316 61.9085 45.0976H68.9085ZM67.2983 23.5697L73.7655 20.8909L73.7655 20.8909L67.2983 23.5697ZM61.4798 14.8617L56.5301 19.8114L56.5301 19.8114L61.4798 14.8617ZM52.7718 9.04319L50.093 15.5103L50.093 15.5103L52.7718 9.04319ZM32.2282 9.04319L34.907 15.5103L34.907 15.5103L32.2282 9.04319ZM23.5203 14.8617L18.5705 9.91193L18.5705 9.91194L23.5203 14.8617ZM15.9794 31.7501C19.7568 31.7501 22.8681 29.3888 24.1689 26.2485L11.2346 20.8909C11.9541 19.1538 13.7208 17.7501 15.9794 17.7501V31.7501ZM11.3293 31.7501H15.9794V17.7501H11.3293V31.7501ZM14 29.0793C14 30.5543 12.8043 31.7501 11.3293 31.7501V17.7501C5.07228 17.7501 0 22.8224 0 29.0793H14ZM14 40.7684V29.0793H0V40.7684H14ZM11.3293 38.0976C12.8043 38.0976 14 39.2934 14 40.7684H0C0 47.0253 5.07229 52.0976 11.3293 52.0976V38.0976ZM16.957 38.0976H11.3293V52.0976H16.957V38.0976ZM23.957 45.0983V45.0976H9.95703V45.0983H23.957ZM26.0485 47.1898C24.8934 47.1898 23.957 46.2534 23.957 45.0983H9.95703C9.95703 53.9854 17.1614 61.1898 26.0485 61.1898V47.1898ZM28.14 45.0983C28.14 46.2534 27.2036 47.1898 26.0485 47.1898V61.1898C34.9356 61.1898 42.14 53.9854 42.14 45.0983H28.14ZM28.14 45.0976V45.0983H42.14V45.0976H28.14ZM50.7256 38.0976H35.14V52.0976H50.7256V38.0976ZM57.7256 45.0983V45.0983V45.0983C57.7256 45.0983 57.7256 45.0983 57.7256 45.0983C57.7256 45.0983 57.7256 45.0983 57.7256 45.0983C57.7256 45.0983 57.7256 45.0983 57.7256 45.0983C57.7256 45.0983 57.7256 45.0983 57.7256 45.0983C57.7256 45.0983 57.7256 45.0983 57.7256 45.0983C57.7256 45.0983 57.7256 45.0983 57.7256 45.0983V45.0983V45.0983V45.0983C57.7256 45.0983 57.7256 45.0983 57.7256 45.0983C57.7256 45.0982 57.7256 45.0982 57.7256 45.0982C57.7256 45.0982 57.7256 45.0982 57.7256 45.0982C57.7256 45.0982 57.7256 45.0982 57.7256 45.0982C57.7256 45.0982 57.7256 45.0982 57.7256 45.0982C57.7256 45.0982 57.7256 45.0982 57.7256 45.0982C57.7256 45.0982 57.7256 45.0982 57.7256 45.0982V45.0982V45.0982V45.0982C57.7256 45.0982 57.7256 45.0982 57.7256 45.0982C57.7256 45.0982 57.7256 45.0982 57.7256 45.0982C57.7256 45.0982 57.7256 45.0982 57.7256 45.0982C57.7256 45.0982 57.7256 45.0982 57.7256 45.0982C57.7256 45.0982 57.7256 45.0982 57.7256 45.0982C57.7256 45.0982 57.7256 45.0982 57.7256 45.0982C57.7256 45.0982 57.7256 45.0982 57.7256 45.0982V45.0982V45.0982V45.0982V45.0982C57.7256 45.0982 57.7256 45.0982 57.7256 45.0982C57.7256 45.0982 57.7256 45.0982 57.7256 45.0982C57.7256 45.0982 57.7256 45.0982 57.7256 45.0982C57.7256 45.0982 57.7256 45.0982 57.7256 45.0982C57.7256 45.0982 57.7256 45.0982 57.7256 45.0982C57.7256 45.0982 57.7256 45.0982 57.7256 45.0982C57.7256 45.0982 57.7256 45.0982 57.7256 45.0981V45.0981V45.0981V45.0981V45.0981C57.7256 45.0981 57.7256 45.0981 57.7256 45.0981C57.7256 45.0981 57.7256 45.0981 57.7256 45.0981C57.7256 45.0981 57.7256 45.0981 57.7256 45.0981C57.7256 45.0981 57.7256 45.0981 57.7256 45.0981C57.7256 45.0981 57.7256 45.0981 57.7256 45.0981C57.7256 45.0981 57.7256 45.0981 57.7256 45.0981C57.7256 45.0981 57.7256 45.0981 57.7256 45.0981V45.0981V45.0981V45.0981V45.0981C57.7256 45.0981 57.7256 45.0981 57.7256 45.0981C57.7256 45.0981 57.7256 45.0981 57.7256 45.0981C57.7256 45.0981 57.7256 45.0981 57.7256 45.0981C57.7256 45.0981 57.7256 45.0981 57.7256 45.0981C57.7256 45.0981 57.7256 45.0981 57.7256 45.0981C57.7256 45.0981 57.7256 45.0981 57.7256 45.0981C57.7256 45.0981 57.7256 45.0981 57.7256 45.0981C57.7256 45.0981 57.7256 45.0981 57.7256 45.0981V45.0981V45.0981V45.098V45.098C57.7256 45.098 57.7256 45.098 57.7256 45.098C57.7256 45.098 57.7256 45.098 57.7256 45.098C57.7256 45.098 57.7256 45.098 57.7256 45.098C57.7256 45.098 57.7256 45.098 57.7256 45.098C57.7256 45.098 57.7256 45.098 57.7256 45.098C57.7256 45.098 57.7256 45.098 57.7256 45.098C57.7256 45.098 57.7256 45.098 57.7256 45.098C57.7256 45.098 57.7256 45.098 57.7256 45.098V45.098V45.098V45.098V45.098C57.7256 45.098 57.7256 45.098 57.7256 45.098C57.7256 45.098 57.7256 45.098 57.7256 45.098C57.7256 45.098 57.7256 45.098 57.7256 45.098C57.7256 45.098 57.7256 45.098 57.7256 45.098C57.7256 45.098 57.7256 45.098 57.7256 45.098C57.7256 45.098 57.7256 45.098 57.7256 45.098C57.7256 45.098 57.7256 45.098 57.7256 45.098C57.7256 45.098 57.7256 45.098 57.7256 45.098V45.098V45.098V45.098V45.098C57.7256 45.0979 57.7256 45.0979 57.7256 45.0979C57.7256 45.0979 57.7256 45.0979 57.7256 45.0979C57.7256 45.0979 57.7256 45.0979 57.7256 45.0979C57.7256 45.0979 57.7256 45.0979 57.7256 45.0979C57.7256 45.0979 57.7256 45.0979 57.7256 45.0979C57.7256 45.0979 57.7256 45.0979 57.7256 45.0979C57.7256 45.0979 57.7256 45.0979 57.7256 45.0979C57.7256 45.0979 57.7256 45.0979 57.7256 45.0979V45.0979V45.0979V45.0979V45.0979C57.7256 45.0979 57.7256 45.0979 57.7256 45.0979C57.7256 45.0979 57.7256 45.0979 57.7256 45.0979C57.7256 45.0979 57.7256 45.0979 57.7256 45.0979C57.7256 45.0979 57.7256 45.0979 57.7256 45.0979C57.7256 45.0979 57.7256 45.0979 57.7256 45.0979C57.7256 45.0979 57.7256 45.0979 57.7256 45.0979C57.7256 45.0979 57.7256 45.0979 57.7256 45.0979C57.7256 45.0979 57.7256 45.0979 57.7256 45.0979V45.0979V45.0979V45.0979V45.0979C57.7256 45.0979 57.7256 45.0979 57.7256 45.0979C57.7256 45.0979 57.7256 45.0979 57.7256 45.0979C57.7256 45.0979 57.7256 45.0979 57.7256 45.0979C57.7256 45.0978 57.7256 45.0978 57.7256 45.0978C57.7256 45.0978 57.7256 45.0978 57.7256 45.0978C57.7256 45.0978 57.7256 45.0978 57.7256 45.0978C57.7256 45.0978 57.7256 45.0978 57.7256 45.0978C57.7256 45.0978 57.7256 45.0978 57.7256 45.0978V45.0978V45.0978V45.0978V45.0978C57.7256 45.0978 57.7256 45.0978 57.7256 45.0978C57.7256 45.0978 57.7256 45.0978 57.7256 45.0978C57.7256 45.0978 57.7256 45.0978 57.7256 45.0978C57.7256 45.0978 57.7256 45.0978 57.7256 45.0978C57.7256 45.0978 57.7256 45.0978 57.7256 45.0978C57.7256 45.0978 57.7256 45.0978 57.7256 45.0978C57.7256 45.0978 57.7256 45.0978 57.7256 45.0978V45.0978V45.0978V45.0978V45.0978C57.7256 45.0978 57.7256 45.0978 57.7256 45.0978C57.7256 45.0978 57.7256 45.0978 57.7256 45.0978C57.7256 45.0978 57.7256 45.0978 57.7256 45.0978C57.7256 45.0978 57.7256 45.0978 57.7256 45.0978C57.7256 45.0978 57.7256 45.0978 57.7256 45.0978C57.7256 45.0978 57.7256 45.0978 57.7256 45.0978C57.7256 45.0978 57.7256 45.0978 57.7256 45.0977V45.0977V45.0977V45.0977V45.0977C57.7256 45.0977 57.7256 45.0977 57.7256 45.0977C57.7256 45.0977 57.7256 45.0977 57.7256 45.0977C57.7256 45.0977 57.7256 45.0977 57.7256 45.0977C57.7256 45.0977 57.7256 45.0977 57.7256 45.0977C57.7256 45.0977 57.7256 45.0977 57.7256 45.0977C57.7256 45.0977 57.7256 45.0977 57.7256 45.0977C57.7256 45.0977 57.7256 45.0977 57.7256 45.0977V45.0977V45.0977V45.0977C57.7256 45.0977 57.7256 45.0977 57.7256 45.0977C57.7256 45.0977 57.7256 45.0977 57.7256 45.0977C57.7256 45.0977 57.7256 45.0977 57.7256 45.0977C57.7256 45.0977 57.7256 45.0977 57.7256 45.0977C57.7256 45.0977 57.7256 45.0977 57.7256 45.0977C57.7256 45.0977 57.7256 45.0977 57.7256 45.0977C57.7256 45.0977 57.7256 45.0977 57.7256 45.0977V45.0977V45.0977V45.0977C57.7256 45.0977 57.7256 45.0977 57.7256 45.0977C57.7256 45.0976 57.7256 45.0976 57.7256 45.0976C57.7256 45.0976 57.7256 45.0976 57.7256 45.0976C57.7256 45.0976 57.7256 45.0976 57.7256 45.0976C57.7256 45.0976 57.7256 45.0976 57.7256 45.0976C57.7256 45.0976 57.7256 45.0976 57.7256 45.0976V45.0976V45.0976H43.7256V45.0976V45.0976C43.7256 45.0976 43.7256 45.0976 43.7256 45.0976C43.7256 45.0976 43.7256 45.0976 43.7256 45.0976C43.7256 45.0976 43.7256 45.0976 43.7256 45.0976C43.7256 45.0976 43.7256 45.0976 43.7256 45.0976C43.7256 45.0976 43.7256 45.0976 43.7256 45.0977C43.7256 45.0977 43.7256 45.0977 43.7256 45.0977V45.0977V45.0977V45.0977C43.7256 45.0977 43.7256 45.0977 43.7256 45.0977C43.7256 45.0977 43.7256 45.0977 43.7256 45.0977C43.7256 45.0977 43.7256 45.0977 43.7256 45.0977C43.7256 45.0977 43.7256 45.0977 43.7256 45.0977C43.7256 45.0977 43.7256 45.0977 43.7256 45.0977C43.7256 45.0977 43.7256 45.0977 43.7256 45.0977C43.7256 45.0977 43.7256 45.0977 43.7256 45.0977V45.0977V45.0977V45.0977C43.7256 45.0977 43.7256 45.0977 43.7256 45.0977C43.7256 45.0977 43.7256 45.0977 43.7256 45.0977C43.7256 45.0977 43.7256 45.0977 43.7256 45.0977C43.7256 45.0977 43.7256 45.0977 43.7256 45.0977C43.7256 45.0977 43.7256 45.0977 43.7256 45.0977C43.7256 45.0977 43.7256 45.0977 43.7256 45.0977C43.7256 45.0977 43.7256 45.0977 43.7256 45.0977V45.0977V45.0977V45.0977V45.0977C43.7256 45.0978 43.7256 45.0978 43.7256 45.0978C43.7256 45.0978 43.7256 45.0978 43.7256 45.0978C43.7256 45.0978 43.7256 45.0978 43.7256 45.0978C43.7256 45.0978 43.7256 45.0978 43.7256 45.0978C43.7256 45.0978 43.7256 45.0978 43.7256 45.0978C43.7256 45.0978 43.7256 45.0978 43.7256 45.0978C43.7256 45.0978 43.7256 45.0978 43.7256 45.0978V45.0978V45.0978V45.0978V45.0978C43.7256 45.0978 43.7256 45.0978 43.7256 45.0978C43.7256 45.0978 43.7256 45.0978 43.7256 45.0978C43.7256 45.0978 43.7256 45.0978 43.7256 45.0978C43.7256 45.0978 43.7256 45.0978 43.7256 45.0978C43.7256 45.0978 43.7256 45.0978 43.7256 45.0978C43.7256 45.0978 43.7256 45.0978 43.7256 45.0978C43.7256 45.0978 43.7256 45.0978 43.7256 45.0978V45.0978V45.0978V45.0978V45.0978C43.7256 45.0978 43.7256 45.0978 43.7256 45.0978C43.7256 45.0978 43.7256 45.0978 43.7256 45.0978C43.7256 45.0978 43.7256 45.0978 43.7256 45.0978C43.7256 45.0978 43.7256 45.0978 43.7256 45.0978C43.7256 45.0978 43.7256 45.0978 43.7256 45.0979C43.7256 45.0979 43.7256 45.0979 43.7256 45.0979C43.7256 45.0979 43.7256 45.0979 43.7256 45.0979C43.7256 45.0979 43.7256 45.0979 43.7256 45.0979V45.0979V45.0979V45.0979V45.0979C43.7256 45.0979 43.7256 45.0979 43.7256 45.0979C43.7256 45.0979 43.7256 45.0979 43.7256 45.0979C43.7256 45.0979 43.7256 45.0979 43.7256 45.0979C43.7256 45.0979 43.7256 45.0979 43.7256 45.0979C43.7256 45.0979 43.7256 45.0979 43.7256 45.0979C43.7256 45.0979 43.7256 45.0979 43.7256 45.0979C43.7256 45.0979 43.7256 45.0979 43.7256 45.0979C43.7256 45.0979 43.7256 45.0979 43.7256 45.0979V45.0979V45.0979V45.0979V45.0979C43.7256 45.0979 43.7256 45.0979 43.7256 45.0979C43.7256 45.0979 43.7256 45.0979 43.7256 45.0979C43.7256 45.0979 43.7256 45.0979 43.7256 45.0979C43.7256 45.0979 43.7256 45.0979 43.7256 45.0979C43.7256 45.0979 43.7256 45.0979 43.7256 45.0979C43.7256 45.0979 43.7256 45.0979 43.7256 45.0979C43.7256 45.0979 43.7256 45.0979 43.7256 45.0979C43.7256 45.0979 43.7256 45.0979 43.7256 45.098V45.098V45.098V45.098V45.098C43.7256 45.098 43.7256 45.098 43.7256 45.098C43.7256 45.098 43.7256 45.098 43.7256 45.098C43.7256 45.098 43.7256 45.098 43.7256 45.098C43.7256 45.098 43.7256 45.098 43.7256 45.098C43.7256 45.098 43.7256 45.098 43.7256 45.098C43.7256 45.098 43.7256 45.098 43.7256 45.098C43.7256 45.098 43.7256 45.098 43.7256 45.098C43.7256 45.098 43.7256 45.098 43.7256 45.098V45.098V45.098V45.098V45.098C43.7256 45.098 43.7256 45.098 43.7256 45.098C43.7256 45.098 43.7256 45.098 43.7256 45.098C43.7256 45.098 43.7256 45.098 43.7256 45.098C43.7256 45.098 43.7256 45.098 43.7256 45.098C43.7256 45.098 43.7256 45.098 43.7256 45.098C43.7256 45.098 43.7256 45.098 43.7256 45.098C43.7256 45.098 43.7256 45.098 43.7256 45.098C43.7256 45.098 43.7256 45.098 43.7256 45.098V45.098V45.0981V45.0981V45.0981C43.7256 45.0981 43.7256 45.0981 43.7256 45.0981C43.7256 45.0981 43.7256 45.0981 43.7256 45.0981C43.7256 45.0981 43.7256 45.0981 43.7256 45.0981C43.7256 45.0981 43.7256 45.0981 43.7256 45.0981C43.7256 45.0981 43.7256 45.0981 43.7256 45.0981C43.7256 45.0981 43.7256 45.0981 43.7256 45.0981C43.7256 45.0981 43.7256 45.0981 43.7256 45.0981C43.7256 45.0981 43.7256 45.0981 43.7256 45.0981V45.0981V45.0981V45.0981V45.0981C43.7256 45.0981 43.7256 45.0981 43.7256 45.0981C43.7256 45.0981 43.7256 45.0981 43.7256 45.0981C43.7256 45.0981 43.7256 45.0981 43.7256 45.0981C43.7256 45.0981 43.7256 45.0981 43.7256 45.0981C43.7256 45.0981 43.7256 45.0981 43.7256 45.0981C43.7256 45.0981 43.7256 45.0981 43.7256 45.0981C43.7256 45.0981 43.7256 45.0981 43.7256 45.0981V45.0981V45.0981V45.0981V45.0981C43.7256 45.0982 43.7256 45.0982 43.7256 45.0982C43.7256 45.0982 43.7256 45.0982 43.7256 45.0982C43.7256 45.0982 43.7256 45.0982 43.7256 45.0982C43.7256 45.0982 43.7256 45.0982 43.7256 45.0982C43.7256 45.0982 43.7256 45.0982 43.7256 45.0982C43.7256 45.0982 43.7256 45.0982 43.7256 45.0982C43.7256 45.0982 43.7256 45.0982 43.7256 45.0982V45.0982V45.0982V45.0982V45.0982C43.7256 45.0982 43.7256 45.0982 43.7256 45.0982C43.7256 45.0982 43.7256 45.0982 43.7256 45.0982C43.7256 45.0982 43.7256 45.0982 43.7256 45.0982C43.7256 45.0982 43.7256 45.0982 43.7256 45.0982C43.7256 45.0982 43.7256 45.0982 43.7256 45.0982C43.7256 45.0982 43.7256 45.0982 43.7256 45.0982C43.7256 45.0982 43.7256 45.0982 43.7256 45.0982V45.0982V45.0982V45.0982C43.7256 45.0982 43.7256 45.0982 43.7256 45.0982C43.7256 45.0982 43.7256 45.0982 43.7256 45.0982C43.7256 45.0982 43.7256 45.0982 43.7256 45.0982C43.7256 45.0982 43.7256 45.0982 43.7256 45.0982C43.7256 45.0982 43.7256 45.0982 43.7256 45.0982C43.7256 45.0982 43.7256 45.0982 43.7256 45.0983C43.7256 45.0983 43.7256 45.0983 43.7256 45.0983V45.0983V45.0983V45.0983C43.7256 45.0983 43.7256 45.0983 43.7256 45.0983C43.7256 45.0983 43.7256 45.0983 43.7256 45.0983C43.7256 45.0983 43.7256 45.0983 43.7256 45.0983C43.7256 45.0983 43.7256 45.0983 43.7256 45.0983C43.7256 45.0983 43.7256 45.0983 43.7256 45.0983C43.7256 45.0983 43.7256 45.0983 43.7256 45.0983V45.0983V45.0983H57.7256ZM59.817 47.1898C58.662 47.1898 57.7256 46.2534 57.7256 45.0983H43.7256C43.7256 53.9854 50.93 61.1898 59.817 61.1898V47.1898ZM61.9085 45.0983C61.9085 46.2534 60.9721 47.1898 59.817 47.1898V61.1898C68.7041 61.1898 75.9085 53.9854 75.9085 45.0983H61.9085ZM61.9085 45.0976V45.0976V45.0976C61.9085 45.0976 61.9085 45.0976 61.9085 45.0976C61.9085 45.0976 61.9085 45.0976 61.9085 45.0976C61.9085 45.0976 61.9085 45.0976 61.9085 45.0976C61.9085 45.0976 61.9085 45.0976 61.9085 45.0976C61.9085 45.0976 61.9085 45.0976 61.9085 45.0977C61.9085 45.0977 61.9085 45.0977 61.9085 45.0977V45.0977V45.0977V45.0977C61.9085 45.0977 61.9085 45.0977 61.9085 45.0977C61.9085 45.0977 61.9085 45.0977 61.9085 45.0977C61.9085 45.0977 61.9085 45.0977 61.9085 45.0977C61.9085 45.0977 61.9085 45.0977 61.9085 45.0977C61.9085 45.0977 61.9085 45.0977 61.9085 45.0977C61.9085 45.0977 61.9085 45.0977 61.9085 45.0977C61.9085 45.0977 61.9085 45.0977 61.9085 45.0977V45.0977V45.0977V45.0977C61.9085 45.0977 61.9085 45.0977 61.9085 45.0977C61.9085 45.0977 61.9085 45.0977 61.9085 45.0977C61.9085 45.0977 61.9085 45.0977 61.9085 45.0977C61.9085 45.0977 61.9085 45.0977 61.9085 45.0977C61.9085 45.0977 61.9085 45.0977 61.9085 45.0977C61.9085 45.0977 61.9085 45.0977 61.9085 45.0977C61.9085 45.0977 61.9085 45.0977 61.9085 45.0977V45.0977V45.0977V45.0977V45.0977C61.9085 45.0978 61.9085 45.0978 61.9085 45.0978C61.9085 45.0978 61.9085 45.0978 61.9085 45.0978C61.9085 45.0978 61.9085 45.0978 61.9085 45.0978C61.9085 45.0978 61.9085 45.0978 61.9085 45.0978C61.9085 45.0978 61.9085 45.0978 61.9085 45.0978C61.9085 45.0978 61.9085 45.0978 61.9085 45.0978C61.9085 45.0978 61.9085 45.0978 61.9085 45.0978V45.0978V45.0978V45.0978V45.0978C61.9085 45.0978 61.9085 45.0978 61.9085 45.0978C61.9085 45.0978 61.9085 45.0978 61.9085 45.0978C61.9085 45.0978 61.9085 45.0978 61.9085 45.0978C61.9085 45.0978 61.9085 45.0978 61.9085 45.0978C61.9085 45.0978 61.9085 45.0978 61.9085 45.0978C61.9085 45.0978 61.9085 45.0978 61.9085 45.0978C61.9085 45.0978 61.9085 45.0978 61.9085 45.0978V45.0978V45.0978V45.0978V45.0978C61.9085 45.0978 61.9085 45.0978 61.9085 45.0978C61.9085 45.0978 61.9085 45.0978 61.9085 45.0978C61.9085 45.0978 61.9085 45.0978 61.9085 45.0978C61.9085 45.0978 61.9085 45.0978 61.9085 45.0978C61.9085 45.0978 61.9085 45.0978 61.9085 45.0979C61.9085 45.0979 61.9085 45.0979 61.9085 45.0979C61.9085 45.0979 61.9085 45.0979 61.9085 45.0979C61.9085 45.0979 61.9085 45.0979 61.9085 45.0979V45.0979V45.0979V45.0979V45.0979C61.9085 45.0979 61.9085 45.0979 61.9085 45.0979C61.9085 45.0979 61.9085 45.0979 61.9085 45.0979C61.9085 45.0979 61.9085 45.0979 61.9085 45.0979C61.9085 45.0979 61.9085 45.0979 61.9085 45.0979C61.9085 45.0979 61.9085 45.0979 61.9085 45.0979C61.9085 45.0979 61.9085 45.0979 61.9085 45.0979C61.9085 45.0979 61.9085 45.0979 61.9085 45.0979C61.9085 45.0979 61.9085 45.0979 61.9085 45.0979V45.0979V45.0979V45.0979V45.0979C61.9085 45.0979 61.9085 45.0979 61.9085 45.0979C61.9085 45.0979 61.9085 45.0979 61.9085 45.0979C61.9085 45.0979 61.9085 45.0979 61.9085 45.0979C61.9085 45.0979 61.9085 45.0979 61.9085 45.0979C61.9085 45.0979 61.9085 45.0979 61.9085 45.0979C61.9085 45.0979 61.9085 45.0979 61.9085 45.0979C61.9085 45.0979 61.9085 45.0979 61.9085 45.0979C61.9085 45.0979 61.9085 45.0979 61.9085 45.098V45.098V45.098V45.098V45.098C61.9085 45.098 61.9085 45.098 61.9085 45.098C61.9085 45.098 61.9085 45.098 61.9085 45.098C61.9085 45.098 61.9085 45.098 61.9085 45.098C61.9085 45.098 61.9085 45.098 61.9085 45.098C61.9085 45.098 61.9085 45.098 61.9085 45.098C61.9085 45.098 61.9085 45.098 61.9085 45.098C61.9085 45.098 61.9085 45.098 61.9085 45.098C61.9085 45.098 61.9085 45.098 61.9085 45.098V45.098V45.098V45.098V45.098C61.9085 45.098 61.9085 45.098 61.9085 45.098C61.9085 45.098 61.9085 45.098 61.9085 45.098C61.9085 45.098 61.9085 45.098 61.9085 45.098C61.9085 45.098 61.9085 45.098 61.9085 45.098C61.9085 45.098 61.9085 45.098 61.9085 45.098C61.9085 45.098 61.9085 45.098 61.9085 45.098C61.9085 45.098 61.9085 45.098 61.9085 45.098C61.9085 45.098 61.9085 45.098 61.9085 45.098V45.098V45.0981V45.0981V45.0981C61.9085 45.0981 61.9085 45.0981 61.9085 45.0981C61.9085 45.0981 61.9085 45.0981 61.9085 45.0981C61.9085 45.0981 61.9085 45.0981 61.9085 45.0981C61.9085 45.0981 61.9085 45.0981 61.9085 45.0981C61.9085 45.0981 61.9085 45.0981 61.9085 45.0981C61.9085 45.0981 61.9085 45.0981 61.9085 45.0981C61.9085 45.0981 61.9085 45.0981 61.9085 45.0981C61.9085 45.0981 61.9085 45.0981 61.9085 45.0981V45.0981V45.0981V45.0981V45.0981C61.9085 45.0981 61.9085 45.0981 61.9085 45.0981C61.9085 45.0981 61.9085 45.0981 61.9085 45.0981C61.9085 45.0981 61.9085 45.0981 61.9085 45.0981C61.9085 45.0981 61.9085 45.0981 61.9085 45.0981C61.9085 45.0981 61.9085 45.0981 61.9085 45.0981C61.9085 45.0981 61.9085 45.0981 61.9085 45.0981C61.9085 45.0981 61.9085 45.0981 61.9085 45.0981V45.0981V45.0981V45.0981V45.0981C61.9085 45.0982 61.9085 45.0982 61.9085 45.0982C61.9085 45.0982 61.9085 45.0982 61.9085 45.0982C61.9085 45.0982 61.9085 45.0982 61.9085 45.0982C61.9085 45.0982 61.9085 45.0982 61.9085 45.0982C61.9085 45.0982 61.9085 45.0982 61.9085 45.0982C61.9085 45.0982 61.9085 45.0982 61.9085 45.0982C61.9085 45.0982 61.9085 45.0982 61.9085 45.0982V45.0982V45.0982V45.0982V45.0982C61.9085 45.0982 61.9085 45.0982 61.9085 45.0982C61.9085 45.0982 61.9085 45.0982 61.9085 45.0982C61.9085 45.0982 61.9085 45.0982 61.9085 45.0982C61.9085 45.0982 61.9085 45.0982 61.9085 45.0982C61.9085 45.0982 61.9085 45.0982 61.9085 45.0982C61.9085 45.0982 61.9085 45.0982 61.9085 45.0982C61.9085 45.0982 61.9085 45.0982 61.9085 45.0982V45.0982V45.0982V45.0982C61.9085 45.0982 61.9085 45.0982 61.9085 45.0982C61.9085 45.0982 61.9085 45.0982 61.9085 45.0982C61.9085 45.0982 61.9085 45.0982 61.9085 45.0982C61.9085 45.0982 61.9085 45.0982 61.9085 45.0982C61.9085 45.0982 61.9085 45.0982 61.9085 45.0982C61.9085 45.0982 61.9085 45.0982 61.9085 45.0983C61.9085 45.0983 61.9085 45.0983 61.9085 45.0983V45.0983V45.0983V45.0983C61.9085 45.0983 61.9085 45.0983 61.9085 45.0983C61.9085 45.0983 61.9085 45.0983 61.9085 45.0983C61.9085 45.0983 61.9085 45.0983 61.9085 45.0983C61.9085 45.0983 61.9085 45.0983 61.9085 45.0983C61.9085 45.0983 61.9085 45.0983 61.9085 45.0983C61.9085 45.0983 61.9085 45.0983 61.9085 45.0983V45.0983V45.0983H75.9085V45.0983V45.0983C75.9085 45.0983 75.9085 45.0983 75.9085 45.0983C75.9085 45.0983 75.9085 45.0983 75.9085 45.0983C75.9085 45.0983 75.9085 45.0983 75.9085 45.0983C75.9085 45.0983 75.9085 45.0983 75.9085 45.0983C75.9085 45.0983 75.9085 45.0983 75.9085 45.0983C75.9085 45.0983 75.9085 45.0983 75.9085 45.0983V45.0983V45.0983V45.0983C75.9085 45.0983 75.9085 45.0983 75.9085 45.0983C75.9085 45.0982 75.9085 45.0982 75.9085 45.0982C75.9085 45.0982 75.9085 45.0982 75.9085 45.0982C75.9085 45.0982 75.9085 45.0982 75.9085 45.0982C75.9085 45.0982 75.9085 45.0982 75.9085 45.0982C75.9085 45.0982 75.9085 45.0982 75.9085 45.0982C75.9085 45.0982 75.9085 45.0982 75.9085 45.0982V45.0982V45.0982V45.0982C75.9085 45.0982 75.9085 45.0982 75.9085 45.0982C75.9085 45.0982 75.9085 45.0982 75.9085 45.0982C75.9085 45.0982 75.9085 45.0982 75.9085 45.0982C75.9085 45.0982 75.9085 45.0982 75.9085 45.0982C75.9085 45.0982 75.9085 45.0982 75.9085 45.0982C75.9085 45.0982 75.9085 45.0982 75.9085 45.0982C75.9085 45.0982 75.9085 45.0982 75.9085 45.0982V45.0982V45.0982V45.0982V45.0982C75.9085 45.0982 75.9085 45.0982 75.9085 45.0982C75.9085 45.0982 75.9085 45.0982 75.9085 45.0982C75.9085 45.0982 75.9085 45.0982 75.9085 45.0982C75.9085 45.0982 75.9085 45.0982 75.9085 45.0982C75.9085 45.0982 75.9085 45.0982 75.9085 45.0982C75.9085 45.0982 75.9085 45.0982 75.9085 45.0982C75.9085 45.0982 75.9085 45.0982 75.9085 45.0981V45.0981V45.0981V45.0981V45.0981C75.9085 45.0981 75.9085 45.0981 75.9085 45.0981C75.9085 45.0981 75.9085 45.0981 75.9085 45.0981C75.9085 45.0981 75.9085 45.0981 75.9085 45.0981C75.9085 45.0981 75.9085 45.0981 75.9085 45.0981C75.9085 45.0981 75.9085 45.0981 75.9085 45.0981C75.9085 45.0981 75.9085 45.0981 75.9085 45.0981C75.9085 45.0981 75.9085 45.0981 75.9085 45.0981V45.0981V45.0981V45.0981V45.0981C75.9085 45.0981 75.9085 45.0981 75.9085 45.0981C75.9085 45.0981 75.9085 45.0981 75.9085 45.0981C75.9085 45.0981 75.9085 45.0981 75.9085 45.0981C75.9085 45.0981 75.9085 45.0981 75.9085 45.0981C75.9085 45.0981 75.9085 45.0981 75.9085 45.0981C75.9085 45.0981 75.9085 45.0981 75.9085 45.0981C75.9085 45.0981 75.9085 45.0981 75.9085 45.0981C75.9085 45.0981 75.9085 45.0981 75.9085 45.0981V45.0981V45.0981V45.098V45.098C75.9085 45.098 75.9085 45.098 75.9085 45.098C75.9085 45.098 75.9085 45.098 75.9085 45.098C75.9085 45.098 75.9085 45.098 75.9085 45.098C75.9085 45.098 75.9085 45.098 75.9085 45.098C75.9085 45.098 75.9085 45.098 75.9085 45.098C75.9085 45.098 75.9085 45.098 75.9085 45.098C75.9085 45.098 75.9085 45.098 75.9085 45.098C75.9085 45.098 75.9085 45.098 75.9085 45.098V45.098V45.098V45.098V45.098C75.9085 45.098 75.9085 45.098 75.9085 45.098C75.9085 45.098 75.9085 45.098 75.9085 45.098C75.9085 45.098 75.9085 45.098 75.9085 45.098C75.9085 45.098 75.9085 45.098 75.9085 45.098C75.9085 45.098 75.9085 45.098 75.9085 45.098C75.9085 45.098 75.9085 45.098 75.9085 45.098C75.9085 45.098 75.9085 45.098 75.9085 45.098C75.9085 45.098 75.9085 45.098 75.9085 45.098V45.098V45.098V45.098V45.098C75.9085 45.0979 75.9085 45.0979 75.9085 45.0979C75.9085 45.0979 75.9085 45.0979 75.9085 45.0979C75.9085 45.0979 75.9085 45.0979 75.9085 45.0979C75.9085 45.0979 75.9085 45.0979 75.9085 45.0979C75.9085 45.0979 75.9085 45.0979 75.9085 45.0979C75.9085 45.0979 75.9085 45.0979 75.9085 45.0979C75.9085 45.0979 75.9085 45.0979 75.9085 45.0979C75.9085 45.0979 75.9085 45.0979 75.9085 45.0979V45.0979V45.0979V45.0979V45.0979C75.9085 45.0979 75.9085 45.0979 75.9085 45.0979C75.9085 45.0979 75.9085 45.0979 75.9085 45.0979C75.9085 45.0979 75.9085 45.0979 75.9085 45.0979C75.9085 45.0979 75.9085 45.0979 75.9085 45.0979C75.9085 45.0979 75.9085 45.0979 75.9085 45.0979C75.9085 45.0979 75.9085 45.0979 75.9085 45.0979C75.9085 45.0979 75.9085 45.0979 75.9085 45.0979C75.9085 45.0979 75.9085 45.0979 75.9085 45.0979V45.0979V45.0979V45.0979V45.0979C75.9085 45.0979 75.9085 45.0979 75.9085 45.0979C75.9085 45.0979 75.9085 45.0979 75.9085 45.0979C75.9085 45.0979 75.9085 45.0979 75.9085 45.0979C75.9085 45.0978 75.9085 45.0978 75.9085 45.0978C75.9085 45.0978 75.9085 45.0978 75.9085 45.0978C75.9085 45.0978 75.9085 45.0978 75.9085 45.0978C75.9085 45.0978 75.9085 45.0978 75.9085 45.0978C75.9085 45.0978 75.9085 45.0978 75.9085 45.0978V45.0978V45.0978V45.0978V45.0978C75.9085 45.0978 75.9085 45.0978 75.9085 45.0978C75.9085 45.0978 75.9085 45.0978 75.9085 45.0978C75.9085 45.0978 75.9085 45.0978 75.9085 45.0978C75.9085 45.0978 75.9085 45.0978 75.9085 45.0978C75.9085 45.0978 75.9085 45.0978 75.9085 45.0978C75.9085 45.0978 75.9085 45.0978 75.9085 45.0978C75.9085 45.0978 75.9085 45.0978 75.9085 45.0978V45.0978V45.0978V45.0978V45.0978C75.9085 45.0978 75.9085 45.0978 75.9085 45.0978C75.9085 45.0978 75.9085 45.0978 75.9085 45.0978C75.9085 45.0978 75.9085 45.0978 75.9085 45.0978C75.9085 45.0978 75.9085 45.0978 75.9085 45.0978C75.9085 45.0978 75.9085 45.0978 75.9085 45.0978C75.9085 45.0978 75.9085 45.0978 75.9085 45.0978C75.9085 45.0978 75.9085 45.0978 75.9085 45.0977V45.0977V45.0977V45.0977V45.0977C75.9085 45.0977 75.9085 45.0977 75.9085 45.0977C75.9085 45.0977 75.9085 45.0977 75.9085 45.0977C75.9085 45.0977 75.9085 45.0977 75.9085 45.0977C75.9085 45.0977 75.9085 45.0977 75.9085 45.0977C75.9085 45.0977 75.9085 45.0977 75.9085 45.0977C75.9085 45.0977 75.9085 45.0977 75.9085 45.0977C75.9085 45.0977 75.9085 45.0977 75.9085 45.0977V45.0977V45.0977V45.0977C75.9085 45.0977 75.9085 45.0977 75.9085 45.0977C75.9085 45.0977 75.9085 45.0977 75.9085 45.0977C75.9085 45.0977 75.9085 45.0977 75.9085 45.0977C75.9085 45.0977 75.9085 45.0977 75.9085 45.0977C75.9085 45.0977 75.9085 45.0977 75.9085 45.0977C75.9085 45.0977 75.9085 45.0977 75.9085 45.0977C75.9085 45.0977 75.9085 45.0977 75.9085 45.0977V45.0977V45.0977V45.0977C75.9085 45.0977 75.9085 45.0977 75.9085 45.0977C75.9085 45.0976 75.9085 45.0976 75.9085 45.0976C75.9085 45.0976 75.9085 45.0976 75.9085 45.0976C75.9085 45.0976 75.9085 45.0976 75.9085 45.0976C75.9085 45.0976 75.9085 45.0976 75.9085 45.0976C75.9085 45.0976 75.9085 45.0976 75.9085 45.0976V45.0976V45.0976H61.9085ZM73.6707 38.0976H68.9085V52.0976H73.6707V38.0976ZM71 40.7684C71 39.2934 72.1957 38.0976 73.6707 38.0976V52.0976C79.9277 52.0976 85 47.0253 85 40.7684H71ZM71 29.0793V40.7684H85V29.0793H71ZM73.6707 31.7501C72.1957 31.7501 71 30.5543 71 29.0793H85C85 22.8223 79.9277 17.7501 73.6707 17.7501V31.7501ZM69.0207 31.7501H73.6707V17.7501H69.0207V31.7501ZM60.8311 26.2484C62.1319 29.3888 65.2433 31.7501 69.0207 31.7501V17.7501C71.2793 17.7501 73.0459 19.1538 73.7655 20.8909L60.8311 26.2484ZM56.5301 19.8114C58.3725 21.6539 59.834 23.8412 60.8312 26.2485L73.7655 20.8909C72.0648 16.7851 69.572 13.0544 66.4296 9.91193L56.5301 19.8114ZM50.093 15.5103C52.5003 16.5075 54.6876 17.969 56.5301 19.8114L66.4296 9.91194C63.2871 6.76946 59.5564 4.27672 55.4506 2.57603L50.093 15.5103ZM42.5 14C45.1056 14 47.6858 14.5132 50.093 15.5103L55.4506 2.57603C51.3448 0.875335 46.9442 0 42.5 0V14ZM34.907 15.5103C37.3143 14.5132 39.8944 14 42.5 14V0C38.0559 0 33.6553 0.875335 29.5495 2.57603L34.907 15.5103ZM28.47 19.8114C30.3125 17.969 32.4998 16.5075 34.907 15.5103L29.5495 2.57603C25.4436 4.27672 21.713 6.76947 18.5705 9.91193L28.47 19.8114ZM24.1689 26.2485C25.166 23.8412 26.6275 21.6539 28.47 19.8114L18.5705 9.91194C15.428 13.0544 12.9353 16.7851 11.2346 20.8909L24.1689 26.2485Z" fill="black" mask="url(#path-6-outside-1)"/>
<rect x="38" y="9" width="9" height="24" fill="#FF0000"/>
</svg>
