<svg width="66" height="66" viewBox="0 0 66 66" fill="none" xmlns="http://www.w3.org/2000/svg">
<path d="M28.1098 53.484L26.0526 50.6525L28.1098 53.484L32.1183 50.5717C32.6441 50.1897 33.3559 50.1897 33.8817 50.5717L37.8902 53.484C44.5517 58.3239 53.5148 51.8119 50.9703 43.9807L49.4392 39.2685C49.2384 38.6504 49.4584 37.9734 49.9841 37.5914L53.9926 34.6791C60.6542 29.8392 57.2306 19.3024 48.9964 19.3024H44.0417C43.3918 19.3024 42.8159 18.884 42.6151 18.266L41.084 13.5537C38.5395 5.72255 27.4605 5.72257 24.916 13.5537L23.3849 18.266C23.1841 18.884 22.6082 19.3024 21.9583 19.3024H17.0036C8.7694 19.3024 5.34582 29.8392 12.0074 34.6791L16.0159 37.5914C16.5416 37.9734 16.7616 38.6504 16.5608 39.2685L15.0297 43.9807C12.4852 51.8119 21.4483 58.3239 28.1098 53.484Z" fill="#FFE920" stroke="black" stroke-width="7"/>
</svg>
