<svg width="111" height="88" viewBox="0 0 111 88" fill="none" xmlns="http://www.w3.org/2000/svg">
<mask id="path-1-outside-1" maskUnits="userSpaceOnUse" x="4.17233e-07" y="-0.374023" width="52" height="69" fill="black">
<rect fill="white" x="4.17233e-07" y="-0.374023" width="52" height="69"/>
<path fill-rule="evenodd" clip-rule="evenodd" d="M41.9405 7.65332C41.9443 7.65276 41.9477 7.65101 41.9504 7.64831L41.9703 7.62849C41.976 7.62271 41.9858 7.62764 41.9847 7.63573C41.9838 7.64136 41.9887 7.64619 41.9943 7.64536C42.0024 7.64417 42.0073 7.65397 42.0015 7.65975L41.9817 7.67957C41.979 7.68227 41.9773 7.68576 41.9767 7.68953L41.3488 11.9348C40.5105 17.6029 36.0598 22.0536 30.3917 22.8919L28.299 23.2014L35.2889 26.5228C47.7642 32.4506 47.7642 50.2047 35.2889 56.1326L25.9593 60.5657C25.9429 60.5735 25.9325 60.59 25.9325 60.6082C25.9325 60.6428 25.8964 60.6656 25.8651 60.6508L25.848 60.6426C25.832 60.635 25.8134 60.635 25.7973 60.6426L25.7803 60.6508C25.749 60.6656 25.7129 60.6428 25.7129 60.6082C25.7129 60.59 25.7025 60.5735 25.686 60.5657L16.3565 56.1326C3.88118 50.2047 3.88118 32.4506 16.3565 26.5228L25.686 22.0897C25.7025 22.0819 25.7129 22.0653 25.7129 22.0472C25.7129 22.0125 25.749 21.9898 25.7802 22.0046L25.7973 22.0127C25.8134 22.0203 25.832 22.0203 25.848 22.0127L25.8651 22.0046C25.8964 21.9898 25.9325 22.0125 25.9325 22.0472C25.9325 22.0653 25.9429 22.0819 25.9593 22.0897L26.2929 22.2482L26.7381 19.2383C27.5764 13.5703 32.0271 9.11954 37.6952 8.28121L41.9405 7.65332Z"/>
</mask>
<path d="M41.9504 7.64831L37.001 2.69822L36.9994 2.69982L41.9504 7.64831ZM41.9405 7.65332L42.9647 14.578L42.9649 14.578L41.9405 7.65332ZM41.9703 7.62849L46.9197 12.5786L46.9201 12.5781L41.9703 7.62849ZM41.9847 7.63573L48.9095 8.65878L48.9096 8.65834L41.9847 7.63573ZM41.9943 7.64536L43.0181 14.5701L43.0182 14.5701L41.9943 7.64536ZM42.0015 7.65975L46.9514 12.6094L46.9514 12.6094L42.0015 7.65975ZM41.9817 7.67957L46.9292 12.6315L46.9316 12.6292L41.9817 7.67957ZM41.9767 7.68953L48.9014 8.71371L48.9015 8.71262L41.9767 7.68953ZM41.3488 11.9348L48.2735 12.959V12.959L41.3488 11.9348ZM30.3917 22.8919L31.4158 29.8166L30.3917 22.8919ZM28.299 23.2014L27.2749 16.2768C24.2265 16.7276 21.8315 19.119 21.3759 22.1666C20.9204 25.2143 22.5115 28.2014 25.2948 29.524L28.299 23.2014ZM35.2889 26.5228L32.2847 32.8453H32.2847L35.2889 26.5228ZM35.2889 56.1326L32.2847 49.81H32.2847L35.2889 56.1326ZM25.9593 60.5657L22.9551 54.2431L22.9549 54.2432L25.9593 60.5657ZM25.8651 60.6508L28.8697 54.3284L28.8691 54.3281L25.8651 60.6508ZM25.848 60.6426L22.8439 66.9652L22.8441 66.9653L25.848 60.6426ZM25.7973 60.6426L22.7929 54.3202L22.7928 54.3202L25.7973 60.6426ZM25.7803 60.6508L28.784 66.9735L28.7848 66.9732L25.7803 60.6508ZM25.686 60.5657L22.6818 66.8882L22.6819 66.8882L25.686 60.5657ZM16.3565 56.1326L19.3607 49.81H19.3607L16.3565 56.1326ZM16.3565 26.5228L13.3522 20.2003H13.3522L16.3565 26.5228ZM25.686 22.0897L28.6903 28.4122L28.6905 28.4121L25.686 22.0897ZM25.7802 22.0046L28.7848 15.6822L28.7845 15.6821L25.7802 22.0046ZM25.7973 22.0127L22.7928 28.3351L22.7935 28.3354L25.7973 22.0127ZM25.848 22.0127L28.8522 28.3353L28.8523 28.3353L25.848 22.0127ZM25.8651 22.0046L28.8694 28.3271L28.8695 28.3271L25.8651 22.0046ZM25.9593 22.0897L28.9636 15.7672L28.9632 15.767L25.9593 22.0897ZM26.2929 22.2482L23.2887 28.5707C25.2931 29.5232 27.6305 29.4687 29.5884 28.4239C31.5464 27.3791 32.8929 25.4678 33.2176 23.2724L26.2929 22.2482ZM26.7381 19.2383L33.6628 20.2625V20.2625L26.7381 19.2383ZM37.6952 8.28121L36.671 1.35654L37.6952 8.28121ZM36.9994 2.69982C38.0602 1.63857 39.4337 0.947972 40.9161 0.728679L42.9649 14.578C44.4548 14.3576 45.8353 13.6634 46.9014 12.5968L36.9994 2.69982ZM37.0209 2.6784L37.001 2.69822L46.8998 12.5984L46.9197 12.5786L37.0209 2.6784ZM48.9096 8.65834C49.8952 1.98401 41.7985 -2.09947 37.0204 2.67885L46.9201 12.5781C42.1536 17.3449 34.0765 13.2713 35.0598 6.61312L48.9096 8.65834ZM40.9705 0.720638C45.6121 0.0343804 49.5944 4.02277 48.9095 8.65878L35.0598 6.61268C34.3732 11.2599 38.3652 15.258 43.0181 14.5701L40.9705 0.720638ZM46.9514 12.6094C51.7259 7.83466 47.6506 -0.267084 40.9704 0.720649L43.0182 14.5701C36.3542 15.5554 32.2888 7.47329 37.0516 2.71014L46.9514 12.6094ZM46.9316 12.6292L46.9514 12.6094L37.0517 2.71012L37.0318 2.72994L46.9316 12.6292ZM48.9015 8.71262C48.6825 10.1954 47.9918 11.57 46.9292 12.6315L37.0342 2.72762C35.9663 3.79458 35.272 5.17617 35.0519 6.66644L48.9015 8.71262ZM48.2735 12.959L48.9014 8.71371L35.052 6.66535L34.4241 10.9106L48.2735 12.959ZM31.4158 29.8166C40.1362 28.5268 46.9837 21.6794 48.2735 12.959L34.4241 10.9106C34.0373 13.5264 31.9833 15.5804 29.3675 15.9673L31.4158 29.8166ZM29.3232 30.1261L31.4158 29.8166L29.3675 15.9673L27.2749 16.2768L29.3232 30.1261ZM38.2932 20.2003L31.3033 16.8789L25.2948 29.524L32.2847 32.8453L38.2932 20.2003ZM38.2932 62.4551C56.0961 53.9958 56.0961 28.6596 38.2932 20.2003L32.2847 32.8453C39.4323 36.2416 39.4323 46.4137 32.2847 49.81L38.2932 62.4551ZM28.9636 66.8882L38.2932 62.4551L32.2847 49.81L22.9551 54.2431L28.9636 66.8882ZM32.9325 60.6082C32.9325 63.2921 31.3877 65.7362 28.9638 66.8881L22.9549 54.2432C20.4981 55.4107 18.9325 57.8879 18.9325 60.6082H32.9325ZM22.8606 66.9731C27.5372 69.1956 32.9325 65.7849 32.9325 60.6082H18.9325C18.9325 55.5008 24.2556 52.1356 28.8697 54.3284L22.8606 66.9731ZM22.8441 66.9653L22.8612 66.9734L28.8691 54.3281L28.852 54.32L22.8441 66.9653ZM28.8018 66.9651C26.9166 67.8609 24.7287 67.8608 22.8439 66.9652L28.8522 54.3201C26.9353 53.4093 24.7101 53.4091 22.7929 54.3202L28.8018 66.9651ZM28.7848 66.9732L28.8019 66.965L22.7928 54.3202L22.7757 54.3284L28.7848 66.9732ZM18.7129 60.6082C18.7129 65.7855 24.1085 69.1948 28.784 66.9735L22.7765 54.328C27.3895 52.1365 32.7129 55.5001 32.7129 60.6082H18.7129ZM22.6819 66.8882C20.2578 65.7364 18.7129 63.2923 18.7129 60.6082H32.7129C32.7129 57.8878 31.1471 55.4105 28.6902 54.2431L22.6819 66.8882ZM13.3522 62.4551L22.6818 66.8882L28.6903 54.2431L19.3607 49.81L13.3522 62.4551ZM13.3522 20.2003C-4.45074 28.6596 -4.45074 53.9958 13.3522 62.4551L19.3607 49.81C12.2131 46.4137 12.2131 36.2416 19.3607 32.8453L13.3522 20.2003ZM22.6818 15.7672L13.3522 20.2003L19.3607 32.8453L28.6903 28.4122L22.6818 15.7672ZM18.7129 22.0472C18.7129 19.3632 20.2577 16.9191 22.6816 15.7673L28.6905 28.4121C31.1473 27.2447 32.7129 24.7674 32.7129 22.0472H18.7129ZM28.7845 15.6821C24.1085 13.4602 18.7129 16.87 18.7129 22.0472H32.7129C32.7129 27.1551 27.3895 30.5193 22.776 28.3271L28.7845 15.6821ZM28.8019 15.6903L28.7848 15.6822L22.7757 28.327L22.7928 28.3351L28.8019 15.6903ZM22.8439 15.6901C24.7289 14.7945 26.9166 14.7946 28.8012 15.69L22.7935 28.3354C24.7102 29.2461 26.9351 29.2462 28.8522 28.3353L22.8439 15.6901ZM22.8609 15.6821L22.8438 15.6902L28.8523 28.3353L28.8694 28.3271L22.8609 15.6821ZM32.9325 22.0472C32.9325 16.8703 27.537 13.46 22.8607 15.6821L28.8695 28.3271C24.2557 30.5195 18.9325 27.1548 18.9325 22.0472H32.9325ZM28.9632 15.767C31.3881 16.919 32.9325 19.3638 32.9325 22.0472H18.9325C18.9325 24.7669 20.4977 27.2447 22.9555 28.4124L28.9632 15.767ZM29.2972 15.9257L28.9636 15.7672L22.9551 28.4122L23.2887 28.5707L29.2972 15.9257ZM19.8134 18.2142L19.3682 21.224L33.2176 23.2724L33.6628 20.2625L19.8134 18.2142ZM36.671 1.35654C27.9506 2.64631 21.1032 9.49377 19.8134 18.2142L33.6628 20.2625C34.0496 17.6467 36.1036 15.5928 38.7194 15.2059L36.671 1.35654ZM40.9163 0.728651L36.671 1.35654L38.7194 15.2059L42.9647 14.578L40.9163 0.728651Z" fill="black" mask="url(#path-1-outside-1)"/>
<path fill-rule="evenodd" clip-rule="evenodd" d="M41.9504 7.64821C41.9477 7.6509 41.9443 7.65266 41.9405 7.65321L37.6952 8.2811C32.0271 9.11943 27.5764 13.5702 26.7381 19.2382L26.1102 23.4835C26.1096 23.4873 26.1079 23.4908 26.1052 23.4935L26.0854 23.5133C26.0796 23.5191 26.0845 23.5289 26.0926 23.5277C26.0982 23.5268 26.1031 23.5317 26.1022 23.5373C26.101 23.5454 26.1108 23.5503 26.1166 23.5445L26.1364 23.5247C26.1391 23.522 26.1426 23.5203 26.1464 23.5197L30.3917 22.8918C36.0598 22.0535 40.5105 17.6028 41.3488 11.9347L41.9767 7.68942C41.9773 7.68565 41.979 7.68216 41.9817 7.67947L42.0015 7.65965C42.0073 7.65387 42.0024 7.64406 41.9943 7.64526C41.9887 7.64609 41.9838 7.64125 41.9847 7.63562C41.9859 7.62754 41.976 7.62261 41.9703 7.62839L41.9504 7.64821Z" fill="#1CC64B"/>
<path fill-rule="evenodd" clip-rule="evenodd" d="M25.7129 22.047C25.7129 22.0652 25.7025 22.0818 25.686 22.0896L16.3565 26.5227C3.88118 32.4505 3.88118 50.2046 16.3565 56.1325L25.686 60.5656C25.7025 60.5734 25.7129 60.5899 25.7129 60.6081C25.7129 60.6427 25.749 60.6655 25.7803 60.6507L25.7973 60.6425C25.8134 60.6349 25.832 60.6349 25.848 60.6425L25.8651 60.6507C25.8964 60.6655 25.9325 60.6427 25.9325 60.6081C25.9325 60.5899 25.9429 60.5734 25.9593 60.5656L35.2889 56.1325C47.7642 50.2046 47.7642 32.4505 35.2889 26.5227L25.9593 22.0896C25.9429 22.0818 25.9325 22.0652 25.9325 22.047C25.9325 22.0124 25.8964 21.9896 25.8651 22.0045L25.848 22.0126C25.832 22.0202 25.8134 22.0202 25.7973 22.0126L25.7802 22.0045C25.749 21.9896 25.7129 22.0124 25.7129 22.047Z" fill="#FFE920"/>
<mask id="path-5-outside-2" maskUnits="userSpaceOnUse" x="59" y="1.62598" width="52" height="69" fill="black">
<rect fill="white" x="59" y="1.62598" width="52" height="69"/>
<path fill-rule="evenodd" clip-rule="evenodd" d="M100.94 9.65332C100.944 9.65276 100.948 9.65101 100.95 9.64831L100.97 9.62849C100.976 9.62271 100.986 9.62764 100.985 9.63573C100.984 9.64136 100.989 9.64619 100.994 9.64536C101.002 9.64417 101.007 9.65397 101.002 9.65975L100.982 9.67957C100.979 9.68227 100.977 9.68576 100.977 9.68953L100.349 13.9348C99.5105 19.6029 95.0598 24.0536 89.3917 24.8919L87.299 25.2014L94.2889 28.5228C106.764 34.4506 106.764 52.2047 94.2889 58.1326L84.9593 62.5657C84.9429 62.5735 84.9325 62.59 84.9325 62.6082C84.9325 62.6428 84.8964 62.6656 84.8651 62.6508L84.848 62.6426C84.832 62.635 84.8134 62.635 84.7973 62.6426L84.7803 62.6508C84.749 62.6656 84.7129 62.6428 84.7129 62.6082C84.7129 62.59 84.7025 62.5735 84.686 62.5657L75.3565 58.1326C62.8812 52.2047 62.8812 34.4506 75.3565 28.5228L84.686 24.0897C84.7025 24.0819 84.7129 24.0653 84.7129 24.0472C84.7129 24.0125 84.749 23.9898 84.7802 24.0046L84.7973 24.0127C84.8134 24.0203 84.832 24.0203 84.848 24.0127L84.8651 24.0046C84.8964 23.9898 84.9325 24.0125 84.9325 24.0472C84.9325 24.0653 84.9429 24.0819 84.9593 24.0897L85.2929 24.2482L85.7381 21.2383C86.5764 15.5703 91.0271 11.1195 96.6952 10.2812L100.94 9.65332Z"/>
</mask>
<path d="M100.95 9.64831L96.001 4.69822L95.9994 4.69982L100.95 9.64831ZM100.94 9.65332L101.965 16.578L101.965 16.578L100.94 9.65332ZM100.97 9.62849L105.92 14.5786L105.92 14.5781L100.97 9.62849ZM100.985 9.63573L107.909 10.6588L107.91 10.6583L100.985 9.63573ZM100.994 9.64536L102.018 16.5701L102.018 16.5701L100.994 9.64536ZM101.002 9.65975L105.951 14.6094L105.951 14.6094L101.002 9.65975ZM100.982 9.67957L105.929 14.6315L105.932 14.6292L100.982 9.67957ZM100.977 9.68953L107.901 10.7137L107.902 10.7126L100.977 9.68953ZM100.349 13.9348L107.273 14.959V14.959L100.349 13.9348ZM89.3917 24.8919L88.3675 17.9673L88.3675 17.9673L89.3917 24.8919ZM87.299 25.2014L86.2748 18.2768C83.2265 18.7276 80.8315 21.119 80.3759 24.1666C79.9204 27.2143 81.5115 30.2014 84.2948 31.524L87.299 25.2014ZM94.2889 28.5228L97.2932 22.2003L94.2889 28.5228ZM94.2889 58.1326L91.2847 51.81L94.2889 58.1326ZM84.9593 62.5657L81.9551 56.2431L81.9549 56.2432L84.9593 62.5657ZM84.8651 62.6508L87.8698 56.3284L87.8688 56.3279L84.8651 62.6508ZM84.848 62.6426L81.8436 68.9651L81.8444 68.9654L84.848 62.6426ZM84.7973 62.6426L87.8016 68.9652L87.8018 68.9651L84.7973 62.6426ZM84.7803 62.6508L87.7842 68.9734L87.7845 68.9733L84.7803 62.6508ZM84.686 62.5657L87.6905 56.2432L87.6903 56.2431L84.686 62.5657ZM75.3565 58.1326L72.3522 64.4551H72.3522L75.3565 58.1326ZM75.3565 28.5228L72.3522 22.2003L75.3565 28.5228ZM84.686 24.0897L81.6822 17.767L81.6818 17.7672L84.686 24.0897ZM84.7802 24.0046L81.776 30.3271H81.776L84.7802 24.0046ZM84.7973 24.0127L87.8018 17.6903L87.8016 17.6902L84.7973 24.0127ZM84.848 24.0127L81.8438 17.6902L81.8436 17.6903L84.848 24.0127ZM84.8651 24.0046L81.8609 17.6821L81.8609 17.6821L84.8651 24.0046ZM84.9593 24.0897L87.9636 17.7672L87.9635 17.7671L84.9593 24.0897ZM85.2929 24.2482L82.2887 30.5707C84.2931 31.5232 86.6305 31.4687 88.5884 30.4239C90.5464 29.3791 91.8929 27.4678 92.2176 25.2724L85.2929 24.2482ZM85.7381 21.2383L92.6628 22.2625L85.7381 21.2383ZM96.6952 10.2812L95.671 3.35654L96.6952 10.2812ZM95.9994 4.69982C97.0602 3.63857 98.4337 2.94797 99.9161 2.72868L101.965 16.578C103.455 16.3576 104.835 15.6634 105.901 14.5968L95.9994 4.69982ZM96.0209 4.6784L96.001 4.69822L105.9 14.5984L105.92 14.5786L96.0209 4.6784ZM107.91 10.6583C108.895 3.98401 100.799 -0.0994686 96.0204 4.67885L105.92 14.5781C101.154 19.3449 93.0765 15.2713 94.0598 8.61312L107.91 10.6583ZM99.9705 2.72064C104.612 2.03438 108.594 6.02277 107.909 10.6588L94.0598 8.61268C93.3732 13.2599 97.3652 17.258 102.018 16.5701L99.9705 2.72064ZM105.951 14.6094C110.726 9.83466 106.651 1.73291 99.9704 2.72065L102.018 16.5701C95.3542 17.5554 91.2888 9.47329 96.0516 4.71014L105.951 14.6094ZM105.932 14.6292L105.951 14.6094L96.0517 4.71012L96.0318 4.72994L105.932 14.6292ZM107.902 10.7126C107.682 12.1954 106.992 13.57 105.929 14.6315L96.0342 4.72762C94.9663 5.79458 94.272 7.17617 94.0519 8.66644L107.902 10.7126ZM107.273 14.959L107.901 10.7137L94.052 8.66535L93.4241 12.9106L107.273 14.959ZM90.4158 31.8166C99.1362 30.5268 105.984 23.6794 107.273 14.959L93.4241 12.9106C93.0373 15.5264 90.9833 17.5804 88.3675 17.9673L90.4158 31.8166ZM88.3232 32.1261L90.4159 31.8166L88.3675 17.9673L86.2748 18.2768L88.3232 32.1261ZM97.2932 22.2003L90.3033 18.8789L84.2948 31.524L91.2847 34.8453L97.2932 22.2003ZM97.2932 64.4551C115.096 55.9958 115.096 30.6596 97.2932 22.2003L91.2847 34.8453C98.4323 38.2416 98.4323 48.4137 91.2847 51.81L97.2932 64.4551ZM87.9636 68.8882L97.2932 64.4551L91.2847 51.81L81.9551 56.2431L87.9636 68.8882ZM91.9325 62.6082C91.9325 65.2921 90.3877 67.7362 87.9638 68.8881L81.9549 56.2432C79.4981 57.4107 77.9325 59.8879 77.9325 62.6082H91.9325ZM81.8604 68.9731C86.5369 71.1956 91.9325 67.785 91.9325 62.6082H77.9325C77.9325 57.5006 83.2559 54.1356 87.8698 56.3284L81.8604 68.9731ZM81.8444 68.9654L81.8615 68.9736L87.8688 56.3279L87.8517 56.3198L81.8444 68.9654ZM87.8018 68.9651C85.9167 69.8609 83.7286 69.8609 81.8436 68.9651L87.8525 56.3202C85.9354 55.4092 83.71 55.4092 81.7929 56.3202L87.8018 68.9651ZM87.7845 68.9733L87.8016 68.9652L81.7931 56.3201L81.776 56.3282L87.7845 68.9733ZM77.7129 62.6082C77.7129 67.7856 83.1086 71.1949 87.7842 68.9734L81.7763 56.3281C86.3894 54.1364 91.7129 57.5001 91.7129 62.6082H77.7129ZM81.6816 68.8881C79.2577 67.7362 77.7129 65.2921 77.7129 62.6082H91.7129C91.7129 59.8879 90.1473 57.4107 87.6905 56.2432L81.6816 68.8881ZM72.3522 64.4551L81.6818 68.8882L87.6903 56.2431L78.3607 51.81L72.3522 64.4551ZM72.3522 22.2003C54.5493 30.6596 54.5493 55.9957 72.3522 64.4551L78.3607 51.81C71.2131 48.4137 71.2131 38.2416 78.3607 34.8453L72.3522 22.2003ZM81.6818 17.7672L72.3522 22.2003L78.3607 34.8453L87.6903 30.4122L81.6818 17.7672ZM77.7129 24.0472C77.7129 21.3633 79.2577 18.9188 81.6822 17.767L87.6899 30.4124C90.1472 29.245 91.7129 26.7674 91.7129 24.0472H77.7129ZM87.7845 17.6821C83.1085 15.4602 77.7129 18.87 77.7129 24.0472H91.7129C91.7129 29.1551 86.3895 32.5193 81.776 30.3271L87.7845 17.6821ZM87.8016 17.6902L87.7845 17.6821L81.776 30.3271L81.7931 30.3353L87.8016 17.6902ZM81.8436 17.6903C83.7286 16.7945 85.9167 16.7945 87.8018 17.6903L81.7929 30.3352C83.71 31.2462 85.9353 31.2462 87.8525 30.3352L81.8436 17.6903ZM81.8609 17.6821L81.8438 17.6902L87.8523 30.3353L87.8694 30.3271L81.8609 17.6821ZM91.9325 24.0472C91.9325 18.8697 86.5366 15.4603 81.8609 17.6821L87.8694 30.3271C83.2561 32.5192 77.9325 29.1553 77.9325 24.0472H91.9325ZM87.9635 17.7671C90.3882 18.9192 91.9325 21.3638 91.9325 24.0472H77.9325C77.9325 26.7669 79.4976 29.2446 81.9552 30.4123L87.9635 17.7671ZM88.2972 17.9257L87.9636 17.7672L81.9551 30.4122L82.2887 30.5707L88.2972 17.9257ZM78.8134 20.2142L78.3682 23.224L92.2176 25.2724L92.6628 22.2625L78.8134 20.2142ZM95.671 3.35654C86.9506 4.64631 80.1032 11.4938 78.8134 20.2142L92.6628 22.2625C93.0496 19.6467 95.1036 17.5928 97.7194 17.2059L95.671 3.35654ZM99.9163 2.72865L95.671 3.35654L97.7194 17.2059L101.965 16.578L99.9163 2.72865Z" fill="black" mask="url(#path-5-outside-2)"/>
<path fill-rule="evenodd" clip-rule="evenodd" d="M100.95 9.64821C100.948 9.6509 100.944 9.65266 100.94 9.65321L96.6952 10.2811C91.0271 11.1194 86.5764 15.5702 85.7381 21.2382L85.1102 25.4835C85.1096 25.4873 85.1079 25.4908 85.1052 25.4935L85.0854 25.5133C85.0796 25.5191 85.0845 25.5289 85.0926 25.5277C85.0982 25.5268 85.1031 25.5317 85.1022 25.5373C85.101 25.5454 85.1108 25.5503 85.1166 25.5445L85.1364 25.5247C85.1391 25.522 85.1426 25.5203 85.1464 25.5197L89.3917 24.8918C95.0598 24.0535 99.5105 19.6028 100.349 13.9347L100.977 9.68942C100.977 9.68565 100.979 9.68216 100.982 9.67947L101.002 9.65965C101.007 9.65387 101.002 9.64406 100.994 9.64526C100.989 9.64609 100.984 9.64125 100.985 9.63562C100.986 9.62754 100.976 9.62261 100.97 9.62839L100.95 9.64821Z" fill="#1CC64B"/>
<path fill-rule="evenodd" clip-rule="evenodd" d="M84.7129 24.047C84.7129 24.0652 84.7025 24.0818 84.686 24.0896L75.3565 28.5227C62.8812 34.4505 62.8812 52.2046 75.3565 58.1325L84.686 62.5656C84.7025 62.5734 84.7129 62.5899 84.7129 62.6081C84.7129 62.6427 84.749 62.6655 84.7803 62.6507L84.7973 62.6425C84.8134 62.6349 84.832 62.6349 84.848 62.6425L84.8651 62.6507C84.8964 62.6655 84.9325 62.6427 84.9325 62.6081C84.9325 62.5899 84.9429 62.5734 84.9593 62.5656L94.2889 58.1325C106.764 52.2046 106.764 34.4505 94.2889 28.5227L84.9593 24.0896C84.9429 24.0818 84.9325 24.0652 84.9325 24.047C84.9325 24.0124 84.8964 23.9896 84.8651 24.0045L84.848 24.0126C84.832 24.0202 84.8134 24.0202 84.7973 24.0126L84.7802 24.0045C84.749 23.9896 84.7129 24.0124 84.7129 24.047Z" fill="#FFE920"/>
<mask id="path-9-outside-3" maskUnits="userSpaceOnUse" x="30" y="19.626" width="52" height="69" fill="black">
<rect fill="white" x="30" y="19.626" width="52" height="69"/>
<path fill-rule="evenodd" clip-rule="evenodd" d="M71.9405 27.6533C71.9443 27.6528 71.9477 27.651 71.9504 27.6483L71.9703 27.6285C71.976 27.6227 71.9858 27.6276 71.9847 27.6357C71.9838 27.6414 71.9887 27.6462 71.9943 27.6454C72.0024 27.6442 72.0073 27.654 72.0015 27.6598L71.9817 27.6796C71.979 27.6823 71.9773 27.6858 71.9767 27.6895L71.3488 31.9348C70.5105 37.6029 66.0598 42.0536 60.3917 42.8919L58.299 43.2014L65.2889 46.5228C77.7642 52.4506 77.7642 70.2047 65.2889 76.1326L55.9593 80.5657C55.9429 80.5735 55.9325 80.59 55.9325 80.6082C55.9325 80.6428 55.8964 80.6656 55.8651 80.6508L55.848 80.6426C55.832 80.635 55.8134 80.635 55.7973 80.6426L55.7803 80.6508C55.749 80.6656 55.7129 80.6428 55.7129 80.6082C55.7129 80.59 55.7025 80.5735 55.686 80.5657L46.3565 76.1326C33.8812 70.2047 33.8812 52.4506 46.3565 46.5228L55.686 42.0897C55.7025 42.0819 55.7129 42.0653 55.7129 42.0472C55.7129 42.0125 55.749 41.9898 55.7802 42.0046L55.7973 42.0127C55.8134 42.0203 55.832 42.0203 55.848 42.0127L55.8651 42.0046C55.8964 41.9898 55.9325 42.0125 55.9325 42.0472C55.9325 42.0653 55.9429 42.0819 55.9593 42.0897L56.2929 42.2482L56.7381 39.2383C57.5764 33.5703 62.0271 29.1195 67.6952 28.2812L71.9405 27.6533Z"/>
</mask>
<path d="M71.9504 27.6483L67.001 22.6982L66.9994 22.6998L71.9504 27.6483ZM71.9405 27.6533L72.9647 34.578L72.9649 34.578L71.9405 27.6533ZM71.9703 27.6285L76.9197 32.5786L76.9201 32.5781L71.9703 27.6285ZM71.9847 27.6357L78.9095 28.6588L78.9096 28.6583L71.9847 27.6357ZM71.9943 27.6454L73.0181 34.5701L73.0182 34.5701L71.9943 27.6454ZM72.0015 27.6598L76.9514 32.6094L76.9514 32.6094L72.0015 27.6598ZM71.9817 27.6796L76.9292 32.6315L76.9316 32.6292L71.9817 27.6796ZM71.9767 27.6895L78.9014 28.7137L78.9015 28.7126L71.9767 27.6895ZM71.3488 31.9348L78.2735 32.959V32.959L71.3488 31.9348ZM60.3917 42.8919L61.4158 49.8166L60.3917 42.8919ZM58.299 43.2014L57.2749 36.2768C54.2265 36.7276 51.8315 39.119 51.3759 42.1666C50.9204 45.2143 52.5115 48.2014 55.2948 49.524L58.299 43.2014ZM65.2889 46.5228L62.2847 52.8453H62.2847L65.2889 46.5228ZM65.2889 76.1326L62.2847 69.81H62.2847L65.2889 76.1326ZM55.9593 80.5657L52.9551 74.2431L52.9549 74.2432L55.9593 80.5657ZM55.8651 80.6508L58.8697 74.3284L58.8691 74.3281L55.8651 80.6508ZM55.848 80.6426L52.8439 86.9652L52.8441 86.9653L55.848 80.6426ZM55.7973 80.6426L52.7929 74.3202L52.7928 74.3202L55.7973 80.6426ZM55.7803 80.6508L58.784 86.9735L58.7848 86.9732L55.7803 80.6508ZM55.686 80.5657L52.6818 86.8882L52.6819 86.8882L55.686 80.5657ZM46.3565 76.1326L49.3607 69.81H49.3607L46.3565 76.1326ZM46.3565 46.5228L43.3522 40.2003H43.3522L46.3565 46.5228ZM55.686 42.0897L58.6903 48.4122L58.6905 48.4121L55.686 42.0897ZM55.7802 42.0046L58.7848 35.6822L58.7845 35.6821L55.7802 42.0046ZM55.7973 42.0127L52.7928 48.3351L52.7935 48.3354L55.7973 42.0127ZM55.848 42.0127L58.8522 48.3353L58.8523 48.3353L55.848 42.0127ZM55.8651 42.0046L58.8694 48.3271L58.8695 48.3271L55.8651 42.0046ZM55.9593 42.0897L58.9636 35.7672L58.9632 35.767L55.9593 42.0897ZM56.2929 42.2482L53.2887 48.5707C55.2931 49.5232 57.6305 49.4687 59.5884 48.4239C61.5464 47.3791 62.8929 45.4678 63.2176 43.2724L56.2929 42.2482ZM56.7381 39.2383L63.6628 40.2625V40.2625L56.7381 39.2383ZM67.6952 28.2812L66.671 21.3565L67.6952 28.2812ZM66.9994 22.6998C68.0602 21.6386 69.4337 20.948 70.9161 20.7287L72.9649 34.578C74.4548 34.3576 75.8353 33.6634 76.9014 32.5968L66.9994 22.6998ZM67.0209 22.6784L67.001 22.6982L76.8998 32.5984L76.9197 32.5786L67.0209 22.6784ZM78.9096 28.6583C79.8952 21.984 71.7985 17.9005 67.0204 22.6788L76.9201 32.5781C72.1536 37.3449 64.0765 33.2713 65.0598 26.6131L78.9096 28.6583ZM70.9705 20.7206C75.6121 20.0344 79.5944 24.0228 78.9095 28.6588L65.0598 26.6127C64.3732 31.2599 68.3652 35.258 73.0181 34.5701L70.9705 20.7206ZM76.9514 32.6094C81.7259 27.8347 77.6506 19.7329 70.9704 20.7206L73.0182 34.5701C66.3542 35.5554 62.2888 27.4733 67.0516 22.7101L76.9514 32.6094ZM76.9316 32.6292L76.9514 32.6094L67.0517 22.7101L67.0318 22.7299L76.9316 32.6292ZM78.9015 28.7126C78.6825 30.1954 77.9918 31.57 76.9292 32.6315L67.0342 22.7276C65.9663 23.7946 65.272 25.1762 65.0519 26.6664L78.9015 28.7126ZM78.2735 32.959L78.9014 28.7137L65.052 26.6653L64.4241 30.9106L78.2735 32.959ZM61.4158 49.8166C70.1362 48.5268 76.9837 41.6794 78.2735 32.959L64.4241 30.9106C64.0373 33.5264 61.9833 35.5804 59.3675 35.9673L61.4158 49.8166ZM59.3232 50.1261L61.4158 49.8166L59.3675 35.9673L57.2749 36.2768L59.3232 50.1261ZM68.2932 40.2003L61.3033 36.8789L55.2948 49.524L62.2847 52.8453L68.2932 40.2003ZM68.2932 82.4551C86.0961 73.9958 86.0961 48.6596 68.2932 40.2003L62.2847 52.8453C69.4323 56.2416 69.4323 66.4137 62.2847 69.81L68.2932 82.4551ZM58.9636 86.8882L68.2932 82.4551L62.2847 69.81L52.9551 74.2431L58.9636 86.8882ZM62.9325 80.6082C62.9325 83.2921 61.3877 85.7362 58.9638 86.8881L52.9549 74.2432C50.4981 75.4107 48.9325 77.8879 48.9325 80.6082H62.9325ZM52.8606 86.9731C57.5372 89.1956 62.9325 85.7849 62.9325 80.6082H48.9325C48.9325 75.5008 54.2556 72.1356 58.8697 74.3284L52.8606 86.9731ZM52.8441 86.9653L52.8612 86.9734L58.8691 74.3281L58.852 74.32L52.8441 86.9653ZM58.8018 86.9651C56.9166 87.8609 54.7287 87.8608 52.8439 86.9652L58.8522 74.3201C56.9353 73.4093 54.7101 73.4091 52.7929 74.3202L58.8018 86.9651ZM58.7848 86.9732L58.8019 86.965L52.7928 74.3202L52.7757 74.3284L58.7848 86.9732ZM48.7129 80.6082C48.7129 85.7855 54.1085 89.1948 58.784 86.9735L52.7765 74.328C57.3895 72.1365 62.7129 75.5001 62.7129 80.6082H48.7129ZM52.6819 86.8882C50.2578 85.7364 48.7129 83.2923 48.7129 80.6082H62.7129C62.7129 77.8878 61.1471 75.4105 58.6902 74.2431L52.6819 86.8882ZM43.3522 82.4551L52.6818 86.8882L58.6903 74.2431L49.3607 69.81L43.3522 82.4551ZM43.3522 40.2003C25.5493 48.6596 25.5493 73.9958 43.3522 82.4551L49.3607 69.81C42.2131 66.4137 42.2131 56.2416 49.3607 52.8453L43.3522 40.2003ZM52.6818 35.7672L43.3522 40.2003L49.3607 52.8453L58.6903 48.4122L52.6818 35.7672ZM48.7129 42.0472C48.7129 39.3632 50.2577 36.9191 52.6816 35.7673L58.6905 48.4121C61.1473 47.2447 62.7129 44.7674 62.7129 42.0472H48.7129ZM58.7845 35.6821C54.1085 33.4602 48.7129 36.87 48.7129 42.0472H62.7129C62.7129 47.1551 57.3895 50.5193 52.776 48.3271L58.7845 35.6821ZM58.8019 35.6903L58.7848 35.6822L52.7757 48.327L52.7928 48.3351L58.8019 35.6903ZM52.8439 35.6901C54.7289 34.7945 56.9166 34.7946 58.8012 35.69L52.7935 48.3354C54.7102 49.2461 56.9351 49.2462 58.8522 48.3353L52.8439 35.6901ZM52.8609 35.6821L52.8438 35.6902L58.8523 48.3353L58.8694 48.3271L52.8609 35.6821ZM62.9325 42.0472C62.9325 36.8703 57.537 33.46 52.8607 35.6821L58.8695 48.3271C54.2557 50.5195 48.9325 47.1548 48.9325 42.0472H62.9325ZM58.9632 35.767C61.3881 36.919 62.9325 39.3638 62.9325 42.0472H48.9325C48.9325 44.7669 50.4977 47.2447 52.9555 48.4124L58.9632 35.767ZM59.2972 35.9257L58.9636 35.7672L52.9551 48.4122L53.2887 48.5707L59.2972 35.9257ZM49.8134 38.2142L49.3682 41.224L63.2176 43.2724L63.6628 40.2625L49.8134 38.2142ZM66.671 21.3565C57.9506 22.6463 51.1032 29.4938 49.8134 38.2142L63.6628 40.2625C64.0496 37.6467 66.1036 35.5928 68.7194 35.2059L66.671 21.3565ZM70.9163 20.7287L66.671 21.3565L68.7194 35.2059L72.9647 34.578L70.9163 20.7287Z" fill="black" mask="url(#path-9-outside-3)"/>
<path fill-rule="evenodd" clip-rule="evenodd" d="M71.9504 27.6482C71.9477 27.6509 71.9443 27.6527 71.9405 27.6532L67.6952 28.2811C62.0271 29.1194 57.5764 33.5702 56.7381 39.2382L56.1102 43.4835C56.1096 43.4873 56.1079 43.4908 56.1052 43.4935L56.0854 43.5133C56.0796 43.5191 56.0845 43.5289 56.0926 43.5277C56.0982 43.5268 56.1031 43.5317 56.1022 43.5373C56.101 43.5454 56.1108 43.5503 56.1166 43.5445L56.1364 43.5247C56.1391 43.522 56.1426 43.5203 56.1464 43.5197L60.3917 42.8918C66.0598 42.0535 70.5105 37.6028 71.3488 31.9347L71.9767 27.6894C71.9773 27.6857 71.979 27.6822 71.9817 27.6795L72.0015 27.6596C72.0073 27.6539 72.0024 27.6441 71.9943 27.6453C71.9887 27.6461 71.9838 27.6413 71.9847 27.6356C71.9859 27.6275 71.976 27.6226 71.9703 27.6284L71.9504 27.6482Z" fill="#1CC64B"/>
<path fill-rule="evenodd" clip-rule="evenodd" d="M55.7129 42.047C55.7129 42.0652 55.7025 42.0818 55.686 42.0896L46.3565 46.5227C33.8812 52.4505 33.8812 70.2046 46.3565 76.1325L55.686 80.5656C55.7025 80.5734 55.7129 80.5899 55.7129 80.6081C55.7129 80.6427 55.749 80.6655 55.7803 80.6507L55.7973 80.6425C55.8134 80.6349 55.832 80.6349 55.848 80.6425L55.8651 80.6507C55.8964 80.6655 55.9325 80.6427 55.9325 80.6081C55.9325 80.5899 55.9429 80.5734 55.9593 80.5656L65.2889 76.1325C77.7642 70.2046 77.7642 52.4505 65.2889 46.5227L55.9593 42.0896C55.9429 42.0818 55.9325 42.0652 55.9325 42.047C55.9325 42.0124 55.8964 41.9896 55.8651 42.0045L55.848 42.0126C55.832 42.0202 55.8134 42.0202 55.7973 42.0126L55.7802 42.0045C55.749 41.9896 55.7129 42.0124 55.7129 42.047Z" fill="#FFE920"/>
</svg>
