<svg width="100" height="87" viewBox="0 0 100 87" fill="none" xmlns="http://www.w3.org/2000/svg">
<mask id="path-1-outside-1" maskUnits="userSpaceOnUse" x="0" y="0.626953" width="50" height="61" fill="black">
<rect fill="white" y="0.626953" width="50" height="61"/>
<path fill-rule="evenodd" clip-rule="evenodd" d="M39.951 8.64929C39.9483 8.65198 39.9448 8.65374 39.941 8.6543L35.6957 9.28219C31.0754 9.96555 27.2639 13.0493 25.5586 17.236L22.9259 10.9748C22.3959 9.71422 20.9443 9.12199 19.6836 9.65205C18.423 10.1821 17.8308 11.6337 18.3609 12.8944L21.4813 20.3155C21.1571 20.2866 20.8297 20.272 20.4996 20.272C13.044 20.272 7 27.755 7 36.9857C7 46.2165 13.044 53.6995 20.4996 53.6995C22.0775 53.6995 23.5922 53.3643 24.9998 52.7483C26.4072 53.3641 27.9217 53.6992 29.4995 53.6992C36.9551 53.6992 42.999 46.2162 42.999 36.9855C42.999 29.8733 39.411 23.7987 34.3539 21.3849C36.9952 19.377 38.8397 16.3813 39.3493 12.9358L39.9772 8.69051C39.9778 8.68674 39.9795 8.68325 39.9822 8.68055L40.002 8.66073C40.0078 8.65495 40.0029 8.64514 39.9948 8.64634C39.9892 8.64717 39.9843 8.64234 39.9852 8.63671C39.9864 8.62862 39.9766 8.62369 39.9708 8.62947L39.951 8.64929Z"/>
</mask>
<path d="M39.941 8.6543L40.9652 15.579L40.9654 15.5789L39.941 8.6543ZM39.951 8.64929L35.0016 3.69918L34.9999 3.70083L39.951 8.64929ZM35.6957 9.28219L34.6715 2.35751L35.6957 9.28219ZM25.5586 17.236L19.1059 19.9493L25.6616 35.5404L32.0415 19.8765L25.5586 17.236ZM22.9259 10.9748L29.3787 8.26158V8.26158L22.9259 10.9748ZM19.6836 9.65205L22.3969 16.1048L22.3969 16.1048L19.6836 9.65205ZM18.3609 12.8944L11.9081 15.6076L11.9081 15.6076L18.3609 12.8944ZM21.4813 20.3155L20.8609 27.2879L32.4399 28.3182L27.934 17.6022L21.4813 20.3155ZM24.9998 52.7483L27.806 46.3354L24.9996 45.1074L22.1933 46.3355L24.9998 52.7483ZM34.3539 21.3849L30.1177 15.8122L20.9802 22.7582L31.3386 27.7022L34.3539 21.3849ZM39.3493 12.9358L46.274 13.96V13.96L39.3493 12.9358ZM39.9772 8.69051L46.9019 9.71468L46.902 9.71361L39.9772 8.69051ZM39.9822 8.68055L44.9297 13.6325L44.9321 13.6302L39.9822 8.68055ZM40.002 8.66073L35.0522 3.71108L35.0522 3.71111L40.002 8.66073ZM39.9948 8.64634L41.0187 15.5711L41.0187 15.571L39.9948 8.64634ZM39.9852 8.63671L46.91 9.65975L46.9101 9.6593L39.9852 8.63671ZM39.9708 8.62947L44.9202 13.5796L44.9207 13.5791L39.9708 8.62947ZM40.9654 15.5789C42.4553 15.3585 43.8359 14.6644 44.902 13.5977L34.9999 3.70083C36.0606 2.63956 37.4342 1.94896 38.9166 1.72966L40.9654 15.5789ZM36.7199 16.2069L40.9652 15.579L38.9168 1.72963L34.6715 2.35751L36.7199 16.2069ZM32.0415 19.8765C32.8291 17.9428 34.591 16.5217 36.7199 16.2069L34.6715 2.35751C27.5597 3.40937 21.6987 8.15573 19.0758 14.5956L32.0415 19.8765ZM16.4732 13.6881L19.1059 19.9493L32.0114 14.5228L29.3787 8.26158L16.4732 13.6881ZM22.3969 16.1048C20.0937 17.0733 17.4416 15.9912 16.4732 13.6881L29.3787 8.26158C27.3502 3.4372 21.7948 1.17073 16.9704 3.19928L22.3969 16.1048ZM24.8136 10.1811C25.7821 12.4843 24.7 15.1364 22.3969 16.1048L16.9704 3.19928C12.146 5.22783 9.87954 10.7832 11.9081 15.6076L24.8136 10.1811ZM27.934 17.6022L24.8136 10.1811L11.9081 15.6076L15.0285 23.0287L27.934 17.6022ZM22.1017 13.343C21.5717 13.2959 21.0373 13.272 20.4996 13.272V27.272C20.6221 27.272 20.7425 27.2774 20.8609 27.2879L22.1017 13.343ZM20.4996 13.272C7.85573 13.272 0 25.3593 0 36.9857H14C14 30.1506 18.2322 27.272 20.4996 27.272V13.272ZM0 36.9857C0 48.6121 7.85574 60.6995 20.4996 60.6995V46.6995C18.2322 46.6995 14 43.8209 14 36.9857H0ZM20.4996 60.6995C23.0853 60.6995 25.5529 60.1473 27.8063 59.1611L22.1933 46.3355C21.6316 46.5813 21.0698 46.6995 20.4996 46.6995V60.6995ZM22.1936 59.1612C24.4468 60.1472 26.9141 60.6992 29.4995 60.6992V46.6992C28.9293 46.6992 28.3676 46.5811 27.806 46.3354L22.1936 59.1612ZM29.4995 60.6992C42.1433 60.6992 49.999 48.6119 49.999 36.9855H35.999C35.999 43.8206 31.7668 46.6992 29.4995 46.6992V60.6992ZM49.999 36.9855C49.999 27.7361 45.3289 18.8668 37.3691 15.0676L31.3386 27.7022C33.4932 28.7306 35.999 32.0105 35.999 36.9855H49.999ZM32.4247 11.9116C32.1897 13.4999 31.3423 14.8813 30.1177 15.8122L38.59 26.9576C42.6481 23.8728 45.4897 19.2628 46.274 13.96L32.4247 11.9116ZM33.0525 7.66633L32.4247 11.9116L46.274 13.96L46.9019 9.71468L33.0525 7.66633ZM35.0347 3.72855C33.9668 4.79555 33.2726 6.17716 33.0524 7.6674L46.902 9.71361C46.683 11.1963 45.9923 12.5709 44.9297 13.6325L35.0347 3.72855ZM35.0522 3.71111L35.0323 3.73093L44.9321 13.6302L44.9519 13.6103L35.0522 3.71111ZM41.0187 15.571C34.3548 16.5564 30.2891 8.47436 35.0522 3.71108L44.9519 13.6104C49.7265 8.83554 45.6509 0.733861 38.9709 1.72163L41.0187 15.571ZM33.0603 7.61366C32.3738 12.2609 36.3657 16.259 41.0187 15.5711L38.9709 1.72162C43.6126 1.0353 47.5949 5.02381 46.91 9.65975L33.0603 7.61366ZM44.9207 13.5791C40.1538 18.3462 32.0771 14.2718 33.0603 7.61411L46.9101 9.6593C47.8956 2.98546 39.7993 -1.09886 35.0209 3.67986L44.9207 13.5791ZM44.9003 13.5994L44.9202 13.5796L35.0214 3.67936L35.0016 3.69918L44.9003 13.5994Z" fill="black" mask="url(#path-1-outside-1)"/>
<path fill-rule="evenodd" clip-rule="evenodd" d="M39.9512 8.6487C39.9485 8.65139 39.945 8.65315 39.9412 8.6537L35.696 9.28159C30.0279 10.1199 25.5771 14.5706 24.7388 20.2387L24.1109 24.484C24.1104 24.4878 24.1086 24.4913 24.1059 24.494L24.0861 24.5138C24.0803 24.5196 24.0853 24.5294 24.0933 24.5282C24.099 24.5273 24.1038 24.5322 24.103 24.5378C24.1018 24.5459 24.1116 24.5508 24.1174 24.545L24.1372 24.5252C24.1399 24.5225 24.1434 24.5208 24.1471 24.5202L28.3924 23.8923C34.0605 23.054 38.5112 18.6033 39.3495 12.9352L39.9774 8.68991C39.978 8.68614 39.9797 8.68265 39.9824 8.67996L40.0023 8.66014C40.008 8.65436 40.0031 8.64455 39.995 8.64575C39.9894 8.64658 39.9846 8.64174 39.9854 8.63611C39.9866 8.62803 39.9768 8.62309 39.971 8.62887L39.9512 8.6487Z" fill="#1CC64B"/>
<path fill-rule="evenodd" clip-rule="evenodd" d="M29.4995 53.699C36.9551 53.699 42.999 46.216 42.999 36.9853C42.999 27.7545 36.9551 20.2715 29.4995 20.2715C27.9214 20.2715 26.4066 20.6067 24.999 21.2228C23.5917 20.607 22.0772 20.2719 20.4996 20.2719C13.044 20.2719 7 27.755 7 36.9857C7 46.2165 13.044 53.6995 20.4996 53.6995C22.0776 53.6995 23.5924 53.3643 25 52.7482C26.4074 53.364 27.9218 53.699 29.4995 53.699Z" fill="#FF0000"/>
<rect x="17" y="10" width="5" height="15" rx="2.5" transform="rotate(-22.8057 17 10)" fill="#984900"/>
<mask id="path-6-outside-2" maskUnits="userSpaceOnUse" x="50" y="-0.373535" width="50" height="61" fill="black">
<rect fill="white" x="50" y="-0.373535" width="50" height="61"/>
<path fill-rule="evenodd" clip-rule="evenodd" d="M89.951 7.6488C89.9483 7.65149 89.9448 7.65325 89.941 7.65381L85.6957 8.2817C81.0754 8.96506 77.2639 12.0488 75.5586 16.2356L72.9259 9.97435C72.3959 8.71373 70.9443 8.1215 69.6836 8.65157C68.423 9.18163 67.8308 10.6333 68.3609 11.8939L71.4813 19.315C71.1571 19.2861 70.8297 19.2715 70.4996 19.2715C63.044 19.2715 57 26.7545 57 35.9852C57 45.216 63.044 52.699 70.4996 52.699C72.0775 52.699 73.5922 52.3638 74.9998 51.7478C76.4072 52.3637 77.9217 52.6988 79.4995 52.6988C86.9551 52.6988 92.999 45.2158 92.999 35.985C92.999 28.8728 89.411 22.7982 84.3539 20.3844C86.9952 18.3766 88.8397 15.3808 89.3493 11.9353L89.9772 7.69002C89.9778 7.68625 89.9795 7.68276 89.9822 7.68006L90.002 7.66024C90.0078 7.65446 90.0029 7.64465 89.9948 7.64585C89.9892 7.64668 89.9843 7.64185 89.9852 7.63622C89.9864 7.62813 89.9766 7.6232 89.9708 7.62898L89.951 7.6488Z"/>
</mask>
<path d="M89.941 7.65381L90.9652 14.5785L90.9654 14.5784L89.941 7.65381ZM89.951 7.6488L85.0016 2.69869L84.9999 2.70035L89.951 7.6488ZM85.6957 8.2817L84.6715 1.35703L85.6957 8.2817ZM75.5586 16.2356L69.1059 18.9488L75.6616 34.5399L82.0415 18.876L75.5586 16.2356ZM72.9259 9.97435L79.3787 7.26109V7.26109L72.9259 9.97435ZM69.6836 8.65157L72.3969 15.1043L72.3969 15.1043L69.6836 8.65157ZM68.3609 11.8939L61.9081 14.6071L61.9081 14.6071L68.3609 11.8939ZM71.4813 19.315L70.8609 26.2874L82.4399 27.3177L77.934 16.6017L71.4813 19.315ZM74.9998 51.7478L77.806 45.3349L74.9996 44.1069L72.1933 45.335L74.9998 51.7478ZM84.3539 20.3844L80.1177 14.8117L70.9802 21.7577L81.3386 26.7017L84.3539 20.3844ZM89.3493 11.9353L96.274 12.9595V12.9595L89.3493 11.9353ZM89.9772 7.69002L96.9019 8.7142L96.902 8.71312L89.9772 7.69002ZM89.9822 7.68006L94.9297 12.6321L94.9321 12.6297L89.9822 7.68006ZM90.002 7.66024L85.0522 2.7106L85.0522 2.71062L90.002 7.66024ZM89.9948 7.64585L91.0187 14.5706L91.0187 14.5706L89.9948 7.64585ZM89.9852 7.63622L96.91 8.65927L96.9101 8.65882L89.9852 7.63622ZM89.9708 7.62898L94.9202 12.5791L94.9207 12.5786L89.9708 7.62898ZM90.9654 14.5784C92.4553 14.358 93.8359 13.6639 94.902 12.5973L84.9999 2.70035C86.0606 1.63908 87.4342 0.948467 88.9166 0.729169L90.9654 14.5784ZM86.7199 15.2064L90.9652 14.5785L88.9168 0.729138L84.6715 1.35703L86.7199 15.2064ZM82.0415 18.876C82.8291 16.9423 84.591 15.5212 86.7199 15.2064L84.6715 1.35703C77.5597 2.40889 71.6987 7.15524 69.0758 13.5951L82.0415 18.876ZM66.4732 12.6876L69.1059 18.9488L82.0114 13.5223L79.3787 7.26109L66.4732 12.6876ZM72.3969 15.1043C70.0937 16.0728 67.4416 14.9908 66.4732 12.6876L79.3787 7.26109C77.3502 2.43671 71.7948 0.170245 66.9704 2.19879L72.3969 15.1043ZM74.8136 9.18062C75.7821 11.4838 74.7 14.1359 72.3969 15.1043L66.9704 2.19879C62.146 4.22734 59.8795 9.78274 61.9081 14.6071L74.8136 9.18062ZM77.934 16.6017L74.8136 9.18061L61.9081 14.6071L65.0285 22.0282L77.934 16.6017ZM72.1017 12.3425C71.5717 12.2954 71.0373 12.2715 70.4996 12.2715V26.2715C70.6221 26.2715 70.7425 26.2769 70.8609 26.2874L72.1017 12.3425ZM70.4996 12.2715C57.8557 12.2715 50 24.3588 50 35.9852H64C64 29.1501 68.2322 26.2715 70.4996 26.2715V12.2715ZM50 35.9852C50 47.6116 57.8557 59.699 70.4996 59.699V45.699C68.2322 45.699 64 42.8204 64 35.9852H50ZM70.4996 59.699C73.0853 59.699 75.5529 59.1468 77.8063 58.1606L72.1933 45.335C71.6316 45.5809 71.0698 45.699 70.4996 45.699V59.699ZM72.1936 58.1607C74.4468 59.1467 76.9141 59.6988 79.4995 59.6988V45.6988C78.9293 45.6988 78.3676 45.5806 77.806 45.3349L72.1936 58.1607ZM79.4995 59.6988C92.1433 59.6988 99.999 47.6114 99.999 35.985H85.999C85.999 42.8201 81.7668 45.6988 79.4995 45.6988V59.6988ZM99.999 35.985C99.999 26.7356 95.3289 17.8663 87.3691 14.0671L81.3386 26.7017C83.4932 27.7301 85.999 31.01 85.999 35.985H99.999ZM82.4247 10.9111C82.1897 12.4994 81.3423 13.8808 80.1177 14.8117L88.59 25.9571C92.6481 22.8723 95.4897 18.2623 96.274 12.9595L82.4247 10.9111ZM83.0525 6.66584L82.4247 10.9111L96.274 12.9595L96.9019 8.7142L83.0525 6.66584ZM85.0347 2.72807C83.9668 3.79506 83.2726 5.17667 83.0524 6.66691L96.902 8.71312C96.683 10.1958 95.9923 11.5705 94.9297 12.6321L85.0347 2.72807ZM85.0522 2.71062L85.0323 2.73044L94.9321 12.6297L94.9519 12.6099L85.0522 2.71062ZM91.0187 14.5706C84.3548 15.5559 80.2891 7.47387 85.0522 2.7106L94.9519 12.6099C99.7265 7.83506 95.6509 -0.266627 88.9709 0.721146L91.0187 14.5706ZM83.0603 6.61317C82.3738 11.2604 86.3657 15.2586 91.0187 14.5706L88.9709 0.721136C93.6126 0.0348148 97.5949 4.02332 96.91 8.65927L83.0603 6.61317ZM94.9207 12.5786C90.1538 17.3457 82.0771 13.2713 83.0603 6.61362L96.9101 8.65882C97.8956 1.98497 89.7993 -2.09935 85.0209 2.67937L94.9207 12.5786ZM94.9003 12.5989L94.9202 12.5791L85.0214 2.67887L85.0016 2.69869L94.9003 12.5989Z" fill="black" mask="url(#path-6-outside-2)"/>
<path fill-rule="evenodd" clip-rule="evenodd" d="M89.9512 7.64821C89.9485 7.6509 89.945 7.65266 89.9412 7.65321L85.696 8.2811C80.0279 9.11943 75.5771 13.5702 74.7388 19.2382L74.1109 23.4835C74.1104 23.4873 74.1086 23.4908 74.1059 23.4935L74.0861 23.5133C74.0803 23.5191 74.0853 23.5289 74.0933 23.5277C74.099 23.5268 74.1038 23.5317 74.103 23.5373C74.1018 23.5454 74.1116 23.5503 74.1174 23.5445L74.1372 23.5247C74.1399 23.522 74.1434 23.5203 74.1471 23.5197L78.3924 22.8918C84.0605 22.0535 88.5112 17.6028 89.3495 11.9347L89.9774 7.68942C89.978 7.68565 89.9797 7.68216 89.9824 7.67947L90.0023 7.65965C90.008 7.65387 90.0031 7.64406 89.995 7.64526C89.9894 7.64609 89.9846 7.64125 89.9854 7.63562C89.9866 7.62754 89.9768 7.62261 89.971 7.62839L89.9512 7.64821Z" fill="#1CC64B"/>
<path fill-rule="evenodd" clip-rule="evenodd" d="M79.4995 52.6985C86.9551 52.6985 92.999 45.2155 92.999 35.9848C92.999 26.754 86.9551 19.271 79.4995 19.271C77.9214 19.271 76.4066 19.6062 74.999 20.2223C73.5917 19.6065 72.0772 19.2715 70.4996 19.2715C63.044 19.2715 57 26.7545 57 35.9852C57 45.216 63.044 52.699 70.4996 52.699C72.0776 52.699 73.5924 52.3638 75 51.7477C76.4074 52.3635 77.9218 52.6985 79.4995 52.6985Z" fill="#FF0000"/>
<rect x="67" y="8.99951" width="5" height="15" rx="2.5" transform="rotate(-22.8057 67 8.99951)" fill="#984900"/>
<mask id="path-11-outside-3" maskUnits="userSpaceOnUse" x="25" y="26.6265" width="50" height="61" fill="black">
<rect fill="white" x="25" y="26.6265" width="50" height="61"/>
<path fill-rule="evenodd" clip-rule="evenodd" d="M64.951 34.6488C64.9483 34.6515 64.9448 34.6533 64.941 34.6538L60.6957 35.2817C56.0754 35.9651 52.2639 39.0488 50.5586 43.2356L47.9259 36.9743C47.3959 35.7137 45.9443 35.1215 44.6836 35.6516C43.423 36.1816 42.8308 37.6333 43.3609 38.8939L46.4813 46.315C46.1571 46.2861 45.8297 46.2715 45.4996 46.2715C38.044 46.2715 32 53.7545 32 62.9852C32 72.216 38.044 79.699 45.4996 79.699C47.0775 79.699 48.5922 79.3638 49.9998 78.7478C51.4072 79.3637 52.9217 79.6988 54.4995 79.6988C61.9551 79.6988 67.999 72.2158 67.999 62.985C67.999 55.8728 64.411 49.7982 59.3539 47.3844C61.9952 45.3766 63.8397 42.3808 64.3493 38.9353L64.9772 34.69C64.9778 34.6862 64.9795 34.6828 64.9822 34.6801L65.002 34.6602C65.0078 34.6545 65.0029 34.6447 64.9948 34.6459C64.9892 34.6467 64.9843 34.6418 64.9852 34.6362C64.9864 34.6281 64.9766 34.6232 64.9708 34.629L64.951 34.6488Z"/>
</mask>
<path d="M64.941 34.6538L65.9652 41.5785L65.9654 41.5784L64.941 34.6538ZM64.951 34.6488L60.0016 29.6987L59.9999 29.7003L64.951 34.6488ZM60.6957 35.2817L59.6715 28.357L60.6957 35.2817ZM50.5586 43.2356L44.1059 45.9488L50.6616 61.5399L57.0415 45.876L50.5586 43.2356ZM47.9259 36.9743L54.3787 34.2611V34.2611L47.9259 36.9743ZM44.6836 35.6516L47.3969 42.1043L47.3969 42.1043L44.6836 35.6516ZM43.3609 38.8939L36.9081 41.6071L36.9081 41.6071L43.3609 38.8939ZM46.4813 46.315L45.8609 53.2874L57.4399 54.3177L52.934 43.6017L46.4813 46.315ZM49.9998 78.7478L52.806 72.3349L49.9996 71.1069L47.1933 72.335L49.9998 78.7478ZM59.3539 47.3844L55.1177 41.8117L45.9802 48.7577L56.3386 53.7017L59.3539 47.3844ZM64.3493 38.9353L71.274 39.9595V39.9595L64.3493 38.9353ZM64.9772 34.69L71.9019 35.7142L71.902 35.7131L64.9772 34.69ZM64.9822 34.6801L69.9297 39.6321L69.9321 39.6297L64.9822 34.6801ZM65.002 34.6602L60.0522 29.7106L60.0522 29.7106L65.002 34.6602ZM64.9948 34.6459L66.0187 41.5706L66.0187 41.5706L64.9948 34.6459ZM64.9852 34.6362L71.91 35.6593L71.9101 35.6588L64.9852 34.6362ZM64.9708 34.629L69.9202 39.5791L69.9207 39.5786L64.9708 34.629ZM65.9654 41.5784C67.4553 41.358 68.8359 40.6639 69.902 39.5973L59.9999 29.7003C61.0606 28.6391 62.4342 27.9485 63.9166 27.7292L65.9654 41.5784ZM61.7199 42.2064L65.9652 41.5785L63.9168 27.7291L59.6715 28.357L61.7199 42.2064ZM57.0415 45.876C57.8291 43.9423 59.591 42.5212 61.7199 42.2064L59.6715 28.357C52.5597 29.4089 46.6987 34.1552 44.0758 40.5951L57.0415 45.876ZM41.4732 39.6876L44.1059 45.9488L57.0114 40.5223L54.3787 34.2611L41.4732 39.6876ZM47.3969 42.1043C45.0937 43.0728 42.4416 41.9908 41.4732 39.6876L54.3787 34.2611C52.3502 29.4367 46.7948 27.1702 41.9704 29.1988L47.3969 42.1043ZM49.8136 36.1806C50.7821 38.4838 49.7 41.1359 47.3969 42.1043L41.9704 29.1988C37.146 31.2273 34.8795 36.7827 36.9081 41.6071L49.8136 36.1806ZM52.934 43.6017L49.8136 36.1806L36.9081 41.6071L40.0285 49.0282L52.934 43.6017ZM47.1017 39.3425C46.5717 39.2954 46.0373 39.2715 45.4996 39.2715V53.2715C45.6221 53.2715 45.7425 53.2769 45.8609 53.2874L47.1017 39.3425ZM45.4996 39.2715C32.8557 39.2715 25 51.3588 25 62.9852H39C39 56.1501 43.2322 53.2715 45.4996 53.2715V39.2715ZM25 62.9852C25 74.6116 32.8557 86.699 45.4996 86.699V72.699C43.2322 72.699 39 69.8204 39 62.9852H25ZM45.4996 86.699C48.0853 86.699 50.5529 86.1468 52.8063 85.1606L47.1933 72.335C46.6316 72.5809 46.0698 72.699 45.4996 72.699V86.699ZM47.1936 85.1607C49.4468 86.1467 51.9141 86.6988 54.4995 86.6988V72.6988C53.9293 72.6988 53.3676 72.5806 52.806 72.3349L47.1936 85.1607ZM54.4995 86.6988C67.1433 86.6988 74.999 74.6114 74.999 62.985H60.999C60.999 69.8201 56.7668 72.6988 54.4995 72.6988V86.6988ZM74.999 62.985C74.999 53.7356 70.3289 44.8663 62.3691 41.0671L56.3386 53.7017C58.4932 54.7301 60.999 58.01 60.999 62.985H74.999ZM57.4247 37.9111C57.1897 39.4994 56.3423 40.8808 55.1177 41.8117L63.59 52.9571C67.6481 49.8723 70.4897 45.2623 71.274 39.9595L57.4247 37.9111ZM58.0525 33.6658L57.4247 37.9111L71.274 39.9595L71.9019 35.7142L58.0525 33.6658ZM60.0347 29.7281C58.9668 30.7951 58.2726 32.1767 58.0524 33.6669L71.902 35.7131C71.683 37.1958 70.9923 38.5705 69.9297 39.6321L60.0347 29.7281ZM60.0522 29.7106L60.0323 29.7304L69.9321 39.6297L69.9519 39.6099L60.0522 29.7106ZM66.0187 41.5706C59.3548 42.5559 55.2891 34.4739 60.0522 29.7106L69.9519 39.6099C74.7265 34.8351 70.6509 26.7334 63.9709 27.7211L66.0187 41.5706ZM58.0603 33.6132C57.3738 38.2604 61.3657 42.2586 66.0187 41.5706L63.9709 27.7211C68.6126 27.0348 72.5949 31.0233 71.91 35.6593L58.0603 33.6132ZM69.9207 39.5786C65.1538 44.3457 57.0771 40.2713 58.0603 33.6136L71.9101 35.6588C72.8956 28.985 64.7993 24.9006 60.0209 29.6794L69.9207 39.5786ZM69.9003 39.5989L69.9202 39.5791L60.0214 29.6789L60.0016 29.6987L69.9003 39.5989Z" fill="black" mask="url(#path-11-outside-3)"/>
<path fill-rule="evenodd" clip-rule="evenodd" d="M64.9512 34.6482C64.9485 34.6509 64.945 34.6527 64.9412 34.6532L60.696 35.2811C55.0279 36.1194 50.5771 40.5702 49.7388 46.2382L49.1109 50.4835C49.1104 50.4873 49.1086 50.4908 49.1059 50.4935L49.0861 50.5133C49.0803 50.5191 49.0853 50.5289 49.0933 50.5277C49.099 50.5268 49.1038 50.5317 49.103 50.5373C49.1018 50.5454 49.1116 50.5503 49.1174 50.5445L49.1372 50.5247C49.1399 50.522 49.1434 50.5203 49.1471 50.5197L53.3924 49.8918C59.0605 49.0535 63.5112 44.6028 64.3495 38.9347L64.9774 34.6894C64.978 34.6857 64.9797 34.6822 64.9824 34.6795L65.0023 34.6596C65.008 34.6539 65.0031 34.6441 64.995 34.6453C64.9894 34.6461 64.9846 34.6413 64.9854 34.6356C64.9866 34.6275 64.9768 34.6226 64.971 34.6284L64.9512 34.6482Z" fill="#1CC64B"/>
<path fill-rule="evenodd" clip-rule="evenodd" d="M54.4995 79.6985C61.9551 79.6985 67.999 72.2155 67.999 62.9848C67.999 53.754 61.9551 46.271 54.4995 46.271C52.9214 46.271 51.4066 46.6062 49.999 47.2223C48.5917 46.6065 47.0772 46.2715 45.4996 46.2715C38.044 46.2715 32 53.7545 32 62.9852C32 72.216 38.044 79.699 45.4996 79.699C47.0776 79.699 48.5924 79.3638 50 78.7477C51.4074 79.3635 52.9218 79.6985 54.4995 79.6985Z" fill="#FF0000"/>
<rect x="42" y="35.9995" width="5" height="15" rx="2.5" transform="rotate(-22.8057 42 35.9995)" fill="#984900"/>
</svg>
