<svg width="146" height="95" viewBox="0 0 146 95" fill="none" xmlns="http://www.w3.org/2000/svg">
<circle cx="101.054" cy="22.9542" r="15.9542" fill="#00E0FF"/>
<ellipse cx="101.055" cy="30.1597" rx="37.0548" ry="8.74906" fill="#A5A5A5"/>
<ellipse rx="27.7012" ry="6.4756" transform="matrix(1 0 0 -1 101.055 33.8721)" fill="#D3D3D3"/>
<mask id="path-4-outside-1" maskUnits="userSpaceOnUse" x="57" y="0" width="89" height="46" fill="black">
<rect fill="white" x="57" width="89" height="46"/>
<path fill-rule="evenodd" clip-rule="evenodd" d="M116.994 22.2591C129.481 23.6661 138.11 26.675 138.11 30.1597C138.11 34.9916 121.52 38.9087 101.055 38.9087C80.59 38.9087 64 34.9916 64 30.1597C64 26.675 72.6281 23.6662 85.1154 22.2592C85.4792 13.7704 92.4763 7 101.055 7C109.633 7 116.63 13.7703 116.994 22.2591Z"/>
</mask>
<path d="M116.994 22.2591L110 22.5589L110.257 28.5443L116.21 29.2151L116.994 22.2591ZM85.1154 22.2592L85.8991 29.2151L91.8524 28.5444L92.109 22.5589L85.1154 22.2592ZM116.21 29.2151C122.173 29.8869 126.839 30.9073 129.824 32.0022C131.354 32.5634 132.046 33.0027 132.224 33.1433C132.501 33.362 131.11 32.4025 131.11 30.1597H145.11C145.11 26.1744 142.64 23.5321 140.909 22.1626C139.078 20.715 136.833 19.6608 134.645 18.8584C130.194 17.2259 124.303 16.0383 117.778 15.3031L116.21 29.2151ZM131.11 30.1597C131.11 27.167 133.437 26.5311 131.786 27.453C130.724 28.0458 128.723 28.8074 125.648 29.5335C119.609 30.9594 110.911 31.9087 101.055 31.9087V45.9087C111.664 45.9087 121.493 44.8995 128.865 43.1588C132.496 42.3016 135.921 41.178 138.61 39.6773C140.708 38.5058 145.11 35.5683 145.11 30.1597H131.11ZM101.055 31.9087C91.1991 31.9087 82.5008 30.9594 76.4617 29.5335C73.3866 28.8074 71.3858 28.0458 70.3239 27.453C68.6724 26.5311 71 27.167 71 30.1597H57C57 35.5683 61.4013 38.5058 63.5 39.6773C66.1882 41.178 69.6141 42.3016 73.2446 43.1588C80.6167 44.8995 90.4457 45.9087 101.055 45.9087V31.9087ZM71 30.1597C71 32.4025 69.6091 33.362 69.8857 33.1433C70.0634 33.0027 70.7552 32.5634 72.2854 32.0022C75.2706 30.9073 79.9367 29.887 85.8991 29.2151L84.3316 15.3032C77.8068 16.0384 71.9153 17.226 67.4645 18.8584C65.2768 19.6608 63.0312 20.715 61.2008 22.1627C59.4694 23.5321 57 26.1745 57 30.1597H71ZM92.109 22.5589C92.3129 17.7999 96.2419 14 101.055 14V0C88.7107 0 78.6455 9.74083 78.1218 21.9594L92.109 22.5589ZM101.055 14C105.867 14 109.796 17.7999 110 22.5589L123.988 21.9593C123.464 9.7408 113.399 0 101.055 0V14Z" fill="black" mask="url(#path-4-outside-1)"/>
<mask id="path-6-outside-2" maskUnits="userSpaceOnUse" x="57" y="0.719238" width="89" height="46" fill="black">
<rect fill="white" x="57" y="0.719238" width="89" height="46"/>
<path fill-rule="evenodd" clip-rule="evenodd" d="M116.994 22.9784C129.481 24.3854 138.11 27.3942 138.11 30.8789C138.11 35.7109 121.52 39.628 101.055 39.628C80.59 39.628 64 35.7109 64 30.8789C64 27.3942 72.6281 24.3854 85.1154 22.9784C85.4792 14.4896 92.4763 7.71924 101.055 7.71924C109.633 7.71924 116.63 14.4896 116.994 22.9784Z"/>
</mask>
<path d="M116.994 22.9784L110 23.2781L110.257 29.2636L116.21 29.9343L116.994 22.9784ZM85.1154 22.9784L85.8991 29.9344L91.8524 29.2636L92.109 23.2782L85.1154 22.9784ZM116.21 29.9343C122.173 30.6062 126.839 31.6265 129.824 32.7214C131.354 33.2827 132.046 33.722 132.224 33.8625C132.501 34.0813 131.11 33.1218 131.11 30.8789H145.11C145.11 26.8937 142.64 24.2513 140.909 22.8819C139.078 21.4342 136.833 20.38 134.645 19.5776C130.194 17.9452 124.303 16.7576 117.778 16.0224L116.21 29.9343ZM131.11 30.8789C131.11 27.8863 133.437 27.2503 131.786 28.1723C130.724 28.765 128.723 29.5267 125.648 30.2527C119.609 31.6786 110.911 32.628 101.055 32.628V46.6279C111.664 46.6279 121.493 45.6187 128.865 43.8781C132.496 43.0209 135.921 41.8972 138.61 40.3966C140.708 39.2251 145.11 36.2875 145.11 30.8789H131.11ZM101.055 32.628C91.1991 32.628 82.5008 31.6786 76.4617 30.2527C73.3866 29.5267 71.3858 28.765 70.3239 28.1723C68.6724 27.2503 71 27.8863 71 30.8789H57C57 36.2875 61.4013 39.2251 63.5 40.3966C66.1882 41.8972 69.6141 43.0209 73.2446 43.8781C80.6167 45.6187 90.4457 46.6279 101.055 46.6279V32.628ZM71 30.8789C71 33.1218 69.6091 34.0813 69.8857 33.8625C70.0634 33.722 70.7552 33.2827 72.2854 32.7214C75.2706 31.6265 79.9367 30.6062 85.8991 29.9344L84.3316 16.0224C77.8068 16.7576 71.9153 17.9452 67.4645 19.5776C65.2768 20.38 63.0312 21.4343 61.2008 22.8819C59.4694 24.2513 57 26.8937 57 30.8789H71ZM92.109 23.2782C92.3129 18.5191 96.2419 14.7192 101.055 14.7192V0.719238C88.7107 0.719238 78.6455 10.4601 78.1218 22.6786L92.109 23.2782ZM101.055 14.7192C105.867 14.7192 109.796 18.5191 110 23.2781L123.988 22.6786C123.464 10.46 113.399 0.719238 101.055 0.719238V14.7192Z" fill="black" mask="url(#path-6-outside-2)"/>
<circle cx="44.0538" cy="37.9542" r="15.9542" fill="#00E0FF"/>
<ellipse cx="44.0548" cy="45.1597" rx="37.0548" ry="8.74906" fill="#A5A5A5"/>
<ellipse rx="27.7012" ry="6.4756" transform="matrix(1 0 0 -1 44.0547 48.8721)" fill="#D3D3D3"/>
<mask id="path-11-outside-3" maskUnits="userSpaceOnUse" x="0" y="15" width="89" height="46" fill="black">
<rect fill="white" y="15" width="89" height="46"/>
<path fill-rule="evenodd" clip-rule="evenodd" d="M59.994 37.2591C72.4814 38.6661 81.1096 41.675 81.1096 45.1597C81.1096 49.9916 64.5196 53.9087 44.0548 53.9087C23.59 53.9087 7 49.9916 7 45.1597C7 41.675 15.6281 38.6662 28.1154 37.2592C28.4792 28.7704 35.4763 22 44.0547 22C52.633 22 59.6301 28.7703 59.994 37.2591Z"/>
</mask>
<path d="M59.994 37.2591L53.0004 37.5589L53.2569 43.5443L59.2102 44.2151L59.994 37.2591ZM28.1154 37.2592L28.8991 44.2151L34.8524 43.5444L35.109 37.5589L28.1154 37.2592ZM59.2102 44.2151C65.1727 44.8869 69.839 45.9073 72.8242 47.0022C74.3544 47.5634 75.0463 48.0027 75.224 48.1433C75.5006 48.362 74.1096 47.4025 74.1096 45.1597H88.1096C88.1096 41.1744 85.6402 38.5321 83.9088 37.1626C82.0784 35.715 79.8327 34.6608 77.645 33.8584C73.1942 32.2259 67.3026 31.0383 60.7777 30.3031L59.2102 44.2151ZM74.1096 45.1597C74.1096 42.167 76.4372 41.5311 74.7857 42.453C73.7238 43.0458 71.7231 43.8074 68.648 44.5335C62.6089 45.9594 53.9105 46.9087 44.0548 46.9087V60.9087C54.664 60.9087 64.493 59.8995 71.8651 58.1588C75.4956 57.3016 78.9214 56.178 81.6097 54.6773C83.7083 53.5058 88.1096 50.5683 88.1096 45.1597H74.1096ZM44.0548 46.9087C34.1991 46.9087 25.5008 45.9594 19.4617 44.5335C16.3866 43.8074 14.3858 43.0458 13.3239 42.453C11.6724 41.5311 14 42.167 14 45.1597H0C0 50.5683 4.40134 53.5058 6.49997 54.6773C9.18825 56.178 12.6141 57.3016 16.2446 58.1588C23.6167 59.8995 33.4457 60.9087 44.0548 60.9087V46.9087ZM14 45.1597C14 47.4025 12.6091 48.362 12.8857 48.1433C13.0634 48.0027 13.7552 47.5634 15.2854 47.0022C18.2706 45.9073 22.9367 44.887 28.8991 44.2151L27.3316 30.3032C20.8068 31.0384 14.9153 32.226 10.4645 33.8584C8.27682 34.6608 6.03116 35.715 4.20083 37.1627C2.46942 38.5321 0 41.1745 0 45.1597H14ZM35.109 37.5589C35.3129 32.7999 39.2419 29 44.0547 29V15C31.7107 15 21.6455 24.7408 21.1218 36.9594L35.109 37.5589ZM44.0547 29C48.8674 29 52.7964 32.7999 53.0004 37.5589L66.9875 36.9593C66.4638 24.7408 56.3986 15 44.0547 15V29Z" fill="black" mask="url(#path-11-outside-3)"/>
<mask id="path-13-outside-4" maskUnits="userSpaceOnUse" x="0" y="15.7192" width="89" height="46" fill="black">
<rect fill="white" y="15.7192" width="89" height="46"/>
<path fill-rule="evenodd" clip-rule="evenodd" d="M59.994 37.9784C72.4814 39.3854 81.1096 42.3942 81.1096 45.8789C81.1096 50.7109 64.5196 54.628 44.0548 54.628C23.59 54.628 7 50.7109 7 45.8789C7 42.3942 15.6281 39.3854 28.1154 37.9784C28.4792 29.4896 35.4763 22.7192 44.0547 22.7192C52.633 22.7192 59.6301 29.4896 59.994 37.9784Z"/>
</mask>
<path d="M59.994 37.9784L53.0004 38.2781L53.2569 44.2636L59.2102 44.9343L59.994 37.9784ZM28.1154 37.9784L28.8991 44.9344L34.8524 44.2636L35.109 38.2782L28.1154 37.9784ZM59.2102 44.9343C65.1727 45.6062 69.839 46.6265 72.8242 47.7214C74.3544 48.2827 75.0463 48.722 75.224 48.8625C75.5006 49.0813 74.1096 48.1218 74.1096 45.8789H88.1096C88.1096 41.8937 85.6402 39.2513 83.9088 37.8819C82.0784 36.4342 79.8327 35.38 77.645 34.5776C73.1942 32.9452 67.3026 31.7576 60.7777 31.0224L59.2102 44.9343ZM74.1096 45.8789C74.1096 42.8863 76.4372 42.2503 74.7857 43.1723C73.7238 43.765 71.7231 44.5267 68.648 45.2527C62.6089 46.6786 53.9105 47.628 44.0548 47.628V61.628C54.664 61.628 64.493 60.6187 71.8651 58.8781C75.4956 58.0209 78.9214 56.8972 81.6097 55.3966C83.7083 54.2251 88.1096 51.2875 88.1096 45.8789H74.1096ZM44.0548 47.628C34.1991 47.628 25.5008 46.6786 19.4617 45.2527C16.3866 44.5267 14.3858 43.765 13.3239 43.1723C11.6724 42.2503 14 42.8863 14 45.8789H0C0 51.2875 4.40134 54.2251 6.49997 55.3966C9.18825 56.8972 12.6141 58.0209 16.2446 58.8781C23.6167 60.6187 33.4457 61.628 44.0548 61.628V47.628ZM14 45.8789C14 48.1218 12.6091 49.0813 12.8857 48.8625C13.0634 48.722 13.7552 48.2827 15.2854 47.7214C18.2706 46.6265 22.9367 45.6062 28.8991 44.9344L27.3316 31.0224C20.8068 31.7576 14.9153 32.9452 10.4645 34.5776C8.27682 35.38 6.03116 36.4343 4.20083 37.8819C2.46942 39.2513 0 41.8937 0 45.8789H14ZM35.109 38.2782C35.3129 33.5191 39.2419 29.7192 44.0547 29.7192V15.7192C31.7107 15.7192 21.6455 25.4601 21.1218 37.6786L35.109 38.2782ZM44.0547 29.7192C48.8674 29.7192 52.7964 33.5191 53.0004 38.2781L66.9875 37.6786C66.4638 25.46 56.3986 15.7192 44.0547 15.7192V29.7192Z" fill="black" mask="url(#path-13-outside-4)"/>
<circle cx="80.0538" cy="70.9542" r="15.9542" fill="#00E0FF"/>
<ellipse cx="80.0548" cy="78.1597" rx="37.0548" ry="8.74906" fill="#A5A5A5"/>
<ellipse rx="27.7012" ry="6.4756" transform="matrix(1 0 0 -1 80.0547 81.8721)" fill="#D3D3D3"/>
<mask id="path-18-outside-5" maskUnits="userSpaceOnUse" x="36" y="48" width="89" height="46" fill="black">
<rect fill="white" x="36" y="48" width="89" height="46"/>
<path fill-rule="evenodd" clip-rule="evenodd" d="M95.994 70.2591C108.481 71.6661 117.11 74.675 117.11 78.1597C117.11 82.9916 100.52 86.9087 80.0548 86.9087C59.59 86.9087 43 82.9916 43 78.1597C43 74.675 51.6281 71.6662 64.1154 70.2592C64.4792 61.7704 71.4763 55 80.0547 55C88.633 55 95.6301 61.7703 95.994 70.2591Z"/>
</mask>
<path d="M95.994 70.2591L89.0004 70.5589L89.2569 76.5443L95.2102 77.2151L95.994 70.2591ZM64.1154 70.2592L64.8991 77.2151L70.8524 76.5444L71.109 70.5589L64.1154 70.2592ZM95.2102 77.2151C101.173 77.8869 105.839 78.9073 108.824 80.0022C110.354 80.5634 111.046 81.0027 111.224 81.1433C111.501 81.362 110.11 80.4025 110.11 78.1597H124.11C124.11 74.1744 121.64 71.5321 119.909 70.1626C118.078 68.715 115.833 67.6608 113.645 66.8584C109.194 65.2259 103.303 64.0383 96.7777 63.3031L95.2102 77.2151ZM110.11 78.1597C110.11 75.167 112.437 74.5311 110.786 75.453C109.724 76.0458 107.723 76.8074 104.648 77.5335C98.6089 78.9594 89.9105 79.9087 80.0548 79.9087V93.9087C90.664 93.9087 100.493 92.8995 107.865 91.1588C111.496 90.3016 114.921 89.178 117.61 87.6773C119.708 86.5058 124.11 83.5683 124.11 78.1597H110.11ZM80.0548 79.9087C70.1991 79.9087 61.5008 78.9594 55.4617 77.5335C52.3866 76.8074 50.3858 76.0458 49.3239 75.453C47.6724 74.5311 50 75.167 50 78.1597H36C36 83.5683 40.4013 86.5058 42.5 87.6773C45.1882 89.178 48.6141 90.3016 52.2446 91.1588C59.6167 92.8995 69.4457 93.9087 80.0548 93.9087V79.9087ZM50 78.1597C50 80.4025 48.6091 81.362 48.8857 81.1433C49.0634 81.0027 49.7552 80.5634 51.2854 80.0022C54.2706 78.9073 58.9367 77.887 64.8991 77.2151L63.3316 63.3032C56.8068 64.0384 50.9153 65.226 46.4645 66.8584C44.2768 67.6608 42.0312 68.715 40.2008 70.1627C38.4694 71.5321 36 74.1745 36 78.1597H50ZM71.109 70.5589C71.3129 65.7999 75.2419 62 80.0547 62V48C67.7107 48 57.6455 57.7408 57.1218 69.9594L71.109 70.5589ZM80.0547 62C84.8674 62 88.7964 65.7999 89.0004 70.5589L102.988 69.9593C102.464 57.7408 92.3986 48 80.0547 48V62Z" fill="black" mask="url(#path-18-outside-5)"/>
<mask id="path-20-outside-6" maskUnits="userSpaceOnUse" x="36" y="48.7192" width="89" height="46" fill="black">
<rect fill="white" x="36" y="48.7192" width="89" height="46"/>
<path fill-rule="evenodd" clip-rule="evenodd" d="M95.994 70.9784C108.481 72.3854 117.11 75.3942 117.11 78.8789C117.11 83.7109 100.52 87.628 80.0548 87.628C59.59 87.628 43 83.7109 43 78.8789C43 75.3942 51.6281 72.3854 64.1154 70.9784C64.4792 62.4896 71.4763 55.7192 80.0547 55.7192C88.633 55.7192 95.6301 62.4896 95.994 70.9784Z"/>
</mask>
<path d="M95.994 70.9784L89.0004 71.2781L89.2569 77.2636L95.2102 77.9343L95.994 70.9784ZM64.1154 70.9784L64.8991 77.9344L70.8524 77.2636L71.109 71.2782L64.1154 70.9784ZM95.2102 77.9343C101.173 78.6062 105.839 79.6265 108.824 80.7214C110.354 81.2827 111.046 81.722 111.224 81.8625C111.501 82.0813 110.11 81.1218 110.11 78.8789H124.11C124.11 74.8937 121.64 72.2513 119.909 70.8819C118.078 69.4342 115.833 68.38 113.645 67.5776C109.194 65.9452 103.303 64.7576 96.7777 64.0224L95.2102 77.9343ZM110.11 78.8789C110.11 75.8863 112.437 75.2503 110.786 76.1723C109.724 76.765 107.723 77.5267 104.648 78.2527C98.6089 79.6786 89.9105 80.628 80.0548 80.628V94.628C90.664 94.628 100.493 93.6187 107.865 91.8781C111.496 91.0209 114.921 89.8972 117.61 88.3966C119.708 87.2251 124.11 84.2875 124.11 78.8789H110.11ZM80.0548 80.628C70.1991 80.628 61.5008 79.6786 55.4617 78.2527C52.3866 77.5267 50.3858 76.765 49.3239 76.1723C47.6724 75.2503 50 75.8863 50 78.8789H36C36 84.2875 40.4013 87.2251 42.5 88.3966C45.1882 89.8972 48.6141 91.0209 52.2446 91.8781C59.6167 93.6187 69.4457 94.628 80.0548 94.628V80.628ZM50 78.8789C50 81.1218 48.6091 82.0813 48.8857 81.8625C49.0634 81.722 49.7552 81.2827 51.2854 80.7214C54.2706 79.6265 58.9367 78.6062 64.8991 77.9344L63.3316 64.0224C56.8068 64.7576 50.9153 65.9452 46.4645 67.5776C44.2768 68.38 42.0312 69.4343 40.2008 70.8819C38.4694 72.2513 36 74.8937 36 78.8789H50ZM71.109 71.2782C71.3129 66.5191 75.2419 62.7192 80.0547 62.7192V48.7192C67.7107 48.7192 57.6455 58.4601 57.1218 70.6786L71.109 71.2782ZM80.0547 62.7192C84.8674 62.7192 88.7964 66.5191 89.0004 71.2781L102.988 70.6786C102.464 58.46 92.3986 48.7192 80.0547 48.7192V62.7192Z" fill="black" mask="url(#path-20-outside-6)"/>
</svg>
