<svg width="143" height="88" viewBox="0 0 143 88" fill="none" xmlns="http://www.w3.org/2000/svg">
<path fill-rule="evenodd" clip-rule="evenodd" d="M84.1946 21.2359C83.9449 21.8386 83.3674 22.2498 82.7151 22.2498H79.3293C76.9383 22.2498 75 24.1881 75 26.5791V35.4023C75 37.7933 76.9383 39.7316 79.3293 39.7316H131.671C134.062 39.7316 136 37.7933 136 35.4023V26.5791C136 24.1881 134.062 22.2498 131.671 22.2498H128.285C127.633 22.2498 127.055 21.8386 126.806 21.2359C125.647 18.438 123.948 15.8958 121.807 13.7544C119.665 11.613 117.123 9.91433 114.325 8.75541C111.527 7.59649 108.529 7 105.5 7C102.472 7 99.473 7.59649 96.6751 8.75541C93.8772 9.91434 91.335 11.613 89.1936 13.7544C87.0522 15.8958 85.3535 18.438 84.1946 21.2359Z" fill="#FF0000"/>
<path d="M123.112 28.9083C123.112 26.5954 122.657 24.3051 121.771 22.1682C120.886 20.0314 119.589 18.0898 117.953 16.4543C116.318 14.8188 114.376 13.5214 112.239 12.6363C110.103 11.7512 107.812 11.2956 105.499 11.2956C103.186 11.2956 100.896 11.7512 98.7593 12.6363C96.6224 13.5215 94.6808 14.8188 93.0454 16.4543C91.4099 18.0898 90.1125 20.0314 89.2274 22.1682C88.3423 24.3051 87.8867 26.5954 87.8867 28.9083L105.499 28.9083H123.112Z" fill="#00E0FF"/>
<rect x="75" y="22.25" width="61" height="17.4817" fill="#FF0000"/>
<circle cx="91.3657" cy="39.7324" r="7.81098" fill="#A5A5A5"/>
<circle cx="120.377" cy="39.7324" r="7.81098" fill="#A5A5A5"/>
<mask id="path-6-outside-1" maskUnits="userSpaceOnUse" x="68" y="0" width="75" height="55" fill="black">
<rect fill="white" x="68" width="75" height="55"/>
<path fill-rule="evenodd" clip-rule="evenodd" d="M84.1944 21.2359C83.9447 21.8386 83.3672 22.2498 82.7149 22.2498H79.3293C76.9383 22.2498 75 24.1881 75 26.5791V35.4023C75 37.7933 76.9383 39.7316 79.3293 39.7316H83.5546V39.7322C83.5546 44.0461 87.0517 47.5432 91.3656 47.5432C95.6795 47.5432 99.1766 44.0461 99.1766 39.7322V39.7316H112.567C112.567 39.7318 112.567 39.732 112.567 39.7322C112.567 44.0461 116.064 47.5432 120.378 47.5432C124.692 47.5432 128.189 44.0461 128.189 39.7322C128.189 39.732 128.189 39.7318 128.189 39.7316H131.671C134.062 39.7316 136 37.7933 136 35.4023V26.5791C136 24.1881 134.062 22.2498 131.671 22.2498H128.285C127.633 22.2498 127.055 21.8386 126.805 21.2359C125.647 18.438 123.948 15.8958 121.806 13.7544C119.665 11.613 117.123 9.91433 114.325 8.75541C111.527 7.59649 108.528 7 105.5 7C102.472 7 99.4728 7.59649 96.6749 8.75541C93.877 9.91434 91.3348 11.613 89.1933 13.7544C87.0519 15.8958 85.3533 18.438 84.1944 21.2359Z"/>
</mask>
<path d="M84.1944 21.2359L77.7272 18.5571L77.7272 18.5571L84.1944 21.2359ZM83.5546 39.7316H90.5546C90.5546 35.8656 87.4206 32.7316 83.5546 32.7316V39.7316ZM99.1766 39.7316V32.7316C95.3106 32.7316 92.1766 35.8656 92.1766 39.7316H99.1766ZM112.567 39.7316H119.567C119.567 35.8656 116.433 32.7316 112.567 32.7316V39.7316ZM128.189 39.7316V32.7316C124.323 32.7316 121.189 35.8656 121.189 39.7316H128.189ZM126.805 21.2359L133.273 18.5571L133.273 18.5571L126.805 21.2359ZM121.806 13.7544L126.756 8.80465V8.80465L121.806 13.7544ZM114.325 8.75541L117.004 2.28826L117.004 2.28825L114.325 8.75541ZM96.6749 8.75541L99.3537 15.2226H99.3537L96.6749 8.75541ZM89.1933 13.7544L94.1431 18.7042H94.1431L89.1933 13.7544ZM82.7149 29.2498C86.3852 29.2498 89.4017 26.9562 90.6615 23.9147L77.7272 18.5571C78.4877 16.721 80.3492 15.2498 82.7149 15.2498V29.2498ZM79.3293 29.2498H82.7149V15.2498H79.3293V29.2498ZM82 26.5791C82 28.0541 80.8043 29.2498 79.3293 29.2498V15.2498C73.0723 15.2498 68 20.3221 68 26.5791H82ZM82 35.4023V26.5791H68V35.4023H82ZM79.3293 32.7316C80.8043 32.7316 82 33.9273 82 35.4023H68C68 41.6593 73.0723 46.7316 79.3293 46.7316V32.7316ZM83.5546 32.7316H79.3293V46.7316H83.5546V32.7316ZM90.5546 39.7322V39.7316H76.5546V39.7322H90.5546ZM91.3656 40.5432C90.9177 40.5432 90.5546 40.1801 90.5546 39.7322H76.5546C76.5546 47.9121 83.1857 54.5432 91.3656 54.5432V40.5432ZM92.1766 39.7322C92.1766 40.1801 91.8135 40.5432 91.3656 40.5432V54.5432C99.5455 54.5432 106.177 47.9121 106.177 39.7322H92.1766ZM92.1766 39.7316V39.7322H106.177V39.7316H92.1766ZM112.567 32.7316H99.1766V46.7316H112.567V32.7316ZM119.567 39.7322V39.7322V39.7322V39.7322C119.567 39.7322 119.567 39.7322 119.567 39.7322C119.567 39.7322 119.567 39.7322 119.567 39.7322C119.567 39.7322 119.567 39.7322 119.567 39.7322C119.567 39.7322 119.567 39.7322 119.567 39.7322C119.567 39.7322 119.567 39.7322 119.567 39.7322C119.567 39.7322 119.567 39.7322 119.567 39.7322C119.567 39.7322 119.567 39.7322 119.567 39.7322C119.567 39.7321 119.567 39.7321 119.567 39.7321C119.567 39.7321 119.567 39.7321 119.567 39.7321C119.567 39.7321 119.567 39.7321 119.567 39.7321C119.567 39.7321 119.567 39.7321 119.567 39.7321C119.567 39.7321 119.567 39.7321 119.567 39.7321C119.567 39.7321 119.567 39.7321 119.567 39.7321V39.7321V39.7321V39.7321V39.7321V39.7321V39.7321C119.567 39.7321 119.567 39.7321 119.567 39.7321C119.567 39.7321 119.567 39.7321 119.567 39.7321C119.567 39.7321 119.567 39.7321 119.567 39.7321C119.567 39.7321 119.567 39.7321 119.567 39.7321C119.567 39.7321 119.567 39.7321 119.567 39.7321C119.567 39.7321 119.567 39.7321 119.567 39.7321C119.567 39.7321 119.567 39.7321 119.567 39.7321C119.567 39.7321 119.567 39.7321 119.567 39.7321C119.567 39.7321 119.567 39.7321 119.567 39.7321C119.567 39.7321 119.567 39.7321 119.567 39.7321V39.7321V39.7321V39.7321V39.7321V39.732C119.567 39.732 119.567 39.732 119.567 39.732C119.567 39.732 119.567 39.732 119.567 39.732C119.567 39.732 119.567 39.732 119.567 39.732C119.567 39.732 119.567 39.732 119.567 39.732C119.567 39.732 119.567 39.732 119.567 39.732C119.567 39.732 119.567 39.732 119.567 39.732C119.567 39.732 119.567 39.732 119.567 39.732C119.567 39.732 119.567 39.732 119.567 39.732C119.567 39.732 119.567 39.732 119.567 39.732C119.567 39.732 119.567 39.732 119.567 39.732V39.732V39.732V39.732V39.732V39.732C119.567 39.732 119.567 39.732 119.567 39.732C119.567 39.732 119.567 39.732 119.567 39.732C119.567 39.732 119.567 39.732 119.567 39.732C119.567 39.732 119.567 39.732 119.567 39.732C119.567 39.732 119.567 39.732 119.567 39.732C119.567 39.732 119.567 39.732 119.567 39.732C119.567 39.732 119.567 39.732 119.567 39.732C119.567 39.732 119.567 39.732 119.567 39.732C119.567 39.732 119.567 39.732 119.567 39.732V39.732V39.7319V39.7319V39.7319V39.7319C119.567 39.7319 119.567 39.7319 119.567 39.7319C119.567 39.7319 119.567 39.7319 119.567 39.7319C119.567 39.7319 119.567 39.7319 119.567 39.7319C119.567 39.7319 119.567 39.7319 119.567 39.7319C119.567 39.7319 119.567 39.7319 119.567 39.7319C119.567 39.7319 119.567 39.7319 119.567 39.7319C119.567 39.7319 119.567 39.7319 119.567 39.7319C119.567 39.7319 119.567 39.7319 119.567 39.7319C119.567 39.7319 119.567 39.7319 119.567 39.7319V39.7319V39.7319V39.7319V39.7319C119.567 39.7319 119.567 39.7319 119.567 39.7319C119.567 39.7319 119.567 39.7319 119.567 39.7319C119.567 39.7319 119.567 39.7319 119.567 39.7319C119.567 39.7319 119.567 39.7319 119.567 39.7319C119.567 39.7319 119.567 39.7319 119.567 39.7319C119.567 39.7319 119.567 39.7319 119.567 39.7319C119.567 39.7319 119.567 39.7319 119.567 39.7319C119.567 39.7319 119.567 39.7319 119.567 39.7319C119.567 39.7319 119.567 39.7319 119.567 39.7319V39.7318V39.7318V39.7318V39.7318C119.567 39.7318 119.567 39.7318 119.567 39.7318C119.567 39.7318 119.567 39.7318 119.567 39.7318C119.567 39.7318 119.567 39.7318 119.567 39.7318C119.567 39.7318 119.567 39.7318 119.567 39.7318C119.567 39.7318 119.567 39.7318 119.567 39.7318C119.567 39.7318 119.567 39.7318 119.567 39.7318C119.567 39.7318 119.567 39.7318 119.567 39.7318C119.567 39.7318 119.567 39.7318 119.567 39.7318C119.567 39.7318 119.567 39.7318 119.567 39.7318V39.7318V39.7318V39.7318V39.7318V39.7318C119.567 39.7318 119.567 39.7318 119.567 39.7318C119.567 39.7318 119.567 39.7318 119.567 39.7318C119.567 39.7318 119.567 39.7318 119.567 39.7318C119.567 39.7318 119.567 39.7318 119.567 39.7318C119.567 39.7318 119.567 39.7318 119.567 39.7318C119.567 39.7318 119.567 39.7318 119.567 39.7318C119.567 39.7318 119.567 39.7318 119.567 39.7318C119.567 39.7318 119.567 39.7318 119.567 39.7318C119.567 39.7318 119.567 39.7318 119.567 39.7318V39.7317V39.7317V39.7317V39.7317V39.7317C119.567 39.7317 119.567 39.7317 119.567 39.7317C119.567 39.7317 119.567 39.7317 119.567 39.7317C119.567 39.7317 119.567 39.7317 119.567 39.7317C119.567 39.7317 119.567 39.7317 119.567 39.7317C119.567 39.7317 119.567 39.7317 119.567 39.7317C119.567 39.7317 119.567 39.7317 119.567 39.7317C119.567 39.7317 119.567 39.7317 119.567 39.7317C119.567 39.7317 119.567 39.7317 119.567 39.7317C119.567 39.7317 119.567 39.7317 119.567 39.7317C119.567 39.7317 119.567 39.7317 119.567 39.7317V39.7317V39.7317V39.7317V39.7317V39.7317C119.567 39.7317 119.567 39.7317 119.567 39.7317C119.567 39.7317 119.567 39.7317 119.567 39.7317C119.567 39.7317 119.567 39.7317 119.567 39.7317C119.567 39.7317 119.567 39.7317 119.567 39.7317C119.567 39.7317 119.567 39.7317 119.567 39.7317C119.567 39.7317 119.567 39.7317 119.567 39.7317C119.567 39.7316 119.567 39.7316 119.567 39.7316C119.567 39.7316 119.567 39.7316 119.567 39.7316C119.567 39.7316 119.567 39.7316 119.567 39.7316C119.567 39.7316 119.567 39.7316 119.567 39.7316V39.7316V39.7316V39.7316V39.7316V39.7316V39.7316C119.567 39.7316 119.567 39.7316 119.567 39.7316C119.567 39.7316 119.567 39.7316 119.567 39.7316C119.567 39.7316 119.567 39.7316 119.567 39.7316C119.567 39.7316 119.567 39.7316 119.567 39.7316C119.567 39.7316 119.567 39.7316 119.567 39.7316C119.567 39.7316 119.567 39.7316 119.567 39.7316C119.567 39.7316 119.567 39.7316 119.567 39.7316C119.567 39.7316 119.567 39.7316 119.567 39.7316C119.567 39.7316 119.567 39.7316 119.567 39.7316C119.567 39.7316 119.567 39.7316 119.567 39.7316C119.567 39.7316 119.567 39.7316 119.567 39.7316C119.567 39.7316 119.567 39.7316 119.567 39.7316C119.567 39.7316 119.567 39.7316 119.567 39.7316V39.7316V39.7316V39.7316H105.567V39.7316V39.7316V39.7316C105.567 39.7316 105.567 39.7316 105.567 39.7316C105.567 39.7316 105.567 39.7316 105.567 39.7316C105.567 39.7316 105.567 39.7316 105.567 39.7316C105.567 39.7316 105.567 39.7316 105.567 39.7316C105.567 39.7316 105.567 39.7316 105.567 39.7316C105.567 39.7316 105.567 39.7316 105.567 39.7316C105.567 39.7316 105.567 39.7316 105.567 39.7316C105.567 39.7316 105.567 39.7316 105.567 39.7316C105.567 39.7316 105.567 39.7316 105.567 39.7316C105.567 39.7316 105.567 39.7316 105.567 39.7316C105.567 39.7316 105.567 39.7316 105.567 39.7316C105.567 39.7316 105.567 39.7316 105.567 39.7316C105.567 39.7316 105.567 39.7316 105.567 39.7316V39.7316V39.7316V39.7316V39.7316V39.7316V39.7316C105.567 39.7316 105.567 39.7316 105.567 39.7316C105.567 39.7316 105.567 39.7316 105.567 39.7316C105.567 39.7316 105.567 39.7316 105.567 39.7316C105.567 39.7316 105.567 39.7316 105.567 39.7317C105.567 39.7317 105.567 39.7317 105.567 39.7317C105.567 39.7317 105.567 39.7317 105.567 39.7317C105.567 39.7317 105.567 39.7317 105.567 39.7317C105.567 39.7317 105.567 39.7317 105.567 39.7317C105.567 39.7317 105.567 39.7317 105.567 39.7317C105.567 39.7317 105.567 39.7317 105.567 39.7317V39.7317V39.7317V39.7317V39.7317V39.7317C105.567 39.7317 105.567 39.7317 105.567 39.7317C105.567 39.7317 105.567 39.7317 105.567 39.7317C105.567 39.7317 105.567 39.7317 105.567 39.7317C105.567 39.7317 105.567 39.7317 105.567 39.7317C105.567 39.7317 105.567 39.7317 105.567 39.7317C105.567 39.7317 105.567 39.7317 105.567 39.7317C105.567 39.7317 105.567 39.7317 105.567 39.7317C105.567 39.7317 105.567 39.7317 105.567 39.7317C105.567 39.7317 105.567 39.7317 105.567 39.7317C105.567 39.7317 105.567 39.7317 105.567 39.7317V39.7317V39.7317V39.7317V39.7317V39.7318C105.567 39.7318 105.567 39.7318 105.567 39.7318C105.567 39.7318 105.567 39.7318 105.567 39.7318C105.567 39.7318 105.567 39.7318 105.567 39.7318C105.567 39.7318 105.567 39.7318 105.567 39.7318C105.567 39.7318 105.567 39.7318 105.567 39.7318C105.567 39.7318 105.567 39.7318 105.567 39.7318C105.567 39.7318 105.567 39.7318 105.567 39.7318C105.567 39.7318 105.567 39.7318 105.567 39.7318C105.567 39.7318 105.567 39.7318 105.567 39.7318V39.7318V39.7318V39.7318V39.7318V39.7318C105.567 39.7318 105.567 39.7318 105.567 39.7318C105.567 39.7318 105.567 39.7318 105.567 39.7318C105.567 39.7318 105.567 39.7318 105.567 39.7318C105.567 39.7318 105.567 39.7318 105.567 39.7318C105.567 39.7318 105.567 39.7318 105.567 39.7318C105.567 39.7318 105.567 39.7318 105.567 39.7318C105.567 39.7318 105.567 39.7318 105.567 39.7318C105.567 39.7318 105.567 39.7318 105.567 39.7318C105.567 39.7318 105.567 39.7318 105.567 39.7318V39.7318V39.7318V39.7318V39.7319C105.567 39.7319 105.567 39.7319 105.567 39.7319C105.567 39.7319 105.567 39.7319 105.567 39.7319C105.567 39.7319 105.567 39.7319 105.567 39.7319C105.567 39.7319 105.567 39.7319 105.567 39.7319C105.567 39.7319 105.567 39.7319 105.567 39.7319C105.567 39.7319 105.567 39.7319 105.567 39.7319C105.567 39.7319 105.567 39.7319 105.567 39.7319C105.567 39.7319 105.567 39.7319 105.567 39.7319C105.567 39.7319 105.567 39.7319 105.567 39.7319V39.7319V39.7319V39.7319V39.7319C105.567 39.7319 105.567 39.7319 105.567 39.7319C105.567 39.7319 105.567 39.7319 105.567 39.7319C105.567 39.7319 105.567 39.7319 105.567 39.7319C105.567 39.7319 105.567 39.7319 105.567 39.7319C105.567 39.7319 105.567 39.7319 105.567 39.7319C105.567 39.7319 105.567 39.7319 105.567 39.7319C105.567 39.7319 105.567 39.7319 105.567 39.7319C105.567 39.7319 105.567 39.7319 105.567 39.7319C105.567 39.7319 105.567 39.7319 105.567 39.7319V39.7319V39.7319V39.7319V39.732V39.732C105.567 39.732 105.567 39.732 105.567 39.732C105.567 39.732 105.567 39.732 105.567 39.732C105.567 39.732 105.567 39.732 105.567 39.732C105.567 39.732 105.567 39.732 105.567 39.732C105.567 39.732 105.567 39.732 105.567 39.732C105.567 39.732 105.567 39.732 105.567 39.732C105.567 39.732 105.567 39.732 105.567 39.732C105.567 39.732 105.567 39.732 105.567 39.732C105.567 39.732 105.567 39.732 105.567 39.732V39.732V39.732V39.732V39.732V39.732C105.567 39.732 105.567 39.732 105.567 39.732C105.567 39.732 105.567 39.732 105.567 39.732C105.567 39.732 105.567 39.732 105.567 39.732C105.567 39.732 105.567 39.732 105.567 39.732C105.567 39.732 105.567 39.732 105.567 39.732C105.567 39.732 105.567 39.732 105.567 39.732C105.567 39.732 105.567 39.732 105.567 39.732C105.567 39.732 105.567 39.732 105.567 39.732C105.567 39.732 105.567 39.732 105.567 39.732C105.567 39.732 105.567 39.732 105.567 39.732V39.7321V39.7321V39.7321V39.7321V39.7321C105.567 39.7321 105.567 39.7321 105.567 39.7321C105.567 39.7321 105.567 39.7321 105.567 39.7321C105.567 39.7321 105.567 39.7321 105.567 39.7321C105.567 39.7321 105.567 39.7321 105.567 39.7321C105.567 39.7321 105.567 39.7321 105.567 39.7321C105.567 39.7321 105.567 39.7321 105.567 39.7321C105.567 39.7321 105.567 39.7321 105.567 39.7321C105.567 39.7321 105.567 39.7321 105.567 39.7321C105.567 39.7321 105.567 39.7321 105.567 39.7321C105.567 39.7321 105.567 39.7321 105.567 39.7321V39.7321V39.7321V39.7321V39.7321V39.7321V39.7321C105.567 39.7321 105.567 39.7321 105.567 39.7321C105.567 39.7321 105.567 39.7321 105.567 39.7321C105.567 39.7321 105.567 39.7321 105.567 39.7321C105.567 39.7321 105.567 39.7321 105.567 39.7321C105.567 39.7321 105.567 39.7321 105.567 39.7321C105.567 39.7321 105.567 39.7321 105.567 39.7322C105.567 39.7322 105.567 39.7322 105.567 39.7322C105.567 39.7322 105.567 39.7322 105.567 39.7322C105.567 39.7322 105.567 39.7322 105.567 39.7322C105.567 39.7322 105.567 39.7322 105.567 39.7322C105.567 39.7322 105.567 39.7322 105.567 39.7322C105.567 39.7322 105.567 39.7322 105.567 39.7322C105.567 39.7322 105.567 39.7322 105.567 39.7322V39.7322V39.7322V39.7322H119.567ZM120.378 40.5432C119.93 40.5432 119.567 40.1801 119.567 39.7322H105.567C105.567 47.9121 112.198 54.5432 120.378 54.5432V40.5432ZM121.189 39.7322C121.189 40.1801 120.826 40.5432 120.378 40.5432V54.5432C128.558 54.5432 135.189 47.9121 135.189 39.7322H121.189ZM121.189 39.7316V39.7316V39.7316V39.7316C121.189 39.7316 121.189 39.7316 121.189 39.7316C121.189 39.7316 121.189 39.7316 121.189 39.7316C121.189 39.7316 121.189 39.7316 121.189 39.7316C121.189 39.7316 121.189 39.7316 121.189 39.7316C121.189 39.7316 121.189 39.7316 121.189 39.7316C121.189 39.7316 121.189 39.7316 121.189 39.7316C121.189 39.7316 121.189 39.7316 121.189 39.7316C121.189 39.7316 121.189 39.7316 121.189 39.7316C121.189 39.7316 121.189 39.7316 121.189 39.7316C121.189 39.7316 121.189 39.7316 121.189 39.7316C121.189 39.7316 121.189 39.7316 121.189 39.7316C121.189 39.7316 121.189 39.7316 121.189 39.7316C121.189 39.7316 121.189 39.7316 121.189 39.7316V39.7316V39.7316V39.7316V39.7316V39.7316V39.7316C121.189 39.7316 121.189 39.7316 121.189 39.7316C121.189 39.7316 121.189 39.7316 121.189 39.7316C121.189 39.7316 121.189 39.7316 121.189 39.7316C121.189 39.7316 121.189 39.7316 121.189 39.7317C121.189 39.7317 121.189 39.7317 121.189 39.7317C121.189 39.7317 121.189 39.7317 121.189 39.7317C121.189 39.7317 121.189 39.7317 121.189 39.7317C121.189 39.7317 121.189 39.7317 121.189 39.7317C121.189 39.7317 121.189 39.7317 121.189 39.7317C121.189 39.7317 121.189 39.7317 121.189 39.7317V39.7317V39.7317V39.7317V39.7317V39.7317C121.189 39.7317 121.189 39.7317 121.189 39.7317C121.189 39.7317 121.189 39.7317 121.189 39.7317C121.189 39.7317 121.189 39.7317 121.189 39.7317C121.189 39.7317 121.189 39.7317 121.189 39.7317C121.189 39.7317 121.189 39.7317 121.189 39.7317C121.189 39.7317 121.189 39.7317 121.189 39.7317C121.189 39.7317 121.189 39.7317 121.189 39.7317C121.189 39.7317 121.189 39.7317 121.189 39.7317C121.189 39.7317 121.189 39.7317 121.189 39.7317C121.189 39.7317 121.189 39.7317 121.189 39.7317V39.7317V39.7317V39.7317V39.7317V39.7318C121.189 39.7318 121.189 39.7318 121.189 39.7318C121.189 39.7318 121.189 39.7318 121.189 39.7318C121.189 39.7318 121.189 39.7318 121.189 39.7318C121.189 39.7318 121.189 39.7318 121.189 39.7318C121.189 39.7318 121.189 39.7318 121.189 39.7318C121.189 39.7318 121.189 39.7318 121.189 39.7318C121.189 39.7318 121.189 39.7318 121.189 39.7318C121.189 39.7318 121.189 39.7318 121.189 39.7318C121.189 39.7318 121.189 39.7318 121.189 39.7318V39.7318V39.7318V39.7318V39.7318V39.7318C121.189 39.7318 121.189 39.7318 121.189 39.7318C121.189 39.7318 121.189 39.7318 121.189 39.7318C121.189 39.7318 121.189 39.7318 121.189 39.7318C121.189 39.7318 121.189 39.7318 121.189 39.7318C121.189 39.7318 121.189 39.7318 121.189 39.7318C121.189 39.7318 121.189 39.7318 121.189 39.7318C121.189 39.7318 121.189 39.7318 121.189 39.7318C121.189 39.7318 121.189 39.7318 121.189 39.7318C121.189 39.7318 121.189 39.7318 121.189 39.7318V39.7318V39.7318V39.7318V39.7319C121.189 39.7319 121.189 39.7319 121.189 39.7319C121.189 39.7319 121.189 39.7319 121.189 39.7319C121.189 39.7319 121.189 39.7319 121.189 39.7319C121.189 39.7319 121.189 39.7319 121.189 39.7319C121.189 39.7319 121.189 39.7319 121.189 39.7319C121.189 39.7319 121.189 39.7319 121.189 39.7319C121.189 39.7319 121.189 39.7319 121.189 39.7319C121.189 39.7319 121.189 39.7319 121.189 39.7319C121.189 39.7319 121.189 39.7319 121.189 39.7319V39.7319V39.7319V39.7319V39.7319C121.189 39.7319 121.189 39.7319 121.189 39.7319C121.189 39.7319 121.189 39.7319 121.189 39.7319C121.189 39.7319 121.189 39.7319 121.189 39.7319C121.189 39.7319 121.189 39.7319 121.189 39.7319C121.189 39.7319 121.189 39.7319 121.189 39.7319C121.189 39.7319 121.189 39.7319 121.189 39.7319C121.189 39.7319 121.189 39.7319 121.189 39.7319C121.189 39.7319 121.189 39.7319 121.189 39.7319C121.189 39.7319 121.189 39.7319 121.189 39.7319V39.7319V39.7319V39.7319V39.732V39.732C121.189 39.732 121.189 39.732 121.189 39.732C121.189 39.732 121.189 39.732 121.189 39.732C121.189 39.732 121.189 39.732 121.189 39.732C121.189 39.732 121.189 39.732 121.189 39.732C121.189 39.732 121.189 39.732 121.189 39.732C121.189 39.732 121.189 39.732 121.189 39.732C121.189 39.732 121.189 39.732 121.189 39.732C121.189 39.732 121.189 39.732 121.189 39.732C121.189 39.732 121.189 39.732 121.189 39.732V39.732V39.732V39.732V39.732V39.732C121.189 39.732 121.189 39.732 121.189 39.732C121.189 39.732 121.189 39.732 121.189 39.732C121.189 39.732 121.189 39.732 121.189 39.732C121.189 39.732 121.189 39.732 121.189 39.732C121.189 39.732 121.189 39.732 121.189 39.732C121.189 39.732 121.189 39.732 121.189 39.732C121.189 39.732 121.189 39.732 121.189 39.732C121.189 39.732 121.189 39.732 121.189 39.732C121.189 39.732 121.189 39.732 121.189 39.732C121.189 39.732 121.189 39.732 121.189 39.732V39.7321V39.7321V39.7321V39.7321V39.7321C121.189 39.7321 121.189 39.7321 121.189 39.7321C121.189 39.7321 121.189 39.7321 121.189 39.7321C121.189 39.7321 121.189 39.7321 121.189 39.7321C121.189 39.7321 121.189 39.7321 121.189 39.7321C121.189 39.7321 121.189 39.7321 121.189 39.7321C121.189 39.7321 121.189 39.7321 121.189 39.7321C121.189 39.7321 121.189 39.7321 121.189 39.7321C121.189 39.7321 121.189 39.7321 121.189 39.7321C121.189 39.7321 121.189 39.7321 121.189 39.7321C121.189 39.7321 121.189 39.7321 121.189 39.7321V39.7321V39.7321V39.7321V39.7321V39.7321V39.7321C121.189 39.7321 121.189 39.7321 121.189 39.7321C121.189 39.7321 121.189 39.7321 121.189 39.7321C121.189 39.7321 121.189 39.7321 121.189 39.7321C121.189 39.7321 121.189 39.7321 121.189 39.7321C121.189 39.7321 121.189 39.7321 121.189 39.7321C121.189 39.7321 121.189 39.7321 121.189 39.7322C121.189 39.7322 121.189 39.7322 121.189 39.7322C121.189 39.7322 121.189 39.7322 121.189 39.7322C121.189 39.7322 121.189 39.7322 121.189 39.7322C121.189 39.7322 121.189 39.7322 121.189 39.7322C121.189 39.7322 121.189 39.7322 121.189 39.7322C121.189 39.7322 121.189 39.7322 121.189 39.7322C121.189 39.7322 121.189 39.7322 121.189 39.7322V39.7322V39.7322V39.7322H135.189V39.7322V39.7322V39.7322C135.189 39.7322 135.189 39.7322 135.189 39.7322C135.189 39.7322 135.189 39.7322 135.189 39.7322C135.189 39.7322 135.189 39.7322 135.189 39.7322C135.189 39.7322 135.189 39.7322 135.189 39.7322C135.189 39.7322 135.189 39.7322 135.189 39.7322C135.189 39.7322 135.189 39.7322 135.189 39.7322C135.189 39.7322 135.189 39.7322 135.189 39.7322C135.189 39.7321 135.189 39.7321 135.189 39.7321C135.189 39.7321 135.189 39.7321 135.189 39.7321C135.189 39.7321 135.189 39.7321 135.189 39.7321C135.189 39.7321 135.189 39.7321 135.189 39.7321C135.189 39.7321 135.189 39.7321 135.189 39.7321C135.189 39.7321 135.189 39.7321 135.189 39.7321V39.7321V39.7321V39.7321V39.7321V39.7321V39.7321C135.189 39.7321 135.189 39.7321 135.189 39.7321C135.189 39.7321 135.189 39.7321 135.189 39.7321C135.189 39.7321 135.189 39.7321 135.189 39.7321C135.189 39.7321 135.189 39.7321 135.189 39.7321C135.189 39.7321 135.189 39.7321 135.189 39.7321C135.189 39.7321 135.189 39.7321 135.189 39.7321C135.189 39.7321 135.189 39.7321 135.189 39.7321C135.189 39.7321 135.189 39.7321 135.189 39.7321C135.189 39.7321 135.189 39.7321 135.189 39.7321C135.189 39.7321 135.189 39.7321 135.189 39.7321V39.7321V39.7321V39.7321V39.7321V39.732C135.189 39.732 135.189 39.732 135.189 39.732C135.189 39.732 135.189 39.732 135.189 39.732C135.189 39.732 135.189 39.732 135.189 39.732C135.189 39.732 135.189 39.732 135.189 39.732C135.189 39.732 135.189 39.732 135.189 39.732C135.189 39.732 135.189 39.732 135.189 39.732C135.189 39.732 135.189 39.732 135.189 39.732C135.189 39.732 135.189 39.732 135.189 39.732C135.189 39.732 135.189 39.732 135.189 39.732C135.189 39.732 135.189 39.732 135.189 39.732V39.732V39.732V39.732V39.732V39.732C135.189 39.732 135.189 39.732 135.189 39.732C135.189 39.732 135.189 39.732 135.189 39.732C135.189 39.732 135.189 39.732 135.189 39.732C135.189 39.732 135.189 39.732 135.189 39.732C135.189 39.732 135.189 39.732 135.189 39.732C135.189 39.732 135.189 39.732 135.189 39.732C135.189 39.732 135.189 39.732 135.189 39.732C135.189 39.732 135.189 39.732 135.189 39.732C135.189 39.732 135.189 39.732 135.189 39.732V39.732V39.7319V39.7319V39.7319V39.7319C135.189 39.7319 135.189 39.7319 135.189 39.7319C135.189 39.7319 135.189 39.7319 135.189 39.7319C135.189 39.7319 135.189 39.7319 135.189 39.7319C135.189 39.7319 135.189 39.7319 135.189 39.7319C135.189 39.7319 135.189 39.7319 135.189 39.7319C135.189 39.7319 135.189 39.7319 135.189 39.7319C135.189 39.7319 135.189 39.7319 135.189 39.7319C135.189 39.7319 135.189 39.7319 135.189 39.7319C135.189 39.7319 135.189 39.7319 135.189 39.7319V39.7319V39.7319V39.7319V39.7319C135.189 39.7319 135.189 39.7319 135.189 39.7319C135.189 39.7319 135.189 39.7319 135.189 39.7319C135.189 39.7319 135.189 39.7319 135.189 39.7319C135.189 39.7319 135.189 39.7319 135.189 39.7319C135.189 39.7319 135.189 39.7319 135.189 39.7319C135.189 39.7319 135.189 39.7319 135.189 39.7319C135.189 39.7319 135.189 39.7319 135.189 39.7319C135.189 39.7319 135.189 39.7319 135.189 39.7319C135.189 39.7319 135.189 39.7319 135.189 39.7319V39.7318V39.7318V39.7318V39.7318C135.189 39.7318 135.189 39.7318 135.189 39.7318C135.189 39.7318 135.189 39.7318 135.189 39.7318C135.189 39.7318 135.189 39.7318 135.189 39.7318C135.189 39.7318 135.189 39.7318 135.189 39.7318C135.189 39.7318 135.189 39.7318 135.189 39.7318C135.189 39.7318 135.189 39.7318 135.189 39.7318C135.189 39.7318 135.189 39.7318 135.189 39.7318C135.189 39.7318 135.189 39.7318 135.189 39.7318C135.189 39.7318 135.189 39.7318 135.189 39.7318V39.7318V39.7318V39.7318V39.7318V39.7318C135.189 39.7318 135.189 39.7318 135.189 39.7318C135.189 39.7318 135.189 39.7318 135.189 39.7318C135.189 39.7318 135.189 39.7318 135.189 39.7318C135.189 39.7318 135.189 39.7318 135.189 39.7318C135.189 39.7318 135.189 39.7318 135.189 39.7318C135.189 39.7318 135.189 39.7318 135.189 39.7318C135.189 39.7318 135.189 39.7318 135.189 39.7318C135.189 39.7318 135.189 39.7318 135.189 39.7318C135.189 39.7318 135.189 39.7318 135.189 39.7318V39.7317V39.7317V39.7317V39.7317V39.7317C135.189 39.7317 135.189 39.7317 135.189 39.7317C135.189 39.7317 135.189 39.7317 135.189 39.7317C135.189 39.7317 135.189 39.7317 135.189 39.7317C135.189 39.7317 135.189 39.7317 135.189 39.7317C135.189 39.7317 135.189 39.7317 135.189 39.7317C135.189 39.7317 135.189 39.7317 135.189 39.7317C135.189 39.7317 135.189 39.7317 135.189 39.7317C135.189 39.7317 135.189 39.7317 135.189 39.7317C135.189 39.7317 135.189 39.7317 135.189 39.7317C135.189 39.7317 135.189 39.7317 135.189 39.7317V39.7317V39.7317V39.7317V39.7317V39.7317C135.189 39.7317 135.189 39.7317 135.189 39.7317C135.189 39.7317 135.189 39.7317 135.189 39.7317C135.189 39.7317 135.189 39.7317 135.189 39.7317C135.189 39.7317 135.189 39.7317 135.189 39.7317C135.189 39.7317 135.189 39.7317 135.189 39.7317C135.189 39.7317 135.189 39.7317 135.189 39.7317C135.189 39.7316 135.189 39.7316 135.189 39.7316C135.189 39.7316 135.189 39.7316 135.189 39.7316C135.189 39.7316 135.189 39.7316 135.189 39.7316C135.189 39.7316 135.189 39.7316 135.189 39.7316V39.7316V39.7316V39.7316V39.7316V39.7316V39.7316C135.189 39.7316 135.189 39.7316 135.189 39.7316C135.189 39.7316 135.189 39.7316 135.189 39.7316C135.189 39.7316 135.189 39.7316 135.189 39.7316C135.189 39.7316 135.189 39.7316 135.189 39.7316C135.189 39.7316 135.189 39.7316 135.189 39.7316C135.189 39.7316 135.189 39.7316 135.189 39.7316C135.189 39.7316 135.189 39.7316 135.189 39.7316C135.189 39.7316 135.189 39.7316 135.189 39.7316C135.189 39.7316 135.189 39.7316 135.189 39.7316C135.189 39.7316 135.189 39.7316 135.189 39.7316C135.189 39.7316 135.189 39.7316 135.189 39.7316C135.189 39.7316 135.189 39.7316 135.189 39.7316C135.189 39.7316 135.189 39.7316 135.189 39.7316V39.7316V39.7316V39.7316H121.189ZM131.671 32.7316H128.189V46.7316H131.671V32.7316ZM129 35.4023C129 33.9273 130.196 32.7316 131.671 32.7316V46.7316C137.928 46.7316 143 41.6593 143 35.4023H129ZM129 26.5791V35.4023H143V26.5791H129ZM131.671 29.2498C130.196 29.2498 129 28.0541 129 26.5791H143C143 20.3221 137.928 15.2498 131.671 15.2498V29.2498ZM128.285 29.2498H131.671V15.2498H128.285V29.2498ZM120.338 23.9147C121.598 26.9562 124.615 29.2498 128.285 29.2498V15.2498C130.651 15.2498 132.512 16.721 133.273 18.5571L120.338 23.9147ZM116.857 18.7042C118.348 20.1955 119.531 21.9661 120.338 23.9147L133.273 18.5571C131.762 14.91 129.548 11.5961 126.756 8.80465L116.857 18.7042ZM111.646 15.2226C113.595 16.0297 115.365 17.2128 116.857 18.7042L126.756 8.80465C123.965 6.01324 120.651 3.79896 117.004 2.28826L111.646 15.2226ZM105.5 14C107.609 14 109.698 14.4154 111.646 15.2226L117.004 2.28825C113.357 0.77755 109.448 0 105.5 0V14ZM99.3537 15.2226C101.302 14.4154 103.391 14 105.5 14V0C101.552 0 97.6432 0.777551 93.9961 2.28826L99.3537 15.2226ZM94.1431 18.7042C95.6345 17.2128 97.405 16.0297 99.3537 15.2226L93.9961 2.28826C90.3489 3.79896 87.035 6.01324 84.2436 8.80466L94.1431 18.7042ZM90.6615 23.9147C91.4687 21.9661 92.6517 20.1955 94.1431 18.7042L84.2436 8.80466C81.4522 11.5961 79.2379 14.91 77.7272 18.5571L90.6615 23.9147Z" fill="black" mask="url(#path-6-outside-1)"/>
<rect x="101.635" y="8.71826" width="7.73239" height="20.6197" fill="#FF0000"/>
<path fill-rule="evenodd" clip-rule="evenodd" d="M16.1946 24.2359C15.9449 24.8386 15.3674 25.2498 14.7151 25.2498H11.3293C8.93828 25.2498 7 27.1881 7 29.5791V38.4023C7 40.7933 8.93828 42.7316 11.3293 42.7316H63.6707C66.0617 42.7316 68 40.7933 68 38.4023V29.5791C68 27.1881 66.0617 25.2498 63.6707 25.2498H60.2852C59.6329 25.2498 59.0553 24.8386 58.8057 24.2359C57.6468 21.438 55.9481 18.8958 53.8067 16.7544C51.6653 14.613 49.1231 12.9143 46.3252 11.7554C43.5273 10.5965 40.5285 10 37.5001 10C34.4717 10 31.473 10.5965 28.6751 11.7554C25.8772 12.9143 23.335 14.613 21.1936 16.7544C19.0522 18.8958 17.3535 21.438 16.1946 24.2359Z" fill="#FF0000"/>
<path d="M55.1121 31.9083C55.1121 29.5954 54.6565 27.3051 53.7714 25.1682C52.8863 23.0314 51.5889 21.0898 49.9534 19.4543C48.3179 17.8188 46.3763 16.5214 44.2395 15.6363C42.1026 14.7512 39.8123 14.2956 37.4994 14.2956C35.1865 14.2956 32.8962 14.7512 30.7593 15.6363C28.6224 16.5215 26.6808 17.8188 25.0454 19.4543C23.4099 21.0898 22.1125 23.0314 21.2274 25.1682C20.3423 27.3051 19.8867 29.5954 19.8867 31.9083L37.4994 31.9083H55.1121Z" fill="#00E0FF"/>
<rect x="7" y="25.25" width="61" height="17.4817" fill="#FF0000"/>
<circle cx="23.3657" cy="42.7324" r="7.81098" fill="#A5A5A5"/>
<circle cx="52.3774" cy="42.7324" r="7.81098" fill="#A5A5A5"/>
<mask id="path-14-outside-2" maskUnits="userSpaceOnUse" x="0" y="3" width="75" height="55" fill="black">
<rect fill="white" y="3" width="75" height="55"/>
<path fill-rule="evenodd" clip-rule="evenodd" d="M16.1944 24.2359C15.9447 24.8386 15.3672 25.2498 14.7149 25.2498H11.3293C8.93828 25.2498 7 27.1881 7 29.5791V38.4023C7 40.7933 8.93828 42.7316 11.3293 42.7316H15.5546V42.7322C15.5546 47.0461 19.0517 50.5432 23.3656 50.5432C27.6795 50.5432 31.1766 47.0461 31.1766 42.7322V42.7316H44.5671C44.5671 42.7318 44.5671 42.732 44.5671 42.7322C44.5671 47.0461 48.0641 50.5432 52.378 50.5432C56.6919 50.5432 60.189 47.0461 60.189 42.7322C60.189 42.732 60.189 42.7318 60.189 42.7316H63.6707C66.0617 42.7316 68 40.7933 68 38.4023V29.5791C68 27.1881 66.0617 25.2498 63.6707 25.2498H60.285C59.6327 25.2498 59.0551 24.8386 58.8055 24.2359C57.6466 21.438 55.9479 18.8958 53.8065 16.7544C51.6651 14.613 49.1229 12.9143 46.325 11.7554C43.5271 10.5965 40.5283 10 37.4999 10C34.4715 10 31.4728 10.5965 28.6749 11.7554C25.877 12.9143 23.3348 14.613 21.1933 16.7544C19.0519 18.8958 17.3533 21.438 16.1944 24.2359Z"/>
</mask>
<path d="M16.1944 24.2359L9.7272 21.5571L9.7272 21.5571L16.1944 24.2359ZM15.5546 42.7316H22.5546C22.5546 38.8656 19.4206 35.7316 15.5546 35.7316V42.7316ZM31.1766 42.7316V35.7316C27.3106 35.7316 24.1766 38.8656 24.1766 42.7316H31.1766ZM44.5671 42.7316H51.5671C51.5671 38.8656 48.433 35.7316 44.5671 35.7316V42.7316ZM60.189 42.7316V35.7316C56.323 35.7316 53.189 38.8656 53.189 42.7316H60.189ZM58.8055 24.2359L65.2726 21.5571L65.2726 21.5571L58.8055 24.2359ZM53.8065 16.7544L58.7562 11.8047V11.8047L53.8065 16.7544ZM46.325 11.7554L49.0038 5.28826L49.0038 5.28825L46.325 11.7554ZM28.6749 11.7554L31.3537 18.2226H31.3537L28.6749 11.7554ZM21.1933 16.7544L26.1431 21.7042H26.1431L21.1933 16.7544ZM14.7149 32.2498C18.3852 32.2498 21.4017 29.9562 22.6615 26.9147L9.7272 21.5571C10.4877 19.721 12.3492 18.2498 14.7149 18.2498V32.2498ZM11.3293 32.2498H14.7149V18.2498H11.3293V32.2498ZM14 29.5791C14 31.0541 12.8043 32.2498 11.3293 32.2498V18.2498C5.07229 18.2498 0 23.3221 0 29.5791H14ZM14 38.4023V29.5791H0V38.4023H14ZM11.3293 35.7316C12.8043 35.7316 14 36.9273 14 38.4023H0C0 44.6593 5.07229 49.7316 11.3293 49.7316V35.7316ZM15.5546 35.7316H11.3293V49.7316H15.5546V35.7316ZM22.5546 42.7322V42.7316H8.55463V42.7322H22.5546ZM23.3656 43.5432C22.9177 43.5432 22.5546 43.1801 22.5546 42.7322H8.55463C8.55463 50.9121 15.1857 57.5432 23.3656 57.5432V43.5432ZM24.1766 42.7322C24.1766 43.1801 23.8135 43.5432 23.3656 43.5432V57.5432C31.5455 57.5432 38.1766 50.9121 38.1766 42.7322H24.1766ZM24.1766 42.7316V42.7322H38.1766V42.7316H24.1766ZM44.5671 35.7316H31.1766V49.7316H44.5671V35.7316ZM51.5671 42.7322V42.7322V42.7322V42.7322C51.5671 42.7322 51.5671 42.7322 51.5671 42.7322C51.5671 42.7322 51.5671 42.7322 51.5671 42.7322C51.5671 42.7322 51.5671 42.7322 51.5671 42.7322C51.5671 42.7322 51.5671 42.7322 51.5671 42.7322C51.5671 42.7322 51.5671 42.7322 51.5671 42.7322C51.5671 42.7322 51.5671 42.7322 51.5671 42.7322C51.5671 42.7322 51.5671 42.7322 51.5671 42.7322C51.5671 42.7321 51.5671 42.7321 51.5671 42.7321C51.5671 42.7321 51.5671 42.7321 51.5671 42.7321C51.5671 42.7321 51.5671 42.7321 51.5671 42.7321C51.5671 42.7321 51.5671 42.7321 51.5671 42.7321C51.5671 42.7321 51.5671 42.7321 51.5671 42.7321C51.5671 42.7321 51.5671 42.7321 51.5671 42.7321V42.7321V42.7321V42.7321V42.7321V42.7321V42.7321C51.5671 42.7321 51.5671 42.7321 51.5671 42.7321C51.5671 42.7321 51.5671 42.7321 51.5671 42.7321C51.5671 42.7321 51.5671 42.7321 51.5671 42.7321C51.5671 42.7321 51.5671 42.7321 51.5671 42.7321C51.5671 42.7321 51.5671 42.7321 51.5671 42.7321C51.5671 42.7321 51.5671 42.7321 51.5671 42.7321C51.5671 42.7321 51.5671 42.7321 51.5671 42.7321C51.5671 42.7321 51.5671 42.7321 51.5671 42.7321C51.5671 42.7321 51.5671 42.7321 51.5671 42.7321C51.5671 42.7321 51.5671 42.7321 51.5671 42.7321V42.7321V42.7321V42.7321V42.7321V42.732C51.5671 42.732 51.5671 42.732 51.5671 42.732C51.5671 42.732 51.5671 42.732 51.5671 42.732C51.5671 42.732 51.5671 42.732 51.5671 42.732C51.5671 42.732 51.5671 42.732 51.5671 42.732C51.5671 42.732 51.5671 42.732 51.5671 42.732C51.5671 42.732 51.5671 42.732 51.5671 42.732C51.5671 42.732 51.5671 42.732 51.5671 42.732C51.5671 42.732 51.5671 42.732 51.5671 42.732C51.5671 42.732 51.5671 42.732 51.5671 42.732C51.5671 42.732 51.5671 42.732 51.5671 42.732V42.732V42.732V42.732V42.732V42.732C51.5671 42.732 51.5671 42.732 51.5671 42.732C51.5671 42.732 51.5671 42.732 51.5671 42.732C51.5671 42.732 51.5671 42.732 51.5671 42.732C51.5671 42.732 51.5671 42.732 51.5671 42.732C51.5671 42.732 51.5671 42.732 51.5671 42.732C51.5671 42.732 51.5671 42.732 51.5671 42.732C51.5671 42.732 51.5671 42.732 51.5671 42.732C51.5671 42.732 51.5671 42.732 51.5671 42.732C51.5671 42.732 51.5671 42.732 51.5671 42.732V42.732V42.7319V42.7319V42.7319V42.7319C51.5671 42.7319 51.5671 42.7319 51.5671 42.7319C51.5671 42.7319 51.5671 42.7319 51.5671 42.7319C51.5671 42.7319 51.5671 42.7319 51.5671 42.7319C51.5671 42.7319 51.5671 42.7319 51.5671 42.7319C51.5671 42.7319 51.5671 42.7319 51.5671 42.7319C51.5671 42.7319 51.5671 42.7319 51.5671 42.7319C51.5671 42.7319 51.5671 42.7319 51.5671 42.7319C51.5671 42.7319 51.5671 42.7319 51.5671 42.7319C51.5671 42.7319 51.5671 42.7319 51.5671 42.7319V42.7319V42.7319V42.7319V42.7319C51.5671 42.7319 51.5671 42.7319 51.5671 42.7319C51.5671 42.7319 51.5671 42.7319 51.5671 42.7319C51.5671 42.7319 51.5671 42.7319 51.5671 42.7319C51.5671 42.7319 51.5671 42.7319 51.5671 42.7319C51.5671 42.7319 51.5671 42.7319 51.5671 42.7319C51.5671 42.7319 51.5671 42.7319 51.5671 42.7319C51.5671 42.7319 51.5671 42.7319 51.5671 42.7319C51.5671 42.7319 51.5671 42.7319 51.5671 42.7319C51.5671 42.7319 51.5671 42.7319 51.5671 42.7319V42.7318V42.7318V42.7318V42.7318C51.5671 42.7318 51.5671 42.7318 51.5671 42.7318C51.5671 42.7318 51.5671 42.7318 51.5671 42.7318C51.5671 42.7318 51.5671 42.7318 51.5671 42.7318C51.5671 42.7318 51.5671 42.7318 51.5671 42.7318C51.5671 42.7318 51.5671 42.7318 51.5671 42.7318C51.5671 42.7318 51.5671 42.7318 51.5671 42.7318C51.5671 42.7318 51.5671 42.7318 51.5671 42.7318C51.5671 42.7318 51.5671 42.7318 51.5671 42.7318C51.5671 42.7318 51.5671 42.7318 51.5671 42.7318V42.7318V42.7318V42.7318V42.7318V42.7318C51.5671 42.7318 51.5671 42.7318 51.5671 42.7318C51.5671 42.7318 51.5671 42.7318 51.5671 42.7318C51.5671 42.7318 51.5671 42.7318 51.5671 42.7318C51.5671 42.7318 51.5671 42.7318 51.5671 42.7318C51.5671 42.7318 51.5671 42.7318 51.5671 42.7318C51.5671 42.7318 51.5671 42.7318 51.5671 42.7318C51.5671 42.7318 51.5671 42.7318 51.5671 42.7318C51.5671 42.7318 51.5671 42.7318 51.5671 42.7318C51.5671 42.7318 51.5671 42.7318 51.5671 42.7318V42.7317V42.7317V42.7317V42.7317V42.7317C51.5671 42.7317 51.5671 42.7317 51.5671 42.7317C51.5671 42.7317 51.5671 42.7317 51.5671 42.7317C51.5671 42.7317 51.5671 42.7317 51.5671 42.7317C51.5671 42.7317 51.5671 42.7317 51.5671 42.7317C51.5671 42.7317 51.5671 42.7317 51.5671 42.7317C51.5671 42.7317 51.5671 42.7317 51.5671 42.7317C51.5671 42.7317 51.5671 42.7317 51.5671 42.7317C51.5671 42.7317 51.5671 42.7317 51.5671 42.7317C51.5671 42.7317 51.5671 42.7317 51.5671 42.7317C51.5671 42.7317 51.5671 42.7317 51.5671 42.7317V42.7317V42.7317V42.7317V42.7317V42.7317C51.5671 42.7317 51.5671 42.7317 51.5671 42.7317C51.5671 42.7317 51.5671 42.7317 51.5671 42.7317C51.5671 42.7317 51.5671 42.7317 51.5671 42.7317C51.5671 42.7317 51.5671 42.7317 51.5671 42.7317C51.5671 42.7317 51.5671 42.7317 51.5671 42.7317C51.5671 42.7317 51.5671 42.7317 51.5671 42.7317C51.5671 42.7316 51.5671 42.7316 51.5671 42.7316C51.5671 42.7316 51.5671 42.7316 51.5671 42.7316C51.5671 42.7316 51.5671 42.7316 51.5671 42.7316C51.5671 42.7316 51.5671 42.7316 51.5671 42.7316V42.7316V42.7316V42.7316V42.7316V42.7316V42.7316C51.5671 42.7316 51.5671 42.7316 51.5671 42.7316C51.5671 42.7316 51.5671 42.7316 51.5671 42.7316C51.5671 42.7316 51.5671 42.7316 51.5671 42.7316C51.5671 42.7316 51.5671 42.7316 51.5671 42.7316C51.5671 42.7316 51.5671 42.7316 51.5671 42.7316C51.5671 42.7316 51.5671 42.7316 51.5671 42.7316C51.5671 42.7316 51.5671 42.7316 51.5671 42.7316C51.5671 42.7316 51.5671 42.7316 51.5671 42.7316C51.5671 42.7316 51.5671 42.7316 51.5671 42.7316C51.5671 42.7316 51.5671 42.7316 51.5671 42.7316C51.5671 42.7316 51.5671 42.7316 51.5671 42.7316C51.5671 42.7316 51.5671 42.7316 51.5671 42.7316C51.5671 42.7316 51.5671 42.7316 51.5671 42.7316V42.7316V42.7316V42.7316H37.5671V42.7316V42.7316V42.7316C37.5671 42.7316 37.5671 42.7316 37.5671 42.7316C37.5671 42.7316 37.5671 42.7316 37.5671 42.7316C37.5671 42.7316 37.5671 42.7316 37.5671 42.7316C37.5671 42.7316 37.5671 42.7316 37.5671 42.7316C37.5671 42.7316 37.5671 42.7316 37.5671 42.7316C37.5671 42.7316 37.5671 42.7316 37.5671 42.7316C37.5671 42.7316 37.5671 42.7316 37.5671 42.7316C37.5671 42.7316 37.5671 42.7316 37.5671 42.7316C37.5671 42.7316 37.5671 42.7316 37.5671 42.7316C37.5671 42.7316 37.5671 42.7316 37.5671 42.7316C37.5671 42.7316 37.5671 42.7316 37.5671 42.7316C37.5671 42.7316 37.5671 42.7316 37.5671 42.7316C37.5671 42.7316 37.5671 42.7316 37.5671 42.7316V42.7316V42.7316V42.7316V42.7316V42.7316V42.7316C37.5671 42.7316 37.5671 42.7316 37.5671 42.7316C37.5671 42.7316 37.5671 42.7316 37.5671 42.7316C37.5671 42.7316 37.5671 42.7316 37.5671 42.7316C37.5671 42.7316 37.5671 42.7316 37.5671 42.7317C37.5671 42.7317 37.5671 42.7317 37.5671 42.7317C37.5671 42.7317 37.5671 42.7317 37.5671 42.7317C37.5671 42.7317 37.5671 42.7317 37.5671 42.7317C37.5671 42.7317 37.5671 42.7317 37.5671 42.7317C37.5671 42.7317 37.5671 42.7317 37.5671 42.7317C37.5671 42.7317 37.5671 42.7317 37.5671 42.7317V42.7317V42.7317V42.7317V42.7317V42.7317C37.5671 42.7317 37.5671 42.7317 37.5671 42.7317C37.5671 42.7317 37.5671 42.7317 37.5671 42.7317C37.5671 42.7317 37.5671 42.7317 37.5671 42.7317C37.5671 42.7317 37.5671 42.7317 37.5671 42.7317C37.5671 42.7317 37.5671 42.7317 37.5671 42.7317C37.5671 42.7317 37.5671 42.7317 37.5671 42.7317C37.5671 42.7317 37.5671 42.7317 37.5671 42.7317C37.5671 42.7317 37.5671 42.7317 37.5671 42.7317C37.5671 42.7317 37.5671 42.7317 37.5671 42.7317C37.5671 42.7317 37.5671 42.7317 37.5671 42.7317V42.7317V42.7317V42.7317V42.7317V42.7318C37.5671 42.7318 37.5671 42.7318 37.5671 42.7318C37.5671 42.7318 37.5671 42.7318 37.5671 42.7318C37.5671 42.7318 37.5671 42.7318 37.5671 42.7318C37.5671 42.7318 37.5671 42.7318 37.5671 42.7318C37.5671 42.7318 37.5671 42.7318 37.5671 42.7318C37.5671 42.7318 37.5671 42.7318 37.5671 42.7318C37.5671 42.7318 37.5671 42.7318 37.5671 42.7318C37.5671 42.7318 37.5671 42.7318 37.5671 42.7318C37.5671 42.7318 37.5671 42.7318 37.5671 42.7318V42.7318V42.7318V42.7318V42.7318V42.7318C37.5671 42.7318 37.5671 42.7318 37.5671 42.7318C37.5671 42.7318 37.5671 42.7318 37.5671 42.7318C37.5671 42.7318 37.5671 42.7318 37.5671 42.7318C37.5671 42.7318 37.5671 42.7318 37.5671 42.7318C37.5671 42.7318 37.5671 42.7318 37.5671 42.7318C37.5671 42.7318 37.5671 42.7318 37.5671 42.7318C37.5671 42.7318 37.5671 42.7318 37.5671 42.7318C37.5671 42.7318 37.5671 42.7318 37.5671 42.7318C37.5671 42.7318 37.5671 42.7318 37.5671 42.7318V42.7318V42.7318V42.7318V42.7319C37.5671 42.7319 37.5671 42.7319 37.5671 42.7319C37.5671 42.7319 37.5671 42.7319 37.5671 42.7319C37.5671 42.7319 37.5671 42.7319 37.5671 42.7319C37.5671 42.7319 37.5671 42.7319 37.5671 42.7319C37.5671 42.7319 37.5671 42.7319 37.5671 42.7319C37.5671 42.7319 37.5671 42.7319 37.5671 42.7319C37.5671 42.7319 37.5671 42.7319 37.5671 42.7319C37.5671 42.7319 37.5671 42.7319 37.5671 42.7319C37.5671 42.7319 37.5671 42.7319 37.5671 42.7319V42.7319V42.7319V42.7319V42.7319C37.5671 42.7319 37.5671 42.7319 37.5671 42.7319C37.5671 42.7319 37.5671 42.7319 37.5671 42.7319C37.5671 42.7319 37.5671 42.7319 37.5671 42.7319C37.5671 42.7319 37.5671 42.7319 37.5671 42.7319C37.5671 42.7319 37.5671 42.7319 37.5671 42.7319C37.5671 42.7319 37.5671 42.7319 37.5671 42.7319C37.5671 42.7319 37.5671 42.7319 37.5671 42.7319C37.5671 42.7319 37.5671 42.7319 37.5671 42.7319C37.5671 42.7319 37.5671 42.7319 37.5671 42.7319V42.7319V42.7319V42.7319V42.732V42.732C37.5671 42.732 37.5671 42.732 37.5671 42.732C37.5671 42.732 37.5671 42.732 37.5671 42.732C37.5671 42.732 37.5671 42.732 37.5671 42.732C37.5671 42.732 37.5671 42.732 37.5671 42.732C37.5671 42.732 37.5671 42.732 37.5671 42.732C37.5671 42.732 37.5671 42.732 37.5671 42.732C37.5671 42.732 37.5671 42.732 37.5671 42.732C37.5671 42.732 37.5671 42.732 37.5671 42.732C37.5671 42.732 37.5671 42.732 37.5671 42.732V42.732V42.732V42.732V42.732V42.732C37.5671 42.732 37.5671 42.732 37.5671 42.732C37.5671 42.732 37.5671 42.732 37.5671 42.732C37.5671 42.732 37.5671 42.732 37.5671 42.732C37.5671 42.732 37.5671 42.732 37.5671 42.732C37.5671 42.732 37.5671 42.732 37.5671 42.732C37.5671 42.732 37.5671 42.732 37.5671 42.732C37.5671 42.732 37.5671 42.732 37.5671 42.732C37.5671 42.732 37.5671 42.732 37.5671 42.732C37.5671 42.732 37.5671 42.732 37.5671 42.732C37.5671 42.732 37.5671 42.732 37.5671 42.732V42.7321V42.7321V42.7321V42.7321V42.7321C37.5671 42.7321 37.5671 42.7321 37.5671 42.7321C37.5671 42.7321 37.5671 42.7321 37.5671 42.7321C37.5671 42.7321 37.5671 42.7321 37.5671 42.7321C37.5671 42.7321 37.5671 42.7321 37.5671 42.7321C37.5671 42.7321 37.5671 42.7321 37.5671 42.7321C37.5671 42.7321 37.5671 42.7321 37.5671 42.7321C37.5671 42.7321 37.5671 42.7321 37.5671 42.7321C37.5671 42.7321 37.5671 42.7321 37.5671 42.7321C37.5671 42.7321 37.5671 42.7321 37.5671 42.7321C37.5671 42.7321 37.5671 42.7321 37.5671 42.7321V42.7321V42.7321V42.7321V42.7321V42.7321V42.7321C37.5671 42.7321 37.5671 42.7321 37.5671 42.7321C37.5671 42.7321 37.5671 42.7321 37.5671 42.7321C37.5671 42.7321 37.5671 42.7321 37.5671 42.7321C37.5671 42.7321 37.5671 42.7321 37.5671 42.7321C37.5671 42.7321 37.5671 42.7321 37.5671 42.7321C37.5671 42.7321 37.5671 42.7321 37.5671 42.7322C37.5671 42.7322 37.5671 42.7322 37.5671 42.7322C37.5671 42.7322 37.5671 42.7322 37.5671 42.7322C37.5671 42.7322 37.5671 42.7322 37.5671 42.7322C37.5671 42.7322 37.5671 42.7322 37.5671 42.7322C37.5671 42.7322 37.5671 42.7322 37.5671 42.7322C37.5671 42.7322 37.5671 42.7322 37.5671 42.7322C37.5671 42.7322 37.5671 42.7322 37.5671 42.7322V42.7322V42.7322V42.7322H51.5671ZM52.378 43.5432C51.9301 43.5432 51.5671 43.1801 51.5671 42.7322H37.5671C37.5671 50.9121 44.1982 57.5432 52.378 57.5432V43.5432ZM53.189 42.7322C53.189 43.1801 52.8259 43.5432 52.378 43.5432V57.5432C60.5579 57.5432 67.189 50.9121 67.189 42.7322H53.189ZM53.189 42.7316V42.7316V42.7316V42.7316C53.189 42.7316 53.189 42.7316 53.189 42.7316C53.189 42.7316 53.189 42.7316 53.189 42.7316C53.189 42.7316 53.189 42.7316 53.189 42.7316C53.189 42.7316 53.189 42.7316 53.189 42.7316C53.189 42.7316 53.189 42.7316 53.189 42.7316C53.189 42.7316 53.189 42.7316 53.189 42.7316C53.189 42.7316 53.189 42.7316 53.189 42.7316C53.189 42.7316 53.189 42.7316 53.189 42.7316C53.189 42.7316 53.189 42.7316 53.189 42.7316C53.189 42.7316 53.189 42.7316 53.189 42.7316C53.189 42.7316 53.189 42.7316 53.189 42.7316C53.189 42.7316 53.189 42.7316 53.189 42.7316C53.189 42.7316 53.189 42.7316 53.189 42.7316V42.7316V42.7316V42.7316V42.7316V42.7316V42.7316C53.189 42.7316 53.189 42.7316 53.189 42.7316C53.189 42.7316 53.189 42.7316 53.189 42.7316C53.189 42.7316 53.189 42.7316 53.189 42.7316C53.189 42.7316 53.189 42.7316 53.189 42.7317C53.189 42.7317 53.189 42.7317 53.189 42.7317C53.189 42.7317 53.189 42.7317 53.189 42.7317C53.189 42.7317 53.189 42.7317 53.189 42.7317C53.189 42.7317 53.189 42.7317 53.189 42.7317C53.189 42.7317 53.189 42.7317 53.189 42.7317C53.189 42.7317 53.189 42.7317 53.189 42.7317V42.7317V42.7317V42.7317V42.7317V42.7317C53.189 42.7317 53.189 42.7317 53.189 42.7317C53.189 42.7317 53.189 42.7317 53.189 42.7317C53.189 42.7317 53.189 42.7317 53.189 42.7317C53.189 42.7317 53.189 42.7317 53.189 42.7317C53.189 42.7317 53.189 42.7317 53.189 42.7317C53.189 42.7317 53.189 42.7317 53.189 42.7317C53.189 42.7317 53.189 42.7317 53.189 42.7317C53.189 42.7317 53.189 42.7317 53.189 42.7317C53.189 42.7317 53.189 42.7317 53.189 42.7317C53.189 42.7317 53.189 42.7317 53.189 42.7317V42.7317V42.7317V42.7317V42.7317V42.7318C53.189 42.7318 53.189 42.7318 53.189 42.7318C53.189 42.7318 53.189 42.7318 53.189 42.7318C53.189 42.7318 53.189 42.7318 53.189 42.7318C53.189 42.7318 53.189 42.7318 53.189 42.7318C53.189 42.7318 53.189 42.7318 53.189 42.7318C53.189 42.7318 53.189 42.7318 53.189 42.7318C53.189 42.7318 53.189 42.7318 53.189 42.7318C53.189 42.7318 53.189 42.7318 53.189 42.7318C53.189 42.7318 53.189 42.7318 53.189 42.7318V42.7318V42.7318V42.7318V42.7318V42.7318C53.189 42.7318 53.189 42.7318 53.189 42.7318C53.189 42.7318 53.189 42.7318 53.189 42.7318C53.189 42.7318 53.189 42.7318 53.189 42.7318C53.189 42.7318 53.189 42.7318 53.189 42.7318C53.189 42.7318 53.189 42.7318 53.189 42.7318C53.189 42.7318 53.189 42.7318 53.189 42.7318C53.189 42.7318 53.189 42.7318 53.189 42.7318C53.189 42.7318 53.189 42.7318 53.189 42.7318C53.189 42.7318 53.189 42.7318 53.189 42.7318V42.7318V42.7318V42.7318V42.7319C53.189 42.7319 53.189 42.7319 53.189 42.7319C53.189 42.7319 53.189 42.7319 53.189 42.7319C53.189 42.7319 53.189 42.7319 53.189 42.7319C53.189 42.7319 53.189 42.7319 53.189 42.7319C53.189 42.7319 53.189 42.7319 53.189 42.7319C53.189 42.7319 53.189 42.7319 53.189 42.7319C53.189 42.7319 53.189 42.7319 53.189 42.7319C53.189 42.7319 53.189 42.7319 53.189 42.7319C53.189 42.7319 53.189 42.7319 53.189 42.7319V42.7319V42.7319V42.7319V42.7319C53.189 42.7319 53.189 42.7319 53.189 42.7319C53.189 42.7319 53.189 42.7319 53.189 42.7319C53.189 42.7319 53.189 42.7319 53.189 42.7319C53.189 42.7319 53.189 42.7319 53.189 42.7319C53.189 42.7319 53.189 42.7319 53.189 42.7319C53.189 42.7319 53.189 42.7319 53.189 42.7319C53.189 42.7319 53.189 42.7319 53.189 42.7319C53.189 42.7319 53.189 42.7319 53.189 42.7319C53.189 42.7319 53.189 42.7319 53.189 42.7319V42.7319V42.7319V42.7319V42.732V42.732C53.189 42.732 53.189 42.732 53.189 42.732C53.189 42.732 53.189 42.732 53.189 42.732C53.189 42.732 53.189 42.732 53.189 42.732C53.189 42.732 53.189 42.732 53.189 42.732C53.189 42.732 53.189 42.732 53.189 42.732C53.189 42.732 53.189 42.732 53.189 42.732C53.189 42.732 53.189 42.732 53.189 42.732C53.189 42.732 53.189 42.732 53.189 42.732C53.189 42.732 53.189 42.732 53.189 42.732V42.732V42.732V42.732V42.732V42.732C53.189 42.732 53.189 42.732 53.189 42.732C53.189 42.732 53.189 42.732 53.189 42.732C53.189 42.732 53.189 42.732 53.189 42.732C53.189 42.732 53.189 42.732 53.189 42.732C53.189 42.732 53.189 42.732 53.189 42.732C53.189 42.732 53.189 42.732 53.189 42.732C53.189 42.732 53.189 42.732 53.189 42.732C53.189 42.732 53.189 42.732 53.189 42.732C53.189 42.732 53.189 42.732 53.189 42.732C53.189 42.732 53.189 42.732 53.189 42.732V42.7321V42.7321V42.7321V42.7321V42.7321C53.189 42.7321 53.189 42.7321 53.189 42.7321C53.189 42.7321 53.189 42.7321 53.189 42.7321C53.189 42.7321 53.189 42.7321 53.189 42.7321C53.189 42.7321 53.189 42.7321 53.189 42.7321C53.189 42.7321 53.189 42.7321 53.189 42.7321C53.189 42.7321 53.189 42.7321 53.189 42.7321C53.189 42.7321 53.189 42.7321 53.189 42.7321C53.189 42.7321 53.189 42.7321 53.189 42.7321C53.189 42.7321 53.189 42.7321 53.189 42.7321C53.189 42.7321 53.189 42.7321 53.189 42.7321V42.7321V42.7321V42.7321V42.7321V42.7321V42.7321C53.189 42.7321 53.189 42.7321 53.189 42.7321C53.189 42.7321 53.189 42.7321 53.189 42.7321C53.189 42.7321 53.189 42.7321 53.189 42.7321C53.189 42.7321 53.189 42.7321 53.189 42.7321C53.189 42.7321 53.189 42.7321 53.189 42.7321C53.189 42.7321 53.189 42.7321 53.189 42.7322C53.189 42.7322 53.189 42.7322 53.189 42.7322C53.189 42.7322 53.189 42.7322 53.189 42.7322C53.189 42.7322 53.189 42.7322 53.189 42.7322C53.189 42.7322 53.189 42.7322 53.189 42.7322C53.189 42.7322 53.189 42.7322 53.189 42.7322C53.189 42.7322 53.189 42.7322 53.189 42.7322C53.189 42.7322 53.189 42.7322 53.189 42.7322V42.7322V42.7322V42.7322H67.189V42.7322V42.7322V42.7322C67.189 42.7322 67.189 42.7322 67.189 42.7322C67.189 42.7322 67.189 42.7322 67.189 42.7322C67.189 42.7322 67.189 42.7322 67.189 42.7322C67.189 42.7322 67.189 42.7322 67.189 42.7322C67.189 42.7322 67.189 42.7322 67.189 42.7322C67.189 42.7322 67.189 42.7322 67.189 42.7322C67.189 42.7322 67.189 42.7322 67.189 42.7322C67.189 42.7321 67.189 42.7321 67.189 42.7321C67.189 42.7321 67.189 42.7321 67.189 42.7321C67.189 42.7321 67.189 42.7321 67.189 42.7321C67.189 42.7321 67.189 42.7321 67.189 42.7321C67.189 42.7321 67.189 42.7321 67.189 42.7321C67.189 42.7321 67.189 42.7321 67.189 42.7321V42.7321V42.7321V42.7321V42.7321V42.7321V42.7321C67.189 42.7321 67.189 42.7321 67.189 42.7321C67.189 42.7321 67.189 42.7321 67.189 42.7321C67.189 42.7321 67.189 42.7321 67.189 42.7321C67.189 42.7321 67.189 42.7321 67.189 42.7321C67.189 42.7321 67.189 42.7321 67.189 42.7321C67.189 42.7321 67.189 42.7321 67.189 42.7321C67.189 42.7321 67.189 42.7321 67.189 42.7321C67.189 42.7321 67.189 42.7321 67.189 42.7321C67.189 42.7321 67.189 42.7321 67.189 42.7321C67.189 42.7321 67.189 42.7321 67.189 42.7321V42.7321V42.7321V42.7321V42.7321V42.732C67.189 42.732 67.189 42.732 67.189 42.732C67.189 42.732 67.189 42.732 67.189 42.732C67.189 42.732 67.189 42.732 67.189 42.732C67.189 42.732 67.189 42.732 67.189 42.732C67.189 42.732 67.189 42.732 67.189 42.732C67.189 42.732 67.189 42.732 67.189 42.732C67.189 42.732 67.189 42.732 67.189 42.732C67.189 42.732 67.189 42.732 67.189 42.732C67.189 42.732 67.189 42.732 67.189 42.732C67.189 42.732 67.189 42.732 67.189 42.732V42.732V42.732V42.732V42.732V42.732C67.189 42.732 67.189 42.732 67.189 42.732C67.189 42.732 67.189 42.732 67.189 42.732C67.189 42.732 67.189 42.732 67.189 42.732C67.189 42.732 67.189 42.732 67.189 42.732C67.189 42.732 67.189 42.732 67.189 42.732C67.189 42.732 67.189 42.732 67.189 42.732C67.189 42.732 67.189 42.732 67.189 42.732C67.189 42.732 67.189 42.732 67.189 42.732C67.189 42.732 67.189 42.732 67.189 42.732V42.732V42.7319V42.7319V42.7319V42.7319C67.189 42.7319 67.189 42.7319 67.189 42.7319C67.189 42.7319 67.189 42.7319 67.189 42.7319C67.189 42.7319 67.189 42.7319 67.189 42.7319C67.189 42.7319 67.189 42.7319 67.189 42.7319C67.189 42.7319 67.189 42.7319 67.189 42.7319C67.189 42.7319 67.189 42.7319 67.189 42.7319C67.189 42.7319 67.189 42.7319 67.189 42.7319C67.189 42.7319 67.189 42.7319 67.189 42.7319C67.189 42.7319 67.189 42.7319 67.189 42.7319V42.7319V42.7319V42.7319V42.7319C67.189 42.7319 67.189 42.7319 67.189 42.7319C67.189 42.7319 67.189 42.7319 67.189 42.7319C67.189 42.7319 67.189 42.7319 67.189 42.7319C67.189 42.7319 67.189 42.7319 67.189 42.7319C67.189 42.7319 67.189 42.7319 67.189 42.7319C67.189 42.7319 67.189 42.7319 67.189 42.7319C67.189 42.7319 67.189 42.7319 67.189 42.7319C67.189 42.7319 67.189 42.7319 67.189 42.7319C67.189 42.7319 67.189 42.7319 67.189 42.7319V42.7318V42.7318V42.7318V42.7318C67.189 42.7318 67.189 42.7318 67.189 42.7318C67.189 42.7318 67.189 42.7318 67.189 42.7318C67.189 42.7318 67.189 42.7318 67.189 42.7318C67.189 42.7318 67.189 42.7318 67.189 42.7318C67.189 42.7318 67.189 42.7318 67.189 42.7318C67.189 42.7318 67.189 42.7318 67.189 42.7318C67.189 42.7318 67.189 42.7318 67.189 42.7318C67.189 42.7318 67.189 42.7318 67.189 42.7318C67.189 42.7318 67.189 42.7318 67.189 42.7318V42.7318V42.7318V42.7318V42.7318V42.7318C67.189 42.7318 67.189 42.7318 67.189 42.7318C67.189 42.7318 67.189 42.7318 67.189 42.7318C67.189 42.7318 67.189 42.7318 67.189 42.7318C67.189 42.7318 67.189 42.7318 67.189 42.7318C67.189 42.7318 67.189 42.7318 67.189 42.7318C67.189 42.7318 67.189 42.7318 67.189 42.7318C67.189 42.7318 67.189 42.7318 67.189 42.7318C67.189 42.7318 67.189 42.7318 67.189 42.7318C67.189 42.7318 67.189 42.7318 67.189 42.7318V42.7317V42.7317V42.7317V42.7317V42.7317C67.189 42.7317 67.189 42.7317 67.189 42.7317C67.189 42.7317 67.189 42.7317 67.189 42.7317C67.189 42.7317 67.189 42.7317 67.189 42.7317C67.189 42.7317 67.189 42.7317 67.189 42.7317C67.189 42.7317 67.189 42.7317 67.189 42.7317C67.189 42.7317 67.189 42.7317 67.189 42.7317C67.189 42.7317 67.189 42.7317 67.189 42.7317C67.189 42.7317 67.189 42.7317 67.189 42.7317C67.189 42.7317 67.189 42.7317 67.189 42.7317C67.189 42.7317 67.189 42.7317 67.189 42.7317V42.7317V42.7317V42.7317V42.7317V42.7317C67.189 42.7317 67.189 42.7317 67.189 42.7317C67.189 42.7317 67.189 42.7317 67.189 42.7317C67.189 42.7317 67.189 42.7317 67.189 42.7317C67.189 42.7317 67.189 42.7317 67.189 42.7317C67.189 42.7317 67.189 42.7317 67.189 42.7317C67.189 42.7317 67.189 42.7317 67.189 42.7317C67.189 42.7316 67.189 42.7316 67.189 42.7316C67.189 42.7316 67.189 42.7316 67.189 42.7316C67.189 42.7316 67.189 42.7316 67.189 42.7316C67.189 42.7316 67.189 42.7316 67.189 42.7316V42.7316V42.7316V42.7316V42.7316V42.7316V42.7316C67.189 42.7316 67.189 42.7316 67.189 42.7316C67.189 42.7316 67.189 42.7316 67.189 42.7316C67.189 42.7316 67.189 42.7316 67.189 42.7316C67.189 42.7316 67.189 42.7316 67.189 42.7316C67.189 42.7316 67.189 42.7316 67.189 42.7316C67.189 42.7316 67.189 42.7316 67.189 42.7316C67.189 42.7316 67.189 42.7316 67.189 42.7316C67.189 42.7316 67.189 42.7316 67.189 42.7316C67.189 42.7316 67.189 42.7316 67.189 42.7316C67.189 42.7316 67.189 42.7316 67.189 42.7316C67.189 42.7316 67.189 42.7316 67.189 42.7316C67.189 42.7316 67.189 42.7316 67.189 42.7316C67.189 42.7316 67.189 42.7316 67.189 42.7316V42.7316V42.7316V42.7316H53.189ZM63.6707 35.7316H60.189V49.7316H63.6707V35.7316ZM61 38.4023C61 36.9273 62.1957 35.7316 63.6707 35.7316V49.7316C69.9277 49.7316 75 44.6593 75 38.4023H61ZM61 29.5791V38.4023H75V29.5791H61ZM63.6707 32.2498C62.1957 32.2498 61 31.0541 61 29.5791H75C75 23.3221 69.9277 18.2498 63.6707 18.2498V32.2498ZM60.285 32.2498H63.6707V18.2498H60.285V32.2498ZM52.3383 26.9147C53.5981 29.9562 56.6147 32.2498 60.285 32.2498V18.2498C62.6506 18.2498 64.5121 19.721 65.2726 21.5571L52.3383 26.9147ZM48.8568 21.7042C50.3481 23.1955 51.5312 24.9661 52.3383 26.9147L65.2726 21.5571C63.7619 17.91 61.5477 14.5961 58.7562 11.8047L48.8568 21.7042ZM43.6462 18.2226C45.5948 19.0297 47.3653 20.2128 48.8568 21.7042L58.7562 11.8047C55.9648 9.01324 52.6509 6.79896 49.0038 5.28826L43.6462 18.2226ZM37.4999 17C39.6091 17 41.6976 17.4154 43.6462 18.2226L49.0038 5.28825C45.3566 3.77755 41.4476 3 37.4999 3V17ZM31.3537 18.2226C33.3023 17.4154 35.3908 17 37.4999 17V3C33.5523 3 29.6432 3.77755 25.9961 5.28826L31.3537 18.2226ZM26.1431 21.7042C27.6345 20.2128 29.405 19.0297 31.3537 18.2226L25.9961 5.28826C22.3489 6.79896 19.035 9.01324 16.2436 11.8047L26.1431 21.7042ZM22.6615 26.9147C23.4687 24.9661 24.6517 23.1955 26.1431 21.7042L16.2436 11.8047C13.4522 14.5961 11.2379 17.91 9.7272 21.5571L22.6615 26.9147Z" fill="black" mask="url(#path-14-outside-2)"/>
<rect x="33.6348" y="11.7183" width="7.73239" height="20.6197" fill="#FF0000"/>
<path fill-rule="evenodd" clip-rule="evenodd" d="M47.1946 54.2359C46.9449 54.8386 46.3674 55.2498 45.7151 55.2498H42.3293C39.9383 55.2498 38 57.1881 38 59.5791V68.4023C38 70.7933 39.9383 72.7316 42.3293 72.7316H94.6707C97.0617 72.7316 99 70.7933 99 68.4023V59.5791C99 57.1881 97.0617 55.2498 94.6707 55.2498H91.2852C90.6329 55.2498 90.0553 54.8386 89.8057 54.2359C88.6468 51.438 86.9481 48.8958 84.8067 46.7544C82.6653 44.613 80.1231 42.9143 77.3252 41.7554C74.5273 40.5965 71.5285 40 68.5001 40C65.4717 40 62.473 40.5965 59.6751 41.7554C56.8772 42.9143 54.335 44.613 52.1936 46.7544C50.0522 48.8958 48.3535 51.438 47.1946 54.2359Z" fill="#FF0000"/>
<path d="M86.1121 61.9083C86.1121 59.5954 85.6565 57.3051 84.7714 55.1682C83.8863 53.0314 82.5889 51.0898 80.9534 49.4543C79.3179 47.8188 77.3763 46.5214 75.2395 45.6363C73.1026 44.7512 70.8123 44.2956 68.4994 44.2956C66.1865 44.2956 63.8962 44.7512 61.7593 45.6363C59.6224 46.5215 57.6808 47.8188 56.0454 49.4543C54.4099 51.0898 53.1125 53.0314 52.2274 55.1682C51.3423 57.3051 50.8867 59.5954 50.8867 61.9083L68.4994 61.9083H86.1121Z" fill="#00E0FF"/>
<rect x="38" y="55.25" width="61" height="17.4817" fill="#FF0000"/>
<circle cx="54.3657" cy="72.7324" r="7.81098" fill="#A5A5A5"/>
<circle cx="83.3774" cy="72.7324" r="7.81098" fill="#A5A5A5"/>
<mask id="path-22-outside-3" maskUnits="userSpaceOnUse" x="31" y="33" width="75" height="55" fill="black">
<rect fill="white" x="31" y="33" width="75" height="55"/>
<path fill-rule="evenodd" clip-rule="evenodd" d="M47.1944 54.2359C46.9447 54.8386 46.3672 55.2498 45.7149 55.2498H42.3293C39.9383 55.2498 38 57.1881 38 59.5791V68.4023C38 70.7933 39.9383 72.7316 42.3293 72.7316H46.5546V72.7322C46.5546 77.0461 50.0517 80.5432 54.3656 80.5432C58.6795 80.5432 62.1766 77.0461 62.1766 72.7322V72.7316H75.5671C75.5671 72.7318 75.5671 72.732 75.5671 72.7322C75.5671 77.0461 79.0641 80.5432 83.378 80.5432C87.6919 80.5432 91.189 77.0461 91.189 72.7322C91.189 72.732 91.189 72.7318 91.189 72.7316H94.6707C97.0617 72.7316 99 70.7933 99 68.4023V59.5791C99 57.1881 97.0617 55.2498 94.6707 55.2498H91.285C90.6327 55.2498 90.0551 54.8386 89.8055 54.2359C88.6466 51.438 86.9479 48.8958 84.8065 46.7544C82.6651 44.613 80.1229 42.9143 77.325 41.7554C74.5271 40.5965 71.5283 40 68.4999 40C65.4715 40 62.4728 40.5965 59.6749 41.7554C56.877 42.9143 54.3348 44.613 52.1933 46.7544C50.0519 48.8958 48.3533 51.438 47.1944 54.2359Z"/>
</mask>
<path d="M47.1944 54.2359L40.7272 51.5571L40.7272 51.5571L47.1944 54.2359ZM46.5546 72.7316H53.5546C53.5546 68.8656 50.4206 65.7316 46.5546 65.7316V72.7316ZM62.1766 72.7316V65.7316C58.3106 65.7316 55.1766 68.8656 55.1766 72.7316H62.1766ZM75.5671 72.7316H82.5671C82.5671 68.8656 79.433 65.7316 75.5671 65.7316V72.7316ZM91.189 72.7316V65.7316C87.323 65.7316 84.189 68.8656 84.189 72.7316H91.189ZM89.8055 54.2359L96.2726 51.5571L96.2726 51.5571L89.8055 54.2359ZM84.8065 46.7544L89.7562 41.8047V41.8047L84.8065 46.7544ZM77.325 41.7554L80.0038 35.2883L80.0038 35.2883L77.325 41.7554ZM59.6749 41.7554L62.3537 48.2226H62.3537L59.6749 41.7554ZM52.1933 46.7544L57.1431 51.7042H57.1431L52.1933 46.7544ZM45.7149 62.2498C49.3852 62.2498 52.4017 59.9562 53.6615 56.9147L40.7272 51.5571C41.4877 49.721 43.3492 48.2498 45.7149 48.2498V62.2498ZM42.3293 62.2498H45.7149V48.2498H42.3293V62.2498ZM45 59.5791C45 61.0541 43.8043 62.2498 42.3293 62.2498V48.2498C36.0723 48.2498 31 53.3221 31 59.5791H45ZM45 68.4023V59.5791H31V68.4023H45ZM42.3293 65.7316C43.8043 65.7316 45 66.9273 45 68.4023H31C31 74.6593 36.0723 79.7316 42.3293 79.7316V65.7316ZM46.5546 65.7316H42.3293V79.7316H46.5546V65.7316ZM53.5546 72.7322V72.7316H39.5546V72.7322H53.5546ZM54.3656 73.5432C53.9177 73.5432 53.5546 73.1801 53.5546 72.7322H39.5546C39.5546 80.9121 46.1857 87.5432 54.3656 87.5432V73.5432ZM55.1766 72.7322C55.1766 73.1801 54.8135 73.5432 54.3656 73.5432V87.5432C62.5455 87.5432 69.1766 80.9121 69.1766 72.7322H55.1766ZM55.1766 72.7316V72.7322H69.1766V72.7316H55.1766ZM75.5671 65.7316H62.1766V79.7316H75.5671V65.7316ZM82.5671 72.7322V72.7322V72.7322V72.7322C82.5671 72.7322 82.5671 72.7322 82.5671 72.7322C82.5671 72.7322 82.5671 72.7322 82.5671 72.7322C82.5671 72.7322 82.5671 72.7322 82.5671 72.7322C82.5671 72.7322 82.5671 72.7322 82.5671 72.7322C82.5671 72.7322 82.5671 72.7322 82.5671 72.7322C82.5671 72.7322 82.5671 72.7322 82.5671 72.7322C82.5671 72.7322 82.5671 72.7322 82.5671 72.7322C82.5671 72.7321 82.5671 72.7321 82.5671 72.7321C82.5671 72.7321 82.5671 72.7321 82.5671 72.7321C82.5671 72.7321 82.5671 72.7321 82.5671 72.7321C82.5671 72.7321 82.5671 72.7321 82.5671 72.7321C82.5671 72.7321 82.5671 72.7321 82.5671 72.7321C82.5671 72.7321 82.5671 72.7321 82.5671 72.7321V72.7321V72.7321V72.7321V72.7321V72.7321V72.7321C82.5671 72.7321 82.5671 72.7321 82.5671 72.7321C82.5671 72.7321 82.5671 72.7321 82.5671 72.7321C82.5671 72.7321 82.5671 72.7321 82.5671 72.7321C82.5671 72.7321 82.5671 72.7321 82.5671 72.7321C82.5671 72.7321 82.5671 72.7321 82.5671 72.7321C82.5671 72.7321 82.5671 72.7321 82.5671 72.7321C82.5671 72.7321 82.5671 72.7321 82.5671 72.7321C82.5671 72.7321 82.5671 72.7321 82.5671 72.7321C82.5671 72.7321 82.5671 72.7321 82.5671 72.7321C82.5671 72.7321 82.5671 72.7321 82.5671 72.7321V72.7321V72.7321V72.7321V72.7321V72.732C82.5671 72.732 82.5671 72.732 82.5671 72.732C82.5671 72.732 82.5671 72.732 82.5671 72.732C82.5671 72.732 82.5671 72.732 82.5671 72.732C82.5671 72.732 82.5671 72.732 82.5671 72.732C82.5671 72.732 82.5671 72.732 82.5671 72.732C82.5671 72.732 82.5671 72.732 82.5671 72.732C82.5671 72.732 82.5671 72.732 82.5671 72.732C82.5671 72.732 82.5671 72.732 82.5671 72.732C82.5671 72.732 82.5671 72.732 82.5671 72.732C82.5671 72.732 82.5671 72.732 82.5671 72.732V72.732V72.732V72.732V72.732V72.732C82.5671 72.732 82.5671 72.732 82.5671 72.732C82.5671 72.732 82.5671 72.732 82.5671 72.732C82.5671 72.732 82.5671 72.732 82.5671 72.732C82.5671 72.732 82.5671 72.732 82.5671 72.732C82.5671 72.732 82.5671 72.732 82.5671 72.732C82.5671 72.732 82.5671 72.732 82.5671 72.732C82.5671 72.732 82.5671 72.732 82.5671 72.732C82.5671 72.732 82.5671 72.732 82.5671 72.732C82.5671 72.732 82.5671 72.732 82.5671 72.732V72.732V72.7319V72.7319V72.7319V72.7319C82.5671 72.7319 82.5671 72.7319 82.5671 72.7319C82.5671 72.7319 82.5671 72.7319 82.5671 72.7319C82.5671 72.7319 82.5671 72.7319 82.5671 72.7319C82.5671 72.7319 82.5671 72.7319 82.5671 72.7319C82.5671 72.7319 82.5671 72.7319 82.5671 72.7319C82.5671 72.7319 82.5671 72.7319 82.5671 72.7319C82.5671 72.7319 82.5671 72.7319 82.5671 72.7319C82.5671 72.7319 82.5671 72.7319 82.5671 72.7319C82.5671 72.7319 82.5671 72.7319 82.5671 72.7319V72.7319V72.7319V72.7319V72.7319C82.5671 72.7319 82.5671 72.7319 82.5671 72.7319C82.5671 72.7319 82.5671 72.7319 82.5671 72.7319C82.5671 72.7319 82.5671 72.7319 82.5671 72.7319C82.5671 72.7319 82.5671 72.7319 82.5671 72.7319C82.5671 72.7319 82.5671 72.7319 82.5671 72.7319C82.5671 72.7319 82.5671 72.7319 82.5671 72.7319C82.5671 72.7319 82.5671 72.7319 82.5671 72.7319C82.5671 72.7319 82.5671 72.7319 82.5671 72.7319C82.5671 72.7319 82.5671 72.7319 82.5671 72.7319V72.7318V72.7318V72.7318V72.7318C82.5671 72.7318 82.5671 72.7318 82.5671 72.7318C82.5671 72.7318 82.5671 72.7318 82.5671 72.7318C82.5671 72.7318 82.5671 72.7318 82.5671 72.7318C82.5671 72.7318 82.5671 72.7318 82.5671 72.7318C82.5671 72.7318 82.5671 72.7318 82.5671 72.7318C82.5671 72.7318 82.5671 72.7318 82.5671 72.7318C82.5671 72.7318 82.5671 72.7318 82.5671 72.7318C82.5671 72.7318 82.5671 72.7318 82.5671 72.7318C82.5671 72.7318 82.5671 72.7318 82.5671 72.7318V72.7318V72.7318V72.7318V72.7318V72.7318C82.5671 72.7318 82.5671 72.7318 82.5671 72.7318C82.5671 72.7318 82.5671 72.7318 82.5671 72.7318C82.5671 72.7318 82.5671 72.7318 82.5671 72.7318C82.5671 72.7318 82.5671 72.7318 82.5671 72.7318C82.5671 72.7318 82.5671 72.7318 82.5671 72.7318C82.5671 72.7318 82.5671 72.7318 82.5671 72.7318C82.5671 72.7318 82.5671 72.7318 82.5671 72.7318C82.5671 72.7318 82.5671 72.7318 82.5671 72.7318C82.5671 72.7318 82.5671 72.7318 82.5671 72.7318V72.7317V72.7317V72.7317V72.7317V72.7317C82.5671 72.7317 82.5671 72.7317 82.5671 72.7317C82.5671 72.7317 82.5671 72.7317 82.5671 72.7317C82.5671 72.7317 82.5671 72.7317 82.5671 72.7317C82.5671 72.7317 82.5671 72.7317 82.5671 72.7317C82.5671 72.7317 82.5671 72.7317 82.5671 72.7317C82.5671 72.7317 82.5671 72.7317 82.5671 72.7317C82.5671 72.7317 82.5671 72.7317 82.5671 72.7317C82.5671 72.7317 82.5671 72.7317 82.5671 72.7317C82.5671 72.7317 82.5671 72.7317 82.5671 72.7317C82.5671 72.7317 82.5671 72.7317 82.5671 72.7317V72.7317V72.7317V72.7317V72.7317V72.7317C82.5671 72.7317 82.5671 72.7317 82.5671 72.7317C82.5671 72.7317 82.5671 72.7317 82.5671 72.7317C82.5671 72.7317 82.5671 72.7317 82.5671 72.7317C82.5671 72.7317 82.5671 72.7317 82.5671 72.7317C82.5671 72.7317 82.5671 72.7317 82.5671 72.7317C82.5671 72.7317 82.5671 72.7317 82.5671 72.7317C82.5671 72.7316 82.5671 72.7316 82.5671 72.7316C82.5671 72.7316 82.5671 72.7316 82.5671 72.7316C82.5671 72.7316 82.5671 72.7316 82.5671 72.7316C82.5671 72.7316 82.5671 72.7316 82.5671 72.7316V72.7316V72.7316V72.7316V72.7316V72.7316V72.7316C82.5671 72.7316 82.5671 72.7316 82.5671 72.7316C82.5671 72.7316 82.5671 72.7316 82.5671 72.7316C82.5671 72.7316 82.5671 72.7316 82.5671 72.7316C82.5671 72.7316 82.5671 72.7316 82.5671 72.7316C82.5671 72.7316 82.5671 72.7316 82.5671 72.7316C82.5671 72.7316 82.5671 72.7316 82.5671 72.7316C82.5671 72.7316 82.5671 72.7316 82.5671 72.7316C82.5671 72.7316 82.5671 72.7316 82.5671 72.7316C82.5671 72.7316 82.5671 72.7316 82.5671 72.7316C82.5671 72.7316 82.5671 72.7316 82.5671 72.7316C82.5671 72.7316 82.5671 72.7316 82.5671 72.7316C82.5671 72.7316 82.5671 72.7316 82.5671 72.7316C82.5671 72.7316 82.5671 72.7316 82.5671 72.7316V72.7316V72.7316V72.7316H68.5671V72.7316V72.7316V72.7316C68.5671 72.7316 68.5671 72.7316 68.5671 72.7316C68.5671 72.7316 68.5671 72.7316 68.5671 72.7316C68.5671 72.7316 68.5671 72.7316 68.5671 72.7316C68.5671 72.7316 68.5671 72.7316 68.5671 72.7316C68.5671 72.7316 68.5671 72.7316 68.5671 72.7316C68.5671 72.7316 68.5671 72.7316 68.5671 72.7316C68.5671 72.7316 68.5671 72.7316 68.5671 72.7316C68.5671 72.7316 68.5671 72.7316 68.5671 72.7316C68.5671 72.7316 68.5671 72.7316 68.5671 72.7316C68.5671 72.7316 68.5671 72.7316 68.5671 72.7316C68.5671 72.7316 68.5671 72.7316 68.5671 72.7316C68.5671 72.7316 68.5671 72.7316 68.5671 72.7316C68.5671 72.7316 68.5671 72.7316 68.5671 72.7316V72.7316V72.7316V72.7316V72.7316V72.7316V72.7316C68.5671 72.7316 68.5671 72.7316 68.5671 72.7316C68.5671 72.7316 68.5671 72.7316 68.5671 72.7316C68.5671 72.7316 68.5671 72.7316 68.5671 72.7316C68.5671 72.7316 68.5671 72.7316 68.5671 72.7317C68.5671 72.7317 68.5671 72.7317 68.5671 72.7317C68.5671 72.7317 68.5671 72.7317 68.5671 72.7317C68.5671 72.7317 68.5671 72.7317 68.5671 72.7317C68.5671 72.7317 68.5671 72.7317 68.5671 72.7317C68.5671 72.7317 68.5671 72.7317 68.5671 72.7317C68.5671 72.7317 68.5671 72.7317 68.5671 72.7317V72.7317V72.7317V72.7317V72.7317V72.7317C68.5671 72.7317 68.5671 72.7317 68.5671 72.7317C68.5671 72.7317 68.5671 72.7317 68.5671 72.7317C68.5671 72.7317 68.5671 72.7317 68.5671 72.7317C68.5671 72.7317 68.5671 72.7317 68.5671 72.7317C68.5671 72.7317 68.5671 72.7317 68.5671 72.7317C68.5671 72.7317 68.5671 72.7317 68.5671 72.7317C68.5671 72.7317 68.5671 72.7317 68.5671 72.7317C68.5671 72.7317 68.5671 72.7317 68.5671 72.7317C68.5671 72.7317 68.5671 72.7317 68.5671 72.7317C68.5671 72.7317 68.5671 72.7317 68.5671 72.7317V72.7317V72.7317V72.7317V72.7317V72.7318C68.5671 72.7318 68.5671 72.7318 68.5671 72.7318C68.5671 72.7318 68.5671 72.7318 68.5671 72.7318C68.5671 72.7318 68.5671 72.7318 68.5671 72.7318C68.5671 72.7318 68.5671 72.7318 68.5671 72.7318C68.5671 72.7318 68.5671 72.7318 68.5671 72.7318C68.5671 72.7318 68.5671 72.7318 68.5671 72.7318C68.5671 72.7318 68.5671 72.7318 68.5671 72.7318C68.5671 72.7318 68.5671 72.7318 68.5671 72.7318C68.5671 72.7318 68.5671 72.7318 68.5671 72.7318V72.7318V72.7318V72.7318V72.7318V72.7318C68.5671 72.7318 68.5671 72.7318 68.5671 72.7318C68.5671 72.7318 68.5671 72.7318 68.5671 72.7318C68.5671 72.7318 68.5671 72.7318 68.5671 72.7318C68.5671 72.7318 68.5671 72.7318 68.5671 72.7318C68.5671 72.7318 68.5671 72.7318 68.5671 72.7318C68.5671 72.7318 68.5671 72.7318 68.5671 72.7318C68.5671 72.7318 68.5671 72.7318 68.5671 72.7318C68.5671 72.7318 68.5671 72.7318 68.5671 72.7318C68.5671 72.7318 68.5671 72.7318 68.5671 72.7318V72.7318V72.7318V72.7318V72.7319C68.5671 72.7319 68.5671 72.7319 68.5671 72.7319C68.5671 72.7319 68.5671 72.7319 68.5671 72.7319C68.5671 72.7319 68.5671 72.7319 68.5671 72.7319C68.5671 72.7319 68.5671 72.7319 68.5671 72.7319C68.5671 72.7319 68.5671 72.7319 68.5671 72.7319C68.5671 72.7319 68.5671 72.7319 68.5671 72.7319C68.5671 72.7319 68.5671 72.7319 68.5671 72.7319C68.5671 72.7319 68.5671 72.7319 68.5671 72.7319C68.5671 72.7319 68.5671 72.7319 68.5671 72.7319V72.7319V72.7319V72.7319V72.7319C68.5671 72.7319 68.5671 72.7319 68.5671 72.7319C68.5671 72.7319 68.5671 72.7319 68.5671 72.7319C68.5671 72.7319 68.5671 72.7319 68.5671 72.7319C68.5671 72.7319 68.5671 72.7319 68.5671 72.7319C68.5671 72.7319 68.5671 72.7319 68.5671 72.7319C68.5671 72.7319 68.5671 72.7319 68.5671 72.7319C68.5671 72.7319 68.5671 72.7319 68.5671 72.7319C68.5671 72.7319 68.5671 72.7319 68.5671 72.7319C68.5671 72.7319 68.5671 72.7319 68.5671 72.7319V72.7319V72.7319V72.7319V72.732V72.732C68.5671 72.732 68.5671 72.732 68.5671 72.732C68.5671 72.732 68.5671 72.732 68.5671 72.732C68.5671 72.732 68.5671 72.732 68.5671 72.732C68.5671 72.732 68.5671 72.732 68.5671 72.732C68.5671 72.732 68.5671 72.732 68.5671 72.732C68.5671 72.732 68.5671 72.732 68.5671 72.732C68.5671 72.732 68.5671 72.732 68.5671 72.732C68.5671 72.732 68.5671 72.732 68.5671 72.732C68.5671 72.732 68.5671 72.732 68.5671 72.732V72.732V72.732V72.732V72.732V72.732C68.5671 72.732 68.5671 72.732 68.5671 72.732C68.5671 72.732 68.5671 72.732 68.5671 72.732C68.5671 72.732 68.5671 72.732 68.5671 72.732C68.5671 72.732 68.5671 72.732 68.5671 72.732C68.5671 72.732 68.5671 72.732 68.5671 72.732C68.5671 72.732 68.5671 72.732 68.5671 72.732C68.5671 72.732 68.5671 72.732 68.5671 72.732C68.5671 72.732 68.5671 72.732 68.5671 72.732C68.5671 72.732 68.5671 72.732 68.5671 72.732C68.5671 72.732 68.5671 72.732 68.5671 72.732V72.7321V72.7321V72.7321V72.7321V72.7321C68.5671 72.7321 68.5671 72.7321 68.5671 72.7321C68.5671 72.7321 68.5671 72.7321 68.5671 72.7321C68.5671 72.7321 68.5671 72.7321 68.5671 72.7321C68.5671 72.7321 68.5671 72.7321 68.5671 72.7321C68.5671 72.7321 68.5671 72.7321 68.5671 72.7321C68.5671 72.7321 68.5671 72.7321 68.5671 72.7321C68.5671 72.7321 68.5671 72.7321 68.5671 72.7321C68.5671 72.7321 68.5671 72.7321 68.5671 72.7321C68.5671 72.7321 68.5671 72.7321 68.5671 72.7321C68.5671 72.7321 68.5671 72.7321 68.5671 72.7321V72.7321V72.7321V72.7321V72.7321V72.7321V72.7321C68.5671 72.7321 68.5671 72.7321 68.5671 72.7321C68.5671 72.7321 68.5671 72.7321 68.5671 72.7321C68.5671 72.7321 68.5671 72.7321 68.5671 72.7321C68.5671 72.7321 68.5671 72.7321 68.5671 72.7321C68.5671 72.7321 68.5671 72.7321 68.5671 72.7321C68.5671 72.7321 68.5671 72.7321 68.5671 72.7322C68.5671 72.7322 68.5671 72.7322 68.5671 72.7322C68.5671 72.7322 68.5671 72.7322 68.5671 72.7322C68.5671 72.7322 68.5671 72.7322 68.5671 72.7322C68.5671 72.7322 68.5671 72.7322 68.5671 72.7322C68.5671 72.7322 68.5671 72.7322 68.5671 72.7322C68.5671 72.7322 68.5671 72.7322 68.5671 72.7322C68.5671 72.7322 68.5671 72.7322 68.5671 72.7322V72.7322V72.7322V72.7322H82.5671ZM83.378 73.5432C82.9301 73.5432 82.5671 73.1801 82.5671 72.7322H68.5671C68.5671 80.9121 75.1982 87.5432 83.378 87.5432V73.5432ZM84.189 72.7322C84.189 73.1801 83.8259 73.5432 83.378 73.5432V87.5432C91.5579 87.5432 98.189 80.9121 98.189 72.7322H84.189ZM84.189 72.7316V72.7316V72.7316V72.7316C84.189 72.7316 84.189 72.7316 84.189 72.7316C84.189 72.7316 84.189 72.7316 84.189 72.7316C84.189 72.7316 84.189 72.7316 84.189 72.7316C84.189 72.7316 84.189 72.7316 84.189 72.7316C84.189 72.7316 84.189 72.7316 84.189 72.7316C84.189 72.7316 84.189 72.7316 84.189 72.7316C84.189 72.7316 84.189 72.7316 84.189 72.7316C84.189 72.7316 84.189 72.7316 84.189 72.7316C84.189 72.7316 84.189 72.7316 84.189 72.7316C84.189 72.7316 84.189 72.7316 84.189 72.7316C84.189 72.7316 84.189 72.7316 84.189 72.7316C84.189 72.7316 84.189 72.7316 84.189 72.7316C84.189 72.7316 84.189 72.7316 84.189 72.7316V72.7316V72.7316V72.7316V72.7316V72.7316V72.7316C84.189 72.7316 84.189 72.7316 84.189 72.7316C84.189 72.7316 84.189 72.7316 84.189 72.7316C84.189 72.7316 84.189 72.7316 84.189 72.7316C84.189 72.7316 84.189 72.7316 84.189 72.7317C84.189 72.7317 84.189 72.7317 84.189 72.7317C84.189 72.7317 84.189 72.7317 84.189 72.7317C84.189 72.7317 84.189 72.7317 84.189 72.7317C84.189 72.7317 84.189 72.7317 84.189 72.7317C84.189 72.7317 84.189 72.7317 84.189 72.7317C84.189 72.7317 84.189 72.7317 84.189 72.7317V72.7317V72.7317V72.7317V72.7317V72.7317C84.189 72.7317 84.189 72.7317 84.189 72.7317C84.189 72.7317 84.189 72.7317 84.189 72.7317C84.189 72.7317 84.189 72.7317 84.189 72.7317C84.189 72.7317 84.189 72.7317 84.189 72.7317C84.189 72.7317 84.189 72.7317 84.189 72.7317C84.189 72.7317 84.189 72.7317 84.189 72.7317C84.189 72.7317 84.189 72.7317 84.189 72.7317C84.189 72.7317 84.189 72.7317 84.189 72.7317C84.189 72.7317 84.189 72.7317 84.189 72.7317C84.189 72.7317 84.189 72.7317 84.189 72.7317V72.7317V72.7317V72.7317V72.7317V72.7318C84.189 72.7318 84.189 72.7318 84.189 72.7318C84.189 72.7318 84.189 72.7318 84.189 72.7318C84.189 72.7318 84.189 72.7318 84.189 72.7318C84.189 72.7318 84.189 72.7318 84.189 72.7318C84.189 72.7318 84.189 72.7318 84.189 72.7318C84.189 72.7318 84.189 72.7318 84.189 72.7318C84.189 72.7318 84.189 72.7318 84.189 72.7318C84.189 72.7318 84.189 72.7318 84.189 72.7318C84.189 72.7318 84.189 72.7318 84.189 72.7318V72.7318V72.7318V72.7318V72.7318V72.7318C84.189 72.7318 84.189 72.7318 84.189 72.7318C84.189 72.7318 84.189 72.7318 84.189 72.7318C84.189 72.7318 84.189 72.7318 84.189 72.7318C84.189 72.7318 84.189 72.7318 84.189 72.7318C84.189 72.7318 84.189 72.7318 84.189 72.7318C84.189 72.7318 84.189 72.7318 84.189 72.7318C84.189 72.7318 84.189 72.7318 84.189 72.7318C84.189 72.7318 84.189 72.7318 84.189 72.7318C84.189 72.7318 84.189 72.7318 84.189 72.7318V72.7318V72.7318V72.7318V72.7319C84.189 72.7319 84.189 72.7319 84.189 72.7319C84.189 72.7319 84.189 72.7319 84.189 72.7319C84.189 72.7319 84.189 72.7319 84.189 72.7319C84.189 72.7319 84.189 72.7319 84.189 72.7319C84.189 72.7319 84.189 72.7319 84.189 72.7319C84.189 72.7319 84.189 72.7319 84.189 72.7319C84.189 72.7319 84.189 72.7319 84.189 72.7319C84.189 72.7319 84.189 72.7319 84.189 72.7319C84.189 72.7319 84.189 72.7319 84.189 72.7319V72.7319V72.7319V72.7319V72.7319C84.189 72.7319 84.189 72.7319 84.189 72.7319C84.189 72.7319 84.189 72.7319 84.189 72.7319C84.189 72.7319 84.189 72.7319 84.189 72.7319C84.189 72.7319 84.189 72.7319 84.189 72.7319C84.189 72.7319 84.189 72.7319 84.189 72.7319C84.189 72.7319 84.189 72.7319 84.189 72.7319C84.189 72.7319 84.189 72.7319 84.189 72.7319C84.189 72.7319 84.189 72.7319 84.189 72.7319C84.189 72.7319 84.189 72.7319 84.189 72.7319V72.7319V72.7319V72.7319V72.732V72.732C84.189 72.732 84.189 72.732 84.189 72.732C84.189 72.732 84.189 72.732 84.189 72.732C84.189 72.732 84.189 72.732 84.189 72.732C84.189 72.732 84.189 72.732 84.189 72.732C84.189 72.732 84.189 72.732 84.189 72.732C84.189 72.732 84.189 72.732 84.189 72.732C84.189 72.732 84.189 72.732 84.189 72.732C84.189 72.732 84.189 72.732 84.189 72.732C84.189 72.732 84.189 72.732 84.189 72.732V72.732V72.732V72.732V72.732V72.732C84.189 72.732 84.189 72.732 84.189 72.732C84.189 72.732 84.189 72.732 84.189 72.732C84.189 72.732 84.189 72.732 84.189 72.732C84.189 72.732 84.189 72.732 84.189 72.732C84.189 72.732 84.189 72.732 84.189 72.732C84.189 72.732 84.189 72.732 84.189 72.732C84.189 72.732 84.189 72.732 84.189 72.732C84.189 72.732 84.189 72.732 84.189 72.732C84.189 72.732 84.189 72.732 84.189 72.732C84.189 72.732 84.189 72.732 84.189 72.732V72.7321V72.7321V72.7321V72.7321V72.7321C84.189 72.7321 84.189 72.7321 84.189 72.7321C84.189 72.7321 84.189 72.7321 84.189 72.7321C84.189 72.7321 84.189 72.7321 84.189 72.7321C84.189 72.7321 84.189 72.7321 84.189 72.7321C84.189 72.7321 84.189 72.7321 84.189 72.7321C84.189 72.7321 84.189 72.7321 84.189 72.7321C84.189 72.7321 84.189 72.7321 84.189 72.7321C84.189 72.7321 84.189 72.7321 84.189 72.7321C84.189 72.7321 84.189 72.7321 84.189 72.7321C84.189 72.7321 84.189 72.7321 84.189 72.7321V72.7321V72.7321V72.7321V72.7321V72.7321V72.7321C84.189 72.7321 84.189 72.7321 84.189 72.7321C84.189 72.7321 84.189 72.7321 84.189 72.7321C84.189 72.7321 84.189 72.7321 84.189 72.7321C84.189 72.7321 84.189 72.7321 84.189 72.7321C84.189 72.7321 84.189 72.7321 84.189 72.7321C84.189 72.7321 84.189 72.7321 84.189 72.7322C84.189 72.7322 84.189 72.7322 84.189 72.7322C84.189 72.7322 84.189 72.7322 84.189 72.7322C84.189 72.7322 84.189 72.7322 84.189 72.7322C84.189 72.7322 84.189 72.7322 84.189 72.7322C84.189 72.7322 84.189 72.7322 84.189 72.7322C84.189 72.7322 84.189 72.7322 84.189 72.7322C84.189 72.7322 84.189 72.7322 84.189 72.7322V72.7322V72.7322V72.7322H98.189V72.7322V72.7322V72.7322C98.189 72.7322 98.189 72.7322 98.189 72.7322C98.189 72.7322 98.189 72.7322 98.189 72.7322C98.189 72.7322 98.189 72.7322 98.189 72.7322C98.189 72.7322 98.189 72.7322 98.189 72.7322C98.189 72.7322 98.189 72.7322 98.189 72.7322C98.189 72.7322 98.189 72.7322 98.189 72.7322C98.189 72.7322 98.189 72.7322 98.189 72.7322C98.189 72.7321 98.189 72.7321 98.189 72.7321C98.189 72.7321 98.189 72.7321 98.189 72.7321C98.189 72.7321 98.189 72.7321 98.189 72.7321C98.189 72.7321 98.189 72.7321 98.189 72.7321C98.189 72.7321 98.189 72.7321 98.189 72.7321C98.189 72.7321 98.189 72.7321 98.189 72.7321V72.7321V72.7321V72.7321V72.7321V72.7321V72.7321C98.189 72.7321 98.189 72.7321 98.189 72.7321C98.189 72.7321 98.189 72.7321 98.189 72.7321C98.189 72.7321 98.189 72.7321 98.189 72.7321C98.189 72.7321 98.189 72.7321 98.189 72.7321C98.189 72.7321 98.189 72.7321 98.189 72.7321C98.189 72.7321 98.189 72.7321 98.189 72.7321C98.189 72.7321 98.189 72.7321 98.189 72.7321C98.189 72.7321 98.189 72.7321 98.189 72.7321C98.189 72.7321 98.189 72.7321 98.189 72.7321C98.189 72.7321 98.189 72.7321 98.189 72.7321V72.7321V72.7321V72.7321V72.7321V72.732C98.189 72.732 98.189 72.732 98.189 72.732C98.189 72.732 98.189 72.732 98.189 72.732C98.189 72.732 98.189 72.732 98.189 72.732C98.189 72.732 98.189 72.732 98.189 72.732C98.189 72.732 98.189 72.732 98.189 72.732C98.189 72.732 98.189 72.732 98.189 72.732C98.189 72.732 98.189 72.732 98.189 72.732C98.189 72.732 98.189 72.732 98.189 72.732C98.189 72.732 98.189 72.732 98.189 72.732C98.189 72.732 98.189 72.732 98.189 72.732V72.732V72.732V72.732V72.732V72.732C98.189 72.732 98.189 72.732 98.189 72.732C98.189 72.732 98.189 72.732 98.189 72.732C98.189 72.732 98.189 72.732 98.189 72.732C98.189 72.732 98.189 72.732 98.189 72.732C98.189 72.732 98.189 72.732 98.189 72.732C98.189 72.732 98.189 72.732 98.189 72.732C98.189 72.732 98.189 72.732 98.189 72.732C98.189 72.732 98.189 72.732 98.189 72.732C98.189 72.732 98.189 72.732 98.189 72.732V72.732V72.7319V72.7319V72.7319V72.7319C98.189 72.7319 98.189 72.7319 98.189 72.7319C98.189 72.7319 98.189 72.7319 98.189 72.7319C98.189 72.7319 98.189 72.7319 98.189 72.7319C98.189 72.7319 98.189 72.7319 98.189 72.7319C98.189 72.7319 98.189 72.7319 98.189 72.7319C98.189 72.7319 98.189 72.7319 98.189 72.7319C98.189 72.7319 98.189 72.7319 98.189 72.7319C98.189 72.7319 98.189 72.7319 98.189 72.7319C98.189 72.7319 98.189 72.7319 98.189 72.7319V72.7319V72.7319V72.7319V72.7319C98.189 72.7319 98.189 72.7319 98.189 72.7319C98.189 72.7319 98.189 72.7319 98.189 72.7319C98.189 72.7319 98.189 72.7319 98.189 72.7319C98.189 72.7319 98.189 72.7319 98.189 72.7319C98.189 72.7319 98.189 72.7319 98.189 72.7319C98.189 72.7319 98.189 72.7319 98.189 72.7319C98.189 72.7319 98.189 72.7319 98.189 72.7319C98.189 72.7319 98.189 72.7319 98.189 72.7319C98.189 72.7319 98.189 72.7319 98.189 72.7319V72.7318V72.7318V72.7318V72.7318C98.189 72.7318 98.189 72.7318 98.189 72.7318C98.189 72.7318 98.189 72.7318 98.189 72.7318C98.189 72.7318 98.189 72.7318 98.189 72.7318C98.189 72.7318 98.189 72.7318 98.189 72.7318C98.189 72.7318 98.189 72.7318 98.189 72.7318C98.189 72.7318 98.189 72.7318 98.189 72.7318C98.189 72.7318 98.189 72.7318 98.189 72.7318C98.189 72.7318 98.189 72.7318 98.189 72.7318C98.189 72.7318 98.189 72.7318 98.189 72.7318V72.7318V72.7318V72.7318V72.7318V72.7318C98.189 72.7318 98.189 72.7318 98.189 72.7318C98.189 72.7318 98.189 72.7318 98.189 72.7318C98.189 72.7318 98.189 72.7318 98.189 72.7318C98.189 72.7318 98.189 72.7318 98.189 72.7318C98.189 72.7318 98.189 72.7318 98.189 72.7318C98.189 72.7318 98.189 72.7318 98.189 72.7318C98.189 72.7318 98.189 72.7318 98.189 72.7318C98.189 72.7318 98.189 72.7318 98.189 72.7318C98.189 72.7318 98.189 72.7318 98.189 72.7318V72.7317V72.7317V72.7317V72.7317V72.7317C98.189 72.7317 98.189 72.7317 98.189 72.7317C98.189 72.7317 98.189 72.7317 98.189 72.7317C98.189 72.7317 98.189 72.7317 98.189 72.7317C98.189 72.7317 98.189 72.7317 98.189 72.7317C98.189 72.7317 98.189 72.7317 98.189 72.7317C98.189 72.7317 98.189 72.7317 98.189 72.7317C98.189 72.7317 98.189 72.7317 98.189 72.7317C98.189 72.7317 98.189 72.7317 98.189 72.7317C98.189 72.7317 98.189 72.7317 98.189 72.7317C98.189 72.7317 98.189 72.7317 98.189 72.7317V72.7317V72.7317V72.7317V72.7317V72.7317C98.189 72.7317 98.189 72.7317 98.189 72.7317C98.189 72.7317 98.189 72.7317 98.189 72.7317C98.189 72.7317 98.189 72.7317 98.189 72.7317C98.189 72.7317 98.189 72.7317 98.189 72.7317C98.189 72.7317 98.189 72.7317 98.189 72.7317C98.189 72.7317 98.189 72.7317 98.189 72.7317C98.189 72.7316 98.189 72.7316 98.189 72.7316C98.189 72.7316 98.189 72.7316 98.189 72.7316C98.189 72.7316 98.189 72.7316 98.189 72.7316C98.189 72.7316 98.189 72.7316 98.189 72.7316V72.7316V72.7316V72.7316V72.7316V72.7316V72.7316C98.189 72.7316 98.189 72.7316 98.189 72.7316C98.189 72.7316 98.189 72.7316 98.189 72.7316C98.189 72.7316 98.189 72.7316 98.189 72.7316C98.189 72.7316 98.189 72.7316 98.189 72.7316C98.189 72.7316 98.189 72.7316 98.189 72.7316C98.189 72.7316 98.189 72.7316 98.189 72.7316C98.189 72.7316 98.189 72.7316 98.189 72.7316C98.189 72.7316 98.189 72.7316 98.189 72.7316C98.189 72.7316 98.189 72.7316 98.189 72.7316C98.189 72.7316 98.189 72.7316 98.189 72.7316C98.189 72.7316 98.189 72.7316 98.189 72.7316C98.189 72.7316 98.189 72.7316 98.189 72.7316C98.189 72.7316 98.189 72.7316 98.189 72.7316V72.7316V72.7316V72.7316H84.189ZM94.6707 65.7316H91.189V79.7316H94.6707V65.7316ZM92 68.4023C92 66.9273 93.1957 65.7316 94.6707 65.7316V79.7316C100.928 79.7316 106 74.6593 106 68.4023H92ZM92 59.5791V68.4023H106V59.5791H92ZM94.6707 62.2498C93.1957 62.2498 92 61.0541 92 59.5791H106C106 53.3221 100.928 48.2498 94.6707 48.2498V62.2498ZM91.285 62.2498H94.6707V48.2498H91.285V62.2498ZM83.3383 56.9147C84.5981 59.9562 87.6147 62.2498 91.285 62.2498V48.2498C93.6506 48.2498 95.5121 49.721 96.2726 51.5571L83.3383 56.9147ZM79.8568 51.7042C81.3481 53.1955 82.5312 54.9661 83.3383 56.9147L96.2726 51.5571C94.7619 47.91 92.5477 44.5961 89.7562 41.8047L79.8568 51.7042ZM74.6462 48.2226C76.5948 49.0297 78.3653 50.2128 79.8568 51.7042L89.7562 41.8047C86.9648 39.0132 83.6509 36.799 80.0038 35.2883L74.6462 48.2226ZM68.4999 47C70.6091 47 72.6976 47.4154 74.6462 48.2226L80.0038 35.2883C76.3566 33.7775 72.4476 33 68.4999 33V47ZM62.3537 48.2226C64.3023 47.4154 66.3908 47 68.4999 47V33C64.5523 33 60.6432 33.7776 56.9961 35.2883L62.3537 48.2226ZM57.1431 51.7042C58.6345 50.2128 60.405 49.0297 62.3537 48.2226L56.9961 35.2883C53.3489 36.799 50.035 39.0132 47.2436 41.8047L57.1431 51.7042ZM53.6615 56.9147C54.4687 54.9661 55.6517 53.1955 57.1431 51.7042L47.2436 41.8047C44.4522 44.5961 42.2379 47.91 40.7272 51.5571L53.6615 56.9147Z" fill="black" mask="url(#path-22-outside-3)"/>
<rect x="64.6348" y="41.7183" width="7.73239" height="20.6197" fill="#FF0000"/>
</svg>
