<svg width="90" height="80" viewBox="0 0 90 80" fill="none" xmlns="http://www.w3.org/2000/svg">
<mask id="path-1-outside-1" maskUnits="userSpaceOnUse" x="0" y="-0.373047" width="50" height="61" fill="black">
<rect fill="white" y="-0.373047" width="50" height="61"/>
<path fill-rule="evenodd" clip-rule="evenodd" d="M39.951 7.64929C39.9483 7.65198 39.9448 7.65374 39.941 7.6543L35.6957 8.28219C31.0754 8.96555 27.2639 12.0493 25.5586 16.236L22.9259 9.97484C22.3959 8.71422 20.9443 8.12199 19.6836 8.65205C18.423 9.18211 17.8308 10.6337 18.3609 11.8944L21.4813 19.3155C21.1571 19.2866 20.8297 19.272 20.4996 19.272C13.044 19.272 7 26.755 7 35.9857C7 45.2165 13.044 52.6995 20.4996 52.6995C22.0775 52.6995 23.5922 52.3643 24.9998 51.7483C26.4072 52.3641 27.9217 52.6992 29.4995 52.6992C36.9551 52.6992 42.999 45.2162 42.999 35.9855C42.999 28.8733 39.411 22.7987 34.3539 20.3849C36.9952 18.377 38.8397 15.3813 39.3493 11.9358L39.9772 7.69051C39.9778 7.68674 39.9795 7.68325 39.9822 7.68055L40.002 7.66073C40.0078 7.65495 40.0029 7.64514 39.9948 7.64634C39.9892 7.64717 39.9843 7.64234 39.9852 7.63671C39.9864 7.62862 39.9766 7.62369 39.9708 7.62947L39.951 7.64929Z"/>
</mask>
<path d="M39.941 7.6543L40.9652 14.579L40.9654 14.5789L39.941 7.6543ZM39.951 7.64929L35.0016 2.69918L34.9999 2.70083L39.951 7.64929ZM35.6957 8.28219L34.6715 1.35751L35.6957 8.28219ZM25.5586 16.236L19.1059 18.9493L25.6616 34.5404L32.0415 18.8765L25.5586 16.236ZM22.9259 9.97484L29.3787 7.26158V7.26158L22.9259 9.97484ZM19.6836 8.65205L22.3969 15.1048L22.3969 15.1048L19.6836 8.65205ZM18.3609 11.8944L11.9081 14.6076L11.9081 14.6076L18.3609 11.8944ZM21.4813 19.3155L20.8609 26.2879L32.4399 27.3182L27.934 16.6022L21.4813 19.3155ZM24.9998 51.7483L27.806 45.3354L24.9996 44.1074L22.1933 45.3355L24.9998 51.7483ZM34.3539 20.3849L30.1177 14.8122L20.9802 21.7582L31.3386 26.7022L34.3539 20.3849ZM39.3493 11.9358L46.274 12.96V12.96L39.3493 11.9358ZM39.9772 7.69051L46.9019 8.71468L46.902 8.71361L39.9772 7.69051ZM39.9822 7.68055L44.9297 12.6325L44.9321 12.6302L39.9822 7.68055ZM40.002 7.66073L35.0522 2.71108L35.0522 2.71111L40.002 7.66073ZM39.9948 7.64634L41.0187 14.5711L41.0187 14.571L39.9948 7.64634ZM39.9852 7.63671L46.91 8.65975L46.9101 8.6593L39.9852 7.63671ZM39.9708 7.62947L44.9202 12.5796L44.9207 12.5791L39.9708 7.62947ZM40.9654 14.5789C42.4553 14.3585 43.8359 13.6644 44.902 12.5977L34.9999 2.70083C36.0606 1.63956 37.4342 0.948955 38.9166 0.729657L40.9654 14.5789ZM36.7199 15.2069L40.9652 14.579L38.9168 0.729627L34.6715 1.35751L36.7199 15.2069ZM32.0415 18.8765C32.8291 16.9428 34.591 15.5217 36.7199 15.2069L34.6715 1.35751C27.5597 2.40937 21.6987 7.15573 19.0758 13.5956L32.0415 18.8765ZM16.4732 12.6881L19.1059 18.9493L32.0114 13.5228L29.3787 7.26158L16.4732 12.6881ZM22.3969 15.1048C20.0937 16.0733 17.4416 14.9912 16.4732 12.6881L29.3787 7.26158C27.3502 2.4372 21.7948 0.170733 16.9704 2.19928L22.3969 15.1048ZM24.8136 9.1811C25.7821 11.4843 24.7 14.1364 22.3969 15.1048L16.9704 2.19928C12.146 4.22783 9.87954 9.78323 11.9081 14.6076L24.8136 9.1811ZM27.934 16.6022L24.8136 9.1811L11.9081 14.6076L15.0285 22.0287L27.934 16.6022ZM22.1017 12.343C21.5717 12.2959 21.0373 12.272 20.4996 12.272V26.272C20.6221 26.272 20.7425 26.2774 20.8609 26.2879L22.1017 12.343ZM20.4996 12.272C7.85573 12.272 0 24.3593 0 35.9857H14C14 29.1506 18.2322 26.272 20.4996 26.272V12.272ZM0 35.9857C0 47.6121 7.85574 59.6995 20.4996 59.6995V45.6995C18.2322 45.6995 14 42.8209 14 35.9857H0ZM20.4996 59.6995C23.0853 59.6995 25.5529 59.1473 27.8063 58.1611L22.1933 45.3355C21.6316 45.5813 21.0698 45.6995 20.4996 45.6995V59.6995ZM22.1936 58.1612C24.4468 59.1472 26.9141 59.6992 29.4995 59.6992V45.6992C28.9293 45.6992 28.3676 45.5811 27.806 45.3354L22.1936 58.1612ZM29.4995 59.6992C42.1433 59.6992 49.999 47.6119 49.999 35.9855H35.999C35.999 42.8206 31.7668 45.6992 29.4995 45.6992V59.6992ZM49.999 35.9855C49.999 26.7361 45.3289 17.8668 37.3691 14.0676L31.3386 26.7022C33.4932 27.7306 35.999 31.0105 35.999 35.9855H49.999ZM32.4247 10.9116C32.1897 12.4999 31.3423 13.8813 30.1177 14.8122L38.59 25.9576C42.6481 22.8728 45.4897 18.2628 46.274 12.96L32.4247 10.9116ZM33.0525 6.66633L32.4247 10.9116L46.274 12.96L46.9019 8.71468L33.0525 6.66633ZM35.0347 2.72855C33.9668 3.79555 33.2726 5.17716 33.0524 6.6674L46.902 8.71361C46.683 10.1963 45.9923 11.5709 44.9297 12.6325L35.0347 2.72855ZM35.0522 2.71111L35.0323 2.73093L44.9321 12.6302L44.9519 12.6103L35.0522 2.71111ZM41.0187 14.571C34.3548 15.5564 30.2891 7.47436 35.0522 2.71108L44.9519 12.6104C49.7265 7.83554 45.6509 -0.266139 38.9709 0.721634L41.0187 14.571ZM33.0603 6.61366C32.3738 11.2609 36.3657 15.259 41.0187 14.5711L38.9709 0.721624C43.6126 0.0353031 47.5949 4.02381 46.91 8.65975L33.0603 6.61366ZM44.9207 12.5791C40.1538 17.3462 32.0771 13.2718 33.0603 6.61411L46.9101 8.6593C47.8956 1.98546 39.7993 -2.09886 35.0209 2.67986L44.9207 12.5791ZM44.9003 12.5994L44.9202 12.5796L35.0214 2.67936L35.0016 2.69918L44.9003 12.5994Z" fill="black" mask="url(#path-1-outside-1)"/>
<path fill-rule="evenodd" clip-rule="evenodd" d="M39.9512 7.6487C39.9485 7.65139 39.945 7.65315 39.9412 7.6537L35.696 8.28159C30.0279 9.11992 25.5771 13.5706 24.7388 19.2387L24.1109 23.484C24.1104 23.4878 24.1086 23.4913 24.1059 23.494L24.0861 23.5138C24.0803 23.5196 24.0853 23.5294 24.0933 23.5282C24.099 23.5273 24.1038 23.5322 24.103 23.5378C24.1018 23.5459 24.1116 23.5508 24.1174 23.545L24.1372 23.5252C24.1399 23.5225 24.1434 23.5208 24.1471 23.5202L28.3924 22.8923C34.0605 22.054 38.5112 17.6033 39.3495 11.9352L39.9774 7.68991C39.978 7.68614 39.9797 7.68265 39.9824 7.67996L40.0023 7.66014C40.008 7.65436 40.0031 7.64455 39.995 7.64575C39.9894 7.64658 39.9846 7.64174 39.9854 7.63611C39.9866 7.62803 39.9768 7.62309 39.971 7.62887L39.9512 7.6487Z" fill="#1CC64B"/>
<path fill-rule="evenodd" clip-rule="evenodd" d="M29.4995 52.699C36.9551 52.699 42.999 45.216 42.999 35.9853C42.999 26.7545 36.9551 19.2715 29.4995 19.2715C27.9214 19.2715 26.4066 19.6067 24.999 20.2228C23.5917 19.607 22.0772 19.2719 20.4996 19.2719C13.044 19.2719 7 26.755 7 35.9857C7 45.2165 13.044 52.6995 20.4996 52.6995C22.0776 52.6995 23.5924 52.3643 25 51.7482C26.4074 52.364 27.9218 52.699 29.4995 52.699Z" fill="#FF0000"/>
<rect x="17" y="9" width="5" height="15" rx="2.5" transform="rotate(-22.8057 17 9)" fill="#984900"/>
<mask id="path-6-outside-2" maskUnits="userSpaceOnUse" x="40" y="19.627" width="50" height="61" fill="black">
<rect fill="white" x="40" y="19.627" width="50" height="61"/>
<path fill-rule="evenodd" clip-rule="evenodd" d="M79.951 27.6493C79.9483 27.652 79.9448 27.6537 79.941 27.6543L75.6957 28.2822C71.0754 28.9656 67.2639 32.0493 65.5586 36.236L62.9259 29.9748C62.3959 28.7142 60.9443 28.122 59.6836 28.6521C58.423 29.1821 57.8308 30.6337 58.3609 31.8944L61.4813 39.3155C61.1571 39.2866 60.8297 39.272 60.4996 39.272C53.044 39.272 47 46.755 47 55.9857C47 65.2165 53.044 72.6995 60.4996 72.6995C62.0775 72.6995 63.5922 72.3643 64.9998 71.7483C66.4072 72.3641 67.9217 72.6992 69.4995 72.6992C76.9551 72.6992 82.999 65.2162 82.999 55.9855C82.999 48.8733 79.411 42.7987 74.3539 40.3849C76.9952 38.377 78.8397 35.3813 79.3493 31.9358L79.9772 27.6905C79.9778 27.6867 79.9795 27.6832 79.9822 27.6806L80.002 27.6607C80.0078 27.6549 80.0029 27.6451 79.9948 27.6463C79.9892 27.6472 79.9843 27.6423 79.9852 27.6367C79.9864 27.6286 79.9766 27.6237 79.9708 27.6295L79.951 27.6493Z"/>
</mask>
<path d="M79.941 27.6543L80.9652 34.579L80.9654 34.5789L79.941 27.6543ZM79.951 27.6493L75.0016 22.6992L74.9999 22.7008L79.951 27.6493ZM75.6957 28.2822L74.6715 21.3575L75.6957 28.2822ZM65.5586 36.236L59.1059 38.9493L65.6616 54.5404L72.0415 38.8765L65.5586 36.236ZM62.9259 29.9748L69.3787 27.2616V27.2616L62.9259 29.9748ZM59.6836 28.6521L62.3969 35.1048L62.3969 35.1048L59.6836 28.6521ZM58.3609 31.8944L51.9081 34.6076L51.9081 34.6076L58.3609 31.8944ZM61.4813 39.3155L60.8609 46.2879L72.4399 47.3182L67.934 36.6022L61.4813 39.3155ZM64.9998 71.7483L67.806 65.3354L64.9996 64.1074L62.1933 65.3355L64.9998 71.7483ZM74.3539 40.3849L70.1177 34.8122L60.9802 41.7582L71.3386 46.7022L74.3539 40.3849ZM79.3493 31.9358L86.274 32.96V32.96L79.3493 31.9358ZM79.9772 27.6905L86.9019 28.7147L86.902 28.7136L79.9772 27.6905ZM79.9822 27.6806L84.9297 32.6325L84.9321 32.6302L79.9822 27.6806ZM80.002 27.6607L75.0522 22.7111L75.0522 22.7111L80.002 27.6607ZM79.9948 27.6463L81.0187 34.5711L81.0187 34.571L79.9948 27.6463ZM79.9852 27.6367L86.91 28.6598L86.9101 28.6593L79.9852 27.6367ZM79.9708 27.6295L84.9202 32.5796L84.9207 32.5791L79.9708 27.6295ZM80.9654 34.5789C82.4553 34.3585 83.8359 33.6644 84.902 32.5977L74.9999 22.7008C76.0606 21.6396 77.4342 20.949 78.9166 20.7297L80.9654 34.5789ZM76.7199 35.2069L80.9652 34.579L78.9168 20.7296L74.6715 21.3575L76.7199 35.2069ZM72.0415 38.8765C72.8291 36.9428 74.591 35.5217 76.7199 35.2069L74.6715 21.3575C67.5597 22.4094 61.6987 27.1557 59.0758 33.5956L72.0415 38.8765ZM56.4732 32.6881L59.1059 38.9493L72.0114 33.5228L69.3787 27.2616L56.4732 32.6881ZM62.3969 35.1048C60.0937 36.0733 57.4416 34.9912 56.4732 32.6881L69.3787 27.2616C67.3502 22.4372 61.7948 20.1707 56.9704 22.1993L62.3969 35.1048ZM64.8136 29.1811C65.7821 31.4843 64.7 34.1364 62.3969 35.1048L56.9704 22.1993C52.146 24.2278 49.8795 29.7832 51.9081 34.6076L64.8136 29.1811ZM67.934 36.6022L64.8136 29.1811L51.9081 34.6076L55.0285 42.0287L67.934 36.6022ZM62.1017 32.343C61.5717 32.2959 61.0373 32.272 60.4996 32.272V46.272C60.6221 46.272 60.7425 46.2774 60.8609 46.2879L62.1017 32.343ZM60.4996 32.272C47.8557 32.272 40 44.3593 40 55.9857H54C54 49.1506 58.2322 46.272 60.4996 46.272V32.272ZM40 55.9857C40 67.6121 47.8557 79.6995 60.4996 79.6995V65.6995C58.2322 65.6995 54 62.8209 54 55.9857H40ZM60.4996 79.6995C63.0853 79.6995 65.5529 79.1473 67.8063 78.1611L62.1933 65.3355C61.6316 65.5813 61.0698 65.6995 60.4996 65.6995V79.6995ZM62.1936 78.1612C64.4468 79.1472 66.9141 79.6992 69.4995 79.6992V65.6992C68.9293 65.6992 68.3676 65.5811 67.806 65.3354L62.1936 78.1612ZM69.4995 79.6992C82.1433 79.6992 89.999 67.6119 89.999 55.9855H75.999C75.999 62.8206 71.7668 65.6992 69.4995 65.6992V79.6992ZM89.999 55.9855C89.999 46.7361 85.3289 37.8668 77.3691 34.0676L71.3386 46.7022C73.4932 47.7306 75.999 51.0105 75.999 55.9855H89.999ZM72.4247 30.9116C72.1897 32.4999 71.3423 33.8813 70.1177 34.8122L78.59 45.9576C82.6481 42.8728 85.4897 38.2628 86.274 32.96L72.4247 30.9116ZM73.0525 26.6663L72.4247 30.9116L86.274 32.96L86.9019 28.7147L73.0525 26.6663ZM75.0347 22.7286C73.9668 23.7955 73.2726 25.1772 73.0524 26.6674L86.902 28.7136C86.683 30.1963 85.9923 31.5709 84.9297 32.6325L75.0347 22.7286ZM75.0522 22.7111L75.0323 22.7309L84.9321 32.6302L84.9519 32.6103L75.0522 22.7111ZM81.0187 34.571C74.3548 35.5564 70.2891 27.4744 75.0522 22.7111L84.9519 32.6104C89.7265 27.8355 85.6509 19.7339 78.9709 20.7216L81.0187 34.571ZM73.0603 26.6137C72.3738 31.2609 76.3657 35.259 81.0187 34.5711L78.9709 20.7216C83.6126 20.0353 87.5949 24.0238 86.91 28.6598L73.0603 26.6137ZM84.9207 32.5791C80.1538 37.3462 72.0771 33.2718 73.0603 26.6141L86.9101 28.6593C87.8956 21.9855 79.7993 17.9011 75.0209 22.6799L84.9207 32.5791ZM84.9003 32.5994L84.9202 32.5796L75.0214 22.6794L75.0016 22.6992L84.9003 32.5994Z" fill="black" mask="url(#path-6-outside-2)"/>
<path fill-rule="evenodd" clip-rule="evenodd" d="M79.9512 27.6487C79.9485 27.6514 79.945 27.6531 79.9412 27.6537L75.696 28.2816C70.0279 29.1199 65.5771 33.5706 64.7388 39.2387L64.1109 43.484C64.1104 43.4878 64.1086 43.4913 64.1059 43.494L64.0861 43.5138C64.0803 43.5196 64.0853 43.5294 64.0933 43.5282C64.099 43.5273 64.1038 43.5322 64.103 43.5378C64.1018 43.5459 64.1116 43.5508 64.1174 43.545L64.1372 43.5252C64.1399 43.5225 64.1434 43.5208 64.1471 43.5202L68.3924 42.8923C74.0605 42.054 78.5112 37.6033 79.3495 31.9352L79.9774 27.6899C79.978 27.6861 79.9797 27.6827 79.9824 27.68L80.0023 27.6601C80.008 27.6544 80.0031 27.6445 79.995 27.6457C79.9894 27.6466 79.9846 27.6417 79.9854 27.6361C79.9866 27.628 79.9768 27.6231 79.971 27.6289L79.9512 27.6487Z" fill="#1CC64B"/>
<path fill-rule="evenodd" clip-rule="evenodd" d="M69.4995 72.699C76.9551 72.699 82.999 65.216 82.999 55.9853C82.999 46.7545 76.9551 39.2715 69.4995 39.2715C67.9214 39.2715 66.4066 39.6067 64.999 40.2228C63.5917 39.607 62.0772 39.2719 60.4996 39.2719C53.044 39.2719 47 46.755 47 55.9857C47 65.2165 53.044 72.6995 60.4996 72.6995C62.0776 72.6995 63.5924 72.3643 65 71.7482C66.4074 72.364 67.9218 72.699 69.4995 72.699Z" fill="#FF0000"/>
<rect x="57" y="29" width="5" height="15" rx="2.5" transform="rotate(-22.8057 57 29)" fill="#984900"/>
</svg>
