<svg width="125" height="91" viewBox="0 0 125 91" fill="none" xmlns="http://www.w3.org/2000/svg">
<path fill-rule="evenodd" clip-rule="evenodd" d="M17.7018 23.5697C17.4112 24.2713 16.7389 24.75 15.9795 24.75H11.3293C8.93828 24.75 7 26.6883 7 29.0793V40.7683C7 43.1593 8.93828 45.0976 11.3293 45.0976H73.6707C76.0617 45.0976 78 43.1593 78 40.7683V29.0793C78 26.6883 76.0617 24.75 73.6707 24.75H69.0206C68.2613 24.75 67.589 24.2713 67.2983 23.5697C65.9494 20.3131 63.9723 17.3541 61.4798 14.8617C58.9874 12.3692 56.0284 10.3921 52.7719 9.04318C49.5153 7.69427 46.0249 7 42.5001 7C38.9752 7 35.4848 7.69428 32.2283 9.04319C28.9717 10.3921 26.0127 12.3692 23.5203 14.8617C21.0278 17.3541 19.0507 20.3131 17.7018 23.5697Z" fill="#FF0000"/>
<path d="M63 32.5C63 29.8079 62.4698 27.1422 61.4395 24.655C60.4093 22.1678 58.8993 19.9079 56.9957 18.0043C55.0921 16.1007 52.8322 14.5907 50.345 13.5605C47.8578 12.5302 45.1921 12 42.5 12C39.8079 12 37.1422 12.5302 34.655 13.5605C32.1678 14.5907 29.9079 16.1007 28.0043 18.0043C26.1007 19.9079 24.5907 22.1678 23.5605 24.655C22.5302 27.1422 22 29.8079 22 32.5L42.5 32.5H63Z" fill="#00E0FF"/>
<rect x="7" y="24.75" width="71" height="20.3476" fill="#FF0000"/>
<circle cx="26.0485" cy="45.0983" r="9.09146" fill="#A5A5A5"/>
<circle cx="59.817" cy="45.0983" r="9.09146" fill="#A5A5A5"/>
<mask id="path-6-outside-1" maskUnits="userSpaceOnUse" x="0" y="0" width="85" height="62" fill="black">
<rect fill="white" width="85" height="62"/>
<path fill-rule="evenodd" clip-rule="evenodd" d="M17.7018 23.5697C17.4111 24.2713 16.7388 24.7501 15.9794 24.7501H11.3293C8.93828 24.7501 7 26.6883 7 29.0793V40.7684C7 43.1593 8.93828 45.0976 11.3293 45.0976H16.957V45.0983C16.957 50.1194 21.0274 54.1898 26.0485 54.1898C31.0696 54.1898 35.14 50.1194 35.14 45.0983V45.0976H50.7256C50.7256 45.0979 50.7256 45.0981 50.7256 45.0983C50.7256 50.1194 54.796 54.1898 59.817 54.1898C64.8381 54.1898 68.9085 50.1194 68.9085 45.0983C68.9085 45.0981 68.9085 45.0979 68.9085 45.0976H73.6707C76.0617 45.0976 78 43.1593 78 40.7684V29.0793C78 26.6883 76.0617 24.7501 73.6707 24.7501H69.0207C68.2613 24.7501 67.5889 24.2713 67.2983 23.5697C65.9494 20.3131 63.9723 17.3541 61.4798 14.8617C58.9874 12.3692 56.0284 10.3921 52.7718 9.04319C49.5153 7.69427 46.0249 7 42.5 7C38.9752 7 35.4848 7.69427 32.2282 9.04319C28.9717 10.3921 26.0127 12.3692 23.5203 14.8617C21.0278 17.3541 19.0507 20.3131 17.7018 23.5697Z"/>
</mask>
<path d="M17.7018 23.5697L24.1689 26.2485V26.2485L17.7018 23.5697ZM16.957 45.0976H23.957C23.957 41.2316 20.823 38.0976 16.957 38.0976V45.0976ZM35.14 45.0976V38.0976C31.274 38.0976 28.14 41.2316 28.14 45.0976H35.14ZM50.7256 45.0976H57.7256C57.7256 41.2316 54.5916 38.0976 50.7256 38.0976V45.0976ZM68.9085 45.0976V38.0976C65.0425 38.0976 61.9085 41.2316 61.9085 45.0976H68.9085ZM67.2983 23.5697L73.7655 20.8909L73.7655 20.8909L67.2983 23.5697ZM61.4798 14.8617L56.5301 19.8114L56.5301 19.8114L61.4798 14.8617ZM52.7718 9.04319L50.093 15.5103L50.093 15.5103L52.7718 9.04319ZM32.2282 9.04319L34.907 15.5103L34.907 15.5103L32.2282 9.04319ZM23.5203 14.8617L18.5705 9.91193L18.5705 9.91194L23.5203 14.8617ZM15.9794 31.7501C19.7568 31.7501 22.8681 29.3888 24.1689 26.2485L11.2346 20.8909C11.9541 19.1538 13.7208 17.7501 15.9794 17.7501V31.7501ZM11.3293 31.7501H15.9794V17.7501H11.3293V31.7501ZM14 29.0793C14 30.5543 12.8043 31.7501 11.3293 31.7501V17.7501C5.07228 17.7501 0 22.8224 0 29.0793H14ZM14 40.7684V29.0793H0V40.7684H14ZM11.3293 38.0976C12.8043 38.0976 14 39.2934 14 40.7684H0C0 47.0253 5.07229 52.0976 11.3293 52.0976V38.0976ZM16.957 38.0976H11.3293V52.0976H16.957V38.0976ZM23.957 45.0983V45.0976H9.95703V45.0983H23.957ZM26.0485 47.1898C24.8934 47.1898 23.957 46.2534 23.957 45.0983H9.95703C9.95703 53.9854 17.1614 61.1898 26.0485 61.1898V47.1898ZM28.14 45.0983C28.14 46.2534 27.2036 47.1898 26.0485 47.1898V61.1898C34.9356 61.1898 42.14 53.9854 42.14 45.0983H28.14ZM28.14 45.0976V45.0983H42.14V45.0976H28.14ZM50.7256 38.0976H35.14V52.0976H50.7256V38.0976ZM57.7256 45.0983V45.0983V45.0983C57.7256 45.0983 57.7256 45.0983 57.7256 45.0983C57.7256 45.0983 57.7256 45.0983 57.7256 45.0983C57.7256 45.0983 57.7256 45.0983 57.7256 45.0983C57.7256 45.0983 57.7256 45.0983 57.7256 45.0983C57.7256 45.0983 57.7256 45.0983 57.7256 45.0983C57.7256 45.0983 57.7256 45.0983 57.7256 45.0983V45.0983V45.0983V45.0983C57.7256 45.0983 57.7256 45.0983 57.7256 45.0983C57.7256 45.0982 57.7256 45.0982 57.7256 45.0982C57.7256 45.0982 57.7256 45.0982 57.7256 45.0982C57.7256 45.0982 57.7256 45.0982 57.7256 45.0982C57.7256 45.0982 57.7256 45.0982 57.7256 45.0982C57.7256 45.0982 57.7256 45.0982 57.7256 45.0982C57.7256 45.0982 57.7256 45.0982 57.7256 45.0982V45.0982V45.0982V45.0982C57.7256 45.0982 57.7256 45.0982 57.7256 45.0982C57.7256 45.0982 57.7256 45.0982 57.7256 45.0982C57.7256 45.0982 57.7256 45.0982 57.7256 45.0982C57.7256 45.0982 57.7256 45.0982 57.7256 45.0982C57.7256 45.0982 57.7256 45.0982 57.7256 45.0982C57.7256 45.0982 57.7256 45.0982 57.7256 45.0982C57.7256 45.0982 57.7256 45.0982 57.7256 45.0982V45.0982V45.0982V45.0982V45.0982C57.7256 45.0982 57.7256 45.0982 57.7256 45.0982C57.7256 45.0982 57.7256 45.0982 57.7256 45.0982C57.7256 45.0982 57.7256 45.0982 57.7256 45.0982C57.7256 45.0982 57.7256 45.0982 57.7256 45.0982C57.7256 45.0982 57.7256 45.0982 57.7256 45.0982C57.7256 45.0982 57.7256 45.0982 57.7256 45.0982C57.7256 45.0982 57.7256 45.0982 57.7256 45.0981V45.0981V45.0981V45.0981V45.0981C57.7256 45.0981 57.7256 45.0981 57.7256 45.0981C57.7256 45.0981 57.7256 45.0981 57.7256 45.0981C57.7256 45.0981 57.7256 45.0981 57.7256 45.0981C57.7256 45.0981 57.7256 45.0981 57.7256 45.0981C57.7256 45.0981 57.7256 45.0981 57.7256 45.0981C57.7256 45.0981 57.7256 45.0981 57.7256 45.0981C57.7256 45.0981 57.7256 45.0981 57.7256 45.0981V45.0981V45.0981V45.0981V45.0981C57.7256 45.0981 57.7256 45.0981 57.7256 45.0981C57.7256 45.0981 57.7256 45.0981 57.7256 45.0981C57.7256 45.0981 57.7256 45.0981 57.7256 45.0981C57.7256 45.0981 57.7256 45.0981 57.7256 45.0981C57.7256 45.0981 57.7256 45.0981 57.7256 45.0981C57.7256 45.0981 57.7256 45.0981 57.7256 45.0981C57.7256 45.0981 57.7256 45.0981 57.7256 45.0981C57.7256 45.0981 57.7256 45.0981 57.7256 45.0981V45.0981V45.0981V45.098V45.098C57.7256 45.098 57.7256 45.098 57.7256 45.098C57.7256 45.098 57.7256 45.098 57.7256 45.098C57.7256 45.098 57.7256 45.098 57.7256 45.098C57.7256 45.098 57.7256 45.098 57.7256 45.098C57.7256 45.098 57.7256 45.098 57.7256 45.098C57.7256 45.098 57.7256 45.098 57.7256 45.098C57.7256 45.098 57.7256 45.098 57.7256 45.098C57.7256 45.098 57.7256 45.098 57.7256 45.098V45.098V45.098V45.098V45.098C57.7256 45.098 57.7256 45.098 57.7256 45.098C57.7256 45.098 57.7256 45.098 57.7256 45.098C57.7256 45.098 57.7256 45.098 57.7256 45.098C57.7256 45.098 57.7256 45.098 57.7256 45.098C57.7256 45.098 57.7256 45.098 57.7256 45.098C57.7256 45.098 57.7256 45.098 57.7256 45.098C57.7256 45.098 57.7256 45.098 57.7256 45.098C57.7256 45.098 57.7256 45.098 57.7256 45.098V45.098V45.098V45.098V45.098C57.7256 45.0979 57.7256 45.0979 57.7256 45.0979C57.7256 45.0979 57.7256 45.0979 57.7256 45.0979C57.7256 45.0979 57.7256 45.0979 57.7256 45.0979C57.7256 45.0979 57.7256 45.0979 57.7256 45.0979C57.7256 45.0979 57.7256 45.0979 57.7256 45.0979C57.7256 45.0979 57.7256 45.0979 57.7256 45.0979C57.7256 45.0979 57.7256 45.0979 57.7256 45.0979C57.7256 45.0979 57.7256 45.0979 57.7256 45.0979V45.0979V45.0979V45.0979V45.0979C57.7256 45.0979 57.7256 45.0979 57.7256 45.0979C57.7256 45.0979 57.7256 45.0979 57.7256 45.0979C57.7256 45.0979 57.7256 45.0979 57.7256 45.0979C57.7256 45.0979 57.7256 45.0979 57.7256 45.0979C57.7256 45.0979 57.7256 45.0979 57.7256 45.0979C57.7256 45.0979 57.7256 45.0979 57.7256 45.0979C57.7256 45.0979 57.7256 45.0979 57.7256 45.0979C57.7256 45.0979 57.7256 45.0979 57.7256 45.0979V45.0979V45.0979V45.0979V45.0979C57.7256 45.0979 57.7256 45.0979 57.7256 45.0979C57.7256 45.0979 57.7256 45.0979 57.7256 45.0979C57.7256 45.0979 57.7256 45.0979 57.7256 45.0979C57.7256 45.0978 57.7256 45.0978 57.7256 45.0978C57.7256 45.0978 57.7256 45.0978 57.7256 45.0978C57.7256 45.0978 57.7256 45.0978 57.7256 45.0978C57.7256 45.0978 57.7256 45.0978 57.7256 45.0978C57.7256 45.0978 57.7256 45.0978 57.7256 45.0978V45.0978V45.0978V45.0978V45.0978C57.7256 45.0978 57.7256 45.0978 57.7256 45.0978C57.7256 45.0978 57.7256 45.0978 57.7256 45.0978C57.7256 45.0978 57.7256 45.0978 57.7256 45.0978C57.7256 45.0978 57.7256 45.0978 57.7256 45.0978C57.7256 45.0978 57.7256 45.0978 57.7256 45.0978C57.7256 45.0978 57.7256 45.0978 57.7256 45.0978C57.7256 45.0978 57.7256 45.0978 57.7256 45.0978V45.0978V45.0978V45.0978V45.0978C57.7256 45.0978 57.7256 45.0978 57.7256 45.0978C57.7256 45.0978 57.7256 45.0978 57.7256 45.0978C57.7256 45.0978 57.7256 45.0978 57.7256 45.0978C57.7256 45.0978 57.7256 45.0978 57.7256 45.0978C57.7256 45.0978 57.7256 45.0978 57.7256 45.0978C57.7256 45.0978 57.7256 45.0978 57.7256 45.0978C57.7256 45.0978 57.7256 45.0978 57.7256 45.0977V45.0977V45.0977V45.0977V45.0977C57.7256 45.0977 57.7256 45.0977 57.7256 45.0977C57.7256 45.0977 57.7256 45.0977 57.7256 45.0977C57.7256 45.0977 57.7256 45.0977 57.7256 45.0977C57.7256 45.0977 57.7256 45.0977 57.7256 45.0977C57.7256 45.0977 57.7256 45.0977 57.7256 45.0977C57.7256 45.0977 57.7256 45.0977 57.7256 45.0977C57.7256 45.0977 57.7256 45.0977 57.7256 45.0977V45.0977V45.0977V45.0977C57.7256 45.0977 57.7256 45.0977 57.7256 45.0977C57.7256 45.0977 57.7256 45.0977 57.7256 45.0977C57.7256 45.0977 57.7256 45.0977 57.7256 45.0977C57.7256 45.0977 57.7256 45.0977 57.7256 45.0977C57.7256 45.0977 57.7256 45.0977 57.7256 45.0977C57.7256 45.0977 57.7256 45.0977 57.7256 45.0977C57.7256 45.0977 57.7256 45.0977 57.7256 45.0977V45.0977V45.0977V45.0977C57.7256 45.0977 57.7256 45.0977 57.7256 45.0977C57.7256 45.0976 57.7256 45.0976 57.7256 45.0976C57.7256 45.0976 57.7256 45.0976 57.7256 45.0976C57.7256 45.0976 57.7256 45.0976 57.7256 45.0976C57.7256 45.0976 57.7256 45.0976 57.7256 45.0976C57.7256 45.0976 57.7256 45.0976 57.7256 45.0976V45.0976V45.0976H43.7256V45.0976V45.0976C43.7256 45.0976 43.7256 45.0976 43.7256 45.0976C43.7256 45.0976 43.7256 45.0976 43.7256 45.0976C43.7256 45.0976 43.7256 45.0976 43.7256 45.0976C43.7256 45.0976 43.7256 45.0976 43.7256 45.0976C43.7256 45.0976 43.7256 45.0976 43.7256 45.0977C43.7256 45.0977 43.7256 45.0977 43.7256 45.0977V45.0977V45.0977V45.0977C43.7256 45.0977 43.7256 45.0977 43.7256 45.0977C43.7256 45.0977 43.7256 45.0977 43.7256 45.0977C43.7256 45.0977 43.7256 45.0977 43.7256 45.0977C43.7256 45.0977 43.7256 45.0977 43.7256 45.0977C43.7256 45.0977 43.7256 45.0977 43.7256 45.0977C43.7256 45.0977 43.7256 45.0977 43.7256 45.0977C43.7256 45.0977 43.7256 45.0977 43.7256 45.0977V45.0977V45.0977V45.0977C43.7256 45.0977 43.7256 45.0977 43.7256 45.0977C43.7256 45.0977 43.7256 45.0977 43.7256 45.0977C43.7256 45.0977 43.7256 45.0977 43.7256 45.0977C43.7256 45.0977 43.7256 45.0977 43.7256 45.0977C43.7256 45.0977 43.7256 45.0977 43.7256 45.0977C43.7256 45.0977 43.7256 45.0977 43.7256 45.0977C43.7256 45.0977 43.7256 45.0977 43.7256 45.0977V45.0977V45.0977V45.0977V45.0977C43.7256 45.0978 43.7256 45.0978 43.7256 45.0978C43.7256 45.0978 43.7256 45.0978 43.7256 45.0978C43.7256 45.0978 43.7256 45.0978 43.7256 45.0978C43.7256 45.0978 43.7256 45.0978 43.7256 45.0978C43.7256 45.0978 43.7256 45.0978 43.7256 45.0978C43.7256 45.0978 43.7256 45.0978 43.7256 45.0978C43.7256 45.0978 43.7256 45.0978 43.7256 45.0978V45.0978V45.0978V45.0978V45.0978C43.7256 45.0978 43.7256 45.0978 43.7256 45.0978C43.7256 45.0978 43.7256 45.0978 43.7256 45.0978C43.7256 45.0978 43.7256 45.0978 43.7256 45.0978C43.7256 45.0978 43.7256 45.0978 43.7256 45.0978C43.7256 45.0978 43.7256 45.0978 43.7256 45.0978C43.7256 45.0978 43.7256 45.0978 43.7256 45.0978C43.7256 45.0978 43.7256 45.0978 43.7256 45.0978V45.0978V45.0978V45.0978V45.0978C43.7256 45.0978 43.7256 45.0978 43.7256 45.0978C43.7256 45.0978 43.7256 45.0978 43.7256 45.0978C43.7256 45.0978 43.7256 45.0978 43.7256 45.0978C43.7256 45.0978 43.7256 45.0978 43.7256 45.0978C43.7256 45.0978 43.7256 45.0978 43.7256 45.0979C43.7256 45.0979 43.7256 45.0979 43.7256 45.0979C43.7256 45.0979 43.7256 45.0979 43.7256 45.0979C43.7256 45.0979 43.7256 45.0979 43.7256 45.0979V45.0979V45.0979V45.0979V45.0979C43.7256 45.0979 43.7256 45.0979 43.7256 45.0979C43.7256 45.0979 43.7256 45.0979 43.7256 45.0979C43.7256 45.0979 43.7256 45.0979 43.7256 45.0979C43.7256 45.0979 43.7256 45.0979 43.7256 45.0979C43.7256 45.0979 43.7256 45.0979 43.7256 45.0979C43.7256 45.0979 43.7256 45.0979 43.7256 45.0979C43.7256 45.0979 43.7256 45.0979 43.7256 45.0979C43.7256 45.0979 43.7256 45.0979 43.7256 45.0979V45.0979V45.0979V45.0979V45.0979C43.7256 45.0979 43.7256 45.0979 43.7256 45.0979C43.7256 45.0979 43.7256 45.0979 43.7256 45.0979C43.7256 45.0979 43.7256 45.0979 43.7256 45.0979C43.7256 45.0979 43.7256 45.0979 43.7256 45.0979C43.7256 45.0979 43.7256 45.0979 43.7256 45.0979C43.7256 45.0979 43.7256 45.0979 43.7256 45.0979C43.7256 45.0979 43.7256 45.0979 43.7256 45.0979C43.7256 45.0979 43.7256 45.0979 43.7256 45.098V45.098V45.098V45.098V45.098C43.7256 45.098 43.7256 45.098 43.7256 45.098C43.7256 45.098 43.7256 45.098 43.7256 45.098C43.7256 45.098 43.7256 45.098 43.7256 45.098C43.7256 45.098 43.7256 45.098 43.7256 45.098C43.7256 45.098 43.7256 45.098 43.7256 45.098C43.7256 45.098 43.7256 45.098 43.7256 45.098C43.7256 45.098 43.7256 45.098 43.7256 45.098C43.7256 45.098 43.7256 45.098 43.7256 45.098V45.098V45.098V45.098V45.098C43.7256 45.098 43.7256 45.098 43.7256 45.098C43.7256 45.098 43.7256 45.098 43.7256 45.098C43.7256 45.098 43.7256 45.098 43.7256 45.098C43.7256 45.098 43.7256 45.098 43.7256 45.098C43.7256 45.098 43.7256 45.098 43.7256 45.098C43.7256 45.098 43.7256 45.098 43.7256 45.098C43.7256 45.098 43.7256 45.098 43.7256 45.098C43.7256 45.098 43.7256 45.098 43.7256 45.098V45.098V45.0981V45.0981V45.0981C43.7256 45.0981 43.7256 45.0981 43.7256 45.0981C43.7256 45.0981 43.7256 45.0981 43.7256 45.0981C43.7256 45.0981 43.7256 45.0981 43.7256 45.0981C43.7256 45.0981 43.7256 45.0981 43.7256 45.0981C43.7256 45.0981 43.7256 45.0981 43.7256 45.0981C43.7256 45.0981 43.7256 45.0981 43.7256 45.0981C43.7256 45.0981 43.7256 45.0981 43.7256 45.0981C43.7256 45.0981 43.7256 45.0981 43.7256 45.0981V45.0981V45.0981V45.0981V45.0981C43.7256 45.0981 43.7256 45.0981 43.7256 45.0981C43.7256 45.0981 43.7256 45.0981 43.7256 45.0981C43.7256 45.0981 43.7256 45.0981 43.7256 45.0981C43.7256 45.0981 43.7256 45.0981 43.7256 45.0981C43.7256 45.0981 43.7256 45.0981 43.7256 45.0981C43.7256 45.0981 43.7256 45.0981 43.7256 45.0981C43.7256 45.0981 43.7256 45.0981 43.7256 45.0981V45.0981V45.0981V45.0981V45.0981C43.7256 45.0982 43.7256 45.0982 43.7256 45.0982C43.7256 45.0982 43.7256 45.0982 43.7256 45.0982C43.7256 45.0982 43.7256 45.0982 43.7256 45.0982C43.7256 45.0982 43.7256 45.0982 43.7256 45.0982C43.7256 45.0982 43.7256 45.0982 43.7256 45.0982C43.7256 45.0982 43.7256 45.0982 43.7256 45.0982C43.7256 45.0982 43.7256 45.0982 43.7256 45.0982V45.0982V45.0982V45.0982V45.0982C43.7256 45.0982 43.7256 45.0982 43.7256 45.0982C43.7256 45.0982 43.7256 45.0982 43.7256 45.0982C43.7256 45.0982 43.7256 45.0982 43.7256 45.0982C43.7256 45.0982 43.7256 45.0982 43.7256 45.0982C43.7256 45.0982 43.7256 45.0982 43.7256 45.0982C43.7256 45.0982 43.7256 45.0982 43.7256 45.0982C43.7256 45.0982 43.7256 45.0982 43.7256 45.0982V45.0982V45.0982V45.0982C43.7256 45.0982 43.7256 45.0982 43.7256 45.0982C43.7256 45.0982 43.7256 45.0982 43.7256 45.0982C43.7256 45.0982 43.7256 45.0982 43.7256 45.0982C43.7256 45.0982 43.7256 45.0982 43.7256 45.0982C43.7256 45.0982 43.7256 45.0982 43.7256 45.0982C43.7256 45.0982 43.7256 45.0982 43.7256 45.0983C43.7256 45.0983 43.7256 45.0983 43.7256 45.0983V45.0983V45.0983V45.0983C43.7256 45.0983 43.7256 45.0983 43.7256 45.0983C43.7256 45.0983 43.7256 45.0983 43.7256 45.0983C43.7256 45.0983 43.7256 45.0983 43.7256 45.0983C43.7256 45.0983 43.7256 45.0983 43.7256 45.0983C43.7256 45.0983 43.7256 45.0983 43.7256 45.0983C43.7256 45.0983 43.7256 45.0983 43.7256 45.0983V45.0983V45.0983H57.7256ZM59.817 47.1898C58.662 47.1898 57.7256 46.2534 57.7256 45.0983H43.7256C43.7256 53.9854 50.93 61.1898 59.817 61.1898V47.1898ZM61.9085 45.0983C61.9085 46.2534 60.9721 47.1898 59.817 47.1898V61.1898C68.7041 61.1898 75.9085 53.9854 75.9085 45.0983H61.9085ZM61.9085 45.0976V45.0976V45.0976C61.9085 45.0976 61.9085 45.0976 61.9085 45.0976C61.9085 45.0976 61.9085 45.0976 61.9085 45.0976C61.9085 45.0976 61.9085 45.0976 61.9085 45.0976C61.9085 45.0976 61.9085 45.0976 61.9085 45.0976C61.9085 45.0976 61.9085 45.0976 61.9085 45.0977C61.9085 45.0977 61.9085 45.0977 61.9085 45.0977V45.0977V45.0977V45.0977C61.9085 45.0977 61.9085 45.0977 61.9085 45.0977C61.9085 45.0977 61.9085 45.0977 61.9085 45.0977C61.9085 45.0977 61.9085 45.0977 61.9085 45.0977C61.9085 45.0977 61.9085 45.0977 61.9085 45.0977C61.9085 45.0977 61.9085 45.0977 61.9085 45.0977C61.9085 45.0977 61.9085 45.0977 61.9085 45.0977C61.9085 45.0977 61.9085 45.0977 61.9085 45.0977V45.0977V45.0977V45.0977C61.9085 45.0977 61.9085 45.0977 61.9085 45.0977C61.9085 45.0977 61.9085 45.0977 61.9085 45.0977C61.9085 45.0977 61.9085 45.0977 61.9085 45.0977C61.9085 45.0977 61.9085 45.0977 61.9085 45.0977C61.9085 45.0977 61.9085 45.0977 61.9085 45.0977C61.9085 45.0977 61.9085 45.0977 61.9085 45.0977C61.9085 45.0977 61.9085 45.0977 61.9085 45.0977V45.0977V45.0977V45.0977V45.0977C61.9085 45.0978 61.9085 45.0978 61.9085 45.0978C61.9085 45.0978 61.9085 45.0978 61.9085 45.0978C61.9085 45.0978 61.9085 45.0978 61.9085 45.0978C61.9085 45.0978 61.9085 45.0978 61.9085 45.0978C61.9085 45.0978 61.9085 45.0978 61.9085 45.0978C61.9085 45.0978 61.9085 45.0978 61.9085 45.0978C61.9085 45.0978 61.9085 45.0978 61.9085 45.0978V45.0978V45.0978V45.0978V45.0978C61.9085 45.0978 61.9085 45.0978 61.9085 45.0978C61.9085 45.0978 61.9085 45.0978 61.9085 45.0978C61.9085 45.0978 61.9085 45.0978 61.9085 45.0978C61.9085 45.0978 61.9085 45.0978 61.9085 45.0978C61.9085 45.0978 61.9085 45.0978 61.9085 45.0978C61.9085 45.0978 61.9085 45.0978 61.9085 45.0978C61.9085 45.0978 61.9085 45.0978 61.9085 45.0978V45.0978V45.0978V45.0978V45.0978C61.9085 45.0978 61.9085 45.0978 61.9085 45.0978C61.9085 45.0978 61.9085 45.0978 61.9085 45.0978C61.9085 45.0978 61.9085 45.0978 61.9085 45.0978C61.9085 45.0978 61.9085 45.0978 61.9085 45.0978C61.9085 45.0978 61.9085 45.0978 61.9085 45.0979C61.9085 45.0979 61.9085 45.0979 61.9085 45.0979C61.9085 45.0979 61.9085 45.0979 61.9085 45.0979C61.9085 45.0979 61.9085 45.0979 61.9085 45.0979V45.0979V45.0979V45.0979V45.0979C61.9085 45.0979 61.9085 45.0979 61.9085 45.0979C61.9085 45.0979 61.9085 45.0979 61.9085 45.0979C61.9085 45.0979 61.9085 45.0979 61.9085 45.0979C61.9085 45.0979 61.9085 45.0979 61.9085 45.0979C61.9085 45.0979 61.9085 45.0979 61.9085 45.0979C61.9085 45.0979 61.9085 45.0979 61.9085 45.0979C61.9085 45.0979 61.9085 45.0979 61.9085 45.0979C61.9085 45.0979 61.9085 45.0979 61.9085 45.0979V45.0979V45.0979V45.0979V45.0979C61.9085 45.0979 61.9085 45.0979 61.9085 45.0979C61.9085 45.0979 61.9085 45.0979 61.9085 45.0979C61.9085 45.0979 61.9085 45.0979 61.9085 45.0979C61.9085 45.0979 61.9085 45.0979 61.9085 45.0979C61.9085 45.0979 61.9085 45.0979 61.9085 45.0979C61.9085 45.0979 61.9085 45.0979 61.9085 45.0979C61.9085 45.0979 61.9085 45.0979 61.9085 45.0979C61.9085 45.0979 61.9085 45.0979 61.9085 45.098V45.098V45.098V45.098V45.098C61.9085 45.098 61.9085 45.098 61.9085 45.098C61.9085 45.098 61.9085 45.098 61.9085 45.098C61.9085 45.098 61.9085 45.098 61.9085 45.098C61.9085 45.098 61.9085 45.098 61.9085 45.098C61.9085 45.098 61.9085 45.098 61.9085 45.098C61.9085 45.098 61.9085 45.098 61.9085 45.098C61.9085 45.098 61.9085 45.098 61.9085 45.098C61.9085 45.098 61.9085 45.098 61.9085 45.098V45.098V45.098V45.098V45.098C61.9085 45.098 61.9085 45.098 61.9085 45.098C61.9085 45.098 61.9085 45.098 61.9085 45.098C61.9085 45.098 61.9085 45.098 61.9085 45.098C61.9085 45.098 61.9085 45.098 61.9085 45.098C61.9085 45.098 61.9085 45.098 61.9085 45.098C61.9085 45.098 61.9085 45.098 61.9085 45.098C61.9085 45.098 61.9085 45.098 61.9085 45.098C61.9085 45.098 61.9085 45.098 61.9085 45.098V45.098V45.0981V45.0981V45.0981C61.9085 45.0981 61.9085 45.0981 61.9085 45.0981C61.9085 45.0981 61.9085 45.0981 61.9085 45.0981C61.9085 45.0981 61.9085 45.0981 61.9085 45.0981C61.9085 45.0981 61.9085 45.0981 61.9085 45.0981C61.9085 45.0981 61.9085 45.0981 61.9085 45.0981C61.9085 45.0981 61.9085 45.0981 61.9085 45.0981C61.9085 45.0981 61.9085 45.0981 61.9085 45.0981C61.9085 45.0981 61.9085 45.0981 61.9085 45.0981V45.0981V45.0981V45.0981V45.0981C61.9085 45.0981 61.9085 45.0981 61.9085 45.0981C61.9085 45.0981 61.9085 45.0981 61.9085 45.0981C61.9085 45.0981 61.9085 45.0981 61.9085 45.0981C61.9085 45.0981 61.9085 45.0981 61.9085 45.0981C61.9085 45.0981 61.9085 45.0981 61.9085 45.0981C61.9085 45.0981 61.9085 45.0981 61.9085 45.0981C61.9085 45.0981 61.9085 45.0981 61.9085 45.0981V45.0981V45.0981V45.0981V45.0981C61.9085 45.0982 61.9085 45.0982 61.9085 45.0982C61.9085 45.0982 61.9085 45.0982 61.9085 45.0982C61.9085 45.0982 61.9085 45.0982 61.9085 45.0982C61.9085 45.0982 61.9085 45.0982 61.9085 45.0982C61.9085 45.0982 61.9085 45.0982 61.9085 45.0982C61.9085 45.0982 61.9085 45.0982 61.9085 45.0982C61.9085 45.0982 61.9085 45.0982 61.9085 45.0982V45.0982V45.0982V45.0982V45.0982C61.9085 45.0982 61.9085 45.0982 61.9085 45.0982C61.9085 45.0982 61.9085 45.0982 61.9085 45.0982C61.9085 45.0982 61.9085 45.0982 61.9085 45.0982C61.9085 45.0982 61.9085 45.0982 61.9085 45.0982C61.9085 45.0982 61.9085 45.0982 61.9085 45.0982C61.9085 45.0982 61.9085 45.0982 61.9085 45.0982C61.9085 45.0982 61.9085 45.0982 61.9085 45.0982V45.0982V45.0982V45.0982C61.9085 45.0982 61.9085 45.0982 61.9085 45.0982C61.9085 45.0982 61.9085 45.0982 61.9085 45.0982C61.9085 45.0982 61.9085 45.0982 61.9085 45.0982C61.9085 45.0982 61.9085 45.0982 61.9085 45.0982C61.9085 45.0982 61.9085 45.0982 61.9085 45.0982C61.9085 45.0982 61.9085 45.0982 61.9085 45.0983C61.9085 45.0983 61.9085 45.0983 61.9085 45.0983V45.0983V45.0983V45.0983C61.9085 45.0983 61.9085 45.0983 61.9085 45.0983C61.9085 45.0983 61.9085 45.0983 61.9085 45.0983C61.9085 45.0983 61.9085 45.0983 61.9085 45.0983C61.9085 45.0983 61.9085 45.0983 61.9085 45.0983C61.9085 45.0983 61.9085 45.0983 61.9085 45.0983C61.9085 45.0983 61.9085 45.0983 61.9085 45.0983V45.0983V45.0983H75.9085V45.0983V45.0983C75.9085 45.0983 75.9085 45.0983 75.9085 45.0983C75.9085 45.0983 75.9085 45.0983 75.9085 45.0983C75.9085 45.0983 75.9085 45.0983 75.9085 45.0983C75.9085 45.0983 75.9085 45.0983 75.9085 45.0983C75.9085 45.0983 75.9085 45.0983 75.9085 45.0983C75.9085 45.0983 75.9085 45.0983 75.9085 45.0983V45.0983V45.0983V45.0983C75.9085 45.0983 75.9085 45.0983 75.9085 45.0983C75.9085 45.0982 75.9085 45.0982 75.9085 45.0982C75.9085 45.0982 75.9085 45.0982 75.9085 45.0982C75.9085 45.0982 75.9085 45.0982 75.9085 45.0982C75.9085 45.0982 75.9085 45.0982 75.9085 45.0982C75.9085 45.0982 75.9085 45.0982 75.9085 45.0982C75.9085 45.0982 75.9085 45.0982 75.9085 45.0982V45.0982V45.0982V45.0982C75.9085 45.0982 75.9085 45.0982 75.9085 45.0982C75.9085 45.0982 75.9085 45.0982 75.9085 45.0982C75.9085 45.0982 75.9085 45.0982 75.9085 45.0982C75.9085 45.0982 75.9085 45.0982 75.9085 45.0982C75.9085 45.0982 75.9085 45.0982 75.9085 45.0982C75.9085 45.0982 75.9085 45.0982 75.9085 45.0982C75.9085 45.0982 75.9085 45.0982 75.9085 45.0982V45.0982V45.0982V45.0982V45.0982C75.9085 45.0982 75.9085 45.0982 75.9085 45.0982C75.9085 45.0982 75.9085 45.0982 75.9085 45.0982C75.9085 45.0982 75.9085 45.0982 75.9085 45.0982C75.9085 45.0982 75.9085 45.0982 75.9085 45.0982C75.9085 45.0982 75.9085 45.0982 75.9085 45.0982C75.9085 45.0982 75.9085 45.0982 75.9085 45.0982C75.9085 45.0982 75.9085 45.0982 75.9085 45.0981V45.0981V45.0981V45.0981V45.0981C75.9085 45.0981 75.9085 45.0981 75.9085 45.0981C75.9085 45.0981 75.9085 45.0981 75.9085 45.0981C75.9085 45.0981 75.9085 45.0981 75.9085 45.0981C75.9085 45.0981 75.9085 45.0981 75.9085 45.0981C75.9085 45.0981 75.9085 45.0981 75.9085 45.0981C75.9085 45.0981 75.9085 45.0981 75.9085 45.0981C75.9085 45.0981 75.9085 45.0981 75.9085 45.0981V45.0981V45.0981V45.0981V45.0981C75.9085 45.0981 75.9085 45.0981 75.9085 45.0981C75.9085 45.0981 75.9085 45.0981 75.9085 45.0981C75.9085 45.0981 75.9085 45.0981 75.9085 45.0981C75.9085 45.0981 75.9085 45.0981 75.9085 45.0981C75.9085 45.0981 75.9085 45.0981 75.9085 45.0981C75.9085 45.0981 75.9085 45.0981 75.9085 45.0981C75.9085 45.0981 75.9085 45.0981 75.9085 45.0981C75.9085 45.0981 75.9085 45.0981 75.9085 45.0981V45.0981V45.0981V45.098V45.098C75.9085 45.098 75.9085 45.098 75.9085 45.098C75.9085 45.098 75.9085 45.098 75.9085 45.098C75.9085 45.098 75.9085 45.098 75.9085 45.098C75.9085 45.098 75.9085 45.098 75.9085 45.098C75.9085 45.098 75.9085 45.098 75.9085 45.098C75.9085 45.098 75.9085 45.098 75.9085 45.098C75.9085 45.098 75.9085 45.098 75.9085 45.098C75.9085 45.098 75.9085 45.098 75.9085 45.098V45.098V45.098V45.098V45.098C75.9085 45.098 75.9085 45.098 75.9085 45.098C75.9085 45.098 75.9085 45.098 75.9085 45.098C75.9085 45.098 75.9085 45.098 75.9085 45.098C75.9085 45.098 75.9085 45.098 75.9085 45.098C75.9085 45.098 75.9085 45.098 75.9085 45.098C75.9085 45.098 75.9085 45.098 75.9085 45.098C75.9085 45.098 75.9085 45.098 75.9085 45.098C75.9085 45.098 75.9085 45.098 75.9085 45.098V45.098V45.098V45.098V45.098C75.9085 45.0979 75.9085 45.0979 75.9085 45.0979C75.9085 45.0979 75.9085 45.0979 75.9085 45.0979C75.9085 45.0979 75.9085 45.0979 75.9085 45.0979C75.9085 45.0979 75.9085 45.0979 75.9085 45.0979C75.9085 45.0979 75.9085 45.0979 75.9085 45.0979C75.9085 45.0979 75.9085 45.0979 75.9085 45.0979C75.9085 45.0979 75.9085 45.0979 75.9085 45.0979C75.9085 45.0979 75.9085 45.0979 75.9085 45.0979V45.0979V45.0979V45.0979V45.0979C75.9085 45.0979 75.9085 45.0979 75.9085 45.0979C75.9085 45.0979 75.9085 45.0979 75.9085 45.0979C75.9085 45.0979 75.9085 45.0979 75.9085 45.0979C75.9085 45.0979 75.9085 45.0979 75.9085 45.0979C75.9085 45.0979 75.9085 45.0979 75.9085 45.0979C75.9085 45.0979 75.9085 45.0979 75.9085 45.0979C75.9085 45.0979 75.9085 45.0979 75.9085 45.0979C75.9085 45.0979 75.9085 45.0979 75.9085 45.0979V45.0979V45.0979V45.0979V45.0979C75.9085 45.0979 75.9085 45.0979 75.9085 45.0979C75.9085 45.0979 75.9085 45.0979 75.9085 45.0979C75.9085 45.0979 75.9085 45.0979 75.9085 45.0979C75.9085 45.0978 75.9085 45.0978 75.9085 45.0978C75.9085 45.0978 75.9085 45.0978 75.9085 45.0978C75.9085 45.0978 75.9085 45.0978 75.9085 45.0978C75.9085 45.0978 75.9085 45.0978 75.9085 45.0978C75.9085 45.0978 75.9085 45.0978 75.9085 45.0978V45.0978V45.0978V45.0978V45.0978C75.9085 45.0978 75.9085 45.0978 75.9085 45.0978C75.9085 45.0978 75.9085 45.0978 75.9085 45.0978C75.9085 45.0978 75.9085 45.0978 75.9085 45.0978C75.9085 45.0978 75.9085 45.0978 75.9085 45.0978C75.9085 45.0978 75.9085 45.0978 75.9085 45.0978C75.9085 45.0978 75.9085 45.0978 75.9085 45.0978C75.9085 45.0978 75.9085 45.0978 75.9085 45.0978V45.0978V45.0978V45.0978V45.0978C75.9085 45.0978 75.9085 45.0978 75.9085 45.0978C75.9085 45.0978 75.9085 45.0978 75.9085 45.0978C75.9085 45.0978 75.9085 45.0978 75.9085 45.0978C75.9085 45.0978 75.9085 45.0978 75.9085 45.0978C75.9085 45.0978 75.9085 45.0978 75.9085 45.0978C75.9085 45.0978 75.9085 45.0978 75.9085 45.0978C75.9085 45.0978 75.9085 45.0978 75.9085 45.0977V45.0977V45.0977V45.0977V45.0977C75.9085 45.0977 75.9085 45.0977 75.9085 45.0977C75.9085 45.0977 75.9085 45.0977 75.9085 45.0977C75.9085 45.0977 75.9085 45.0977 75.9085 45.0977C75.9085 45.0977 75.9085 45.0977 75.9085 45.0977C75.9085 45.0977 75.9085 45.0977 75.9085 45.0977C75.9085 45.0977 75.9085 45.0977 75.9085 45.0977C75.9085 45.0977 75.9085 45.0977 75.9085 45.0977V45.0977V45.0977V45.0977C75.9085 45.0977 75.9085 45.0977 75.9085 45.0977C75.9085 45.0977 75.9085 45.0977 75.9085 45.0977C75.9085 45.0977 75.9085 45.0977 75.9085 45.0977C75.9085 45.0977 75.9085 45.0977 75.9085 45.0977C75.9085 45.0977 75.9085 45.0977 75.9085 45.0977C75.9085 45.0977 75.9085 45.0977 75.9085 45.0977C75.9085 45.0977 75.9085 45.0977 75.9085 45.0977V45.0977V45.0977V45.0977C75.9085 45.0977 75.9085 45.0977 75.9085 45.0977C75.9085 45.0976 75.9085 45.0976 75.9085 45.0976C75.9085 45.0976 75.9085 45.0976 75.9085 45.0976C75.9085 45.0976 75.9085 45.0976 75.9085 45.0976C75.9085 45.0976 75.9085 45.0976 75.9085 45.0976C75.9085 45.0976 75.9085 45.0976 75.9085 45.0976V45.0976V45.0976H61.9085ZM73.6707 38.0976H68.9085V52.0976H73.6707V38.0976ZM71 40.7684C71 39.2934 72.1957 38.0976 73.6707 38.0976V52.0976C79.9277 52.0976 85 47.0253 85 40.7684H71ZM71 29.0793V40.7684H85V29.0793H71ZM73.6707 31.7501C72.1957 31.7501 71 30.5543 71 29.0793H85C85 22.8223 79.9277 17.7501 73.6707 17.7501V31.7501ZM69.0207 31.7501H73.6707V17.7501H69.0207V31.7501ZM60.8311 26.2484C62.1319 29.3888 65.2433 31.7501 69.0207 31.7501V17.7501C71.2793 17.7501 73.0459 19.1538 73.7655 20.8909L60.8311 26.2484ZM56.5301 19.8114C58.3725 21.6539 59.834 23.8412 60.8312 26.2485L73.7655 20.8909C72.0648 16.7851 69.572 13.0544 66.4296 9.91193L56.5301 19.8114ZM50.093 15.5103C52.5003 16.5075 54.6876 17.969 56.5301 19.8114L66.4296 9.91194C63.2871 6.76946 59.5564 4.27672 55.4506 2.57603L50.093 15.5103ZM42.5 14C45.1056 14 47.6858 14.5132 50.093 15.5103L55.4506 2.57603C51.3448 0.875335 46.9442 0 42.5 0V14ZM34.907 15.5103C37.3143 14.5132 39.8944 14 42.5 14V0C38.0559 0 33.6553 0.875335 29.5495 2.57603L34.907 15.5103ZM28.47 19.8114C30.3125 17.969 32.4998 16.5075 34.907 15.5103L29.5495 2.57603C25.4436 4.27672 21.713 6.76947 18.5705 9.91193L28.47 19.8114ZM24.1689 26.2485C25.166 23.8412 26.6275 21.6539 28.47 19.8114L18.5705 9.91194C15.428 13.0544 12.9353 16.7851 11.2346 20.8909L24.1689 26.2485Z" fill="black" mask="url(#path-6-outside-1)"/>
<rect x="38" y="9" width="9" height="24" fill="#FF0000"/>
<path fill-rule="evenodd" clip-rule="evenodd" d="M57.7018 52.5697C57.4112 53.2713 56.7389 53.75 55.9795 53.75H51.3293C48.9383 53.75 47 55.6883 47 58.0793V69.7683C47 72.1593 48.9383 74.0976 51.3293 74.0976H113.671C116.062 74.0976 118 72.1593 118 69.7683V58.0793C118 55.6883 116.062 53.75 113.671 53.75H109.021C108.261 53.75 107.589 53.2713 107.298 52.5697C105.949 49.3131 103.972 46.3541 101.48 43.8617C98.9874 41.3692 96.0284 39.3921 92.7719 38.0432C89.5153 36.6943 86.0249 36 82.5001 36C78.9752 36 75.4848 36.6943 72.2283 38.0432C68.9717 39.3921 66.0127 41.3692 63.5203 43.8617C61.0278 46.3541 59.0507 49.3131 57.7018 52.5697Z" fill="#FF0000"/>
<path d="M103 61.5C103 58.8079 102.47 56.1422 101.44 53.655C100.409 51.1678 98.8993 48.9079 96.9957 47.0043C95.0921 45.1007 92.8322 43.5907 90.345 42.5605C87.8578 41.5302 85.1921 41 82.5 41C79.8079 41 77.1422 41.5302 74.655 42.5605C72.1678 43.5907 69.9079 45.1007 68.0043 47.0043C66.1007 48.9079 64.5907 51.1678 63.5605 53.655C62.5302 56.1422 62 58.8079 62 61.5L82.5 61.5H103Z" fill="#00E0FF"/>
<rect x="47" y="53.75" width="71" height="20.3476" fill="#FF0000"/>
<circle cx="66.0485" cy="74.0983" r="9.09146" fill="#A5A5A5"/>
<circle cx="99.817" cy="74.0983" r="9.09146" fill="#A5A5A5"/>
<mask id="path-14-outside-2" maskUnits="userSpaceOnUse" x="40" y="29" width="85" height="62" fill="black">
<rect fill="white" x="40" y="29" width="85" height="62"/>
<path fill-rule="evenodd" clip-rule="evenodd" d="M57.7018 52.5697C57.4111 53.2713 56.7388 53.7501 55.9794 53.7501H51.3293C48.9383 53.7501 47 55.6883 47 58.0793V69.7684C47 72.1593 48.9383 74.0976 51.3293 74.0976H56.957V74.0983C56.957 79.1194 61.0274 83.1898 66.0485 83.1898C71.0696 83.1898 75.14 79.1194 75.14 74.0983V74.0976H90.7256C90.7256 74.0979 90.7256 74.0981 90.7256 74.0983C90.7256 79.1194 94.796 83.1898 99.817 83.1898C104.838 83.1898 108.909 79.1194 108.909 74.0983C108.909 74.0981 108.909 74.0979 108.909 74.0976H113.671C116.062 74.0976 118 72.1593 118 69.7684V58.0793C118 55.6883 116.062 53.7501 113.671 53.7501H109.021C108.261 53.7501 107.589 53.2713 107.298 52.5697C105.949 49.3131 103.972 46.3541 101.48 43.8617C98.9874 41.3692 96.0284 39.3921 92.7718 38.0432C89.5153 36.6943 86.0249 36 82.5 36C78.9752 36 75.4848 36.6943 72.2282 38.0432C68.9717 39.3921 66.0127 41.3692 63.5203 43.8617C61.0278 46.3541 59.0507 49.3131 57.7018 52.5697Z"/>
</mask>
<path d="M57.7018 52.5697L64.1689 55.2485V55.2485L57.7018 52.5697ZM56.957 74.0976H63.957C63.957 70.2316 60.823 67.0976 56.957 67.0976V74.0976ZM75.14 74.0976V67.0976C71.274 67.0976 68.14 70.2316 68.14 74.0976H75.14ZM90.7256 74.0976H97.7256C97.7256 70.2316 94.5916 67.0976 90.7256 67.0976V74.0976ZM108.909 74.0976V67.0976C105.043 67.0976 101.909 70.2316 101.909 74.0976H108.909ZM107.298 52.5697L113.765 49.8909L113.765 49.8909L107.298 52.5697ZM101.48 43.8617L96.5301 48.8114L96.5301 48.8114L101.48 43.8617ZM92.7718 38.0432L90.093 44.5103L90.093 44.5103L92.7718 38.0432ZM72.2282 38.0432L74.907 44.5103L74.907 44.5103L72.2282 38.0432ZM63.5203 43.8617L58.5705 38.9119L58.5705 38.9119L63.5203 43.8617ZM55.9794 60.7501C59.7568 60.7501 62.8681 58.3888 64.1689 55.2485L51.2346 49.8909C51.9541 48.1538 53.7208 46.7501 55.9794 46.7501V60.7501ZM51.3293 60.7501H55.9794V46.7501H51.3293V60.7501ZM54 58.0793C54 59.5543 52.8043 60.7501 51.3293 60.7501V46.7501C45.0723 46.7501 40 51.8224 40 58.0793H54ZM54 69.7684V58.0793H40V69.7684H54ZM51.3293 67.0976C52.8043 67.0976 54 68.2934 54 69.7684H40C40 76.0253 45.0723 81.0976 51.3293 81.0976V67.0976ZM56.957 67.0976H51.3293V81.0976H56.957V67.0976ZM63.957 74.0983V74.0976H49.957V74.0983H63.957ZM66.0485 76.1898C64.8934 76.1898 63.957 75.2534 63.957 74.0983H49.957C49.957 82.9854 57.1614 90.1898 66.0485 90.1898V76.1898ZM68.14 74.0983C68.14 75.2534 67.2036 76.1898 66.0485 76.1898V90.1898C74.9356 90.1898 82.14 82.9854 82.14 74.0983H68.14ZM68.14 74.0976V74.0983H82.14V74.0976H68.14ZM90.7256 67.0976H75.14V81.0976H90.7256V67.0976ZM97.7256 74.0983V74.0983V74.0983C97.7256 74.0983 97.7256 74.0983 97.7256 74.0983C97.7256 74.0983 97.7256 74.0983 97.7256 74.0983C97.7256 74.0983 97.7256 74.0983 97.7256 74.0983C97.7256 74.0983 97.7256 74.0983 97.7256 74.0983C97.7256 74.0983 97.7256 74.0983 97.7256 74.0983C97.7256 74.0983 97.7256 74.0983 97.7256 74.0983V74.0983V74.0983V74.0983C97.7256 74.0983 97.7256 74.0983 97.7256 74.0983C97.7256 74.0982 97.7256 74.0982 97.7256 74.0982C97.7256 74.0982 97.7256 74.0982 97.7256 74.0982C97.7256 74.0982 97.7256 74.0982 97.7256 74.0982C97.7256 74.0982 97.7256 74.0982 97.7256 74.0982C97.7256 74.0982 97.7256 74.0982 97.7256 74.0982C97.7256 74.0982 97.7256 74.0982 97.7256 74.0982V74.0982V74.0982V74.0982C97.7256 74.0982 97.7256 74.0982 97.7256 74.0982C97.7256 74.0982 97.7256 74.0982 97.7256 74.0982C97.7256 74.0982 97.7256 74.0982 97.7256 74.0982C97.7256 74.0982 97.7256 74.0982 97.7256 74.0982C97.7256 74.0982 97.7256 74.0982 97.7256 74.0982C97.7256 74.0982 97.7256 74.0982 97.7256 74.0982C97.7256 74.0982 97.7256 74.0982 97.7256 74.0982V74.0982V74.0982V74.0982V74.0982C97.7256 74.0982 97.7256 74.0982 97.7256 74.0982C97.7256 74.0982 97.7256 74.0982 97.7256 74.0982C97.7256 74.0982 97.7256 74.0982 97.7256 74.0982C97.7256 74.0982 97.7256 74.0982 97.7256 74.0982C97.7256 74.0982 97.7256 74.0982 97.7256 74.0982C97.7256 74.0982 97.7256 74.0982 97.7256 74.0982C97.7256 74.0982 97.7256 74.0982 97.7256 74.0981V74.0981V74.0981V74.0981V74.0981C97.7256 74.0981 97.7256 74.0981 97.7256 74.0981C97.7256 74.0981 97.7256 74.0981 97.7256 74.0981C97.7256 74.0981 97.7256 74.0981 97.7256 74.0981C97.7256 74.0981 97.7256 74.0981 97.7256 74.0981C97.7256 74.0981 97.7256 74.0981 97.7256 74.0981C97.7256 74.0981 97.7256 74.0981 97.7256 74.0981C97.7256 74.0981 97.7256 74.0981 97.7256 74.0981V74.0981V74.0981V74.0981V74.0981C97.7256 74.0981 97.7256 74.0981 97.7256 74.0981C97.7256 74.0981 97.7256 74.0981 97.7256 74.0981C97.7256 74.0981 97.7256 74.0981 97.7256 74.0981C97.7256 74.0981 97.7256 74.0981 97.7256 74.0981C97.7256 74.0981 97.7256 74.0981 97.7256 74.0981C97.7256 74.0981 97.7256 74.0981 97.7256 74.0981C97.7256 74.0981 97.7256 74.0981 97.7256 74.0981C97.7256 74.0981 97.7256 74.0981 97.7256 74.0981V74.0981V74.0981V74.098V74.098C97.7256 74.098 97.7256 74.098 97.7256 74.098C97.7256 74.098 97.7256 74.098 97.7256 74.098C97.7256 74.098 97.7256 74.098 97.7256 74.098C97.7256 74.098 97.7256 74.098 97.7256 74.098C97.7256 74.098 97.7256 74.098 97.7256 74.098C97.7256 74.098 97.7256 74.098 97.7256 74.098C97.7256 74.098 97.7256 74.098 97.7256 74.098C97.7256 74.098 97.7256 74.098 97.7256 74.098V74.098V74.098V74.098V74.098C97.7256 74.098 97.7256 74.098 97.7256 74.098C97.7256 74.098 97.7256 74.098 97.7256 74.098C97.7256 74.098 97.7256 74.098 97.7256 74.098C97.7256 74.098 97.7256 74.098 97.7256 74.098C97.7256 74.098 97.7256 74.098 97.7256 74.098C97.7256 74.098 97.7256 74.098 97.7256 74.098C97.7256 74.098 97.7256 74.098 97.7256 74.098C97.7256 74.098 97.7256 74.098 97.7256 74.098V74.098V74.098V74.098V74.098C97.7256 74.0979 97.7256 74.0979 97.7256 74.0979C97.7256 74.0979 97.7256 74.0979 97.7256 74.0979C97.7256 74.0979 97.7256 74.0979 97.7256 74.0979C97.7256 74.0979 97.7256 74.0979 97.7256 74.0979C97.7256 74.0979 97.7256 74.0979 97.7256 74.0979C97.7256 74.0979 97.7256 74.0979 97.7256 74.0979C97.7256 74.0979 97.7256 74.0979 97.7256 74.0979C97.7256 74.0979 97.7256 74.0979 97.7256 74.0979V74.0979V74.0979V74.0979V74.0979C97.7256 74.0979 97.7256 74.0979 97.7256 74.0979C97.7256 74.0979 97.7256 74.0979 97.7256 74.0979C97.7256 74.0979 97.7256 74.0979 97.7256 74.0979C97.7256 74.0979 97.7256 74.0979 97.7256 74.0979C97.7256 74.0979 97.7256 74.0979 97.7256 74.0979C97.7256 74.0979 97.7256 74.0979 97.7256 74.0979C97.7256 74.0979 97.7256 74.0979 97.7256 74.0979C97.7256 74.0979 97.7256 74.0979 97.7256 74.0979V74.0979V74.0979V74.0979V74.0979C97.7256 74.0979 97.7256 74.0979 97.7256 74.0979C97.7256 74.0979 97.7256 74.0979 97.7256 74.0979C97.7256 74.0979 97.7256 74.0979 97.7256 74.0979C97.7256 74.0978 97.7256 74.0978 97.7256 74.0978C97.7256 74.0978 97.7256 74.0978 97.7256 74.0978C97.7256 74.0978 97.7256 74.0978 97.7256 74.0978C97.7256 74.0978 97.7256 74.0978 97.7256 74.0978C97.7256 74.0978 97.7256 74.0978 97.7256 74.0978V74.0978V74.0978V74.0978V74.0978C97.7256 74.0978 97.7256 74.0978 97.7256 74.0978C97.7256 74.0978 97.7256 74.0978 97.7256 74.0978C97.7256 74.0978 97.7256 74.0978 97.7256 74.0978C97.7256 74.0978 97.7256 74.0978 97.7256 74.0978C97.7256 74.0978 97.7256 74.0978 97.7256 74.0978C97.7256 74.0978 97.7256 74.0978 97.7256 74.0978C97.7256 74.0978 97.7256 74.0978 97.7256 74.0978V74.0978V74.0978V74.0978V74.0978C97.7256 74.0978 97.7256 74.0978 97.7256 74.0978C97.7256 74.0978 97.7256 74.0978 97.7256 74.0978C97.7256 74.0978 97.7256 74.0978 97.7256 74.0978C97.7256 74.0978 97.7256 74.0978 97.7256 74.0978C97.7256 74.0978 97.7256 74.0978 97.7256 74.0978C97.7256 74.0978 97.7256 74.0978 97.7256 74.0978C97.7256 74.0978 97.7256 74.0978 97.7256 74.0977V74.0977V74.0977V74.0977V74.0977C97.7256 74.0977 97.7256 74.0977 97.7256 74.0977C97.7256 74.0977 97.7256 74.0977 97.7256 74.0977C97.7256 74.0977 97.7256 74.0977 97.7256 74.0977C97.7256 74.0977 97.7256 74.0977 97.7256 74.0977C97.7256 74.0977 97.7256 74.0977 97.7256 74.0977C97.7256 74.0977 97.7256 74.0977 97.7256 74.0977C97.7256 74.0977 97.7256 74.0977 97.7256 74.0977V74.0977V74.0977V74.0977C97.7256 74.0977 97.7256 74.0977 97.7256 74.0977C97.7256 74.0977 97.7256 74.0977 97.7256 74.0977C97.7256 74.0977 97.7256 74.0977 97.7256 74.0977C97.7256 74.0977 97.7256 74.0977 97.7256 74.0977C97.7256 74.0977 97.7256 74.0977 97.7256 74.0977C97.7256 74.0977 97.7256 74.0977 97.7256 74.0977C97.7256 74.0977 97.7256 74.0977 97.7256 74.0977V74.0977V74.0977V74.0977C97.7256 74.0977 97.7256 74.0977 97.7256 74.0977C97.7256 74.0976 97.7256 74.0976 97.7256 74.0976C97.7256 74.0976 97.7256 74.0976 97.7256 74.0976C97.7256 74.0976 97.7256 74.0976 97.7256 74.0976C97.7256 74.0976 97.7256 74.0976 97.7256 74.0976C97.7256 74.0976 97.7256 74.0976 97.7256 74.0976V74.0976V74.0976H83.7256V74.0976V74.0976C83.7256 74.0976 83.7256 74.0976 83.7256 74.0976C83.7256 74.0976 83.7256 74.0976 83.7256 74.0976C83.7256 74.0976 83.7256 74.0976 83.7256 74.0976C83.7256 74.0976 83.7256 74.0976 83.7256 74.0976C83.7256 74.0976 83.7256 74.0976 83.7256 74.0977C83.7256 74.0977 83.7256 74.0977 83.7256 74.0977V74.0977V74.0977V74.0977C83.7256 74.0977 83.7256 74.0977 83.7256 74.0977C83.7256 74.0977 83.7256 74.0977 83.7256 74.0977C83.7256 74.0977 83.7256 74.0977 83.7256 74.0977C83.7256 74.0977 83.7256 74.0977 83.7256 74.0977C83.7256 74.0977 83.7256 74.0977 83.7256 74.0977C83.7256 74.0977 83.7256 74.0977 83.7256 74.0977C83.7256 74.0977 83.7256 74.0977 83.7256 74.0977V74.0977V74.0977V74.0977C83.7256 74.0977 83.7256 74.0977 83.7256 74.0977C83.7256 74.0977 83.7256 74.0977 83.7256 74.0977C83.7256 74.0977 83.7256 74.0977 83.7256 74.0977C83.7256 74.0977 83.7256 74.0977 83.7256 74.0977C83.7256 74.0977 83.7256 74.0977 83.7256 74.0977C83.7256 74.0977 83.7256 74.0977 83.7256 74.0977C83.7256 74.0977 83.7256 74.0977 83.7256 74.0977V74.0977V74.0977V74.0977V74.0977C83.7256 74.0978 83.7256 74.0978 83.7256 74.0978C83.7256 74.0978 83.7256 74.0978 83.7256 74.0978C83.7256 74.0978 83.7256 74.0978 83.7256 74.0978C83.7256 74.0978 83.7256 74.0978 83.7256 74.0978C83.7256 74.0978 83.7256 74.0978 83.7256 74.0978C83.7256 74.0978 83.7256 74.0978 83.7256 74.0978C83.7256 74.0978 83.7256 74.0978 83.7256 74.0978V74.0978V74.0978V74.0978V74.0978C83.7256 74.0978 83.7256 74.0978 83.7256 74.0978C83.7256 74.0978 83.7256 74.0978 83.7256 74.0978C83.7256 74.0978 83.7256 74.0978 83.7256 74.0978C83.7256 74.0978 83.7256 74.0978 83.7256 74.0978C83.7256 74.0978 83.7256 74.0978 83.7256 74.0978C83.7256 74.0978 83.7256 74.0978 83.7256 74.0978C83.7256 74.0978 83.7256 74.0978 83.7256 74.0978V74.0978V74.0978V74.0978V74.0978C83.7256 74.0978 83.7256 74.0978 83.7256 74.0978C83.7256 74.0978 83.7256 74.0978 83.7256 74.0978C83.7256 74.0978 83.7256 74.0978 83.7256 74.0978C83.7256 74.0978 83.7256 74.0978 83.7256 74.0978C83.7256 74.0978 83.7256 74.0978 83.7256 74.0979C83.7256 74.0979 83.7256 74.0979 83.7256 74.0979C83.7256 74.0979 83.7256 74.0979 83.7256 74.0979C83.7256 74.0979 83.7256 74.0979 83.7256 74.0979V74.0979V74.0979V74.0979V74.0979C83.7256 74.0979 83.7256 74.0979 83.7256 74.0979C83.7256 74.0979 83.7256 74.0979 83.7256 74.0979C83.7256 74.0979 83.7256 74.0979 83.7256 74.0979C83.7256 74.0979 83.7256 74.0979 83.7256 74.0979C83.7256 74.0979 83.7256 74.0979 83.7256 74.0979C83.7256 74.0979 83.7256 74.0979 83.7256 74.0979C83.7256 74.0979 83.7256 74.0979 83.7256 74.0979C83.7256 74.0979 83.7256 74.0979 83.7256 74.0979V74.0979V74.0979V74.0979V74.0979C83.7256 74.0979 83.7256 74.0979 83.7256 74.0979C83.7256 74.0979 83.7256 74.0979 83.7256 74.0979C83.7256 74.0979 83.7256 74.0979 83.7256 74.0979C83.7256 74.0979 83.7256 74.0979 83.7256 74.0979C83.7256 74.0979 83.7256 74.0979 83.7256 74.0979C83.7256 74.0979 83.7256 74.0979 83.7256 74.0979C83.7256 74.0979 83.7256 74.0979 83.7256 74.0979C83.7256 74.0979 83.7256 74.0979 83.7256 74.098V74.098V74.098V74.098V74.098C83.7256 74.098 83.7256 74.098 83.7256 74.098C83.7256 74.098 83.7256 74.098 83.7256 74.098C83.7256 74.098 83.7256 74.098 83.7256 74.098C83.7256 74.098 83.7256 74.098 83.7256 74.098C83.7256 74.098 83.7256 74.098 83.7256 74.098C83.7256 74.098 83.7256 74.098 83.7256 74.098C83.7256 74.098 83.7256 74.098 83.7256 74.098C83.7256 74.098 83.7256 74.098 83.7256 74.098V74.098V74.098V74.098V74.098C83.7256 74.098 83.7256 74.098 83.7256 74.098C83.7256 74.098 83.7256 74.098 83.7256 74.098C83.7256 74.098 83.7256 74.098 83.7256 74.098C83.7256 74.098 83.7256 74.098 83.7256 74.098C83.7256 74.098 83.7256 74.098 83.7256 74.098C83.7256 74.098 83.7256 74.098 83.7256 74.098C83.7256 74.098 83.7256 74.098 83.7256 74.098C83.7256 74.098 83.7256 74.098 83.7256 74.098V74.098V74.0981V74.0981V74.0981C83.7256 74.0981 83.7256 74.0981 83.7256 74.0981C83.7256 74.0981 83.7256 74.0981 83.7256 74.0981C83.7256 74.0981 83.7256 74.0981 83.7256 74.0981C83.7256 74.0981 83.7256 74.0981 83.7256 74.0981C83.7256 74.0981 83.7256 74.0981 83.7256 74.0981C83.7256 74.0981 83.7256 74.0981 83.7256 74.0981C83.7256 74.0981 83.7256 74.0981 83.7256 74.0981C83.7256 74.0981 83.7256 74.0981 83.7256 74.0981V74.0981V74.0981V74.0981V74.0981C83.7256 74.0981 83.7256 74.0981 83.7256 74.0981C83.7256 74.0981 83.7256 74.0981 83.7256 74.0981C83.7256 74.0981 83.7256 74.0981 83.7256 74.0981C83.7256 74.0981 83.7256 74.0981 83.7256 74.0981C83.7256 74.0981 83.7256 74.0981 83.7256 74.0981C83.7256 74.0981 83.7256 74.0981 83.7256 74.0981C83.7256 74.0981 83.7256 74.0981 83.7256 74.0981V74.0981V74.0981V74.0981V74.0981C83.7256 74.0982 83.7256 74.0982 83.7256 74.0982C83.7256 74.0982 83.7256 74.0982 83.7256 74.0982C83.7256 74.0982 83.7256 74.0982 83.7256 74.0982C83.7256 74.0982 83.7256 74.0982 83.7256 74.0982C83.7256 74.0982 83.7256 74.0982 83.7256 74.0982C83.7256 74.0982 83.7256 74.0982 83.7256 74.0982C83.7256 74.0982 83.7256 74.0982 83.7256 74.0982V74.0982V74.0982V74.0982V74.0982C83.7256 74.0982 83.7256 74.0982 83.7256 74.0982C83.7256 74.0982 83.7256 74.0982 83.7256 74.0982C83.7256 74.0982 83.7256 74.0982 83.7256 74.0982C83.7256 74.0982 83.7256 74.0982 83.7256 74.0982C83.7256 74.0982 83.7256 74.0982 83.7256 74.0982C83.7256 74.0982 83.7256 74.0982 83.7256 74.0982C83.7256 74.0982 83.7256 74.0982 83.7256 74.0982V74.0982V74.0982V74.0982C83.7256 74.0982 83.7256 74.0982 83.7256 74.0982C83.7256 74.0982 83.7256 74.0982 83.7256 74.0982C83.7256 74.0982 83.7256 74.0982 83.7256 74.0982C83.7256 74.0982 83.7256 74.0982 83.7256 74.0982C83.7256 74.0982 83.7256 74.0982 83.7256 74.0982C83.7256 74.0982 83.7256 74.0982 83.7256 74.0983C83.7256 74.0983 83.7256 74.0983 83.7256 74.0983V74.0983V74.0983V74.0983C83.7256 74.0983 83.7256 74.0983 83.7256 74.0983C83.7256 74.0983 83.7256 74.0983 83.7256 74.0983C83.7256 74.0983 83.7256 74.0983 83.7256 74.0983C83.7256 74.0983 83.7256 74.0983 83.7256 74.0983C83.7256 74.0983 83.7256 74.0983 83.7256 74.0983C83.7256 74.0983 83.7256 74.0983 83.7256 74.0983V74.0983V74.0983H97.7256ZM99.817 76.1898C98.662 76.1898 97.7256 75.2534 97.7256 74.0983H83.7256C83.7256 82.9854 90.93 90.1898 99.817 90.1898V76.1898ZM101.909 74.0983C101.909 75.2534 100.972 76.1898 99.817 76.1898V90.1898C108.704 90.1898 115.909 82.9854 115.909 74.0983H101.909ZM101.909 74.0976V74.0976V74.0976C101.909 74.0976 101.909 74.0976 101.909 74.0976C101.909 74.0976 101.909 74.0976 101.909 74.0976C101.909 74.0976 101.909 74.0976 101.909 74.0976C101.909 74.0976 101.909 74.0976 101.909 74.0976C101.909 74.0976 101.909 74.0976 101.909 74.0977C101.909 74.0977 101.909 74.0977 101.909 74.0977V74.0977V74.0977V74.0977C101.909 74.0977 101.909 74.0977 101.909 74.0977C101.909 74.0977 101.909 74.0977 101.909 74.0977C101.909 74.0977 101.909 74.0977 101.909 74.0977C101.909 74.0977 101.909 74.0977 101.909 74.0977C101.909 74.0977 101.909 74.0977 101.909 74.0977C101.909 74.0977 101.909 74.0977 101.909 74.0977C101.909 74.0977 101.909 74.0977 101.909 74.0977V74.0977V74.0977V74.0977C101.909 74.0977 101.909 74.0977 101.909 74.0977C101.909 74.0977 101.909 74.0977 101.909 74.0977C101.909 74.0977 101.909 74.0977 101.909 74.0977C101.909 74.0977 101.909 74.0977 101.909 74.0977C101.909 74.0977 101.909 74.0977 101.909 74.0977C101.909 74.0977 101.909 74.0977 101.909 74.0977C101.909 74.0977 101.909 74.0977 101.909 74.0977V74.0977V74.0977V74.0977V74.0977C101.909 74.0978 101.909 74.0978 101.909 74.0978C101.909 74.0978 101.909 74.0978 101.909 74.0978C101.909 74.0978 101.909 74.0978 101.909 74.0978C101.909 74.0978 101.909 74.0978 101.909 74.0978C101.909 74.0978 101.909 74.0978 101.909 74.0978C101.909 74.0978 101.909 74.0978 101.909 74.0978C101.909 74.0978 101.909 74.0978 101.909 74.0978V74.0978V74.0978V74.0978V74.0978C101.909 74.0978 101.909 74.0978 101.909 74.0978C101.909 74.0978 101.909 74.0978 101.909 74.0978C101.909 74.0978 101.909 74.0978 101.909 74.0978C101.909 74.0978 101.909 74.0978 101.909 74.0978C101.909 74.0978 101.909 74.0978 101.909 74.0978C101.909 74.0978 101.909 74.0978 101.909 74.0978C101.909 74.0978 101.909 74.0978 101.909 74.0978V74.0978V74.0978V74.0978V74.0978C101.909 74.0978 101.909 74.0978 101.909 74.0978C101.909 74.0978 101.909 74.0978 101.909 74.0978C101.909 74.0978 101.909 74.0978 101.909 74.0978C101.909 74.0978 101.909 74.0978 101.909 74.0978C101.909 74.0978 101.909 74.0978 101.909 74.0979C101.909 74.0979 101.909 74.0979 101.909 74.0979C101.909 74.0979 101.909 74.0979 101.909 74.0979C101.909 74.0979 101.909 74.0979 101.909 74.0979V74.0979V74.0979V74.0979V74.0979C101.909 74.0979 101.909 74.0979 101.909 74.0979C101.909 74.0979 101.909 74.0979 101.909 74.0979C101.909 74.0979 101.909 74.0979 101.909 74.0979C101.909 74.0979 101.909 74.0979 101.909 74.0979C101.909 74.0979 101.909 74.0979 101.909 74.0979C101.909 74.0979 101.909 74.0979 101.909 74.0979C101.909 74.0979 101.909 74.0979 101.909 74.0979C101.909 74.0979 101.909 74.0979 101.909 74.0979V74.0979V74.0979V74.0979V74.0979C101.909 74.0979 101.909 74.0979 101.909 74.0979C101.909 74.0979 101.909 74.0979 101.909 74.0979C101.909 74.0979 101.909 74.0979 101.909 74.0979C101.909 74.0979 101.909 74.0979 101.909 74.0979C101.909 74.0979 101.909 74.0979 101.909 74.0979C101.909 74.0979 101.909 74.0979 101.909 74.0979C101.909 74.0979 101.909 74.0979 101.909 74.0979C101.909 74.0979 101.909 74.0979 101.909 74.098V74.098V74.098V74.098V74.098C101.909 74.098 101.909 74.098 101.909 74.098C101.909 74.098 101.909 74.098 101.909 74.098C101.909 74.098 101.909 74.098 101.909 74.098C101.909 74.098 101.909 74.098 101.909 74.098C101.909 74.098 101.909 74.098 101.909 74.098C101.909 74.098 101.909 74.098 101.909 74.098C101.909 74.098 101.909 74.098 101.909 74.098C101.909 74.098 101.909 74.098 101.909 74.098V74.098V74.098V74.098V74.098C101.909 74.098 101.909 74.098 101.909 74.098C101.909 74.098 101.909 74.098 101.909 74.098C101.909 74.098 101.909 74.098 101.909 74.098C101.909 74.098 101.909 74.098 101.909 74.098C101.909 74.098 101.909 74.098 101.909 74.098C101.909 74.098 101.909 74.098 101.909 74.098C101.909 74.098 101.909 74.098 101.909 74.098C101.909 74.098 101.909 74.098 101.909 74.098V74.098V74.0981V74.0981V74.0981C101.909 74.0981 101.909 74.0981 101.909 74.0981C101.909 74.0981 101.909 74.0981 101.909 74.0981C101.909 74.0981 101.909 74.0981 101.909 74.0981C101.909 74.0981 101.909 74.0981 101.909 74.0981C101.909 74.0981 101.909 74.0981 101.909 74.0981C101.909 74.0981 101.909 74.0981 101.909 74.0981C101.909 74.0981 101.909 74.0981 101.909 74.0981C101.909 74.0981 101.909 74.0981 101.909 74.0981V74.0981V74.0981V74.0981V74.0981C101.909 74.0981 101.909 74.0981 101.909 74.0981C101.909 74.0981 101.909 74.0981 101.909 74.0981C101.909 74.0981 101.909 74.0981 101.909 74.0981C101.909 74.0981 101.909 74.0981 101.909 74.0981C101.909 74.0981 101.909 74.0981 101.909 74.0981C101.909 74.0981 101.909 74.0981 101.909 74.0981C101.909 74.0981 101.909 74.0981 101.909 74.0981V74.0981V74.0981V74.0981V74.0981C101.909 74.0982 101.909 74.0982 101.909 74.0982C101.909 74.0982 101.909 74.0982 101.909 74.0982C101.909 74.0982 101.909 74.0982 101.909 74.0982C101.909 74.0982 101.909 74.0982 101.909 74.0982C101.909 74.0982 101.909 74.0982 101.909 74.0982C101.909 74.0982 101.909 74.0982 101.909 74.0982C101.909 74.0982 101.909 74.0982 101.909 74.0982V74.0982V74.0982V74.0982V74.0982C101.909 74.0982 101.909 74.0982 101.909 74.0982C101.909 74.0982 101.909 74.0982 101.909 74.0982C101.909 74.0982 101.909 74.0982 101.909 74.0982C101.909 74.0982 101.909 74.0982 101.909 74.0982C101.909 74.0982 101.909 74.0982 101.909 74.0982C101.909 74.0982 101.909 74.0982 101.909 74.0982C101.909 74.0982 101.909 74.0982 101.909 74.0982V74.0982V74.0982V74.0982C101.909 74.0982 101.909 74.0982 101.909 74.0982C101.909 74.0982 101.909 74.0982 101.909 74.0982C101.909 74.0982 101.909 74.0982 101.909 74.0982C101.909 74.0982 101.909 74.0982 101.909 74.0982C101.909 74.0982 101.909 74.0982 101.909 74.0982C101.909 74.0982 101.909 74.0982 101.909 74.0983C101.909 74.0983 101.909 74.0983 101.909 74.0983V74.0983V74.0983V74.0983C101.909 74.0983 101.909 74.0983 101.909 74.0983C101.909 74.0983 101.909 74.0983 101.909 74.0983C101.909 74.0983 101.909 74.0983 101.909 74.0983C101.909 74.0983 101.909 74.0983 101.909 74.0983C101.909 74.0983 101.909 74.0983 101.909 74.0983C101.909 74.0983 101.909 74.0983 101.909 74.0983V74.0983V74.0983H115.909V74.0983V74.0983C115.909 74.0983 115.909 74.0983 115.909 74.0983C115.909 74.0983 115.909 74.0983 115.909 74.0983C115.909 74.0983 115.909 74.0983 115.909 74.0983C115.909 74.0983 115.909 74.0983 115.909 74.0983C115.909 74.0983 115.909 74.0983 115.909 74.0983C115.909 74.0983 115.909 74.0983 115.909 74.0983V74.0983V74.0983V74.0983C115.909 74.0983 115.909 74.0983 115.909 74.0983C115.909 74.0982 115.909 74.0982 115.909 74.0982C115.909 74.0982 115.909 74.0982 115.909 74.0982C115.909 74.0982 115.909 74.0982 115.909 74.0982C115.909 74.0982 115.909 74.0982 115.909 74.0982C115.909 74.0982 115.909 74.0982 115.909 74.0982C115.909 74.0982 115.909 74.0982 115.909 74.0982V74.0982V74.0982V74.0982C115.909 74.0982 115.909 74.0982 115.909 74.0982C115.909 74.0982 115.909 74.0982 115.909 74.0982C115.909 74.0982 115.909 74.0982 115.909 74.0982C115.909 74.0982 115.909 74.0982 115.909 74.0982C115.909 74.0982 115.909 74.0982 115.909 74.0982C115.909 74.0982 115.909 74.0982 115.909 74.0982C115.909 74.0982 115.909 74.0982 115.909 74.0982V74.0982V74.0982V74.0982V74.0982C115.909 74.0982 115.909 74.0982 115.909 74.0982C115.909 74.0982 115.909 74.0982 115.909 74.0982C115.909 74.0982 115.909 74.0982 115.909 74.0982C115.909 74.0982 115.909 74.0982 115.909 74.0982C115.909 74.0982 115.909 74.0982 115.909 74.0982C115.909 74.0982 115.909 74.0982 115.909 74.0982C115.909 74.0982 115.909 74.0982 115.909 74.0981V74.0981V74.0981V74.0981V74.0981C115.909 74.0981 115.909 74.0981 115.909 74.0981C115.909 74.0981 115.909 74.0981 115.909 74.0981C115.909 74.0981 115.909 74.0981 115.909 74.0981C115.909 74.0981 115.909 74.0981 115.909 74.0981C115.909 74.0981 115.909 74.0981 115.909 74.0981C115.909 74.0981 115.909 74.0981 115.909 74.0981C115.909 74.0981 115.909 74.0981 115.909 74.0981V74.0981V74.0981V74.0981V74.0981C115.909 74.0981 115.909 74.0981 115.909 74.0981C115.909 74.0981 115.909 74.0981 115.909 74.0981C115.909 74.0981 115.909 74.0981 115.909 74.0981C115.909 74.0981 115.909 74.0981 115.909 74.0981C115.909 74.0981 115.909 74.0981 115.909 74.0981C115.909 74.0981 115.909 74.0981 115.909 74.0981C115.909 74.0981 115.909 74.0981 115.909 74.0981C115.909 74.0981 115.909 74.0981 115.909 74.0981V74.0981V74.0981V74.098V74.098C115.909 74.098 115.909 74.098 115.909 74.098C115.909 74.098 115.909 74.098 115.909 74.098C115.909 74.098 115.909 74.098 115.909 74.098C115.909 74.098 115.909 74.098 115.909 74.098C115.909 74.098 115.909 74.098 115.909 74.098C115.909 74.098 115.909 74.098 115.909 74.098C115.909 74.098 115.909 74.098 115.909 74.098C115.909 74.098 115.909 74.098 115.909 74.098V74.098V74.098V74.098V74.098C115.909 74.098 115.909 74.098 115.909 74.098C115.909 74.098 115.909 74.098 115.909 74.098C115.909 74.098 115.909 74.098 115.909 74.098C115.909 74.098 115.909 74.098 115.909 74.098C115.909 74.098 115.909 74.098 115.909 74.098C115.909 74.098 115.909 74.098 115.909 74.098C115.909 74.098 115.909 74.098 115.909 74.098C115.909 74.098 115.909 74.098 115.909 74.098V74.098V74.098V74.098V74.098C115.909 74.0979 115.909 74.0979 115.909 74.0979C115.909 74.0979 115.909 74.0979 115.909 74.0979C115.909 74.0979 115.909 74.0979 115.909 74.0979C115.909 74.0979 115.909 74.0979 115.909 74.0979C115.909 74.0979 115.909 74.0979 115.909 74.0979C115.909 74.0979 115.909 74.0979 115.909 74.0979C115.909 74.0979 115.909 74.0979 115.909 74.0979C115.909 74.0979 115.909 74.0979 115.909 74.0979V74.0979V74.0979V74.0979V74.0979C115.909 74.0979 115.909 74.0979 115.909 74.0979C115.909 74.0979 115.909 74.0979 115.909 74.0979C115.909 74.0979 115.909 74.0979 115.909 74.0979C115.909 74.0979 115.909 74.0979 115.909 74.0979C115.909 74.0979 115.909 74.0979 115.909 74.0979C115.909 74.0979 115.909 74.0979 115.909 74.0979C115.909 74.0979 115.909 74.0979 115.909 74.0979C115.909 74.0979 115.909 74.0979 115.909 74.0979V74.0979V74.0979V74.0979V74.0979C115.909 74.0979 115.909 74.0979 115.909 74.0979C115.909 74.0979 115.909 74.0979 115.909 74.0979C115.909 74.0979 115.909 74.0979 115.909 74.0979C115.909 74.0978 115.909 74.0978 115.909 74.0978C115.909 74.0978 115.909 74.0978 115.909 74.0978C115.909 74.0978 115.909 74.0978 115.909 74.0978C115.909 74.0978 115.909 74.0978 115.909 74.0978C115.909 74.0978 115.909 74.0978 115.909 74.0978V74.0978V74.0978V74.0978V74.0978C115.909 74.0978 115.909 74.0978 115.909 74.0978C115.909 74.0978 115.909 74.0978 115.909 74.0978C115.909 74.0978 115.909 74.0978 115.909 74.0978C115.909 74.0978 115.909 74.0978 115.909 74.0978C115.909 74.0978 115.909 74.0978 115.909 74.0978C115.909 74.0978 115.909 74.0978 115.909 74.0978C115.909 74.0978 115.909 74.0978 115.909 74.0978V74.0978V74.0978V74.0978V74.0978C115.909 74.0978 115.909 74.0978 115.909 74.0978C115.909 74.0978 115.909 74.0978 115.909 74.0978C115.909 74.0978 115.909 74.0978 115.909 74.0978C115.909 74.0978 115.909 74.0978 115.909 74.0978C115.909 74.0978 115.909 74.0978 115.909 74.0978C115.909 74.0978 115.909 74.0978 115.909 74.0978C115.909 74.0978 115.909 74.0978 115.909 74.0977V74.0977V74.0977V74.0977V74.0977C115.909 74.0977 115.909 74.0977 115.909 74.0977C115.909 74.0977 115.909 74.0977 115.909 74.0977C115.909 74.0977 115.909 74.0977 115.909 74.0977C115.909 74.0977 115.909 74.0977 115.909 74.0977C115.909 74.0977 115.909 74.0977 115.909 74.0977C115.909 74.0977 115.909 74.0977 115.909 74.0977C115.909 74.0977 115.909 74.0977 115.909 74.0977V74.0977V74.0977V74.0977C115.909 74.0977 115.909 74.0977 115.909 74.0977C115.909 74.0977 115.909 74.0977 115.909 74.0977C115.909 74.0977 115.909 74.0977 115.909 74.0977C115.909 74.0977 115.909 74.0977 115.909 74.0977C115.909 74.0977 115.909 74.0977 115.909 74.0977C115.909 74.0977 115.909 74.0977 115.909 74.0977C115.909 74.0977 115.909 74.0977 115.909 74.0977V74.0977V74.0977V74.0977C115.909 74.0977 115.909 74.0977 115.909 74.0977C115.909 74.0976 115.909 74.0976 115.909 74.0976C115.909 74.0976 115.909 74.0976 115.909 74.0976C115.909 74.0976 115.909 74.0976 115.909 74.0976C115.909 74.0976 115.909 74.0976 115.909 74.0976C115.909 74.0976 115.909 74.0976 115.909 74.0976V74.0976V74.0976H101.909ZM113.671 67.0976H108.909V81.0976H113.671V67.0976ZM111 69.7684C111 68.2934 112.196 67.0976 113.671 67.0976V81.0976C119.928 81.0976 125 76.0253 125 69.7684H111ZM111 58.0793V69.7684H125V58.0793H111ZM113.671 60.7501C112.196 60.7501 111 59.5543 111 58.0793H125C125 51.8223 119.928 46.7501 113.671 46.7501V60.7501ZM109.021 60.7501H113.671V46.7501H109.021V60.7501ZM100.831 55.2484C102.132 58.3888 105.243 60.7501 109.021 60.7501V46.7501C111.279 46.7501 113.046 48.1538 113.765 49.8909L100.831 55.2484ZM96.5301 48.8114C98.3725 50.6539 99.834 52.8412 100.831 55.2485L113.765 49.8909C112.065 45.7851 109.572 42.0544 106.43 38.9119L96.5301 48.8114ZM90.093 44.5103C92.5003 45.5075 94.6876 46.969 96.5301 48.8114L106.43 38.9119C103.287 35.7695 99.5564 33.2767 95.4506 31.576L90.093 44.5103ZM82.5 43C85.1056 43 87.6858 43.5132 90.093 44.5103L95.4506 31.576C91.3448 29.8753 86.9442 29 82.5 29V43ZM74.907 44.5103C77.3143 43.5132 79.8944 43 82.5 43V29C78.0559 29 73.6553 29.8753 69.5495 31.576L74.907 44.5103ZM68.47 48.8114C70.3125 46.969 72.4998 45.5075 74.907 44.5103L69.5495 31.576C65.4436 33.2767 61.713 35.7695 58.5705 38.9119L68.47 48.8114ZM64.1689 55.2485C65.166 52.8412 66.6275 50.6539 68.47 48.8114L58.5705 38.9119C55.428 42.0544 52.9353 45.7851 51.2346 49.8909L64.1689 55.2485Z" fill="black" mask="url(#path-14-outside-2)"/>
<rect x="78" y="38" width="9" height="24" fill="#FF0000"/>
</svg>
