<svg width="82" height="88" viewBox="0 0 82 88" fill="none" xmlns="http://www.w3.org/2000/svg">
<mask id="path-1-outside-1" maskUnits="userSpaceOnUse" x="4.17233e-07" y="-0.374023" width="52" height="69" fill="black">
<rect fill="white" x="4.17233e-07" y="-0.374023" width="52" height="69"/>
<path fill-rule="evenodd" clip-rule="evenodd" d="M41.9405 7.65332C41.9443 7.65276 41.9477 7.65101 41.9504 7.64831L41.9703 7.62849C41.976 7.62271 41.9858 7.62764 41.9847 7.63573C41.9838 7.64136 41.9887 7.64619 41.9943 7.64536C42.0024 7.64417 42.0073 7.65397 42.0015 7.65975L41.9817 7.67957C41.979 7.68227 41.9773 7.68576 41.9767 7.68953L41.3488 11.9348C40.5105 17.6029 36.0598 22.0536 30.3917 22.8919L28.299 23.2014L35.2889 26.5228C47.7642 32.4506 47.7642 50.2047 35.2889 56.1326L25.9593 60.5657C25.9429 60.5735 25.9325 60.59 25.9325 60.6082C25.9325 60.6428 25.8964 60.6656 25.8651 60.6508L25.848 60.6426C25.832 60.635 25.8134 60.635 25.7973 60.6426L25.7803 60.6508C25.749 60.6656 25.7129 60.6428 25.7129 60.6082C25.7129 60.59 25.7025 60.5735 25.686 60.5657L16.3565 56.1326C3.88118 50.2047 3.88118 32.4506 16.3565 26.5228L25.686 22.0897C25.7025 22.0819 25.7129 22.0653 25.7129 22.0472C25.7129 22.0125 25.749 21.9898 25.7802 22.0046L25.7973 22.0127C25.8134 22.0203 25.832 22.0203 25.848 22.0127L25.8651 22.0046C25.8964 21.9898 25.9325 22.0125 25.9325 22.0472C25.9325 22.0653 25.9429 22.0819 25.9593 22.0897L26.2929 22.2482L26.7381 19.2383C27.5764 13.5703 32.0271 9.11954 37.6952 8.28121L41.9405 7.65332Z"/>
</mask>
<path d="M41.9504 7.64831L37.001 2.69822L36.9994 2.69982L41.9504 7.64831ZM41.9405 7.65332L42.9647 14.578L42.9649 14.578L41.9405 7.65332ZM41.9703 7.62849L46.9197 12.5786L46.9201 12.5781L41.9703 7.62849ZM41.9847 7.63573L48.9095 8.65878L48.9096 8.65834L41.9847 7.63573ZM41.9943 7.64536L43.0181 14.5701L43.0182 14.5701L41.9943 7.64536ZM42.0015 7.65975L46.9514 12.6094L46.9514 12.6094L42.0015 7.65975ZM41.9817 7.67957L46.9292 12.6315L46.9316 12.6292L41.9817 7.67957ZM41.9767 7.68953L48.9014 8.71371L48.9015 8.71262L41.9767 7.68953ZM41.3488 11.9348L48.2735 12.959V12.959L41.3488 11.9348ZM30.3917 22.8919L31.4158 29.8166L30.3917 22.8919ZM28.299 23.2014L27.2749 16.2768C24.2265 16.7276 21.8315 19.119 21.3759 22.1666C20.9204 25.2143 22.5115 28.2014 25.2948 29.524L28.299 23.2014ZM35.2889 26.5228L32.2847 32.8453H32.2847L35.2889 26.5228ZM35.2889 56.1326L32.2847 49.81H32.2847L35.2889 56.1326ZM25.9593 60.5657L22.9551 54.2431L22.9549 54.2432L25.9593 60.5657ZM25.8651 60.6508L28.8697 54.3284L28.8691 54.3281L25.8651 60.6508ZM25.848 60.6426L22.8439 66.9652L22.8441 66.9653L25.848 60.6426ZM25.7973 60.6426L22.7929 54.3202L22.7928 54.3202L25.7973 60.6426ZM25.7803 60.6508L28.784 66.9735L28.7848 66.9732L25.7803 60.6508ZM25.686 60.5657L22.6818 66.8882L22.6819 66.8882L25.686 60.5657ZM16.3565 56.1326L19.3607 49.81H19.3607L16.3565 56.1326ZM16.3565 26.5228L13.3522 20.2003H13.3522L16.3565 26.5228ZM25.686 22.0897L28.6903 28.4122L28.6905 28.4121L25.686 22.0897ZM25.7802 22.0046L28.7848 15.6822L28.7845 15.6821L25.7802 22.0046ZM25.7973 22.0127L22.7928 28.3351L22.7935 28.3354L25.7973 22.0127ZM25.848 22.0127L28.8522 28.3353L28.8523 28.3353L25.848 22.0127ZM25.8651 22.0046L28.8694 28.3271L28.8695 28.3271L25.8651 22.0046ZM25.9593 22.0897L28.9636 15.7672L28.9632 15.767L25.9593 22.0897ZM26.2929 22.2482L23.2887 28.5707C25.2931 29.5232 27.6305 29.4687 29.5884 28.4239C31.5464 27.3791 32.8929 25.4678 33.2176 23.2724L26.2929 22.2482ZM26.7381 19.2383L33.6628 20.2625V20.2625L26.7381 19.2383ZM37.6952 8.28121L36.671 1.35654L37.6952 8.28121ZM36.9994 2.69982C38.0602 1.63857 39.4337 0.947972 40.9161 0.728679L42.9649 14.578C44.4548 14.3576 45.8353 13.6634 46.9014 12.5968L36.9994 2.69982ZM37.0209 2.6784L37.001 2.69822L46.8998 12.5984L46.9197 12.5786L37.0209 2.6784ZM48.9096 8.65834C49.8952 1.98401 41.7985 -2.09947 37.0204 2.67885L46.9201 12.5781C42.1536 17.3449 34.0765 13.2713 35.0598 6.61312L48.9096 8.65834ZM40.9705 0.720638C45.6121 0.0343804 49.5944 4.02277 48.9095 8.65878L35.0598 6.61268C34.3732 11.2599 38.3652 15.258 43.0181 14.5701L40.9705 0.720638ZM46.9514 12.6094C51.7259 7.83466 47.6506 -0.267084 40.9704 0.720649L43.0182 14.5701C36.3542 15.5554 32.2888 7.47329 37.0516 2.71014L46.9514 12.6094ZM46.9316 12.6292L46.9514 12.6094L37.0517 2.71012L37.0318 2.72994L46.9316 12.6292ZM48.9015 8.71262C48.6825 10.1954 47.9918 11.57 46.9292 12.6315L37.0342 2.72762C35.9663 3.79458 35.272 5.17617 35.0519 6.66644L48.9015 8.71262ZM48.2735 12.959L48.9014 8.71371L35.052 6.66535L34.4241 10.9106L48.2735 12.959ZM31.4158 29.8166C40.1362 28.5268 46.9837 21.6794 48.2735 12.959L34.4241 10.9106C34.0373 13.5264 31.9833 15.5804 29.3675 15.9673L31.4158 29.8166ZM29.3232 30.1261L31.4158 29.8166L29.3675 15.9673L27.2749 16.2768L29.3232 30.1261ZM38.2932 20.2003L31.3033 16.8789L25.2948 29.524L32.2847 32.8453L38.2932 20.2003ZM38.2932 62.4551C56.0961 53.9958 56.0961 28.6596 38.2932 20.2003L32.2847 32.8453C39.4323 36.2416 39.4323 46.4137 32.2847 49.81L38.2932 62.4551ZM28.9636 66.8882L38.2932 62.4551L32.2847 49.81L22.9551 54.2431L28.9636 66.8882ZM32.9325 60.6082C32.9325 63.2921 31.3877 65.7362 28.9638 66.8881L22.9549 54.2432C20.4981 55.4107 18.9325 57.8879 18.9325 60.6082H32.9325ZM22.8606 66.9731C27.5372 69.1956 32.9325 65.7849 32.9325 60.6082H18.9325C18.9325 55.5008 24.2556 52.1356 28.8697 54.3284L22.8606 66.9731ZM22.8441 66.9653L22.8612 66.9734L28.8691 54.3281L28.852 54.32L22.8441 66.9653ZM28.8018 66.9651C26.9166 67.8609 24.7287 67.8608 22.8439 66.9652L28.8522 54.3201C26.9353 53.4093 24.7101 53.4091 22.7929 54.3202L28.8018 66.9651ZM28.7848 66.9732L28.8019 66.965L22.7928 54.3202L22.7757 54.3284L28.7848 66.9732ZM18.7129 60.6082C18.7129 65.7855 24.1085 69.1948 28.784 66.9735L22.7765 54.328C27.3895 52.1365 32.7129 55.5001 32.7129 60.6082H18.7129ZM22.6819 66.8882C20.2578 65.7364 18.7129 63.2923 18.7129 60.6082H32.7129C32.7129 57.8878 31.1471 55.4105 28.6902 54.2431L22.6819 66.8882ZM13.3522 62.4551L22.6818 66.8882L28.6903 54.2431L19.3607 49.81L13.3522 62.4551ZM13.3522 20.2003C-4.45074 28.6596 -4.45074 53.9958 13.3522 62.4551L19.3607 49.81C12.2131 46.4137 12.2131 36.2416 19.3607 32.8453L13.3522 20.2003ZM22.6818 15.7672L13.3522 20.2003L19.3607 32.8453L28.6903 28.4122L22.6818 15.7672ZM18.7129 22.0472C18.7129 19.3632 20.2577 16.9191 22.6816 15.7673L28.6905 28.4121C31.1473 27.2447 32.7129 24.7674 32.7129 22.0472H18.7129ZM28.7845 15.6821C24.1085 13.4602 18.7129 16.87 18.7129 22.0472H32.7129C32.7129 27.1551 27.3895 30.5193 22.776 28.3271L28.7845 15.6821ZM28.8019 15.6903L28.7848 15.6822L22.7757 28.327L22.7928 28.3351L28.8019 15.6903ZM22.8439 15.6901C24.7289 14.7945 26.9166 14.7946 28.8012 15.69L22.7935 28.3354C24.7102 29.2461 26.9351 29.2462 28.8522 28.3353L22.8439 15.6901ZM22.8609 15.6821L22.8438 15.6902L28.8523 28.3353L28.8694 28.3271L22.8609 15.6821ZM32.9325 22.0472C32.9325 16.8703 27.537 13.46 22.8607 15.6821L28.8695 28.3271C24.2557 30.5195 18.9325 27.1548 18.9325 22.0472H32.9325ZM28.9632 15.767C31.3881 16.919 32.9325 19.3638 32.9325 22.0472H18.9325C18.9325 24.7669 20.4977 27.2447 22.9555 28.4124L28.9632 15.767ZM29.2972 15.9257L28.9636 15.7672L22.9551 28.4122L23.2887 28.5707L29.2972 15.9257ZM19.8134 18.2142L19.3682 21.224L33.2176 23.2724L33.6628 20.2625L19.8134 18.2142ZM36.671 1.35654C27.9506 2.64631 21.1032 9.49377 19.8134 18.2142L33.6628 20.2625C34.0496 17.6467 36.1036 15.5928 38.7194 15.2059L36.671 1.35654ZM40.9163 0.728651L36.671 1.35654L38.7194 15.2059L42.9647 14.578L40.9163 0.728651Z" fill="black" mask="url(#path-1-outside-1)"/>
<path fill-rule="evenodd" clip-rule="evenodd" d="M41.9504 7.64821C41.9477 7.6509 41.9443 7.65266 41.9405 7.65321L37.6952 8.2811C32.0271 9.11943 27.5764 13.5702 26.7381 19.2382L26.1102 23.4835C26.1096 23.4873 26.1079 23.4908 26.1052 23.4935L26.0854 23.5133C26.0796 23.5191 26.0845 23.5289 26.0926 23.5277C26.0982 23.5268 26.1031 23.5317 26.1022 23.5373C26.101 23.5454 26.1108 23.5503 26.1166 23.5445L26.1364 23.5247C26.1391 23.522 26.1426 23.5203 26.1464 23.5197L30.3917 22.8918C36.0598 22.0535 40.5105 17.6028 41.3488 11.9347L41.9767 7.68942C41.9773 7.68565 41.979 7.68216 41.9817 7.67947L42.0015 7.65965C42.0073 7.65387 42.0024 7.64406 41.9943 7.64526C41.9887 7.64609 41.9838 7.64125 41.9847 7.63562C41.9859 7.62754 41.976 7.62261 41.9703 7.62839L41.9504 7.64821Z" fill="#1CC64B"/>
<path fill-rule="evenodd" clip-rule="evenodd" d="M25.7129 22.047C25.7129 22.0652 25.7025 22.0818 25.686 22.0896L16.3565 26.5227C3.88118 32.4505 3.88118 50.2046 16.3565 56.1325L25.686 60.5656C25.7025 60.5734 25.7129 60.5899 25.7129 60.6081C25.7129 60.6427 25.749 60.6655 25.7803 60.6507L25.7973 60.6425C25.8134 60.6349 25.832 60.6349 25.848 60.6425L25.8651 60.6507C25.8964 60.6655 25.9325 60.6427 25.9325 60.6081C25.9325 60.5899 25.9429 60.5734 25.9593 60.5656L35.2889 56.1325C47.7642 50.2046 47.7642 32.4505 35.2889 26.5227L25.9593 22.0896C25.9429 22.0818 25.9325 22.0652 25.9325 22.047C25.9325 22.0124 25.8964 21.9896 25.8651 22.0045L25.848 22.0126C25.832 22.0202 25.8134 22.0202 25.7973 22.0126L25.7802 22.0045C25.749 21.9896 25.7129 22.0124 25.7129 22.047Z" fill="#FFE920"/>
<mask id="path-5-outside-2" maskUnits="userSpaceOnUse" x="30" y="19.626" width="52" height="69" fill="black">
<rect fill="white" x="30" y="19.626" width="52" height="69"/>
<path fill-rule="evenodd" clip-rule="evenodd" d="M71.9405 27.6533C71.9443 27.6528 71.9477 27.651 71.9504 27.6483L71.9703 27.6285C71.976 27.6227 71.9858 27.6276 71.9847 27.6357C71.9838 27.6414 71.9887 27.6462 71.9943 27.6454C72.0024 27.6442 72.0073 27.654 72.0015 27.6598L71.9817 27.6796C71.979 27.6823 71.9773 27.6858 71.9767 27.6895L71.3488 31.9348C70.5105 37.6029 66.0598 42.0536 60.3917 42.8919L58.299 43.2014L65.2889 46.5228C77.7642 52.4506 77.7642 70.2047 65.2889 76.1326L55.9593 80.5657C55.9429 80.5735 55.9325 80.59 55.9325 80.6082C55.9325 80.6428 55.8964 80.6656 55.8651 80.6508L55.848 80.6426C55.832 80.635 55.8134 80.635 55.7973 80.6426L55.7803 80.6508C55.749 80.6656 55.7129 80.6428 55.7129 80.6082C55.7129 80.59 55.7025 80.5735 55.686 80.5657L46.3565 76.1326C33.8812 70.2047 33.8812 52.4506 46.3565 46.5228L55.686 42.0897C55.7025 42.0819 55.7129 42.0653 55.7129 42.0472C55.7129 42.0125 55.749 41.9898 55.7802 42.0046L55.7973 42.0127C55.8134 42.0203 55.832 42.0203 55.848 42.0127L55.8651 42.0046C55.8964 41.9898 55.9325 42.0125 55.9325 42.0472C55.9325 42.0653 55.9429 42.0819 55.9593 42.0897L56.2929 42.2482L56.7381 39.2383C57.5764 33.5703 62.0271 29.1195 67.6952 28.2812L71.9405 27.6533Z"/>
</mask>
<path d="M71.9504 27.6483L67.001 22.6982L66.9994 22.6998L71.9504 27.6483ZM71.9405 27.6533L72.9647 34.578L72.9649 34.578L71.9405 27.6533ZM71.9703 27.6285L76.9197 32.5786L76.9201 32.5781L71.9703 27.6285ZM71.9847 27.6357L78.9095 28.6588L78.9096 28.6583L71.9847 27.6357ZM71.9943 27.6454L73.0181 34.5701L73.0182 34.5701L71.9943 27.6454ZM72.0015 27.6598L76.9514 32.6094L76.9514 32.6094L72.0015 27.6598ZM71.9817 27.6796L76.9292 32.6315L76.9316 32.6292L71.9817 27.6796ZM71.9767 27.6895L78.9014 28.7137L78.9015 28.7126L71.9767 27.6895ZM71.3488 31.9348L78.2735 32.959V32.959L71.3488 31.9348ZM60.3917 42.8919L61.4158 49.8166L60.3917 42.8919ZM58.299 43.2014L57.2749 36.2768C54.2265 36.7276 51.8315 39.119 51.3759 42.1666C50.9204 45.2143 52.5115 48.2014 55.2948 49.524L58.299 43.2014ZM65.2889 46.5228L62.2847 52.8453H62.2847L65.2889 46.5228ZM65.2889 76.1326L62.2847 69.81H62.2847L65.2889 76.1326ZM55.9593 80.5657L52.9551 74.2431L52.9549 74.2432L55.9593 80.5657ZM55.8651 80.6508L58.8697 74.3284L58.8691 74.3281L55.8651 80.6508ZM55.848 80.6426L52.8439 86.9652L52.8441 86.9653L55.848 80.6426ZM55.7973 80.6426L52.7929 74.3202L52.7928 74.3202L55.7973 80.6426ZM55.7803 80.6508L58.784 86.9735L58.7848 86.9732L55.7803 80.6508ZM55.686 80.5657L52.6818 86.8882L52.6819 86.8882L55.686 80.5657ZM46.3565 76.1326L49.3607 69.81H49.3607L46.3565 76.1326ZM46.3565 46.5228L43.3522 40.2003H43.3522L46.3565 46.5228ZM55.686 42.0897L58.6903 48.4122L58.6905 48.4121L55.686 42.0897ZM55.7802 42.0046L58.7848 35.6822L58.7845 35.6821L55.7802 42.0046ZM55.7973 42.0127L52.7928 48.3351L52.7935 48.3354L55.7973 42.0127ZM55.848 42.0127L58.8522 48.3353L58.8523 48.3353L55.848 42.0127ZM55.8651 42.0046L58.8694 48.3271L58.8695 48.3271L55.8651 42.0046ZM55.9593 42.0897L58.9636 35.7672L58.9632 35.767L55.9593 42.0897ZM56.2929 42.2482L53.2887 48.5707C55.2931 49.5232 57.6305 49.4687 59.5884 48.4239C61.5464 47.3791 62.8929 45.4678 63.2176 43.2724L56.2929 42.2482ZM56.7381 39.2383L63.6628 40.2625V40.2625L56.7381 39.2383ZM67.6952 28.2812L66.671 21.3565L67.6952 28.2812ZM66.9994 22.6998C68.0602 21.6386 69.4337 20.948 70.9161 20.7287L72.9649 34.578C74.4548 34.3576 75.8353 33.6634 76.9014 32.5968L66.9994 22.6998ZM67.0209 22.6784L67.001 22.6982L76.8998 32.5984L76.9197 32.5786L67.0209 22.6784ZM78.9096 28.6583C79.8952 21.984 71.7985 17.9005 67.0204 22.6788L76.9201 32.5781C72.1536 37.3449 64.0765 33.2713 65.0598 26.6131L78.9096 28.6583ZM70.9705 20.7206C75.6121 20.0344 79.5944 24.0228 78.9095 28.6588L65.0598 26.6127C64.3732 31.2599 68.3652 35.258 73.0181 34.5701L70.9705 20.7206ZM76.9514 32.6094C81.7259 27.8347 77.6506 19.7329 70.9704 20.7206L73.0182 34.5701C66.3542 35.5554 62.2888 27.4733 67.0516 22.7101L76.9514 32.6094ZM76.9316 32.6292L76.9514 32.6094L67.0517 22.7101L67.0318 22.7299L76.9316 32.6292ZM78.9015 28.7126C78.6825 30.1954 77.9918 31.57 76.9292 32.6315L67.0342 22.7276C65.9663 23.7946 65.272 25.1762 65.0519 26.6664L78.9015 28.7126ZM78.2735 32.959L78.9014 28.7137L65.052 26.6653L64.4241 30.9106L78.2735 32.959ZM61.4158 49.8166C70.1362 48.5268 76.9837 41.6794 78.2735 32.959L64.4241 30.9106C64.0373 33.5264 61.9833 35.5804 59.3675 35.9673L61.4158 49.8166ZM59.3232 50.1261L61.4158 49.8166L59.3675 35.9673L57.2749 36.2768L59.3232 50.1261ZM68.2932 40.2003L61.3033 36.8789L55.2948 49.524L62.2847 52.8453L68.2932 40.2003ZM68.2932 82.4551C86.0961 73.9958 86.0961 48.6596 68.2932 40.2003L62.2847 52.8453C69.4323 56.2416 69.4323 66.4137 62.2847 69.81L68.2932 82.4551ZM58.9636 86.8882L68.2932 82.4551L62.2847 69.81L52.9551 74.2431L58.9636 86.8882ZM62.9325 80.6082C62.9325 83.2921 61.3877 85.7362 58.9638 86.8881L52.9549 74.2432C50.4981 75.4107 48.9325 77.8879 48.9325 80.6082H62.9325ZM52.8606 86.9731C57.5372 89.1956 62.9325 85.7849 62.9325 80.6082H48.9325C48.9325 75.5008 54.2556 72.1356 58.8697 74.3284L52.8606 86.9731ZM52.8441 86.9653L52.8612 86.9734L58.8691 74.3281L58.852 74.32L52.8441 86.9653ZM58.8018 86.9651C56.9166 87.8609 54.7287 87.8608 52.8439 86.9652L58.8522 74.3201C56.9353 73.4093 54.7101 73.4091 52.7929 74.3202L58.8018 86.9651ZM58.7848 86.9732L58.8019 86.965L52.7928 74.3202L52.7757 74.3284L58.7848 86.9732ZM48.7129 80.6082C48.7129 85.7855 54.1085 89.1948 58.784 86.9735L52.7765 74.328C57.3895 72.1365 62.7129 75.5001 62.7129 80.6082H48.7129ZM52.6819 86.8882C50.2578 85.7364 48.7129 83.2923 48.7129 80.6082H62.7129C62.7129 77.8878 61.1471 75.4105 58.6902 74.2431L52.6819 86.8882ZM43.3522 82.4551L52.6818 86.8882L58.6903 74.2431L49.3607 69.81L43.3522 82.4551ZM43.3522 40.2003C25.5493 48.6596 25.5493 73.9958 43.3522 82.4551L49.3607 69.81C42.2131 66.4137 42.2131 56.2416 49.3607 52.8453L43.3522 40.2003ZM52.6818 35.7672L43.3522 40.2003L49.3607 52.8453L58.6903 48.4122L52.6818 35.7672ZM48.7129 42.0472C48.7129 39.3632 50.2577 36.9191 52.6816 35.7673L58.6905 48.4121C61.1473 47.2447 62.7129 44.7674 62.7129 42.0472H48.7129ZM58.7845 35.6821C54.1085 33.4602 48.7129 36.87 48.7129 42.0472H62.7129C62.7129 47.1551 57.3895 50.5193 52.776 48.3271L58.7845 35.6821ZM58.8019 35.6903L58.7848 35.6822L52.7757 48.327L52.7928 48.3351L58.8019 35.6903ZM52.8439 35.6901C54.7289 34.7945 56.9166 34.7946 58.8012 35.69L52.7935 48.3354C54.7102 49.2461 56.9351 49.2462 58.8522 48.3353L52.8439 35.6901ZM52.8609 35.6821L52.8438 35.6902L58.8523 48.3353L58.8694 48.3271L52.8609 35.6821ZM62.9325 42.0472C62.9325 36.8703 57.537 33.46 52.8607 35.6821L58.8695 48.3271C54.2557 50.5195 48.9325 47.1548 48.9325 42.0472H62.9325ZM58.9632 35.767C61.3881 36.919 62.9325 39.3638 62.9325 42.0472H48.9325C48.9325 44.7669 50.4977 47.2447 52.9555 48.4124L58.9632 35.767ZM59.2972 35.9257L58.9636 35.7672L52.9551 48.4122L53.2887 48.5707L59.2972 35.9257ZM49.8134 38.2142L49.3682 41.224L63.2176 43.2724L63.6628 40.2625L49.8134 38.2142ZM66.671 21.3565C57.9506 22.6463 51.1032 29.4938 49.8134 38.2142L63.6628 40.2625C64.0496 37.6467 66.1036 35.5928 68.7194 35.2059L66.671 21.3565ZM70.9163 20.7287L66.671 21.3565L68.7194 35.2059L72.9647 34.578L70.9163 20.7287Z" fill="black" mask="url(#path-5-outside-2)"/>
<path fill-rule="evenodd" clip-rule="evenodd" d="M71.9504 27.6482C71.9477 27.6509 71.9443 27.6527 71.9405 27.6532L67.6952 28.2811C62.0271 29.1194 57.5764 33.5702 56.7381 39.2382L56.1102 43.4835C56.1096 43.4873 56.1079 43.4908 56.1052 43.4935L56.0854 43.5133C56.0796 43.5191 56.0845 43.5289 56.0926 43.5277C56.0982 43.5268 56.1031 43.5317 56.1022 43.5373C56.101 43.5454 56.1108 43.5503 56.1166 43.5445L56.1364 43.5247C56.1391 43.522 56.1426 43.5203 56.1464 43.5197L60.3917 42.8918C66.0598 42.0535 70.5105 37.6028 71.3488 31.9347L71.9767 27.6894C71.9773 27.6857 71.979 27.6822 71.9817 27.6795L72.0015 27.6596C72.0073 27.6539 72.0024 27.6441 71.9943 27.6453C71.9887 27.6461 71.9838 27.6413 71.9847 27.6356C71.9859 27.6275 71.976 27.6226 71.9703 27.6284L71.9504 27.6482Z" fill="#1CC64B"/>
<path fill-rule="evenodd" clip-rule="evenodd" d="M55.7129 42.047C55.7129 42.0652 55.7025 42.0818 55.686 42.0896L46.3565 46.5227C33.8812 52.4505 33.8812 70.2046 46.3565 76.1325L55.686 80.5656C55.7025 80.5734 55.7129 80.5899 55.7129 80.6081C55.7129 80.6427 55.749 80.6655 55.7803 80.6507L55.7973 80.6425C55.8134 80.6349 55.832 80.6349 55.848 80.6425L55.8651 80.6507C55.8964 80.6655 55.9325 80.6427 55.9325 80.6081C55.9325 80.5899 55.9429 80.5734 55.9593 80.5656L65.2889 76.1325C77.7642 70.2046 77.7642 52.4505 65.2889 46.5227L55.9593 42.0896C55.9429 42.0818 55.9325 42.0652 55.9325 42.047C55.9325 42.0124 55.8964 41.9896 55.8651 42.0045L55.848 42.0126C55.832 42.0202 55.8134 42.0202 55.7973 42.0126L55.7802 42.0045C55.749 41.9896 55.7129 42.0124 55.7129 42.047Z" fill="#FFE920"/>
</svg>
