<svg width="117" height="59" viewBox="0 0 117 59" fill="none" xmlns="http://www.w3.org/2000/svg">
<circle cx="58.4998" cy="29.1736" r="22.1736" fill="#00E0FF"/>
<ellipse cx="58.5" cy="39.188" rx="51.5" ry="12.1597" fill="#A5A5A5"/>
<ellipse rx="38.5" ry="9" transform="matrix(1 0 0 -1 58.5 44.3477)" fill="#D3D3D3"/>
<mask id="path-4-outside-1" maskUnits="userSpaceOnUse" x="0" y="0" width="117" height="59" fill="black">
<rect fill="white" width="117" height="59"/>
<path fill-rule="evenodd" clip-rule="evenodd" d="M36.3468 28.2077C36.8525 16.4097 46.5773 7 58.4998 7C70.4223 7 80.147 16.4096 80.6527 28.2076C98.0081 30.1631 110 34.3449 110 39.188C110 45.9037 86.9427 51.3478 58.5 51.3478C30.0573 51.3478 7 45.9037 7 39.188C7 34.345 18.9917 30.1632 36.3468 28.2077Z"/>
</mask>
<path d="M36.3468 28.2077L37.1306 35.1637L43.0839 34.4929L43.3404 28.5074L36.3468 28.2077ZM80.6527 28.2076L73.6592 28.5074L73.9157 34.4928L79.869 35.1636L80.6527 28.2076ZM43.3404 28.5074C43.6862 20.4392 50.3429 14 58.4998 14V0C42.8117 0 30.0188 12.3801 29.3533 27.9079L43.3404 28.5074ZM58.4998 14C66.6567 14 73.3133 20.4392 73.6592 28.5074L87.6463 27.9079C86.9807 12.3801 74.1879 0 58.4998 0V14ZM79.869 35.1636C88.2655 36.1097 94.9896 37.5604 99.4242 39.1869C101.679 40.0139 102.944 40.7444 103.513 41.1945C104.181 41.7228 103 41.0913 103 39.188H117C117 34.8632 114.32 31.8928 112.198 30.2138C109.976 28.4566 107.158 27.1113 104.245 26.0431C98.3449 23.879 90.3954 22.2611 81.4365 21.2516L79.869 35.1636ZM103 39.188C103 36.6663 104.923 36.479 102.541 37.809C100.748 38.8098 97.6896 39.9389 93.3074 40.9736C84.6543 43.0167 72.3446 44.3478 58.5 44.3478V58.3478C73.0981 58.3478 86.5384 56.9568 96.5246 54.5989C101.462 53.4331 105.946 51.942 109.365 50.0333C112.194 48.4537 117 45.0676 117 39.188H103ZM58.5 44.3478C44.6554 44.3478 32.3457 43.0167 23.6925 40.9736C19.3104 39.9389 16.2519 38.8098 14.4591 37.809C12.0766 36.479 14 36.6663 14 39.188H0C0 45.0676 4.80555 48.4537 7.63514 50.0333C11.0544 51.942 15.5379 53.4331 20.4755 54.5989C30.4616 56.9568 43.9019 58.3478 58.5 58.3478V44.3478ZM14 39.188C14 41.0913 12.8193 41.7228 13.4873 41.1945C14.0564 40.7444 15.3208 40.014 17.5757 39.1869C22.0102 37.5604 28.7342 36.1097 37.1306 35.1637L35.5631 21.2517C26.6043 22.2611 18.6549 23.8791 12.7548 26.0431C9.84238 27.1113 7.02417 28.4567 4.80244 30.2139C2.67964 31.8929 0 34.8633 0 39.188H14Z" fill="black" mask="url(#path-4-outside-1)"/>
</svg>
