<svg width="330" height="272" viewBox="0 0 330 272" fill="none" xmlns="http://www.w3.org/2000/svg">
<rect x="24" y="32" width="51" height="46" rx="18.3881" fill="#FFBA09"/>
<path d="M22.1008 148.197C21.8645 142.961 26.045 138.588 31.2855 138.588L40.146 138.588C45.2238 138.588 49.3401 142.704 49.3401 147.782L49.3401 233.701C49.3401 238.639 45.4392 242.695 40.5049 242.888L35.5323 243.082C30.4803 243.28 26.2169 239.361 25.9888 234.31L22.1008 148.197Z" fill="#0094FF"/>
<path d="M42.3826 143.877C41.1322 137.999 45.7372 132.253 51.6999 132.253L61.054 132.252C65.3444 132.252 68.918 135.305 69.6312 139.579L84.7471 230.166C85.5829 235.175 82.2376 240.108 77.2753 241.184L72.3047 242.262C67.4968 243.305 62.9035 240.343 61.882 235.542L42.3826 143.877Z" fill="#0094FF"/>
<rect width="30.9127" height="33.5774" rx="9.19405" transform="matrix(0.982336 -0.187128 0.186679 0.982421 33.0938 152.15)" fill="#0094FF"/>
<rect width="13.7899" height="22.9585" rx="6.89496" transform="matrix(-0.258819 0.965926 -0.966087 -0.258218 119.279 145.129)" fill="#FFE2C7"/>
<path fill-rule="evenodd" clip-rule="evenodd" d="M63.6112 96.8255C64.1261 94.4376 66.0433 92.6537 68.4017 92.0218C74.963 90.2637 81.9209 99.1527 81.8152 105.947C81.7682 108.967 82.1331 112.049 82.9513 115.117C84.4531 120.75 87.2994 125.655 91.0404 129.566C94.9387 133.642 96.1175 140.48 92.1241 144.47C89.7902 146.803 86.2426 147.589 83.4253 145.879C74.7012 140.582 67.5016 131.028 64.3059 119.041C62.2536 111.344 62.1314 103.689 63.6112 96.8255Z" fill="#FFE2C7"/>
<path d="M24.3896 99.9582C24.3896 92.0109 31.0892 85.7082 39.0218 86.1929L59.4773 87.4427C66.6689 87.8821 72.3102 93.7834 72.4255 100.987L72.9545 134.05C73.0739 141.516 67.2292 147.721 59.7691 148.048L38.7846 148.968C30.9386 149.312 24.3896 143.044 24.3896 135.19V99.9582Z" fill="#304967"/>
<rect width="15.7385" height="24.1323" rx="7.86924" transform="matrix(-0.610433 0.792068 -0.791333 -0.611386 57.4336 164.959)" fill="#FFE2C7"/>
<path fill-rule="evenodd" clip-rule="evenodd" d="M28.5449 90.2735C30.1762 88.9277 32.4299 88.7165 34.3818 89.5324C40.3176 92.0137 39.9552 105.174 35.9032 110.169C34.1547 112.324 32.6867 114.756 31.5699 117.436C28.0602 125.859 28.7341 135.026 32.6456 142.771C34.2609 145.969 34.3533 149.886 32.1604 152.717C29.9049 155.629 25.8384 156.673 22.9739 154.355C11.4543 145.034 7.81888 126.226 15.1428 108.649C18.2866 101.105 23.0115 94.8383 28.5449 90.2735Z" fill="#FFE2C7"/>
<rect x="27.5342" y="39.4082" width="46.3722" height="41.3732" rx="18.3881" fill="#FFBA09"/>
<rect x="51.9492" y="40.0312" width="22.9565" height="33.5583" rx="11.4783" fill="#FFBA09"/>
<path d="M74.0833 56.5891C74.0833 74.6742 70.2651 81.494 58.6967 81.494C47.1283 81.494 29.0225 73.3194 29.0225 60.4632C29.0225 47.6071 43.8312 31.1309 55.3996 31.1309C66.968 31.1309 74.0833 40.0496 74.0833 56.5891Z" fill="#FFE2C7"/>
<path d="M41.5898 74.9675C41.5898 69.8897 45.7062 65.7734 50.7839 65.7734H51.6793C56.757 65.7734 60.8733 69.8898 60.8733 74.9675V82.7824C60.8733 87.8602 56.757 91.9765 51.6793 91.9765H50.7839C45.7062 91.9765 41.5898 87.8602 41.5898 82.7824V74.9675Z" fill="#FFE2C7"/>
<path fill-rule="evenodd" clip-rule="evenodd" d="M29.8418 60.5222C27.6008 49.1904 34.2123 38.214 44.8129 35.8467C48.501 35.0231 52.1936 35.3484 55.558 36.595C57.799 47.9269 51.1874 58.9033 40.5869 61.2705C36.8988 62.0942 33.2062 61.7689 29.8418 60.5222Z" fill="#FFBA09"/>
<path fill-rule="evenodd" clip-rule="evenodd" d="M67.5608 35.6349C61.5717 30.1823 53.3262 27.7651 45.2929 29.9217C34.4894 32.8219 27.4817 43.0781 27.6029 54.4423C33.1954 58.2774 40.9914 59.6565 48.8159 57.556C60.1187 54.5218 67.7463 45.2294 67.5608 35.6349Z" fill="#FFBA09"/>
<path fill-rule="evenodd" clip-rule="evenodd" d="M41.644 79.7345C36.2384 69.8712 38.609 56.8044 47.9645 48.5787C55.4679 41.9813 65.4749 40.2474 73.8222 43.2461C73.0361 41.8117 72.0855 40.445 70.968 39.1709C62.1664 29.1353 46.3442 28.6378 35.6283 38.0598C24.9123 47.4817 23.3604 63.2552 32.162 73.2908C34.8007 76.2993 38.0702 78.4506 41.644 79.7345Z" fill="#FFBA09"/>
<path fill-rule="evenodd" clip-rule="evenodd" d="M46.9197 66.7881C46.2053 69.4592 42.7951 70.2457 40.816 68.3137C38.7325 66.2797 37.7634 63.3273 38.5312 60.4566C39.2456 57.7854 42.6558 56.999 44.6349 58.931C46.7184 60.965 47.6874 63.9174 46.9197 66.7881Z" fill="#FFE2C7"/>
<path d="M77.806 65.1709L74.3636 53.7787C73.702 51.5894 70.5128 51.8874 70.2684 54.1614L68.8449 67.4024C68.6775 68.9594 70.2128 70.1446 71.6767 69.5884L76.5425 67.7396C77.5729 67.3481 78.1248 66.2261 77.806 65.1709Z" fill="#FFE2C7"/>
<rect width="5.24616" height="7.86924" rx="2.62308" transform="matrix(-0.965926 -0.258819 -0.258819 0.965926 66.1445 56.5645)" fill="black"/>
<rect width="3.42913" height="9.07267" rx="1.71457" transform="matrix(-4.37114e-08 -1 -0.999907 0.0136318 67.7314 49.9141)" fill="black"/>
<path d="M70.5004 77C68.1093 76.8682 64.3282 76.2545 62.5005 73.4997C62.5005 73.4997 66.535 77.9175 70.5004 77Z" stroke="black" stroke-width="3.46247" stroke-linecap="round" stroke-linejoin="round"/>
<path d="M57.503 249.812C61.0565 250.231 63.7344 253.243 63.7344 256.821C63.7344 260.718 60.5749 263.878 56.6775 263.878L33.1463 263.878C28.4861 263.878 24.7083 260.1 24.7083 255.44C24.7083 250.388 29.1167 246.469 34.1334 247.059L57.503 249.812Z" fill="#C08CF4"/>
<path d="M99.4842 243.952C103.052 243.687 106.252 246.135 106.931 249.648C107.67 253.475 105.167 257.177 101.341 257.918L78.2368 262.392C73.6617 263.278 69.2365 260.287 68.3527 255.712C67.3948 250.752 70.9792 246.066 76.0164 245.692L99.4842 243.952Z" fill="#C08CF4"/>
<circle cx="22.7418" cy="63.7418" r="8.74185" fill="#FFBA09"/>
<circle cx="61.5664" cy="59.6826" r="7.62764" stroke="black" stroke-width="3.26899"/>
<line x1="69.7383" y1="59.6819" x2="77.3659" y2="59.6819" stroke="black" stroke-width="3.26899"/>
<mask id="path-27-outside-1" maskUnits="userSpaceOnUse" x="4.34863" y="21.1387" width="121" height="250" fill="black">
<rect fill="white" x="4.34863" y="21.1387" width="121" height="250"/>
<path fill-rule="evenodd" clip-rule="evenodd" d="M39.8302 32.1773C30.8857 33.4223 24.0004 41.1015 24.0004 50.3889V55.0906C23.5896 55.0314 23.1695 55.0008 22.7423 55.0008C17.9143 55.0008 14.0004 58.9146 14.0004 63.7426C14.0004 68.5706 17.9143 72.4845 22.7423 72.4845C24.6414 72.4845 26.3991 71.8789 27.8327 70.8503C29.219 72.6432 30.9291 74.173 32.8755 75.3519C35.2318 77.7242 38.2306 79.4575 41.5892 80.2687V82.7836C41.5892 84.0658 41.8517 85.2867 42.3258 86.3955L39.0224 86.1936C34.527 85.9189 30.4276 87.824 27.719 90.9729C22.542 95.4699 18.1293 101.483 15.1431 108.649C7.95191 125.908 11.3264 144.352 22.3558 153.839L25.989 234.309C26.217 239.36 30.4804 243.279 35.5325 243.082L40.505 242.887C45.4394 242.695 49.3403 238.638 49.3403 233.7V183.237L50.7006 182.978L61.8821 235.541C62.9035 240.343 67.4968 243.304 72.3047 242.261L77.2753 241.183C82.2377 240.107 85.5829 235.174 84.7472 230.165L70.1396 142.625C71.5177 140.816 72.4574 138.66 72.8062 136.317C75.8874 140.256 79.5024 143.499 83.4258 145.881C86.243 147.591 89.7906 146.805 92.1245 144.472C96.118 140.481 94.9392 133.644 91.0408 129.568C87.2998 125.657 84.4535 120.752 82.9517 115.119C82.1335 112.05 81.7687 108.969 81.8156 105.949C81.919 99.3031 75.2646 90.6536 68.8335 91.9233C66.5198 89.3832 63.2658 87.7079 59.6012 87.4515C60.4091 86.0833 60.8727 84.4876 60.8727 82.7836V81.4062C67.8462 80.8036 71.558 77.1053 73.1375 69.0344L76.5421 67.7408C77.5725 67.3493 78.1244 66.2273 77.8055 65.1722L75.0004 55.8889V50.3889C75.0004 47.8144 74.4714 45.3636 73.5161 43.1391C73.6185 43.1743 73.7207 43.2102 73.8226 43.2468C73.4199 42.5121 72.9741 41.7951 72.4848 41.0992C71.2 38.9088 69.4748 37.008 67.4307 35.5184C61.4527 30.1487 53.2682 27.7818 45.2929 29.9227C43.3417 30.4466 41.5142 31.2104 39.8302 32.1773ZM117.495 151.791C118.48 148.112 116.297 144.334 112.618 143.35L103.761 140.983C100.082 139.999 96.3004 142.184 95.3148 145.862C94.3292 149.541 96.5126 153.32 100.191 154.303L109.049 156.67C112.728 157.654 116.509 155.469 117.495 151.791ZM63.7343 256.821C63.7343 253.243 61.0564 250.231 57.5029 249.812L34.1334 247.06C29.1166 246.469 24.7082 250.388 24.7082 255.44C24.7082 260.1 28.486 263.878 33.1462 263.878H56.6774C60.5748 263.878 63.7343 260.718 63.7343 256.821ZM99.4842 243.953C103.052 243.688 106.252 246.136 106.931 249.649C107.67 253.476 105.167 257.178 101.341 257.919L78.2368 262.393C73.6617 263.279 69.2365 260.288 68.3527 255.712C67.3948 250.753 70.9792 246.066 76.0164 245.693L99.4842 243.953Z"/>
</mask>
<path d="M39.8302 32.1773L40.7953 39.1105C41.683 38.9869 42.5386 38.694 43.3159 38.2477L39.8302 32.1773ZM24.0004 55.0906L23.0018 62.019C25.0118 62.3087 27.0485 61.7113 28.5835 60.3817C30.1185 59.0521 31.0004 57.1214 31.0004 55.0906H24.0004ZM27.8327 70.8503L33.3705 66.5686C31.0655 63.5873 26.814 62.9659 23.7521 65.1627L27.8327 70.8503ZM32.8755 75.3519L37.842 70.419C37.44 70.0143 36.99 69.6602 36.5021 69.3646L32.8755 75.3519ZM41.5892 80.2687H48.5892C48.5892 77.0359 46.3753 74.2235 43.2328 73.4644L41.5892 80.2687ZM42.3258 86.3955L41.8989 93.3824C44.3222 93.5305 46.6493 92.4123 48.0478 90.4277C49.4463 88.4431 49.7166 85.8755 48.762 83.6432L42.3258 86.3955ZM39.0224 86.1936L39.4493 79.2066H39.4493L39.0224 86.1936ZM27.719 90.9729L32.3095 96.2576C32.5654 96.0353 32.8049 95.7947 33.0259 95.5377L27.719 90.9729ZM15.1431 108.649L8.68158 105.957H8.68158L15.1431 108.649ZM22.3558 153.839L29.3487 153.523C29.2616 151.596 28.3831 149.79 26.9204 148.532L22.3558 153.839ZM25.989 234.309L18.9961 234.625L25.989 234.309ZM35.5325 243.082L35.2593 236.087L35.2593 236.087L35.5325 243.082ZM40.505 242.887L40.7782 249.882H40.7782L40.505 242.887ZM49.3403 183.237L48.0304 176.361C44.7288 176.99 42.3403 179.876 42.3403 183.237H49.3403ZM50.7006 182.978L57.5474 181.521C56.7552 177.797 53.1312 175.389 49.3908 176.102L50.7006 182.978ZM61.8821 235.541L55.0353 236.997L61.8821 235.541ZM72.3047 242.261L70.8208 235.421H70.8208L72.3047 242.261ZM77.2753 241.183L75.7914 234.342H75.7914L77.2753 241.183ZM84.7472 230.165L77.8426 231.318L84.7472 230.165ZM70.1396 142.625L64.5721 138.382C63.4009 139.918 62.9171 141.871 63.2351 143.777L70.1396 142.625ZM72.8062 136.317L78.3193 132.004C76.5953 129.801 73.7249 128.835 71.0198 129.549C68.3147 130.263 66.2945 132.519 65.8825 135.286L72.8062 136.317ZM83.4258 145.881L87.0584 139.897L83.4258 145.881ZM92.1245 144.472L97.0727 149.424L92.1245 144.472ZM91.0408 129.568L85.9823 134.407L91.0408 129.568ZM82.9517 115.119L76.188 116.923L82.9517 115.119ZM81.8156 105.949L88.8148 106.057V106.057L81.8156 105.949ZM68.8335 91.9233L63.6585 96.637C65.3084 98.4484 67.7854 99.2653 70.1893 98.7907L68.8335 91.9233ZM59.6012 87.4515L53.5736 83.8924C52.3401 85.9813 52.2762 88.56 53.4046 90.7075C54.5329 92.855 56.6928 94.2652 59.1128 94.4345L59.6012 87.4515ZM60.8727 81.4062L60.2701 74.4322C56.6511 74.7449 53.8727 77.7738 53.8727 81.4062H60.8727ZM73.1375 69.0344L70.6513 62.4908C68.3899 63.35 66.7324 65.3159 66.2678 67.69L73.1375 69.0344ZM76.5421 67.7408L74.0559 61.1972L74.0559 61.1972L76.5421 67.7408ZM77.8055 65.1722L84.5063 63.1474L84.5063 63.1474L77.8055 65.1722ZM75.0004 55.8889H68.0004C68.0004 56.5749 68.1012 57.2571 68.2997 57.9137L75.0004 55.8889ZM73.5161 43.1391L75.7916 36.5193C73.1727 35.619 70.2692 36.3474 68.3853 38.3772C66.5014 40.407 65.9913 43.3567 67.0841 45.9013L73.5161 43.1391ZM73.8226 43.2468L71.456 49.8346C74.1936 50.8181 77.2542 50.006 79.144 47.7946C81.0339 45.5833 81.3592 42.4335 79.9612 39.8826L73.8226 43.2468ZM72.4848 41.0992L66.4467 44.6407C66.544 44.8066 66.6481 44.9683 66.7587 45.1256L72.4848 41.0992ZM67.4307 35.5184L62.7531 40.726C62.9303 40.8852 63.1155 41.0352 63.308 41.1755L67.4307 35.5184ZM45.2929 29.9227L47.1078 36.6834V36.6834L45.2929 29.9227ZM112.618 143.35L114.426 136.588H114.426L112.618 143.35ZM103.761 140.983L101.953 147.745L103.761 140.983ZM95.3148 145.862L102.076 147.674V147.674L95.3148 145.862ZM100.191 154.303L98.3839 161.065L100.191 154.303ZM109.049 156.67L110.857 149.908H110.857L109.049 156.67ZM57.5029 249.812L56.684 256.764L57.5029 249.812ZM34.1334 247.06L33.3145 254.011L34.1334 247.06ZM106.931 249.649L100.058 250.977V250.977L106.931 249.649ZM99.4842 243.953L98.9666 236.972H98.9666L99.4842 243.953ZM101.341 257.919L102.672 264.791H102.672L101.341 257.919ZM78.2368 262.393L79.5675 269.265H79.5675L78.2368 262.393ZM68.3527 255.712L61.4798 257.04V257.04L68.3527 255.712ZM76.0164 245.693L76.534 252.674L76.0164 245.693ZM31.0004 50.3889C31.0004 44.6429 35.2625 39.8806 40.7953 39.1105L38.8652 25.2441C26.5089 26.9641 17.0004 37.5601 17.0004 50.3889H31.0004ZM31.0004 55.0906V50.3889H17.0004V55.0906H31.0004ZM22.7423 62.0008C22.8343 62.0008 22.9206 62.0073 23.0018 62.019L24.9991 48.1622C24.2585 48.0555 23.5047 48.0008 22.7423 48.0008V62.0008ZM21.0004 63.7426C21.0004 62.7806 21.7803 62.0008 22.7423 62.0008V48.0008C14.0483 48.0008 7.00042 55.0486 7.00042 63.7426H21.0004ZM22.7423 65.4845C21.7803 65.4845 21.0004 64.7046 21.0004 63.7426H7.00042C7.00042 72.4366 14.0483 79.4845 22.7423 79.4845V65.4845ZM23.7521 65.1627C23.4684 65.3662 23.1295 65.4845 22.7423 65.4845V79.4845C26.1533 79.4845 29.3297 78.3915 31.9134 76.5378L23.7521 65.1627ZM36.5021 69.3646C35.2956 68.6338 34.2324 67.6833 33.3705 66.5686L22.2949 75.1319C24.2056 77.6031 26.5627 79.7122 29.2489 81.3392L36.5021 69.3646ZM43.2328 73.4644C41.1663 72.9653 39.3091 71.8961 37.842 70.419L27.909 80.2848C31.1544 83.5524 35.2949 85.9497 39.9456 87.0731L43.2328 73.4644ZM48.5892 82.7836V80.2687H34.5892V82.7836H48.5892ZM48.762 83.6432C48.653 83.3883 48.5892 83.1025 48.5892 82.7836H34.5892C34.5892 85.0291 35.0503 87.185 35.8896 89.1477L48.762 83.6432ZM38.5955 93.1806L41.8989 93.3824L42.7527 79.4085L39.4493 79.2066L38.5955 93.1806ZM33.0259 95.5377C34.3739 93.9706 36.3853 93.0455 38.5955 93.1806L39.4493 79.2066C32.6687 78.7924 26.4813 81.6775 22.4122 86.4082L33.0259 95.5377ZM21.6046 111.342C24.1867 105.145 27.9697 100.027 32.3095 96.2576L23.1286 85.6882C17.1142 90.9125 12.0718 97.8209 8.68158 105.957L21.6046 111.342ZM26.9204 148.532C18.7533 141.507 15.2632 126.561 21.6046 111.342L8.68158 105.957C0.64064 125.255 3.89955 147.197 17.7911 159.146L26.9204 148.532ZM32.9819 233.993L29.3487 153.523L15.3629 154.155L18.9961 234.625L32.9819 233.993ZM35.2593 236.087C34.0537 236.134 33.0363 235.199 32.9819 233.993L18.9961 234.625C19.3978 243.521 26.9072 250.424 35.8057 250.076L35.2593 236.087ZM40.2318 235.893L35.2593 236.087L35.8057 250.076L40.7782 249.882L40.2318 235.893ZM42.3403 233.7C42.3403 234.879 41.4094 235.847 40.2318 235.893L40.7782 249.882C49.4694 249.543 56.3403 242.398 56.3403 233.7H42.3403ZM42.3403 183.237V233.7H56.3403V183.237H42.3403ZM49.3908 176.102L48.0304 176.361L50.6501 190.113L52.0105 189.854L49.3908 176.102ZM68.7289 234.084L57.5474 181.521L43.8538 184.434L55.0353 236.997L68.7289 234.084ZM70.8208 235.421C70.2525 235.544 69.7983 235.424 69.4669 235.21C69.1361 234.997 68.8467 234.638 68.7289 234.084L55.0353 236.997C56.8664 245.605 65.2058 250.964 73.7887 249.102L70.8208 235.421ZM75.7914 234.342L70.8208 235.421L73.7887 249.102L78.7593 248.024L75.7914 234.342ZM77.8426 231.318C78.0637 232.642 77.1039 234.058 75.7914 234.342L78.7593 248.024C87.3714 246.156 93.1021 237.706 91.6517 229.013L77.8426 231.318ZM63.2351 143.777L77.8426 231.318L91.6517 229.013L77.0441 141.472L63.2351 143.777ZM65.8825 135.286C65.7122 136.43 65.2538 137.487 64.5721 138.382L75.7071 146.868C77.7816 144.145 79.2025 140.89 79.7298 137.348L65.8825 135.286ZM87.0584 139.897C83.9083 137.984 80.9175 135.325 78.3193 132.004L67.2931 140.631C70.8572 145.186 75.0965 149.013 79.7931 151.864L87.0584 139.897ZM87.1763 139.521C87.079 139.618 86.9783 139.689 86.889 139.737C86.7992 139.785 86.7391 139.799 86.7217 139.802C86.7066 139.805 86.7429 139.796 86.8208 139.809C86.9053 139.824 86.9918 139.856 87.0584 139.897L79.7931 151.864C85.9292 155.589 92.9585 153.535 97.0727 149.424L87.1763 139.521ZM85.9823 134.407C86.8827 135.348 87.4613 136.638 87.5797 137.776C87.6911 138.847 87.3866 139.311 87.1763 139.521L97.0727 149.424C100.856 145.643 101.959 140.693 101.504 136.327C101.057 132.03 99.0973 127.864 96.0994 124.73L85.9823 134.407ZM76.188 116.923C77.9995 123.717 81.4427 129.661 85.9823 134.407L96.0994 124.73C93.157 121.653 90.9075 117.787 89.7155 113.316L76.188 116.923ZM74.8165 105.84C74.7596 109.499 75.202 113.225 76.188 116.923L89.7155 113.316C89.0649 110.876 88.7778 108.438 88.8148 106.057L74.8165 105.84ZM70.1893 98.7907C69.8178 98.864 70.7554 98.5549 72.4834 100.55C74.0952 102.411 74.8354 104.626 74.8165 105.84L88.8148 106.057C88.8993 100.625 86.3639 95.1928 83.0666 91.3852C79.8854 87.7119 74.2803 83.7128 67.4776 85.0558L70.1893 98.7907ZM59.1128 94.4345C60.9163 94.5606 62.5124 95.3788 63.6585 96.637L74.0085 87.2095C70.5273 83.3877 65.6153 80.8551 60.0897 80.4686L59.1128 94.4345ZM53.8727 82.7836C53.8727 83.2016 53.7624 83.5726 53.5736 83.8924L65.6289 91.0107C67.0559 88.594 67.8727 85.7735 67.8727 82.7836H53.8727ZM53.8727 81.4062V82.7836H67.8727V81.4062H53.8727ZM66.2678 67.69C65.6194 71.0031 64.7099 72.4357 64.0637 73.0856C63.5384 73.614 62.5966 74.2312 60.2701 74.4322L61.4753 88.3802C66.1223 87.9787 70.5231 86.4454 73.992 82.9562C77.34 79.5886 79.0761 75.1365 80.0072 70.3788L66.2678 67.69ZM74.0559 61.1972L70.6513 62.4908L75.6237 75.578L79.0283 74.2844L74.0559 61.1972ZM71.1048 67.1969C70.36 64.7324 71.649 62.1116 74.0559 61.1972L79.0283 74.2844C83.4959 72.5869 85.8887 67.7222 84.5063 63.1474L71.1048 67.1969ZM68.2997 57.9137L71.1048 67.1969L84.5063 63.1474L81.7012 53.8642L68.2997 57.9137ZM68.0004 50.3889V55.8889H82.0004V50.3889H68.0004ZM67.0841 45.9013C67.6716 47.2692 68.0004 48.7816 68.0004 50.3889H82.0004C82.0004 46.8473 81.2712 43.458 79.948 40.3769L67.0841 45.9013ZM76.1892 36.659C76.0569 36.6115 75.9244 36.5649 75.7916 36.5193L71.2405 49.7589C71.3126 49.7837 71.3844 49.8089 71.456 49.8346L76.1892 36.659ZM66.7587 45.1256C67.0973 45.6072 67.4056 46.103 67.684 46.6111L79.9612 39.8826C79.4342 38.9211 78.8508 37.983 78.2108 37.0728L66.7587 45.1256ZM63.308 41.1755C64.5785 42.1014 65.6505 43.2832 66.4467 44.6407L78.5228 37.5577C76.7495 34.5345 74.3711 31.9146 71.5534 29.8612L63.308 41.1755ZM47.1078 36.6834C52.5744 35.2159 58.3597 36.7797 62.7531 40.726L72.1084 30.3107C64.5457 23.5177 53.962 20.3477 43.478 23.1621L47.1078 36.6834ZM43.3159 38.2477C44.4816 37.5784 45.7481 37.0484 47.1078 36.6834L43.4781 23.1621C40.9352 23.8447 38.5468 24.8423 36.3446 26.1069L43.3159 38.2477ZM110.811 150.113C110.812 150.113 110.807 150.112 110.798 150.107C110.788 150.103 110.779 150.097 110.771 150.09C110.755 150.078 110.748 150.068 110.744 150.062C110.741 150.056 110.736 150.044 110.733 150.024C110.731 150.014 110.731 150.003 110.732 149.993C110.732 149.982 110.734 149.977 110.733 149.979L124.256 153.602C126.243 146.188 121.841 138.57 114.426 136.588L110.811 150.113ZM101.953 147.745L110.811 150.113L114.426 136.588L105.568 134.22L101.953 147.745ZM102.076 147.674C102.077 147.672 102.076 147.677 102.071 147.687C102.066 147.696 102.061 147.704 102.055 147.712C102.044 147.727 102.034 147.733 102.03 147.736C102.025 147.738 102.015 147.743 101.996 147.746C101.987 147.747 101.976 147.748 101.967 147.747C101.956 147.746 101.951 147.745 101.953 147.745L105.568 134.22C98.156 132.239 90.5391 136.64 88.5533 144.051L102.076 147.674ZM101.999 147.54C101.997 147.54 102.002 147.541 102.012 147.546C102.021 147.55 102.03 147.556 102.038 147.563C102.054 147.575 102.062 147.585 102.065 147.591C102.069 147.597 102.074 147.609 102.077 147.629C102.078 147.639 102.079 147.65 102.078 147.66C102.077 147.671 102.076 147.676 102.076 147.674L88.5533 144.051C86.5667 151.465 90.9685 159.083 98.3839 161.065L101.999 147.54ZM110.857 149.908L101.999 147.54L98.3839 161.065L107.241 163.433L110.857 149.908ZM110.733 149.979C110.733 149.981 110.734 149.976 110.739 149.966C110.743 149.958 110.749 149.949 110.755 149.941C110.766 149.926 110.775 149.92 110.78 149.917C110.785 149.915 110.795 149.91 110.813 149.907C110.823 149.906 110.833 149.906 110.843 149.906C110.853 149.907 110.858 149.908 110.857 149.908L107.241 163.433C114.654 165.414 122.27 161.013 124.256 153.602L110.733 149.979ZM56.684 256.764C56.6938 256.765 56.6984 256.767 56.6994 256.767C56.7007 256.767 56.7016 256.768 56.7027 256.768C56.7054 256.77 56.7122 256.774 56.7199 256.783C56.7276 256.792 56.7312 256.799 56.7323 256.802C56.7327 256.803 56.733 256.804 56.7333 256.805C56.7335 256.806 56.7343 256.811 56.7343 256.821H70.7343C70.7343 249.693 65.4002 243.694 58.3218 242.86L56.684 256.764ZM33.3145 254.011L56.684 256.764L58.3218 242.86L34.9523 240.108L33.3145 254.011ZM31.7082 255.44C31.7082 254.579 32.4595 253.911 33.3145 254.011L34.9523 240.108C25.7737 239.026 17.7082 246.198 17.7082 255.44H31.7082ZM33.1462 256.878C32.352 256.878 31.7082 256.234 31.7082 255.44H17.7082C17.7082 263.966 24.62 270.878 33.1462 270.878V256.878ZM56.6774 256.878H33.1462V270.878H56.6774V256.878ZM56.7343 256.821C56.7343 256.834 56.7331 256.839 56.733 256.84C56.7329 256.84 56.7329 256.84 56.7327 256.841C56.732 256.842 56.7279 256.851 56.7176 256.861C56.7074 256.871 56.6991 256.875 56.6974 256.876C56.697 256.876 56.6969 256.876 56.6963 256.876C56.696 256.876 56.6905 256.878 56.6774 256.878V270.878C64.4408 270.878 70.7343 264.584 70.7343 256.821H56.7343ZM113.804 248.322C112.452 241.323 106.076 236.445 98.9666 236.972L100.002 250.934C100.012 250.933 100.016 250.933 100.017 250.933C100.018 250.934 100.019 250.934 100.02 250.934C100.022 250.935 100.029 250.937 100.038 250.944C100.047 250.951 100.051 250.957 100.053 250.959C100.053 250.96 100.053 250.961 100.054 250.962C100.054 250.963 100.056 250.967 100.058 250.977L113.804 248.322ZM102.672 264.791C110.292 263.316 115.276 255.943 113.804 248.322L100.058 250.977C100.06 250.99 100.06 250.995 100.06 250.996C100.06 250.996 100.06 250.997 100.06 250.997C100.06 250.999 100.057 251.009 100.048 251.021C100.04 251.034 100.032 251.04 100.03 251.041C100.03 251.041 100.03 251.042 100.029 251.042C100.029 251.042 100.023 251.044 100.01 251.047L102.672 264.791ZM79.5675 269.265L102.672 264.791L100.01 251.047L76.9061 255.521L79.5675 269.265ZM61.4798 257.04C63.097 265.412 71.1957 270.886 79.5675 269.265L76.9061 255.521C76.1277 255.671 75.376 255.163 75.2257 254.385L61.4798 257.04ZM75.4987 238.712C66.2834 239.395 59.7274 247.968 61.4798 257.04L75.2257 254.385C75.0621 253.538 75.6751 252.737 76.534 252.674L75.4987 238.712ZM98.9666 236.972L75.4987 238.712L76.534 252.674L100.002 250.934L98.9666 236.972Z" fill="black" mask="url(#path-27-outside-1)"/>
<path d="M238.726 134.651C237.898 129.895 241.097 125.183 245.861 124.141L259.898 121.071C265.006 119.955 269.74 123.504 270.069 128.695L275.28 210.911C275.586 215.741 271.935 220.091 267.125 220.628L261.76 221.226C257.316 221.722 253.372 218.778 252.609 214.395L238.726 134.651Z" fill="#C08CF4"/>
<path d="M241.462 140.007C242.003 135.289 238.664 130.822 233.95 129.956L219.831 127.364C214.604 126.404 209.947 130.244 209.917 135.537L209.464 217.81C209.438 222.58 213.215 226.678 217.966 227.036L223.362 227.441C227.895 227.782 231.77 224.592 232.285 220.094L241.462 140.007Z" fill="#C08CF4"/>
<path d="M239.664 235.702C243.051 236.101 245.604 238.971 245.604 242.381C245.604 246.096 242.592 249.107 238.878 249.107L216.405 249.107C211.963 249.107 208.362 245.506 208.362 241.064C208.362 236.25 212.563 232.514 217.345 233.076L239.664 235.702Z" fill="white"/>
<path d="M286.089 228.397C289.474 228.811 292.013 231.694 291.997 235.104C291.98 238.818 288.956 241.815 285.241 241.798L262.768 241.695C258.326 241.675 254.742 238.057 254.763 233.616C254.785 228.801 259.003 225.085 263.782 225.669L286.089 228.397Z" fill="white"/>
<rect x="221.455" y="125.279" width="37.8105" height="37.7618" rx="8.76265" transform="rotate(-3.19494 221.455 125.279)" fill="#C08CF4"/>
<path fill-rule="evenodd" clip-rule="evenodd" d="M252.431 77.5716C252.343 75.6279 253.426 73.8501 255.102 72.8605C260.493 69.6755 273.559 79.755 275.348 85.7563C276.077 88.2024 277.114 90.603 278.473 92.9043C281.852 98.623 286.727 102.897 292.277 105.505C296.344 107.416 298.819 112.4 296.611 116.314C295.621 118.069 293.859 119.3 291.844 119.318C279.702 119.429 266.659 111.687 258.811 98.4024C254.828 91.6607 252.742 84.4359 252.431 77.5716Z" fill="#304967"/>
<path d="M215.721 77.4843C216.842 71.2171 222.293 66.6543 228.66 66.6543H252.28C258.621 66.6543 264.058 71.181 265.207 77.4168L273.247 121.057C274.042 125.373 272.585 129.812 268.725 131.9C263.062 134.964 253.094 138.699 238.154 138.699C222.353 138.699 214.023 134.521 209.992 131.378C207.562 129.483 206.991 126.303 207.533 123.27L215.721 77.4843Z" fill="white"/>
<path d="M215.927 74.1019L207.49 123.317C206.975 126.321 207.55 129.465 209.95 131.345C212.718 133.514 217.538 136.187 225.46 137.639C232.446 138.919 238.327 133.056 238.544 125.957L240.058 76.5277C240.267 69.6717 234.767 64 227.908 64C221.987 64 216.927 68.2661 215.927 74.1019Z" fill="#304967"/>
<rect x="322.361" y="108.615" width="13.144" height="21.9066" rx="6.57199" transform="rotate(90.8679 322.361 108.615)" fill="#C17A38"/>
<rect x="251.113" y="143.346" width="13.144" height="21.9066" rx="6.57199" transform="rotate(127.655 251.113 143.346)" fill="#C17A38"/>
<path fill-rule="evenodd" clip-rule="evenodd" d="M222.038 68.7812C223.305 67.7692 225.029 67.6031 226.525 68.2276C231.669 70.3746 232.301 93.3934 229.838 98.3936C229.578 98.9217 229.332 99.461 229.103 100.011C225.913 107.653 226.338 115.935 229.599 123.079C230.865 125.852 230.836 129.158 228.968 131.567L228.705 131.906C227.176 133.878 224.605 134.843 222.302 133.882C206.671 127.358 200.611 106.229 208.766 86.6902C211.859 79.2811 216.551 73.1645 222.038 68.7812Z" fill="#304967"/>
<path d="M232.06 53.787C232.314 48.4364 237.268 44.5645 242.521 45.6092L246.521 46.4045C250.621 47.2199 253.574 50.8183 253.574 54.9989V62.4647C253.574 67.3042 249.651 71.2273 244.812 71.2273H240.419C235.416 71.2273 231.429 67.0455 231.666 62.0481L232.06 53.787Z" fill="#C17A38"/>
<rect x="242.071" y="22.1562" width="21.9066" height="31.9837" rx="10.9533" fill="#7F00FF"/>
<path fill-rule="evenodd" clip-rule="evenodd" d="M220.979 41.689C218.835 30.8848 225.141 20.4203 235.257 18.1658C238.775 17.3815 242.298 17.6924 245.509 18.8815C247.653 29.6857 241.347 40.1503 231.231 42.4048C227.713 43.189 224.19 42.8781 220.979 41.689Z" fill="#7F00FF"/>
<path d="M265.927 39.2637C265.927 56.5002 262.288 63 251.262 63C240.237 63 222.98 55.209 222.98 42.956C222.98 30.7031 237.094 15 248.12 15C259.145 15 265.927 23.5002 265.927 39.2637Z" fill="#C17A38"/>
<path fill-rule="evenodd" clip-rule="evenodd" d="M263.978 18.4691C262.585 24.9282 257.787 30.6922 250.816 33.2887C243.082 36.1698 234.819 34.3517 229.51 29.288C230.577 26.6723 232.138 24.167 234.191 21.9221C242.453 12.8868 255.63 11.4183 263.978 18.4691Z" fill="#7F00FF"/>
<path fill-rule="evenodd" clip-rule="evenodd" d="M232.566 58.2118C231.341 50.3185 234.48 41.0504 241.583 33.9479C248.181 27.3496 256.648 24.1717 264.146 24.7359C262.981 22.5257 261.466 20.4463 259.601 18.5814C249.847 8.82724 234.225 8.63414 224.709 18.1501C215.193 27.6661 215.386 43.2876 225.141 53.0418C227.359 55.2603 229.881 56.9843 232.566 58.2118Z" fill="#7F00FF"/>
<path fill-rule="evenodd" clip-rule="evenodd" d="M238.022 47.6569C237.338 50.2073 234.08 50.9571 232.191 49.1116C230.208 47.1734 229.287 44.3624 230.02 41.6286C230.703 39.0781 233.962 38.3283 235.85 40.1738C237.833 42.112 238.754 44.9231 238.022 47.6569Z" fill="#C17A38"/>
<path d="M269.421 44.1461L265.54 38.8582C264.397 37.3001 261.928 38.1089 261.928 40.0415V46.94C261.928 48.366 263.377 49.3338 264.694 48.7872L268.575 47.1765C269.773 46.6794 270.188 45.1915 269.421 44.1461Z" fill="#C17A38"/>
<rect width="5" height="7.5" rx="2.5" transform="matrix(-1 0 0 1 254.925 35.3066)" fill="black"/>
<rect width="3.26823" height="8.64696" rx="1.63411" transform="matrix(-0.5 -0.866025 -0.859129 0.511759 253.989 29.8301)" fill="black"/>
<path d="M255.429 53.3062C257.171 55.9317 261.429 55.8061 263.708 55.9317L264.208 55.4316C260.429 56.3062 255.429 53.3062 255.429 53.3062Z" stroke="black" stroke-width="3.3" stroke-linecap="round" stroke-linejoin="round"/>
<mask id="path-51-outside-2" maskUnits="userSpaceOnUse" x="197.263" y="4.13672" width="132" height="252" fill="black">
<rect fill="white" x="197.263" y="4.13672" width="132" height="252"/>
<path fill-rule="evenodd" clip-rule="evenodd" d="M231.865 57.8769L231.666 62.0467C231.587 63.7149 231.978 65.2921 232.721 66.6533H228.661C223.83 66.6533 219.527 69.2798 217.242 73.2843C213.826 77.0326 210.911 81.5499 208.766 86.689C203.964 98.1941 204.091 110.25 208.198 119.552L207.534 123.269C206.991 126.302 207.562 129.482 209.992 131.377C210.223 131.557 210.468 131.74 210.728 131.926C210.216 133.007 209.925 134.227 209.918 135.536L209.464 217.81C209.438 222.58 213.215 226.678 217.967 227.035L223.363 227.441C227.896 227.782 231.771 224.591 232.286 220.094L238.929 162.124L243.465 161.87L252.609 214.395C253.372 218.778 257.316 221.722 261.76 221.226L267.125 220.627C271.935 220.091 275.586 215.741 275.28 210.911L270.208 130.889C272.95 128.568 273.931 124.767 273.247 121.056L271.676 112.528C277.968 116.982 285.047 119.381 291.844 119.318C293.859 119.3 295.62 118.069 296.61 116.314C298.818 112.4 296.344 107.416 292.277 105.505C286.727 102.897 281.851 98.623 278.473 92.9043C277.114 90.603 276.076 88.2024 275.347 85.7563C274.291 82.2115 269.3 77.2437 264.28 74.4272C262.234 69.8519 257.688 66.7438 252.508 66.6553C253.123 65.5284 253.498 64.2517 253.564 62.8938C260.777 62.1898 264.264 57.9188 265.446 48.4744L268.575 47.1756C269.773 46.6784 270.188 45.1906 269.421 44.1451L265.928 39.3852L265.928 39.2633C265.928 33.3652 264.978 28.4839 263.213 24.6842C263.525 24.6948 263.837 24.7117 264.147 24.735C263.714 23.9142 263.233 23.1115 262.704 22.331C263.265 21.0869 263.694 19.7923 263.979 18.4685C260.996 15.949 257.396 14.5174 253.625 14.13C244.246 9.09064 232.455 10.4038 224.71 18.1493C215.194 27.6652 215.387 43.2868 225.141 53.0409C227.165 55.0651 229.442 56.6776 231.865 57.8769ZM322.262 115.187C322.317 111.557 319.419 108.571 315.79 108.516L307.029 108.383C303.399 108.328 300.413 111.226 300.358 114.855C300.303 118.484 303.2 121.471 306.83 121.526L315.591 121.658C319.22 121.713 322.207 118.816 322.262 115.187ZM245.604 242.382C245.604 238.971 243.051 236.101 239.664 235.702L217.345 233.077C212.564 232.514 208.362 236.25 208.362 241.064C208.362 245.506 211.963 249.107 216.405 249.107H238.878C242.593 249.107 245.604 246.096 245.604 242.382ZM286.089 228.398C289.474 228.812 292.013 231.694 291.998 235.104C291.98 238.818 288.956 241.816 285.241 241.799L262.768 241.696C258.327 241.675 254.742 238.058 254.763 233.616C254.785 228.802 259.003 225.085 263.782 225.67L286.089 228.398Z"/>
</mask>
<path d="M231.666 62.0467L224.674 61.7139V61.7139L231.666 62.0467ZM231.865 57.8769L234.971 51.6037C237.463 52.8379 238.989 55.4311 238.857 58.2097L231.865 57.8769ZM232.721 66.6533L238.866 63.3C240.049 65.4689 240.002 68.1011 238.741 70.2259C237.48 72.3507 235.192 73.6533 232.721 73.6533V66.6533ZM217.242 73.2843L223.322 76.7536C223.066 77.2008 222.763 77.6185 222.416 77.9991L217.242 73.2843ZM208.766 86.689L202.307 83.9927L202.307 83.9927L208.766 86.689ZM208.198 119.552L214.602 116.724C215.165 117.999 215.334 119.412 215.089 120.784L208.198 119.552ZM207.534 123.269L200.643 122.037V122.037L207.534 123.269ZM209.992 131.377L205.688 136.897L205.688 136.897L209.992 131.377ZM210.728 131.926L214.801 126.233C217.555 128.204 218.504 131.864 217.053 134.924L210.728 131.926ZM209.918 135.536L202.918 135.498V135.498L209.918 135.536ZM209.464 217.81L202.465 217.771V217.771L209.464 217.81ZM217.967 227.035L218.492 220.055H218.492L217.967 227.035ZM223.363 227.441L222.838 234.421L223.363 227.441ZM232.286 220.094L239.241 220.891L232.286 220.094ZM238.929 162.124L231.974 161.327C232.362 157.939 235.134 155.324 238.539 155.134L238.929 162.124ZM243.465 161.87L243.075 154.881C246.62 154.683 249.752 157.171 250.361 160.67L243.465 161.87ZM252.609 214.395L245.713 215.595H245.713L252.609 214.395ZM261.76 221.226L262.536 228.183L262.536 228.183L261.76 221.226ZM267.125 220.627L266.349 213.671L266.349 213.671L267.125 220.627ZM275.28 210.911L282.266 210.468L275.28 210.911ZM270.208 130.889L263.222 131.331C263.082 129.121 263.996 126.976 265.686 125.545L270.208 130.889ZM273.247 121.056L266.363 122.324V122.324L273.247 121.056ZM271.676 112.528L264.792 113.796C264.276 110.996 265.508 108.162 267.908 106.629C270.307 105.096 273.396 105.17 275.72 106.815L271.676 112.528ZM291.844 119.318L291.78 112.319H291.78L291.844 119.318ZM296.61 116.314L302.707 119.753L302.707 119.753L296.61 116.314ZM292.277 105.505L289.3 111.84L289.3 111.84L292.277 105.505ZM278.473 92.9043L272.446 96.4646L278.473 92.9043ZM275.347 85.7563L282.056 83.7574L282.056 83.7574L275.347 85.7563ZM264.28 74.4272L260.855 80.5321C259.543 79.7963 258.503 78.6577 257.889 77.2849L264.28 74.4272ZM252.508 66.6553L252.389 73.6542C249.939 73.6124 247.69 72.2933 246.458 70.1762C245.226 68.059 245.19 65.4518 246.364 63.3017L252.508 66.6553ZM253.564 62.8938L246.572 62.5555C246.74 59.086 249.427 56.2643 252.884 55.9269L253.564 62.8938ZM265.446 48.4744L258.5 47.605C258.812 45.1095 260.439 42.9733 262.762 42.0092L265.446 48.4744ZM268.575 47.1756L265.891 40.7104L265.891 40.7104L268.575 47.1756ZM269.421 44.1451L275.064 40.0037L275.064 40.0037L269.421 44.1451ZM265.928 39.3852L260.284 43.5266C259.402 42.3247 258.927 40.8726 258.928 39.3817L265.928 39.3852ZM265.928 39.2633H272.928V39.2668L265.928 39.2633ZM263.213 24.6842L256.865 27.6345C255.839 25.4286 256.033 22.8487 257.376 20.8204C258.718 18.7921 261.017 17.6062 263.449 17.6882L263.213 24.6842ZM264.147 24.735L270.339 21.4712C271.527 23.7241 271.397 26.4441 270 28.5737C268.604 30.7032 266.161 31.9064 263.621 31.7153L264.147 24.735ZM262.704 22.331L256.91 26.2598C255.545 24.2471 255.323 21.6702 256.323 19.4534L262.704 22.331ZM263.979 18.4685L268.496 13.1205C270.473 14.7905 271.368 17.4151 270.822 19.945L263.979 18.4685ZM253.625 14.13L252.91 21.0933C252 20.9999 251.117 20.7291 250.312 20.2963L253.625 14.13ZM224.71 18.1493L229.66 23.099L229.66 23.099L224.71 18.1493ZM315.79 108.516L315.684 115.515H315.684L315.79 108.516ZM322.262 115.187L329.261 115.293L322.262 115.187ZM307.029 108.383L307.135 101.384H307.135L307.029 108.383ZM306.83 121.526L306.936 114.526H306.936L306.83 121.526ZM315.591 121.658L315.485 128.657H315.485L315.591 121.658ZM239.664 235.702L240.482 228.75H240.482L239.664 235.702ZM217.345 233.077L216.527 240.029H216.527L217.345 233.077ZM238.878 249.107L238.878 256.107H238.878V249.107ZM291.998 235.104L284.998 235.072L291.998 235.104ZM286.089 228.398L285.239 235.346H285.239L286.089 228.398ZM285.241 241.799L285.274 234.799L285.241 241.799ZM262.768 241.696L262.736 248.695H262.736L262.768 241.696ZM254.763 233.616L261.763 233.648L254.763 233.616ZM263.782 225.67L264.632 218.721H264.632L263.782 225.67ZM224.674 61.7139L224.873 57.5441L238.857 58.2097L238.658 62.3795L224.674 61.7139ZM226.577 70.0066C225.236 67.5499 224.532 64.7013 224.674 61.7139L238.658 62.3795C238.642 62.7284 238.721 63.0344 238.866 63.3L226.577 70.0066ZM228.661 59.6533H232.721V73.6533H228.661V59.6533ZM211.162 69.8149C214.661 63.6841 221.252 59.6533 228.661 59.6533V73.6533C226.409 73.6533 224.393 74.8754 223.322 76.7536L211.162 69.8149ZM202.307 83.9927C204.757 78.1212 208.104 72.9192 212.068 68.5695L222.416 77.9991C219.548 81.146 217.066 84.9786 215.226 89.3853L202.307 83.9927ZM201.795 122.379C196.832 111.141 196.845 97.0768 202.307 83.9927L215.226 89.3853C211.083 99.3115 211.35 109.36 214.602 116.724L201.795 122.379ZM200.643 122.037L201.308 118.319L215.089 120.784L214.424 124.501L200.643 122.037ZM205.688 136.897C200.398 132.773 199.859 126.421 200.643 122.037L214.424 124.501C214.295 125.227 214.35 125.715 214.409 125.935C214.434 126.03 214.45 126.039 214.424 125.998C214.393 125.949 214.345 125.894 214.296 125.856L205.688 136.897ZM206.655 137.619C206.316 137.377 205.995 137.136 205.688 136.897L214.296 125.856C214.452 125.978 214.62 126.104 214.801 126.233L206.655 137.619ZM202.918 135.498C202.931 133.166 203.451 130.935 204.402 128.928L217.053 134.924C216.98 135.079 216.919 135.289 216.918 135.575L202.918 135.498ZM202.465 217.771L202.918 135.498L216.918 135.575L216.464 217.848L202.465 217.771ZM217.442 234.016C209.017 233.382 202.418 226.212 202.465 217.771L216.464 217.848C216.458 218.948 217.413 219.974 218.492 220.055L217.442 234.016ZM222.838 234.421L217.442 234.016L218.492 220.055L223.888 220.461L222.838 234.421ZM239.241 220.891C238.294 229.149 231.094 235.042 222.838 234.421L223.888 220.461C224.339 220.495 224.662 220.359 224.882 220.178C225.1 219.998 225.283 219.719 225.332 219.297L239.241 220.891ZM245.883 162.921L239.241 220.891L225.332 219.297L231.974 161.327L245.883 162.921ZM243.855 168.86L239.319 169.113L238.539 155.134L243.075 154.881L243.855 168.86ZM245.713 215.595L236.569 163.071L250.361 160.67L259.505 213.194L245.713 215.595ZM262.536 228.183C254.446 229.085 247.115 223.654 245.713 215.595L259.505 213.194C259.576 213.6 259.768 213.863 259.991 214.03C260.216 214.198 260.542 214.319 260.984 214.269L262.536 228.183ZM267.901 227.584L262.536 228.183L260.984 214.269L266.349 213.671L267.901 227.584ZM282.266 210.468C282.808 219.026 276.424 226.634 267.901 227.584L266.349 213.671C267.446 213.548 268.364 212.455 268.294 211.354L282.266 210.468ZM277.194 130.446L282.266 210.468L268.294 211.354L263.222 131.331L277.194 130.446ZM280.131 119.788C281.154 125.339 279.83 131.916 274.731 136.232L265.686 125.545C266.071 125.22 266.708 124.195 266.363 122.324L280.131 119.788ZM278.56 111.26L280.131 119.788L266.363 122.324L264.792 113.796L278.56 111.26ZM291.908 126.318C283.433 126.396 274.943 123.417 267.632 118.242L275.72 106.815C280.993 110.547 286.661 112.365 291.78 112.319L291.908 126.318ZM302.707 119.753C300.72 123.277 296.865 126.273 291.908 126.318L291.78 112.319C291.349 112.323 291.007 112.462 290.802 112.595C290.613 112.717 290.539 112.83 290.514 112.875L302.707 119.753ZM295.254 99.1691C298.848 100.858 301.703 103.858 303.225 107.387C304.774 110.982 305.078 115.552 302.707 119.753L290.514 112.875C290.461 112.967 290.438 113.079 290.437 113.143C290.437 113.183 290.446 113.109 290.368 112.929C290.291 112.749 290.151 112.526 289.943 112.311C289.737 112.097 289.51 111.939 289.3 111.84L295.254 99.1691ZM284.5 89.3439C287.146 93.8226 290.944 97.1442 295.254 99.1691L289.3 111.84C282.509 108.649 276.557 103.423 272.446 96.4646L284.5 89.3439ZM282.056 83.7574C282.623 85.661 283.433 87.5369 284.5 89.3439L272.446 96.4646C270.795 93.6692 269.529 90.7439 268.639 87.7553L282.056 83.7574ZM267.705 68.3224C270.825 70.0728 273.847 72.4302 276.286 74.9054C278.562 77.215 281.036 80.3355 282.056 83.7574L268.639 87.7553C268.655 87.8096 268.562 87.5079 268.115 86.8592C267.696 86.2511 267.092 85.5218 266.314 84.7319C264.738 83.1329 262.755 81.5982 260.855 80.5321L267.705 68.3224ZM252.628 59.6563C260.573 59.792 267.535 64.5586 270.67 71.5696L257.889 77.2849C256.933 75.1452 254.803 73.6955 252.389 73.6542L252.628 59.6563ZM260.556 63.232C260.438 65.6711 259.762 67.976 258.653 70.0089L246.364 63.3017C246.484 63.0809 246.558 62.8323 246.572 62.5555L260.556 63.232ZM272.392 49.3437C271.733 54.6093 270.32 59.5805 267.173 63.4077C263.795 67.5155 259.212 69.3758 254.244 69.8607L252.884 55.9269C255.129 55.7078 255.895 55.0805 256.36 54.5157C257.055 53.6704 257.977 51.7838 258.5 47.605L272.392 49.3437ZM271.259 53.6408L268.129 54.9396L262.762 42.0092L265.891 40.7104L271.259 53.6408ZM275.064 40.0037C278.517 44.7082 276.648 51.4037 271.259 53.6408L265.891 40.7104C262.897 41.9532 261.859 45.6729 263.777 48.2865L275.064 40.0037ZM271.571 35.2439L275.064 40.0037L263.777 48.2865L260.284 43.5266L271.571 35.2439ZM272.928 39.2668L272.928 39.3887L258.928 39.3817L258.928 39.2598L272.928 39.2668ZM269.56 21.734C271.873 26.7106 272.928 32.6673 272.928 39.2633H258.928C258.928 34.063 258.083 30.2572 256.865 27.6345L269.56 21.734ZM263.621 31.7153C263.409 31.6993 263.194 31.6876 262.976 31.6803L263.449 17.6882C263.857 17.702 264.265 17.7241 264.672 17.7548L263.621 31.7153ZM268.497 18.4022C269.172 19.3978 269.787 20.4226 270.339 21.4712L257.954 27.9988C257.642 27.4058 257.294 26.8251 256.91 26.2598L268.497 18.4022ZM270.822 19.945C270.43 21.7603 269.845 23.524 269.085 25.2086L256.323 19.4534C256.685 18.6498 256.957 17.8243 257.137 16.9919L270.822 19.945ZM254.34 7.16661C259.416 7.688 264.365 9.63214 268.496 13.1205L259.463 23.8164C257.627 22.2659 255.377 21.3467 252.91 21.0933L254.34 7.16661ZM219.76 13.1995C229.819 3.14034 245.003 1.55092 256.938 7.96368L250.312 20.2963C243.489 16.6304 235.091 17.6673 229.66 23.099L219.76 13.1995ZM220.191 57.9907C207.82 45.6189 207.396 25.5638 219.76 13.1995L229.66 23.099C222.992 29.7667 222.954 40.9546 230.091 48.0912L220.191 57.9907ZM228.759 64.1502C225.661 62.6165 222.76 60.5592 220.191 57.9907L230.091 48.0912C231.571 49.571 233.223 50.7386 234.971 51.6037L228.759 64.1502ZM315.896 101.517C323.391 101.63 329.375 107.798 329.261 115.293L315.263 115.081C315.259 115.317 315.448 115.511 315.684 115.515L315.896 101.517ZM307.135 101.384L315.896 101.517L315.684 115.515L306.923 115.382L307.135 101.384ZM293.359 114.749C293.472 107.254 299.64 101.27 307.135 101.384L306.923 115.382C307.159 115.386 307.353 115.197 307.357 114.961L293.359 114.749ZM306.723 128.525C299.229 128.411 293.245 122.243 293.359 114.749L307.357 114.961C307.361 114.724 307.172 114.53 306.936 114.526L306.723 128.525ZM315.485 128.657L306.723 128.525L306.936 114.526L315.697 114.659L315.485 128.657ZM329.261 115.293C329.148 122.787 322.98 128.771 315.485 128.657L315.697 114.659C315.461 114.656 315.266 114.844 315.263 115.081L329.261 115.293ZM240.482 228.75C247.394 229.564 252.604 235.422 252.604 242.382H238.604C238.604 242.521 238.708 242.638 238.846 242.654L240.482 228.75ZM218.163 226.125L240.482 228.75L238.846 242.654L216.527 240.029L218.163 226.125ZM201.362 241.064C201.362 232.06 209.22 225.072 218.163 226.125L216.527 240.029C215.907 239.956 215.362 240.44 215.362 241.064H201.362ZM216.405 256.107C208.097 256.107 201.362 249.372 201.362 241.064H215.362C215.362 241.64 215.829 242.107 216.405 242.107V256.107ZM238.878 256.107H216.405V242.107H238.878V256.107ZM252.604 242.382C252.604 249.962 246.459 256.107 238.878 256.107L238.878 242.107C238.727 242.107 238.604 242.23 238.604 242.382H252.604ZM284.998 235.072C284.997 235.211 285.101 235.329 285.239 235.346L286.938 221.45C293.847 222.294 299.029 228.176 298.997 235.136L284.998 235.072ZM285.274 234.799C285.122 234.798 284.998 234.92 284.998 235.072L298.997 235.136C298.963 242.717 292.789 248.833 285.209 248.799L285.274 234.799ZM262.801 234.696L285.274 234.799L285.209 248.799L262.736 248.695L262.801 234.696ZM261.763 233.648C261.76 234.224 262.225 234.693 262.801 234.696L262.736 248.695C254.429 248.657 247.725 241.892 247.763 233.584L261.763 233.648ZM262.932 232.618C262.312 232.542 261.765 233.024 261.763 233.648L247.763 233.584C247.804 224.579 255.694 217.628 264.632 218.721L262.932 232.618ZM285.239 235.346L262.932 232.618L264.632 218.721L286.938 221.45L285.239 235.346Z" fill="black" mask="url(#path-51-outside-2)"/>
<rect x="154" y="42.6562" width="47" height="109" rx="17.5253" fill="black"/>
<path d="M151.049 153.898C150.829 149.035 154.616 144.925 159.481 144.746L174.704 144.186C179.924 143.994 184.151 148.384 183.764 153.593L177.605 236.347C177.275 240.791 173.662 244.279 169.209 244.453L163.865 244.662C159.05 244.85 154.987 241.115 154.769 236.301L151.049 153.898Z" fill="#3A71B3"/>
<path d="M172.68 151.493C171.305 146.301 174.88 140.88 180.199 140.091L193.452 138.125C198.002 137.45 202.129 140.463 202.888 145.014L217.111 230.245C217.907 235.019 214.719 239.72 209.989 240.746L204.859 241.859C200.439 242.818 196.178 240.223 195.025 235.87L172.68 151.493Z" fill="#3A71B3"/>
<rect width="29.4622" height="32.0019" rx="8.76265" transform="matrix(0.982336 -0.187128 0.186679 0.982421 161.541 157.996)" fill="#3A71B3"/>
<rect width="13.1429" height="21.8812" rx="6.57144" transform="matrix(-0.258819 0.965926 -0.966087 -0.258218 246.541 151.307)" fill="#F4C498"/>
<path fill-rule="evenodd" clip-rule="evenodd" d="M193.611 104.706C194.053 102.787 195.594 101.348 197.495 100.839C202.646 99.4584 207.732 105.904 207.185 111.211C206.798 114.954 207.075 118.838 208.105 122.701C209.879 129.356 213.622 134.945 218.518 138.985C222.197 142.021 223.445 147.894 220.068 151.269C218.203 153.133 215.376 153.754 213.091 152.444C204.453 147.493 197.281 138.193 194.148 126.441C192.135 118.894 192.07 111.39 193.611 104.706Z" fill="#F4C498"/>
<path fill-rule="evenodd" clip-rule="evenodd" d="M194.537 103.514C195.091 101.711 196.656 100.437 198.506 100.074C203.662 99.0639 208.303 106.125 207.409 111.305C206.839 114.607 206.847 118.05 207.521 121.51C207.714 122.503 207.3 123.531 206.432 124.05L199.89 127.964C197.376 129.469 194.111 128.239 193.551 125.363C192.048 117.646 192.51 110.108 194.537 103.514Z" fill="#DF3A1F"/>
<path d="M154.198 108.388C154.198 100.849 160.526 94.8549 168.054 95.2632L192.392 96.5832C199.273 96.9564 204.697 102.581 204.822 109.471L205.368 139.786C205.497 146.937 199.884 152.879 192.737 153.157L167.853 154.125C160.399 154.415 154.198 148.451 154.198 140.991V108.388Z" fill="#DF3A1F"/>
<rect width="13.1379" height="21.8895" rx="6.56894" transform="matrix(-0.610433 0.792068 -0.791333 -0.611386 183.74 170.203)" fill="#F4C498"/>
<path fill-rule="evenodd" clip-rule="evenodd" d="M157.369 98.8898C158.828 97.6993 160.833 97.5099 162.571 98.2363C167.417 100.262 167.363 108.722 163.75 112.532C161.442 114.965 159.539 117.838 158.182 121.097C154.438 130.081 155.688 139.953 160.669 147.819C162.734 151.082 163.103 155.37 160.739 158.421C158.537 161.264 154.565 162.284 151.782 160.005C140.893 151.089 137.477 133.231 144.433 116.538C147.46 109.273 152.025 103.251 157.369 98.8898Z" fill="#F4C498"/>
<path fill-rule="evenodd" clip-rule="evenodd" d="M157.368 98.8898C158.827 97.6993 160.832 97.5099 162.57 98.2363C167.416 100.262 167.362 108.722 163.749 112.532C161.441 114.965 159.538 117.838 158.181 121.097C157.783 122.05 156.851 122.689 155.82 122.637L148.287 122.26C145.345 122.113 143.298 119.258 144.432 116.538C147.459 109.273 152.024 103.251 157.368 98.8898Z" fill="#DF3A1F"/>
<rect x="157.196" y="52.4512" width="44.1963" height="39.4319" rx="17.5253" fill="black"/>
<rect x="179.513" y="51.1367" width="21.8794" height="31.9837" rx="10.9397" fill="black"/>
<path d="M200.608 66.92C200.608 84.1565 196.969 90.6563 185.943 90.6563C174.917 90.6563 157.661 82.8652 157.661 70.6123C157.661 58.3594 171.775 42.6562 182.801 42.6562C193.826 42.6562 200.608 51.1565 200.608 66.92Z" fill="#F4C498"/>
<path d="M169.639 84.4345C169.639 79.595 173.562 75.6719 178.401 75.6719H179.255C184.094 75.6719 188.017 79.595 188.017 84.4345V91.8828C188.017 96.7223 184.094 100.645 179.255 100.645H178.401C173.562 100.645 169.639 96.7222 169.639 91.8828V84.4345Z" fill="#F4C498"/>
<path fill-rule="evenodd" clip-rule="evenodd" d="M158.442 70.6685C156.306 59.8682 162.607 49.4067 172.711 47.1504C176.226 46.3655 179.745 46.6755 182.952 47.8637C185.088 58.664 178.786 69.1255 168.683 71.3818C165.168 72.1667 161.649 71.8567 158.442 70.6685Z" fill="black"/>
<path fill-rule="evenodd" clip-rule="evenodd" d="M194.392 46.9494C188.684 41.7526 180.825 39.4489 173.169 41.5042C162.872 44.2683 156.193 54.0432 156.309 64.8741C161.639 68.5292 169.069 69.8436 176.526 67.8417C187.299 64.9499 194.568 56.0936 194.392 46.9494Z" fill="black"/>
<path fill-rule="evenodd" clip-rule="evenodd" d="M169.692 88.979C164.539 79.5783 166.799 67.1238 175.715 59.2837C182.866 52.9962 192.403 51.3435 200.359 54.2009C199.61 52.8343 198.704 51.5322 197.639 50.3182C189.251 40.7535 174.171 40.2794 163.958 49.2593C153.744 58.2391 152.265 73.2725 160.654 82.8372C163.169 85.7049 166.286 87.7554 169.692 88.979Z" fill="black"/>
<path fill-rule="evenodd" clip-rule="evenodd" d="M174.719 76.6391C174.038 79.1869 170.784 79.9362 168.898 78.0924C166.914 76.1539 165.992 73.3417 166.723 70.6072C167.405 68.0595 170.658 67.3101 172.545 69.1539C174.528 71.0924 175.45 73.9047 174.719 76.6391Z" fill="#F4C498"/>
<path d="M203.603 74.8727L199.024 66.4365C198.034 64.6135 195.266 65.3164 195.266 67.3906V77.5667C195.266 78.9668 196.667 79.9335 197.976 79.4363L202.555 77.6964C203.687 77.2663 204.18 75.9369 203.603 74.8727Z" fill="#F4C498"/>
<rect width="5" height="7.5" rx="2.5" transform="matrix(-1 0 0 1 190.694 64.6562)" fill="black"/>
<rect width="3.26823" height="8.64696" rx="1.63411" transform="matrix(-4.37114e-08 -1 -0.999907 0.0136318 194.554 60.5527)" fill="black"/>
<path d="M189.194 81.6558C190.936 84.2813 194.194 85.1557 196.473 85.2813L196.974 84.7812C193.194 85.6558 189.194 81.6558 189.194 81.6558Z" stroke="black" stroke-width="3.3" stroke-linecap="round" stroke-linejoin="round"/>
<path d="M186.918 251.076C190.305 251.475 192.857 254.346 192.857 257.756C192.857 261.47 189.846 264.482 186.132 264.482L163.705 264.482C159.263 264.482 155.662 260.881 155.662 256.44C155.662 251.625 159.864 247.889 164.645 248.453L186.918 251.076Z" fill="#FFBA09"/>
<path d="M226.928 245.49C230.329 245.238 233.379 247.571 234.025 250.919C234.73 254.566 232.345 258.095 228.698 258.801L206.678 263.065C202.317 263.909 198.1 261.059 197.258 256.698C196.345 251.971 199.761 247.504 204.562 247.148L226.928 245.49Z" fill="#FFBA09"/>
<mask id="path-78-outside-3" maskUnits="userSpaceOnUse" x="133.816" y="32.7559" width="119" height="239" fill="black">
<rect fill="white" x="133.816" y="32.7559" width="119" height="239"/>
<path fill-rule="evenodd" clip-rule="evenodd" d="M168.758 43.2171C160.394 44.544 154 51.7879 154 60.525V73.4745C154 82.5161 160.848 89.9585 169.639 90.8994V91.8829C169.639 93.1295 169.9 94.3153 170.369 95.389L168.055 95.2635C164.805 95.0872 161.779 96.1041 159.389 97.9234C158.661 98.0804 157.969 98.4006 157.369 98.8901C152.025 103.252 147.46 109.273 144.432 116.538C144.425 116.557 144.417 116.575 144.41 116.594C137.586 133.026 140.807 150.576 151.307 159.607L154.77 236.299C154.987 241.113 159.051 244.848 163.866 244.66L169.21 244.451C173.662 244.278 177.275 240.79 177.606 236.346L181.292 186.81L181.998 186.675L195.025 235.869C196.178 240.222 200.439 242.817 204.86 241.858L209.99 240.745C214.719 239.719 217.908 235.018 217.111 230.244L203.251 147.183C203.64 146.585 203.981 145.955 204.27 145.296C206.926 148.206 209.909 150.621 213.092 152.445C215.376 153.754 218.203 153.133 220.068 151.27C223.446 147.894 222.198 142.021 218.519 138.985C213.623 134.946 209.879 129.356 208.105 122.701C207.413 120.104 207.061 117.498 207.022 114.931C207.073 113.708 207.203 112.497 207.409 111.305C208.177 106.859 204.866 101.027 200.652 100.102C198.47 98.0629 195.588 96.7568 192.392 96.5834L186.835 96.282C187.587 94.9892 188.018 93.4863 188.018 91.8829V90.5714C191.58 90.2636 194.25 89.1081 196.192 86.9176C196.256 86.9221 196.32 86.9261 196.383 86.9296C196.851 86.9554 197.308 86.7807 197.64 86.4492L198.14 85.9491C198.661 85.4286 198.774 84.626 198.417 83.982C198.361 83.8797 198.294 83.7854 198.22 83.6998C198.51 83.0515 198.772 82.3536 199.005 81.6043C199.509 80.6432 199.927 79.6295 200.247 78.5736L202.556 77.6964C203.688 77.2663 204.181 75.9369 203.603 74.8727L201.393 70.8002V62.0764C201.393 60.9746 201.23 59.9109 200.927 58.908C200.769 57.1839 200.362 55.5319 199.741 53.9887C199.948 54.0563 200.154 54.127 200.359 54.2006C199.717 53.0285 198.959 51.9039 198.085 50.8416C196.82 48.9375 195.193 47.2947 193.302 46.0119C187.707 41.4816 180.349 39.5757 173.169 41.5031C171.612 41.9211 170.138 42.4992 168.758 43.2171ZM198.417 83.982L197.97 84.2297C198.03 84.1097 198.088 83.9878 198.145 83.864L198.417 83.982ZM197.171 85.6325C196.966 85.9457 196.75 86.2429 196.523 86.5247C196.796 86.4977 197.07 86.4534 197.346 86.3895L197.276 86.0844L197.171 85.6325ZM244.841 157.654C245.78 154.149 243.699 150.547 240.193 149.61L231.751 147.354C228.245 146.416 224.641 148.499 223.702 152.004C222.762 155.51 224.843 159.112 228.349 160.049L236.791 162.305C240.298 163.242 243.901 161.16 244.841 157.654ZM186.919 251.075C190.305 251.474 192.858 254.344 192.858 257.755C192.858 261.469 189.846 264.48 186.132 264.48H163.705C159.263 264.48 155.663 260.88 155.663 256.438C155.663 251.624 159.864 247.888 164.646 248.451L186.919 251.075ZM234.026 250.918C233.38 247.57 230.33 245.237 226.929 245.489L204.563 247.148C199.762 247.504 196.346 251.97 197.259 256.697C198.101 261.058 202.318 263.908 206.679 263.064L228.699 258.8C232.346 258.094 234.731 254.565 234.026 250.918Z"/>
</mask>
<path d="M199.809 80.7708L199.537 80.6528L196.753 87.0752L197.025 87.1932L199.809 80.7708ZM168.758 43.2171L169.855 50.1306C170.599 50.0125 171.319 49.7751 171.988 49.4275L168.758 43.2171ZM169.639 90.8994H176.639C176.639 87.3218 173.942 84.3199 170.384 83.9392L169.639 90.8994ZM170.369 95.389L169.99 102.379C172.416 102.51 174.736 101.375 176.121 99.3787C177.505 97.3827 177.756 94.8115 176.783 92.5855L170.369 95.389ZM168.055 95.2635L168.434 88.2737L168.055 95.2635ZM159.389 97.9234L160.864 104.766C161.868 104.55 162.812 104.115 163.629 103.493L159.389 97.9234ZM157.369 98.8901L152.943 93.467L152.943 93.467L157.369 98.8901ZM144.432 116.538L137.971 113.845L137.971 113.845L144.432 116.538ZM144.41 116.594L150.874 119.278C150.886 119.251 150.897 119.223 150.908 119.195L144.41 116.594ZM151.307 159.607L158.3 159.292C158.213 157.364 157.335 155.558 155.872 154.3L151.307 159.607ZM154.77 236.299L161.763 235.984L154.77 236.299ZM163.866 244.66L163.593 237.666H163.592L163.866 244.66ZM169.21 244.451L169.483 251.446H169.483L169.21 244.451ZM177.606 236.346L170.625 235.826L177.606 236.346ZM181.292 186.81L179.983 179.933C176.872 180.526 174.547 183.133 174.312 186.29L181.292 186.81ZM181.998 186.675L188.764 184.883C187.824 181.332 184.297 179.111 180.688 179.799L181.998 186.675ZM195.025 235.869L201.792 234.077L195.025 235.869ZM204.86 241.858L203.376 235.017H203.376L204.86 241.858ZM209.99 240.745L211.474 247.586H211.474L209.99 240.745ZM217.111 230.244L224.016 229.092L217.111 230.244ZM203.251 147.183L197.384 143.365C196.428 144.834 196.058 146.607 196.347 148.335L203.251 147.183ZM204.27 145.296L209.44 140.577C207.843 138.828 205.47 138.004 203.132 138.389C200.795 138.774 198.811 140.315 197.859 142.485L204.27 145.296ZM213.092 152.445L209.61 158.518L209.61 158.518L213.092 152.445ZM220.068 151.27L225.016 156.221L220.068 151.27ZM218.519 138.985L214.064 144.385H214.064L218.519 138.985ZM208.105 122.701L201.341 124.505L208.105 122.701ZM207.022 114.931L200.028 114.64C200.023 114.772 200.021 114.904 200.023 115.037L207.022 114.931ZM207.409 111.305L200.511 110.114L207.409 111.305ZM200.652 100.102L195.873 105.217C196.792 106.075 197.925 106.671 199.153 106.94L200.652 100.102ZM192.392 96.5834L192.013 103.573H192.013L192.392 96.5834ZM186.835 96.282L180.784 92.7627C179.559 94.8695 179.518 97.4619 180.675 99.6067C181.833 101.751 184.023 103.14 186.456 103.272L186.835 96.282ZM188.018 90.5714L187.415 83.5973C183.796 83.91 181.018 86.9389 181.018 90.5714H188.018ZM196.192 86.9176L196.682 79.9347C194.513 79.7825 192.396 80.6469 190.954 82.2739L196.192 86.9176ZM196.383 86.9296L195.998 93.9189L195.998 93.9189L196.383 86.9296ZM197.64 86.4492L202.588 91.4008L202.588 91.4007L197.64 86.4492ZM198.14 85.9491L193.193 80.9976L193.193 80.9976L198.14 85.9491ZM198.417 83.982L204.539 80.5879L204.539 80.5878L198.417 83.982ZM198.22 83.6998L191.832 80.8368C190.717 83.3238 191.148 86.2316 192.934 88.2894L198.22 83.6998ZM199.005 81.6043L192.806 78.3525C192.609 78.7275 192.447 79.1196 192.321 79.524L199.005 81.6043ZM200.247 78.5736L197.761 72.03C195.734 72.8 194.179 74.4655 193.549 76.5399L200.247 78.5736ZM202.556 77.6964L200.07 71.1528L200.07 71.1528L202.556 77.6964ZM203.603 74.8727L209.755 71.5333V71.5333L203.603 74.8727ZM201.393 70.8002H194.393C194.393 71.9666 194.684 73.1145 195.241 74.1396L201.393 70.8002ZM200.927 58.908L193.956 59.5457C193.999 60.0159 194.089 60.4804 194.226 60.9323L200.927 58.908ZM199.741 53.9887L201.915 47.3348C199.329 46.4899 196.488 47.2199 194.629 49.2066C192.771 51.1933 192.231 54.0769 193.247 56.6009L199.741 53.9887ZM200.359 54.2006L197.993 60.7886C200.731 61.7719 203.791 60.9595 205.681 58.748C207.571 56.5365 207.896 53.3868 206.497 50.8359L200.359 54.2006ZM198.085 50.8416L192.253 54.7144C192.386 54.9135 192.528 55.1057 192.68 55.2903L198.085 50.8416ZM193.302 46.0119L188.897 51.4522C189.05 51.5764 189.209 51.6939 189.372 51.8046L193.302 46.0119ZM173.169 41.5031L171.354 34.7425H171.354L173.169 41.5031ZM197.97 84.2297L191.696 81.1262C190.338 83.8711 190.922 87.18 193.138 89.2941C195.353 91.4082 198.686 91.8367 201.364 90.3519L197.97 84.2297ZM198.145 83.864L200.93 77.4416C197.442 75.9295 193.385 77.4774 191.79 80.9286L198.145 83.864ZM196.523 86.5247L191.067 82.1394C189.301 84.3368 189.026 87.3791 190.368 89.858C191.71 92.337 194.409 93.7687 197.214 93.4905L196.523 86.5247ZM197.171 85.6325L203.991 84.0544C203.359 81.324 201.16 79.2337 198.401 78.7414C195.642 78.2491 192.855 79.4497 191.318 81.7931L197.171 85.6325ZM197.346 86.3895L198.924 93.2093C202.691 92.3378 205.037 88.578 204.166 84.8115L197.346 86.3895ZM197.276 86.0844L204.095 84.5064L204.095 84.5064L197.276 86.0844ZM240.193 149.61L242.001 142.847H242.001L240.193 149.61ZM244.841 157.654L251.602 159.466L251.602 159.466L244.841 157.654ZM231.751 147.354L233.559 140.591L233.559 140.591L231.751 147.354ZM223.702 152.004L230.463 153.816V153.816L223.702 152.004ZM228.349 160.049L230.157 153.286L230.157 153.286L228.349 160.049ZM236.791 162.305L234.984 169.068H234.984L236.791 162.305ZM186.919 251.075L187.738 244.123H187.738L186.919 251.075ZM155.663 256.438H148.663H155.663ZM164.646 248.451L163.827 255.403H163.827L164.646 248.451ZM226.929 245.489L227.447 252.47H227.447L226.929 245.489ZM234.026 250.918L240.899 249.591L234.026 250.918ZM204.563 247.148L205.08 254.129H205.08L204.563 247.148ZM197.259 256.697L204.132 255.369L204.132 255.369L197.259 256.697ZM206.679 263.064L208.01 269.936H208.01L206.679 263.064ZM228.699 258.8L230.03 265.673L228.699 258.8ZM161 60.525C161 55.2843 164.838 50.9266 169.855 50.1306L167.661 36.3035C155.951 38.1614 147 48.2914 147 60.525H161ZM161 73.4745V60.525H147V73.4745H161ZM170.384 83.9392C165.112 83.3749 161 78.9001 161 73.4745H147C147 86.1321 156.584 96.5421 168.894 97.8597L170.384 83.9392ZM176.639 91.8829V90.8994H162.639V91.8829H176.639ZM176.783 92.5855C176.693 92.3793 176.639 92.1465 176.639 91.8829H162.639C162.639 94.1125 163.106 96.2514 163.955 98.1924L176.783 92.5855ZM167.676 102.253L169.99 102.379L170.748 88.3992L168.434 88.2737L167.676 102.253ZM163.629 103.493C164.748 102.641 166.149 102.17 167.676 102.253L168.434 88.2737C163.461 88.004 158.809 89.5669 155.149 92.3536L163.629 103.493ZM161.795 104.313C161.498 104.556 161.167 104.701 160.864 104.766L157.913 91.0807C156.154 91.46 154.439 92.2456 152.943 93.467L161.795 104.313ZM150.894 119.23C153.492 112.995 157.372 107.923 161.795 104.313L152.943 93.467C146.678 98.5806 141.427 105.551 137.971 113.845L150.894 119.23ZM150.908 119.195C150.903 119.208 150.899 119.219 150.894 119.23L137.971 113.845C137.951 113.894 137.931 113.943 137.911 113.992L150.908 119.195ZM155.872 154.3C148.231 147.728 144.898 133.672 150.874 119.278L137.945 113.91C130.275 132.38 133.384 153.424 146.743 164.914L155.872 154.3ZM161.763 235.984L158.3 159.292L144.314 159.923L147.777 236.615L161.763 235.984ZM163.592 237.666C162.624 237.703 161.807 236.952 161.763 235.984L147.777 236.615C148.168 245.274 155.477 251.993 164.139 251.655L163.592 237.666ZM168.936 237.457L163.593 237.666L164.139 251.655L169.483 251.446L168.936 237.457ZM170.625 235.826C170.559 236.72 169.832 237.422 168.936 237.457L169.483 251.446C177.492 251.133 183.992 244.859 184.587 236.865L170.625 235.826ZM174.312 186.29L170.625 235.826L184.587 236.865L188.273 187.329L174.312 186.29ZM180.688 179.799L179.983 179.933L182.602 193.686L183.308 193.552L180.688 179.799ZM201.792 234.077L188.764 184.883L175.231 188.467L188.259 237.661L201.792 234.077ZM203.376 235.017C202.936 235.112 202.598 235.023 202.358 234.877C202.119 234.731 201.9 234.483 201.792 234.077L188.259 237.661C190.377 245.659 198.292 250.445 206.344 248.699L203.376 235.017ZM208.506 233.904L203.376 235.017L206.344 248.699L211.474 247.586L208.506 233.904ZM210.207 231.396C210.388 232.486 209.586 233.67 208.506 233.904L211.474 247.586C219.853 245.768 225.427 237.549 224.016 229.092L210.207 231.396ZM196.347 148.335L210.207 231.396L224.016 229.092L210.156 146.031L196.347 148.335ZM197.859 142.485C197.725 142.791 197.566 143.085 197.384 143.365L209.118 151C209.714 150.085 210.237 149.119 210.68 148.108L197.859 142.485ZM216.573 146.372C214.061 144.932 211.64 142.987 209.44 140.577L199.1 150.015C202.212 153.425 205.757 156.309 209.61 158.518L216.573 146.372ZM215.12 146.318C215.148 146.29 215.245 146.204 215.476 146.162C215.742 146.113 216.165 146.138 216.573 146.372L209.61 158.518C215.119 161.675 221.336 159.899 225.016 156.221L215.12 146.318ZM214.064 144.385C214.285 144.567 214.509 144.828 214.692 145.152C214.876 145.478 214.98 145.801 215.021 146.066C215.062 146.331 215.029 146.46 215.028 146.465C215.028 146.466 215.029 146.46 215.034 146.448C215.039 146.437 215.046 146.422 215.056 146.404C215.078 146.365 215.103 146.335 215.12 146.318L225.016 156.221C228.59 152.649 229.475 147.942 228.858 143.934C228.251 139.996 226.161 136.216 222.974 133.586L214.064 144.385ZM201.341 124.505C203.501 132.604 208.07 139.439 214.064 144.385L222.974 133.586C219.176 130.452 216.258 126.108 214.869 120.898L201.341 124.505ZM200.023 115.037C200.07 118.173 200.5 121.349 201.341 124.505L214.869 120.898C214.325 118.859 214.052 116.823 214.021 114.825L200.023 115.037ZM200.511 110.114C200.255 111.601 200.092 113.112 200.028 114.64L214.016 115.222C214.054 114.304 214.152 113.394 214.307 112.496L200.511 110.114ZM199.153 106.94C198.89 106.882 198.889 106.808 199.099 106.984C199.307 107.158 199.596 107.475 199.873 107.944C200.147 108.409 200.341 108.906 200.442 109.353C200.546 109.809 200.52 110.066 200.511 110.114L214.307 112.496C215.039 108.257 213.81 104.011 211.925 100.821C210.074 97.689 206.803 94.285 202.152 93.265L199.153 106.94ZM192.013 103.573C193.511 103.654 194.849 104.26 195.873 105.217L205.432 94.9882C202.091 91.8657 197.666 89.8592 192.771 89.5937L192.013 103.573ZM186.456 103.272L192.013 103.573L192.771 89.5937L187.214 89.2923L186.456 103.272ZM181.018 91.8829C181.018 92.217 180.932 92.5097 180.784 92.7627L192.886 99.8014C194.243 97.4687 195.018 94.7556 195.018 91.8829H181.018ZM181.018 90.5714V91.8829H195.018V90.5714H181.018ZM190.954 82.2739C190.504 82.7811 189.705 83.3996 187.415 83.5973L188.621 97.5454C193.456 97.1276 197.995 95.4351 201.43 91.5612L190.954 82.2739ZM196.768 79.9402C196.74 79.9386 196.711 79.9368 196.682 79.9347L195.702 93.9004C195.801 93.9074 195.9 93.9136 195.998 93.9189L196.768 79.9402ZM192.692 81.4976C193.768 80.4228 195.25 79.8565 196.768 79.9402L195.998 93.9189C198.453 94.0542 200.849 93.1385 202.588 91.4008L192.692 81.4976ZM193.193 80.9976L192.692 81.4977L202.588 91.4007L203.088 90.9007L193.193 80.9976ZM192.295 87.376C191.137 85.2879 191.504 82.6853 193.193 80.9976L203.088 90.9007C205.819 88.172 206.411 83.9641 204.539 80.5879L192.295 87.376ZM192.934 88.2894C192.692 88.0099 192.477 87.704 192.295 87.3761L204.539 80.5878C204.244 80.0554 203.897 79.561 203.505 79.1102L192.934 88.2894ZM192.321 79.524C192.161 80.0367 191.996 80.4704 191.832 80.8368L204.608 86.5627C205.025 85.6326 205.382 84.6705 205.689 83.6845L192.321 79.524ZM193.549 76.5399C193.358 77.1703 193.108 77.7765 192.806 78.3525L205.204 84.8561C205.91 83.5098 206.495 82.0887 206.945 80.6074L193.549 76.5399ZM200.07 71.1528L197.761 72.03L202.733 85.1172L205.042 84.24L200.07 71.1528ZM197.451 78.2121C196.007 75.5515 197.24 72.228 200.07 71.1528L205.042 84.24C210.136 82.3046 212.355 76.3223 209.755 71.5333L197.451 78.2121ZM195.241 74.1396L197.451 78.2121L209.755 71.5333L207.545 67.4608L195.241 74.1396ZM194.393 62.0764V70.8002H208.393V62.0764H194.393ZM194.226 60.9323C194.333 61.2859 194.393 61.6678 194.393 62.0764H208.393C208.393 60.2814 208.127 58.5359 207.628 56.8837L194.226 60.9323ZM193.247 56.6009C193.617 57.5219 193.861 58.5093 193.956 59.5457L207.898 58.2703C207.677 55.8584 207.106 53.5419 206.235 51.3765L193.247 56.6009ZM202.725 47.6127C202.456 47.516 202.186 47.4234 201.915 47.3348L197.567 60.6426C197.71 60.6893 197.852 60.7379 197.993 60.7886L202.725 47.6127ZM192.68 55.2903C193.274 56.012 193.787 56.7733 194.221 57.5653L206.497 50.8359C205.647 49.2838 204.644 47.7958 203.489 46.393L192.68 55.2903ZM189.372 51.8046C190.511 52.5773 191.492 53.5679 192.253 54.7144L203.916 46.9689C202.148 44.307 199.875 42.0122 197.232 40.2191L189.372 51.8046ZM174.984 48.2638C179.8 46.971 184.877 48.1977 188.897 51.4522L197.707 40.5715C190.536 34.7656 180.898 32.1805 171.354 34.7425L174.984 48.2638ZM171.988 49.4275C172.922 48.9417 173.922 48.5489 174.984 48.2638L171.354 34.7425C169.303 35.2932 167.355 36.0568 165.528 37.0066L171.988 49.4275ZM201.364 90.3519L201.811 90.1041L195.023 77.8599L194.576 78.1076L201.364 90.3519ZM191.79 80.9286C191.759 80.9969 191.727 81.0627 191.696 81.1262L204.245 87.3333C204.332 87.1566 204.417 86.9786 204.5 86.7994L191.79 80.9286ZM201.202 77.5596L200.93 77.4416L195.361 90.2864L195.633 90.4043L201.202 77.5596ZM201.98 90.9099C202.352 90.4464 202.7 89.9663 203.024 89.4719L191.318 81.7931C191.231 81.925 191.148 82.0395 191.067 82.1394L201.98 90.9099ZM195.768 79.5697C195.794 79.5637 195.816 79.5605 195.833 79.5588L197.214 93.4905C197.775 93.4348 198.347 93.343 198.924 93.2093L195.768 79.5697ZM190.456 87.6625L190.526 87.9675L204.166 84.8115L204.095 84.5064L190.456 87.6625ZM190.351 87.2106L190.456 87.6625L204.095 84.5064L203.991 84.0544L190.351 87.2106ZM238.385 156.373C238.155 156.311 238.018 156.073 238.079 155.843L251.602 159.466C253.543 152.225 249.243 144.783 242.001 142.847L238.385 156.373ZM229.943 154.116L238.385 156.373L242.001 142.847L233.559 140.591L229.943 154.116ZM230.463 153.816C230.402 154.043 230.171 154.177 229.944 154.116L233.559 140.591C226.319 138.656 218.88 142.954 216.94 150.193L230.463 153.816ZM230.157 153.286C230.387 153.348 230.525 153.586 230.463 153.816L216.94 150.193C215 157.434 219.299 164.875 226.542 166.811L230.157 153.286ZM238.599 155.542L230.157 153.286L226.542 166.811L234.984 169.068L238.599 155.542ZM238.079 155.843C238.14 155.616 238.372 155.482 238.599 155.542L234.984 169.068C242.223 171.003 249.663 166.704 251.602 159.466L238.079 155.843ZM199.858 257.755C199.858 250.795 194.649 244.937 187.738 244.123L186.1 258.027C185.962 258.011 185.858 257.894 185.858 257.755H199.858ZM186.132 271.48C193.712 271.48 199.858 265.335 199.858 257.755H185.858C185.858 257.603 185.98 257.48 186.132 257.48V271.48ZM163.705 271.48H186.132V257.48H163.705V271.48ZM148.663 256.438C148.663 264.746 155.397 271.48 163.705 271.48V257.48C163.129 257.48 162.663 257.014 162.663 256.438H148.663ZM165.464 241.499C156.521 240.446 148.663 247.433 148.663 256.438H162.663C162.663 255.814 163.207 255.33 163.827 255.403L165.464 241.499ZM187.738 244.123L165.464 241.499L163.827 255.403L186.1 258.027L187.738 244.123ZM227.447 252.47C227.306 252.48 227.18 252.383 227.154 252.246L240.899 249.591C239.579 242.757 233.353 237.994 226.412 238.508L227.447 252.47ZM205.08 254.129L227.447 252.47L226.412 238.508L204.045 240.167L205.08 254.129ZM204.132 255.369C204.013 254.755 204.458 254.175 205.08 254.129L204.045 240.167C195.066 240.833 188.678 249.185 190.386 258.025L204.132 255.369ZM205.348 256.192C204.784 256.301 204.24 255.933 204.132 255.369L190.386 258.025C191.961 266.182 199.852 271.516 208.01 269.936L205.348 256.192ZM227.368 251.928L205.348 256.192L208.01 269.936L230.03 265.673L227.368 251.928ZM227.154 252.246C227.125 252.098 227.221 251.956 227.368 251.928L230.03 265.673C237.471 264.232 242.337 257.032 240.899 249.591L227.154 252.246Z" fill="black" mask="url(#path-78-outside-3)"/>
</svg>
