<svg width="162" height="162" viewBox="0 0 162 162" fill="none" xmlns="http://www.w3.org/2000/svg">
<path d="M47.0542 48.2737C46.8519 47.5293 47.5329 46.8458 48.278 47.0455L66.6543 51.9694C67.3487 52.1554 67.6258 52.9915 67.18 53.5555L54.501 69.5933C53.992 70.2372 52.9669 70.0275 52.7516 69.2354L47.0542 48.2737Z" fill="#C17A38"/>
<path d="M110.42 100.992C102.675 93.2478 63.1536 57.9457 60.5508 60.5484C57.9481 63.1512 93.2502 102.673 100.995 110.418C108.739 118.162 110.059 115.262 112.662 112.659C115.264 110.056 118.165 108.737 110.42 100.992Z" fill="#04C439"/>
<path d="M86.2308 76.8021C82.635 73.2063 63.1546 57.9458 60.5519 60.5485C57.9492 63.1513 73.2097 82.6316 76.8055 86.2274C80.4014 89.8232 82.1443 87.3463 84.747 84.7436C87.3497 82.1409 89.8266 80.398 86.2308 76.8021Z" fill="#A1D900"/>
<ellipse cx="64.8369" cy="64.8379" rx="12.8654" ry="12.8654" transform="rotate(-45 64.8369 64.8379)" fill="#C17A38"/>
<path d="M46.9289 47.8104C46.7601 47.1893 47.2054 46.576 47.849 46.5652C53.0971 46.4766 72.8426 46.5586 67.7418 52.9961C61.8742 60.4015 67.1296 65.5532 62.6941 71.149C58.7267 76.1543 54.3184 72.2052 53.4323 71.316C53.3229 71.2063 53.2511 71.0711 53.2104 70.9216L46.9289 47.8104Z" fill="#7F00FF"/>
<mask id="path-6-outside-1" maskUnits="userSpaceOnUse" x="29.7266" y="29.5362" width="101.116" height="101.116" fill="black">
<rect fill="white" x="29.7266" y="29.5362" width="101.116" height="101.116"/>
<path fill-rule="evenodd" clip-rule="evenodd" d="M48.2791 47.0462C47.5339 46.8466 46.8529 47.53 47.0553 48.2744L52.1713 67.0973C52.6158 69.6018 53.8055 71.9999 55.7406 73.9349C59.8209 78.0152 65.96 78.7818 70.8139 76.2347C81.1914 89.0323 96.2554 105.677 100.996 110.417C108.07 117.492 109.783 115.684 112.01 113.334C112.221 113.112 112.437 112.884 112.662 112.659C112.888 112.434 113.115 112.218 113.338 112.007C115.688 109.78 117.495 108.066 110.421 100.992C105.68 96.2517 89.0348 81.187 76.2371 70.8095C78.7814 65.9563 78.014 59.8196 73.935 55.7406C71.982 53.7876 69.5574 52.5938 67.0278 52.1591C66.923 52.074 66.798 52.0083 66.6553 51.9701L48.2791 47.0462Z"/>
</mask>
<path d="M47.0553 48.2744L52.8452 46.7007L52.8452 46.7007L47.0553 48.2744ZM48.2791 47.0462L46.7261 52.8418L46.7261 52.8418L48.2791 47.0462ZM52.1713 67.0973L58.0789 66.0488L58.0319 65.7836L57.9612 65.5236L52.1713 67.0973ZM70.8139 76.2347L75.4743 72.4557L72.3784 68.6379L68.026 70.9218L70.8139 76.2347ZM112.01 113.334L116.365 117.462L116.365 117.462L112.01 113.334ZM113.338 112.007L117.466 116.361L117.466 116.361L113.338 112.007ZM76.2371 70.8095L70.923 68.0236L68.6417 72.3753L72.458 75.4699L76.2371 70.8095ZM67.0278 52.1591L63.2453 56.8166L64.4642 57.8065L66.0116 58.0724L67.0278 52.1591ZM66.6553 51.9701L65.1024 57.7657L65.1024 57.7657L66.6553 51.9701ZM52.8452 46.7007C53.8568 50.4227 50.4517 53.84 46.7261 52.8418L49.832 41.2507C44.6162 39.8531 39.849 44.6374 41.2653 49.8481L52.8452 46.7007ZM57.9612 65.5236L52.8452 46.7007L41.2653 49.8481L46.3813 68.671L57.9612 65.5236ZM46.2636 68.1458C46.9159 71.8211 48.6661 75.3457 51.498 78.1776L59.9832 69.6923C58.945 68.6541 58.3156 67.3824 58.0789 66.0488L46.2636 68.1458ZM51.498 78.1776C57.4875 84.1672 66.4891 85.2801 73.6019 81.5477L68.026 70.9218C65.4309 72.2836 62.1542 71.8633 59.9832 69.6923L51.498 78.1776ZM66.1536 80.0138C76.6301 92.9335 91.8335 109.741 96.7529 114.66L105.238 106.175C100.677 101.614 85.7527 85.1311 75.4743 72.4557L66.1536 80.0138ZM96.7529 114.66C98.6633 116.57 100.416 118.091 102.074 119.19C103.705 120.271 105.623 121.197 107.799 121.387C112.725 121.817 115.677 118.188 116.365 117.462L107.656 109.207C107.356 109.523 107.194 109.692 107.052 109.827C106.921 109.951 106.921 109.936 107.018 109.871C107.13 109.797 107.379 109.651 107.747 109.545C108.133 109.434 108.514 109.404 108.842 109.432C109.427 109.484 109.451 109.683 108.702 109.186C107.979 108.707 106.865 107.801 105.238 106.175L96.7529 114.66ZM116.365 117.462C116.584 117.231 116.746 117.061 116.905 116.902L108.42 108.416C108.129 108.707 107.859 108.993 107.656 109.207L116.365 117.462ZM116.905 116.902C117.065 116.742 117.234 116.581 117.466 116.361L109.21 107.652C108.996 107.855 108.711 108.125 108.42 108.416L116.905 116.902ZM117.466 116.361C118.192 115.673 121.82 112.722 121.391 107.796C121.201 105.619 120.274 103.702 119.193 102.07C118.095 100.413 116.574 98.6598 114.663 96.7495L106.178 105.235C107.805 106.861 108.711 107.976 109.19 108.698C109.686 109.447 109.487 109.424 109.436 108.838C109.407 108.51 109.437 108.129 109.548 107.744C109.655 107.375 109.8 107.127 109.875 107.014C109.94 106.917 109.955 106.918 109.83 107.049C109.696 107.19 109.527 107.352 109.21 107.652L117.466 116.361ZM114.663 96.7495C109.744 91.8298 92.9359 76.6257 80.0161 66.1492L72.458 75.4699C85.1336 85.7483 101.617 100.674 106.178 105.235L114.663 96.7495ZM81.5511 73.5954C85.2794 66.4837 84.1654 57.4857 78.1776 51.4979L69.6923 59.9832C71.8626 62.1535 72.2833 65.4289 70.923 68.0236L81.5511 73.5954ZM78.1776 51.4979C75.3194 48.6397 71.7558 46.8836 68.044 46.2458L66.0116 58.0724C67.359 58.304 68.6447 58.9355 69.6923 59.9832L78.1776 51.4979ZM65.1024 57.7657C64.4214 57.5832 63.7884 57.2577 63.2453 56.8166L70.8103 47.5016C70.0576 46.8903 69.1745 46.4335 68.2082 46.1746L65.1024 57.7657ZM46.7261 52.8418L65.1024 57.7657L68.2083 46.1746L49.832 41.2507L46.7261 52.8418Z" fill="black" mask="url(#path-6-outside-1)"/>
</svg>
