<svg width="52" height="39" viewBox="0 0 52 39" fill="none" xmlns="http://www.w3.org/2000/svg">
<mask id="path-1-outside-1" maskUnits="userSpaceOnUse" x="0.112305" y="0.279297" width="52" height="38" fill="black">
<rect fill="white" x="0.112305" y="0.279297" width="52" height="38"/>
<path fill-rule="evenodd" clip-rule="evenodd" d="M40.6236 19.6087C40.6299 19.4268 40.633 19.244 40.633 19.0604C40.633 18.5281 40.6065 18.0024 40.5547 17.4846H44.7559C46.2961 17.4846 47.5448 16.236 47.5448 14.6958C47.5448 13.1555 46.2961 11.9069 44.7559 11.9069H38.8941C36.5165 7.3584 31.9418 4.2793 26.6886 4.2793C21.4251 4.2793 16.8427 7.37049 14.4691 11.9336C14.3423 11.916 14.2128 11.9069 14.0811 11.9069H7.50577C5.96551 11.9069 4.71688 13.1555 4.71688 14.6958C4.71688 16.236 5.96551 17.4846 7.50577 17.4846H12.8225C12.7707 18.0024 12.7441 18.5281 12.7441 19.0604C12.7441 19.1493 12.7449 19.2379 12.7464 19.3264C12.6709 19.3398 12.5954 19.3564 12.52 19.3763L6.17461 21.0486C4.68521 21.4411 3.80601 22.9641 4.21086 24.4502C4.61571 25.9363 6.15131 26.8228 7.64071 26.4302L13.8337 24.7981C13.9934 25.1997 14.1694 25.5922 14.3607 25.9748L10.505 29.7672C9.40686 30.8473 9.40686 32.5984 10.505 33.6785C11.6031 34.7585 13.3835 34.7585 14.4816 33.6785L17.781 30.4332C20.1969 32.5616 23.3017 33.8415 26.6886 33.8415C29.7995 33.8415 32.6725 32.7617 34.9921 30.9363L37.78 33.6785C38.8782 34.7585 40.6586 34.7585 41.7567 33.6785C42.8548 32.5984 42.8548 30.8473 41.7567 29.7672L38.632 26.6939C38.9302 26.1707 39.1987 25.6264 39.435 25.0635L44.6209 26.4302C46.1103 26.8228 47.6459 25.9363 48.0508 24.4502C48.4556 22.9641 47.5764 21.4411 46.087 21.0486L40.6236 19.6087Z"/>
</mask>
<path fill-rule="evenodd" clip-rule="evenodd" d="M40.6236 19.6087C40.6299 19.4268 40.633 19.244 40.633 19.0604C40.633 18.5281 40.6065 18.0024 40.5547 17.4846H44.7559C46.2961 17.4846 47.5448 16.236 47.5448 14.6958C47.5448 13.1555 46.2961 11.9069 44.7559 11.9069H38.8941C36.5165 7.3584 31.9418 4.2793 26.6886 4.2793C21.4251 4.2793 16.8427 7.37049 14.4691 11.9336C14.3423 11.916 14.2128 11.9069 14.0811 11.9069H7.50577C5.96551 11.9069 4.71688 13.1555 4.71688 14.6958C4.71688 16.236 5.96551 17.4846 7.50577 17.4846H12.8225C12.7707 18.0024 12.7441 18.5281 12.7441 19.0604C12.7441 19.1493 12.7449 19.2379 12.7464 19.3264C12.6709 19.3398 12.5954 19.3564 12.52 19.3763L6.17461 21.0486C4.68521 21.4411 3.80601 22.9641 4.21086 24.4502C4.61571 25.9363 6.15131 26.8228 7.64071 26.4302L13.8337 24.7981C13.9934 25.1997 14.1694 25.5922 14.3607 25.9748L10.505 29.7672C9.40686 30.8473 9.40686 32.5984 10.505 33.6785C11.6031 34.7585 13.3835 34.7585 14.4816 33.6785L17.781 30.4332C20.1969 32.5616 23.3017 33.8415 26.6886 33.8415C29.7995 33.8415 32.6725 32.7617 34.9921 30.9363L37.78 33.6785C38.8782 34.7585 40.6586 34.7585 41.7567 33.6785C42.8548 32.5984 42.8548 30.8473 41.7567 29.7672L38.632 26.6939C38.9302 26.1707 39.1987 25.6264 39.435 25.0635L44.6209 26.4302C46.1103 26.8228 47.6459 25.9363 48.0508 24.4502C48.4556 22.9641 47.5764 21.4411 46.087 21.0486L40.6236 19.6087Z" fill="#A1D900"/>
<path d="M40.6236 19.6087L37.2789 19.4937L37.187 22.164L39.7707 22.8449L40.6236 19.6087ZM40.5547 17.4846V14.138H36.8568L37.2247 17.8176L40.5547 17.4846ZM38.8941 11.9069L35.9282 13.4572L36.8672 15.2535H38.8941V11.9069ZM14.4691 11.9336L14.0077 15.2484L16.3478 15.5741L17.4381 13.478L14.4691 11.9336ZM12.8225 17.4846L16.1525 17.8176L16.5204 14.138H12.8225V17.4846ZM12.7464 19.3264L13.3315 22.6215L16.14 22.1228L16.0926 19.2707L12.7464 19.3264ZM12.52 19.3763L13.3729 22.6125L13.3729 22.6124L12.52 19.3763ZM6.17461 21.0486L7.02749 24.2848H7.02749L6.17461 21.0486ZM4.21086 24.4502L7.43985 23.5705L4.21086 24.4502ZM7.64071 26.4302L8.49359 29.6664L7.64071 26.4302ZM13.8337 24.7981L16.9434 23.5613L15.8477 20.8064L12.9808 21.5619L13.8337 24.7981ZM14.3607 25.9748L16.7075 28.3607L18.4426 26.6542L17.3538 24.4776L14.3607 25.9748ZM10.505 29.7672L12.8517 32.1532L12.8517 32.1532L10.505 29.7672ZM10.505 33.6785L8.1582 36.0644H8.15821L10.505 33.6785ZM14.4816 33.6785L16.8284 36.0644L16.8284 36.0644L14.4816 33.6785ZM17.781 30.4332L19.9934 27.9221L17.6556 25.8625L15.4343 28.0473L17.781 30.4332ZM34.9921 30.9363L37.3389 28.5504L35.2381 26.4842L32.9225 28.3063L34.9921 30.9363ZM37.78 33.6785L40.1268 31.2925L40.1268 31.2925L37.78 33.6785ZM41.7567 29.7672L39.4099 32.1532V32.1532L41.7567 29.7672ZM38.632 26.6939L35.7246 25.0365L34.4491 27.2739L36.2852 29.0798L38.632 26.6939ZM39.435 25.0635L40.2879 21.8273L37.4751 21.0861L36.3492 23.7681L39.435 25.0635ZM44.6209 26.4302L45.4738 23.1941L44.6209 26.4302ZM48.0508 24.4502L44.8218 23.5705V23.5705L48.0508 24.4502ZM46.087 21.0486L45.2341 24.2848L46.087 21.0486ZM37.2864 19.0604C37.2864 19.2056 37.2839 19.35 37.2789 19.4937L43.9683 19.7238C43.9759 19.5035 43.9797 19.2824 43.9797 19.0604H37.2864ZM37.2247 17.8176C37.2654 18.2248 37.2864 18.6394 37.2864 19.0604H43.9797C43.9797 18.4168 43.9476 17.78 43.8848 17.1517L37.2247 17.8176ZM40.5547 20.8313H44.7559V14.138H40.5547V20.8313ZM44.7559 20.8313C48.1444 20.8313 50.8914 18.0843 50.8914 14.6958H44.1981C44.1981 14.3877 44.4478 14.138 44.7559 14.138V20.8313ZM50.8914 14.6958C50.8914 11.3072 48.1444 8.5602 44.7559 8.5602V15.2535C44.4478 15.2535 44.1981 15.0038 44.1981 14.6958H50.8914ZM44.7559 8.5602H38.8941V15.2535H44.7559V8.5602ZM26.6886 7.62596C30.5763 7.62596 34.0702 9.90284 35.9282 13.4572L41.86 10.3565C38.9627 4.81397 33.3072 0.932632 26.6886 0.932632V7.62596ZM17.4381 13.478C19.2932 9.91182 22.7933 7.62596 26.6886 7.62596V0.932632C20.0569 0.932632 14.3923 4.82916 11.5001 10.3892L17.4381 13.478ZM14.0811 15.2535C14.0579 15.2535 14.0333 15.2519 14.0077 15.2484L14.9305 8.61893C14.6513 8.58007 14.3676 8.5602 14.0811 8.5602V15.2535ZM7.50577 15.2535H14.0811V8.5602H7.50577V15.2535ZM8.06354 14.6958C8.06354 15.0038 7.81382 15.2535 7.50577 15.2535V8.5602C4.1172 8.5602 1.37021 11.3072 1.37021 14.6958H8.06354ZM7.50577 14.138C7.81382 14.138 8.06354 14.3877 8.06354 14.6958H1.37021C1.37021 18.0843 4.11719 20.8313 7.50577 20.8313V14.138ZM12.8225 14.138H7.50577V20.8313H12.8225V14.138ZM16.0908 19.0604C16.0908 18.6394 16.1118 18.2248 16.1525 17.8176L9.49239 17.1517C9.42958 17.78 9.39748 18.4168 9.39748 19.0604H16.0908ZM16.0926 19.2707C16.0914 19.2008 16.0908 19.1307 16.0908 19.0604H9.39748C9.39748 19.1678 9.39838 19.2751 9.40016 19.3822L16.0926 19.2707ZM12.1612 16.0313C11.9959 16.0607 11.8311 16.0969 11.6671 16.1401L13.3729 22.6124C13.3597 22.6159 13.3459 22.619 13.3315 22.6215L12.1612 16.0313ZM11.6671 16.1401L5.32174 17.8124L7.02749 24.2848L13.3729 22.6125L11.6671 16.1401ZM5.32174 17.8124C2.03457 18.6788 0.088346 22.0499 0.98187 25.3298L7.43985 23.5705C7.52367 23.8782 7.33585 24.2035 7.02749 24.2848L5.32174 17.8124ZM0.98187 25.3298C1.8697 28.5888 5.22736 30.5272 8.49359 29.6664L6.78783 23.1941C7.07525 23.1183 7.36172 23.2837 7.43985 23.5705L0.98187 25.3298ZM8.49359 29.6664L14.6866 28.0343L12.9808 21.5619L6.78783 23.1941L8.49359 29.6664ZM17.3538 24.4776C17.205 24.18 17.0679 23.8744 16.9434 23.5613L10.724 26.0349C10.9189 26.525 11.1338 27.0044 11.3677 27.472L17.3538 24.4776ZM12.8517 32.1532L16.7075 28.3607L12.014 23.5888L8.1582 27.3812L12.8517 32.1532ZM12.8517 31.2925C13.0868 31.5237 13.0868 31.9219 12.8517 32.1532L8.15821 27.3812C5.72689 29.7726 5.72689 33.6731 8.1582 36.0644L12.8517 31.2925ZM12.1348 31.2925C12.339 31.0916 12.6475 31.0916 12.8517 31.2925L8.15821 36.0644C10.5586 38.4254 14.4279 38.4254 16.8284 36.0644L12.1348 31.2925ZM15.4343 28.0473L12.1348 31.2925L16.8284 36.0644L20.1278 32.8192L15.4343 28.0473ZM26.6886 30.4948C24.1679 30.4948 21.8379 29.5472 19.9934 27.9221L15.5687 32.9444C18.5559 35.5761 22.4355 37.1882 26.6886 37.1882V30.4948ZM32.9225 28.3063C31.1584 29.6945 29.0062 30.4948 26.6886 30.4948V37.1882C30.5928 37.1882 34.1865 35.8289 37.0617 33.5664L32.9225 28.3063ZM40.1268 31.2925L37.3389 28.5504L32.6453 33.3223L35.4333 36.0644L40.1268 31.2925ZM39.4099 31.2925C39.6141 31.0916 39.9226 31.0916 40.1268 31.2925L35.4333 36.0644C37.8337 38.4254 41.703 38.4254 44.1034 36.0644L39.4099 31.2925ZM39.4099 32.1532C39.1748 31.9219 39.1748 31.5237 39.4099 31.2925L44.1034 36.0644C46.5347 33.6731 46.5347 29.7726 44.1034 27.3812L39.4099 32.1532ZM36.2852 29.0798L39.4099 32.1532L44.1034 27.3812L40.9788 24.3079L36.2852 29.0798ZM36.3492 23.7681C36.1651 24.2067 35.9562 24.6302 35.7246 25.0365L41.5394 28.3513C41.9043 27.7112 42.2324 27.046 42.5208 26.3589L36.3492 23.7681ZM38.5821 28.2997L43.768 29.6664L45.4738 23.1941L40.2879 21.8273L38.5821 28.2997ZM43.768 29.6664C47.0343 30.5272 50.3919 28.5888 51.2798 25.3298L44.8218 23.5705C44.8999 23.2837 45.1864 23.1183 45.4738 23.1941L43.768 29.6664ZM51.2798 25.3298C52.1733 22.0499 50.2271 18.6788 46.9399 17.8124L45.2341 24.2848C44.9258 24.2035 44.738 23.8782 44.8218 23.5705L51.2798 25.3298ZM46.9399 17.8124L41.4765 16.3726L39.7707 22.8449L45.2341 24.2848L46.9399 17.8124Z" fill="black" mask="url(#path-1-outside-1)"/>
<circle cx="21.1206" cy="13.2026" r="1.67333" fill="black"/>
<circle cx="31.7183" cy="13.2026" r="1.67333" fill="black"/>
</svg>
