<svg width="44" height="36" viewBox="0 0 44 36" fill="none" xmlns="http://www.w3.org/2000/svg">
<path d="M3.74707 17.9018L16.5651 9.10978L22.888 13.1897L36.6832 3.76562" stroke="#FF0000" stroke-width="3.1192" stroke-linecap="round" stroke-linejoin="round"/>
<path d="M3.74707 27.616L16.5651 23.8809H22.888L36.6832 27.616" stroke="#0094FF" stroke-width="3.1192" stroke-linecap="round" stroke-linejoin="round"/>
<ellipse cx="36.6836" cy="3.76729" rx="1.20708" ry="1.20675" fill="#FF0000"/>
<ellipse cx="36.6836" cy="27.5564" rx="1.20708" ry="1.20675" fill="#0094FF"/>
<path d="M42.6383 35.0237C43.3766 35.0237 43.9751 34.4252 43.9751 33.6869C43.9751 32.9486 43.3766 32.3501 42.6383 32.3501V35.0237ZM2.33008 33.6869H0.993277C0.993277 34.4252 1.59178 35.0237 2.33008 35.0237L2.33008 33.6869ZM3.66688 2.30273C3.66688 1.56444 3.06837 0.965934 2.33008 0.965934C1.59178 0.965934 0.993277 1.56444 0.993277 2.30273H3.66688ZM42.6383 32.3501H2.33008V35.0237H42.6383V32.3501ZM3.66688 33.6869V2.30273H0.993277V33.6869H3.66688Z" fill="black"/>
</svg>
