<svg width="56" height="54" viewBox="0 0 56 54" fill="none" xmlns="http://www.w3.org/2000/svg">
<path d="M38.6327 21.5084L32.7863 15.7321L2.46878 44.6164L9.39743 51.4619L38.6327 21.5084Z" fill="#0094FF"/>
<path fill-rule="evenodd" clip-rule="evenodd" d="M50.0688 20.5621C50.5907 20.0465 51.4368 20.0465 51.9586 20.5621L52.7041 21.2986C53.6377 22.221 53.6377 23.7165 52.7041 24.6389L47.1205 30.1554C46.1869 31.0778 44.6733 31.0778 43.7397 30.1554L42.994 29.4187C42.4723 28.9032 42.4723 28.0675 42.994 27.552L43.1535 27.3944C43.5871 26.9659 43.5871 26.2713 43.1535 25.8429C42.7199 25.4144 42.0168 25.4144 41.5831 25.8429L41.3697 26.0538C40.8259 26.591 39.9471 26.5997 39.3926 26.0733L30.1625 17.3123C30.1499 17.3003 30.1298 17.3005 30.1174 17.3128C30.1048 17.3252 30.0843 17.3252 30.0717 17.3128L27.2269 14.5021C26.1156 13.4042 24.3139 13.4042 23.2027 14.5021L22.6364 15.0616C21.8379 15.8505 20.5433 15.8505 19.7448 15.0616C18.9462 14.2727 18.9462 12.9936 19.7448 12.2046L22.3094 9.6708C22.317 9.66329 22.317 9.65112 22.3094 9.64361C22.3018 9.6361 22.3018 9.62393 22.3094 9.61643C23.5163 8.42698 24.9114 7.44715 26.4156 6.73253C27.9256 6.01519 29.5159 5.57912 31.0957 5.44922C32.6756 5.31933 34.2141 5.49815 35.6234 5.97547C36.7444 6.35514 37.7661 6.91774 38.6527 7.64127C38.6612 7.64819 38.6736 7.64762 38.6813 7.63994C38.6897 7.63173 38.7031 7.63173 38.7115 7.63994L48.4565 17.268C48.9551 17.7606 48.9551 18.5594 48.4565 19.0521L48.3388 19.1683C47.9051 19.5968 47.9051 20.2914 48.3388 20.7198C48.7724 21.1483 49.4755 21.1483 49.9091 20.7198L50.0688 20.5621Z" fill="#A5A5A5"/>
<path d="M50.0687 20.562L51.274 21.7819L51.274 21.7819L50.0687 20.562ZM51.9582 20.562L53.1634 19.3421V19.3421L51.9582 20.562ZM49.909 20.7198L48.7037 19.4998L48.7037 19.4999L49.909 20.7198ZM48.3389 20.7198L49.5442 19.4999L49.5442 19.4998L48.3389 20.7198ZM48.3389 19.1685L49.5442 20.3885L49.5442 20.3885L48.3389 19.1685ZM48.4567 19.0521L47.2515 17.8322L47.2515 17.8322L48.4567 19.0521ZM48.4567 17.268L49.662 16.0481L48.4567 17.268ZM38.7117 7.64L39.917 6.42008L39.9169 6.41994L38.7117 7.64ZM38.6816 7.64L39.8868 8.86003L39.887 8.85979L38.6816 7.64ZM38.6529 7.64134L37.5686 8.96996L37.5687 8.97002L38.6529 7.64134ZM35.6237 5.97554L35.0735 7.59981L35.6237 5.97554ZM26.4159 6.7326L25.68 5.1836L25.68 5.1836L26.4159 6.7326ZM22.3097 9.61649L23.5133 10.8381L23.5134 10.8379L22.3097 9.61649ZM22.3096 9.64368L21.1043 10.8636L21.1043 10.8636L22.3096 9.64368ZM22.3096 9.67087L23.5149 10.8908L23.5149 10.8908L22.3096 9.67087ZM19.745 12.2047L18.5397 10.9848L19.745 12.2047ZM22.6367 15.0616L23.8419 16.2816L23.8419 16.2816L22.6367 15.0616ZM23.2029 14.5022L21.9977 13.2822L21.9977 13.2822L23.2029 14.5022ZM27.2272 14.5022L26.0219 15.7221L27.2272 14.5022ZM30.072 17.3129L28.8667 18.5328L28.8667 18.5328L30.072 17.3129ZM30.1176 17.3129L28.9124 16.0929L28.9123 16.093L30.1176 17.3129ZM30.1628 17.3124L31.3434 16.0686L31.3433 16.0685L30.1628 17.3124ZM30.6456 17.7707L31.8285 19.0123C32.1687 18.6883 32.361 18.2389 32.3605 17.7691C32.3601 17.2993 32.167 16.8503 31.8262 16.5269L30.6456 17.7707ZM2.46875 44.6156L1.28582 43.374C0.950015 43.6939 0.758118 44.1362 0.753906 44.6C0.749693 45.0638 0.933525 45.5095 1.26347 45.8355L2.46875 44.6156ZM9.3974 51.4611L8.19212 52.681C8.51695 53.0019 8.95637 53.18 9.41299 53.1759C9.8696 53.1718 10.3057 52.9857 10.6247 52.6589L9.3974 51.4611ZM36.685 23.5031L37.8656 22.2593C37.1854 21.6137 36.1127 21.6342 35.4577 22.3053L36.685 23.5031ZM39.3928 26.0734L38.2122 27.3172L38.2122 27.3172L39.3928 26.0734ZM41.3699 26.0539L42.5752 27.2738L42.5752 27.2738L41.3699 26.0539ZM41.5835 25.8428L40.3783 24.6229L41.5835 25.8428ZM43.1536 25.8428L41.9483 27.0627L41.9483 27.0627L43.1536 25.8428ZM43.1536 27.394L44.3589 28.614L44.3589 28.614L43.1536 27.394ZM42.9938 27.5519L44.1991 28.7718L44.1991 28.7718L42.9938 27.5519ZM42.9938 29.4189L41.7886 30.6388V30.6388L42.9938 29.4189ZM43.7394 30.1555L44.9447 28.9356L44.9447 28.9356L43.7394 30.1555ZM47.1202 30.1555L48.3255 31.3754V31.3754L47.1202 30.1555ZM52.7038 24.6389L51.4985 23.419V23.419L52.7038 24.6389ZM52.7038 21.2987L53.9091 20.0788L52.7038 21.2987ZM51.274 21.7819C51.1277 21.9264 50.8991 21.9264 50.7529 21.7819L53.1634 19.3421C51.9737 18.1666 50.0532 18.1666 48.8634 19.3421L51.274 21.7819ZM51.1143 21.9397L51.274 21.7819L48.8634 19.3421L48.7037 19.4998L51.1143 21.9397ZM47.1336 21.9397C48.2352 23.028 50.0127 23.028 51.1143 21.9397L48.7037 19.4999C48.9381 19.2682 49.3098 19.2682 49.5442 19.4999L47.1336 21.9397ZM47.1336 17.9486C46.0205 19.0483 46.0205 20.84 47.1336 21.9397L49.5442 19.4998C49.7901 19.7428 49.7901 20.1455 49.5442 20.3885L47.1336 17.9486ZM47.2515 17.8322L47.1336 17.9486L49.5442 20.3885L49.662 20.272L47.2515 17.8322ZM47.2515 18.488C47.0706 18.3093 47.0706 18.0109 47.2515 17.8322L49.662 20.2721C50.8402 19.108 50.8402 17.2121 49.662 16.0481L47.2515 18.488ZM37.5064 8.85993L47.2515 18.488L49.662 16.0481L39.917 6.42008L37.5064 8.85993ZM39.887 8.85979C39.2272 9.51187 38.1661 9.51153 37.5066 8.86007L39.9169 6.41994C39.2407 5.75205 38.1526 5.75171 37.4762 6.42022L39.887 8.85979ZM37.5687 8.97002C38.2532 9.52854 39.2531 9.48605 39.8868 8.86003L37.4764 6.41998C38.0946 5.80932 39.0697 5.76797 39.7372 6.31265L37.5687 8.97002ZM35.0735 7.59981C36.006 7.91564 36.8457 8.37996 37.5686 8.96996L39.7372 6.31271C38.6871 5.45566 37.4833 4.79476 36.1738 4.35126L35.0735 7.59981ZM31.2365 7.15844C32.5983 7.04647 33.9005 7.20252 35.0735 7.59981L36.1738 4.35126C34.5282 3.79391 32.7534 3.59231 30.9555 3.74014L31.2365 7.15844ZM27.1518 8.28159C28.4849 7.64826 29.8742 7.27045 31.2365 7.15844L30.9555 3.74014C29.158 3.88793 27.3667 4.38225 25.68 5.1836L27.1518 8.28159ZM23.5134 10.8379C24.5863 9.78064 25.8238 8.91248 27.1518 8.28159L25.68 5.1836C23.9995 5.98195 22.447 7.07345 21.1059 8.39504L23.5134 10.8379ZM23.515 8.42378C24.1868 9.08757 24.1874 10.1738 23.5133 10.8381L21.106 8.39492C20.4166 9.07418 20.4173 10.1848 21.1043 10.8636L23.515 8.42378ZM23.5149 10.8908C24.202 10.2119 24.202 9.10262 23.5149 8.42377L21.1043 10.8636C20.4325 10.1997 20.4325 9.1148 21.1043 8.45096L23.5149 10.8908ZM20.9503 13.4246L23.5149 10.8908L21.1044 8.45094L18.5397 10.9848L20.9503 13.4246ZM20.9503 13.8417C20.8313 13.7241 20.8313 13.5422 20.9503 13.4246L18.5397 10.9848C17.0617 12.4451 17.0617 14.8213 18.5397 16.2816L20.9503 13.8417ZM21.4314 13.8417C21.3009 13.9707 21.0808 13.9706 20.9503 13.8417L18.5397 16.2816C20.0062 17.7305 22.3754 17.7305 23.8419 16.2816L21.4314 13.8417ZM21.9977 13.2822L21.4314 13.8417L23.8419 16.2816L24.4082 15.7221L21.9977 13.2822ZM28.4324 13.2822C26.6532 11.5243 23.7769 11.5243 21.9977 13.2822L24.4082 15.7221C24.8515 15.2842 25.5786 15.2842 26.0219 15.7221L28.4324 13.2822ZM31.2773 16.0929L28.4324 13.2822L26.0219 15.7221L28.8667 18.5328L31.2773 16.0929ZM28.9123 16.093C29.5677 15.4453 30.6219 15.4454 31.2773 16.0929L28.8667 18.5328C29.5473 19.2052 30.6423 19.2053 31.323 18.5327L28.9123 16.093ZM31.3433 16.0685C30.6596 15.4196 29.5836 15.4298 28.9124 16.0929L31.3229 18.5328C30.6765 19.1714 29.6407 19.1812 28.9822 18.5563L31.3433 16.0685ZM31.8262 16.5269L31.3434 16.0686L28.9822 18.5562L29.465 19.0145L31.8262 16.5269ZM29.4627 16.5291L1.28582 43.374L3.65168 45.8572L31.8285 19.0123L29.4627 16.5291ZM1.26347 45.8355L8.19212 52.681L10.6027 50.2411L3.67403 43.3957L1.26347 45.8355ZM10.6247 52.6589L37.9122 24.701L35.4577 22.3053L8.17015 50.2632L10.6247 52.6589ZM40.5735 24.8296L37.8656 22.2593L35.5043 24.747L38.2122 27.3172L40.5735 24.8296ZM40.1647 24.8339C40.2797 24.7203 40.4569 24.7189 40.5735 24.8296L38.2122 27.3172C39.4379 28.4806 41.3727 28.4619 42.5752 27.2738L40.1647 24.8339ZM40.3783 24.6229L40.1646 24.8339L42.5752 27.2738L42.7888 27.0627L40.3783 24.6229ZM44.3589 24.6229C43.2573 23.5345 41.4798 23.5345 40.3783 24.6229L42.7888 27.0627C42.5544 27.2944 42.1828 27.2944 41.9483 27.0627L44.3589 24.6229ZM44.3589 28.614C45.472 27.5143 45.472 25.7226 44.3589 24.6229L41.9483 27.0627C41.7024 26.8197 41.7024 26.4171 41.9483 26.1741L44.3589 28.614ZM44.1991 28.7718L44.3589 28.614L41.9483 26.1741L41.7886 26.332L44.1991 28.7718ZM44.1991 28.1989C44.3568 28.3547 44.3568 28.616 44.1991 28.7718L41.7886 26.332C40.5872 27.5189 40.5872 29.4519 41.7886 30.6388L44.1991 28.1989ZM44.9447 28.9356L44.1991 28.1989L41.7886 30.6388L42.5341 31.3754L44.9447 28.9356ZM45.9149 28.9356C45.6494 29.198 45.2103 29.198 44.9447 28.9356L42.5341 31.3754C44.1357 32.9578 46.7239 32.9578 48.3255 31.3754L45.9149 28.9356ZM51.4985 23.419L45.9149 28.9356L48.3255 31.3754L53.9091 25.8589L51.4985 23.419ZM51.4985 22.5186C51.7526 22.7697 51.7526 23.168 51.4985 23.419L53.9091 25.8589C55.5222 24.2651 55.5222 21.6725 53.9091 20.0788L51.4985 22.5186ZM50.7529 21.7819L51.4985 22.5186L53.9091 20.0788L53.1634 19.3421L50.7529 21.7819Z" fill="black"/>
</svg>
