<svg width="111" height="111" viewBox="0 0 111 111" fill="none" xmlns="http://www.w3.org/2000/svg">
<path fill-rule="evenodd" clip-rule="evenodd" d="M70.5628 29.9393C71.9724 29.5707 73.4299 29.3828 74.8971 29.3828C77.0611 29.3828 79.204 29.7916 81.2033 30.5858C83.2026 31.38 85.0192 32.5441 86.5494 34.0116C88.0796 35.4791 89.2935 37.2212 90.1216 39.1386C90.9497 41.056 91.376 43.111 91.376 45.1864C91.376 46.6049 91.1768 48.0139 90.7864 49.376C90.5163 51.4633 89.5458 53.4831 87.8749 55.0856L63.4686 78.4917C59.4826 82.3144 53.0199 82.3144 49.0338 78.4917L40.164 69.9854L40.127 69.9497L24.6275 55.0854C22.9505 53.4772 21.9791 51.4485 21.7131 49.3532C21.3275 47.9991 21.1309 46.5989 21.1309 45.1893C21.1309 43.1139 21.5571 41.0589 22.3852 39.1415C23.2134 37.2241 24.4272 35.4819 25.9574 34.0144C27.4876 32.5469 29.3042 31.3829 31.3035 30.5887C33.3028 29.7945 35.4457 29.3857 37.6097 29.3857C39.0708 29.3857 40.5223 29.572 41.9264 29.9375C44.1214 30.1878 46.2479 31.1205 47.9322 32.7358L56.2513 40.714L64.5702 32.736C66.2511 31.124 68.3725 30.1917 70.5628 29.9393Z" fill="#FF0000"/>
<path d="M70.5628 29.9393L70.9063 32.9195L71.1167 32.8953L71.3216 32.8417L70.5628 29.9393ZM74.8971 29.3828L74.8971 26.3828L74.8971 29.3828ZM81.2033 30.5858L80.0958 33.3739L81.2033 30.5858ZM86.5494 34.0116L84.4729 36.1768L84.4729 36.1768L86.5494 34.0116ZM90.1216 39.1386L87.3675 40.3281L87.3675 40.3281L90.1216 39.1386ZM90.7864 49.376L87.9025 48.5492L87.8402 48.7667L87.8111 48.9911L90.7864 49.376ZM87.8749 55.0856L85.7984 52.9204L85.7984 52.9204L87.8749 55.0856ZM63.4686 78.4917L65.5451 80.6569L65.5451 80.6569L63.4686 78.4917ZM49.0338 78.4917L51.1103 76.3265L51.1103 76.3265L49.0338 78.4917ZM40.164 69.9854L38.0821 72.1454L38.0875 72.1506L40.164 69.9854ZM40.127 69.9497L42.2089 67.7896L42.2035 67.7845L40.127 69.9497ZM24.6275 55.0854L26.704 52.9202L26.704 52.9202L24.6275 55.0854ZM21.7131 49.3532L24.6893 48.9755L24.6607 48.75L24.5984 48.5315L21.7131 49.3532ZM25.9574 34.0144L23.8809 31.8492L23.8809 31.8492L25.9574 34.0144ZM31.3035 30.5887L32.4111 33.3767L32.4111 33.3767L31.3035 30.5887ZM37.6097 29.3857L37.6097 32.3857L37.6097 32.3857L37.6097 29.3857ZM41.9264 29.9375L41.1707 32.8408L41.3759 32.8942L41.5866 32.9182L41.9264 29.9375ZM47.9322 32.7358L45.8557 34.901L45.8557 34.901L47.9322 32.7358ZM56.2513 40.714L54.1748 42.8792L56.2513 44.8706L58.3278 42.8792L56.2513 40.714ZM64.5702 32.736L66.6467 34.9012L66.6467 34.9012L64.5702 32.736ZM71.3216 32.8417C72.4833 32.538 73.6858 32.3828 74.8971 32.3828L74.8971 26.3828C73.174 26.3828 71.4615 26.6035 69.8039 27.0368L71.3216 32.8417ZM74.8971 32.3828C76.6842 32.3828 78.4511 32.7205 80.0958 33.3739L82.3108 27.7977C79.9569 26.8626 77.4381 26.3828 74.8971 26.3828L74.8971 32.3828ZM80.0958 33.3739C81.7403 34.0271 83.2266 34.9816 84.4729 36.1768L88.6259 31.8464C86.8118 30.1066 84.6649 28.7328 82.3108 27.7977L80.0958 33.3739ZM84.4729 36.1768C85.719 37.3718 86.7004 38.7836 87.3675 40.3281L92.8757 37.9491C91.8865 35.6589 90.4403 33.5864 88.6259 31.8464L84.4729 36.1768ZM87.3675 40.3281C88.0345 41.8724 88.376 43.5228 88.376 45.1864L94.376 45.1864C94.376 42.6992 93.865 40.2396 92.8757 37.9491L87.3675 40.3281ZM88.376 45.1864C88.376 46.3238 88.2164 47.4546 87.9025 48.5492L93.6702 50.2028C94.1373 48.5733 94.376 46.886 94.376 45.1864L88.376 45.1864ZM87.8111 48.9911C87.6278 50.4085 86.9692 51.7975 85.7984 52.9204L89.9514 57.2508C92.1224 55.1688 93.4049 52.5181 93.7616 49.7609L87.8111 48.9911ZM85.7984 52.9204L61.3921 76.3265L65.5451 80.6569L89.9514 57.2508L85.7984 52.9204ZM61.3921 76.3265C58.5667 79.0362 53.9358 79.0362 51.1103 76.3265L46.9573 80.6569C52.104 85.5927 60.3985 85.5927 65.5451 80.6569L61.3921 76.3265ZM51.1103 76.3265L42.2405 67.8201L38.0875 72.1506L46.9573 80.6569L51.1103 76.3265ZM42.2458 67.8253L42.2088 67.7896L38.0451 72.1097L38.0821 72.1454L42.2458 67.8253ZM42.2035 67.7845L26.704 52.9202L22.551 57.2506L38.0505 72.1149L42.2035 67.7845ZM26.704 52.9202C25.529 51.7933 24.8699 50.3983 24.6893 48.9755L18.737 49.731C19.0883 52.4987 20.3721 55.161 22.551 57.2506L26.704 52.9202ZM24.5984 48.5315C24.2885 47.4433 24.1309 46.3195 24.1309 45.1893L18.1309 45.1893C18.1309 46.8782 18.3665 48.555 18.8279 50.175L24.5984 48.5315ZM24.1309 45.1893C24.1309 43.5257 24.4723 41.8753 25.1393 40.331L19.6311 37.952C18.6418 40.2425 18.1309 42.7021 18.1309 45.1893L24.1309 45.1893ZM25.1393 40.331C25.8065 38.7864 26.7879 37.3746 28.0339 36.1797L23.8809 31.8492C22.0665 33.5892 20.6203 35.6618 19.6311 37.952L25.1393 40.331ZM28.0339 36.1797C29.2802 34.9844 30.7665 34.03 32.4111 33.3767L30.196 27.8006C27.8419 28.7357 25.695 30.1095 23.8809 31.8492L28.0339 36.1797ZM32.4111 33.3767C34.0558 32.7234 35.8226 32.3857 37.6097 32.3857L37.6097 26.3857C35.0687 26.3857 32.5499 26.8655 30.196 27.8006L32.4111 33.3767ZM37.6097 32.3857C38.816 32.3857 40.0135 32.5396 41.1707 32.8408L42.6821 27.0343C41.0311 26.6045 39.3257 26.3857 37.6097 26.3857L37.6097 32.3857ZM41.5866 32.9182C43.1667 33.0984 44.672 33.7659 45.8557 34.901L50.0087 30.5706C47.8237 28.4751 45.0761 27.2772 42.2662 26.9568L41.5866 32.9182ZM45.8557 34.901L54.1748 42.8792L58.3278 38.5488L50.0087 30.5705L45.8557 34.901ZM58.3278 42.8792L66.6467 34.9012L62.4937 30.5708L54.1748 38.5488L58.3278 42.8792ZM66.6467 34.9012C67.828 33.7683 69.3297 33.1013 70.9063 32.9195L70.2193 26.959C67.4153 27.2822 64.6743 28.4796 62.4937 30.5708L66.6467 34.9012Z" fill="black"/>
</svg>
