<svg width="119" height="119" viewBox="0 0 119 119" fill="none" xmlns="http://www.w3.org/2000/svg">
<mask id="path-1-outside-1" maskUnits="userSpaceOnUse" x="1.447" y="-1.23348" width="118.087" height="118.087" fill="black">
<rect fill="white" x="1.447" y="-1.23348" width="118.087" height="118.087"/>
<path fill-rule="evenodd" clip-rule="evenodd" d="M56.6917 67.656C65.9245 73.2722 79.6418 70.7569 89.3807 61.0181C100.448 49.9506 102.187 33.7452 93.2637 24.8223C84.3409 15.8994 68.1355 17.638 57.068 28.7054C47.3297 38.4438 44.8142 52.1601 50.4292 61.3928C41.5498 69.012 32.7852 77.014 29.7221 80.0771C23.5513 86.2479 25.1399 87.7544 27.205 89.7128C27.4007 89.8984 27.6007 90.088 27.7987 90.2861C27.9968 90.4842 28.1865 90.6842 28.3721 90.8799C30.3304 92.9449 31.837 94.5335 38.0078 88.3628C41.0708 85.2997 49.0726 76.5353 56.6917 67.656Z"/>
</mask>
<path fill-rule="evenodd" clip-rule="evenodd" d="M56.6917 67.656C65.9245 73.2722 79.6418 70.7569 89.3807 61.0181C100.448 49.9506 102.187 33.7452 93.2637 24.8223C84.3409 15.8994 68.1355 17.638 57.068 28.7054C47.3297 38.4438 44.8142 52.1601 50.4292 61.3928C41.5498 69.012 32.7852 77.014 29.7221 80.0771C23.5513 86.2479 25.1399 87.7544 27.205 89.7128C27.4007 89.8984 27.6007 90.088 27.7987 90.2861C27.9968 90.4842 28.1865 90.6842 28.3721 90.8799C30.3304 92.9449 31.837 94.5335 38.0078 88.3628C41.0708 85.2997 49.0726 76.5353 56.6917 67.656Z" fill="#FFBA09"/>
<path d="M56.6917 67.656L60.3296 61.6755L55.2506 58.586L51.3794 63.0976L56.6917 67.656ZM50.4292 61.3928L54.9876 66.7052L59.4987 62.8343L56.41 57.7555L50.4292 61.3928ZM27.205 89.7128L32.0218 84.6336L32.0217 84.6335L27.205 89.7128ZM28.3721 90.8799L33.4513 86.0631L33.4513 86.0631L28.3721 90.8799ZM84.4309 56.0683C76.313 64.1862 66.0784 65.1725 60.3296 61.6755L53.0539 73.6364C65.7706 81.3719 82.9706 77.3276 94.3304 65.9678L84.4309 56.0683ZM88.314 29.7721C93.5609 35.019 93.8135 46.6857 84.4309 56.0683L94.3304 65.9678C107.083 53.2155 110.812 32.4715 98.2135 19.8726L88.314 29.7721ZM62.0178 33.6552C71.4004 24.2726 83.0671 24.5252 88.314 29.7721L98.2135 19.8726C85.6146 7.27371 64.8706 11.0034 52.1183 23.7557L62.0178 33.6552ZM56.41 57.7555C52.9137 52.0066 53.9003 41.7726 62.0178 33.6552L52.1183 23.7557C40.759 35.1149 36.7146 52.3135 44.4484 65.0301L56.41 57.7555ZM45.8708 56.0805C36.9496 63.7355 28.0254 71.8742 24.7723 75.1273L34.6718 85.0268C37.5449 82.1538 46.1499 74.2886 54.9876 66.7052L45.8708 56.0805ZM24.7723 75.1273C23.0628 76.8369 21.6437 78.4634 20.5939 80.053C19.5632 81.6137 18.592 83.5801 18.3993 85.8933C17.9602 91.1617 21.8828 94.3127 22.3882 94.792L32.0217 84.6335C31.7371 84.3636 31.6211 84.2514 31.5381 84.164C31.4663 84.0886 31.5494 84.165 31.679 84.359C31.8202 84.5702 32.0331 84.9446 32.1858 85.4668C32.3441 86.0084 32.3925 86.5562 32.3509 87.0559C32.2742 87.9763 31.9338 88.2867 32.2762 87.7681C32.5996 87.2786 33.296 86.4027 34.6718 85.0268L24.7723 75.1273ZM22.3881 94.792C22.594 94.9871 22.7271 95.1139 22.849 95.2358L32.7485 85.3363C32.4742 85.0621 32.2074 84.8096 32.0218 84.6336L22.3881 94.792ZM22.849 95.2358C22.9709 95.3577 23.0977 95.4909 23.2929 95.6967L33.4513 86.0631C33.2753 85.8775 33.0227 85.6106 32.7485 85.3363L22.849 95.2358ZM23.2928 95.6967C23.7721 96.2021 26.9231 100.125 32.1916 99.6856C34.5048 99.4928 36.4712 98.5216 38.0319 97.4909C39.6215 96.4411 41.248 95.022 42.9575 93.3125L33.058 83.413C31.6821 84.7889 30.8063 85.4853 30.3167 85.8086C29.7982 86.1511 30.1085 85.8106 31.0289 85.7339C31.5286 85.6923 32.0764 85.7408 32.618 85.8991C33.1403 86.0517 33.5146 86.2646 33.7259 86.4058C33.9198 86.5354 33.9962 86.6186 33.9208 86.5468C33.8335 86.4637 33.7213 86.3478 33.4513 86.0631L23.2928 95.6967ZM42.9575 93.3125C46.2106 90.0594 54.3491 81.1354 62.0041 72.2144L51.3794 63.0976C43.7961 71.9352 35.931 80.54 33.058 83.413L42.9575 93.3125Z" fill="black" mask="url(#path-1-outside-1)"/>
<ellipse cx="73.2249" cy="44.8609" rx="16.697" ry="20.71" transform="rotate(45 73.2249 44.8609)" fill="#0094FF"/>
<mask id="mask0" mask-type="alpha" maskUnits="userSpaceOnUse" x="54" y="26" width="39" height="38">
<ellipse cx="73.2249" cy="44.8609" rx="16.697" ry="20.71" transform="rotate(45 73.2249 44.8609)" fill="#0094FF"/>
</mask>
<g mask="url(#mask0)">
<rect x="49.2979" y="37.6738" width="48.0651" height="8.73431" fill="white" fill-opacity="0.5"/>
<rect x="46.6553" y="61.4004" width="48.0651" height="4.39115" fill="white" fill-opacity="0.5"/>
</g>
</svg>
