<svg width="111" height="111" viewBox="0 0 111 111" fill="none" xmlns="http://www.w3.org/2000/svg">
<path d="M24.0414 44.1879C25.5275 39.5591 32.0767 39.5591 33.5627 44.1879L38.8392 60.6231C39.8753 63.8503 37.468 67.1515 34.0786 67.1515H23.5256C20.1361 67.1515 17.7288 63.8503 18.7649 60.6231L24.0414 44.1879Z" stroke="black" stroke-width="6"/>
<path d="M78.4379 29.5844C79.924 24.9556 86.4732 24.9556 87.9592 29.5844L93.2357 46.0196C94.2718 49.2468 91.8645 52.548 88.475 52.548H77.9221C74.5326 52.548 72.1253 49.2468 73.1614 46.0196L78.4379 29.5844Z" stroke="black" stroke-width="6"/>
<path fill-rule="evenodd" clip-rule="evenodd" d="M23.3252 36.4335C22.681 34.0764 24.0837 31.6466 26.4471 31.0257L81.6013 16.5359C83.9319 15.9236 86.3208 17.3027 86.956 19.6271V19.6271C87.6002 21.9842 86.1975 24.414 83.8341 25.0349L64.2431 30.1818C62.0455 30.7591 60.5135 32.7455 60.5135 35.0177V82.0293C60.5135 84.7907 62.7521 87.0293 65.5135 87.0293H72.0815C74.6602 87.0293 76.7507 89.1198 76.7507 91.6985V91.6985C76.7507 94.2773 74.6602 96.3677 72.0815 96.3677H39.3682C36.7895 96.3677 34.699 94.2773 34.699 91.6985V91.6985C34.699 89.1198 36.7895 87.0293 39.3682 87.0293H46.5552C49.3166 87.0293 51.5552 84.7907 51.5552 82.0293L51.5552 39.9983C51.5552 36.7208 48.4547 34.3296 45.2847 35.1624L28.6799 39.5247C26.3493 40.137 23.9604 38.7579 23.3252 36.4335V36.4335ZM37.0025 63.0613C39.7639 63.0613 42.0887 65.3825 41.0314 67.9335C40.3738 69.5201 39.3954 70.9782 38.1363 72.2127C35.6609 74.6398 32.3035 76.0033 28.8027 76.0033C25.3019 76.0033 21.9444 74.6398 19.469 72.2127C18.21 70.9782 17.2315 69.5201 16.574 67.9335C15.5167 65.3825 17.8414 63.0613 20.6029 63.0613H28.8027H37.0025ZM92.2665 59.0262C93.5255 57.7918 94.5039 56.3336 95.1615 54.747C96.2188 52.196 93.894 49.8749 91.1326 49.8749H82.9328H74.733C71.9716 49.8749 69.6468 52.196 70.7041 54.747C71.3616 56.3336 72.3401 57.7918 73.5991 59.0262C76.0746 61.4533 79.432 62.8168 82.9328 62.8168C86.4336 62.8168 89.791 61.4533 92.2665 59.0262Z" fill="#FFBA09"/>
<path d="M38.1363 72.2127L40.2366 74.3548L40.2366 74.3548L38.1363 72.2127ZM19.469 72.2127L17.3687 74.3548L17.3687 74.3548L19.469 72.2127ZM92.2665 59.0262L90.1662 56.8841L90.1662 56.8841L92.2665 59.0262ZM16.574 67.9335L13.8026 69.0821L16.574 67.9335ZM28.6799 39.5247L27.9176 36.6232L28.6799 39.5247ZM51.5552 39.9983L54.5552 39.9983L51.5552 39.9983ZM45.2847 35.1624L44.5224 32.2608L45.2847 35.1624ZM64.2431 30.1818L63.4808 27.2802L64.2431 30.1818ZM80.8391 13.6343L25.6848 28.1242L27.2093 33.9272L82.3636 19.4374L80.8391 13.6343ZM65.0053 33.0833L84.5964 27.9364L83.0719 22.1334L63.4808 27.2802L65.0053 33.0833ZM63.5135 82.0293V35.0177H57.5135V82.0293H63.5135ZM72.0815 84.0293H65.5135V90.0293H72.0815V84.0293ZM39.3682 99.3677H72.0815V93.3677H39.3682V99.3677ZM46.5552 84.0293H39.3682V90.0293H46.5552V84.0293ZM48.5552 39.9983L48.5552 82.0293L54.5552 82.0293L54.5552 39.9983L48.5552 39.9983ZM29.4421 42.4263L46.047 38.0639L44.5224 32.2608L27.9176 36.6232L29.4421 42.4263ZM40.2366 74.3548C41.7847 72.837 42.991 71.0407 43.8028 69.0821L38.26 66.7849C37.7566 67.9994 37.0061 69.1194 36.0361 70.0705L40.2366 74.3548ZM28.8027 79.0033C33.0802 79.0033 37.1942 77.3378 40.2366 74.3548L36.0361 70.0705C34.1276 71.9417 31.5267 73.0033 28.8027 73.0033V79.0033ZM17.3687 74.3548C20.4111 77.3378 24.5251 79.0033 28.8027 79.0033V73.0033C26.0786 73.0033 23.4778 71.9417 21.5693 70.0705L17.3687 74.3548ZM13.8026 69.0821C14.6143 71.0407 15.8207 72.837 17.3687 74.3548L21.5693 70.0705C20.5992 69.1194 19.8487 67.9994 19.3454 66.7849L13.8026 69.0821ZM28.8027 60.0613H20.6029V66.0613H28.8027V60.0613ZM37.0025 60.0613H28.8027V66.0613H37.0025V60.0613ZM92.3901 53.5984C91.8867 54.8129 91.1362 55.9329 90.1662 56.8841L94.3667 61.1683C95.9148 59.6506 97.1211 57.8543 97.9329 55.8957L92.3901 53.5984ZM82.9328 52.8749H91.1326V46.8749H82.9328V52.8749ZM74.733 52.8749H82.9328V46.8749H74.733V52.8749ZM75.6994 56.8841C74.7293 55.9329 73.9788 54.8129 73.4755 53.5984L67.9327 55.8957C68.7444 57.8543 69.9508 59.6506 71.4988 61.1683L75.6994 56.8841ZM82.9328 59.8168C80.2087 59.8168 77.6079 58.7553 75.6994 56.8841L71.4988 61.1683C74.5412 64.1513 78.6552 65.8168 82.9328 65.8168V59.8168ZM90.1662 56.8841C88.2577 58.7553 85.6568 59.8168 82.9328 59.8168V65.8168C87.2104 65.8168 91.3244 64.1513 94.3667 61.1683L90.1662 56.8841ZM74.733 46.8749C72.5455 46.8749 70.4362 47.7854 69.038 49.3683C67.5721 51.0279 66.9169 53.4447 67.9327 55.8957L73.4755 53.5984C73.4495 53.5357 73.445 53.5014 73.444 53.4927C73.4435 53.4873 73.4436 53.4849 73.4436 53.4848C73.4436 53.4846 73.4436 53.4845 73.4437 53.4839C73.4438 53.4836 73.4458 53.4724 73.4576 53.4494C73.4698 53.4256 73.4931 53.3878 73.535 53.3404C73.7253 53.1249 74.159 52.8749 74.733 52.8749V46.8749ZM97.9329 55.8957C98.9487 53.4447 98.2934 51.0279 96.8275 49.3683C95.4294 47.7854 93.3201 46.8749 91.1326 46.8749V52.8749C91.7065 52.8749 92.1403 53.1249 92.3306 53.3404C92.3725 53.3878 92.3958 53.4256 92.408 53.4494C92.4197 53.4724 92.4218 53.4836 92.4218 53.4839C92.422 53.4845 92.422 53.4846 92.422 53.4848C92.422 53.4849 92.4221 53.4873 92.4215 53.4927C92.4206 53.5014 92.4161 53.5357 92.3901 53.5984L97.9329 55.8957ZM19.3454 66.7849C19.3194 66.7221 19.3148 66.6879 19.3139 66.6792C19.3134 66.6738 19.3135 66.6714 19.3135 66.6712C19.3135 66.6711 19.3135 66.671 19.3136 66.6703C19.3137 66.67 19.3157 66.6588 19.3275 66.6358C19.3396 66.612 19.363 66.5743 19.4049 66.5268C19.5952 66.3114 20.0289 66.0613 20.6029 66.0613V60.0613C18.4154 60.0613 16.306 60.9719 14.9079 62.5548C13.442 64.2144 12.7867 66.6312 13.8026 69.0821L19.3454 66.7849ZM43.8028 69.0821C44.8186 66.6312 44.1633 64.2144 42.6974 62.5548C41.2993 60.9719 39.19 60.0613 37.0025 60.0613V66.0613C37.5764 66.0613 38.0102 66.3114 38.2005 66.5268C38.2424 66.5743 38.2657 66.612 38.2779 66.6358C38.2896 66.6588 38.2917 66.67 38.2917 66.6703C38.2919 66.671 38.2918 66.671 38.2919 66.6712C38.2919 66.6714 38.292 66.6738 38.2914 66.6792C38.2905 66.6879 38.286 66.7221 38.26 66.7849L43.8028 69.0821ZM27.9176 36.6232C27.1783 36.8174 26.4206 36.3799 26.219 35.6426L20.4313 37.2243C21.5003 41.1359 25.5203 43.4566 29.4421 42.4263L27.9176 36.6232ZM54.5552 39.9983C54.5552 34.7543 49.5944 30.9284 44.5224 32.2608L46.047 38.0639C47.315 37.7308 48.5552 38.6873 48.5552 39.9983L54.5552 39.9983ZM46.5552 90.0293C50.9735 90.0293 54.5552 86.4476 54.5552 82.0293L48.5552 82.0293C48.5552 83.1339 47.6598 84.0293 46.5552 84.0293V90.0293ZM37.699 91.6985C37.699 90.7766 38.4463 90.0293 39.3682 90.0293V84.0293C35.1326 84.0293 31.699 87.4629 31.699 91.6985H37.699ZM39.3682 93.3677C38.4463 93.3677 37.699 92.6204 37.699 91.6985H31.699C31.699 95.9341 35.1326 99.3677 39.3682 99.3677V93.3677ZM73.7507 91.6985C73.7507 92.6204 73.0034 93.3677 72.0815 93.3677V99.3677C76.3171 99.3677 79.7507 95.9341 79.7507 91.6985H73.7507ZM72.0815 90.0293C73.0034 90.0293 73.7507 90.7766 73.7507 91.6985H79.7507C79.7507 87.4629 76.3171 84.0293 72.0815 84.0293V90.0293ZM57.5135 82.0293C57.5135 86.4476 61.0952 90.0293 65.5135 90.0293V84.0293C64.409 84.0293 63.5135 83.1339 63.5135 82.0293H57.5135ZM63.4808 27.2802C59.9647 28.2039 57.5135 31.3823 57.5135 35.0177H63.5135C63.5135 34.1088 64.1263 33.3142 65.0053 33.0833L63.4808 27.2802ZM84.0622 20.418C84.2665 21.1657 83.8215 21.9364 83.0719 22.1334L84.5964 27.9364C88.5734 26.8916 90.9339 22.8027 89.8499 18.8362L84.0622 20.418ZM25.6848 28.1242C21.7078 29.169 19.3473 33.2578 20.4313 37.2243L26.219 35.6426C26.0147 34.8949 26.4597 34.1242 27.2093 33.9272L25.6848 28.1242ZM82.3636 19.4374C83.1029 19.2432 83.8607 19.6806 84.0622 20.418L89.8499 18.8362C88.7809 14.9247 84.7609 12.604 80.8391 13.6343L82.3636 19.4374Z" fill="black"/>
</svg>
