<svg width="111" height="111" viewBox="0 0 111 111" fill="none" xmlns="http://www.w3.org/2000/svg">
<path fill-rule="evenodd" clip-rule="evenodd" d="M53.4406 55.2864C52.7051 55.0091 52.5077 54.0228 53.0508 53.4544C55.8536 50.5211 57.5682 46.5874 57.5682 42.2637C57.5682 33.1909 50.0189 25.8359 40.7064 25.8359C31.3939 25.8359 23.8447 33.1909 23.8447 42.2637C23.8447 46.5878 25.5595 50.5216 28.3627 53.4551C28.9058 54.0234 28.7085 55.0096 27.9729 55.2871C27.7171 55.3836 27.4623 55.483 27.2085 55.5854C22.9288 57.3125 19.0401 59.8439 15.7645 63.0352C12.489 66.2265 9.89064 70.015 8.11791 74.1846C6.47621 78.046 5.57235 82.1641 5.44771 86.3364C5.43121 86.8884 5.88049 87.3362 6.43278 87.3362L40.7076 87.3362L74.9824 87.3363C75.5347 87.3363 75.984 86.8884 75.9675 86.3364C75.8429 82.1642 74.939 78.046 73.2973 74.1846C71.5246 70.015 68.9263 66.2265 65.6507 63.0352C62.3751 59.844 58.4865 57.3125 54.2067 55.5854C53.9524 55.4828 53.697 55.3831 53.4406 55.2864Z" fill="#0094FF"/>
<path d="M27.2085 55.5854L26.0858 52.8034L26.0858 52.8034L27.2085 55.5854ZM15.7645 63.0352L13.6711 60.8864L13.6711 60.8864L15.7645 63.0352ZM8.11791 74.1846L5.35708 73.0108L5.35708 73.0108L8.11791 74.1846ZM40.7076 87.3362L40.7076 84.3362L40.7076 84.3362L40.7076 87.3362ZM73.2973 74.1846L70.5365 75.3584L70.5365 75.3584L73.2973 74.1846ZM65.6507 63.0352L67.7442 60.8864L67.7442 60.8864L65.6507 63.0352ZM54.2067 55.5854L55.3294 52.8034L55.3294 52.8034L54.2067 55.5854ZM74.9824 87.3363L74.9824 84.3363L74.9824 87.3363ZM75.9675 86.3364L72.9689 86.4259L75.9675 86.3364ZM6.43278 87.3362L6.43277 90.3362L6.43278 87.3362ZM27.9729 55.2871L26.9142 52.4801L27.9729 55.2871ZM53.4406 55.2864L54.4992 52.4794L53.4406 55.2864ZM54.5682 42.2637C54.5682 45.7749 53.1799 48.9767 50.8817 51.3819L55.2198 55.527C58.5273 52.0654 60.5682 47.4 60.5682 42.2637H54.5682ZM40.7064 28.8359C48.4363 28.8359 54.5682 34.921 54.5682 42.2637H60.5682C60.5682 31.4608 51.6015 22.8359 40.7064 22.8359V28.8359ZM26.8447 42.2637C26.8447 34.921 32.9766 28.8359 40.7064 28.8359V22.8359C29.8113 22.8359 20.8447 31.4608 20.8447 42.2637H26.8447ZM30.5316 51.3824C28.2331 48.9772 26.8447 45.7751 26.8447 42.2637H20.8447C20.8447 47.4004 22.8858 52.0661 26.1938 55.5277L30.5316 51.3824ZM28.3312 58.3674C28.5637 58.2736 28.7972 58.1825 29.0316 58.0941L26.9142 52.4801C26.637 52.5846 26.3608 52.6924 26.0858 52.8034L28.3312 58.3674ZM17.858 65.184C20.8516 62.2675 24.4097 59.9499 28.3312 58.3674L26.0858 52.8034C21.4478 54.6751 17.2286 57.4204 13.6711 60.8864L17.858 65.184ZM10.8787 75.3584C12.4944 71.5584 14.8646 68.1004 17.858 65.184L13.6711 60.8864C10.1133 64.3526 7.28691 68.4717 5.35708 73.0108L10.8787 75.3584ZM8.44637 86.4259C8.55983 82.628 9.38259 78.8775 10.8787 75.3584L5.35708 73.0108C3.56983 77.2145 2.58487 81.7003 2.44904 86.2468L8.44637 86.4259ZM40.7076 84.3362L6.43278 84.3362L6.43277 90.3362L40.7076 90.3362L40.7076 84.3362ZM74.9824 84.3363L40.7076 84.3362L40.7076 90.3362L74.9824 90.3363L74.9824 84.3363ZM70.5365 75.3584C72.0326 78.8775 72.8554 82.628 72.9689 86.4259L78.9662 86.2468C78.8304 81.7003 77.8454 77.2146 76.0581 73.0108L70.5365 75.3584ZM63.5572 65.184C66.5506 68.1004 68.9209 71.5584 70.5365 75.3584L76.0581 73.0108C74.1283 68.4717 71.3019 64.3526 67.7442 60.8864L63.5572 65.184ZM53.084 58.3674C57.0055 59.9499 60.5636 62.2675 63.5572 65.184L67.7442 60.8864C64.1866 57.4204 59.9674 54.6751 55.3294 52.8034L53.084 58.3674ZM52.3821 58.0935C52.617 58.1821 52.851 58.2734 53.084 58.3674L55.3294 52.8034C55.0538 52.6922 54.777 52.5842 54.4992 52.4794L52.3821 58.0935ZM74.9824 90.3363C77.1673 90.3363 79.0349 88.5488 78.9662 86.2468L72.9689 86.4259C72.9331 85.228 73.9022 84.3362 74.9824 84.3363L74.9824 90.3363ZM2.44904 86.2468C2.38027 88.5488 4.24793 90.3362 6.43277 90.3362L6.43278 84.3362C7.51305 84.3362 8.48216 85.228 8.44637 86.4259L2.44904 86.2468ZM26.1938 55.5277C25.7159 55.0277 25.603 54.3835 25.7103 53.8683C25.8196 53.3439 26.2053 52.7475 26.9142 52.4801L29.0316 58.0941C31.9025 57.0113 32.4677 53.4085 30.5316 51.3824L26.1938 55.5277ZM50.8817 51.3819C48.9457 53.4081 49.5111 57.0108 52.3821 58.0935L54.4992 52.4794C55.2082 52.7468 55.5938 53.3431 55.7031 53.8676C55.8105 54.3827 55.6976 55.0269 55.2198 55.527L50.8817 51.3819Z" fill="black"/>
<path d="M100.442 37.792C101.509 37.792 102.405 38.1547 103.13 38.88C103.856 39.6053 104.218 40.5013 104.218 41.568C104.218 42.6347 103.856 43.552 103.13 44.32C102.405 45.0453 101.509 45.408 100.442 45.408H92.3783V53.408C92.3783 54.4747 92.0157 55.3707 91.2903 56.096C90.6077 56.8213 89.7117 57.184 88.6023 57.184C87.5357 57.184 86.6397 56.8213 85.9143 56.096C85.189 55.3707 84.8263 54.4747 84.8263 53.408V45.408H76.7623C75.6957 45.408 74.7997 45.0453 74.0743 44.32C73.349 43.552 72.9863 42.6347 72.9863 41.568C72.9863 40.5013 73.349 39.6053 74.0743 38.88C74.7997 38.1547 75.6957 37.792 76.7623 37.792H84.8263V29.728C84.8263 28.6613 85.189 27.7653 85.9143 27.04C86.6397 26.3147 87.5357 25.952 88.6023 25.952C89.669 25.952 90.565 26.3147 91.2903 27.04C92.0157 27.7653 92.3783 28.6613 92.3783 29.728V37.792H100.442Z" fill="black"/>
</svg>
