<svg width="345" height="311" viewBox="0 0 345 311" fill="none" xmlns="http://www.w3.org/2000/svg">
<mask id="path-1-outside-1" maskUnits="userSpaceOnUse" x="0.700195" y="0" width="345" height="311" fill="black">
<rect fill="white" x="0.700195" width="345" height="311"/>
<path fill-rule="evenodd" clip-rule="evenodd" d="M338 12C338 9.23858 335.761 7 333 7H30.9997C28.2383 7 25.9997 9.23858 25.9997 12V31.6576C25.9997 32.7229 25.6595 33.7603 25.0287 34.6187L8.67126 56.8755C7.3836 58.6275 7.37586 61.0109 8.65212 62.7713L25.0478 85.3864C25.6666 86.2399 25.9997 87.2671 25.9997 88.3212V299C25.9997 301.761 28.2383 304 30.9997 304H333C335.761 304 338 301.761 338 299V12Z"/>
</mask>
<path fill-rule="evenodd" clip-rule="evenodd" d="M338 12C338 9.23858 335.761 7 333 7H30.9997C28.2383 7 25.9997 9.23858 25.9997 12V31.6576C25.9997 32.7229 25.6595 33.7603 25.0287 34.6187L8.67126 56.8755C7.3836 58.6275 7.37586 61.0109 8.65212 62.7713L25.0478 85.3864C25.6666 86.2399 25.9997 87.2671 25.9997 88.3212V299C25.9997 301.761 28.2383 304 30.9997 304H333C335.761 304 338 301.761 338 299V12Z" fill="white"/>
<path d="M8.67126 56.8755L3.03075 52.73L8.67126 56.8755ZM8.65212 62.7713L14.3194 58.6626L8.65212 62.7713ZM30.9997 14H333V0H30.9997V14ZM32.9997 31.6576V12H18.9997V31.6576H32.9997ZM19.3882 30.4732L3.03075 52.73L14.3118 61.0209L30.6692 38.7641L19.3882 30.4732ZM2.98481 66.88L19.3805 89.4952L30.7151 81.2777L14.3194 58.6626L2.98481 66.88ZM32.9997 299V88.3212H18.9997V299H32.9997ZM333 297H30.9997V311H333V297ZM331 12V299H345V12H331ZM333 311C339.627 311 345 305.627 345 299H331C331 297.895 331.895 297 333 297V311ZM18.9997 299C18.9997 305.627 24.3723 311 30.9997 311V297C32.1043 297 32.9997 297.895 32.9997 299H18.9997ZM19.3805 89.4952C19.133 89.1538 18.9997 88.7429 18.9997 88.3212H32.9997C32.9997 85.7912 32.2001 83.326 30.7151 81.2777L19.3805 89.4952ZM3.03075 52.73C-0.0596316 56.935 -0.0781998 62.6551 2.98481 66.88L14.3194 58.6626C14.8299 59.3667 14.8268 60.3201 14.3118 61.0209L3.03075 52.73ZM18.9997 31.6576C18.9997 31.2315 19.1358 30.8166 19.3882 30.4732L30.6692 38.7641C32.1832 36.704 32.9997 34.2142 32.9997 31.6576H18.9997ZM333 14C331.895 14 331 13.1046 331 12H345C345 5.37257 339.627 0 333 0V14ZM30.9997 0C24.3723 0 18.9997 5.3726 18.9997 12H32.9997C32.9997 13.1046 32.1043 14 30.9997 14V0Z" fill="black" mask="url(#path-1-outside-1)"/>
</svg>
