<svg width="361" height="368" viewBox="0 0 361 368" fill="none" xmlns="http://www.w3.org/2000/svg">
<mask id="path-1-outside-1" maskUnits="userSpaceOnUse" x="159.195" y="0" width="201" height="127" fill="black">
<rect fill="white" x="159.195" width="201" height="127"/>
<path fill-rule="evenodd" clip-rule="evenodd" d="M353.195 12C353.195 9.23858 350.957 7 348.195 7H171.195C168.434 7 166.195 9.23858 166.195 12V92C166.195 94.7614 168.434 97 171.195 97H192.195C194.957 97 197.195 99.2386 197.195 102V114.07C197.195 118.178 201.873 120.533 205.173 118.087L232.298 97.9831C233.159 97.3446 234.203 97 235.275 97H348.195C350.957 97 353.195 94.7614 353.195 92V12Z"/>
</mask>
<path fill-rule="evenodd" clip-rule="evenodd" d="M353.195 12C353.195 9.23858 350.957 7 348.195 7H171.195C168.434 7 166.195 9.23858 166.195 12V92C166.195 94.7614 168.434 97 171.195 97H192.195C194.957 97 197.195 99.2386 197.195 102V114.07C197.195 118.178 201.873 120.533 205.173 118.087L232.298 97.9831C233.159 97.3446 234.203 97 235.275 97H348.195C350.957 97 353.195 94.7614 353.195 92V12Z" fill="white"/>
<path d="M232.298 97.9831L228.129 92.3593L232.298 97.9831ZM205.173 118.087L201.004 112.464L205.173 118.087ZM171.195 14H348.195V0H171.195V14ZM173.195 92V12H159.195V92H173.195ZM192.195 90H171.195V104H192.195V90ZM204.195 114.07V102H190.195V114.07H204.195ZM228.129 92.3593L201.004 112.464L209.341 123.711L236.466 103.607L228.129 92.3593ZM348.195 90H235.275V104H348.195V90ZM346.195 12V92H360.195V12H346.195ZM348.195 104C354.823 104 360.195 98.6274 360.195 92H346.195C346.195 90.8954 347.091 90 348.195 90V104ZM236.466 103.607C236.121 103.862 235.704 104 235.275 104V90C232.702 90 230.197 90.8271 228.129 92.3593L236.466 103.607ZM190.195 114.07C190.195 123.928 201.422 129.581 209.341 123.711L201.004 112.464C202.324 111.485 204.195 112.428 204.195 114.07H190.195ZM192.195 104C191.091 104 190.195 103.105 190.195 102H204.195C204.195 95.3726 198.823 90 192.195 90V104ZM159.195 92C159.195 98.6274 164.568 104 171.195 104V90C172.3 90 173.195 90.8954 173.195 92H159.195ZM348.195 14C347.091 14 346.195 13.1046 346.195 12H360.195C360.195 5.37258 354.823 0 348.195 0V14ZM171.195 0C164.568 0 159.195 5.37259 159.195 12H173.195C173.195 13.1046 172.3 14 171.195 14V0Z" fill="black" mask="url(#path-1-outside-1)"/>
<path d="M218.778 33.896C218.89 33.576 219.066 33.336 219.306 33.176C219.562 33.016 219.842 32.936 220.146 32.936C220.53 32.936 220.858 33.056 221.13 33.296C221.418 33.536 221.562 33.856 221.562 34.256C221.562 34.4 221.522 34.608 221.442 34.88L216.282 49.16C216.154 49.48 215.938 49.728 215.634 49.904C215.346 50.08 215.026 50.168 214.674 50.168C214.322 50.168 213.994 50.08 213.69 49.904C213.386 49.728 213.178 49.48 213.066 49.16L209.082 37.856L205.026 49.16C204.898 49.48 204.682 49.728 204.378 49.904C204.09 50.08 203.77 50.168 203.418 50.168C203.066 50.168 202.738 50.08 202.434 49.904C202.146 49.728 201.946 49.48 201.834 49.16L196.674 34.88C196.594 34.64 196.554 34.432 196.554 34.256C196.554 33.856 196.698 33.536 196.986 33.296C197.29 33.056 197.642 32.936 198.042 32.936C198.362 32.936 198.65 33.016 198.906 33.176C199.162 33.336 199.346 33.576 199.458 33.896L203.538 45.632L207.738 33.968C207.85 33.648 208.034 33.4 208.29 33.224C208.546 33.032 208.826 32.936 209.13 32.936C209.434 32.936 209.714 33.032 209.97 33.224C210.242 33.4 210.434 33.656 210.546 33.992L214.626 45.776L218.778 33.896ZM231.491 46.784C231.763 46.784 231.979 46.888 232.139 47.096C232.315 47.304 232.403 47.584 232.403 47.936C232.403 48.432 232.107 48.848 231.515 49.184C230.971 49.488 230.355 49.736 229.667 49.928C228.979 50.104 228.323 50.192 227.699 50.192C225.811 50.192 224.315 49.648 223.211 48.56C222.107 47.472 221.555 45.984 221.555 44.096C221.555 42.896 221.795 41.832 222.275 40.904C222.755 39.976 223.427 39.256 224.291 38.744C225.171 38.232 226.163 37.976 227.267 37.976C228.323 37.976 229.243 38.208 230.027 38.672C230.811 39.136 231.419 39.792 231.851 40.64C232.283 41.488 232.499 42.488 232.499 43.64C232.499 44.328 232.195 44.672 231.587 44.672H224.507C224.603 45.776 224.915 46.592 225.443 47.12C225.971 47.632 226.739 47.888 227.747 47.888C228.259 47.888 228.707 47.824 229.091 47.696C229.491 47.568 229.939 47.392 230.435 47.168C230.915 46.912 231.267 46.784 231.491 46.784ZM227.339 40.088C226.523 40.088 225.867 40.344 225.371 40.856C224.891 41.368 224.603 42.104 224.507 43.064H229.931C229.899 42.088 229.659 41.352 229.211 40.856C228.763 40.344 228.139 40.088 227.339 40.088ZM236.081 50.144C235.649 50.144 235.289 50.024 235.001 49.784C234.729 49.528 234.593 49.168 234.593 48.704V34.376C234.593 33.912 234.729 33.56 235.001 33.32C235.289 33.08 235.649 32.96 236.081 32.96C236.513 32.96 236.873 33.08 237.161 33.32C237.449 33.56 237.593 33.912 237.593 34.376V48.704C237.593 49.168 237.449 49.528 237.161 49.784C236.873 50.024 236.513 50.144 236.081 50.144ZM245.535 50.192C244.367 50.192 243.335 49.944 242.439 49.448C241.559 48.952 240.879 48.248 240.399 47.336C239.919 46.424 239.679 45.36 239.679 44.144C239.679 42.928 239.927 41.856 240.423 40.928C240.935 39.984 241.647 39.256 242.559 38.744C243.471 38.232 244.519 37.976 245.703 37.976C246.327 37.976 246.951 38.064 247.575 38.24C248.215 38.416 248.775 38.656 249.255 38.96C249.767 39.296 250.023 39.72 250.023 40.232C250.023 40.584 249.935 40.872 249.759 41.096C249.599 41.304 249.383 41.408 249.111 41.408C248.935 41.408 248.751 41.368 248.559 41.288C248.367 41.208 248.175 41.112 247.983 41C247.631 40.792 247.295 40.632 246.975 40.52C246.655 40.392 246.287 40.328 245.871 40.328C244.879 40.328 244.111 40.656 243.567 41.312C243.039 41.952 242.775 42.88 242.775 44.096C242.775 45.296 243.039 46.224 243.567 46.88C244.111 47.52 244.879 47.84 245.871 47.84C246.271 47.84 246.623 47.784 246.927 47.672C247.247 47.544 247.599 47.376 247.983 47.168C248.223 47.024 248.431 46.92 248.607 46.856C248.783 46.776 248.959 46.736 249.135 46.736C249.391 46.736 249.607 46.848 249.783 47.072C249.959 47.296 250.047 47.576 250.047 47.912C250.047 48.184 249.983 48.424 249.855 48.632C249.743 48.824 249.551 49 249.279 49.16C248.783 49.48 248.207 49.736 247.551 49.928C246.895 50.104 246.223 50.192 245.535 50.192ZM257.038 50.192C255.838 50.192 254.782 49.944 253.87 49.448C252.974 48.952 252.278 48.24 251.782 47.312C251.286 46.384 251.038 45.304 251.038 44.072C251.038 42.84 251.286 41.768 251.782 40.856C252.278 39.928 252.974 39.216 253.87 38.72C254.782 38.224 255.838 37.976 257.038 37.976C258.238 37.976 259.286 38.224 260.182 38.72C261.094 39.216 261.79 39.928 262.27 40.856C262.766 41.768 263.014 42.84 263.014 44.072C263.014 45.304 262.766 46.384 262.27 47.312C261.79 48.24 261.094 48.952 260.182 49.448C259.286 49.944 258.238 50.192 257.038 50.192ZM257.014 47.864C257.99 47.864 258.734 47.544 259.246 46.904C259.758 46.264 260.014 45.32 260.014 44.072C260.014 42.84 259.758 41.904 259.246 41.264C258.734 40.608 257.998 40.28 257.038 40.28C256.078 40.28 255.334 40.608 254.806 41.264C254.294 41.904 254.038 42.84 254.038 44.072C254.038 45.32 254.294 46.264 254.806 46.904C255.318 47.544 256.054 47.864 257.014 47.864ZM279.074 37.976C280.354 37.976 281.33 38.36 282.002 39.128C282.69 39.88 283.034 41.104 283.034 42.8V48.704C283.034 49.168 282.89 49.528 282.602 49.784C282.33 50.024 281.97 50.144 281.522 50.144C281.09 50.144 280.73 50.024 280.442 49.784C280.17 49.528 280.034 49.168 280.034 48.704V42.8C280.034 41.92 279.874 41.296 279.554 40.928C279.25 40.544 278.778 40.352 278.138 40.352C277.354 40.352 276.73 40.624 276.266 41.168C275.802 41.696 275.57 42.424 275.57 43.352V48.704C275.57 49.168 275.426 49.528 275.138 49.784C274.866 50.024 274.514 50.144 274.082 50.144C273.65 50.144 273.29 50.024 273.002 49.784C272.714 49.528 272.57 49.168 272.57 48.704V42.8C272.57 41.92 272.41 41.296 272.09 40.928C271.786 40.544 271.314 40.352 270.674 40.352C269.89 40.352 269.266 40.624 268.802 41.168C268.354 41.696 268.13 42.424 268.13 43.352V48.704C268.13 49.168 267.986 49.528 267.698 49.784C267.41 50.024 267.05 50.144 266.618 50.144C266.186 50.144 265.826 50.024 265.538 49.784C265.266 49.528 265.13 49.168 265.13 48.704V39.416C265.13 38.968 265.274 38.624 265.562 38.384C265.85 38.144 266.21 38.024 266.642 38.024C267.058 38.024 267.394 38.144 267.65 38.384C267.922 38.608 268.058 38.936 268.058 39.368V39.944C268.426 39.304 268.914 38.816 269.522 38.48C270.146 38.144 270.858 37.976 271.658 37.976C273.418 37.976 274.594 38.712 275.186 40.184C275.538 39.512 276.058 38.976 276.746 38.576C277.434 38.176 278.21 37.976 279.074 37.976ZM295.011 46.784C295.283 46.784 295.499 46.888 295.659 47.096C295.835 47.304 295.923 47.584 295.923 47.936C295.923 48.432 295.627 48.848 295.035 49.184C294.491 49.488 293.875 49.736 293.187 49.928C292.499 50.104 291.843 50.192 291.219 50.192C289.331 50.192 287.835 49.648 286.731 48.56C285.627 47.472 285.075 45.984 285.075 44.096C285.075 42.896 285.315 41.832 285.795 40.904C286.275 39.976 286.947 39.256 287.811 38.744C288.691 38.232 289.683 37.976 290.787 37.976C291.843 37.976 292.763 38.208 293.547 38.672C294.331 39.136 294.939 39.792 295.371 40.64C295.803 41.488 296.019 42.488 296.019 43.64C296.019 44.328 295.715 44.672 295.107 44.672H288.027C288.123 45.776 288.435 46.592 288.963 47.12C289.491 47.632 290.259 47.888 291.267 47.888C291.779 47.888 292.227 47.824 292.611 47.696C293.011 47.568 293.459 47.392 293.955 47.168C294.435 46.912 294.787 46.784 295.011 46.784ZM290.859 40.088C290.043 40.088 289.387 40.344 288.891 40.856C288.411 41.368 288.123 42.104 288.027 43.064H293.451C293.419 42.088 293.179 41.352 292.731 40.856C292.283 40.344 291.659 40.088 290.859 40.088ZM310.365 47.912C311.165 47.96 311.565 48.32 311.565 48.992C311.565 49.376 311.405 49.672 311.085 49.88C310.781 50.072 310.341 50.152 309.765 50.12L309.117 50.072C306.429 49.88 305.085 48.44 305.085 45.752V40.52H303.885C303.453 40.52 303.117 40.424 302.877 40.232C302.653 40.04 302.541 39.76 302.541 39.392C302.541 39.024 302.653 38.744 302.877 38.552C303.117 38.36 303.453 38.264 303.885 38.264H305.085V36.056C305.085 35.624 305.221 35.28 305.493 35.024C305.765 34.768 306.133 34.64 306.597 34.64C307.045 34.64 307.405 34.768 307.677 35.024C307.949 35.28 308.085 35.624 308.085 36.056V38.264H310.125C310.557 38.264 310.885 38.36 311.109 38.552C311.349 38.744 311.469 39.024 311.469 39.392C311.469 39.76 311.349 40.04 311.109 40.232C310.885 40.424 310.557 40.52 310.125 40.52H308.085V45.968C308.085 47.152 308.629 47.784 309.717 47.864L310.365 47.912ZM318.12 50.192C316.92 50.192 315.864 49.944 314.952 49.448C314.056 48.952 313.36 48.24 312.864 47.312C312.368 46.384 312.12 45.304 312.12 44.072C312.12 42.84 312.368 41.768 312.864 40.856C313.36 39.928 314.056 39.216 314.952 38.72C315.864 38.224 316.92 37.976 318.12 37.976C319.32 37.976 320.368 38.224 321.264 38.72C322.176 39.216 322.872 39.928 323.352 40.856C323.848 41.768 324.096 42.84 324.096 44.072C324.096 45.304 323.848 46.384 323.352 47.312C322.872 48.24 322.176 48.952 321.264 49.448C320.368 49.944 319.32 50.192 318.12 50.192ZM318.096 47.864C319.072 47.864 319.816 47.544 320.328 46.904C320.84 46.264 321.096 45.32 321.096 44.072C321.096 42.84 320.84 41.904 320.328 41.264C319.816 40.608 319.08 40.28 318.12 40.28C317.16 40.28 316.416 40.608 315.888 41.264C315.376 41.904 315.12 42.84 315.12 44.072C315.12 45.32 315.376 46.264 315.888 46.904C316.4 47.544 317.136 47.864 318.096 47.864ZM217.471 73.912C218.271 73.96 218.671 74.32 218.671 74.992C218.671 75.376 218.511 75.672 218.191 75.88C217.887 76.072 217.447 76.152 216.871 76.12L216.223 76.072C213.535 75.88 212.191 74.44 212.191 71.752V66.52H210.991C210.559 66.52 210.223 66.424 209.983 66.232C209.759 66.04 209.647 65.76 209.647 65.392C209.647 65.024 209.759 64.744 209.983 64.552C210.223 64.36 210.559 64.264 210.991 64.264H212.191V62.056C212.191 61.624 212.327 61.28 212.599 61.024C212.871 60.768 213.239 60.64 213.703 60.64C214.151 60.64 214.511 60.768 214.783 61.024C215.055 61.28 215.191 61.624 215.191 62.056V64.264H217.231C217.663 64.264 217.991 64.36 218.215 64.552C218.455 64.744 218.575 65.024 218.575 65.392C218.575 65.76 218.455 66.04 218.215 66.232C217.991 66.424 217.663 66.52 217.231 66.52H215.191V71.968C215.191 73.152 215.735 73.784 216.823 73.864L217.471 73.912ZM226.738 63.976C229.49 63.976 230.866 65.584 230.866 68.8V74.704C230.866 75.152 230.73 75.504 230.458 75.76C230.202 76.016 229.842 76.144 229.378 76.144C228.914 76.144 228.546 76.016 228.274 75.76C228.002 75.504 227.866 75.152 227.866 74.704V68.8C227.866 67.952 227.69 67.336 227.338 66.952C227.002 66.552 226.466 66.352 225.73 66.352C224.866 66.352 224.17 66.624 223.642 67.168C223.13 67.712 222.874 68.44 222.874 69.352V74.704C222.874 75.152 222.738 75.504 222.466 75.76C222.194 76.016 221.826 76.144 221.362 76.144C220.898 76.144 220.53 76.016 220.258 75.76C220.002 75.504 219.874 75.152 219.874 74.704V60.352C219.874 59.936 220.01 59.6 220.282 59.344C220.57 59.088 220.938 58.96 221.386 58.96C221.834 58.96 222.194 59.08 222.466 59.32C222.738 59.56 222.874 59.888 222.874 60.304V65.896C223.274 65.272 223.802 64.8 224.458 64.48C225.13 64.144 225.89 63.976 226.738 63.976ZM242.841 72.784C243.113 72.784 243.329 72.888 243.489 73.096C243.665 73.304 243.753 73.584 243.753 73.936C243.753 74.432 243.457 74.848 242.865 75.184C242.321 75.488 241.705 75.736 241.017 75.928C240.329 76.104 239.673 76.192 239.049 76.192C237.161 76.192 235.665 75.648 234.561 74.56C233.457 73.472 232.905 71.984 232.905 70.096C232.905 68.896 233.145 67.832 233.625 66.904C234.105 65.976 234.777 65.256 235.641 64.744C236.521 64.232 237.513 63.976 238.617 63.976C239.673 63.976 240.593 64.208 241.377 64.672C242.161 65.136 242.769 65.792 243.201 66.64C243.633 67.488 243.849 68.488 243.849 69.64C243.849 70.328 243.545 70.672 242.937 70.672H235.857C235.953 71.776 236.265 72.592 236.793 73.12C237.321 73.632 238.089 73.888 239.097 73.888C239.609 73.888 240.057 73.824 240.441 73.696C240.841 73.568 241.289 73.392 241.785 73.168C242.265 72.912 242.617 72.784 242.841 72.784ZM238.689 66.088C237.873 66.088 237.217 66.344 236.721 66.856C236.241 67.368 235.953 68.104 235.857 69.064H241.281C241.249 68.088 241.009 67.352 240.561 66.856C240.113 66.344 239.489 66.088 238.689 66.088ZM258.195 73.912C258.995 73.96 259.395 74.32 259.395 74.992C259.395 75.376 259.235 75.672 258.915 75.88C258.611 76.072 258.171 76.152 257.595 76.12L256.947 76.072C254.259 75.88 252.915 74.44 252.915 71.752V66.52H251.715C251.283 66.52 250.947 66.424 250.707 66.232C250.483 66.04 250.371 65.76 250.371 65.392C250.371 65.024 250.483 64.744 250.707 64.552C250.947 64.36 251.283 64.264 251.715 64.264H252.915V62.056C252.915 61.624 253.051 61.28 253.323 61.024C253.595 60.768 253.963 60.64 254.427 60.64C254.875 60.64 255.235 60.768 255.507 61.024C255.779 61.28 255.915 61.624 255.915 62.056V64.264H257.955C258.387 64.264 258.715 64.36 258.939 64.552C259.179 64.744 259.299 65.024 259.299 65.392C259.299 65.76 259.179 66.04 258.939 66.232C258.715 66.424 258.387 66.52 257.955 66.52H255.915V71.968C255.915 73.152 256.459 73.784 257.547 73.864L258.195 73.912ZM269.886 72.784C270.158 72.784 270.374 72.888 270.534 73.096C270.71 73.304 270.798 73.584 270.798 73.936C270.798 74.432 270.502 74.848 269.91 75.184C269.366 75.488 268.75 75.736 268.062 75.928C267.374 76.104 266.718 76.192 266.094 76.192C264.206 76.192 262.71 75.648 261.606 74.56C260.502 73.472 259.95 71.984 259.95 70.096C259.95 68.896 260.19 67.832 260.67 66.904C261.15 65.976 261.822 65.256 262.686 64.744C263.566 64.232 264.558 63.976 265.662 63.976C266.718 63.976 267.638 64.208 268.422 64.672C269.206 65.136 269.814 65.792 270.246 66.64C270.678 67.488 270.894 68.488 270.894 69.64C270.894 70.328 270.59 70.672 269.982 70.672H262.902C262.998 71.776 263.31 72.592 263.838 73.12C264.366 73.632 265.134 73.888 266.142 73.888C266.654 73.888 267.102 73.824 267.486 73.696C267.886 73.568 268.334 73.392 268.83 73.168C269.31 72.912 269.662 72.784 269.886 72.784ZM265.734 66.088C264.918 66.088 264.262 66.344 263.766 66.856C263.286 67.368 262.998 68.104 262.902 69.064H268.326C268.294 68.088 268.054 67.352 267.606 66.856C267.158 66.344 266.534 66.088 265.734 66.088ZM278.076 63.976C279.708 63.976 280.916 64.384 281.7 65.2C282.5 66 282.9 67.224 282.9 68.872V74.728C282.9 75.16 282.772 75.504 282.516 75.76C282.26 76 281.908 76.12 281.46 76.12C281.044 76.12 280.7 75.992 280.428 75.736C280.172 75.48 280.044 75.144 280.044 74.728V74.2C279.772 74.824 279.34 75.312 278.748 75.664C278.172 76.016 277.5 76.192 276.732 76.192C275.948 76.192 275.236 76.032 274.596 75.712C273.956 75.392 273.452 74.952 273.084 74.392C272.716 73.832 272.532 73.208 272.532 72.52C272.532 71.656 272.748 70.976 273.18 70.48C273.628 69.984 274.348 69.624 275.34 69.4C276.332 69.176 277.7 69.064 279.444 69.064H280.044V68.512C280.044 67.728 279.876 67.16 279.54 66.808C279.204 66.44 278.66 66.256 277.908 66.256C277.444 66.256 276.972 66.328 276.492 66.472C276.012 66.6 275.444 66.792 274.788 67.048C274.372 67.256 274.068 67.36 273.876 67.36C273.588 67.36 273.348 67.256 273.156 67.048C272.98 66.84 272.892 66.568 272.892 66.232C272.892 65.96 272.956 65.728 273.084 65.536C273.228 65.328 273.46 65.136 273.78 64.96C274.34 64.656 275.004 64.416 275.772 64.24C276.556 64.064 277.324 63.976 278.076 63.976ZM277.332 74.032C278.132 74.032 278.78 73.768 279.276 73.24C279.788 72.696 280.044 72 280.044 71.152V70.648H279.612C278.54 70.648 277.708 70.696 277.116 70.792C276.524 70.888 276.1 71.056 275.844 71.296C275.588 71.536 275.46 71.864 275.46 72.28C275.46 72.792 275.636 73.216 275.988 73.552C276.356 73.872 276.804 74.032 277.332 74.032ZM299.533 63.976C300.813 63.976 301.789 64.36 302.461 65.128C303.149 65.88 303.493 67.104 303.493 68.8V74.704C303.493 75.168 303.349 75.528 303.061 75.784C302.789 76.024 302.429 76.144 301.981 76.144C301.549 76.144 301.189 76.024 300.901 75.784C300.629 75.528 300.493 75.168 300.493 74.704V68.8C300.493 67.92 300.333 67.296 300.013 66.928C299.709 66.544 299.237 66.352 298.597 66.352C297.813 66.352 297.189 66.624 296.725 67.168C296.261 67.696 296.029 68.424 296.029 69.352V74.704C296.029 75.168 295.885 75.528 295.597 75.784C295.325 76.024 294.973 76.144 294.541 76.144C294.109 76.144 293.749 76.024 293.461 75.784C293.173 75.528 293.029 75.168 293.029 74.704V68.8C293.029 67.92 292.869 67.296 292.549 66.928C292.245 66.544 291.773 66.352 291.133 66.352C290.349 66.352 289.725 66.624 289.261 67.168C288.813 67.696 288.589 68.424 288.589 69.352V74.704C288.589 75.168 288.445 75.528 288.157 75.784C287.869 76.024 287.509 76.144 287.077 76.144C286.645 76.144 286.285 76.024 285.997 75.784C285.725 75.528 285.589 75.168 285.589 74.704V65.416C285.589 64.968 285.733 64.624 286.021 64.384C286.309 64.144 286.669 64.024 287.101 64.024C287.517 64.024 287.853 64.144 288.109 64.384C288.381 64.608 288.517 64.936 288.517 65.368V65.944C288.885 65.304 289.373 64.816 289.981 64.48C290.605 64.144 291.317 63.976 292.117 63.976C293.877 63.976 295.053 64.712 295.645 66.184C295.997 65.512 296.517 64.976 297.205 64.576C297.893 64.176 298.669 63.976 299.533 63.976ZM307.598 71.104C307.358 71.104 307.15 71.024 306.974 70.864C306.814 70.704 306.718 70.472 306.686 70.168L305.798 60.832L305.774 60.592C305.774 60.096 305.942 59.704 306.278 59.416C306.63 59.112 307.07 58.96 307.598 58.96C308.158 58.96 308.614 59.136 308.966 59.488C309.318 59.824 309.462 60.28 309.398 60.856L308.51 70.168C308.478 70.472 308.374 70.704 308.198 70.864C308.038 71.024 307.838 71.104 307.598 71.104ZM307.598 76.144C307.086 76.144 306.662 75.976 306.326 75.64C305.99 75.288 305.822 74.856 305.822 74.344C305.822 73.832 305.99 73.408 306.326 73.072C306.662 72.72 307.086 72.544 307.598 72.544C308.11 72.544 308.534 72.72 308.87 73.072C309.206 73.408 309.374 73.832 309.374 74.344C309.374 74.856 309.206 75.288 308.87 75.64C308.534 75.976 308.11 76.144 307.598 76.144Z" fill="black"/>
<rect x="35.8105" y="27.7871" width="73.1916" height="85.9206" rx="26.391" fill="#A5A5A5"/>
<path d="M32.525 194.427C32.1858 186.914 38.1858 180.637 45.7071 180.637L58.4239 180.637C65.7116 180.637 71.6194 186.545 71.6194 193.832L71.6194 317.145C71.6194 324.233 66.0208 330.054 58.9389 330.331L51.8022 330.61C44.5514 330.893 38.4324 325.268 38.1051 318.019L32.525 194.427Z" fill="#FFE2C7"/>
<path d="M61.6355 188.228C59.8408 179.792 66.4501 171.546 75.0079 171.546L88.4331 171.545C94.5907 171.544 99.7197 175.925 100.743 182.06L122.438 312.073C123.638 319.261 118.836 326.341 111.714 327.886L104.58 329.434C97.68 330.93 91.0875 326.68 89.6215 319.788L61.6355 188.228Z" fill="#FFE2C7"/>
<rect width="44.3666" height="48.1911" rx="13.1955" transform="matrix(0.982336 -0.187128 0.186679 0.982421 48.3027 200.104)" fill="#FFE2C7"/>
<rect width="19.7916" height="32.9505" rx="9.89582" transform="matrix(-0.258819 0.965926 -0.966087 -0.258218 176.302 190.031)" fill="#FFE2C7"/>
<path fill-rule="evenodd" clip-rule="evenodd" d="M96.5974 119.862C97.2636 116.971 99.5836 114.805 102.447 114.038V114.038C110.204 111.959 117.863 121.666 117.038 129.658C116.457 135.294 116.873 141.142 118.424 146.959C121.096 156.981 126.733 165.398 134.106 171.482C139.646 176.053 141.526 184.898 136.44 189.981V189.981C133.632 192.787 129.375 193.723 125.934 191.751C112.926 184.295 102.125 170.29 97.4059 152.591C94.3759 141.226 94.2773 129.927 96.5974 119.862Z" fill="#FFE2C7"/>
<path d="M35.8105 125.202C35.8105 113.795 45.4259 104.75 56.8109 105.445L86.1692 107.239C96.4907 107.87 104.587 116.339 104.753 126.679L105.512 174.131C105.683 184.846 97.2949 193.752 86.588 194.221L56.4706 195.542C45.2097 196.035 35.8105 187.039 35.8105 175.767V125.202Z" fill="#04C439"/>
<path d="M34.0494 199.193C34.6523 188.721 43.3204 180.537 53.81 180.537H90.3832C100.225 180.537 108.573 187.769 109.975 197.511L118.475 256.574C120.192 268.504 110.937 279.187 98.8836 279.187H50.4098C39.0311 279.187 29.9953 269.616 30.6493 258.256L34.0494 199.193Z" fill="#04C439"/>
<rect width="22.5882" height="34.6353" rx="11.2941" transform="matrix(-0.610433 0.792068 -0.791333 -0.611386 83.2363 218.488)" fill="#FFE2C7"/>
<path fill-rule="evenodd" clip-rule="evenodd" d="M42.0187 111.096C44.2155 109.303 47.2354 109.018 49.8524 110.112V110.112C57.1527 113.163 57.07 125.91 51.6272 131.65C48.1529 135.314 45.2878 139.64 43.2433 144.547C37.6066 158.074 39.4885 172.939 46.9864 184.785C50.096 189.698 50.6503 196.153 47.092 200.747V200.747C43.7766 205.027 37.7952 206.564 33.6042 203.132C17.2055 189.707 12.0598 162.813 22.535 137.673C27.0941 126.732 33.97 117.664 42.0187 111.096Z" fill="#FFE2C7"/>
<rect x="41.7568" y="41.168" width="66.5545" height="59.3798" rx="26.391" fill="#A5A5A5"/>
<rect x="75.3633" y="39.1895" width="32.9478" height="48.1637" rx="16.4739" fill="#A5A5A5"/>
<path d="M107.13 62.9583C107.13 88.9145 101.65 98.7023 85.0472 98.7023C68.4439 98.7023 42.458 86.9699 42.458 68.5185C42.458 50.067 63.7118 26.4199 80.315 26.4199C96.9183 26.4199 107.13 39.2203 107.13 62.9583Z" fill="#FFE2C7"/>
<path d="M60.4941 89.3342C60.4941 82.0465 66.402 76.1387 73.6897 76.1387H74.9748C82.2624 76.1387 88.1703 82.0465 88.1703 89.3342V100.55C88.1703 107.838 82.2624 113.746 74.9748 113.746H73.6897C66.402 113.746 60.4941 107.838 60.4941 100.55V89.3342Z" fill="#FFE2C7"/>
<path fill-rule="evenodd" clip-rule="evenodd" d="M43.6326 68.6022C40.4153 52.3379 49.9045 36.5833 65.1191 33.1856C70.4125 32.0035 75.7124 32.4704 80.5411 34.2598C83.7584 50.5241 74.2692 66.2787 59.0546 69.6764C53.7612 70.8585 48.4613 70.3915 43.6326 68.6022Z" fill="#A5A5A5"/>
<path fill-rule="evenodd" clip-rule="evenodd" d="M97.7689 32.8791C89.1734 25.0543 77.3399 21.5858 65.811 24.6807C50.3051 28.8433 40.2474 43.5641 40.4219 59.8748C48.4482 65.3784 59.6366 67.3572 70.8658 64.3427C87.0887 59.9877 98.0362 46.6501 97.7689 32.8791Z" fill="#A5A5A5"/>
<path fill-rule="evenodd" clip-rule="evenodd" d="M60.5705 96.1737C52.8126 82.0177 56.2151 63.2643 69.6421 51.4588C80.4115 41.9898 94.7742 39.5014 106.755 43.8056C105.626 41.7467 104.262 39.7851 102.658 37.9562C90.0257 23.5529 67.3174 22.8389 51.9375 36.3615C36.5577 49.8842 34.3304 72.5226 46.9627 86.9259C50.7495 91.2436 55.4417 94.3311 60.5705 96.1737Z" fill="#A5A5A5"/>
<path fill-rule="evenodd" clip-rule="evenodd" d="M68.1438 77.588C67.1176 81.4252 62.2174 82.5534 59.3764 79.776C56.3905 76.857 55.0025 72.6227 56.1036 68.5056V68.5056C57.1299 64.6684 62.03 63.5402 64.871 66.3176C67.857 69.2367 69.2449 73.4709 68.1438 77.588V77.588Z" fill="#FFE2C7"/>
<path d="M111.64 74.9335L104.745 62.2296C103.254 59.4844 99.0859 60.5429 99.0859 63.6664V78.9904C99.0859 81.0988 101.196 82.5546 103.167 81.8058L110.063 79.1857C111.768 78.5381 112.51 76.5361 111.64 74.9335Z" fill="#FFE2C7"/>
<rect width="7.52942" height="11.2941" rx="3.76471" transform="matrix(-1 8.74228e-08 8.74228e-08 1 94.4004 59.5488)" fill="black"/>
<rect width="4.92157" height="13.0213" rx="2.46079" transform="matrix(-0.5 -0.866025 -0.859129 0.511759 93.9209 49.7969)" fill="black"/>
<path d="M89.9425 85.1489C92.5657 89.1026 97.472 90.4194 100.904 90.6085L101.657 89.8555C95.966 91.1724 89.9425 85.1489 89.9425 85.1489Z" stroke="black" stroke-width="4.96941" stroke-linecap="round" stroke-linejoin="round"/>
<path d="M83.3339 340.271C88.434 340.872 92.2773 345.194 92.2773 350.33V350.33C92.2773 355.923 87.7428 360.458 82.1491 360.458L48.3766 360.458C41.6882 360.458 36.2661 355.036 36.2661 348.347V348.347C36.2661 341.097 42.5932 335.472 49.7934 336.32L83.3339 340.271Z" fill="#7F00FF"/>
<path d="M143.586 331.86C148.707 331.481 153.3 334.994 154.273 340.036V340.036C155.334 345.528 151.742 350.842 146.251 351.905L113.091 358.326C106.525 359.598 100.174 355.305 98.9052 348.738V348.738C97.5303 341.62 102.675 334.894 109.904 334.358L143.586 331.86Z" fill="#7F00FF"/>
<mask id="path-28-outside-2" maskUnits="userSpaceOnUse" x="10.0889" y="15.5566" width="171" height="352" fill="black">
<rect fill="white" x="10.0889" y="15.5566" width="171" height="352"/>
<path fill-rule="evenodd" clip-rule="evenodd" d="M57.4749 28.2102C45.1548 30.4377 35.8101 41.2171 35.8101 54.1792V87.3177C35.8101 95.6979 39.716 103.166 45.8065 108C43.8362 109.125 42.0746 110.58 40.5996 112.292C33.1626 118.747 26.8236 127.382 22.5348 137.675C12.213 162.446 17.0578 188.921 32.8905 202.535L33.3151 211.941L30.6488 258.257C30.3201 263.967 32.4394 269.225 36.0739 273.043L38.1046 318.021C38.4319 325.27 44.5509 330.894 51.8017 330.611L58.9384 330.332C66.0203 330.056 71.6189 324.234 71.6189 317.147V279.188H80.9839L89.6208 319.789C91.0868 326.681 97.6793 330.932 104.58 329.435L111.714 327.887C118.836 326.342 123.637 319.263 122.437 312.074L115.454 270.223C117.987 266.356 119.194 261.575 118.475 256.575L109.974 197.512C109.225 192.308 106.494 187.821 102.613 184.769C104.508 181.673 105.574 178.022 105.511 174.132L105.468 171.44C110.882 180.217 117.997 187.203 125.933 191.752C129.374 193.724 133.631 192.789 136.439 189.983C141.525 184.9 139.645 176.055 134.105 171.484C126.732 165.4 121.095 156.983 118.423 146.961C116.872 141.144 116.456 135.295 117.037 129.659C117.862 121.668 110.203 111.961 102.446 114.039C101.779 114.218 101.141 114.473 100.547 114.795C99.166 113.033 97.4915 111.509 95.5946 110.299C103.599 105.767 109.002 97.1733 109.002 87.3178V79.5936L110.065 79.1895C111.77 78.5419 112.512 76.5399 111.643 74.9373L109.002 70.0722V54.1792C109.002 44.6219 103.921 36.2512 96.314 31.6202C87.8661 24.6914 76.7042 21.7585 65.8141 24.682C62.8197 25.4858 60.0285 26.6834 57.4749 28.2102ZM166.741 187.477C172.021 188.889 175.155 194.312 173.74 199.591C172.326 204.87 166.899 208.006 161.619 206.595L148.906 203.197C143.626 201.786 140.493 196.362 141.907 191.083C143.322 185.804 148.749 182.668 154.028 184.08L166.741 187.477ZM83.3328 340.273C88.4329 340.874 92.2763 345.197 92.2763 350.332C92.2763 355.926 87.7417 360.46 82.148 360.46H48.3755C41.6871 360.46 36.265 355.038 36.265 348.35C36.265 341.1 42.5921 335.474 49.7923 336.322L83.3328 340.273ZM154.273 340.038C153.299 334.996 148.706 331.483 143.586 331.862L109.904 334.36C102.675 334.896 97.5301 341.622 98.905 348.74C100.173 355.307 106.525 359.6 113.091 358.328L146.251 351.907C151.742 350.844 155.334 345.53 154.273 340.038Z"/>
</mask>
<path d="M57.4749 28.2102L58.7203 35.0985C59.5491 34.9486 60.3441 34.6504 61.067 34.2182L57.4749 28.2102ZM45.8065 108L49.2776 114.079C51.2953 112.927 52.6098 110.849 52.7863 108.532C52.9628 106.215 51.9783 103.962 50.1585 102.517L45.8065 108ZM40.5996 112.292L45.1883 117.578C45.4432 117.357 45.6818 117.117 45.9022 116.861L40.5996 112.292ZM22.5348 137.675L28.9963 140.367L28.9963 140.367L22.5348 137.675ZM32.8905 202.535L39.8834 202.22C39.7963 200.292 38.9175 198.486 37.4544 197.228L32.8905 202.535ZM33.3151 211.941L40.3036 212.343C40.3173 212.104 40.3188 211.865 40.308 211.625L33.3151 211.941ZM30.6488 258.257L37.6372 258.66L37.6372 258.66L30.6488 258.257ZM36.0739 273.043L43.0668 272.727C42.9906 271.041 42.3077 269.439 41.1438 268.216L36.0739 273.043ZM38.1046 318.021L45.0975 317.705L45.0975 317.705L38.1046 318.021ZM51.8017 330.611L52.0749 337.606L52.0749 337.606L51.8017 330.611ZM58.9384 330.332L59.2116 337.327L59.2116 337.327L58.9384 330.332ZM71.6189 279.188V272.188C67.7529 272.188 64.6189 275.322 64.6189 279.188H71.6189ZM80.9839 279.188L87.8307 277.732C87.1431 274.499 84.2886 272.188 80.9839 272.188V279.188ZM89.6208 319.789L96.4676 318.333L96.4676 318.333L89.6208 319.789ZM104.58 329.435L103.096 322.594L103.096 322.594L104.58 329.435ZM111.714 327.887L113.198 334.728L113.198 334.728L111.714 327.887ZM122.437 312.074L115.533 313.227L115.533 313.227L122.437 312.074ZM115.454 270.223L109.598 266.387C108.634 267.859 108.26 269.64 108.549 271.375L115.454 270.223ZM118.475 256.575L125.403 255.578L125.403 255.578L118.475 256.575ZM109.974 197.512L103.046 198.509L103.046 198.509L109.974 197.512ZM102.613 184.769L96.6425 181.114C94.789 184.142 95.4956 188.078 98.2864 190.272L102.613 184.769ZM105.511 174.132L112.51 174.02L112.51 174.02L105.511 174.132ZM105.468 171.44L111.426 167.766C109.772 165.083 106.529 163.837 103.505 164.721C100.48 165.605 98.4188 168.402 98.4692 171.552L105.468 171.44ZM125.933 191.752L122.452 197.826L122.452 197.826L125.933 191.752ZM136.439 189.983L141.387 194.934L141.387 194.934L136.439 189.983ZM134.105 171.484L129.65 176.883L129.65 176.883L134.105 171.484ZM118.423 146.961L111.659 148.764L111.659 148.764L118.423 146.961ZM117.037 129.659L110.074 128.941L110.074 128.941L117.037 129.659ZM102.446 114.039L104.258 120.801L104.258 120.801L102.446 114.039ZM100.547 114.795L95.0373 119.113C97.1435 121.8 100.882 122.576 103.884 120.949L100.547 114.795ZM95.5946 110.299L92.1457 104.208C90.0083 105.418 88.6616 107.66 88.597 110.115C88.5324 112.571 89.7594 114.88 91.8302 116.201L95.5946 110.299ZM109.002 79.5936L106.515 73.05C103.798 74.0825 102.002 76.6868 102.002 79.5936H109.002ZM110.065 79.1895L112.552 85.7331L112.552 85.7331L110.065 79.1895ZM111.643 74.9373L117.795 71.5979L117.795 71.5979L111.643 74.9373ZM109.002 70.0722H102.002C102.002 71.2386 102.293 72.3865 102.85 73.4116L109.002 70.0722ZM96.314 31.6202L91.8749 37.0326C92.1277 37.24 92.3948 37.4294 92.6742 37.5995L96.314 31.6202ZM65.8141 24.682L63.9993 17.9213L63.9992 17.9213L65.8141 24.682ZM166.741 187.477L164.934 194.24L164.934 194.24L166.741 187.477ZM161.619 206.595L163.426 199.832L163.426 199.832L161.619 206.595ZM148.906 203.197L147.098 209.959L147.098 209.959L148.906 203.197ZM141.907 191.083L148.669 192.895L148.669 192.895L141.907 191.083ZM154.028 184.08L155.836 177.317L155.836 177.317L154.028 184.08ZM83.3328 340.273L84.1518 333.321L84.1517 333.321L83.3328 340.273ZM49.7923 336.322L50.6112 329.37L50.6111 329.37L49.7923 336.322ZM143.586 331.862L144.103 338.843L144.103 338.843L143.586 331.862ZM154.273 340.038L147.4 341.365L147.4 341.365L154.273 340.038ZM109.904 334.36L109.386 327.379L109.386 327.379L109.904 334.36ZM98.905 348.74L105.778 347.413L105.778 347.413L98.905 348.74ZM113.091 358.328L114.421 365.201L114.422 365.2L113.091 358.328ZM146.251 351.907L144.92 345.035L144.92 345.035L146.251 351.907ZM42.8101 54.1792C42.8101 44.6626 49.6725 36.7344 58.7203 35.0985L56.2295 21.3219C40.6371 24.141 28.8101 37.7717 28.8101 54.1792H42.8101ZM42.8101 87.3177V54.1792H28.8101V87.3177H42.8101ZM50.1585 102.517C45.6688 98.9537 42.8101 93.4717 42.8101 87.3177H28.8101C28.8101 97.924 33.7631 107.378 41.4546 113.483L50.1585 102.517ZM45.9022 116.861C46.8596 115.75 48.0026 114.807 49.2776 114.079L42.3355 101.921C39.6697 103.443 37.2895 105.41 35.2969 107.722L45.9022 116.861ZM28.9963 140.367C32.8808 131.045 38.5895 123.306 45.1883 117.578L36.0109 107.005C27.7358 114.189 20.7664 123.72 16.0733 134.983L28.9963 140.367ZM37.4544 197.228C24.4848 186.075 19.5243 163.099 28.9963 140.367L16.0733 134.983C4.90166 161.793 9.63086 191.767 28.3265 207.843L37.4544 197.228ZM40.308 211.625L39.8834 202.22L25.8976 202.851L26.3223 212.257L40.308 211.625ZM37.6372 258.66L40.3036 212.343L26.3267 211.539L23.6604 257.855L37.6372 258.66ZM41.1438 268.216C38.7855 265.739 37.4247 262.352 37.6372 258.66L23.6604 257.855C23.2155 265.582 26.0934 272.711 31.0039 277.869L41.1438 268.216ZM45.0975 317.705L43.0668 272.727L29.081 273.359L31.1117 318.337L45.0975 317.705ZM51.5285 323.616C48.1241 323.749 45.2512 321.109 45.0975 317.705L31.1117 318.337C31.6127 329.431 40.9776 338.039 52.0749 337.606L51.5285 323.616ZM58.6652 323.338L51.5285 323.616L52.0749 337.606L59.2116 337.327L58.6652 323.338ZM64.6189 317.147C64.6189 320.474 61.9903 323.208 58.6652 323.338L59.2116 337.327C70.0504 336.904 78.6189 327.994 78.6189 317.147H64.6189ZM64.6189 279.188V317.147H78.6189V279.188H64.6189ZM80.9839 272.188H71.6189V286.188H80.9839V272.188ZM96.4676 318.333L87.8307 277.732L74.1371 280.645L82.774 321.246L96.4676 318.333ZM103.096 322.594C99.9703 323.272 97.124 321.418 96.4676 318.333L82.774 321.246C85.0496 331.943 95.3882 338.591 106.064 336.276L103.096 322.594ZM110.23 321.046L103.096 322.594L106.064 336.276L113.198 334.728L110.23 321.046ZM115.533 313.227C116.118 316.731 113.702 320.293 110.23 321.046L113.198 334.728C123.969 332.392 131.156 321.794 129.342 310.922L115.533 313.227ZM108.549 271.375L115.533 313.227L129.342 310.922L122.358 269.071L108.549 271.375ZM111.546 257.572C112.013 260.815 111.236 263.887 109.598 266.387L121.309 274.058C124.738 268.824 126.376 262.335 125.403 255.578L111.546 257.572ZM103.046 198.509L111.546 257.572L125.403 255.578L116.903 196.515L103.046 198.509ZM98.2864 190.272C100.802 192.25 102.561 195.146 103.046 198.509L116.903 196.515C115.889 189.47 112.186 183.391 106.939 179.266L98.2864 190.272ZM98.5122 174.244C98.5526 176.767 97.8647 179.118 96.6425 181.114L108.583 188.424C111.151 184.228 112.595 179.276 112.51 174.02L98.5122 174.244ZM98.4692 171.552L98.5122 174.244L112.51 174.02L112.467 171.328L98.4692 171.552ZM129.414 185.679C122.58 181.762 116.283 175.64 111.426 167.766L99.5105 175.115C105.48 184.793 113.413 192.645 122.452 197.826L129.414 185.679ZM131.491 185.031C131.047 185.474 130.551 185.703 130.161 185.774C129.808 185.839 129.584 185.777 129.414 185.679L122.452 197.826C129.116 201.645 136.764 199.554 141.387 194.934L131.491 185.031ZM129.65 176.883C131.073 178.056 132.069 179.857 132.339 181.607C132.597 183.287 132.149 184.374 131.491 185.031L141.387 194.934C145.815 190.508 146.97 184.631 146.175 179.475C145.392 174.389 142.678 169.482 138.56 166.084L129.65 176.883ZM111.659 148.764C114.716 160.231 121.18 169.894 129.65 176.883L138.56 166.084C132.285 160.906 127.473 153.735 125.186 145.158L111.659 148.764ZM110.074 128.941C109.407 135.411 109.886 142.114 111.659 148.764L125.186 145.158C123.857 140.173 123.505 135.18 124 130.378L110.074 128.941ZM104.258 120.801C104.608 120.707 105.912 120.657 107.701 122.693C109.461 124.696 110.249 127.251 110.074 128.941L124 130.378C124.651 124.077 122.022 117.782 118.219 113.453C114.445 109.158 108.042 105.293 100.634 107.278L104.258 120.801ZM103.884 120.949C103.993 120.89 104.118 120.838 104.258 120.801L100.634 107.278C99.4394 107.598 98.2897 108.056 97.2106 108.641L103.884 120.949ZM91.8302 116.201C93.0567 116.983 94.1419 117.97 95.0373 119.113L106.057 110.477C104.19 108.095 101.926 106.035 99.3589 104.398L91.8302 116.201ZM102.002 87.3178C102.002 94.5501 98.0455 100.867 92.1457 104.208L99.0434 116.391C109.153 110.667 116.002 99.7964 116.002 87.3178H102.002ZM102.002 79.5936V87.3178H116.002V79.5936H102.002ZM107.579 72.6459L106.515 73.05L111.488 86.1372L112.552 85.7331L107.579 72.6459ZM105.49 78.2767C104.338 76.1545 105.322 73.5036 107.579 72.6459L112.552 85.7331C118.218 83.5802 120.686 76.9254 117.795 71.5979L105.49 78.2767ZM102.85 73.4116L105.49 78.2767L117.795 71.5979L115.154 66.7328L102.85 73.4116ZM102.002 54.1792V70.0722H116.002V54.1792H102.002ZM92.6742 37.5995C98.2821 41.0132 102.002 47.165 102.002 54.1792H116.002C116.002 42.0788 109.561 31.4891 99.9539 25.641L92.6742 37.5995ZM67.629 31.4426C76.1372 29.1586 85.0043 31.3974 91.8749 37.0326L100.753 26.2078C90.728 17.9853 77.2713 14.3585 63.9993 17.9213L67.629 31.4426ZM61.067 34.2182C63.0735 33.0186 65.2676 32.0765 67.629 31.4426L63.9992 17.9213C60.3719 18.8951 56.9835 20.3483 53.8828 22.2021L61.067 34.2182ZM180.502 201.403C182.917 192.388 177.565 183.125 168.549 180.715L164.934 194.24C166.477 194.653 167.392 196.236 166.979 197.78L180.502 201.403ZM159.811 213.357C168.824 215.766 178.087 210.415 180.502 201.403L166.979 197.78C166.564 199.326 164.973 200.246 163.426 199.832L159.811 213.357ZM147.098 209.959L159.811 213.357L163.426 199.832L150.714 196.434L147.098 209.959ZM135.146 189.271C132.73 198.286 138.082 207.55 147.098 209.959L150.714 196.434C149.17 196.022 148.255 194.438 148.669 192.895L135.146 189.271ZM155.836 177.317C146.823 174.908 137.56 180.26 135.146 189.271L148.669 192.895C149.083 191.348 150.674 190.429 152.221 190.842L155.836 177.317ZM168.549 180.715L155.836 177.317L152.221 190.842L164.934 194.24L168.549 180.715ZM99.2763 350.332C99.2763 341.647 92.7766 334.337 84.1518 333.321L82.5139 347.225C84.0892 347.411 85.2763 348.746 85.2763 350.332H99.2763ZM82.148 367.46C91.6077 367.46 99.2763 359.792 99.2763 350.332H85.2763C85.2763 352.06 83.8757 353.46 82.148 353.46V367.46ZM48.3755 367.46H82.148V353.46H48.3755V367.46ZM29.265 348.35C29.265 358.904 37.8211 367.46 48.3755 367.46V353.46C45.5531 353.46 43.265 351.172 43.265 348.35H29.265ZM50.6111 329.37C39.2492 328.032 29.265 336.909 29.265 348.35H43.265C43.265 345.29 45.935 342.916 48.9734 343.274L50.6111 329.37ZM84.1517 333.321L50.6112 329.37L48.9734 343.274L82.514 347.225L84.1517 333.321ZM144.103 338.843C145.683 338.726 147.1 339.809 147.4 341.365L161.146 338.71C159.499 330.183 151.73 324.239 143.068 324.881L144.103 338.843ZM110.422 341.341L144.103 338.843L143.068 324.881L109.386 327.379L110.422 341.341ZM105.778 347.413C105.197 344.407 107.37 341.567 110.422 341.341L109.386 327.379C97.9788 328.225 89.8627 338.837 92.032 350.068L105.778 347.413ZM111.76 351.456C108.991 351.992 106.313 350.182 105.778 347.413L92.032 350.068C94.0338 360.431 104.059 367.207 114.421 365.201L111.76 351.456ZM144.92 345.035L111.76 351.456L114.422 365.2L147.582 358.78L144.92 345.035ZM147.4 341.365C147.728 343.063 146.617 344.706 144.92 345.035L147.582 358.78C156.867 356.982 162.94 347.997 161.146 338.71L147.4 341.365Z" fill="black" mask="url(#path-28-outside-2)"/>
</svg>
